<?xml version="1.0" encoding="utf-8"?>
<!-- Generator: Adobe Illustrator 16.0.0, SVG Export Plug-In . SVG Version: 6.00 Build 0)  -->
<!DOCTYPE svg PUBLIC "-//W3C//DTD SVG 1.1//EN" "http://www.w3.org/Graphics/SVG/1.1/DTD/svg11.dtd">
<svg version="1.1" id="Layer_1" xmlns="http://www.w3.org/2000/svg" xmlns:xlink="http://www.w3.org/1999/xlink" x="0px" y="0px"
	 width="404.986px" height="53.905px" viewBox="0 0 404.986 53.905" enable-background="new 0 0 404.986 53.905"
	 xml:space="preserve">
<g>
	<path fill="#14679B" d="M16.836,29.647c5.664-1.035,8.301,0.274,7.91,3.926c-0.391,3.516-2.891,6.368-7.5,8.555
		c-4.648,2.208-9.17,3.233-13.564,3.076c-0.371-0.019-0.645-0.088-0.82-0.205c-1.015,0.04-1.445-0.195-1.289-0.703
		c-0.039,0.117,0.655-3.145,2.08-9.785c0.547-2.52,1.318-5.527,2.314-9.023c2.5-8.691,3.965-14.775,4.395-18.252
		c0.019-0.136,0.059-0.264,0.117-0.381c-0.078,0-0.176,0.01-0.293,0.029c-0.04,0-0.078,0-0.117,0c-0.02,0.02-0.117,0.04-0.293,0.059
		c0.136-0.039-0.049,0.02-0.557,0.176C7.148,7.723,6.015,7.685,5.82,7c-0.157-0.566,0.81-1.152,2.9-1.758
		c4.57-1.348,8.32-1.25,11.25,0.293c2.871,1.504,4.472,3.907,4.805,7.207c0.352,3.594-0.762,7.383-3.34,11.367
		C20.107,26.161,18.574,28.006,16.836,29.647z M17.07,38.758c0.957-1.27,1.436-2.578,1.436-3.926c0-1.211-0.322-2.031-0.967-2.461
		c-0.313-0.215-0.645-0.361-0.996-0.439c-0.117-0.019-0.195-0.029-0.234-0.029c-0.04,0-0.107,0-0.205,0c-0.078,0-0.146,0-0.205,0
		h-0.029c-0.117,0-0.234,0.01-0.352,0.029c-0.117,0.02-0.234,0.04-0.352,0.059c-0.02,0-0.137,0.029-0.352,0.088
		c-0.176,0.04-0.293,0.069-0.352,0.088h-0.029c0,0.02-0.02,0.029-0.059,0.029c-0.352,0.117-0.645,0.225-0.879,0.322h-0.029
		c-0.02,0.02-0.04,0.04-0.059,0.059c-0.41,0.176-0.791,0.352-1.143,0.527c-0.781,0.41-1.631,0.684-2.549,0.82
		c-1.036,5.098-1.66,8.018-1.875,8.76c0.508,0,0.722,0,0.645,0c0.352-0.019,0.634-0.039,0.85-0.059
		c0.41-0.039,0.576-0.059,0.498-0.059l0.234-0.059c0.41-0.059,0.654-0.107,0.732-0.146c0.293-0.059,0.566-0.127,0.82-0.205
		c0.019-0.019,0.136-0.059,0.352-0.117c0.215-0.078,0.341-0.117,0.381-0.117c0.293-0.117,0.449-0.186,0.469-0.205
		c0.176-0.078,0.293-0.127,0.352-0.146c0.332-0.156,0.625-0.293,0.879-0.41c-0.02,0.02,0.127-0.068,0.439-0.264
		c0.156-0.098,0.312-0.195,0.469-0.293c0.293-0.195,0.498-0.341,0.615-0.439c0.722-0.566,1.084-0.85,1.084-0.85
		S16.796,39.129,17.07,38.758z M15.459,24.93c2.285-3.75,3.32-7.061,3.105-9.932c-0.176-2.5-1.006-4.482-2.49-5.947
		c-0.527,2.871-1.836,7.979-3.926,15.322c-0.762,2.656-1.348,4.834-1.758,6.533C12.363,29.208,14.053,27.215,15.459,24.93z"/>
	<path fill="#14679B" d="M45.128,20.506c0.195,2.305-0.274,5.117-1.406,8.438c-0.137,0.391-0.801,0.811-1.992,1.26
		c-0.957,0.333-1.768,0.508-2.432,0.527c-0.43,0.02-1.631,0.02-3.604,0c-1.523,0-2.725,0.049-3.604,0.146
		c-0.313,1.563-0.527,3.311-0.645,5.244c-0.098,2.149-0.02,3.711,0.234,4.688c0.234,0.898,0.537,1.514,0.908,1.846
		c0.429-0.371,0.781-0.722,1.055-1.055c1.211-1.523,1.953-3.086,2.227-4.688c0.039-0.253,0.469-0.576,1.289-0.967
		c0.703-0.332,1.494-0.576,2.373-0.732c1.777-0.312,2.607-0.117,2.49,0.586c-0.43,2.539-1.797,4.756-4.102,6.65
		c-1.329,1.094-2.706,1.875-4.131,2.344c-2.383,0.801-4.238,1.036-5.566,0.703c-2.031-0.508-3.047-2.383-3.047-5.625
		c-0.019-1.992,0.157-4.267,0.527-6.826c0.684-4.434,1.68-7.793,2.988-10.078c0.839-1.855,1.787-3.3,2.842-4.336
		c1.542-1.523,3.613-2.52,6.211-2.988c2.793-0.508,4.717-0.234,5.771,0.82C44.474,17.401,45.011,18.749,45.128,20.506z
		 M31.476,43.504c-0.02,0.02-0.049,0.029-0.088,0.029L31.476,43.504z M32.472,28.797c1.484-0.215,3.359-0.352,5.625-0.41
		c0.722-2.695,0.977-4.834,0.762-6.416c-0.176-1.816-0.655-3.018-1.436-3.604c-0.117-0.078-0.215-0.136-0.293-0.176
		c-0.117,0.098-0.146,0.127-0.088,0.088c-0.234,0.234-0.43,0.469-0.586,0.703c-0.469,0.664-0.889,1.358-1.26,2.08
		c-0.762,1.582-1.426,3.105-1.992,4.57C32.951,26.629,32.707,27.684,32.472,28.797z M37.892,17.518c0.019,0,0.029-0.01,0.029-0.029
		C37.921,17.508,37.911,17.518,37.892,17.518z"/>
	<path fill="#14679B" d="M80.444,19.393c-0.098,2.5-0.674,5.049-1.729,7.646c-1.758,7.247-2.754,12.646-2.988,16.201
		c-0.059,0.84-1.124,1.455-3.193,1.846c-0.801,0.157-1.504,0.225-2.109,0.205c-0.645-0.039-0.957-0.156-0.938-0.352
		c0.098-1.445,0.264-2.969,0.498-4.57c-0.781,0.82-1.553,1.494-2.314,2.021c-1.348,0.938-2.823,1.523-4.424,1.758
		c-1.719,0.234-2.9,0.137-3.545-0.293c-1.387-0.898-2.119-2.764-2.197-5.596c-0.176-4.844,1.084-9.766,3.779-14.766
		c1.68-3.066,4.551-5.41,8.613-7.031c2.949-1.191,5.254-1.425,6.914-0.703c1.055,0.469,1.611,1.563,1.67,3.281
		C79.79,18.885,80.444,19.002,80.444,19.393z M67.085,37.206c2.617-3.535,4.453-6.572,5.508-9.111
		c0.625-2.578,1.094-4.639,1.406-6.182c-1.211,0.098-1.807-0.01-1.787-0.322c0.098-1.777-0.146-2.91-0.732-3.398l-0.029,0.029
		c-0.215,0.137-0.381,0.245-0.498,0.322c-0.078,0.059-0.137,0.098-0.176,0.117c-0.02,0.02-0.04,0.04-0.059,0.059
		c-0.684,0.527-1.26,1.025-1.729,1.494c-0.488,0.488-0.918,1.055-1.289,1.699c-0.567,1.036-1.065,2.061-1.494,3.076
		c-1.153,2.793-1.895,5.352-2.227,7.676c-0.43,2.969-0.333,5.332,0.293,7.09c0.098,0.234,0.205,0.479,0.322,0.732
		c0.352-0.41,0.527-0.615,0.527-0.615S65.776,38.983,67.085,37.206z"/>
	<path fill="#14679B" d="M97.399,16.083c0.586,0.04,0.918,0.195,0.996,0.469c0.078,0.274-0.137,0.567-0.645,0.879
		c-1.406,0.86-2.881,1.25-4.424,1.172c-0.645-0.019-1.406-0.039-2.285-0.059c-0.527,1.895-0.977,3.721-1.348,5.479
		c-0.234,1.036-0.469,2.383-0.703,4.043c-0.333,2.149-0.538,3.497-0.615,4.043c-0.547,3.105-0.752,5.273-0.615,6.504
		c0.136,1.289,0.429,2.363,0.879,3.223c1.425-2.207,2.256-4.316,2.49-6.328c0.117-0.839,1.201-1.445,3.252-1.816
		c0.801-0.156,1.504-0.215,2.109-0.176c0.645,0.02,0.957,0.117,0.938,0.293c-0.43,3.574-1.875,6.631-4.336,9.17
		c-1.856,1.875-4.258,2.823-7.207,2.842c-1.641,0-2.842-0.889-3.604-2.666c-0.839-1.894-1.006-4.384-0.498-7.471
		c0.078-0.527,0.273-1.885,0.586-4.072c0.253-1.66,0.469-3.018,0.645-4.072c0.527-2.852,1.25-5.849,2.168-8.994
		c-2.344,0.04-3.955,0.059-4.834,0.059c-0.605,0-0.947-0.146-1.025-0.439c-0.059-0.273,0.166-0.566,0.674-0.879
		c1.27-0.801,2.744-1.201,4.424-1.201c0.429,0,0.938,0,1.523,0c0.703-2.187,1.513-4.531,2.432-7.031
		c0.273-0.742,1.504-1.308,3.691-1.699C94,7,94.831,7.187,94.557,7.909c-1.094,2.969-2.021,5.665-2.783,8.086
		C93.961,15.995,95.836,16.024,97.399,16.083z"/>
	<path fill="#14679B" d="M118.154,9.432c0.059-0.253,0.488-0.566,1.289-0.938c0.722-0.352,1.513-0.605,2.373-0.762
		c1.835-0.332,2.676-0.136,2.52,0.586c-0.703,3.125-1.904,9.082-3.604,17.871c-0.743,3.809-1.358,6.855-1.846,9.141
		c-0.45,2.149-0.781,3.643-0.996,4.482c-0.45,1.758-0.684,3.047-0.703,3.867c-0.02,0.82-1.074,1.446-3.164,1.875
		c-0.801,0.157-1.513,0.215-2.139,0.176c-0.645-0.019-0.967-0.146-0.967-0.381c0.02-0.371,0.586-3.203,1.699-8.496
		c0.547-2.559,1.162-5.605,1.846-9.141C116.22,18.651,117.451,12.557,118.154,9.432z"/>
	<path fill="#14679B" d="M145.655,17.899c0.762,1.895,1.055,4.395,0.879,7.5c-0.137,2.188-0.498,4.932-1.084,8.232
		c-1.622,9.043-2.871,15.146-3.75,18.311c-0.059,0.253-0.488,0.566-1.289,0.938c-0.723,0.332-1.514,0.576-2.373,0.732
		c-1.875,0.352-2.715,0.166-2.52-0.557c0.879-3.164,2.109-9.16,3.691-17.988c1.132-6.328,1.396-10.83,0.791-13.506
		c-0.43,0.41-0.82,0.831-1.172,1.26c-1.387,1.68-2.783,3.926-4.189,6.738c-1.348,2.695-3.252,7.412-5.713,14.15
		c-0.215,0.625-1.318,1.143-3.311,1.553c-1.973,0.43-2.939,0.381-2.9-0.146c0.254-3.476,1.074-8.076,2.461-13.799
		c1.601-6.64,2.588-11.201,2.959-13.682c0.098-0.703,1.055-1.299,2.871-1.787c0.488-0.136,1.094-0.234,1.816-0.293
		c1.094-0.098,1.621,0.029,1.582,0.381c-0.333,2.168-0.831,4.727-1.494,7.676c0.488-0.605,0.996-1.162,1.523-1.67
		c2.344-2.246,5.234-3.691,8.672-4.336C144.61,17.313,145.46,17.411,145.655,17.899z"/>
	<path fill="#14679B" d="M166.771,15.79c1.387,1.426,2.041,3.154,1.963,5.186c-0.059,1.934-0.762,3.652-2.109,5.156
		c-0.703,0.82-2.1,1.318-4.189,1.494c-0.547,0.04-0.986,0.01-1.318-0.088c-0.488-0.156-0.538-0.458-0.146-0.908
		c1.035-1.172,1.553-2.539,1.553-4.102c0-2.109-0.596-3.691-1.787-4.746c-0.41-0.371-0.801-0.634-1.172-0.791
		c-0.137-0.059-0.254-0.107-0.352-0.146h-0.029l-0.029,0.029c-1.367,0.898-2.559,2.363-3.574,4.395
		c-0.957,1.973-1.66,4.131-2.109,6.475c-0.43,2.266-0.615,4.502-0.557,6.709c0.078,2.793,0.469,4.912,1.172,6.357
		c0.41,0.86,0.879,1.465,1.406,1.816c0.176-0.156,0.312-0.283,0.41-0.381c0.605-0.645,1.182-1.425,1.729-2.344
		c0.469-0.762,1.689-1.318,3.662-1.67c0.469-0.098,0.986-0.136,1.553-0.117c0.879,0.04,1.191,0.264,0.938,0.674
		c-1.816,3.028-4.209,5.02-7.178,5.977c-4.317,1.406-7.159,0.791-8.525-1.846c-1.563-2.969-1.885-7.285-0.967-12.949
		c0.879-5.43,2.725-9.394,5.537-11.895c2.148-1.934,4.746-3.154,7.793-3.662c2.852-0.449,4.277-0.674,4.277-0.674
		S165.403,14.423,166.771,15.79z M159.769,16.493c0,0.02-0.01,0.029-0.029,0.029C159.739,16.522,159.749,16.512,159.769,16.493z"/>
	<path fill="#14679B" d="M189.79,19.393c-0.098,2.5-0.674,5.049-1.729,7.646c-1.758,7.247-2.754,12.646-2.988,16.201
		c-0.059,0.84-1.124,1.455-3.193,1.846c-0.801,0.157-1.504,0.225-2.109,0.205c-0.645-0.039-0.957-0.156-0.938-0.352
		c0.098-1.445,0.264-2.969,0.498-4.57c-0.781,0.82-1.553,1.494-2.314,2.021c-1.348,0.938-2.823,1.523-4.424,1.758
		c-1.719,0.234-2.9,0.137-3.545-0.293c-1.387-0.898-2.119-2.764-2.197-5.596c-0.176-4.844,1.084-9.766,3.779-14.766
		c1.68-3.066,4.551-5.41,8.613-7.031c2.949-1.191,5.254-1.425,6.914-0.703c1.055,0.469,1.611,1.563,1.67,3.281
		C189.135,18.885,189.79,19.002,189.79,19.393z M176.43,37.206c2.617-3.535,4.453-6.572,5.508-9.111
		c0.625-2.578,1.094-4.639,1.406-6.182c-1.211,0.098-1.807-0.01-1.787-0.322c0.098-1.777-0.146-2.91-0.732-3.398l-0.029,0.029
		c-0.215,0.137-0.381,0.245-0.498,0.322c-0.078,0.059-0.137,0.098-0.176,0.117c-0.02,0.02-0.04,0.04-0.059,0.059
		c-0.684,0.527-1.26,1.025-1.729,1.494c-0.488,0.488-0.918,1.055-1.289,1.699c-0.567,1.036-1.065,2.061-1.494,3.076
		c-1.153,2.793-1.895,5.352-2.227,7.676c-0.43,2.969-0.333,5.332,0.293,7.09c0.098,0.234,0.205,0.479,0.322,0.732
		c0.352-0.41,0.527-0.615,0.527-0.615S175.122,38.983,176.43,37.206z"/>
	<path fill="#14679B" d="M211.666,17.899c0.762,1.895,1.055,4.395,0.879,7.5c-0.137,2.188-0.498,4.932-1.084,8.232
		c-1.622,9.043-2.871,15.146-3.75,18.311c-0.059,0.253-0.488,0.566-1.289,0.938c-0.723,0.332-1.514,0.576-2.373,0.732
		c-1.875,0.352-2.715,0.166-2.52-0.557c0.879-3.164,2.109-9.16,3.691-17.988c1.132-6.328,1.396-10.83,0.791-13.506
		c-0.43,0.41-0.82,0.831-1.172,1.26c-1.387,1.68-2.783,3.926-4.189,6.738c-1.348,2.695-3.252,7.412-5.713,14.15
		c-0.215,0.625-1.318,1.143-3.311,1.553c-1.973,0.43-2.939,0.381-2.9-0.146c0.254-3.476,1.074-8.076,2.461-13.799
		c1.601-6.64,2.588-11.201,2.959-13.682c0.098-0.703,1.055-1.299,2.871-1.787c0.488-0.136,1.094-0.234,1.816-0.293
		c1.094-0.098,1.621,0.029,1.582,0.381c-0.333,2.168-0.831,4.727-1.494,7.676c0.488-0.605,0.996-1.162,1.523-1.67
		c2.344-2.246,5.234-3.691,8.672-4.336C210.621,17.313,211.471,17.411,211.666,17.899z"/>
	<path fill="#14679B" d="M236.619,1.17c1.875-0.332,2.705-0.136,2.49,0.586c-1.426,4.707-4.317,18.526-8.672,41.455
		c-0.059,0.254-0.488,0.576-1.289,0.967c-0.723,0.333-1.514,0.576-2.373,0.732c-0.488,0.078-0.898,0.127-1.23,0.146
		c-3.281,1.406-6.064,1.514-8.35,0.322c-2.012-1.035-3.33-2.754-3.955-5.156c-0.898-3.438-0.596-7.666,0.908-12.686
		c1.621-5.41,4.043-9.033,7.266-10.869c1.835-1.055,3.779-1.689,5.83-1.904c0.977-0.098,1.835-0.019,2.578,0.234
		c0.977-4.414,2.021-8.457,3.135-12.129c0.078-0.273,0.498-0.596,1.26-0.967C234.938,1.571,235.74,1.327,236.619,1.17z
		 M219.421,38.377c0.566,2.109,1.563,3.614,2.988,4.512c0.253,0.176,0.508,0.322,0.762,0.439l0.117-0.146
		c0.312-0.41,0.781-0.751,1.406-1.025c0.312-1.66,0.869-4.775,1.67-9.346c0.703-3.945,1.27-7.07,1.699-9.375
		c-0.684-0.019-1.036-0.166-1.055-0.439c-0.254-2.559-0.879-4.277-1.875-5.156c-0.059-0.059-0.107-0.098-0.146-0.117
		c-0.215,0.176-0.4,0.352-0.557,0.527c-1.953,2.109-3.457,5.284-4.512,9.521c-1.036,4.297-1.553,6.445-1.553,6.445
		S218.718,35.604,219.421,38.377z"/>
	<path fill="#14679B" d="M238.896,42.625c-0.117-0.234,0.107-0.527,0.674-0.879c0.527-0.332,1.182-0.625,1.963-0.879
		c2.031-0.664,3.242-0.634,3.633,0.088c1.035,1.953,1.211,4.043,0.527,6.27c-0.625,2.07-1.836,3.838-3.633,5.303
		c-1.016,0.839-2.413,1.337-4.189,1.494c-0.469,0.039-0.918,0-1.348-0.117c-0.566-0.176-0.605-0.469-0.117-0.879
		c1.601-1.309,2.646-2.9,3.135-4.775C240.067,46.298,239.852,44.423,238.896,42.625z"/>
	<path fill="#14679B" d="M281.682,19.334c1.601,3.809,0.947,8.438-1.963,13.887c-2.383,4.414-4.991,7.666-7.822,9.756
		c-2.949,2.188-5.732,3.154-8.35,2.9c-1.25-0.117-2.158-0.517-2.725-1.201c-0.488-0.566-0.42-1.621,0.205-3.164
		c0.02-0.039,0.157-0.898,0.41-2.578c0.137-0.918,0.264-1.68,0.381-2.285c0.274-1.465,0.635-3.066,1.084-4.805
		c1.191-4.648,2.002-7.979,2.432-9.99c0.977-4.727,1.718-8.096,2.227-10.107c0.136-0.546,0.361-1.425,0.674-2.637
		c0.293-1.132,0.517-2.002,0.674-2.607c0.527-2.168,0.742-3.604,0.645-4.307c-0.117-0.742,0.869-1.367,2.959-1.875
		c2.09-0.488,3.183-0.42,3.281,0.205c0.117,0.781-0.098,2.275-0.645,4.482c-0.137,0.586-0.342,1.387-0.615,2.402
		c-0.293,1.133-0.498,1.934-0.615,2.402c-0.45,1.758-0.938,3.848-1.465,6.27c1.992-0.605,3.779-0.684,5.361-0.234
		C279.631,16.375,280.92,17.538,281.682,19.334z M275.999,27.948c0.586-2.988,0.312-5.498-0.82-7.529
		c-0.605-1.035-1.27-1.729-1.992-2.08c-0.117,0.117-0.146,0.146-0.088,0.088c-0.333,0.313-0.772,0.586-1.318,0.82
		c-0.04,0.254-0.059,0.342-0.059,0.264c-0.664,3.184-1.446,6.523-2.344,10.02c-1.113,4.238-1.768,7.607-1.963,10.107
		c-0.02,0.02-0.225,0.576-0.615,1.67c-0.274,0.703-0.205,1.23,0.205,1.582v0.029c0.195-0.156,0.381-0.312,0.557-0.469
		c0.664-0.625,1.25-1.23,1.758-1.816c0.039-0.039,0.224-0.264,0.557-0.674c0.391-0.508,0.732-0.957,1.025-1.348
		c0.781-1.113,1.455-2.158,2.021-3.135c1.582-2.754,2.373-4.131,2.373-4.131S275.53,30.214,275.999,27.948z"/>
	<path fill="#14679B" d="M301.713,20.506c0.195,2.305-0.274,5.117-1.406,8.438c-0.137,0.391-0.801,0.811-1.992,1.26
		c-0.957,0.333-1.768,0.508-2.432,0.527c-0.43,0.02-1.631,0.02-3.604,0c-1.523,0-2.725,0.049-3.604,0.146
		c-0.313,1.563-0.527,3.311-0.645,5.244c-0.098,2.149-0.02,3.711,0.234,4.688c0.234,0.898,0.537,1.514,0.908,1.846
		c0.429-0.371,0.781-0.722,1.055-1.055c1.211-1.523,1.953-3.086,2.227-4.688c0.039-0.253,0.469-0.576,1.289-0.967
		c0.703-0.332,1.494-0.576,2.373-0.732c1.777-0.312,2.607-0.117,2.49,0.586c-0.43,2.539-1.797,4.756-4.102,6.65
		c-1.329,1.094-2.706,1.875-4.131,2.344c-2.383,0.801-4.238,1.036-5.566,0.703c-2.031-0.508-3.047-2.383-3.047-5.625
		c-0.019-1.992,0.157-4.267,0.527-6.826c0.684-4.434,1.68-7.793,2.988-10.078c0.839-1.855,1.787-3.3,2.842-4.336
		c1.542-1.523,3.613-2.52,6.211-2.988c2.793-0.508,4.717-0.234,5.771,0.82C301.058,17.401,301.596,18.749,301.713,20.506z
		 M288.061,43.504c-0.02,0.02-0.049,0.029-0.088,0.029L288.061,43.504z M289.057,28.797c1.484-0.215,3.359-0.352,5.625-0.41
		c0.722-2.695,0.977-4.834,0.762-6.416c-0.176-1.816-0.655-3.018-1.436-3.604c-0.117-0.078-0.215-0.136-0.293-0.176
		c-0.117,0.098-0.146,0.127-0.088,0.088c-0.234,0.234-0.43,0.469-0.586,0.703c-0.469,0.664-0.889,1.358-1.26,2.08
		c-0.762,1.582-1.426,3.105-1.992,4.57C289.535,26.629,289.291,27.684,289.057,28.797z M294.477,17.518
		c0.019,0,0.029-0.01,0.029-0.029C294.506,17.508,294.496,17.518,294.477,17.518z"/>
	<path fill="#14679B" d="M320.923,15.79c1.387,1.426,2.041,3.154,1.963,5.186c-0.059,1.934-0.762,3.652-2.109,5.156
		c-0.703,0.82-2.1,1.318-4.189,1.494c-0.547,0.04-0.986,0.01-1.318-0.088c-0.488-0.156-0.538-0.458-0.146-0.908
		c1.035-1.172,1.553-2.539,1.553-4.102c0-2.109-0.596-3.691-1.787-4.746c-0.41-0.371-0.801-0.634-1.172-0.791
		c-0.137-0.059-0.254-0.107-0.352-0.146h-0.029l-0.029,0.029c-1.367,0.898-2.559,2.363-3.574,4.395
		c-0.957,1.973-1.66,4.131-2.109,6.475c-0.43,2.266-0.615,4.502-0.557,6.709c0.078,2.793,0.469,4.912,1.172,6.357
		c0.41,0.86,0.879,1.465,1.406,1.816c0.176-0.156,0.312-0.283,0.41-0.381c0.605-0.645,1.182-1.425,1.729-2.344
		c0.469-0.762,1.689-1.318,3.662-1.67c0.469-0.098,0.986-0.136,1.553-0.117c0.879,0.04,1.191,0.264,0.938,0.674
		c-1.816,3.028-4.209,5.02-7.178,5.977c-4.317,1.406-7.159,0.791-8.525-1.846c-1.563-2.969-1.885-7.285-0.967-12.949
		c0.879-5.43,2.725-9.394,5.537-11.895c2.148-1.934,4.746-3.154,7.793-3.662c2.852-0.449,4.277-0.674,4.277-0.674
		S319.556,14.423,320.923,15.79z M313.921,16.493c0,0.02-0.01,0.029-0.029,0.029C313.892,16.522,313.902,16.512,313.921,16.493z"/>
	<path fill="#14679B" d="M343.942,19.393c-0.098,2.5-0.674,5.049-1.729,7.646c-1.758,7.247-2.754,12.646-2.988,16.201
		c-0.059,0.84-1.124,1.455-3.193,1.846c-0.801,0.157-1.504,0.225-2.109,0.205c-0.645-0.039-0.957-0.156-0.938-0.352
		c0.098-1.445,0.264-2.969,0.498-4.57c-0.781,0.82-1.553,1.494-2.314,2.021c-1.348,0.938-2.823,1.523-4.424,1.758
		c-1.719,0.234-2.9,0.137-3.545-0.293c-1.387-0.898-2.119-2.764-2.197-5.596c-0.176-4.844,1.084-9.766,3.779-14.766
		c1.68-3.066,4.551-5.41,8.613-7.031c2.949-1.191,5.254-1.425,6.914-0.703c1.055,0.469,1.611,1.563,1.67,3.281
		C343.288,18.885,343.942,19.002,343.942,19.393z M330.583,37.206c2.617-3.535,4.453-6.572,5.508-9.111
		c0.625-2.578,1.094-4.639,1.406-6.182c-1.211,0.098-1.807-0.01-1.787-0.322c0.098-1.777-0.146-2.91-0.732-3.398l-0.029,0.029
		c-0.215,0.137-0.381,0.245-0.498,0.322c-0.078,0.059-0.137,0.098-0.176,0.117c-0.02,0.02-0.04,0.04-0.059,0.059
		c-0.684,0.527-1.26,1.025-1.729,1.494c-0.488,0.488-0.918,1.055-1.289,1.699c-0.567,1.036-1.065,2.061-1.494,3.076
		c-1.153,2.793-1.895,5.352-2.227,7.676c-0.43,2.969-0.333,5.332,0.293,7.09c0.098,0.234,0.205,0.479,0.322,0.732
		c0.352-0.41,0.527-0.615,0.527-0.615S329.274,38.983,330.583,37.206z"/>
	<path fill="#14679B" d="M360.136,17.84c0.215-0.605,1.318-1.123,3.311-1.553c1.973-0.429,2.939-0.381,2.9,0.146
		c-0.371,5.391-2.139,14.727-5.303,28.008c-0.059,0.254-0.488,0.567-1.289,0.938c-0.723,0.352-1.514,0.605-2.373,0.762
		c-1.836,0.333-2.676,0.137-2.52-0.586c1.66-6.895,2.597-10.85,2.813-11.865c-0.254,0.45-0.479,0.84-0.674,1.172
		c-1.953,3.34-3.79,5.782-5.508,7.324c-2.559,2.266-5.361,3.223-8.408,2.871c-0.253-0.019-0.439-0.146-0.557-0.381
		c-0.293-9.902,1.963-18.926,6.768-27.07c0.449-0.762,1.68-1.318,3.691-1.67c0.469-0.098,0.986-0.136,1.553-0.117
		c0.879,0.04,1.191,0.264,0.938,0.674c-4.004,6.797-6.211,14.346-6.621,22.646c1.015-1.484,2.051-3.212,3.105-5.186
		C356.571,25.497,359.296,20.125,360.136,17.84z"/>
	<path fill="#14679B" d="M383.213,24.608c-0.567,0.781-1.797,1.348-3.691,1.699c-0.41,0.078-0.928,0.098-1.553,0.059
		c-0.898-0.039-1.211-0.253-0.938-0.645c1.934-2.714,2.588-4.717,1.963-6.006c-0.469-0.996-1.338-1.523-2.607-1.582
		c-0.313,0-0.333-0.01-0.059-0.029c-0.352,0.04-0.333,0.04,0.059,0c0.429-0.059,0.85-0.195,1.26-0.41
		c-0.059,0.04-0.127,0.078-0.205,0.117c0-0.019-0.069,0.029-0.205,0.146c-0.02,0.02-0.107,0.107-0.264,0.264
		c-1.465,1.406-2.1,3.116-1.904,5.127c0.136,1.387,0.85,2.969,2.139,4.746c2.48,3.398,3.672,5.02,3.574,4.863
		c1.367,2.07,2.099,3.779,2.197,5.127c0.117,1.953-0.645,3.545-2.285,4.775c-2.988,2.246-6.084,3.262-9.287,3.047
		c-2.598-0.176-4.551-1.084-5.859-2.725c-1.406-1.758-1.494-3.691-0.264-5.801c0.45-0.762,1.68-1.318,3.691-1.67
		c0.469-0.098,0.986-0.136,1.553-0.117c0.859,0.04,1.172,0.264,0.938,0.674c-0.605,1.036-0.82,2.08-0.645,3.135
		c0.176,1.094,0.742,2.002,1.699,2.725c1.015,0.781,1.923,1.201,2.725,1.26c0.234,0,0.253,0.02,0.059,0.059
		c-0.333,0.059-0.645,0.157-0.938,0.293c0.352-0.156,0.645-0.332,0.879-0.527c2.227-1.953,1.748-5.156-1.436-9.609
		c-0.234-0.332-0.801-1.055-1.699-2.168c-0.743-0.957-1.318-1.738-1.729-2.344c-1.23-1.894-1.748-3.643-1.553-5.244
		c0.273-2.597,1.601-4.677,3.984-6.24c2.187-1.445,4.658-2.109,7.412-1.992c1.289,0.059,2.392,0.303,3.311,0.732
		c1.25,0.567,1.894,1.406,1.934,2.52C385.547,20.467,384.795,22.381,383.213,24.608z"/>
	<path fill="#14679B" d="M404.943,20.506c0.195,2.305-0.274,5.117-1.406,8.438c-0.137,0.391-0.801,0.811-1.992,1.26
		c-0.957,0.333-1.768,0.508-2.432,0.527c-0.43,0.02-1.631,0.02-3.604,0c-1.523,0-2.725,0.049-3.604,0.146
		c-0.313,1.563-0.527,3.311-0.645,5.244c-0.098,2.149-0.02,3.711,0.234,4.688c0.234,0.898,0.537,1.514,0.908,1.846
		c0.429-0.371,0.781-0.722,1.055-1.055c1.211-1.523,1.953-3.086,2.227-4.688c0.039-0.253,0.469-0.576,1.289-0.967
		c0.703-0.332,1.494-0.576,2.373-0.732c1.777-0.312,2.607-0.117,2.49,0.586c-0.43,2.539-1.797,4.756-4.102,6.65
		c-1.329,1.094-2.706,1.875-4.131,2.344c-2.383,0.801-4.238,1.036-5.566,0.703c-2.031-0.508-3.047-2.383-3.047-5.625
		c-0.019-1.992,0.157-4.267,0.527-6.826c0.684-4.434,1.68-7.793,2.988-10.078c0.839-1.855,1.787-3.3,2.842-4.336
		c1.542-1.523,3.613-2.52,6.211-2.988c2.793-0.508,4.717-0.234,5.771,0.82C404.289,17.401,404.826,18.749,404.943,20.506z
		 M391.291,43.504c-0.02,0.02-0.049,0.029-0.088,0.029L391.291,43.504z M392.287,28.797c1.484-0.215,3.359-0.352,5.625-0.41
		c0.722-2.695,0.977-4.834,0.762-6.416c-0.176-1.816-0.655-3.018-1.436-3.604c-0.117-0.078-0.215-0.136-0.293-0.176
		c-0.117,0.098-0.146,0.127-0.088,0.088c-0.234,0.234-0.43,0.469-0.586,0.703c-0.469,0.664-0.889,1.358-1.26,2.08
		c-0.762,1.582-1.426,3.105-1.992,4.57C392.766,26.629,392.521,27.684,392.287,28.797z M397.707,17.518
		c0.019,0,0.029-0.01,0.029-0.029C397.736,17.508,397.726,17.518,397.707,17.518z"/>
</g>
</svg>
