<?xml version="1.0" encoding="utf-8"?>
<!-- Generator: Adobe Illustrator 16.0.0, SVG Export Plug-In . SVG Version: 6.00 Build 0)  -->
<!DOCTYPE svg PUBLIC "-//W3C//DTD SVG 1.1//EN" "http://www.w3.org/Graphics/SVG/1.1/DTD/svg11.dtd">
<svg version="1.1" id="Layer_1" xmlns="http://www.w3.org/2000/svg" xmlns:xlink="http://www.w3.org/1999/xlink" x="0px" y="0px"
	 width="50px" height="50px" viewBox="0 0 50 50" enable-background="new 0 0 50 50" xml:space="preserve">
<g>
	<path fill="#BE1E2D" d="M24.999,48c-12.682,0-23-10.318-23-23c0-12.682,10.318-23,23-23C37.682,2,48,12.317,48,25
		C48,37.684,37.682,48,24.999,48z"/>
	<path fill="#FFFFFF" d="M24.999,4C36.579,4,46,13.42,46,25s-9.421,21-21.001,21s-21-9.421-21-21C3.999,13.42,13.419,4,24.999,4
		 M24.999,0c-13.807,0-25,11.193-25,25c0,13.807,11.193,25,25,25C38.807,50,50,38.807,50,25C50,11.193,38.807,0,24.999,0L24.999,0z"
		/>
</g>
<polyline fill="#BE1E2D" stroke="#FFFFFF" stroke-width="5" stroke-linecap="round" stroke-linejoin="round" stroke-miterlimit="10" points="
	13.684,19.838 24.938,33.604 36.314,19.689 "/>
</svg>
