<?xml version="1.0" encoding="utf-8"?>
<!-- Generator: Adobe Illustrator 16.0.0, SVG Export Plug-In . SVG Version: 6.00 Build 0)  -->
<!DOCTYPE svg PUBLIC "-//W3C//DTD SVG 1.1//EN" "http://www.w3.org/Graphics/SVG/1.1/DTD/svg11.dtd">
<svg version="1.1" id="Layer_1" xmlns="http://www.w3.org/2000/svg" xmlns:xlink="http://www.w3.org/1999/xlink" x="0px" y="0px"
	 width="300px" height="300px" viewBox="106 106 300 300" enable-background="new 106 106 300 300" xml:space="preserve">
<path fill="#5ACAEA" d="M394.07,215.521v-72.922c0-11.673-9.497-21.171-21.171-21.171H127.172c-11.675,0-21.172,9.498-21.172,21.171
	v148.553c0,11.673,9.498,21.172,21.172,21.172h69.64l-7.972,8.579h-11.943c-2.715,0-4.917,2.201-4.917,4.917
	c0,2.714,2.201,4.916,4.917,4.916h68.407v47.413c0,6.85,5.572,12.423,12.422,12.423h52.849c6.849,0,12.422-5.572,12.422-12.423
	v-9.985h66.164c9.285,0,16.84-7.556,16.84-16.847V231.634C406,224.054,400.97,217.631,394.07,215.521L394.07,215.521z
	 M396.167,231.634v1.343H283.104v-1.343c0-3.867,3.146-7.014,7.014-7.014h99.043C393.026,224.621,396.167,227.767,396.167,231.634z
	 M310.574,273.168h-27.471V242.81h113.063v97.333h-73.171V285.59C322.996,278.74,317.423,273.168,310.574,273.168L310.574,273.168z
	 M313.164,292.052h-58.028v-6.463c0-1.428,1.162-2.59,2.59-2.59h52.849c1.43,0,2.59,1.161,2.59,2.59V292.052L313.164,292.052z
	 M384.237,147.516v67.271h-94.12c-9.288,0-16.846,7.557-16.846,16.846v41.534h-15.546c-6.844,0-12.412,5.563-12.421,12.405H115.832
	V147.516H384.237z M255.135,301.885h58.028v59.973h-58.028V301.885z M127.171,131.26h245.727c4.491,0,8.367,2.63,10.201,6.423
	H116.968C118.805,133.89,122.682,131.26,127.171,131.26L127.171,131.26z M116.668,295.407h128.636v7.085H127.171
	C122.424,302.491,118.355,299.554,116.668,295.407z M202.261,320.903l7.972-8.579h35.071v8.579H202.261z M310.574,380.74h-52.85
	c-1.428,0-2.589-1.162-2.589-2.59v-6.461h58.028v6.461C313.164,379.577,312.001,380.74,310.574,380.74z M389.16,358.332h-66.165
	v-8.356h73.171v1.344C396.166,355.185,393.025,358.332,389.16,358.332z"/>
</svg>
