<?xml version="1.0" encoding="iso-8859-1"?>
<!-- Generator: Adobe Illustrator 19.0.0, SVG Export Plug-In . SVG Version: 6.00 Build 0)  -->
<svg xmlns="http://www.w3.org/2000/svg" xmlns:xlink="http://www.w3.org/1999/xlink" version="1.1" id="Capa_1" x="0px" y="0px" viewBox="0 0 512 512" style="enable-background:new 0 0 512 512;" xml:space="preserve" width="512px" height="512px">
<g>
	<g>
		<g>
			<path d="M405.333,426.667h-11.816c8.934-8.743,15.679-19.705,19.351-32h45.798c5.891,0,10.667-4.776,10.667-10.667v-42.667H448     v32h-32v-32c-0.029-25.347-12.683-47.723-32-61.22V10.667C384,4.776,379.224,0,373.333,0H138.667C132.776,0,128,4.776,128,10.667     V288c0,17.673,14.327,32,32,32h21.333v10.667c0.001,2.829,1.125,5.541,3.125,7.541l39.699,39.699     c1.174,19.073,9.496,36.205,22.325,48.759h-11.816c-5.891,0-10.667,4.776-10.667,10.667v64c0,5.891,4.776,10.667,10.667,10.667     h170.667c5.891,0,10.667-4.776,10.667-10.667v-64C416,431.442,411.224,426.667,405.333,426.667z M160,298.667     c-5.891,0-10.667-4.776-10.667-10.667V21.333h213.333v248.465c-6.761-2.019-13.917-3.123-21.333-3.131h-42.667v-64     c0-17.673-14.327-32-32-32H256c-17.673,0-32,14.327-32,32V256h-10.667c-17.673,0-32,14.327-32,32v10.667H160z M202.667,288     c0-5.891,4.776-10.667,10.667-10.667H224v70.251l-21.333-21.333V288z M245.333,373.333V202.667     c0-5.891,4.776-10.667,10.667-10.667h10.667c5.891,0,10.667,4.776,10.667,10.667v74.667V320h21.333v-32h42.667     c29.441,0.035,53.298,23.893,53.333,53.333v32c-0.035,29.441-23.893,53.298-53.333,53.333h-42.667     C269.226,426.631,245.369,402.774,245.333,373.333z M394.667,490.667H245.333V448h53.333h42.667h53.333V490.667z" fill="#5acaea"/>
			<path d="M480,64h-74.667v21.333H480c5.891,0,10.667,4.776,10.667,10.667v309.333c0,5.891-4.776,10.667-10.667,10.667h-42.667     v21.333H480c17.673,0,32-14.327,32-32V96C512,78.327,497.673,64,480,64z" fill="#5acaea"/>
			<path d="M21.333,405.333V96c0-5.891,4.776-10.667,10.667-10.667h74.667V64H32C14.327,64,0,78.327,0,96v309.333     c0,17.673,14.327,32,32,32h133.157l-22.841,53.333h-24.982V512h85.333v-21.333h-37.155l22.841-53.333h14.314V416H32     C26.109,416,21.333,411.224,21.333,405.333z" fill="#5acaea"/>
			<path d="M42.667,341.333V384c0,5.891,4.776,10.667,10.667,10.667H96v-21.333H64v-32H42.667z" fill="#5acaea"/>
			<path d="M448,138.667V320h21.333V138.667c0-17.673-14.327-32-32-32h-32V128h32C443.224,128,448,132.776,448,138.667z" fill="#5acaea"/>
			<path d="M106.667,106.667h-32c-17.673,0-32,14.327-32,32V320H64V138.667C64,132.776,68.776,128,74.667,128h32V106.667z" fill="#5acaea"/>
			<rect x="181.333" y="85.333" width="149.333" height="21.333" fill="#5acaea"/>
			<rect x="181.333" y="42.667" width="42.667" height="21.333" fill="#5acaea"/>
			<rect x="181.333" y="128" width="149.333" height="21.333" fill="#5acaea"/>
			<rect x="245.333" y="42.667" width="21.333" height="21.333" fill="#5acaea"/>
		</g>
	</g>
</g>
<g>
</g>
<g>
</g>
<g>
</g>
<g>
</g>
<g>
</g>
<g>
</g>
<g>
</g>
<g>
</g>
<g>
</g>
<g>
</g>
<g>
</g>
<g>
</g>
<g>
</g>
<g>
</g>
<g>
</g>
</svg>
