<?xml version="1.0" encoding="iso-8859-1"?>
<!-- Generator: Adobe Illustrator 18.0.0, SVG Export Plug-In . SVG Version: 6.00 Build 0)  -->
<!DOCTYPE svg PUBLIC "-//W3C//DTD SVG 1.1//EN" "http://www.w3.org/Graphics/SVG/1.1/DTD/svg11.dtd">
<svg xmlns="http://www.w3.org/2000/svg" xmlns:xlink="http://www.w3.org/1999/xlink" version="1.1" id="Capa_1" x="0px" y="0px" viewBox="0 0 485.709 485.709" style="enable-background:new 0 0 485.709 485.709;" xml:space="preserve" width="512px" height="512px">
<g>
	<path d="M348.701,169.979c18.948,0,34.259-17.542,34.259-39.171c0-21.636-15.31-39.171-34.259-39.171   c-18.883,0-34.211,17.535-34.211,39.171C314.49,152.437,329.818,169.979,348.701,169.979z" fill="#5acaea"/>
	<path d="M335.389,212.347c0,2.999,2.427,5.427,5.427,5.427h15.869c2.982,0,5.426-2.428,5.426-5.427v-28.325   c-8.409-0.007-18.344-0.015-26.722-0.015V212.347z" fill="#5acaea"/>
	<path d="M305.017,277.351h19.28v-93.344c-3.776,0-6.204,0.008-6.3,0.015c-5.776-0.285-11.568,2.286-14.837,7.585l-53.666,87.41   c-4.745,7.744-2.317,17.853,5.411,22.605c2.681,1.649,5.648,2.436,8.584,2.436c5.521,0,10.918-2.793,14.028-7.84l27.499-44.795   V277.351z" fill="#5acaea"/>
	<path d="M378.011,317.839c0,4.546-3.682,8.227-8.22,8.227h-41.955c-4.539,0-8.221-3.681-8.221-8.227v-28.983h-14.599l0.413,176.392   c0,10.894,8.838,19.723,19.724,19.723c10.885,0,19.725-8.829,19.725-19.723V354.168h7.871v111.824   c0,10.894,8.838,19.717,19.723,19.717c10.887,0,19.725-8.823,19.725-19.717l0.238-177.137h-14.424V317.839z" fill="#5acaea"/>
	<path d="M467.206,232.452c-4.982,0-9.76-1.816-13.504-4.99c-1.984,0.627-3.998,0.953-6.029,0.953c-2.317,0-4.459-0.644-6.555-1.326   l1.84,8.458l-17.215,2.08l-31.896-46.685c-3.301-4.831-8.727-7.054-14.154-6.87c-0.111-0.008-2.619-0.024-6.489-0.033v93.314   h19.231v-30.222l11.789,17.281c3.08,4.508,8.174,7.164,13.584,7.164c0.635,0,1.303-0.039,1.969-0.119l30.228-3.65l3.126,14.273   c0.396,1.786,1.969,3.055,3.793,3.055c1.824,0,3.396-1.269,3.776-3.055l3.983-18.208c4.777-3.372,7.744-9.014,6.981-15.226   c-0.286-2.372-1.095-4.538-2.237-6.467l2.316-10.654C470.252,231.865,468.808,232.452,467.206,232.452z" fill="#5acaea"/>
	<path d="M471.743,198.693c0.619-1.539,1-3.206,1-4.96c0-7.34-5.95-13.298-13.297-13.298c-7.348,0-13.299,5.958-13.299,13.298   c0,0.11,0.048,0.19,0.065,0.294c-6.617,0.769-11.838,6.188-11.838,13.004c0,7.346,5.935,13.296,13.299,13.296   c3.061,0,5.774-1.214,8.012-2.959c2.271,4.11,6.49,7.005,11.522,7.005c7.314,0,13.281-5.959,13.281-13.305   C480.487,205.342,476.821,200.564,471.743,198.693z" fill="#5acaea"/>
	<path d="M10.121,168.931L267.028,63.241l0.286-0.111C245.272,16.073,164.9-18.194,95.128,10.503   C25.354,39.217-7.62,120.121,9.82,169.058L10.121,168.931z" fill="#5acaea"/>
	<path d="M259.031,108.997c12.646-5.212,18.709-19.716,13.487-32.395L15.612,182.292c3.951,9.592,13.219,15.385,22.961,15.385   c3.157,0,6.347-0.603,9.442-1.874c9.457-3.895,15.233-12.996,15.36-22.627c4.633,4.553,10.901,7.124,17.407,7.124   c3.142,0,6.331-0.595,9.41-1.864c9.504-3.903,15.248-12.972,15.392-22.604c4.617,4.546,10.887,7.117,17.391,7.117   c3.143,0,6.332-0.603,9.426-1.874c9.474-3.895,15.234-12.98,15.377-22.612c4.617,4.554,10.918,7.125,17.407,7.125   c3.143,0,6.348-0.595,9.427-1.865c9.473-3.911,15.249-12.996,15.376-22.612c4.616,4.546,10.901,7.109,17.392,7.109   c3.141,0,6.348-0.603,9.441-1.873c9.442-3.896,15.219-12.98,15.346-22.612c4.649,4.554,10.916,7.125,17.423,7.125   C252.747,110.862,255.936,110.267,259.031,108.997z" fill="#5acaea"/>
	<path d="M64.438,286.118c4.109,0,7.441-3.323,7.441-7.449v-28.873c0-4.118-3.332-7.442-7.441-7.442H29.846   c-4.109,0-7.442,3.324-7.442,7.442v28.873c0,4.126,3.333,7.449,7.442,7.449H64.438z" fill="#5acaea"/>
	<path d="M129.481,286.118c4.126,0,7.459-3.323,7.459-7.449v-6.99c0-4.118-3.333-7.442-7.459-7.442H94.905   c-4.125,0-7.458,3.325-7.458,7.442v6.99c0,4.126,3.333,7.449,7.458,7.449H129.481z" fill="#5acaea"/>
	<path d="M195.97,384.39V230.737l-28.689-70.914c-0.698,0.039-1.381,0.206-2.095,0.206c-3.014,0-6.029-0.357-8.949-1.048   c-1.222,1.929-2.935,3.459-4.476,5.158l28.056,68.194v71.01H20.626c-8.488,0-15.392,6.895-15.392,15.401v115.219   c0,8.504,6.904,15.399,15.392,15.399h94.052c7.681,21.153,27.785,36.348,51.571,36.348c30.42,0,55.079-24.66,55.079-55.071   C221.328,411.191,211.203,394.188,195.97,384.39z M166.249,466.136c-19.565,0-35.481-15.924-35.481-35.498   s15.916-35.49,35.481-35.49c19.581,0,35.497,15.916,35.497,35.49S185.83,466.136,166.249,466.136z" fill="#5acaea"/>
	<path d="M166.249,417.975c-6.967,0-12.646,5.673-12.646,12.663s5.68,12.663,12.646,12.663c7.014,0,12.679-5.673,12.679-12.663   S173.263,417.975,166.249,417.975z" fill="#5acaea"/>
</g>
<g>
</g>
<g>
</g>
<g>
</g>
<g>
</g>
<g>
</g>
<g>
</g>
<g>
</g>
<g>
</g>
<g>
</g>
<g>
</g>
<g>
</g>
<g>
</g>
<g>
</g>
<g>
</g>
<g>
</g>
</svg>
