<?xml version="1.0" encoding="utf-8"?>
<!-- Generator: Adobe Illustrator 16.0.0, SVG Export Plug-In . SVG Version: 6.00 Build 0)  -->
<!DOCTYPE svg PUBLIC "-//W3C//DTD SVG 1.1//EN" "http://www.w3.org/Graphics/SVG/1.1/DTD/svg11.dtd">
<svg version="1.1" id="Capa_1" xmlns="http://www.w3.org/2000/svg" xmlns:xlink="http://www.w3.org/1999/xlink" x="0px" y="0px"
	 width="300px" height="300px" viewBox="106 106 300 300" enable-background="new 106 106 300 300" xml:space="preserve">
<g>
	<path fill="#5ACAEA" d="M263.874,326.474v40.429H119.878V139.819h143.997v43.502h13.895V128.12
		c0-10.996-8.985-19.963-19.964-19.963H125.964c-10.996,0-19.964,8.967-19.964,19.963v255.761c0,10.996,8.968,19.963,19.964,19.963
		h131.832c10.979,0,19.964-8.967,19.964-19.963v-57.397h-13.886V326.474z M170.783,122.57h42.175c1.335,0,2.416,1.063,2.416,2.397
		c0,1.318-1.081,2.416-2.416,2.416h-42.175c-1.335,0-2.407-1.098-2.407-2.416C168.377,123.633,169.448,122.57,170.783,122.57z
		 M191.871,393.876c-5.507,0-9.986-4.479-9.986-10.006c0-5.506,4.479-9.984,9.986-9.984c5.524,0,10.003,4.479,10.003,9.984
		C201.867,389.396,197.395,393.876,191.871,393.876z M329.141,314.25H186.277L159.99,196.206h160.737l-4.357,16.916H181.068
		l18.769,84.237H315.57l29.082-131.666H406v16.898h-47.781L329.141,314.25z M233.626,336.698c0,8.713-7.08,15.783-15.767,15.783
		c-8.712,0-15.782-7.07-15.782-15.783c0-8.696,7.07-15.766,15.782-15.766C226.564,320.932,233.626,328.002,233.626,336.698z
		 M316.106,336.698c0,8.713-7.07,15.783-15.781,15.783c-8.697,0-15.768-7.07-15.768-15.783c0-8.696,7.07-15.766,15.768-15.766
		C309.035,320.932,316.106,328.002,316.106,336.698z"/>
</g>
</svg>
