<?xml version="1.0" encoding="utf-8"?>
<!-- Generator: Adobe Illustrator 16.0.0, SVG Export Plug-In . SVG Version: 6.00 Build 0)  -->
<!DOCTYPE svg PUBLIC "-//W3C//DTD SVG 1.1//EN" "http://www.w3.org/Graphics/SVG/1.1/DTD/svg11.dtd">
<svg version="1.1" id="Layer_1" xmlns="http://www.w3.org/2000/svg" xmlns:xlink="http://www.w3.org/1999/xlink" x="0px" y="0px"
	 width="139.417px" height="157.568px" viewBox="0 0 139.417 157.568" enable-background="new 0 0 139.417 157.568"
	 xml:space="preserve">
<g>
	<g>
		<g>
			<g>
				<g>
					<g>
						
							<linearGradient id="SVGID_1_" gradientUnits="userSpaceOnUse" x1="184.7798" y1="0.144" x2="184.7798" y2="98.9097" gradientTransform="matrix(-1 0 0 1 292.8711 0)">
							<stop  offset="0" style="stop-color:#6D6E6E"/>
							<stop  offset="0.0911" style="stop-color:#797A7A"/>
							<stop  offset="0.2596" style="stop-color:#9E9D9E"/>
							<stop  offset="0.4856" style="stop-color:#E7E6E6"/>
							<stop  offset="0.5025" style="stop-color:#EFEFEF"/>
							<stop  offset="1" style="stop-color:#CCCCCC"/>
						</linearGradient>
						<path fill="url(#SVGID_1_)" d="M129.198,17.55c-0.282,1.599-0.521,4.27-1.063,5.019c-0.554,0.766-2.195,3.521-4.237,1.301
							c-0.621-0.681-2.492-4.814-3.351-6.115c-0.809-1.251-1.742-3.835-2.867-5.198c-1.563-1.891-2.016-2.568-4.483-4.857
							c-1.945-2.145-4.657-3.249-6.942-7.556c0.425,2.021,1.186,4.589,4.357,8.254c5.318,6.141,5.711,10.213,6.694,12.171
							c1.666,3.322,2.144,4.492,3.164,6.686c1.039,2.178,2.773,6.609,3.07,10.54c0.298,3.922-0.127,6.745-0.868,9.688
							c-0.739,2.942-0.569,5.954-1.147,8.072c0,0-0.366,5.24-3.539,8.522c-1.293,1.336-2.732,2.544-4.016,3.539
							c0.009-3.181-0.136-7.57-0.204-7.995c-0.29,0.145-1.055,1.829-1.396,4.288c-0.22,1.65-0.347,3.605-0.543,5.264
							c-0.867,0.605-1.557,1.038-1.897,1.25c-0.681,0.443-3.939,2.076-6.626,3.6c0,0-0.009,0-0.009,0.007c0,0-0.008,0-0.008,0.009
							c-0.05,0.025-0.102,0.059-0.154,0.084c-0.076,0.051-0.152,0.093-0.229,0.136c-0.255,0.162-0.501,0.306-0.74,0.434
							c-0.026,0.009-0.043,0.026-0.068,0.034c-1.821,0.979-2.799,0.833-1.651-3.564c0.036-0.119,0.068-0.238,0.103-0.365
							c2.953-10.352,3.666-25.858,0.297-32.935c0.138,9.645-0.126,24.318-6.872,39.663c-0.008,0.018-0.008,0.026-0.017,0.034
							c-0.986,2.051-3.158,4.764-5.139,6.099c-0.008,0-0.008,0.008-0.017,0.008c-1.676,1.158-3.061,2.467-4.041,2.833l-0.008,0.009
							c-0.97,0.349-1.547-0.222-1.608-2.807c0-0.068-0.008-0.145,0-0.222V82.39c0.009-0.229,0.009-0.441,0.009-0.621
							c0.009-0.349,0.017-0.612,0.035-0.73c0.092-0.682,0.076-6.134,0.187-6.755c0.102-0.628,0.324-5.103,0.46-5.869
							c0.85-6.388,0.993-8.089,1.912-10.777c-1.837,1.982-3.273,6.898-3.614,8.225c-1.131,4.458-1.131,4.458-1.533,7.587
							c-0.553,4.304-0.875,9.494-0.799,9.961c0.077,0.451-0.136,4.524-0.799,5.375c-0.673,0.859-1.021,1.855-1.029,2.799
							c-0.221,0.909-0.01,2.858-1.208,3.954c3.224,1.311,5.665,2.8,5.844,3.37c0,0,0.527-4.21,3.581-6.729
							c0.646-0.535,1.497-1.012,2.595-1.394c0.176-0.069,0.356-0.128,0.543-0.179c6.797-2.05,10.369,0.222,16.179-3.165
							c5.598-3.274,7.179-6.286,7.969-11.39c0.036-0.271,0.068-0.544,0.103-0.824c3.401-2.059,8.583-5.656,10.216-7.792
							c2.263-3.002,5.239-4.209,7.986-6.285c1.429-1.081,4.032-4.058,5.224-7.188c1.428-3.751,2.875-14.06,2.271-12.001
							c-0.484,1.667-3.691,10.999-8.344,15.148c-0.154,0.12-0.298,0.239-0.435,0.349h-0.008c-2.194,1.702-4.814,3.598-3.598-2.483
							c0.026-0.137,0.051-0.255,0.077-0.375c0.646-3.037,1.335-6.719,1.429-7.23c0.145-0.765,1.59-7.196,1.334-9.569
							c-0.144-1.395,0.961-8.982,1.14-9.543c0.188-0.57,1.557-8.359,1.548-12.437c-0.007-4.645-1.65-9.611-3.316-12.871
							c-0.227-0.441-1.812-2.808-1.812-2.808s0.3,2.314,0.375,2.647C129.505,10.877,129.273,14.592,129.198,17.55z M96.678,84.491
							c-0.324-0.017,6.737-4.116,6.737-4.116s3.659-2.008,5.921-3.055c-0.528,1.275-1.122,2.433-1.752,3.045
							C106.019,81.906,101.961,84.832,96.678,84.491z"/>
					</g>
				</g>
			</g>
		</g>
	</g>
	<g>
		<g>
			<g>
				<g>
					<g>
						
							<linearGradient id="SVGID_2_" gradientUnits="userSpaceOnUse" x1="-149.1738" y1="0" x2="-149.1738" y2="98.7651" gradientTransform="matrix(1 0 0 1 180.5 0)">
							<stop  offset="0" style="stop-color:#6D6E6E"/>
							<stop  offset="0.0911" style="stop-color:#797A7A"/>
							<stop  offset="0.2596" style="stop-color:#9E9D9E"/>
							<stop  offset="0.4856" style="stop-color:#E7E6E6"/>
							<stop  offset="0.5025" style="stop-color:#EFEFEF"/>
							<stop  offset="1" style="stop-color:#CCCCCC"/>
						</linearGradient>
						<path fill="url(#SVGID_2_)" d="M11.75,2.646C11.826,2.315,12.125,0,12.125,0s-1.586,2.365-1.811,2.808
							c-1.668,3.259-3.31,8.226-3.319,12.871c-0.007,4.076,1.363,11.866,1.549,12.436c0.178,0.562,1.283,8.149,1.139,9.544
							c-0.255,2.373,1.19,8.803,1.335,9.569c0.095,0.51,0.783,4.192,1.43,7.23c0.026,0.118,0.05,0.237,0.076,0.374
							c1.216,6.082-1.403,4.186-3.598,2.484H8.919c-0.136-0.112-0.282-0.23-0.435-0.35c-4.652-4.15-7.859-13.481-8.344-15.148
							c-0.604-2.059,0.843,8.251,2.271,12.002c1.192,3.129,3.794,6.106,5.225,7.187c2.745,2.076,5.722,3.284,7.985,6.286
							c1.633,2.136,6.814,5.733,10.216,7.792c0.035,0.28,0.068,0.553,0.102,0.825c0.791,5.103,2.373,8.114,7.97,11.389
							c5.81,3.386,9.382,1.114,16.177,3.165c0.188,0.051,0.367,0.11,0.545,0.178c1.098,0.383,1.949,0.858,2.596,1.395
							c3.052,2.518,3.58,6.728,3.58,6.728c0.179-0.571,2.621-2.058,5.846-3.368c-1.201-1.097-0.988-3.046-1.209-3.955
							c-0.009-0.944-0.355-1.94-1.03-2.798c-0.663-0.852-0.875-4.926-0.798-5.377c0.076-0.468-0.247-5.656-0.8-9.961
							c-0.401-3.129-0.401-3.129-1.531-7.586c-0.342-1.327-1.778-6.243-3.616-8.226c0.918,2.688,1.063,4.39,1.913,10.778
							c0.137,0.766,0.358,5.24,0.46,5.869c0.112,0.621,0.094,6.073,0.188,6.753c0.016,0.119,0.025,0.383,0.034,0.731
							c0,0.178,0,0.392,0.009,0.621v1.088c0.007,0.077,0,0.154,0,0.222c-0.062,2.586-0.638,3.155-1.609,2.807l-0.007-0.008
							c-0.979-0.366-2.366-1.677-4.041-2.834c-0.007,0-0.007-0.007-0.017-0.007c-1.981-1.336-4.152-4.049-5.137-6.1
							c-0.01-0.008-0.01-0.017-0.019-0.033c-6.744-15.345-7.008-30.019-6.872-39.664c-3.368,7.077-2.654,22.583,0.298,32.935
							c0.034,0.127,0.067,0.247,0.102,0.366c1.149,4.397,0.17,4.542-1.651,3.563c-0.025-0.008-0.041-0.025-0.067-0.033
							c-0.238-0.128-0.485-0.272-0.741-0.434c-0.076-0.042-0.151-0.085-0.229-0.137c-0.05-0.025-0.103-0.059-0.153-0.084
							c0-0.009-0.008-0.009-0.008-0.009c0-0.008-0.009-0.008-0.009-0.008c-2.687-1.522-5.945-3.156-6.626-3.598
							c-0.34-0.213-1.029-0.646-1.897-1.251c-0.196-1.658-0.322-3.615-0.544-5.265c-0.339-2.458-1.105-4.143-1.393-4.287
							c-0.069,0.425-0.212,4.814-0.206,7.995c-1.284-0.996-2.722-2.203-4.015-3.538c-3.172-3.284-3.538-8.523-3.538-8.523
							c-0.579-2.118-0.41-5.129-1.147-8.072c-0.74-2.943-1.165-5.767-0.869-9.689c0.297-3.929,2.033-8.361,3.071-10.538
							c1.021-2.195,1.499-3.364,3.165-6.686c0.98-1.959,1.375-6.031,6.694-12.172C31.979,4.59,32.737,2.021,33.164,0
							c-2.288,4.306-4.999,5.41-6.943,7.556c-2.467,2.288-2.921,2.966-4.484,4.857c-1.125,1.362-2.058,3.947-2.867,5.197
							c-0.857,1.302-2.73,5.436-3.349,6.116c-2.042,2.22-3.684-0.536-4.237-1.302c-0.544-0.748-0.783-3.419-1.063-5.018
							C10.144,14.448,9.912,10.732,11.75,2.646z M31.834,80.223c-0.63-0.613-1.225-1.77-1.753-3.045
							c2.263,1.046,5.921,3.053,5.921,3.053s7.059,4.1,6.737,4.118C37.455,84.688,33.399,81.762,31.834,80.223z"/>
					</g>
				</g>
			</g>
		</g>
	</g>
	<g>
		<g>
			<path d="M98.164,93.753c-2.186-0.35-4.566,0.423-6.806,1.121c-2.235,0.701-4.239,1.675-5.638,2.904
				c-0.438,0.384-1.865,3.033-1.737,5.328c0.011,0.176,0.623,3.255,0.623,3.255s6.134-1.014,8.194-2.193
				c2.979-1.706,4.18-4.223,4.557-4.779c0.378-0.557,1.678-3.386,1.707-4.431C99.093,93.913,98.725,93.844,98.164,93.753z
				 M95.746,100.399c-2.176,2.96-6.131,4.295-9.121,4c0,0,4.588-6.771,6.19-7.801c1.606-1.026,3.537-2.061,5.199-1.558
				C98.188,95.762,97.923,97.434,95.746,100.399z"/>
		</g>
	</g>
	<g>
		<g>
			<path d="M40.021,94.958c0.03,1.045,1.33,3.874,1.708,4.431c0.378,0.556,1.578,3.073,4.559,4.779
				c2.059,1.179,8.192,2.193,8.192,2.193s0.614-3.079,0.624-3.255c0.127-2.294-1.299-4.943-1.737-5.328
				c-1.398-1.229-3.403-2.203-5.637-2.904c-2.241-0.697-4.619-1.47-6.807-1.121C40.361,93.844,39.993,93.913,40.021,94.958z
				 M41.071,95.04c1.663-0.503,3.593,0.532,5.198,1.558c1.602,1.03,6.193,7.801,6.193,7.801c-2.991,0.295-6.946-1.04-9.123-4
				C41.165,97.434,40.9,95.762,41.071,95.04z"/>
		</g>
	</g>
	<path d="M92.012,151.288c-4.396,4.923-16.571,6.28-22.414,6.28c-5.845,0-18.02-1.775-22.417-6.699
		c10.994-8.272,10.953-31.107,10.291-32.413c-0.662-1.307-3.098-3.852-3.098-5.476c0-5.702,1.843-11.647,2.504-13.239
		c0.669-1.59,5.551-3.667,6.556-3.667c1.006,0,1.676,0.603,2.982,0.737c1.314,0.125,2.411-0.118,3.182-0.118
		c0.778,0,1.875,0.243,3.182,0.118c1.306-0.134,1.975-0.737,2.98-0.737c1.004,0,5.894,2.077,6.556,3.667
		c0.67,1.591,2.503,7.537,2.503,13.239c0,1.624-1.438,2.851-3.081,5.468c-1.644,2.618-3.467,6.405-3.853,8.374
		c0.654-2.203,2.597-5.687,3.66-7.378C81.176,124.359,82.198,143.902,92.012,151.288z"/>
	<g>
		<path fill="#2B2C66" d="M57.499,118.541c0,0,0.25,0.408,0.689,1.122c0.434,0.716,1.021,1.761,1.672,3.042
			c0.64,1.287,1.334,2.815,1.998,4.486c0.328,0.837,0.681,1.693,0.959,2.604c0.287,0.901,0.53,1.828,0.868,2.71
			c0.329,0.88,0.788,1.725,1.483,2.284c0.73,0.521,1.574,0.928,2.407,1.089c0.833,0.188,1.708,0.058,2.535,0.103
			c0.815,0.015,1.568,0.001,2.244-0.15c0.676-0.144,1.259-0.425,1.715-0.761c0.466-0.327,0.797-0.71,1.057-1.032
			c0.252-0.329,0.435-0.603,0.541-0.8c0.115-0.193,0.176-0.296,0.176-0.296s-0.05,0.109-0.144,0.313
			c-0.085,0.209-0.239,0.501-0.461,0.863c-0.233,0.352-0.546,0.772-1.008,1.156c-0.452,0.392-1.054,0.746-1.771,0.958
			c-0.714,0.227-1.53,0.286-2.357,0.266c-0.811-0.04-1.693,0.052-2.621-0.167c-0.925-0.208-1.78-0.641-2.566-1.23
			c-0.77-0.649-1.229-1.569-1.546-2.477c-0.327-0.915-0.55-1.848-0.814-2.748c-0.252-0.897-0.588-1.768-0.896-2.607
			c-0.624-1.68-1.283-3.218-1.893-4.517c-0.621-1.293-1.185-2.348-1.603-3.074C57.74,118.954,57.499,118.541,57.499,118.541z"/>
	</g>
</g>
</svg>
