<?xml version="1.0" encoding="utf-8"?>
<!-- Generator: Adobe Illustrator 16.0.0, SVG Export Plug-In . SVG Version: 6.00 Build 0)  -->
<!DOCTYPE svg PUBLIC "-//W3C//DTD SVG 1.1//EN" "http://www.w3.org/Graphics/SVG/1.1/DTD/svg11.dtd">
<svg version="1.1" id="Layer_1" xmlns="http://www.w3.org/2000/svg" xmlns:xlink="http://www.w3.org/1999/xlink" x="0px" y="0px"
	 width="139.417px" height="157.568px" viewBox="0 0 139.417 157.568" enable-background="new 0 0 139.417 157.568"
	 xml:space="preserve">
<g>
	<g>
		<g>
			<g>
				<g>
					<g>
						
							<linearGradient id="SVGID_1_" gradientUnits="userSpaceOnUse" x1="-222.4019" y1="-12.4758" x2="-222.4019" y2="-111.241" gradientTransform="matrix(-1 0 0 -1 -114.3115 -12.3325)">
							<stop  offset="0" style="stop-color:#6D6E6E"/>
							<stop  offset="0.0911" style="stop-color:#797A7A"/>
							<stop  offset="0.2596" style="stop-color:#9E9D9E"/>
							<stop  offset="0.4856" style="stop-color:#E7E6E6"/>
							<stop  offset="0.5025" style="stop-color:#EFEFEF"/>
							<stop  offset="1" style="stop-color:#CCCCCC"/>
						</linearGradient>
						<path fill="url(#SVGID_1_)" d="M129.198,17.55c-0.282,1.6-0.521,4.271-1.063,5.02c-0.553,0.766-2.194,3.521-4.236,1.301
							c-0.621-0.681-2.492-4.813-3.352-6.115c-0.809-1.251-1.741-3.835-2.866-5.197c-1.563-1.892-2.017-2.568-4.483-4.857
							c-1.945-2.145-4.656-3.249-6.941-7.556c0.425,2.021,1.186,4.589,4.356,8.254c5.318,6.141,5.711,10.213,6.694,12.171
							c1.666,3.322,2.145,4.492,3.164,6.686c1.039,2.179,2.773,6.609,3.07,10.54c0.297,3.922-0.127,6.745-0.869,9.688
							c-0.738,2.941-0.568,5.954-1.146,8.072c0,0-0.365,5.239-3.539,8.521c-1.293,1.336-2.732,2.544-4.016,3.539
							c0.009-3.181-0.137-7.57-0.204-7.995c-0.29,0.146-1.056,1.829-1.396,4.288c-0.221,1.65-0.348,3.605-0.543,5.264
							c-0.867,0.605-1.558,1.038-1.897,1.25c-0.681,0.443-3.938,2.076-6.626,3.601c0,0-0.01,0-0.01,0.007c0,0-0.008,0-0.008,0.009
							c-0.05,0.025-0.102,0.06-0.154,0.084c-0.075,0.051-0.151,0.093-0.229,0.137c-0.255,0.161-0.501,0.306-0.74,0.434
							c-0.025,0.009-0.043,0.026-0.067,0.034c-1.821,0.979-2.8,0.833-1.651-3.564c0.036-0.119,0.068-0.238,0.104-0.365
							c2.953-10.352,3.666-25.857,0.297-32.935c0.138,9.645-0.127,24.318-6.872,39.663c-0.009,0.018-0.009,0.026-0.017,0.034
							c-0.986,2.051-3.158,4.764-5.14,6.099c-0.008,0-0.008,0.008-0.017,0.008c-1.676,1.158-3.062,2.468-4.041,2.833l-0.008,0.01
							c-0.971,0.349-1.547-0.223-1.608-2.808c0-0.067-0.009-0.145,0-0.222v-1.09c0.009-0.229,0.009-0.441,0.009-0.621
							c0.01-0.35,0.018-0.612,0.035-0.73c0.092-0.682,0.076-6.134,0.188-6.755c0.102-0.628,0.323-5.103,0.459-5.869
							c0.851-6.388,0.994-8.089,1.912-10.776c-1.836,1.981-3.272,6.897-3.613,8.225c-1.131,4.458-1.131,4.458-1.533,7.587
							c-0.553,4.304-0.875,9.494-0.799,9.961c0.076,0.451-0.137,4.524-0.799,5.375c-0.674,0.859-1.021,1.855-1.029,2.799
							c-0.221,0.909-0.01,2.858-1.208,3.954c3.224,1.312,5.665,2.8,5.844,3.37c0,0,0.526-4.21,3.581-6.729
							c0.646-0.535,1.497-1.013,2.596-1.395c0.176-0.069,0.355-0.128,0.543-0.179c6.797-2.05,10.368,0.222,16.178-3.165
							c5.599-3.274,7.18-6.286,7.97-11.39c0.036-0.271,0.067-0.545,0.103-0.824c3.401-2.06,8.584-5.656,10.217-7.792
							c2.263-3.002,5.238-4.209,7.985-6.285c1.429-1.081,4.032-4.058,5.224-7.188c1.429-3.751,2.875-14.06,2.271-12.001
							c-0.484,1.667-3.691,10.999-8.344,15.148c-0.154,0.12-0.299,0.239-0.436,0.349h-0.008c-2.193,1.702-4.814,3.599-3.598-2.482
							c0.025-0.138,0.051-0.255,0.076-0.375c0.646-3.037,1.336-6.72,1.43-7.23c0.145-0.765,1.59-7.196,1.334-9.568
							c-0.145-1.396,0.961-8.982,1.141-9.544c0.188-0.569,1.557-8.358,1.547-12.437c-0.006-4.645-1.649-9.611-3.315-12.871
							c-0.228-0.44-1.812-2.808-1.812-2.808s0.299,2.313,0.375,2.646C129.505,10.877,129.273,14.592,129.198,17.55z M96.678,84.491
							c-0.324-0.017,6.737-4.116,6.737-4.116s3.658-2.008,5.92-3.055c-0.527,1.275-1.121,2.433-1.752,3.045
							C106.019,81.906,101.96,84.832,96.678,84.491z"/>
					</g>
				</g>
			</g>
		</g>
	</g>
	<g>
		<g>
			<g>
				<g>
					<g>
						
							<linearGradient id="SVGID_2_" gradientUnits="userSpaceOnUse" x1="-101.5732" y1="-12.3323" x2="-101.5732" y2="-111.0984" gradientTransform="matrix(1 0 0 -1 132.8999 -12.3325)">
							<stop  offset="0" style="stop-color:#6D6E6E"/>
							<stop  offset="0.0911" style="stop-color:#797A7A"/>
							<stop  offset="0.2596" style="stop-color:#9E9D9E"/>
							<stop  offset="0.4856" style="stop-color:#E7E6E6"/>
							<stop  offset="0.5025" style="stop-color:#EFEFEF"/>
							<stop  offset="1" style="stop-color:#CCCCCC"/>
						</linearGradient>
						<path fill="url(#SVGID_2_)" d="M11.75,2.646C11.826,2.315,12.125,0,12.125,0s-1.586,2.365-1.811,2.809
							c-1.668,3.259-3.31,8.226-3.319,12.871c-0.007,4.075,1.363,11.865,1.549,12.436c0.178,0.563,1.283,8.149,1.139,9.544
							c-0.255,2.373,1.19,8.803,1.335,9.569c0.095,0.51,0.783,4.191,1.43,7.229c0.026,0.118,0.05,0.237,0.076,0.374
							c1.216,6.082-1.403,4.187-3.598,2.484H8.919c-0.136-0.112-0.282-0.23-0.435-0.351c-4.652-4.149-7.859-13.48-8.344-15.147
							c-0.604-2.059,0.843,8.251,2.271,12.002c1.192,3.129,3.794,6.106,5.225,7.187c2.745,2.076,5.722,3.284,7.985,6.286
							c1.633,2.137,6.814,5.733,10.216,7.792c0.035,0.28,0.068,0.554,0.102,0.825c0.791,5.104,2.373,8.114,7.97,11.389
							c5.81,3.387,9.382,1.114,16.177,3.165c0.188,0.052,0.367,0.11,0.545,0.179c1.098,0.383,1.949,0.857,2.596,1.395
							c3.052,2.519,3.58,6.729,3.58,6.729c0.179-0.571,2.621-2.059,5.846-3.368c-1.201-1.098-0.988-3.046-1.209-3.955
							c-0.009-0.944-0.355-1.94-1.03-2.798c-0.663-0.853-0.875-4.926-0.798-5.377c0.076-0.469-0.247-5.656-0.8-9.961
							c-0.401-3.129-0.401-3.129-1.531-7.586c-0.342-1.327-1.778-6.243-3.616-8.227c0.918,2.688,1.063,4.391,1.913,10.778
							c0.137,0.766,0.358,5.24,0.46,5.869c0.112,0.621,0.094,6.072,0.188,6.753c0.016,0.119,0.025,0.383,0.034,0.73
							c0,0.179,0,0.393,0.009,0.621v1.088c0.007,0.077,0,0.154,0,0.223c-0.062,2.586-0.638,3.154-1.609,2.807l-0.007-0.008
							c-0.979-0.366-2.366-1.677-4.041-2.834c-0.007,0-0.007-0.007-0.017-0.007c-1.981-1.336-4.152-4.05-5.137-6.101
							c-0.01-0.008-0.01-0.017-0.019-0.033c-6.744-15.345-7.008-30.019-6.872-39.663c-3.368,7.076-2.654,22.582,0.298,32.935
							c0.034,0.127,0.067,0.247,0.102,0.366c1.149,4.396,0.17,4.542-1.651,3.563c-0.025-0.008-0.041-0.024-0.067-0.033
							c-0.238-0.128-0.485-0.271-0.741-0.434c-0.076-0.042-0.151-0.085-0.229-0.137c-0.05-0.025-0.103-0.06-0.153-0.084
							c0-0.009-0.008-0.009-0.008-0.009c0-0.009-0.009-0.009-0.009-0.009c-2.687-1.521-5.945-3.155-6.626-3.598
							c-0.34-0.213-1.029-0.646-1.897-1.251c-0.196-1.658-0.322-3.615-0.544-5.265c-0.339-2.458-1.105-4.144-1.393-4.287
							c-0.069,0.425-0.212,4.813-0.206,7.995c-1.284-0.996-2.722-2.203-4.015-3.538c-3.172-3.284-3.538-8.523-3.538-8.523
							c-0.579-2.118-0.41-5.129-1.147-8.072c-0.74-2.942-1.165-5.767-0.869-9.688c0.297-3.929,2.033-8.361,3.071-10.538
							c1.021-2.195,1.499-3.364,3.165-6.687c0.98-1.959,1.375-6.03,6.694-12.172C31.979,4.59,32.737,2.021,33.164,0
							c-2.288,4.307-4.999,5.41-6.943,7.557c-2.467,2.288-2.921,2.966-4.484,4.856c-1.125,1.362-2.058,3.947-2.867,5.197
							c-0.857,1.302-2.73,5.436-3.349,6.116c-2.042,2.22-3.684-0.536-4.237-1.303c-0.544-0.747-0.783-3.419-1.063-5.018
							C10.144,14.448,9.912,10.732,11.75,2.646z M31.834,80.223c-0.63-0.613-1.225-1.771-1.753-3.045
							c2.263,1.046,5.921,3.053,5.921,3.053s7.059,4.1,6.737,4.118C37.455,84.688,33.399,81.762,31.834,80.223z"/>
					</g>
				</g>
			</g>
		</g>
	</g>
	<g>
		<g>
			<path fill="#54799E" d="M98.164,93.753c-2.186-0.35-4.565,0.424-6.806,1.121c-2.235,0.701-4.239,1.675-5.638,2.904
				c-0.438,0.384-1.865,3.033-1.737,5.328c0.011,0.176,0.623,3.255,0.623,3.255s6.134-1.014,8.194-2.193
				c2.979-1.706,4.18-4.223,4.557-4.778c0.378-0.558,1.678-3.387,1.707-4.432S98.725,93.844,98.164,93.753z M95.746,100.399
				c-2.176,2.96-6.131,4.295-9.121,4c0,0,4.588-6.771,6.19-7.801c1.606-1.026,3.537-2.062,5.199-1.559
				C98.188,95.762,97.923,97.434,95.746,100.399z"/>
		</g>
	</g>
	<g>
		<g>
			<path fill="#54799E" d="M40.021,94.958c0.03,1.045,1.33,3.874,1.708,4.432c0.378,0.556,1.578,3.072,4.559,4.778
				c2.059,1.18,8.192,2.193,8.192,2.193s0.614-3.079,0.624-3.255c0.127-2.294-1.299-4.943-1.737-5.328
				c-1.398-1.229-3.403-2.203-5.637-2.904c-2.241-0.696-4.619-1.47-6.807-1.121C40.361,93.844,39.993,93.913,40.021,94.958z
				 M41.071,95.04c1.663-0.503,3.593,0.532,5.198,1.559c1.602,1.029,6.193,7.801,6.193,7.801c-2.991,0.295-6.946-1.04-9.123-4
				C41.165,97.434,40.9,95.762,41.071,95.04z"/>
		</g>
	</g>
	<path fill="#54799E" d="M81.548,119.444c-1.07,1.689-3.01,5.17-3.66,7.38c0.38-1.97,2.21-5.76,3.851-8.38
		c1.64-2.61,3.08-3.84,3.08-5.46c0-5.71-1.83-11.65-2.5-13.24c-0.66-1.59-5.551-3.67-6.561-3.67c-1,0-1.67,0.6-2.979,0.74
		c-1.311,0.12-2.4-0.12-3.18-0.12c-0.77,0-1.87,0.24-3.18,0.12c-1.31-0.141-1.98-0.74-2.98-0.74c-1.01,0-5.89,2.08-6.56,3.67
		c-0.66,1.59-2.5,7.53-2.5,13.24c0,1.62,2.43,4.17,3.09,5.47c0.01,0.021,0.02,0.05,0.03,0.09c0,0,0,0,0.01,0.01v0.011
		c0.01,0.01,0.01,0.02,0.01,0.029c0.62,2.301,0.38,24.21-10.34,32.271c4.4,4.93,16.57,6.7,22.42,6.7c5.84,0,18.02-1.351,22.41-6.28
		C82.199,143.904,81.178,124.364,81.548,119.444z M75.699,133.254c-0.08,0.21-0.24,0.5-0.46,0.86c-0.23,0.36-0.55,0.78-1.011,1.16
		c-0.449,0.39-1.05,0.75-1.77,0.96c-0.71,0.22-1.53,0.28-2.36,0.26c-0.81-0.04-1.69,0.06-2.62-0.16c-0.92-0.21-1.78-0.64-2.56-1.229
		c-0.77-0.65-1.23-1.57-1.55-2.48c-0.33-0.92-0.55-1.85-0.81-2.75c-0.26-0.89-0.59-1.77-0.9-2.6c-0.62-1.69-1.28-3.221-1.89-4.521
		c-0.62-1.3-1.19-2.35-1.61-3.08c-0.26-0.449-0.45-0.779-0.56-0.96c0.11,0.181,0.31,0.511,0.59,0.95c0.43,0.71,1.02,1.76,1.67,3.04
		c0.64,1.29,1.34,2.82,2,4.49c0.33,0.83,0.68,1.689,0.96,2.6c0.29,0.9,0.53,1.83,0.87,2.71c0.33,0.88,0.78,1.73,1.48,2.28
		c0.73,0.53,1.57,0.93,2.41,1.09c0.83,0.19,1.7,0.061,2.53,0.11c0.82,0.01,1.57,0,2.25-0.15c0.67-0.149,1.25-0.43,1.71-0.76
		c0.47-0.33,0.8-0.71,1.06-1.04c0.25-0.33,0.43-0.6,0.54-0.8c0.05-0.09,0.09-0.16,0.13-0.21
		C75.779,133.074,75.749,133.154,75.699,133.254z"/>
</g>
</svg>
