<?xml version="1.0" encoding="utf-8"?>
<!-- Generator: Adobe Illustrator 16.0.0, SVG Export Plug-In . SVG Version: 6.00 Build 0)  -->
<!DOCTYPE svg PUBLIC "-//W3C//DTD SVG 1.1//EN" "http://www.w3.org/Graphics/SVG/1.1/DTD/svg11.dtd">
<svg version="1.1" id="Layer_1" xmlns="http://www.w3.org/2000/svg" xmlns:xlink="http://www.w3.org/1999/xlink" x="0px" y="0px"
	 width="180px" height="110.083px" viewBox="-15 0 180 110.083" enable-background="new -15 0 180 110.083" xml:space="preserve">
<g>
	<path fill="#FFFFFF" d="M130.424,54.335c0,29.458-23.875,53.334-53.334,53.334S23.755,83.792,23.755,54.335
		C23.755,24.877,47.631,1,77.09,1S130.424,24.877,130.424,54.335z"/>
	<g>
		<path fill="#515DA9" d="M3.363,89.887h0.678l0.016,10.893H3.378l-0.016-9.616l-3.342,5.754h-0.409l-3.389-5.754l0.016,9.616
			h-0.663L-4.44,89.887h0.663l3.609,6.084L3.363,89.887z"/>
		<path fill="#515DA9" d="M9.921,100.15c-0.242,0.243-0.525,0.433-0.852,0.575c-0.326,0.142-0.678,0.214-1.056,0.214
			c-0.347,0-0.675-0.063-0.985-0.188c-0.311-0.127-0.579-0.299-0.805-0.512c-0.226-0.215-0.407-0.469-0.543-0.758
			c-0.137-0.289-0.205-0.596-0.205-0.922c0-0.348,0.071-0.668,0.212-0.962c0.142-0.294,0.333-0.55,0.576-0.764
			c0.242-0.215,0.523-0.382,0.844-0.497c0.32-0.116,0.659-0.174,1.017-0.174h1.797v-0.348c0-0.315-0.04-0.615-0.118-0.9
			c-0.079-0.283-0.192-0.529-0.339-0.741c-0.147-0.21-0.323-0.379-0.528-0.503c-0.204-0.127-0.434-0.194-0.686-0.206H8.233
			c-0.683,0-1.292,0.079-1.828,0.237l-0.157-0.63c0.619-0.18,1.282-0.27,1.986-0.27H8.25c0.305,0.012,0.593,0.087,0.868,0.229
			c0.273,0.141,0.515,0.332,0.725,0.574c0.21,0.242,0.381,0.527,0.513,0.852c0.131,0.327,0.208,0.672,0.229,1.042v0.157
			c-0.01,0.263-0.016,0.54-0.016,0.836c-0.01,0.252-0.016,0.539-0.016,0.859s0,0.644,0,0.969c0,0.304,0.002,0.6,0.008,0.883
			c0.005,0.282,0.013,0.539,0.023,0.772c0.01,0.231,0.024,0.417,0.04,0.558c0.016,0.143,0.033,0.224,0.056,0.244H9.938L9.921,100.15
			z M9.921,96.808H8.124c-0.273,0-0.529,0.041-0.765,0.126c-0.236,0.084-0.444,0.202-0.623,0.354
			c-0.179,0.153-0.32,0.337-0.425,0.552c-0.105,0.216-0.158,0.455-0.158,0.72c0,0.241,0.047,0.465,0.142,0.67
			c0.095,0.206,0.226,0.385,0.394,0.536s0.365,0.271,0.591,0.361c0.226,0.09,0.47,0.134,0.732,0.134s0.51-0.044,0.741-0.134
			c0.231-0.091,0.434-0.211,0.607-0.361c0.173-0.155,0.31-0.33,0.41-0.536c0.1-0.205,0.149-0.429,0.149-0.67V96.808z"/>
		<path fill="#515DA9" d="M17.613,94.521c-0.273-0.314-0.602-0.569-0.985-0.764c-0.384-0.194-0.801-0.292-1.253-0.292
			c-0.431,0-0.836,0.09-1.214,0.269c-0.378,0.179-0.706,0.42-0.985,0.726c-0.279,0.304-0.5,0.665-0.662,1.079
			c-0.164,0.415-0.244,0.859-0.244,1.332c0,0.463,0.082,0.9,0.244,1.316c0.163,0.414,0.383,0.775,0.662,1.08
			c0.279,0.304,0.607,0.547,0.985,0.726c0.378,0.179,0.783,0.269,1.214,0.269c0.431,0,0.835-0.09,1.213-0.269
			c0.378-0.179,0.71-0.427,0.993-0.741l0.473,0.457c-0.357,0.367-0.763,0.662-1.214,0.883c-0.452,0.221-0.94,0.33-1.466,0.33
			c-0.514,0-1.001-0.107-1.458-0.324c-0.457-0.216-0.857-0.505-1.198-0.873c-0.341-0.367-0.612-0.797-0.812-1.286
			c-0.2-0.487-0.3-1.012-0.3-1.567c0-0.559,0.101-1.082,0.3-1.576c0.199-0.494,0.47-0.926,0.812-1.293
			c0.341-0.367,0.741-0.659,1.198-0.875c0.458-0.215,0.944-0.323,1.458-0.323c0.546,0,1.051,0.112,1.514,0.339
			c0.463,0.225,0.862,0.523,1.198,0.892L17.613,94.521z"/>
		<path fill="#515DA9" d="M20.168,89.855v4.162c0.252-0.389,0.564-0.691,0.938-0.907c0.373-0.214,0.791-0.323,1.254-0.323
			c0.368,0,0.712,0.074,1.032,0.22c0.321,0.149,0.6,0.354,0.836,0.614c0.236,0.264,0.422,0.568,0.559,0.914
			c0.136,0.348,0.209,0.723,0.221,1.12l0.047,5.076h-0.662v-5.076c-0.011-0.315-0.074-0.606-0.189-0.874s-0.268-0.5-0.457-0.7
			s-0.413-0.357-0.67-0.472c-0.257-0.113-0.528-0.173-0.812-0.173c-0.252,0-0.497,0.05-0.733,0.149
			c-0.236,0.101-0.449,0.24-0.639,0.417c-0.189,0.179-0.346,0.389-0.473,0.632c-0.126,0.242-0.21,0.503-0.252,0.786l0.016,5.36
			h-0.662l-0.016-10.926H20.168z"/>
		<path fill="#515DA9" d="M26.851,90.533c0-0.115,0.045-0.214,0.134-0.3c0.089-0.083,0.197-0.128,0.323-0.128
			c0.115,0,0.221,0.044,0.315,0.128c0.095,0.084,0.142,0.185,0.142,0.3c0,0.116-0.047,0.216-0.142,0.301
			c-0.094,0.084-0.2,0.127-0.315,0.127c-0.126,0-0.234-0.043-0.323-0.127C26.896,90.749,26.851,90.649,26.851,90.533z
			 M26.977,92.898h0.646l0.016,7.882h-0.646L26.977,92.898z"/>
		<path fill="#515DA9" d="M30.02,93.591v0.426c0.253-0.399,0.567-0.707,0.945-0.924c0.378-0.214,0.794-0.322,1.245-0.322
			c0.368,0,0.712,0.074,1.033,0.229c0.32,0.152,0.599,0.357,0.835,0.615s0.426,0.563,0.567,0.914
			c0.142,0.352,0.219,0.729,0.229,1.128l0.048,5.123h-0.663l-0.016-5.123c-0.011-0.315-0.073-0.607-0.189-0.876
			c-0.116-0.266-0.269-0.499-0.458-0.699c-0.188-0.2-0.41-0.357-0.662-0.473s-0.52-0.173-0.804-0.173
			c-0.263,0-0.512,0.05-0.749,0.15c-0.236,0.1-0.449,0.239-0.638,0.418c-0.189,0.179-0.347,0.388-0.473,0.63
			c-0.126,0.243-0.211,0.504-0.252,0.787l0.016,5.36h-0.662l-0.016-7.158c0-0.179-0.007-0.328-0.023-0.448
			c-0.016-0.122-0.035-0.191-0.055-0.214h0.741v0.63H30.02L30.02,93.591z"/>
		<path fill="#515DA9" d="M39.337,100.276c0.167,0,0.344-0.019,0.528-0.055c0.184-0.038,0.367-0.085,0.551-0.143
			s0.359-0.12,0.528-0.188c0.168-0.068,0.315-0.135,0.442-0.197l0.268,0.585c-0.273,0.147-0.567,0.271-0.882,0.379
			c-0.316,0.104-0.652,0.188-1.009,0.251h-0.016c-0.063,0.013-0.129,0.016-0.197,0.016c-0.068,0-0.14,0-0.213,0
			c-0.442,0-0.854-0.098-1.238-0.293c-0.383-0.194-0.725-0.462-1.024-0.804s-0.542-0.741-0.726-1.198
			c-0.184-0.457-0.292-0.948-0.323-1.475v-0.299c0-0.557,0.084-1.082,0.252-1.576s0.395-0.926,0.678-1.293
			c0.284-0.367,0.615-0.659,0.993-0.875c0.378-0.215,0.783-0.323,1.214-0.323c0.441,0,0.852,0.103,1.229,0.308
			c0.378,0.205,0.707,0.485,0.985,0.843c0.279,0.358,0.497,0.778,0.655,1.263c0.157,0.482,0.237,1.008,0.237,1.576v0.377h-5.565
			c0.021,0.444,0.105,0.852,0.252,1.23c0.146,0.381,0.339,0.707,0.575,0.987c0.236,0.278,0.51,0.499,0.82,0.663
			C38.661,100.195,38.989,100.276,39.337,100.276z M41.638,96.507c-0.032-0.42-0.118-0.816-0.26-1.189
			c-0.142-0.373-0.323-0.697-0.543-0.97c-0.221-0.271-0.472-0.489-0.756-0.645c-0.284-0.156-0.589-0.238-0.915-0.238
			c-0.315,0-0.615,0.079-0.898,0.238c-0.284,0.157-0.536,0.374-0.757,0.645c-0.221,0.272-0.402,0.597-0.544,0.97
			s-0.229,0.77-0.26,1.189H41.638z"/>
		<path fill="#515DA9" d="M48.164,100.118h5.313l0.015,0.662h-5.974l-0.016-10.893h0.662V100.118z"/>
		<path fill="#515DA9" d="M57.717,100.276c0.168,0,0.344-0.019,0.528-0.055c0.185-0.038,0.368-0.085,0.554-0.143
			s0.357-0.12,0.528-0.188c0.168-0.068,0.315-0.135,0.442-0.197l0.269,0.585c-0.272,0.147-0.567,0.271-0.882,0.379
			c-0.316,0.104-0.652,0.188-1.011,0.251h-0.015c-0.063,0.013-0.129,0.016-0.196,0.016c-0.069,0-0.14,0-0.214,0
			c-0.441,0-0.854-0.098-1.238-0.293c-0.385-0.194-0.727-0.462-1.024-0.804s-0.54-0.741-0.726-1.198
			c-0.185-0.457-0.293-0.948-0.324-1.475v-0.299c0-0.557,0.084-1.082,0.253-1.576c0.166-0.494,0.393-0.926,0.676-1.293
			c0.284-0.367,0.614-0.659,0.993-0.875c0.379-0.215,0.784-0.323,1.215-0.323c0.443,0,0.851,0.103,1.229,0.308
			s0.707,0.485,0.985,0.843c0.281,0.358,0.498,0.778,0.654,1.263c0.157,0.482,0.238,1.008,0.238,1.576v0.377h-5.564
			c0.02,0.444,0.105,0.852,0.252,1.23c0.146,0.381,0.339,0.707,0.575,0.987c0.238,0.278,0.51,0.499,0.819,0.663
			C57.041,100.195,57.369,100.276,57.717,100.276z M60.018,96.507c-0.03-0.42-0.117-0.816-0.26-1.189
			c-0.142-0.373-0.322-0.697-0.544-0.97c-0.221-0.271-0.473-0.489-0.758-0.645c-0.284-0.156-0.588-0.238-0.915-0.238
			c-0.314,0-0.615,0.079-0.9,0.238c-0.281,0.157-0.533,0.374-0.756,0.645c-0.221,0.272-0.402,0.597-0.545,0.97
			c-0.141,0.373-0.229,0.77-0.26,1.189H60.018z"/>
		<path fill="#515DA9" d="M66.215,100.15c-0.243,0.243-0.527,0.433-0.853,0.575c-0.324,0.142-0.677,0.214-1.056,0.214
			c-0.348,0-0.674-0.063-0.985-0.188c-0.31-0.127-0.579-0.299-0.804-0.512c-0.227-0.215-0.408-0.469-0.545-0.758
			c-0.136-0.289-0.205-0.596-0.205-0.922c0-0.348,0.071-0.668,0.213-0.962c0.143-0.293,0.334-0.55,0.575-0.764
			c0.243-0.215,0.524-0.382,0.844-0.497c0.32-0.116,0.659-0.174,1.017-0.174h1.797v-0.348c0-0.315-0.04-0.615-0.118-0.9
			c-0.079-0.283-0.19-0.529-0.339-0.741c-0.147-0.21-0.324-0.379-0.529-0.503c-0.205-0.127-0.434-0.194-0.686-0.206h-0.015
			c-0.684,0-1.294,0.079-1.828,0.237l-0.157-0.63c0.619-0.18,1.282-0.27,1.987-0.27h0.016c0.302,0.012,0.592,0.087,0.868,0.229
			c0.271,0.141,0.515,0.332,0.725,0.574s0.382,0.527,0.512,0.852c0.131,0.327,0.209,0.672,0.229,1.042v0.157
			c-0.013,0.263-0.016,0.54-0.016,0.836c-0.012,0.252-0.014,0.539-0.014,0.859s0,0.644,0,0.969c0,0.304,0.001,0.6,0.007,0.883
			c0.006,0.282,0.015,0.539,0.023,0.772c0.011,0.231,0.024,0.417,0.04,0.558c0.016,0.143,0.034,0.224,0.056,0.244h-0.741
			L66.215,100.15z M66.215,96.808h-1.797c-0.273,0-0.529,0.041-0.764,0.126c-0.238,0.084-0.444,0.202-0.623,0.354
			c-0.18,0.153-0.32,0.337-0.426,0.552c-0.104,0.216-0.156,0.455-0.156,0.72c0,0.241,0.047,0.465,0.141,0.67
			c0.097,0.206,0.227,0.385,0.396,0.536c0.167,0.153,0.362,0.271,0.589,0.361c0.227,0.09,0.473,0.134,0.732,0.134
			c0.263,0,0.509-0.044,0.741-0.134c0.229-0.091,0.435-0.211,0.606-0.361c0.174-0.155,0.31-0.33,0.411-0.536
			c0.101-0.205,0.15-0.429,0.15-0.67L66.215,96.808L66.215,96.808z"/>
		<path fill="#515DA9" d="M71.306,93.498c-0.054-0.021-0.103-0.032-0.15-0.032c-0.047,0-0.099,0-0.151,0
			c-0.263,0-0.512,0.05-0.749,0.149c-0.238,0.101-0.448,0.24-0.64,0.419c-0.188,0.179-0.344,0.387-0.466,0.63
			c-0.12,0.242-0.202,0.503-0.244,0.786l0.016,5.33h-0.662l-0.016-7.127c0-0.179-0.008-0.347-0.024-0.503
			c-0.014-0.157-0.033-0.246-0.053-0.27h0.739v1.166c0.252-0.398,0.565-0.704,0.938-0.922c0.373-0.215,0.786-0.324,1.238-0.324
			c0.052,0,0.112,0.003,0.183,0.007c0.069,0.008,0.134,0.019,0.196,0.042L71.306,93.498z"/>
		<path fill="#515DA9" d="M73.213,93.591v0.426c0.252-0.399,0.567-0.707,0.946-0.924c0.378-0.214,0.792-0.322,1.245-0.322
			c0.367,0,0.711,0.074,1.031,0.229c0.321,0.152,0.6,0.357,0.836,0.615c0.237,0.258,0.426,0.563,0.568,0.914
			c0.141,0.352,0.217,0.729,0.229,1.128l0.047,5.123h-0.662l-0.016-5.123c-0.012-0.315-0.073-0.607-0.189-0.876
			c-0.115-0.268-0.269-0.499-0.457-0.699c-0.188-0.2-0.41-0.357-0.662-0.473c-0.252-0.113-0.52-0.173-0.804-0.173
			c-0.263,0-0.513,0.05-0.749,0.15c-0.236,0.102-0.449,0.239-0.639,0.418c-0.188,0.179-0.347,0.388-0.473,0.63
			c-0.126,0.243-0.211,0.504-0.252,0.787l0.016,5.36h-0.663l-0.015-7.158c0-0.179-0.008-0.328-0.024-0.448
			c-0.015-0.122-0.034-0.191-0.055-0.214h0.741V93.591z"/>
		<path fill="#515DA9" d="M79.66,90.533c0-0.115,0.044-0.214,0.134-0.3c0.088-0.083,0.197-0.128,0.323-0.128
			c0.115,0,0.221,0.044,0.315,0.128s0.142,0.185,0.142,0.3c0,0.116-0.047,0.216-0.142,0.301c-0.095,0.086-0.2,0.127-0.315,0.127
			c-0.126,0-0.235-0.043-0.323-0.127C79.705,90.749,79.66,90.649,79.66,90.533z M79.786,92.898h0.646l0.016,7.882h-0.646
			L79.786,92.898z"/>
		<path fill="#515DA9" d="M82.828,93.591v0.426c0.252-0.399,0.568-0.707,0.946-0.924c0.378-0.214,0.793-0.322,1.243-0.322
			c0.368,0,0.712,0.074,1.034,0.229c0.321,0.152,0.6,0.357,0.835,0.615c0.237,0.258,0.427,0.563,0.568,0.914
			c0.141,0.352,0.217,0.729,0.229,1.128l0.045,5.123h-0.661l-0.016-5.123c-0.012-0.315-0.072-0.607-0.189-0.876
			c-0.116-0.268-0.269-0.499-0.457-0.699c-0.188-0.2-0.41-0.357-0.662-0.473c-0.251-0.115-0.521-0.173-0.805-0.173
			c-0.263,0-0.512,0.05-0.747,0.15c-0.238,0.1-0.451,0.239-0.641,0.418c-0.188,0.179-0.348,0.388-0.473,0.63
			c-0.126,0.243-0.211,0.504-0.252,0.787l0.015,5.36H82.18l-0.016-7.158c0-0.179-0.008-0.328-0.023-0.448
			c-0.015-0.122-0.033-0.191-0.055-0.214h0.74v0.63H82.828z"/>
		<path fill="#515DA9" d="M91.703,98.952c0.053-0.021,0.113-0.032,0.183-0.032s0.13,0,0.183,0c0.441,0,0.853,0.066,1.237,0.197
			c0.386,0.13,0.72,0.306,1.011,0.528c0.289,0.221,0.516,0.483,0.676,0.788c0.161,0.304,0.243,0.631,0.243,0.979
			c0,0.347-0.082,0.67-0.243,0.977c-0.16,0.304-0.387,0.569-0.676,0.795c-0.291,0.228-0.625,0.408-1.011,0.545
			c-0.385,0.137-0.796,0.205-1.237,0.205c-0.434,0-0.84-0.068-1.222-0.205c-0.386-0.137-0.718-0.317-1.001-0.545
			c-0.284-0.226-0.51-0.491-0.677-0.795c-0.168-0.305-0.252-0.63-0.252-0.977c0-0.474,0.149-0.902,0.448-1.286
			c0.299-0.385,0.697-0.681,1.189-0.892c-0.116-0.198-0.175-0.445-0.175-0.739c0-0.181,0.033-0.345,0.096-0.498
			c0.064-0.153,0.143-0.272,0.239-0.356c-0.369-0.264-0.654-0.575-0.859-0.938c-0.207-0.362-0.309-0.756-0.309-1.174
			c0-0.381,0.082-0.732,0.243-1.065c0.163-0.33,0.387-0.619,0.673-0.866c0.282-0.248,0.614-0.442,0.993-0.585
			c0.378-0.142,0.786-0.213,1.229-0.213c0.231,0,0.441,0.014,0.632,0.046c0.187,0.031,0.372,0.072,0.551,0.127h2.728l-0.646,0.662
			h-0.992c0.272,0.242,0.484,0.521,0.639,0.836c0.153,0.315,0.229,0.668,0.229,1.057c0,0.378-0.082,0.729-0.242,1.056
			c-0.163,0.326-0.387,0.61-0.672,0.851c-0.283,0.242-0.616,0.435-1.002,0.576c-0.385,0.143-0.788,0.214-1.22,0.214
			c-0.264,0-0.497-0.032-0.701-0.095c-0.205-0.063-0.401-0.096-0.591-0.096c-0.115,0-0.231,0.029-0.347,0.087
			c-0.116,0.058-0.173,0.171-0.173,0.339c0,0.219,0.06,0.358,0.181,0.416c0.12,0.059,0.243,0.087,0.371,0.087
			c0.052,0,0.104-0.003,0.157-0.009C91.63,98.955,91.672,98.952,91.703,98.952z M89.545,101.412c0,0.252,0.068,0.493,0.205,0.725
			c0.135,0.23,0.32,0.433,0.552,0.606c0.23,0.174,0.499,0.31,0.804,0.41s0.625,0.151,0.961,0.151c0.357,0,0.691-0.05,1.002-0.151
			c0.31-0.1,0.58-0.236,0.812-0.41s0.413-0.376,0.544-0.606c0.13-0.231,0.197-0.473,0.197-0.725c0-0.254-0.067-0.492-0.197-0.718
			c-0.131-0.226-0.313-0.426-0.544-0.599c-0.231-0.175-0.501-0.313-0.812-0.418c-0.311-0.105-0.645-0.157-1.002-0.157
			c-0.336,0-0.656,0.051-0.961,0.157c-0.305,0.104-0.573,0.243-0.804,0.418c-0.231,0.173-0.415,0.373-0.552,0.599
			C89.612,100.919,89.545,101.16,89.545,101.412z M90.191,95.531c0,0.284,0.064,0.552,0.196,0.805
			c0.132,0.252,0.31,0.471,0.536,0.653c0.225,0.185,0.488,0.331,0.787,0.441c0.3,0.11,0.621,0.166,0.968,0.166
			c0.358,0,0.69-0.056,0.993-0.166c0.304-0.109,0.57-0.257,0.797-0.441c0.224-0.184,0.404-0.401,0.534-0.653
			c0.131-0.253,0.197-0.521,0.197-0.805c0-0.294-0.066-0.57-0.197-0.827c-0.13-0.258-0.311-0.481-0.534-0.67
			c-0.227-0.19-0.493-0.337-0.797-0.444c-0.303-0.106-0.638-0.156-0.993-0.156c-0.347,0-0.671,0.053-0.968,0.156
			c-0.3,0.104-0.563,0.252-0.787,0.444c-0.227,0.187-0.404,0.412-0.536,0.67C90.256,94.96,90.191,95.237,90.191,95.531z"/>
		<path fill="#515DA9" d="M102.895,98.945c0.252,0.379,0.588,0.681,1.008,0.906c0.421,0.227,0.909,0.34,1.467,0.34
			c0.336,0,0.66-0.057,0.97-0.166c0.31-0.11,0.581-0.261,0.813-0.449c0.23-0.188,0.414-0.414,0.552-0.677
			c0.137-0.263,0.205-0.547,0.205-0.851s-0.061-0.589-0.182-0.858c-0.121-0.271-0.288-0.511-0.504-0.728
			c-0.216-0.215-0.468-0.391-0.757-0.529c-0.289-0.136-0.602-0.225-0.938-0.267h-0.048c-0.452-0.044-0.87-0.15-1.254-0.325
			c-0.384-0.172-0.715-0.394-0.993-0.662s-0.496-0.576-0.654-0.922c-0.156-0.348-0.236-0.71-0.236-1.089
			c0-0.411,0.086-0.793,0.26-1.153c0.173-0.356,0.412-0.664,0.717-0.921c0.305-0.258,0.662-0.46,1.072-0.607s0.846-0.22,1.309-0.22
			c0.599,0,1.135,0.104,1.607,0.315c0.473,0.212,0.877,0.509,1.213,0.899l-0.535,0.426c-0.263-0.315-0.591-0.565-0.985-0.75
			s-0.828-0.275-1.301-0.275c-0.347,0-0.681,0.059-1.001,0.174c-0.32,0.116-0.604,0.272-0.852,0.472
			c-0.247,0.2-0.444,0.435-0.592,0.701c-0.146,0.268-0.221,0.559-0.221,0.874c0,0.305,0.063,0.598,0.189,0.873
			c0.126,0.279,0.302,0.528,0.528,0.741c0.226,0.215,0.493,0.395,0.804,0.536s0.643,0.229,1,0.26
			c0.442,0.063,0.85,0.182,1.223,0.357c0.373,0.173,0.695,0.39,0.969,0.653c0.273,0.263,0.486,0.561,0.639,0.899
			c0.152,0.337,0.229,0.688,0.229,1.056c0,0.399-0.086,0.776-0.26,1.128c-0.173,0.352-0.408,0.656-0.701,0.914
			c-0.295,0.258-0.642,0.459-1.04,0.606c-0.4,0.147-0.826,0.222-1.277,0.222c-0.641,0-1.222-0.137-1.741-0.41
			c-0.521-0.275-0.934-0.632-1.238-1.073L102.895,98.945z"/>
		<path fill="#515DA9" d="M109.641,96.818c0-0.568,0.098-1.1,0.291-1.593c0.195-0.493,0.46-0.924,0.797-1.292
			c0.336-0.368,0.729-0.66,1.182-0.875c0.451-0.214,0.93-0.323,1.436-0.323c0.504,0,0.977,0.108,1.418,0.323
			s0.828,0.507,1.158,0.875c0.331,0.368,0.594,0.799,0.788,1.292c0.194,0.495,0.292,1.024,0.292,1.593
			c0,0.557-0.098,1.08-0.292,1.568s-0.457,0.916-0.788,1.284c-0.33,0.368-0.717,0.66-1.158,0.875s-0.915,0.323-1.418,0.323
			c-0.505,0-0.984-0.107-1.436-0.323c-0.452-0.215-0.846-0.507-1.182-0.875c-0.337-0.368-0.602-0.796-0.797-1.284
			C109.737,97.898,109.641,97.374,109.641,96.818z M110.303,96.818c0,0.462,0.079,0.9,0.237,1.316
			c0.157,0.415,0.375,0.774,0.653,1.079c0.279,0.305,0.602,0.547,0.971,0.726c0.367,0.179,0.761,0.268,1.182,0.268
			c0.409,0,0.796-0.089,1.158-0.268s0.678-0.42,0.945-0.726s0.481-0.664,0.639-1.079s0.236-0.854,0.236-1.316
			c0-0.474-0.078-0.917-0.236-1.332c-0.157-0.414-0.37-0.778-0.639-1.088c-0.268-0.311-0.583-0.554-0.945-0.731
			c-0.362-0.179-0.749-0.27-1.158-0.27c-0.421,0-0.814,0.089-1.182,0.27c-0.369,0.179-0.691,0.421-0.971,0.731
			c-0.277,0.31-0.496,0.673-0.653,1.088C110.382,95.901,110.303,96.344,110.303,96.818z"/>
		<path fill="#515DA9" d="M118.406,89.817h0.661l0.016,10.894h-0.661L118.406,89.817z"/>
		<path fill="#515DA9" d="M125.53,99.986v-0.379c-0.242,0.368-0.552,0.668-0.93,0.899c-0.379,0.231-0.794,0.347-1.245,0.347
			c-0.369,0-0.71-0.075-1.025-0.229c-0.314-0.152-0.591-0.358-0.827-0.623c-0.237-0.262-0.424-0.569-0.56-0.922
			c-0.137-0.352-0.211-0.728-0.221-1.127l-0.047-0.079v-5.013h0.646v5.013l0.032,0.079c0.01,0.305,0.073,0.591,0.188,0.858
			c0.114,0.269,0.269,0.504,0.457,0.709c0.189,0.205,0.41,0.366,0.662,0.481c0.253,0.115,0.521,0.173,0.805,0.173
			c0.263,0,0.513-0.052,0.748-0.157c0.236-0.105,0.447-0.246,0.631-0.426c0.184-0.179,0.337-0.388,0.458-0.631
			s0.197-0.5,0.229-0.771V92.83h0.662v7.127c0,0.188,0.01,0.357,0.031,0.502c0.021,0.147,0.042,0.232,0.063,0.252h-0.74
			L125.53,99.986z"/>
		<path fill="#515DA9" d="M129.66,89.817v3.122h2.129v0.678h-2.129l0.015,7.094h-0.631c-0.011-0.903-0.016-1.786-0.016-2.647v-4.446
			h-1.198v-0.678h1.167v-3.121L129.66,89.817L129.66,89.817z"/>
		<path fill="#515DA9" d="M133.286,90.464c0-0.115,0.045-0.216,0.134-0.299c0.089-0.085,0.197-0.129,0.323-0.129
			c0.116,0,0.221,0.044,0.315,0.129c0.097,0.082,0.142,0.184,0.142,0.299c0,0.116-0.045,0.216-0.142,0.3
			c-0.095,0.083-0.199,0.126-0.315,0.126c-0.126,0-0.234-0.043-0.323-0.126C133.331,90.68,133.286,90.581,133.286,90.464z
			 M133.412,92.83h0.646l0.014,7.881h-0.646L133.412,92.83z"/>
		<path fill="#515DA9" d="M135.524,96.818c0-0.568,0.098-1.1,0.292-1.593c0.193-0.493,0.46-0.924,0.796-1.292
			s0.729-0.66,1.183-0.875c0.452-0.214,0.929-0.323,1.434-0.323c0.507,0,0.979,0.108,1.42,0.323c0.44,0.215,0.827,0.507,1.157,0.875
			c0.332,0.368,0.594,0.799,0.789,1.292c0.193,0.495,0.291,1.024,0.291,1.593c0,0.557-0.098,1.08-0.291,1.568
			c-0.195,0.488-0.457,0.916-0.789,1.284c-0.328,0.368-0.717,0.66-1.157,0.875c-0.442,0.215-0.915,0.323-1.42,0.323
			c-0.504,0-0.981-0.107-1.434-0.323c-0.451-0.215-0.846-0.507-1.183-0.875s-0.603-0.796-0.796-1.284
			C135.622,97.898,135.524,97.374,135.524,96.818z M136.187,96.818c0,0.462,0.078,0.9,0.237,1.316
			c0.157,0.415,0.376,0.774,0.653,1.079c0.278,0.305,0.602,0.547,0.97,0.726s0.762,0.268,1.182,0.268
			c0.41,0,0.796-0.089,1.159-0.268c0.362-0.179,0.678-0.42,0.946-0.726s0.48-0.664,0.639-1.079c0.156-0.415,0.237-0.854,0.237-1.316
			c0-0.474-0.078-0.917-0.237-1.332c-0.157-0.414-0.37-0.778-0.639-1.088c-0.269-0.311-0.584-0.554-0.946-0.731
			c-0.363-0.181-0.749-0.27-1.159-0.27c-0.419,0-0.813,0.089-1.182,0.27c-0.368,0.179-0.691,0.421-0.97,0.731
			c-0.277,0.31-0.496,0.673-0.653,1.088C136.265,95.901,136.187,96.344,136.187,96.818z"/>
		<path fill="#515DA9" d="M144.542,93.523v0.425c0.252-0.399,0.567-0.706,0.945-0.921c0.379-0.216,0.793-0.325,1.245-0.325
			c0.368,0,0.711,0.073,1.033,0.229c0.32,0.153,0.599,0.357,0.835,0.615c0.236,0.257,0.426,0.56,0.568,0.913
			c0.141,0.354,0.217,0.729,0.229,1.129l0.046,5.123h-0.661l-0.016-5.123c-0.011-0.316-0.073-0.607-0.189-0.874
			c-0.115-0.27-0.268-0.501-0.457-0.701c-0.188-0.199-0.41-0.357-0.662-0.472c-0.251-0.115-0.52-0.174-0.804-0.174
			c-0.263,0-0.513,0.05-0.749,0.15c-0.237,0.1-0.449,0.24-0.639,0.417c-0.188,0.179-0.348,0.389-0.473,0.631
			s-0.211,0.505-0.252,0.787l0.016,5.36h-0.662l-0.016-7.157c0-0.179-0.009-0.328-0.024-0.449c-0.016-0.12-0.034-0.19-0.055-0.214
			h0.741V93.523z"/>
		<path fill="#515DA9" d="M155.45,94.121c-0.244-0.229-0.536-0.407-0.883-0.528s-0.715-0.182-1.104-0.182
			c-0.535,0-0.984,0.127-1.348,0.378c-0.362,0.252-0.544,0.58-0.544,0.977c0,0.189,0.048,0.376,0.142,0.554
			c0.095,0.18,0.229,0.345,0.402,0.497c0.174,0.153,0.381,0.281,0.623,0.387s0.504,0.181,0.788,0.221
			c0.356,0.053,0.688,0.152,0.991,0.301c0.305,0.147,0.567,0.323,0.787,0.528c0.221,0.205,0.391,0.438,0.512,0.694
			c0.122,0.258,0.183,0.529,0.183,0.813c0,0.314-0.07,0.599-0.204,0.851c-0.137,0.252-0.326,0.471-0.561,0.653
			c-0.236,0.185-0.508,0.327-0.817,0.427c-0.311,0.1-0.641,0.148-0.987,0.148c-0.494,0-0.969-0.089-1.427-0.268
			c-0.457-0.18-0.821-0.432-1.096-0.758l0.502-0.395c0.222,0.221,0.505,0.405,0.853,0.553c0.346,0.147,0.721,0.221,1.119,0.221
			c0.546,0,1.01-0.131,1.388-0.395c0.378-0.263,0.566-0.609,0.566-1.041c0-0.199-0.046-0.391-0.141-0.575
			c-0.097-0.184-0.229-0.355-0.403-0.513c-0.173-0.156-0.378-0.291-0.615-0.401c-0.236-0.11-0.497-0.187-0.78-0.229
			c-0.368-0.053-0.704-0.153-1.011-0.301c-0.303-0.147-0.566-0.323-0.786-0.528c-0.221-0.205-0.395-0.435-0.521-0.686
			c-0.127-0.253-0.188-0.516-0.188-0.789c0-0.293,0.071-0.563,0.213-0.812c0.142-0.247,0.334-0.457,0.576-0.63
			c0.243-0.174,0.521-0.308,0.836-0.402s0.65-0.142,1.01-0.142c0.495,0,0.958,0.093,1.395,0.276c0.438,0.182,0.79,0.415,1.064,0.7
			L155.45,94.121z"/>
	</g>
	<g>
		<g>
			<g>
				<path fill="#151530" d="M85.934,60.53v1.442h12.981v2.164c0,1.191-0.972,2.162-2.163,2.162H59.249
					c-1.193,0-2.164-0.971-2.164-2.162v-2.164h12.982V60.53H55.643v3.606c0,1.988,1.618,3.605,3.606,3.605h37.503
					c1.986,0,3.605-1.617,3.605-3.605V60.53H85.934z"/>
				<path fill="#151530" d="M73.673,64.857h8.654c1.192,0,2.164-0.971,2.164-2.164V60.53H71.509v2.164
					C71.509,63.886,72.48,64.857,73.673,64.857z M72.952,61.972h10.097v0.721c0,0.398-0.324,0.721-0.722,0.721h-8.654
					c-0.397,0-0.721-0.323-0.721-0.721V61.972z"/>
				<path fill="#151530" d="M58.527,36.009c0-1.193,0.971-2.164,2.164-2.164h5.049v-1.442h-5.049c-1.989,0-3.606,1.618-3.606,3.606
					v23.079h1.442V36.009z"/>
				<path fill="#151530" d="M97.473,36.009v23.079h1.442V36.009c0-1.988-1.617-3.606-3.606-3.606h-5.047v1.442h5.047
					C96.502,33.845,97.473,34.816,97.473,36.009z"/>
				<path fill="#151530" d="M59.97,36.73v22.357h1.442V36.73h5.77v-1.443h-5.77C60.617,35.287,59.97,35.935,59.97,36.73z"/>
				<path fill="#151530" d="M96.029,59.087V36.73c0-0.795-0.646-1.443-1.441-1.443h-5.77v1.443h5.77v22.357H96.029z"/>
				<rect x="80.163" y="44.663" fill="#151530" width="1.442" height="10.097"/>
				<rect x="74.394" y="44.663" fill="#151530" width="1.442" height="10.097"/>
				<path fill="#151530" d="M88.818,50.433v-1.442h-2.885c-0.398,0-0.724-0.323-0.724-0.721v-4.328h-1.44v4.328
					c0,1.193,0.973,2.163,2.164,2.163H88.818z"/>
				<path fill="#151530" d="M72.23,48.27v-4.328h-1.442v4.328c0,0.398-0.323,0.721-0.721,0.721h-2.885v1.442h2.885
					C71.26,50.433,72.23,49.462,72.23,48.27z"/>
				<rect x="80.163" y="56.203" fill="#151530" width="1.442" height="1.442"/>
				<rect x="74.394" y="56.203" fill="#151530" width="1.442" height="1.442"/>
				<rect x="90.262" y="48.991" fill="#151530" width="1.441" height="1.442"/>
				<rect x="64.297" y="48.991" fill="#151530" width="1.443" height="1.442"/>
				<path fill="#151530" d="M68.707,35.339c-0.055,0.22-0.083,0.444-0.083,0.669c0,1.048,0.573,1.999,1.462,2.505
					c-0.011,0.125-0.019,0.251-0.019,0.38c0,2.386,1.94,4.327,4.327,4.327c1.504,0,2.831-0.772,3.606-1.94
					c0.775,1.168,2.102,1.94,3.605,1.94c2.387,0,4.328-1.941,4.328-4.327c0-0.128-0.01-0.254-0.021-0.38
					c0.891-0.506,1.462-1.457,1.462-2.505c0-0.225-0.026-0.449-0.083-0.669c0.941-0.667,1.523-1.761,1.523-2.937
					c0-1.166-0.571-2.255-1.51-2.928c0.041-0.22,0.067-0.446,0.067-0.678c0-1.838-1.388-3.342-3.168-3.562
					c-0.547-1.296-1.83-2.208-3.322-2.208c-1.185,0-2.228,0.582-2.886,1.465c-0.658-0.883-1.701-1.465-2.885-1.465
					c-1.493,0-2.776,0.913-3.323,2.208c-1.78,0.219-3.168,1.723-3.168,3.562c0,0.232,0.027,0.458,0.069,0.678
					c-0.938,0.673-1.511,1.763-1.511,2.928C67.182,33.579,67.764,34.672,68.707,35.339z M78.723,26.633
					c0-1.193,0.971-2.164,2.164-2.164c1.191,0,2.162,0.971,2.162,2.164c0,1.193-0.971,2.164-2.162,2.164v1.442
					c1.942,0,3.521-1.55,3.592-3.477c0.845,0.295,1.455,1.09,1.455,2.035c0,1.193-0.971,2.163-2.164,2.163v1.443
					c1.224,0,2.299-0.614,2.951-1.545c0.411,0.402,0.655,0.957,0.655,1.545c0,0.841-0.498,1.611-1.269,1.963l-0.689,0.314
					l0.348,0.673c0.111,0.216,0.168,0.437,0.168,0.656c0,0.39-0.17,0.743-0.435,1.008c-0.7-1.447-2.179-2.45-3.894-2.45v1.442
					c1.592,0,2.886,1.294,2.886,2.885s-1.294,2.885-2.886,2.885s-2.885-1.294-2.885-2.885V26.633H78.723z M69.279,30.858
					c0.652,0.931,1.73,1.545,2.951,1.545V30.96c-1.193,0-2.163-0.97-2.163-2.163c0-0.944,0.611-1.74,1.455-2.035
					c0.07,1.927,1.648,3.477,3.593,3.477v-1.442c-1.193,0-2.164-0.971-2.164-2.164c0-1.193,0.971-2.164,2.164-2.164
					s2.164,0.971,2.164,2.164v12.261c0,1.591-1.295,2.885-2.884,2.885c-1.591,0-2.885-1.294-2.885-2.885s1.293-2.885,2.885-2.885
					v-1.442c-1.714,0-3.193,1.003-3.893,2.45c-0.264-0.265-0.434-0.618-0.434-1.008c0-0.22,0.056-0.44,0.168-0.656l0.347-0.673
					l-0.689-0.315c-0.771-0.352-1.269-1.122-1.269-1.962C68.624,31.815,68.868,31.26,69.279,30.858z"/>
				<rect x="58.527" y="63.415" fill="#151530" width="1.442" height="1.442"/>
				<rect x="61.412" y="63.415" fill="#151530" width="1.442" height="1.442"/>
				<rect x="64.297" y="63.415" fill="#151530" width="1.443" height="1.442"/>
			</g>
		</g>
	</g>
</g>
</svg>
