<?xml version="1.0" encoding="utf-8"?>
<!-- Generator: Adobe Illustrator 16.0.0, SVG Export Plug-In . SVG Version: 6.00 Build 0)  -->
<!DOCTYPE svg PUBLIC "-//W3C//DTD SVG 1.1//EN" "http://www.w3.org/Graphics/SVG/1.1/DTD/svg11.dtd">
<svg version="1.1" id="Layer_1" xmlns="http://www.w3.org/2000/svg" xmlns:xlink="http://www.w3.org/1999/xlink" x="0px" y="0px"
	 width="150px" height="127.667px" viewBox="0 0 150 127.667" enable-background="new 0 0 150 127.667" xml:space="preserve">
<g>
	<path fill="#FFFFFF" d="M130.424,54.335c0,29.458-23.875,53.334-53.334,53.334S23.755,83.792,23.755,54.335
		C23.755,24.877,47.631,1,77.09,1S130.424,24.877,130.424,54.335z"/>
	<g>
		<path fill="#515DA9" d="M13.043,83.041h0.988l0.023,15.875h-0.988l-0.023-14.015l-4.871,8.386H7.575l-4.939-8.386l0.023,14.015
			H1.694L1.671,83.041h0.965l5.261,8.867L13.043,83.041z"/>
		<path fill="#515DA9" d="M22.601,97.998c-0.353,0.354-0.766,0.631-1.241,0.838c-0.475,0.207-0.988,0.312-1.539,0.312
			c-0.506,0-0.984-0.092-1.436-0.274c-0.452-0.185-0.843-0.434-1.172-0.746c-0.33-0.313-0.594-0.683-0.792-1.104
			c-0.199-0.421-0.299-0.869-0.299-1.344c0-0.507,0.104-0.974,0.31-1.401c0.207-0.429,0.486-0.801,0.839-1.113
			c0.352-0.313,0.762-0.557,1.229-0.725c0.467-0.169,0.961-0.253,1.482-0.253h2.619V91.68c0-0.459-0.058-0.896-0.172-1.312
			c-0.115-0.412-0.28-0.771-0.494-1.08c-0.215-0.306-0.471-0.551-0.77-0.732c-0.298-0.186-0.632-0.284-1-0.301h-0.023
			c-0.996,0-1.884,0.115-2.665,0.347l-0.229-0.919c0.903-0.262,1.868-0.393,2.895-0.393h0.023c0.444,0.017,0.865,0.127,1.264,0.334
			c0.398,0.205,0.75,0.485,1.057,0.838c0.306,0.354,0.555,0.768,0.747,1.24c0.191,0.477,0.302,0.98,0.333,1.519v0.229
			c-0.015,0.383-0.023,0.788-0.023,1.219c-0.015,0.367-0.023,0.785-0.023,1.252c0,0.468,0,0.938,0,1.412
			c0,0.443,0.004,0.873,0.012,1.287c0.007,0.412,0.019,0.787,0.034,1.125c0.015,0.338,0.035,0.608,0.058,0.814
			c0.023,0.207,0.049,0.326,0.081,0.355h-1.08L22.601,97.998z M22.601,93.126h-2.619c-0.398,0-0.77,0.062-1.114,0.185
			c-0.345,0.122-0.647,0.295-0.908,0.517c-0.261,0.223-0.467,0.49-0.62,0.805c-0.153,0.313-0.23,0.662-0.23,1.047
			c0,0.353,0.069,0.678,0.207,0.977c0.138,0.299,0.329,0.561,0.574,0.781s0.532,0.396,0.862,0.527
			c0.329,0.131,0.685,0.195,1.068,0.195c0.382,0,0.743-0.064,1.08-0.195s0.632-0.308,0.885-0.527
			c0.252-0.225,0.452-0.482,0.597-0.781c0.146-0.299,0.218-0.624,0.218-0.977V93.126z"/>
		<path fill="#515DA9" d="M33.812,89.794c-0.398-0.459-0.877-0.83-1.436-1.113c-0.56-0.283-1.168-0.426-1.827-0.426
			c-0.628,0-1.218,0.131-1.769,0.392c-0.551,0.261-1.03,0.612-1.436,1.058c-0.406,0.443-0.728,0.969-0.965,1.572
			c-0.238,0.605-0.356,1.253-0.356,1.941c0,0.675,0.119,1.313,0.356,1.919c0.237,0.604,0.559,1.13,0.965,1.573
			c0.406,0.443,0.885,0.797,1.436,1.058c0.551,0.261,1.141,0.392,1.769,0.392c0.628,0,1.218-0.131,1.769-0.392
			c0.551-0.261,1.034-0.621,1.447-1.08l0.689,0.666c-0.521,0.536-1.111,0.965-1.769,1.287c-0.659,0.321-1.371,0.481-2.137,0.481
			c-0.75,0-1.459-0.156-2.125-0.473c-0.666-0.313-1.249-0.736-1.746-1.273c-0.497-0.535-0.892-1.16-1.183-1.873
			c-0.291-0.711-0.437-1.475-0.437-2.285c0-0.813,0.146-1.577,0.437-2.297c0.291-0.721,0.686-1.35,1.183-1.885
			c0.497-0.535,1.08-0.961,1.746-1.274c0.667-0.313,1.375-0.472,2.125-0.472c0.796,0,1.531,0.164,2.206,0.494
			c0.674,0.328,1.256,0.762,1.746,1.299L33.812,89.794z"/>
		<path fill="#515DA9" d="M37.535,82.994v6.065c0.368-0.565,0.823-1.007,1.367-1.321c0.543-0.313,1.152-0.471,1.827-0.471
			c0.536,0,1.038,0.107,1.505,0.32c0.467,0.216,0.873,0.515,1.218,0.896c0.345,0.384,0.616,0.827,0.815,1.332
			c0.199,0.506,0.306,1.052,0.322,1.632l0.069,7.397h-0.965v-7.397c-0.016-0.46-0.107-0.885-0.276-1.273
			c-0.169-0.391-0.391-0.731-0.666-1.022c-0.276-0.291-0.602-0.521-0.977-0.688c-0.375-0.166-0.77-0.252-1.183-0.252
			c-0.368,0-0.724,0.072-1.068,0.219c-0.344,0.146-0.655,0.349-0.931,0.607c-0.276,0.26-0.505,0.566-0.689,0.92
			c-0.184,0.354-0.307,0.734-0.368,1.147l0.023,7.812h-0.965L36.57,82.994H37.535z"/>
		<path fill="#515DA9" d="M47.275,83.982c0-0.168,0.065-0.313,0.195-0.438c0.13-0.121,0.287-0.185,0.471-0.185
			c0.168,0,0.321,0.063,0.459,0.185c0.138,0.123,0.207,0.27,0.207,0.438c0,0.169-0.069,0.314-0.207,0.438
			c-0.138,0.123-0.292,0.185-0.459,0.185c-0.184,0-0.341-0.062-0.471-0.185C47.34,84.296,47.275,84.151,47.275,83.982z
			 M47.459,87.429h0.942l0.023,11.486h-0.942L47.459,87.429z"/>
		<path fill="#515DA9" d="M51.893,88.439v0.62c0.368-0.582,0.827-1.03,1.378-1.345c0.552-0.313,1.157-0.471,1.815-0.471
			c0.536,0,1.037,0.109,1.505,0.334c0.467,0.221,0.873,0.521,1.217,0.896c0.345,0.376,0.621,0.819,0.827,1.333
			c0.207,0.513,0.318,1.061,0.333,1.643l0.069,7.467h-0.965l-0.023-7.467c-0.016-0.46-0.107-0.885-0.276-1.275
			c-0.169-0.389-0.391-0.729-0.667-1.021c-0.275-0.291-0.597-0.521-0.965-0.688c-0.368-0.168-0.758-0.252-1.172-0.252
			c-0.383,0-0.747,0.072-1.091,0.219c-0.344,0.146-0.655,0.349-0.93,0.609c-0.276,0.26-0.505,0.564-0.689,0.918
			c-0.184,0.354-0.307,0.734-0.368,1.147l0.023,7.813h-0.965l-0.023-10.433c0-0.261-0.011-0.479-0.035-0.653
			c-0.023-0.178-0.05-0.279-0.08-0.312h1.08v0.918L51.893,88.439L51.893,88.439z"/>
		<path fill="#515DA9" d="M65.472,98.181c0.245,0,0.501-0.026,0.77-0.08c0.268-0.055,0.536-0.123,0.804-0.207
			s0.524-0.176,0.77-0.275c0.246-0.099,0.459-0.195,0.644-0.287l0.39,0.852c-0.398,0.215-0.827,0.396-1.286,0.552
			c-0.46,0.153-0.95,0.275-1.471,0.367H66.07c-0.092,0.017-0.188,0.022-0.287,0.022c-0.099,0-0.203,0-0.31,0
			c-0.644,0-1.245-0.143-1.804-0.427c-0.559-0.282-1.057-0.673-1.493-1.171s-0.789-1.08-1.057-1.746
			c-0.268-0.667-0.425-1.383-0.471-2.148v-0.437c0-0.812,0.122-1.577,0.367-2.298c0.245-0.72,0.575-1.348,0.988-1.884
			s0.896-0.961,1.447-1.275c0.551-0.313,1.141-0.471,1.769-0.471c0.644,0,1.241,0.149,1.792,0.448
			c0.552,0.299,1.03,0.707,1.436,1.229c0.406,0.521,0.724,1.135,0.954,1.84c0.229,0.703,0.345,1.469,0.345,2.297v0.551h-8.11
			c0.03,0.646,0.153,1.24,0.368,1.793c0.214,0.553,0.494,1.029,0.838,1.437c0.345,0.406,0.743,0.729,1.195,0.966
			C64.487,98.063,64.966,98.181,65.472,98.181z M68.826,92.689c-0.046-0.611-0.172-1.189-0.379-1.734
			c-0.207-0.543-0.471-1.015-0.792-1.412c-0.322-0.396-0.689-0.713-1.103-0.94c-0.414-0.229-0.858-0.347-1.333-0.347
			c-0.459,0-0.896,0.115-1.31,0.347c-0.414,0.229-0.781,0.544-1.103,0.94c-0.322,0.397-0.586,0.869-0.793,1.412
			c-0.207,0.545-0.333,1.123-0.379,1.734H68.826z"/>
		<path fill="#515DA9" d="M78.337,97.951h7.743l0.021,0.965h-8.707l-0.022-15.875h0.965V97.951z"/>
		<path fill="#515DA9" d="M92.26,98.181c0.245,0,0.502-0.026,0.77-0.08c0.27-0.055,0.537-0.123,0.806-0.207
			c0.271-0.084,0.522-0.176,0.771-0.275c0.244-0.1,0.459-0.195,0.644-0.287l0.392,0.852c-0.397,0.215-0.826,0.396-1.285,0.552
			c-0.461,0.153-0.951,0.275-1.473,0.367h-0.021c-0.092,0.017-0.188,0.022-0.287,0.022c-0.1,0-0.203,0-0.311,0
			c-0.645,0-1.244-0.143-1.805-0.427c-0.561-0.282-1.059-0.673-1.493-1.171s-0.789-1.08-1.057-1.746
			c-0.271-0.667-0.427-1.383-0.474-2.148v-0.437c0-0.812,0.123-1.577,0.369-2.298c0.243-0.72,0.573-1.348,0.986-1.884
			c0.414-0.536,0.896-0.961,1.447-1.275c0.552-0.313,1.142-0.471,1.77-0.471c0.645,0,1.24,0.149,1.792,0.448s1.03,0.707,1.437,1.229
			c0.408,0.521,0.726,1.135,0.953,1.84c0.229,0.703,0.347,1.469,0.347,2.297v0.551h-8.11c0.03,0.646,0.153,1.24,0.367,1.793
			c0.215,0.553,0.494,1.029,0.839,1.437c0.347,0.406,0.743,0.729,1.194,0.966C91.275,98.063,91.754,98.181,92.26,98.181z
			 M95.613,92.689c-0.045-0.611-0.172-1.189-0.379-1.734c-0.207-0.543-0.471-1.015-0.793-1.412c-0.321-0.396-0.688-0.713-1.104-0.94
			c-0.414-0.229-0.857-0.347-1.333-0.347c-0.459,0-0.896,0.115-1.312,0.347c-0.411,0.229-0.779,0.544-1.102,0.94
			c-0.322,0.397-0.587,0.869-0.794,1.412c-0.206,0.545-0.333,1.123-0.379,1.734H95.613z"/>
		<path fill="#515DA9" d="M104.645,97.998c-0.354,0.354-0.768,0.631-1.242,0.838c-0.473,0.207-0.986,0.312-1.539,0.312
			c-0.506,0-0.982-0.092-1.436-0.274c-0.451-0.185-0.843-0.434-1.172-0.746c-0.33-0.313-0.594-0.683-0.793-1.104
			c-0.199-0.421-0.299-0.869-0.299-1.344c0-0.507,0.104-0.974,0.311-1.401s0.485-0.801,0.838-1.113
			c0.354-0.313,0.764-0.557,1.229-0.725c0.467-0.169,0.961-0.253,1.481-0.253h2.619V91.68c0-0.459-0.059-0.896-0.172-1.312
			c-0.115-0.412-0.279-0.771-0.494-1.08c-0.215-0.306-0.473-0.551-0.771-0.732c-0.299-0.186-0.633-0.284-0.999-0.301h-0.022
			c-0.996,0-1.885,0.115-2.664,0.347l-0.229-0.919c0.903-0.262,1.868-0.393,2.896-0.393h0.022c0.442,0.017,0.864,0.127,1.265,0.334
			c0.396,0.205,0.75,0.485,1.057,0.838c0.307,0.354,0.556,0.768,0.746,1.24c0.19,0.477,0.304,0.98,0.334,1.519v0.229
			c-0.017,0.383-0.022,0.788-0.022,1.219c-0.017,0.367-0.021,0.785-0.021,1.252c0,0.468,0,0.938,0,1.412
			c0,0.443,0.002,0.873,0.011,1.287c0.008,0.412,0.021,0.787,0.034,1.125c0.016,0.338,0.035,0.608,0.058,0.814
			c0.022,0.207,0.05,0.326,0.081,0.355h-1.08L104.645,97.998z M104.645,93.126h-2.619c-0.398,0-0.771,0.062-1.114,0.185
			c-0.345,0.122-0.646,0.295-0.907,0.517c-0.261,0.223-0.467,0.49-0.62,0.805c-0.151,0.313-0.229,0.662-0.229,1.047
			c0,0.353,0.068,0.678,0.205,0.977c0.141,0.299,0.33,0.561,0.576,0.781c0.244,0.223,0.53,0.396,0.86,0.527
			c0.329,0.131,0.687,0.195,1.067,0.195c0.383,0,0.742-0.064,1.08-0.195c0.336-0.131,0.633-0.308,0.885-0.527
			c0.253-0.225,0.451-0.482,0.598-0.781s0.219-0.624,0.219-0.977V93.126L104.645,93.126z"/>
		<path fill="#515DA9" d="M112.064,88.302c-0.078-0.031-0.149-0.047-0.219-0.047c-0.068,0-0.144,0-0.22,0
			c-0.383,0-0.747,0.072-1.092,0.219c-0.347,0.146-0.654,0.349-0.931,0.609c-0.275,0.261-0.502,0.564-0.68,0.918
			c-0.176,0.354-0.295,0.734-0.355,1.147l0.022,7.767h-0.965l-0.022-10.386c0-0.261-0.012-0.506-0.035-0.733
			c-0.021-0.229-0.049-0.359-0.078-0.393h1.078v1.7c0.367-0.582,0.824-1.028,1.367-1.344c0.543-0.313,1.146-0.472,1.805-0.472
			c0.076,0,0.164,0.004,0.265,0.01c0.101,0.01,0.195,0.027,0.287,0.06L112.064,88.302z"/>
		<path fill="#515DA9" d="M114.844,88.439v0.62c0.367-0.582,0.827-1.03,1.379-1.345c0.551-0.313,1.155-0.471,1.814-0.471
			c0.536,0,1.037,0.109,1.505,0.334c0.467,0.221,0.873,0.521,1.218,0.896c0.346,0.376,0.62,0.819,0.827,1.333
			c0.206,0.513,0.317,1.061,0.333,1.643l0.068,7.467h-0.965l-0.022-7.467c-0.017-0.46-0.106-0.885-0.276-1.275
			c-0.168-0.391-0.391-0.729-0.666-1.021c-0.273-0.291-0.598-0.521-0.965-0.688s-0.758-0.252-1.172-0.252
			c-0.383,0-0.746,0.072-1.091,0.219s-0.655,0.349-0.931,0.609c-0.275,0.26-0.506,0.564-0.689,0.918s-0.307,0.734-0.367,1.147
			l0.022,7.813H113.9l-0.021-10.433c0-0.261-0.012-0.479-0.035-0.653c-0.021-0.178-0.05-0.279-0.08-0.312h1.08V88.439z"/>
		<path fill="#515DA9" d="M124.24,83.982c0-0.168,0.064-0.313,0.195-0.438c0.129-0.121,0.287-0.185,0.471-0.185
			c0.169,0,0.322,0.063,0.46,0.185c0.138,0.123,0.206,0.27,0.206,0.438c0,0.169-0.068,0.314-0.206,0.438
			c-0.138,0.125-0.291,0.185-0.46,0.185c-0.184,0-0.342-0.062-0.471-0.185S124.24,84.151,124.24,83.982z M124.424,87.429h0.942
			l0.022,11.486h-0.941L124.424,87.429z"/>
		<path fill="#515DA9" d="M128.857,88.439v0.62c0.367-0.582,0.828-1.03,1.379-1.345c0.552-0.313,1.156-0.471,1.813-0.471
			c0.536,0,1.037,0.109,1.507,0.334c0.467,0.221,0.873,0.521,1.217,0.896c0.346,0.376,0.621,0.819,0.828,1.333
			c0.205,0.513,0.315,1.061,0.332,1.643l0.067,7.467h-0.965l-0.021-7.467c-0.018-0.46-0.107-0.885-0.277-1.275
			c-0.168-0.391-0.391-0.729-0.666-1.021c-0.274-0.291-0.598-0.521-0.965-0.688c-0.366-0.168-0.758-0.252-1.172-0.252
			c-0.383,0-0.746,0.072-1.09,0.219c-0.347,0.146-0.656,0.349-0.933,0.609c-0.274,0.26-0.506,0.564-0.688,0.918
			c-0.184,0.354-0.308,0.734-0.367,1.147l0.021,7.813h-0.965l-0.021-10.433c0-0.261-0.013-0.479-0.035-0.653
			c-0.021-0.178-0.049-0.279-0.08-0.312h1.08V88.439z"/>
		<path fill="#515DA9" d="M141.793,96.251c0.076-0.03,0.164-0.047,0.266-0.047c0.1,0,0.188,0,0.265,0
			c0.644,0,1.243,0.096,1.804,0.287c0.561,0.19,1.049,0.447,1.473,0.771c0.42,0.321,0.75,0.704,0.985,1.147
			c0.235,0.444,0.354,0.92,0.354,1.426s-0.119,0.979-0.354,1.425c-0.235,0.442-0.565,0.829-0.985,1.159
			c-0.424,0.33-0.912,0.594-1.473,0.793s-1.16,0.299-1.804,0.299c-0.63,0-1.224-0.1-1.78-0.299
			c-0.561-0.199-1.046-0.463-1.459-0.793c-0.414-0.33-0.743-0.717-0.986-1.159c-0.246-0.444-0.367-0.919-0.367-1.425
			c0-0.689,0.217-1.313,0.652-1.873c0.436-0.561,1.016-0.991,1.735-1.299c-0.17-0.289-0.255-0.649-0.255-1.078
			c0-0.263,0.048-0.502,0.14-0.726c0.093-0.223,0.207-0.396,0.347-0.519c-0.537-0.383-0.953-0.838-1.252-1.366
			c-0.301-0.528-0.449-1.101-0.449-1.711c0-0.554,0.119-1.068,0.355-1.552c0.237-0.482,0.563-0.903,0.979-1.264
			c0.412-0.361,0.896-0.645,1.447-0.852c0.551-0.207,1.146-0.311,1.791-0.311c0.338,0,0.643,0.021,0.92,0.067
			c0.273,0.046,0.543,0.106,0.803,0.185h3.976l-0.94,0.965h-1.446c0.396,0.354,0.706,0.76,0.93,1.219
			c0.224,0.46,0.334,0.974,0.334,1.54c0,0.551-0.119,1.063-0.354,1.539c-0.237,0.475-0.563,0.889-0.979,1.239
			c-0.413,0.354-0.898,0.633-1.459,0.84s-1.15,0.311-1.779,0.311c-0.384,0-0.725-0.046-1.021-0.138
			c-0.299-0.093-0.586-0.14-0.861-0.14c-0.169,0-0.338,0.043-0.506,0.127c-0.169,0.084-0.253,0.25-0.253,0.494
			c0,0.32,0.088,0.523,0.265,0.607c0.176,0.084,0.355,0.126,0.541,0.126c0.075,0,0.151-0.003,0.229-0.011
			C141.686,96.255,141.747,96.251,141.793,96.251z M138.646,99.835c0,0.367,0.1,0.72,0.299,1.057
			c0.197,0.337,0.467,0.632,0.804,0.885s0.728,0.451,1.172,0.598c0.444,0.147,0.911,0.22,1.401,0.22c0.521,0,1.007-0.072,1.459-0.22
			c0.451-0.146,0.847-0.345,1.184-0.598c0.338-0.253,0.602-0.548,0.792-0.885s0.288-0.689,0.288-1.057
			c0-0.369-0.098-0.717-0.288-1.045c-0.19-0.33-0.454-0.621-0.792-0.873c-0.337-0.254-0.73-0.457-1.184-0.609
			c-0.452-0.152-0.938-0.229-1.459-0.229c-0.49,0-0.957,0.075-1.401,0.229c-0.444,0.152-0.835,0.355-1.172,0.609
			c-0.337,0.252-0.604,0.543-0.804,0.873C138.745,99.119,138.646,99.468,138.646,99.835z M139.588,91.266
			c0,0.413,0.096,0.804,0.287,1.172c0.191,0.367,0.451,0.687,0.781,0.953c0.328,0.269,0.712,0.481,1.148,0.644
			c0.437,0.16,0.905,0.241,1.411,0.241c0.521,0,1.005-0.081,1.447-0.241s0.831-0.375,1.16-0.644c0.327-0.269,0.59-0.586,0.78-0.953
			c0.19-0.368,0.287-0.759,0.287-1.172c0-0.429-0.097-0.831-0.287-1.206c-0.19-0.376-0.453-0.701-0.78-0.977
			c-0.329-0.276-0.718-0.49-1.16-0.646s-0.929-0.229-1.447-0.229c-0.506,0-0.978,0.076-1.411,0.229
			c-0.438,0.151-0.82,0.367-1.148,0.646c-0.33,0.273-0.59,0.601-0.781,0.977C139.684,90.435,139.588,90.837,139.588,91.266z"/>
		<path fill="#515DA9" d="M36.972,123.914c0.368,0.551,0.858,0.991,1.471,1.32c0.612,0.329,1.324,0.494,2.137,0.494
			c0.49,0,0.961-0.081,1.413-0.241c0.452-0.161,0.846-0.38,1.184-0.655c0.336-0.273,0.604-0.604,0.804-0.986
			c0.199-0.383,0.299-0.797,0.299-1.24s-0.088-0.859-0.264-1.252c-0.176-0.393-0.421-0.743-0.735-1.059
			c-0.314-0.313-0.682-0.569-1.103-0.771c-0.421-0.198-0.877-0.329-1.367-0.39H40.74c-0.659-0.063-1.268-0.219-1.827-0.473
			c-0.559-0.252-1.042-0.574-1.447-0.966c-0.406-0.391-0.724-0.839-0.954-1.344c-0.229-0.506-0.345-1.034-0.345-1.586
			c0-0.599,0.126-1.156,0.379-1.679c0.252-0.521,0.601-0.969,1.045-1.344c0.444-0.375,0.965-0.67,1.562-0.885
			c0.598-0.215,1.233-0.32,1.907-0.32c0.873,0,1.654,0.152,2.343,0.459c0.689,0.308,1.279,0.742,1.769,1.311l-0.781,0.62
			c-0.383-0.459-0.861-0.823-1.436-1.093c-0.575-0.268-1.207-0.4-1.896-0.4c-0.506,0-0.992,0.085-1.459,0.253
			c-0.467,0.169-0.881,0.397-1.241,0.688c-0.36,0.291-0.647,0.633-0.862,1.021c-0.215,0.391-0.321,0.814-0.321,1.273
			c0,0.445,0.092,0.871,0.275,1.274c0.184,0.406,0.44,0.769,0.77,1.08c0.329,0.313,0.72,0.574,1.171,0.781
			c0.452,0.206,0.938,0.333,1.459,0.379c0.644,0.092,1.237,0.265,1.781,0.519c0.543,0.252,1.014,0.569,1.413,0.953
			c0.398,0.383,0.708,0.818,0.93,1.311c0.222,0.49,0.333,1.003,0.333,1.539c0,0.582-0.126,1.13-0.379,1.643
			c-0.252,0.514-0.594,0.957-1.022,1.333c-0.429,0.375-0.935,0.67-1.516,0.884c-0.583,0.215-1.203,0.322-1.861,0.322
			c-0.934,0-1.78-0.199-2.539-0.598c-0.759-0.399-1.359-0.92-1.804-1.563L36.972,123.914z"/>
		<path fill="#515DA9" d="M46.805,120.812c0-0.827,0.142-1.602,0.425-2.32c0.283-0.72,0.67-1.348,1.16-1.884
			c0.49-0.536,1.064-0.961,1.723-1.274c0.658-0.313,1.355-0.472,2.091-0.472c0.735,0,1.424,0.157,2.067,0.472
			c0.644,0.313,1.207,0.738,1.689,1.274s0.865,1.164,1.148,1.884c0.284,0.721,0.425,1.493,0.425,2.32
			c0,0.813-0.142,1.574-0.425,2.286c-0.283,0.712-0.666,1.336-1.148,1.872c-0.482,0.535-1.045,0.962-1.689,1.275
			c-0.643,0.313-1.333,0.471-2.067,0.471c-0.735,0-1.433-0.157-2.091-0.471c-0.659-0.313-1.233-0.74-1.723-1.275
			c-0.49-0.536-0.877-1.16-1.16-1.872C46.946,122.386,46.805,121.623,46.805,120.812z M47.77,120.812
			c0,0.674,0.115,1.313,0.345,1.918s0.547,1.13,0.954,1.574c0.406,0.443,0.876,0.797,1.413,1.057
			c0.536,0.262,1.11,0.391,1.723,0.391c0.597,0,1.16-0.129,1.688-0.391c0.528-0.26,0.988-0.611,1.378-1.057
			c0.39-0.446,0.701-0.969,0.931-1.574c0.229-0.604,0.345-1.244,0.345-1.918c0-0.689-0.115-1.336-0.345-1.941
			c-0.23-0.604-0.54-1.134-0.931-1.584c-0.391-0.453-0.85-0.809-1.378-1.067c-0.528-0.261-1.091-0.392-1.688-0.392
			c-0.613,0-1.188,0.129-1.723,0.392c-0.537,0.261-1.007,0.614-1.413,1.067c-0.406,0.45-0.724,0.979-0.954,1.584
			C47.885,119.476,47.77,120.123,47.77,120.812z"/>
		<path fill="#515DA9" d="M59.579,110.61h0.965l0.023,15.876h-0.965L59.579,110.61z"/>
		<path fill="#515DA9" d="M69.963,125.43v-0.552c-0.353,0.535-0.804,0.973-1.355,1.31c-0.552,0.337-1.157,0.506-1.815,0.506
			c-0.537,0-1.034-0.11-1.494-0.333c-0.459-0.223-0.861-0.523-1.206-0.908c-0.345-0.383-0.617-0.83-0.816-1.344
			c-0.199-0.513-0.306-1.061-0.321-1.643l-0.069-0.115v-7.307h0.942v7.307l0.046,0.115c0.015,0.443,0.107,0.861,0.275,1.252
			s0.391,0.734,0.667,1.033s0.597,0.533,0.965,0.701c0.368,0.168,0.758,0.252,1.172,0.252c0.383,0,0.747-0.076,1.091-0.229
			c0.344-0.153,0.651-0.358,0.919-0.62c0.268-0.261,0.49-0.564,0.667-0.919c0.176-0.354,0.287-0.729,0.333-1.126V115h0.965v10.386
			c0,0.274,0.015,0.521,0.046,0.733c0.031,0.215,0.061,0.338,0.092,0.367h-1.08L69.963,125.43z"/>
		<path fill="#515DA9" d="M75.982,110.61v4.55h3.102v0.987h-3.102l0.021,10.339h-0.919c-0.016-1.316-0.023-2.604-0.023-3.859v-6.479
			h-1.746v-0.988h1.7v-4.549L75.982,110.61L75.982,110.61z"/>
		<path fill="#515DA9" d="M81.268,111.553c0-0.169,0.064-0.314,0.194-0.437c0.13-0.123,0.287-0.186,0.472-0.186
			c0.168,0,0.321,0.063,0.459,0.186c0.14,0.12,0.207,0.268,0.207,0.437s-0.067,0.313-0.207,0.437
			c-0.138,0.122-0.291,0.184-0.459,0.184c-0.185,0-0.342-0.062-0.472-0.184C81.332,111.867,81.268,111.722,81.268,111.553z
			 M81.45,115h0.942l0.021,11.486h-0.94L81.45,115z"/>
		<path fill="#515DA9" d="M84.529,120.812c0-0.827,0.141-1.602,0.425-2.32c0.282-0.72,0.67-1.348,1.159-1.884
			c0.49-0.536,1.064-0.961,1.724-1.274c0.66-0.313,1.354-0.472,2.091-0.472c0.737,0,1.426,0.157,2.068,0.472
			c0.643,0.313,1.206,0.738,1.688,1.274c0.482,0.536,0.865,1.164,1.148,1.884c0.283,0.721,0.425,1.493,0.425,2.32
			c0,0.813-0.142,1.574-0.425,2.286s-0.666,1.336-1.148,1.872c-0.48,0.535-1.045,0.962-1.688,1.275
			c-0.645,0.313-1.333,0.471-2.068,0.471c-0.734,0-1.432-0.157-2.091-0.471c-0.657-0.313-1.231-0.74-1.724-1.275
			c-0.49-0.536-0.877-1.16-1.159-1.872C84.67,122.386,84.529,121.623,84.529,120.812z M85.494,120.812
			c0,0.674,0.113,1.313,0.345,1.918c0.229,0.605,0.548,1.13,0.953,1.574c0.405,0.443,0.877,0.797,1.413,1.057
			c0.536,0.262,1.109,0.391,1.723,0.391c0.598,0,1.16-0.129,1.689-0.391c0.527-0.26,0.986-0.611,1.378-1.057
			c0.392-0.446,0.7-0.969,0.931-1.574c0.229-0.604,0.346-1.244,0.346-1.918c0-0.689-0.114-1.336-0.346-1.941
			c-0.229-0.604-0.539-1.134-0.931-1.584c-0.392-0.453-0.851-0.809-1.378-1.067c-0.529-0.263-1.092-0.392-1.689-0.392
			c-0.611,0-1.187,0.129-1.723,0.392c-0.536,0.261-1.008,0.614-1.413,1.067c-0.405,0.45-0.724,0.979-0.953,1.584
			C85.607,119.476,85.494,120.123,85.494,120.812z"/>
		<path fill="#515DA9" d="M97.671,116.01v0.62c0.367-0.582,0.827-1.03,1.378-1.344c0.553-0.313,1.156-0.473,1.814-0.473
			c0.537,0,1.037,0.109,1.506,0.333c0.467,0.224,0.873,0.521,1.218,0.896s0.62,0.818,0.827,1.332
			c0.206,0.515,0.316,1.063,0.333,1.645l0.067,7.467h-0.965l-0.021-7.467c-0.016-0.46-0.107-0.885-0.275-1.273
			c-0.169-0.393-0.392-0.731-0.666-1.022c-0.275-0.291-0.599-0.521-0.966-0.688c-0.366-0.168-0.758-0.253-1.172-0.253
			c-0.383,0-0.746,0.072-1.091,0.218c-0.346,0.146-0.655,0.351-0.932,0.609c-0.274,0.26-0.506,0.566-0.688,0.919
			s-0.308,0.735-0.367,1.147l0.022,7.813h-0.965l-0.022-10.431c0-0.261-0.013-0.479-0.035-0.655s-0.05-0.279-0.08-0.311h1.08V116.01
			z"/>
		<path fill="#515DA9" d="M113.568,116.882c-0.354-0.336-0.78-0.594-1.285-0.771c-0.506-0.176-1.042-0.265-1.608-0.265
			c-0.78,0-1.437,0.186-1.965,0.552c-0.528,0.367-0.793,0.845-0.793,1.424c0,0.276,0.069,0.546,0.207,0.806
			c0.138,0.262,0.333,0.502,0.586,0.725s0.556,0.41,0.907,0.563c0.354,0.153,0.734,0.263,1.148,0.322
			c0.521,0.076,1.004,0.223,1.446,0.438c0.444,0.215,0.827,0.471,1.147,0.77c0.322,0.3,0.57,0.638,0.746,1.013
			c0.178,0.375,0.266,0.77,0.266,1.184c0,0.459-0.102,0.873-0.298,1.24c-0.199,0.367-0.474,0.686-0.816,0.953
			c-0.344,0.269-0.741,0.476-1.192,0.621c-0.453,0.146-0.933,0.217-1.438,0.217c-0.721,0-1.413-0.129-2.08-0.391
			c-0.666-0.261-1.197-0.629-1.597-1.104l0.733-0.574c0.322,0.321,0.735,0.59,1.242,0.805c0.504,0.215,1.049,0.321,1.631,0.321
			c0.795,0,1.471-0.19,2.021-0.575c0.552-0.382,0.826-0.888,0.826-1.516c0-0.291-0.067-0.57-0.205-0.839
			c-0.141-0.269-0.334-0.519-0.588-0.747c-0.252-0.229-0.551-0.426-0.896-0.586s-0.724-0.271-1.137-0.333
			c-0.537-0.076-1.026-0.224-1.472-0.438c-0.443-0.214-0.826-0.471-1.147-0.77s-0.575-0.633-0.759-0.999
			c-0.184-0.368-0.275-0.751-0.275-1.149c0-0.428,0.104-0.822,0.311-1.183c0.207-0.361,0.486-0.666,0.84-0.919
			c0.354-0.254,0.759-0.448,1.218-0.586c0.46-0.139,0.949-0.207,1.472-0.207c0.721,0,1.396,0.135,2.032,0.402
			c0.638,0.267,1.152,0.606,1.552,1.021L113.568,116.882z"/>
	</g>
	<g>
		<g>
			<g>
				<path fill="#151530" d="M85.934,60.53v1.442h12.981v2.164c0,1.191-0.972,2.162-2.163,2.162H59.249
					c-1.193,0-2.164-0.971-2.164-2.162v-2.164h12.982V60.53H55.643v3.606c0,1.988,1.618,3.605,3.606,3.605h37.503
					c1.986,0,3.605-1.617,3.605-3.605V60.53H85.934z"/>
				<path fill="#151530" d="M73.673,64.857h8.654c1.192,0,2.164-0.971,2.164-2.164V60.53H71.509v2.164
					C71.509,63.886,72.48,64.857,73.673,64.857z M72.952,61.972h10.097v0.721c0,0.398-0.324,0.721-0.722,0.721h-8.654
					c-0.397,0-0.721-0.323-0.721-0.721V61.972z"/>
				<path fill="#151530" d="M58.527,36.009c0-1.193,0.971-2.164,2.164-2.164h5.049v-1.442h-5.049c-1.989,0-3.606,1.618-3.606,3.606
					v23.079h1.442V36.009z"/>
				<path fill="#151530" d="M97.473,36.009v23.079h1.442V36.009c0-1.988-1.617-3.606-3.606-3.606h-5.047v1.442h5.047
					C96.502,33.845,97.473,34.816,97.473,36.009z"/>
				<path fill="#151530" d="M59.97,36.73v22.357h1.442V36.73h5.77v-1.443h-5.77C60.617,35.287,59.97,35.935,59.97,36.73z"/>
				<path fill="#151530" d="M96.029,59.087V36.73c0-0.795-0.646-1.443-1.441-1.443h-5.77v1.443h5.77v22.357H96.029z"/>
				<rect x="80.163" y="44.663" fill="#151530" width="1.442" height="10.097"/>
				<rect x="74.394" y="44.663" fill="#151530" width="1.442" height="10.097"/>
				<path fill="#151530" d="M88.818,50.433v-1.442h-2.885c-0.398,0-0.723-0.323-0.723-0.721v-4.328H83.77v4.328
					c0,1.193,0.972,2.163,2.164,2.163H88.818z"/>
				<path fill="#151530" d="M72.23,48.27v-4.328h-1.442v4.328c0,0.398-0.323,0.721-0.721,0.721h-2.885v1.442h2.885
					C71.26,50.433,72.23,49.462,72.23,48.27z"/>
				<rect x="80.163" y="56.203" fill="#151530" width="1.442" height="1.442"/>
				<rect x="74.394" y="56.203" fill="#151530" width="1.442" height="1.442"/>
				<rect x="90.262" y="48.991" fill="#151530" width="1.441" height="1.442"/>
				<rect x="64.297" y="48.991" fill="#151530" width="1.443" height="1.442"/>
				<path fill="#151530" d="M68.707,35.339c-0.055,0.22-0.083,0.444-0.083,0.669c0,1.048,0.573,1.999,1.462,2.505
					c-0.011,0.125-0.019,0.251-0.019,0.38c0,2.386,1.94,4.327,4.327,4.327c1.504,0,2.831-0.772,3.606-1.94
					c0.775,1.168,2.102,1.94,3.605,1.94c2.387,0,4.328-1.941,4.328-4.327c0-0.128-0.009-0.254-0.021-0.38
					c0.89-0.506,1.462-1.457,1.462-2.505c0-0.225-0.027-0.449-0.083-0.669c0.942-0.667,1.524-1.761,1.524-2.937
					c0-1.166-0.572-2.255-1.51-2.928c0.041-0.22,0.067-0.446,0.067-0.678c0-1.838-1.388-3.342-3.168-3.562
					c-0.547-1.296-1.83-2.208-3.322-2.208c-1.185,0-2.228,0.582-2.886,1.465c-0.658-0.883-1.701-1.465-2.885-1.465
					c-1.493,0-2.776,0.913-3.323,2.208c-1.78,0.219-3.168,1.723-3.168,3.562c0,0.232,0.027,0.458,0.069,0.678
					c-0.938,0.673-1.511,1.763-1.511,2.928C67.182,33.579,67.764,34.672,68.707,35.339z M78.723,26.633
					c0-1.193,0.971-2.164,2.164-2.164c1.191,0,2.162,0.971,2.162,2.164c0,1.193-0.971,2.164-2.162,2.164v1.442
					c1.942,0,3.521-1.55,3.592-3.477c0.844,0.295,1.455,1.09,1.455,2.035c0,1.193-0.971,2.163-2.164,2.163v1.443
					c1.223,0,2.299-0.614,2.951-1.545c0.411,0.402,0.655,0.957,0.655,1.545c0,0.841-0.498,1.611-1.269,1.963l-0.689,0.314
					l0.348,0.673c0.111,0.216,0.168,0.437,0.168,0.656c0,0.39-0.17,0.743-0.435,1.008c-0.7-1.447-2.179-2.45-3.894-2.45v1.442
					c1.592,0,2.886,1.294,2.886,2.885s-1.294,2.885-2.886,2.885s-2.885-1.294-2.885-2.885V26.633H78.723z M69.279,30.858
					c0.652,0.931,1.73,1.545,2.951,1.545V30.96c-1.193,0-2.163-0.97-2.163-2.163c0-0.944,0.611-1.74,1.455-2.035
					c0.07,1.927,1.648,3.477,3.593,3.477v-1.442c-1.193,0-2.164-0.971-2.164-2.164c0-1.193,0.971-2.164,2.164-2.164
					c1.194,0,2.165,0.971,2.165,2.164v12.261c0,1.591-1.295,2.885-2.885,2.885c-1.591,0-2.885-1.294-2.885-2.885
					s1.293-2.885,2.885-2.885v-1.442c-1.714,0-3.193,1.003-3.893,2.45c-0.264-0.265-0.434-0.618-0.434-1.008
					c0-0.22,0.056-0.44,0.168-0.656l0.347-0.673l-0.689-0.315c-0.771-0.352-1.269-1.122-1.269-1.962
					C68.624,31.815,68.868,31.26,69.279,30.858z"/>
				<rect x="58.527" y="63.415" fill="#151530" width="1.442" height="1.442"/>
				<rect x="61.412" y="63.415" fill="#151530" width="1.442" height="1.442"/>
				<rect x="64.297" y="63.415" fill="#151530" width="1.443" height="1.442"/>
			</g>
		</g>
	</g>
</g>
</svg>
