<?xml version="1.0" encoding="utf-8"?>
<!-- Generator: Adobe Illustrator 16.0.0, SVG Export Plug-In . SVG Version: 6.00 Build 0)  -->
<!DOCTYPE svg PUBLIC "-//W3C//DTD SVG 1.1//EN" "http://www.w3.org/Graphics/SVG/1.1/DTD/svg11.dtd">
<svg version="1.1" id="Layer_1" xmlns="http://www.w3.org/2000/svg" xmlns:xlink="http://www.w3.org/1999/xlink" x="0px" y="0px"
	 width="150px" height="127.667px" viewBox="0 0 150 127.667" enable-background="new 0 0 150 127.667" xml:space="preserve">
<g>
	<path fill="#FFFFFF" d="M130.424,54.335c0,29.458-23.875,53.335-53.334,53.335S23.755,83.793,23.755,54.335
		C23.755,24.877,47.631,1,77.09,1S130.424,24.877,130.424,54.335z"/>
	<g>
		<g>
			<g>
				<g>
					<path fill="#151530" d="M97.611,42.882c-0.236-1.889-1.025-3.392-1.356-3.954c0.24-3.929-0.539-6.884-2.313-8.792
						c-1.386-1.487-3.002-1.909-3.823-2.028c-1.252-2.647-3.382-3.16-4.678-3.035c-2.423-2.257-4.665-2.309-6.141-1.94
						c-0.975,0.241-1.737,0.698-2.211,1.043c-0.472-0.345-1.236-0.802-2.209-1.043c-1.479-0.371-3.72-0.316-6.143,1.94
						c-1.296-0.125-3.425,0.388-4.677,3.035c-0.82,0.119-2.438,0.541-3.823,2.028c-1.777,1.908-2.554,4.863-2.314,8.792
						c-0.331,0.562-1.12,2.065-1.355,3.954c-0.268,2.137,0.14,5.153,3.483,7.6c-0.387,2.287-0.021,6.226,3.633,8.163
						c-0.151,0.831-0.252,2.276,0.49,3.509c0.585,0.969,1.549,1.609,2.872,1.901c0.667,1.028,2.969,4.222,5.841,4.222
						c0.018,0,0.035,0,0.055-0.002c1.539-0.021,2.93-0.932,4.146-2.709c1.217,1.777,2.607,2.688,4.146,2.709
						c2.895,0.043,5.225-3.184,5.896-4.22c1.322-0.292,2.287-0.932,2.871-1.901c0.743-1.233,0.643-2.679,0.492-3.509
						c3.653-1.937,4.021-5.875,3.634-8.163C97.471,48.035,97.879,45.019,97.611,42.882z M92.817,49.482
						c-0.277,0.182-0.406,0.521-0.326,0.843c0.053,0.214,1.254,5.247-3.217,7.164c-0.377,0.161-0.566,0.582-0.438,0.97
						c0.006,0.017,0.535,1.699-0.18,2.884c-0.388,0.645-1.108,1.058-2.142,1.231c-0.229,0.038-0.429,0.176-0.548,0.378
						c-0.614,1.048-2.645,3.751-4.678,3.751c-0.011,0-0.024,0-0.035,0c-1.221-0.017-2.388-1.026-3.461-2.996
						c-0.138-0.253-0.433-0.411-0.72-0.411c-0.289,0-0.553,0.157-0.689,0.411c-1.076,1.97-2.24,2.979-3.464,2.996
						c-2.034,0.034-4.093-2.697-4.712-3.751c-0.117-0.202-0.318-0.34-0.549-0.378c-1.029-0.171-1.748-0.583-2.136-1.225
						c-0.724-1.194-0.188-2.876-0.182-2.891c0.127-0.389-0.06-0.81-0.437-0.972c-4.448-1.905-3.27-6.949-3.217-7.162
						c0.081-0.322-0.05-0.661-0.326-0.844c-5.86-3.905-2.145-9.678-1.985-9.921c0.098-0.144,0.142-0.319,0.131-0.491
						c-0.257-3.58,0.368-6.219,1.857-7.839c1.43-1.556,3.164-1.596,3.231-1.596c0.32,0,0.609-0.198,0.729-0.494
						c0.878-2.199,2.292-2.512,3.024-2.512c0.237,0,0.404,0.032,0.459,0.043c0.268,0.068,0.551-0.009,0.746-0.205
						c1.599-1.598,3.242-2.211,4.883-1.827c1.256,0.296,2.075,1.088,2.08,1.093c0.148,0.149,0.347,0.231,0.556,0.231h0.029
						c0.208,0,0.41-0.082,0.556-0.231c0.009-0.006,0.798-0.772,2.021-1.078c1.662-0.416,3.325,0.193,4.944,1.813
						c0.191,0.192,0.471,0.269,0.739,0.208c0.23-0.053,2.328-0.441,3.49,2.465c0.117,0.294,0.407,0.489,0.724,0.494
						c0.072,0,1.806,0.04,3.238,1.596c1.485,1.622,2.111,4.259,1.856,7.839c-0.012,0.172,0.032,0.347,0.13,0.491
						c0.01,0.015,1,1.521,1.251,3.515C96.377,45.679,95.29,47.834,92.817,49.482z"/>
				</g>
			</g>
			<g>
				<g>
					<path fill="#151530" d="M90.298,28.599c-0.137-0.412-0.583-0.633-0.993-0.497c-4.884,1.629-4.942,5.712-4.942,5.883
						c0,0.433,0.351,0.781,0.78,0.783c0.001,0,0.005,0,0.006,0c0.43,0,0.779-0.347,0.786-0.775c0.001-0.13,0.086-3.14,3.867-4.399
						C90.214,29.456,90.437,29.01,90.298,28.599z"/>
				</g>
			</g>
			<g>
				<g>
					<path fill="#151530" d="M93.849,49.659c-0.263-0.345-0.756-0.412-1.102-0.147c-1.28,0.975-2.439,1.32-3.439,1.033
						c-1.78-0.513-2.681-2.862-2.688-2.887c-0.151-0.405-0.602-0.613-1.008-0.462c-0.407,0.15-0.616,0.602-0.468,1.01
						c0.049,0.126,1.175,3.104,3.722,3.846c0.379,0.11,0.765,0.165,1.157,0.165c1.172,0,2.404-0.486,3.677-1.457
						C94.044,50.497,94.11,50.003,93.849,49.659z"/>
				</g>
			</g>
			<g>
				<g>
					<path fill="#151530" d="M80.565,50.314c-0.306-0.308-0.805-0.308-1.11,0c-0.306,0.306-0.306,0.805,0,1.11
						c2.552,2.551,2.021,5.015,1.994,5.132c-0.102,0.42,0.154,0.843,0.574,0.947c0.063,0.016,0.125,0.023,0.19,0.023
						c0.353,0,0.673-0.237,0.761-0.595C83.011,56.795,83.78,53.527,80.565,50.314z"/>
				</g>
			</g>
			<g>
				<g>
					<path fill="#151530" d="M92.752,42.954c-0.146-0.409-0.596-0.619-1.004-0.474c-0.158,0.058-3.906,1.37-5.894-1.28
						c-1.034-1.375-1.477-2.553-1.834-3.499c-0.438-1.161-0.852-2.258-2.226-2.372c-0.429-0.034-0.812,0.288-0.846,0.719
						c-0.037,0.431,0.284,0.812,0.718,0.849c0.328,0.025,0.453,0.215,0.883,1.357c0.371,0.985,0.879,2.335,2.048,3.888
						c1.368,1.822,3.279,2.28,4.854,2.28c1.524,0,2.733-0.429,2.834-0.465C92.692,43.809,92.901,43.358,92.752,42.954z"/>
				</g>
			</g>
			<g>
				<g>
					<path fill="#151530" d="M77.075,24.393c-0.435,0-0.786,0.351-0.786,0.786v38.903c0,0.434,0.352,0.784,0.786,0.784
						c0.433,0,0.784-0.349,0.784-0.784V25.179C77.859,24.744,77.508,24.393,77.075,24.393z"/>
				</g>
			</g>
			<g>
				<g>
					<path fill="#151530" d="M82.816,31.159c-0.003-0.432-0.349-0.785-0.796-0.773c-0.434,0.006-0.78,0.363-0.773,0.796
						c0,0.048,0.043,4.948-2.406,8.052c-0.268,0.34-0.211,0.835,0.131,1.105c0.144,0.114,0.314,0.169,0.487,0.169
						c0.229,0,0.461-0.104,0.615-0.301C82.866,36.669,82.819,31.384,82.816,31.159z"/>
				</g>
			</g>
			<g>
				<g>
					<path fill="#151530" d="M84.415,55.222c-3.464,0-5.082,4.74-5.149,4.942c-0.139,0.411,0.086,0.854,0.495,0.992
						c0.084,0.027,0.167,0.04,0.249,0.04c0.329,0,0.637-0.207,0.744-0.535c0.362-1.077,1.726-3.869,3.661-3.869
						c0.434,0,0.784-0.351,0.784-0.784C85.199,55.572,84.847,55.222,84.415,55.222z"/>
				</g>
			</g>
			<g>
				<g>
					<path fill="#151530" d="M85.3,24.951c-0.349-0.259-0.84-0.187-1.1,0.162l-1.884,2.532c-0.258,0.347-0.188,0.839,0.161,1.098
						c0.142,0.105,0.305,0.156,0.468,0.156c0.241,0,0.476-0.11,0.632-0.317l1.884-2.531C85.72,25.703,85.647,25.21,85.3,24.951z"/>
				</g>
			</g>
			<g>
				<g>
					<path fill="#151530" d="M69.218,30.028c-1.732,0-3.142,1.411-3.142,3.143c0,1.731,1.41,3.142,3.142,3.142
						c1.731,0,3.143-1.41,3.143-3.142C72.36,31.438,70.949,30.028,69.218,30.028z M69.218,34.742c-0.866,0-1.571-0.705-1.571-1.571
						c0-0.867,0.706-1.572,1.571-1.572c0.866,0,1.572,0.705,1.572,1.572C70.79,34.037,70.084,34.742,69.218,34.742z"/>
				</g>
			</g>
			<g>
				<g>
					<path fill="#151530" d="M63.719,40.24c-1.732,0-3.142,1.41-3.142,3.143c0,1.731,1.409,3.141,3.142,3.141
						c1.733,0,3.142-1.409,3.142-3.141C66.861,41.65,65.452,40.24,63.719,40.24z M63.719,44.954c-0.865,0-1.57-0.704-1.57-1.57
						c0-0.868,0.705-1.571,1.57-1.571c0.868,0,1.572,0.704,1.572,1.571C65.291,44.25,64.586,44.954,63.719,44.954z"/>
				</g>
			</g>
			<g>
				<g>
					<path fill="#151530" d="M71.576,47.309c-1.733,0-3.143,1.411-3.143,3.143c0,1.733,1.41,3.142,3.143,3.142
						c1.731,0,3.14-1.409,3.14-3.142C74.716,48.72,73.307,47.309,71.576,47.309z M71.576,52.022c-0.867,0-1.572-0.703-1.572-1.57
						c0-0.866,0.706-1.571,1.572-1.571c0.865,0,1.57,0.705,1.57,1.571C73.146,51.319,72.441,52.022,71.576,52.022z"/>
				</g>
			</g>
			<g>
				<g>
					<path fill="#151530" d="M71.576,55.951c-1.733,0-3.143,1.408-3.143,3.143c0,1.732,1.41,3.142,3.143,3.142
						c1.731,0,3.14-1.409,3.14-3.142C74.716,57.359,73.307,55.951,71.576,55.951z M71.576,60.664c-0.867,0-1.572-0.706-1.572-1.571
						c0-0.867,0.706-1.571,1.572-1.571c0.865,0,1.57,0.704,1.57,1.571C73.146,59.958,72.441,60.664,71.576,60.664z"/>
				</g>
			</g>
			<g>
				<g>
					<path fill="#151530" d="M69.218,34.742c-0.433,0-0.785,0.351-0.785,0.785v7.856c0,0.434,0.352,0.785,0.785,0.785
						c0.434,0,0.786-0.351,0.786-0.785v-7.856C70.003,35.092,69.651,34.742,69.218,34.742z"/>
				</g>
			</g>
			<g>
				<g>
					<path fill="#151530" d="M71.576,42.596h-5.5c-0.433,0-0.785,0.353-0.785,0.788c0,0.434,0.353,0.785,0.785,0.785h5.498
						c0.434,0,0.787-0.351,0.787-0.785C72.36,42.949,72.008,42.596,71.576,42.596z"/>
				</g>
			</g>
			<g>
				<g>
					<path fill="#151530" d="M71.576,42.596c-0.434,0-0.786,0.353-0.786,0.788v4.71c0,0.435,0.352,0.787,0.786,0.787
						s0.785-0.353,0.785-0.787v-4.71C72.36,42.949,72.008,42.596,71.576,42.596z"/>
				</g>
			</g>
			<g>
				<g>
					<path fill="#151530" d="M71.576,52.022c-0.434,0-0.786,0.353-0.786,0.788v3.928c0,0.433,0.352,0.785,0.786,0.785
						s0.785-0.353,0.785-0.785V52.81C72.36,52.375,72.008,52.022,71.576,52.022z"/>
				</g>
			</g>
		</g>
	</g>
	<g>
		<path fill="#515DA9" d="M13.629,83.04h0.965h4.894c0.766,0.016,1.486,0.23,2.16,0.644c0.674,0.414,1.26,0.977,1.758,1.688
			c0.498,0.712,0.892,1.547,1.183,2.504c0.291,0.958,0.437,1.98,0.437,3.067c0,1.088-0.142,2.11-0.425,3.067
			c-0.284,0.957-0.674,1.792-1.172,2.504c-0.498,0.713-1.08,1.279-1.746,1.7c-0.666,0.422-1.382,0.641-2.148,0.655l0.023,0.046
			h-5.905L13.629,83.04z M14.594,84.006v13.945h4.94v-0.046c0.627-0.016,1.217-0.211,1.769-0.586
			c0.551-0.375,1.03-0.877,1.436-1.505c0.405-0.628,0.727-1.359,0.965-2.194c0.237-0.835,0.356-1.727,0.356-2.677
			c0-0.934-0.119-1.822-0.356-2.665c-0.238-0.842-0.563-1.577-0.977-2.205c-0.414-0.629-0.896-1.126-1.447-1.493
			c-0.552-0.368-1.149-0.56-1.792-0.574H14.594z"/>
		<path fill="#515DA9" d="M31.48,98.181c0.245,0,0.501-0.026,0.77-0.08c0.268-0.054,0.536-0.123,0.804-0.207
			c0.268-0.084,0.524-0.176,0.77-0.275s0.459-0.195,0.644-0.287l0.39,0.85c-0.398,0.215-0.827,0.398-1.286,0.552
			c-0.46,0.153-0.95,0.275-1.471,0.367h-0.023c-0.092,0.016-0.188,0.023-0.287,0.023s-0.203,0-0.31,0
			c-0.644,0-1.245-0.142-1.804-0.426c-0.559-0.283-1.057-0.673-1.493-1.171s-0.789-1.08-1.057-1.746
			c-0.268-0.667-0.425-1.383-0.471-2.148v-0.437c0-0.812,0.122-1.577,0.367-2.298c0.245-0.72,0.575-1.348,0.988-1.884
			s0.896-0.961,1.447-1.275c0.551-0.313,1.141-0.471,1.769-0.471c0.644,0,1.241,0.149,1.792,0.448
			c0.552,0.299,1.03,0.708,1.436,1.229c0.406,0.521,0.724,1.134,0.954,1.839c0.229,0.704,0.345,1.47,0.345,2.297v0.552h-8.11
			c0.03,0.644,0.153,1.24,0.368,1.792c0.214,0.552,0.494,1.03,0.838,1.436c0.345,0.406,0.743,0.729,1.195,0.965
			C30.496,98.063,30.975,98.181,31.48,98.181z M34.834,92.689c-0.046-0.612-0.172-1.19-0.379-1.734
			c-0.207-0.543-0.471-1.015-0.792-1.413c-0.322-0.397-0.689-0.712-1.103-0.941c-0.414-0.23-0.858-0.345-1.333-0.345
			c-0.459,0-0.896,0.114-1.31,0.345c-0.414,0.229-0.781,0.544-1.103,0.941c-0.322,0.398-0.586,0.87-0.793,1.413
			c-0.207,0.544-0.333,1.122-0.379,1.734H34.834z"/>
		<path fill="#515DA9" d="M41.957,98.181c0.245,0,0.501-0.026,0.77-0.08c0.268-0.054,0.536-0.123,0.804-0.207
			c0.268-0.084,0.524-0.176,0.77-0.275s0.459-0.195,0.644-0.287l0.39,0.85c-0.398,0.215-0.827,0.398-1.286,0.552
			c-0.46,0.153-0.95,0.275-1.471,0.367h-0.023c-0.092,0.016-0.188,0.023-0.287,0.023s-0.203,0-0.31,0
			c-0.644,0-1.245-0.142-1.804-0.426c-0.559-0.283-1.057-0.673-1.493-1.171s-0.789-1.08-1.057-1.746
			c-0.268-0.667-0.425-1.383-0.471-2.148v-0.437c0-0.812,0.122-1.577,0.367-2.298c0.245-0.72,0.575-1.348,0.988-1.884
			s0.896-0.961,1.447-1.275c0.551-0.313,1.141-0.471,1.769-0.471c0.644,0,1.241,0.149,1.792,0.448
			c0.552,0.299,1.03,0.708,1.436,1.229c0.406,0.521,0.724,1.134,0.954,1.839c0.229,0.704,0.345,1.47,0.345,2.297v0.552h-8.11
			c0.03,0.644,0.153,1.24,0.368,1.792c0.214,0.552,0.494,1.03,0.838,1.436c0.345,0.406,0.743,0.729,1.195,0.965
			C40.973,98.063,41.452,98.181,41.957,98.181z M45.311,92.689c-0.046-0.612-0.172-1.19-0.379-1.734
			c-0.207-0.543-0.471-1.015-0.792-1.413c-0.322-0.397-0.689-0.712-1.103-0.941c-0.414-0.23-0.858-0.345-1.333-0.345
			c-0.459,0-0.896,0.114-1.31,0.345c-0.414,0.229-0.781,0.544-1.103,0.941c-0.322,0.398-0.586,0.87-0.793,1.413
			c-0.207,0.544-0.333,1.122-0.379,1.734H45.311z"/>
		<path fill="#515DA9" d="M48.803,88.141c0.398-0.26,0.896-0.479,1.494-0.654c0.597-0.177,1.248-0.265,1.953-0.265
			c0.766,0.016,1.486,0.181,2.16,0.494s1.26,0.735,1.758,1.264c0.498,0.528,0.892,1.148,1.183,1.86
			c0.291,0.713,0.437,1.475,0.437,2.286c0,0.827-0.146,1.604-0.437,2.332s-0.686,1.359-1.183,1.896
			c-0.498,0.536-1.084,0.962-1.758,1.275S53.015,99.1,52.25,99.1c-0.674,0-1.313-0.084-1.918-0.253
			c-0.605-0.168-1.106-0.382-1.505-0.643v5.192h-0.942V89.542c0-0.352-0.015-0.674-0.046-0.965c-0.031-0.26-0.062-0.501-0.092-0.724
			c-0.031-0.222-0.062-0.356-0.092-0.402h1.148V88.141z M48.803,96.917c0.046,0.169,0.168,0.326,0.368,0.471
			c0.199,0.146,0.452,0.272,0.758,0.38c0.306,0.107,0.658,0.195,1.057,0.264c0.398,0.069,0.819,0.111,1.264,0.127
			c0.628-0.016,1.221-0.157,1.781-0.426c0.559-0.268,1.045-0.628,1.459-1.079c0.414-0.452,0.739-0.98,0.977-1.586
			c0.237-0.604,0.356-1.252,0.356-1.941c0-0.674-0.119-1.31-0.356-1.906c-0.238-0.598-0.563-1.118-0.977-1.563
			s-0.9-0.797-1.459-1.057c-0.56-0.261-1.153-0.391-1.781-0.391c-0.475,0-0.923,0.034-1.344,0.104
			c-0.421,0.068-0.785,0.164-1.091,0.287c-0.307,0.122-0.552,0.264-0.735,0.425s-0.276,0.333-0.276,0.517V96.917z"/>
		<path fill="#515DA9" d="M66.448,97.951h7.742l0.023,0.965h-8.708L65.483,83.04h0.965V97.951z"/>
		<path fill="#515DA9" d="M80.371,98.181c0.244,0,0.5-0.026,0.77-0.08c0.268-0.054,0.535-0.123,0.803-0.207
			c0.27-0.084,0.525-0.176,0.771-0.275c0.244-0.1,0.459-0.195,0.643-0.287l0.391,0.85c-0.398,0.215-0.828,0.398-1.287,0.552
			s-0.949,0.275-1.471,0.367h-0.021c-0.094,0.016-0.189,0.023-0.289,0.023s-0.203,0-0.309,0c-0.645,0-1.246-0.142-1.805-0.426
			c-0.559-0.283-1.057-0.673-1.492-1.171c-0.438-0.498-0.789-1.08-1.058-1.746c-0.268-0.667-0.425-1.383-0.471-2.148v-0.437
			c0-0.812,0.122-1.577,0.367-2.298c0.245-0.72,0.575-1.348,0.987-1.884c0.414-0.536,0.896-0.961,1.449-1.275
			c0.551-0.313,1.141-0.471,1.768-0.471c0.645,0,1.24,0.149,1.793,0.448c0.551,0.299,1.029,0.708,1.436,1.229
			c0.406,0.521,0.725,1.134,0.953,1.839c0.23,0.704,0.346,1.47,0.346,2.297v0.552h-8.111c0.031,0.644,0.153,1.24,0.367,1.792
			c0.215,0.552,0.494,1.03,0.84,1.436c0.344,0.406,0.742,0.729,1.193,0.965C79.387,98.063,79.865,98.181,80.371,98.181z
			 M83.725,92.689c-0.045-0.612-0.172-1.19-0.379-1.734c-0.207-0.543-0.471-1.015-0.793-1.413c-0.322-0.397-0.689-0.712-1.102-0.941
			c-0.414-0.23-0.859-0.345-1.334-0.345c-0.459,0-0.895,0.114-1.309,0.345c-0.414,0.229-0.781,0.544-1.104,0.941
			c-0.322,0.398-0.586,0.87-0.793,1.413c-0.206,0.544-0.332,1.122-0.379,1.734H83.725z"/>
		<path fill="#515DA9" d="M92.755,97.997c-0.353,0.353-0.767,0.632-1.241,0.839c-0.475,0.206-0.988,0.31-1.539,0.31
			c-0.506,0-0.984-0.092-1.437-0.275c-0.451-0.184-0.842-0.433-1.171-0.747c-0.33-0.313-0.594-0.681-0.793-1.103
			c-0.199-0.421-0.299-0.869-0.299-1.344c0-0.506,0.104-0.973,0.311-1.401c0.206-0.429,0.485-0.801,0.838-1.114
			c0.353-0.314,0.762-0.556,1.229-0.724c0.467-0.169,0.961-0.253,1.482-0.253h2.619v-0.506c0-0.459-0.058-0.896-0.173-1.31
			c-0.115-0.413-0.279-0.773-0.494-1.08c-0.215-0.306-0.471-0.551-0.77-0.734c-0.299-0.185-0.632-0.284-0.999-0.299h-0.023
			c-0.996,0-1.884,0.114-2.665,0.345l-0.229-0.919c0.903-0.261,1.868-0.391,2.895-0.391h0.023c0.443,0.015,0.865,0.126,1.264,0.333
			c0.397,0.206,0.75,0.486,1.057,0.838c0.306,0.353,0.555,0.767,0.747,1.241c0.19,0.475,0.302,0.98,0.333,1.517v0.229
			c-0.016,0.383-0.023,0.789-0.023,1.218c-0.016,0.367-0.022,0.785-0.022,1.252c0,0.468,0,0.938,0,1.413
			c0,0.444,0.003,0.873,0.011,1.286c0.008,0.414,0.02,0.789,0.035,1.126c0.015,0.337,0.034,0.609,0.057,0.815
			c0.023,0.207,0.05,0.326,0.081,0.356h-1.08L92.755,97.997z M92.755,93.126h-2.619c-0.399,0-0.771,0.062-1.115,0.185
			c-0.344,0.122-0.646,0.295-0.907,0.517s-0.467,0.49-0.62,0.804c-0.153,0.314-0.229,0.663-0.229,1.046
			c0,0.353,0.068,0.678,0.206,0.977c0.139,0.298,0.33,0.559,0.575,0.781c0.244,0.222,0.531,0.398,0.861,0.528
			c0.329,0.13,0.686,0.195,1.068,0.195s0.742-0.065,1.08-0.195c0.336-0.13,0.632-0.307,0.884-0.528
			c0.253-0.223,0.452-0.483,0.598-0.781c0.146-0.299,0.219-0.624,0.219-0.977V93.126z"/>
		<path fill="#515DA9" d="M100.175,88.302c-0.077-0.031-0.149-0.046-0.219-0.046c-0.068,0-0.142,0-0.218,0
			c-0.383,0-0.747,0.072-1.092,0.218s-0.654,0.349-0.93,0.609c-0.276,0.261-0.502,0.566-0.679,0.919
			c-0.176,0.353-0.295,0.735-0.355,1.148l0.022,7.766H95.74l-0.022-10.385c0-0.261-0.012-0.506-0.035-0.735
			c-0.022-0.229-0.05-0.359-0.08-0.391h1.08v1.7c0.367-0.582,0.823-1.029,1.367-1.344c0.543-0.313,1.145-0.471,1.803-0.471
			c0.077,0,0.165,0.004,0.265,0.011c0.1,0.008,0.195,0.027,0.287,0.058L100.175,88.302z"/>
		<path fill="#515DA9" d="M102.955,88.439v0.62c0.367-0.582,0.827-1.03,1.378-1.344c0.552-0.313,1.156-0.471,1.815-0.471
			c0.536,0,1.037,0.11,1.505,0.333c0.467,0.222,0.873,0.521,1.218,0.896c0.345,0.376,0.62,0.819,0.827,1.333
			c0.206,0.513,0.317,1.061,0.333,1.643l0.068,7.467h-0.965l-0.022-7.467c-0.016-0.46-0.107-0.885-0.276-1.275
			c-0.168-0.391-0.391-0.731-0.666-1.022s-0.598-0.521-0.965-0.689c-0.367-0.168-0.758-0.252-1.172-0.252
			c-0.383,0-0.746,0.072-1.091,0.218s-0.655,0.349-0.931,0.609c-0.275,0.26-0.506,0.566-0.689,0.919s-0.307,0.735-0.367,1.148
			l0.022,7.812h-0.965l-0.022-10.431c0-0.261-0.012-0.479-0.035-0.655c-0.022-0.176-0.05-0.279-0.08-0.31h1.08V88.439z"/>
		<path fill="#515DA9" d="M112.352,83.982c0-0.168,0.065-0.313,0.195-0.437c0.13-0.122,0.287-0.184,0.471-0.184
			c0.169,0,0.322,0.062,0.46,0.184c0.138,0.123,0.207,0.269,0.207,0.437c0,0.169-0.069,0.314-0.207,0.437
			c-0.138,0.123-0.291,0.184-0.46,0.184c-0.184,0-0.341-0.061-0.471-0.184C112.417,84.297,112.352,84.151,112.352,83.982z
			 M112.535,87.429h0.942l0.022,11.487h-0.941L112.535,87.429z"/>
		<path fill="#515DA9" d="M116.97,88.439v0.62c0.367-0.582,0.827-1.03,1.378-1.344c0.552-0.313,1.156-0.471,1.815-0.471
			c0.536,0,1.037,0.11,1.505,0.333c0.467,0.222,0.873,0.521,1.218,0.896c0.345,0.376,0.62,0.819,0.827,1.333
			c0.206,0.513,0.317,1.061,0.333,1.643l0.068,7.467h-0.965l-0.022-7.467c-0.016-0.46-0.107-0.885-0.276-1.275
			c-0.168-0.391-0.391-0.731-0.666-1.022s-0.598-0.521-0.965-0.689c-0.367-0.168-0.758-0.252-1.172-0.252
			c-0.383,0-0.746,0.072-1.091,0.218s-0.655,0.349-0.931,0.609c-0.275,0.26-0.506,0.566-0.689,0.919s-0.307,0.735-0.367,1.148
			l0.022,7.812h-0.965l-0.022-10.431c0-0.261-0.012-0.479-0.035-0.655c-0.022-0.176-0.05-0.279-0.08-0.31h1.08V88.439z"/>
		<path fill="#515DA9" d="M129.904,96.251c0.076-0.03,0.164-0.046,0.265-0.046c0.099,0,0.188,0,0.264,0
			c0.644,0,1.244,0.096,1.804,0.287c0.559,0.191,1.049,0.448,1.471,0.77c0.421,0.321,0.75,0.705,0.987,1.148
			c0.237,0.445,0.356,0.919,0.356,1.425s-0.119,0.98-0.356,1.425c-0.237,0.443-0.566,0.83-0.987,1.16
			c-0.422,0.329-0.912,0.593-1.471,0.792c-0.56,0.199-1.16,0.299-1.804,0.299c-0.628,0-1.222-0.1-1.78-0.299
			c-0.56-0.199-1.046-0.463-1.459-0.792c-0.414-0.33-0.743-0.717-0.988-1.16c-0.245-0.444-0.367-0.919-0.367-1.425
			c0-0.689,0.218-1.313,0.654-1.872c0.437-0.56,1.015-0.992,1.735-1.299c-0.169-0.29-0.253-0.65-0.253-1.079
			c0-0.261,0.046-0.502,0.138-0.724c0.092-0.223,0.207-0.395,0.345-0.518c-0.536-0.383-0.953-0.838-1.252-1.367
			c-0.299-0.528-0.448-1.099-0.448-1.711c0-0.552,0.118-1.068,0.356-1.551c0.237-0.482,0.563-0.904,0.977-1.264
			c0.413-0.36,0.896-0.644,1.447-0.851c0.551-0.207,1.148-0.31,1.792-0.31c0.337,0,0.643,0.022,0.919,0.068
			c0.275,0.046,0.543,0.107,0.804,0.184h3.975l-0.941,0.965h-1.447c0.397,0.353,0.708,0.759,0.93,1.218
			c0.223,0.46,0.334,0.974,0.334,1.54c0,0.551-0.119,1.064-0.356,1.539s-0.563,0.889-0.977,1.24c-0.413,0.353-0.9,0.632-1.459,0.839
			c-0.56,0.207-1.152,0.311-1.78,0.311c-0.383,0-0.724-0.046-1.022-0.138c-0.299-0.093-0.586-0.139-0.861-0.139
			c-0.169,0-0.338,0.043-0.506,0.127c-0.169,0.084-0.253,0.249-0.253,0.494c0,0.321,0.088,0.524,0.265,0.608
			c0.176,0.084,0.355,0.126,0.54,0.126c0.076,0,0.152-0.003,0.229-0.011C129.797,96.255,129.858,96.251,129.904,96.251z
			 M126.757,99.835c0,0.367,0.1,0.72,0.299,1.057c0.198,0.337,0.467,0.632,0.804,0.885s0.728,0.451,1.172,0.598
			c0.444,0.146,0.911,0.218,1.401,0.218c0.521,0,1.007-0.072,1.459-0.218c0.452-0.146,0.847-0.345,1.184-0.598
			s0.601-0.548,0.792-0.885s0.288-0.689,0.288-1.057s-0.097-0.716-0.288-1.045s-0.455-0.621-0.792-0.873
			c-0.337-0.253-0.731-0.456-1.184-0.609c-0.452-0.152-0.938-0.229-1.459-0.229c-0.49,0-0.957,0.077-1.401,0.229
			c-0.444,0.153-0.835,0.356-1.172,0.609c-0.337,0.252-0.605,0.544-0.804,0.873C126.856,99.119,126.757,99.468,126.757,99.835z
			 M127.699,91.266c0,0.413,0.095,0.804,0.287,1.172c0.191,0.367,0.451,0.686,0.781,0.953c0.329,0.268,0.712,0.482,1.148,0.644
			c0.437,0.16,0.907,0.241,1.413,0.241c0.521,0,1.003-0.081,1.447-0.241c0.444-0.161,0.831-0.376,1.16-0.644s0.59-0.586,0.781-0.953
			c0.191-0.368,0.287-0.759,0.287-1.172c0-0.429-0.096-0.831-0.287-1.206c-0.191-0.376-0.452-0.701-0.781-0.977
			c-0.329-0.276-0.716-0.49-1.16-0.644s-0.927-0.229-1.447-0.229c-0.506,0-0.977,0.076-1.413,0.229s-0.819,0.367-1.148,0.644
			c-0.33,0.275-0.59,0.601-0.781,0.977C127.794,90.435,127.699,90.837,127.699,91.266z"/>
		<path fill="#515DA9" d="M36.972,123.913c0.368,0.552,0.858,0.992,1.471,1.321c0.612,0.329,1.324,0.494,2.137,0.494
			c0.49,0,0.961-0.081,1.413-0.241c0.452-0.161,0.846-0.38,1.184-0.655c0.336-0.275,0.604-0.604,0.804-0.988
			c0.199-0.382,0.299-0.796,0.299-1.24s-0.088-0.861-0.264-1.252c-0.176-0.391-0.421-0.743-0.735-1.057
			c-0.314-0.314-0.682-0.571-1.103-0.771c-0.421-0.198-0.877-0.329-1.367-0.39H40.74c-0.659-0.062-1.268-0.219-1.827-0.472
			s-1.042-0.574-1.447-0.965c-0.406-0.391-0.724-0.839-0.954-1.344c-0.229-0.506-0.345-1.034-0.345-1.586
			c0-0.597,0.126-1.156,0.379-1.677c0.252-0.521,0.601-0.969,1.045-1.344c0.444-0.375,0.965-0.67,1.562-0.885
			c0.598-0.215,1.233-0.321,1.907-0.321c0.873,0,1.654,0.153,2.343,0.459c0.689,0.307,1.279,0.743,1.769,1.31l-0.781,0.62
			c-0.383-0.459-0.861-0.823-1.436-1.091c-0.575-0.268-1.207-0.402-1.896-0.402c-0.506,0-0.992,0.085-1.459,0.253
			c-0.467,0.169-0.881,0.398-1.241,0.689c-0.36,0.291-0.647,0.632-0.862,1.022s-0.321,0.815-0.321,1.274
			c0,0.444,0.092,0.87,0.275,1.275c0.184,0.406,0.44,0.767,0.77,1.08c0.329,0.313,0.72,0.574,1.171,0.781
			c0.452,0.206,0.938,0.333,1.459,0.379c0.644,0.092,1.237,0.264,1.781,0.517c0.543,0.253,1.014,0.571,1.413,0.954
			c0.398,0.383,0.708,0.819,0.93,1.31s0.333,1.003,0.333,1.539c0,0.582-0.126,1.13-0.379,1.643
			c-0.252,0.514-0.594,0.957-1.022,1.333c-0.429,0.375-0.935,0.67-1.516,0.884c-0.583,0.215-1.203,0.322-1.861,0.322
			c-0.934,0-1.78-0.199-2.539-0.598s-1.359-0.919-1.804-1.563L36.972,123.913z"/>
		<path fill="#515DA9" d="M46.805,120.812c0-0.827,0.142-1.601,0.425-2.32c0.283-0.72,0.67-1.348,1.16-1.884
			c0.49-0.536,1.064-0.961,1.723-1.275c0.658-0.313,1.355-0.471,2.091-0.471c0.735,0,1.424,0.157,2.067,0.471
			c0.644,0.314,1.207,0.739,1.689,1.275s0.865,1.164,1.148,1.884c0.284,0.72,0.425,1.493,0.425,2.32
			c0,0.812-0.142,1.574-0.425,2.286c-0.283,0.712-0.666,1.336-1.148,1.872s-1.045,0.962-1.689,1.275
			c-0.643,0.313-1.333,0.471-2.067,0.471c-0.735,0-1.433-0.157-2.091-0.471c-0.659-0.313-1.233-0.739-1.723-1.275
			c-0.49-0.536-0.877-1.16-1.16-1.872C46.946,122.386,46.805,121.623,46.805,120.812z M47.77,120.812
			c0,0.674,0.115,1.313,0.345,1.918c0.23,0.605,0.547,1.13,0.954,1.574c0.406,0.444,0.876,0.797,1.413,1.057
			c0.536,0.261,1.11,0.391,1.723,0.391c0.597,0,1.16-0.13,1.688-0.391c0.528-0.26,0.988-0.612,1.378-1.057s0.701-0.969,0.931-1.574
			c0.229-0.604,0.345-1.244,0.345-1.918c0-0.689-0.115-1.336-0.345-1.941c-0.23-0.604-0.54-1.134-0.931-1.585
			c-0.391-0.452-0.85-0.808-1.378-1.068s-1.091-0.391-1.688-0.391c-0.613,0-1.188,0.13-1.723,0.391
			c-0.537,0.261-1.007,0.616-1.413,1.068c-0.406,0.451-0.724,0.98-0.954,1.585C47.885,119.476,47.77,120.122,47.77,120.812z"/>
		<path fill="#515DA9" d="M59.579,110.61h0.965l0.023,15.876h-0.965L59.579,110.61z"/>
		<path fill="#515DA9" d="M69.963,125.43v-0.552c-0.353,0.536-0.804,0.973-1.355,1.31c-0.552,0.337-1.157,0.506-1.815,0.506
			c-0.537,0-1.034-0.111-1.494-0.333c-0.459-0.223-0.861-0.524-1.206-0.908c-0.345-0.383-0.617-0.83-0.816-1.344
			c-0.199-0.513-0.306-1.061-0.321-1.643l-0.069-0.115v-7.306h0.942v7.306l0.046,0.115c0.015,0.444,0.107,0.861,0.275,1.252
			s0.391,0.735,0.667,1.034s0.597,0.532,0.965,0.7c0.368,0.169,0.758,0.253,1.172,0.253c0.383,0,0.747-0.076,1.091-0.229
			s0.651-0.36,0.919-0.62c0.268-0.261,0.49-0.566,0.667-0.919c0.176-0.353,0.287-0.728,0.333-1.126v-7.812h0.965v10.385
			c0,0.275,0.015,0.521,0.046,0.735c0.031,0.214,0.061,0.337,0.092,0.367h-1.08L69.963,125.43z"/>
		<path fill="#515DA9" d="M75.982,110.61v4.549h3.102v0.988h-3.102l0.023,10.339h-0.919c-0.016-1.317-0.023-2.604-0.023-3.859
			v-6.479h-1.746v-0.988h1.7v-4.549H75.982z"/>
		<path fill="#515DA9" d="M81.267,111.553c0-0.169,0.065-0.314,0.195-0.437c0.13-0.123,0.287-0.184,0.471-0.184
			c0.169,0,0.322,0.061,0.46,0.184c0.138,0.122,0.207,0.268,0.207,0.437s-0.069,0.313-0.207,0.437
			c-0.138,0.122-0.291,0.184-0.46,0.184c-0.184,0-0.341-0.062-0.471-0.184C81.332,111.866,81.267,111.722,81.267,111.553z
			 M81.45,114.999h0.942l0.022,11.487h-0.941L81.45,114.999z"/>
		<path fill="#515DA9" d="M84.529,120.812c0-0.827,0.141-1.601,0.425-2.32c0.283-0.72,0.67-1.348,1.16-1.884
			s1.064-0.961,1.723-1.275c0.659-0.313,1.355-0.471,2.091-0.471s1.425,0.157,2.068,0.471c0.643,0.314,1.206,0.739,1.688,1.275
			s0.865,1.164,1.148,1.884s0.425,1.493,0.425,2.32c0,0.812-0.142,1.574-0.425,2.286s-0.666,1.336-1.148,1.872
			s-1.046,0.962-1.688,1.275c-0.644,0.313-1.333,0.471-2.068,0.471s-1.432-0.157-2.091-0.471c-0.658-0.313-1.232-0.739-1.723-1.275
			s-0.877-1.16-1.16-1.872C84.67,122.386,84.529,121.623,84.529,120.812z M85.494,120.812c0,0.674,0.114,1.313,0.345,1.918
			c0.229,0.605,0.547,1.13,0.953,1.574c0.405,0.444,0.877,0.797,1.413,1.057c0.536,0.261,1.11,0.391,1.723,0.391
			c0.598,0,1.16-0.13,1.689-0.391c0.528-0.26,0.987-0.612,1.378-1.057s0.701-0.969,0.931-1.574c0.229-0.604,0.345-1.244,0.345-1.918
			c0-0.689-0.115-1.336-0.345-1.941c-0.229-0.604-0.54-1.134-0.931-1.585c-0.391-0.452-0.85-0.808-1.378-1.068
			c-0.529-0.261-1.092-0.391-1.689-0.391c-0.612,0-1.187,0.13-1.723,0.391s-1.008,0.616-1.413,1.068
			c-0.406,0.451-0.724,0.98-0.953,1.585C85.608,119.476,85.494,120.122,85.494,120.812z"/>
		<path fill="#515DA9" d="M97.671,116.01v0.62c0.367-0.582,0.827-1.03,1.378-1.344c0.552-0.313,1.156-0.471,1.815-0.471
			c0.536,0,1.037,0.11,1.505,0.333c0.467,0.222,0.873,0.521,1.218,0.896c0.345,0.376,0.62,0.819,0.827,1.333
			c0.206,0.513,0.317,1.061,0.333,1.643l0.068,7.467h-0.965l-0.022-7.467c-0.016-0.46-0.107-0.885-0.276-1.275
			c-0.168-0.391-0.391-0.731-0.666-1.022s-0.598-0.521-0.965-0.689c-0.367-0.168-0.758-0.252-1.172-0.252
			c-0.383,0-0.746,0.072-1.091,0.218s-0.655,0.349-0.931,0.609c-0.275,0.26-0.506,0.566-0.689,0.919s-0.307,0.735-0.367,1.148
			l0.022,7.812h-0.965l-0.022-10.431c0-0.261-0.012-0.479-0.035-0.655c-0.022-0.176-0.05-0.279-0.08-0.31h1.08V116.01z"/>
		<path fill="#515DA9" d="M113.569,116.883c-0.353-0.337-0.781-0.594-1.286-0.77c-0.506-0.176-1.042-0.265-1.608-0.265
			c-0.781,0-1.437,0.184-1.965,0.552c-0.528,0.367-0.793,0.843-0.793,1.424c0,0.276,0.069,0.544,0.207,0.805
			s0.333,0.502,0.586,0.724c0.253,0.223,0.555,0.41,0.907,0.563c0.353,0.153,0.735,0.261,1.149,0.322
			c0.521,0.076,1.003,0.222,1.447,0.437s0.827,0.471,1.148,0.77c0.322,0.299,0.57,0.636,0.747,1.011
			c0.176,0.376,0.264,0.77,0.264,1.184c0,0.459-0.1,0.873-0.298,1.24c-0.199,0.368-0.472,0.686-0.816,0.953
			c-0.344,0.269-0.743,0.476-1.194,0.621c-0.452,0.146-0.931,0.218-1.436,0.218c-0.721,0-1.413-0.13-2.08-0.391
			c-0.666-0.26-1.198-0.628-1.597-1.103l0.735-0.574c0.322,0.321,0.735,0.59,1.241,0.804c0.505,0.215,1.049,0.322,1.631,0.322
			c0.796,0,1.471-0.191,2.021-0.575c0.552-0.382,0.827-0.888,0.827-1.516c0-0.291-0.068-0.57-0.206-0.839
			c-0.139-0.268-0.334-0.517-0.586-0.747c-0.253-0.229-0.552-0.425-0.896-0.586c-0.345-0.16-0.724-0.271-1.137-0.333
			c-0.537-0.076-1.026-0.222-1.471-0.437c-0.444-0.214-0.827-0.471-1.148-0.77c-0.322-0.299-0.575-0.632-0.759-0.999
			c-0.184-0.368-0.275-0.751-0.275-1.149c0-0.428,0.104-0.822,0.31-1.183c0.207-0.36,0.486-0.666,0.839-0.919
			s0.759-0.448,1.218-0.586c0.46-0.138,0.949-0.207,1.471-0.207c0.72,0,1.397,0.135,2.033,0.402s1.152,0.608,1.551,1.022
			L113.569,116.883z"/>
	</g>
</g>
</svg>
