<?xml version="1.0" encoding="utf-8"?>
<!-- Generator: Adobe Illustrator 16.0.0, SVG Export Plug-In . SVG Version: 6.00 Build 0)  -->
<!DOCTYPE svg PUBLIC "-//W3C//DTD SVG 1.1//EN" "http://www.w3.org/Graphics/SVG/1.1/DTD/svg11.dtd">
<svg version="1.1" id="Layer_1" xmlns="http://www.w3.org/2000/svg" xmlns:xlink="http://www.w3.org/1999/xlink" x="0px" y="0px"
	 width="180px" height="110.667px" viewBox="-15 0 180 110.667" enable-background="new -15 0 180 110.667" xml:space="preserve">
<g>
	<path fill="#FFFFFF" d="M130.424,54.335c0,29.458-23.875,53.334-53.334,53.334S23.755,83.792,23.755,54.335
		C23.755,24.877,47.631,1,77.09,1S130.424,24.877,130.424,54.335z"/>
	<g>
		<g>
			<g>
				<g>
					<path fill="#151530" d="M97.611,42.882c-0.236-1.889-1.025-3.392-1.356-3.954c0.24-3.929-0.539-6.884-2.313-8.792
						c-1.385-1.487-3.002-1.909-3.822-2.028c-1.252-2.647-3.383-3.16-4.678-3.035c-2.424-2.257-4.666-2.309-6.142-1.94
						c-0.975,0.241-1.737,0.698-2.211,1.043c-0.472-0.345-1.235-0.802-2.209-1.043c-1.479-0.371-3.72-0.316-6.143,1.94
						c-1.296-0.125-3.425,0.388-4.677,3.035c-0.82,0.119-2.438,0.541-3.823,2.028c-1.777,1.908-2.554,4.863-2.314,8.792
						c-0.331,0.562-1.12,2.065-1.355,3.954c-0.268,2.137,0.14,5.153,3.483,7.6c-0.387,2.287-0.021,6.226,3.633,8.163
						c-0.151,0.831-0.252,2.276,0.49,3.509c0.585,0.969,1.549,1.609,2.872,1.901c0.667,1.028,2.969,4.222,5.841,4.222
						c0.018,0,0.035,0,0.055-0.002c1.539-0.021,2.93-0.932,4.146-2.709c1.217,1.777,2.607,2.688,4.146,2.709
						c2.895,0.043,5.225-3.184,5.896-4.22c1.322-0.292,2.287-0.932,2.871-1.901c0.743-1.233,0.644-2.679,0.492-3.509
						c3.653-1.937,4.021-5.875,3.634-8.163C97.471,48.035,97.879,45.019,97.611,42.882z M92.816,49.482
						c-0.276,0.182-0.405,0.521-0.325,0.843c0.053,0.214,1.254,5.247-3.218,7.164c-0.377,0.161-0.565,0.582-0.438,0.97
						c0.006,0.017,0.535,1.699-0.18,2.884c-0.389,0.645-1.108,1.058-2.143,1.23c-0.229,0.038-0.429,0.176-0.548,0.378
						c-0.614,1.048-2.646,3.75-4.678,3.75c-0.011,0-0.024,0-0.035,0c-1.221-0.017-2.388-1.025-3.461-2.996
						c-0.138-0.253-0.433-0.411-0.72-0.411c-0.289,0-0.553,0.157-0.689,0.411c-1.076,1.97-2.24,2.979-3.464,2.996
						c-2.034,0.034-4.093-2.697-4.712-3.75c-0.117-0.202-0.318-0.34-0.549-0.378c-1.029-0.171-1.748-0.583-2.136-1.225
						c-0.724-1.194-0.188-2.876-0.182-2.891c0.127-0.389-0.06-0.81-0.437-0.972c-4.448-1.905-3.27-6.949-3.217-7.162
						c0.081-0.322-0.05-0.661-0.326-0.844c-5.86-3.905-2.145-9.678-1.985-9.921c0.098-0.144,0.142-0.319,0.131-0.491
						c-0.257-3.58,0.368-6.219,1.857-7.839c1.43-1.556,3.164-1.596,3.231-1.596c0.32,0,0.609-0.198,0.729-0.494
						c0.878-2.199,2.292-2.512,3.024-2.512c0.237,0,0.404,0.032,0.459,0.043c0.268,0.068,0.551-0.009,0.746-0.205
						c1.599-1.598,3.242-2.211,4.883-1.827c1.256,0.296,2.075,1.088,2.081,1.093c0.147,0.149,0.346,0.231,0.555,0.231H77.1
						c0.209,0,0.41-0.082,0.557-0.231c0.009-0.006,0.798-0.772,2.021-1.078c1.661-0.416,3.324,0.193,4.943,1.813
						c0.191,0.192,0.471,0.269,0.738,0.208c0.23-0.053,2.328-0.441,3.49,2.465c0.117,0.294,0.407,0.489,0.725,0.494
						c0.072,0,1.806,0.04,3.238,1.596c1.484,1.622,2.11,4.259,1.855,7.839c-0.012,0.172,0.032,0.347,0.13,0.491
						c0.011,0.015,1,1.521,1.251,3.515C96.377,45.679,95.29,47.834,92.816,49.482z"/>
				</g>
			</g>
			<g>
				<g>
					<path fill="#151530" d="M90.298,28.599c-0.137-0.412-0.583-0.633-0.993-0.497c-4.884,1.629-4.941,5.712-4.941,5.883
						c0,0.433,0.351,0.781,0.779,0.783c0.002,0,0.006,0,0.006,0c0.431,0,0.779-0.347,0.787-0.775c0-0.13,0.086-3.14,3.866-4.399
						C90.214,29.456,90.438,29.01,90.298,28.599z"/>
				</g>
			</g>
			<g>
				<g>
					<path fill="#151530" d="M93.85,49.659c-0.264-0.345-0.757-0.412-1.103-0.147c-1.28,0.975-2.438,1.32-3.438,1.033
						c-1.781-0.513-2.682-2.862-2.688-2.887c-0.151-0.405-0.603-0.613-1.009-0.462c-0.406,0.15-0.615,0.602-0.467,1.01
						c0.049,0.126,1.174,3.104,3.722,3.846c0.379,0.11,0.765,0.165,1.157,0.165c1.172,0,2.403-0.486,3.677-1.457
						C94.044,50.497,94.109,50.003,93.85,49.659z"/>
				</g>
			</g>
			<g>
				<g>
					<path fill="#151530" d="M80.564,50.314c-0.306-0.308-0.805-0.308-1.109,0c-0.307,0.306-0.307,0.805,0,1.11
						c2.552,2.551,2.021,5.015,1.994,5.132c-0.102,0.42,0.154,0.843,0.574,0.947c0.063,0.016,0.125,0.023,0.189,0.023
						c0.354,0,0.674-0.237,0.762-0.595C83.012,56.795,83.779,53.527,80.564,50.314z"/>
				</g>
			</g>
			<g>
				<g>
					<path fill="#151530" d="M92.752,42.954c-0.146-0.409-0.596-0.619-1.004-0.474c-0.158,0.058-3.906,1.37-5.895-1.28
						c-1.033-1.375-1.477-2.553-1.834-3.499c-0.438-1.161-0.852-2.258-2.226-2.372c-0.429-0.034-0.812,0.288-0.846,0.719
						c-0.037,0.431,0.284,0.812,0.718,0.849c0.328,0.025,0.453,0.215,0.883,1.357c0.371,0.985,0.879,2.335,2.049,3.888
						c1.367,1.822,3.278,2.28,4.854,2.28c1.523,0,2.732-0.429,2.834-0.465C92.691,43.809,92.9,43.358,92.752,42.954z"/>
				</g>
			</g>
			<g>
				<g>
					<path fill="#151530" d="M77.075,24.393c-0.435,0-0.786,0.351-0.786,0.786v38.903c0,0.434,0.352,0.784,0.786,0.784
						c0.433,0,0.784-0.349,0.784-0.784V25.179C77.859,24.744,77.508,24.393,77.075,24.393z"/>
				</g>
			</g>
			<g>
				<g>
					<path fill="#151530" d="M82.816,31.159c-0.004-0.432-0.35-0.785-0.797-0.773c-0.434,0.006-0.779,0.363-0.772,0.796
						c0,0.048,0.043,4.948-2.406,8.052c-0.268,0.34-0.211,0.835,0.132,1.105c0.144,0.114,0.313,0.169,0.486,0.169
						c0.229,0,0.461-0.104,0.615-0.301C82.866,36.669,82.818,31.384,82.816,31.159z"/>
				</g>
			</g>
			<g>
				<g>
					<path fill="#151530" d="M84.415,55.222c-3.464,0-5.082,4.74-5.149,4.942c-0.139,0.411,0.086,0.854,0.496,0.992
						c0.084,0.027,0.166,0.04,0.248,0.04c0.329,0,0.637-0.207,0.744-0.535c0.362-1.077,1.727-3.869,3.661-3.869
						c0.435,0,0.784-0.351,0.784-0.784C85.199,55.572,84.848,55.222,84.415,55.222z"/>
				</g>
			</g>
			<g>
				<g>
					<path fill="#151530" d="M85.3,24.951c-0.349-0.259-0.84-0.187-1.1,0.162l-1.884,2.532c-0.258,0.347-0.188,0.839,0.16,1.098
						c0.143,0.105,0.306,0.156,0.469,0.156c0.24,0,0.476-0.11,0.632-0.317l1.884-2.531C85.721,25.703,85.646,25.21,85.3,24.951z"/>
				</g>
			</g>
			<g>
				<g>
					<path fill="#151530" d="M69.218,30.028c-1.732,0-3.142,1.411-3.142,3.143c0,1.731,1.41,3.142,3.142,3.142
						c1.731,0,3.143-1.41,3.143-3.142C72.36,31.438,70.949,30.028,69.218,30.028z M69.218,34.742c-0.866,0-1.571-0.705-1.571-1.571
						c0-0.867,0.706-1.572,1.571-1.572c0.866,0,1.572,0.705,1.572,1.572C70.79,34.037,70.084,34.742,69.218,34.742z"/>
				</g>
			</g>
			<g>
				<g>
					<path fill="#151530" d="M63.719,40.24c-1.732,0-3.142,1.41-3.142,3.143c0,1.731,1.409,3.141,3.142,3.141
						c1.733,0,3.142-1.409,3.142-3.141C66.861,41.65,65.452,40.24,63.719,40.24z M63.719,44.954c-0.865,0-1.57-0.704-1.57-1.57
						c0-0.868,0.705-1.571,1.57-1.571c0.868,0,1.572,0.704,1.572,1.571C65.291,44.25,64.586,44.954,63.719,44.954z"/>
				</g>
			</g>
			<g>
				<g>
					<path fill="#151530" d="M71.576,47.309c-1.733,0-3.143,1.411-3.143,3.143c0,1.733,1.41,3.142,3.143,3.142
						c1.731,0,3.14-1.409,3.14-3.142C74.716,48.72,73.307,47.309,71.576,47.309z M71.576,52.022c-0.867,0-1.572-0.703-1.572-1.57
						c0-0.866,0.706-1.571,1.572-1.571c0.865,0,1.57,0.705,1.57,1.571C73.146,51.319,72.441,52.022,71.576,52.022z"/>
				</g>
			</g>
			<g>
				<g>
					<path fill="#151530" d="M71.576,55.951c-1.733,0-3.143,1.408-3.143,3.143c0,1.732,1.41,3.142,3.143,3.142
						c1.731,0,3.14-1.409,3.14-3.142C74.716,57.359,73.307,55.951,71.576,55.951z M71.576,60.664c-0.867,0-1.572-0.706-1.572-1.571
						c0-0.867,0.706-1.571,1.572-1.571c0.865,0,1.57,0.704,1.57,1.571C73.146,59.958,72.441,60.664,71.576,60.664z"/>
				</g>
			</g>
			<g>
				<g>
					<path fill="#151530" d="M69.218,34.742c-0.433,0-0.785,0.351-0.785,0.785v7.856c0,0.434,0.352,0.785,0.785,0.785
						c0.434,0,0.786-0.351,0.786-0.785v-7.856C70.003,35.092,69.651,34.742,69.218,34.742z"/>
				</g>
			</g>
			<g>
				<g>
					<path fill="#151530" d="M71.576,42.596h-5.5c-0.433,0-0.785,0.353-0.785,0.788c0,0.434,0.353,0.785,0.785,0.785h5.498
						c0.434,0,0.787-0.351,0.787-0.785C72.36,42.949,72.008,42.596,71.576,42.596z"/>
				</g>
			</g>
			<g>
				<g>
					<path fill="#151530" d="M71.576,42.596c-0.434,0-0.786,0.353-0.786,0.788v4.71c0,0.435,0.352,0.787,0.786,0.787
						c0.434,0,0.785-0.353,0.785-0.787v-4.71C72.36,42.949,72.008,42.596,71.576,42.596z"/>
				</g>
			</g>
			<g>
				<g>
					<path fill="#151530" d="M71.576,52.022c-0.434,0-0.786,0.353-0.786,0.788v3.928c0,0.433,0.352,0.785,0.786,0.785
						c0.434,0,0.785-0.353,0.785-0.785V52.81C72.36,52.375,72.008,52.022,71.576,52.022z"/>
				</g>
			</g>
		</g>
	</g>
	<g>
		<path fill="#515DA9" d="M3.948,89.878h0.663h3.361c0.526,0.011,1.021,0.157,1.483,0.442c0.463,0.284,0.866,0.671,1.208,1.159
			c0.342,0.488,0.613,1.063,0.813,1.72c0.2,0.658,0.3,1.36,0.3,2.106c0,0.747-0.097,1.449-0.292,2.107
			c-0.195,0.656-0.463,1.23-0.805,1.72c-0.342,0.489-0.742,0.878-1.199,1.167c-0.458,0.291-0.949,0.44-1.475,0.45l0.016,0.032H3.964
			L3.948,89.878z M4.611,90.542v9.578h3.393v-0.031c0.431-0.011,0.836-0.146,1.215-0.403c0.378-0.257,0.707-0.602,0.986-1.033
			s0.5-0.934,0.663-1.506c0.163-0.574,0.245-1.188,0.245-1.84c0-0.642-0.082-1.252-0.245-1.83c-0.164-0.578-0.387-1.083-0.671-1.515
			c-0.284-0.433-0.615-0.773-0.994-1.026c-0.379-0.252-0.789-0.384-1.231-0.394H4.611z"/>
		<path fill="#515DA9" d="M16.21,100.278c0.168,0,0.344-0.019,0.529-0.055c0.184-0.037,0.368-0.084,0.552-0.142
			c0.184-0.059,0.36-0.121,0.529-0.189c0.168-0.068,0.315-0.135,0.442-0.197l0.268,0.584c-0.273,0.148-0.568,0.273-0.883,0.379
			c-0.316,0.105-0.652,0.189-1.01,0.252h-0.016c-0.063,0.012-0.129,0.017-0.197,0.017c-0.068,0-0.14,0-0.213,0
			c-0.442,0-0.855-0.099-1.239-0.293s-0.726-0.462-1.025-0.804c-0.299-0.344-0.542-0.742-0.726-1.2s-0.292-0.95-0.324-1.476v-0.3
			c0-0.558,0.084-1.083,0.252-1.578s0.395-0.926,0.679-1.294c0.283-0.369,0.615-0.66,0.994-0.877
			c0.378-0.215,0.784-0.322,1.215-0.322c0.442,0,0.852,0.103,1.23,0.308c0.379,0.205,0.708,0.485,0.987,0.844
			c0.279,0.358,0.497,0.779,0.655,1.264c0.157,0.483,0.237,1.009,0.237,1.578v0.378h-5.57c0.021,0.443,0.105,0.852,0.252,1.231
			c0.147,0.379,0.339,0.707,0.576,0.986c0.237,0.278,0.51,0.5,0.821,0.663C15.534,100.197,15.863,100.278,16.21,100.278z
			 M18.514,96.505c-0.031-0.42-0.118-0.816-0.26-1.191c-0.142-0.372-0.324-0.697-0.544-0.969c-0.221-0.273-0.473-0.49-0.757-0.647
			c-0.284-0.158-0.589-0.237-0.916-0.237c-0.315,0-0.615,0.079-0.9,0.237c-0.285,0.157-0.536,0.374-0.758,0.647
			c-0.221,0.271-0.402,0.597-0.544,0.969c-0.142,0.375-0.229,0.771-0.26,1.191H18.514z"/>
		<path fill="#515DA9" d="M23.406,100.278c0.168,0,0.344-0.019,0.529-0.055c0.184-0.037,0.369-0.084,0.552-0.142
			c0.184-0.059,0.36-0.121,0.529-0.189s0.315-0.135,0.442-0.197l0.268,0.584c-0.273,0.148-0.568,0.273-0.884,0.379
			s-0.652,0.189-1.01,0.252h-0.016c-0.063,0.012-0.129,0.017-0.198,0.017c-0.068,0-0.139,0-0.212,0
			c-0.442,0-0.855-0.099-1.239-0.293s-0.726-0.462-1.025-0.804c-0.3-0.344-0.542-0.742-0.727-1.2
			c-0.184-0.458-0.292-0.95-0.324-1.476v-0.3c0-0.558,0.084-1.083,0.252-1.578s0.395-0.926,0.679-1.294
			c0.284-0.369,0.615-0.66,0.994-0.877c0.378-0.215,0.784-0.322,1.215-0.322c0.442,0,0.853,0.103,1.231,0.308
			c0.379,0.205,0.708,0.485,0.986,0.844s0.497,0.779,0.656,1.264c0.157,0.483,0.236,1.009,0.236,1.578v0.378h-5.57
			c0.021,0.443,0.105,0.852,0.252,1.231c0.147,0.379,0.34,0.707,0.576,0.986c0.237,0.278,0.51,0.5,0.821,0.663
			C22.73,100.197,23.06,100.278,23.406,100.278z M25.71,96.505c-0.031-0.42-0.118-0.816-0.26-1.191
			c-0.142-0.372-0.324-0.697-0.544-0.969c-0.221-0.273-0.473-0.49-0.757-0.647c-0.285-0.158-0.589-0.237-0.916-0.237
			c-0.315,0-0.615,0.079-0.9,0.237c-0.284,0.157-0.537,0.374-0.758,0.647c-0.221,0.271-0.402,0.597-0.544,0.969
			c-0.142,0.375-0.229,0.771-0.26,1.191H25.71z"/>
		<path fill="#515DA9" d="M28.109,93.381c0.273-0.179,0.615-0.329,1.026-0.448c0.41-0.122,0.857-0.182,1.342-0.182
			c0.526,0.01,1.021,0.123,1.483,0.339c0.463,0.214,0.865,0.505,1.208,0.868c0.342,0.362,0.613,0.788,0.813,1.277
			c0.199,0.489,0.3,1.014,0.3,1.57c0,0.568-0.101,1.102-0.3,1.602c-0.2,0.5-0.472,0.934-0.813,1.302
			c-0.342,0.368-0.745,0.661-1.208,0.876c-0.463,0.216-0.958,0.324-1.483,0.324c-0.463,0-0.902-0.059-1.318-0.174
			c-0.415-0.115-0.759-0.263-1.033-0.441v3.566h-0.647v-9.516c0-0.243-0.01-0.463-0.032-0.663c-0.021-0.18-0.042-0.345-0.063-0.498
			c-0.021-0.153-0.042-0.244-0.063-0.276h0.789V93.381z M28.109,99.41c0.031,0.116,0.115,0.225,0.252,0.324
			c0.137,0.101,0.311,0.186,0.521,0.261c0.21,0.073,0.452,0.134,0.726,0.181c0.273,0.048,0.563,0.076,0.869,0.088
			c0.431-0.012,0.838-0.108,1.223-0.293c0.384-0.185,0.718-0.432,1.002-0.741s0.508-0.674,0.671-1.09
			c0.163-0.414,0.245-0.859,0.245-1.333c0-0.463-0.082-0.899-0.245-1.309c-0.163-0.411-0.387-0.769-0.671-1.074
			s-0.618-0.547-1.002-0.726c-0.385-0.18-0.792-0.269-1.223-0.269c-0.327,0-0.634,0.023-0.924,0.072
			c-0.289,0.047-0.539,0.111-0.749,0.196c-0.211,0.084-0.379,0.181-0.505,0.292c-0.125,0.11-0.189,0.229-0.189,0.355L28.109,99.41
			L28.109,99.41z"/>
		<path fill="#515DA9" d="M40.229,100.12h5.318l0.016,0.663h-5.981l-0.015-10.904h0.663V100.12z"/>
		<path fill="#515DA9" d="M49.792,100.278c0.168,0,0.344-0.019,0.528-0.055c0.185-0.037,0.368-0.084,0.552-0.142
			c0.187-0.059,0.361-0.121,0.529-0.189s0.316-0.135,0.442-0.197l0.269,0.584c-0.272,0.148-0.568,0.273-0.884,0.379
			s-0.651,0.189-1.011,0.252h-0.014c-0.065,0.012-0.13,0.017-0.198,0.017c-0.069,0-0.14,0-0.213,0c-0.443,0-0.855-0.099-1.24-0.293
			c-0.384-0.194-0.726-0.462-1.024-0.804c-0.302-0.344-0.542-0.742-0.727-1.2s-0.293-0.95-0.324-1.476v-0.3
			c0-0.558,0.084-1.083,0.253-1.578c0.168-0.495,0.395-0.926,0.678-1.294c0.284-0.369,0.615-0.66,0.996-0.877
			c0.378-0.215,0.782-0.322,1.213-0.322c0.443,0,0.853,0.103,1.232,0.308c0.378,0.205,0.707,0.485,0.985,0.844
			c0.279,0.358,0.498,0.779,0.655,1.264c0.158,0.483,0.237,1.009,0.237,1.578v0.378h-5.571c0.021,0.443,0.105,0.852,0.252,1.231
			c0.148,0.379,0.34,0.707,0.577,0.986c0.236,0.278,0.51,0.5,0.819,0.663C49.116,100.197,49.444,100.278,49.792,100.278z
			 M52.096,96.505c-0.031-0.42-0.118-0.816-0.261-1.191c-0.142-0.372-0.322-0.697-0.545-0.969c-0.221-0.273-0.473-0.49-0.756-0.647
			c-0.284-0.158-0.591-0.237-0.917-0.237c-0.314,0-0.614,0.079-0.898,0.237c-0.284,0.157-0.537,0.374-0.759,0.647
			c-0.221,0.271-0.402,0.597-0.544,0.969c-0.143,0.375-0.229,0.771-0.261,1.191H52.096z"/>
		<path fill="#515DA9" d="M58.298,100.152c-0.241,0.242-0.526,0.434-0.853,0.576c-0.325,0.142-0.679,0.213-1.057,0.213
			c-0.348,0-0.675-0.063-0.986-0.189c-0.311-0.125-0.579-0.297-0.805-0.512c-0.227-0.216-0.407-0.469-0.545-0.759
			c-0.137-0.289-0.205-0.597-0.205-0.923c0-0.347,0.071-0.668,0.214-0.962c0.141-0.295,0.332-0.55,0.575-0.766
			c0.242-0.216,0.523-0.382,0.844-0.497c0.321-0.116,0.66-0.174,1.019-0.174h1.799v-0.348c0-0.315-0.041-0.615-0.119-0.9
			c-0.079-0.283-0.191-0.53-0.339-0.741c-0.148-0.21-0.324-0.379-0.529-0.504c-0.205-0.127-0.434-0.195-0.686-0.206h-0.017
			c-0.684,0-1.293,0.079-1.83,0.237l-0.157-0.631c0.621-0.18,1.283-0.269,1.988-0.269h0.016c0.305,0.01,0.595,0.087,0.868,0.229
			c0.273,0.141,0.516,0.334,0.727,0.576c0.21,0.241,0.381,0.526,0.513,0.852c0.131,0.326,0.208,0.673,0.229,1.042v0.157
			c-0.012,0.263-0.017,0.542-0.017,0.837c-0.011,0.253-0.015,0.54-0.015,0.86c0,0.321,0,0.645,0,0.97
			c0,0.305,0.002,0.601,0.007,0.884c0.005,0.284,0.014,0.542,0.024,0.773c0.011,0.232,0.023,0.418,0.039,0.561
			c0.016,0.142,0.035,0.223,0.056,0.244h-0.741L58.298,100.152z M58.298,96.806H56.5c-0.275,0-0.53,0.042-0.766,0.127
			c-0.237,0.084-0.444,0.202-0.624,0.354c-0.179,0.153-0.321,0.337-0.425,0.553c-0.105,0.216-0.158,0.455-0.158,0.719
			c0,0.241,0.047,0.465,0.142,0.671c0.096,0.204,0.227,0.384,0.395,0.536s0.365,0.273,0.592,0.363
			c0.226,0.089,0.472,0.134,0.733,0.134c0.263,0,0.51-0.045,0.742-0.134c0.23-0.09,0.435-0.212,0.607-0.363
			c0.173-0.153,0.311-0.332,0.41-0.536c0.101-0.206,0.15-0.43,0.15-0.671L58.298,96.806L58.298,96.806z"/>
		<path fill="#515DA9" d="M63.396,93.493c-0.054-0.021-0.103-0.032-0.15-0.032c-0.047,0-0.098,0-0.15,0
			c-0.263,0-0.513,0.049-0.75,0.15c-0.237,0.101-0.449,0.239-0.639,0.418c-0.19,0.18-0.345,0.389-0.467,0.631
			c-0.12,0.243-0.202,0.506-0.243,0.789l0.015,5.334h-0.662l-0.015-7.133c0-0.18-0.009-0.348-0.023-0.505
			c-0.016-0.157-0.035-0.247-0.056-0.269h0.742v1.167c0.251-0.399,0.564-0.706,0.938-0.923c0.373-0.215,0.786-0.322,1.238-0.322
			c0.053,0,0.113,0.002,0.183,0.007c0.068,0.005,0.133,0.019,0.196,0.04L63.396,93.493z"/>
		<path fill="#515DA9" d="M65.305,93.586v0.426c0.252-0.399,0.568-0.708,0.946-0.924c0.379-0.214,0.794-0.323,1.247-0.323
			c0.368,0,0.713,0.076,1.033,0.229c0.321,0.151,0.6,0.357,0.837,0.615s0.426,0.563,0.568,0.916
			c0.142,0.353,0.218,0.729,0.229,1.128l0.047,5.129h-0.663l-0.016-5.129c-0.011-0.316-0.073-0.607-0.189-0.876
			c-0.115-0.269-0.268-0.502-0.457-0.702c-0.189-0.199-0.411-0.357-0.663-0.473c-0.252-0.116-0.521-0.174-0.805-0.174
			c-0.263,0-0.513,0.05-0.75,0.15c-0.235,0.101-0.449,0.24-0.639,0.419c-0.188,0.179-0.348,0.388-0.474,0.63
			c-0.126,0.244-0.21,0.506-0.252,0.789l0.015,5.367h-0.663l-0.015-7.166c0-0.18-0.008-0.328-0.024-0.449
			c-0.015-0.122-0.034-0.192-0.055-0.213h0.742V93.586z"/>
		<path fill="#515DA9" d="M71.759,90.525c0-0.115,0.045-0.215,0.134-0.3c0.09-0.084,0.198-0.127,0.324-0.127
			c0.116,0,0.221,0.043,0.316,0.127c0.094,0.084,0.142,0.185,0.142,0.3c0,0.116-0.048,0.217-0.142,0.301
			c-0.096,0.085-0.2,0.126-0.316,0.126c-0.126,0-0.234-0.041-0.324-0.126C71.804,90.742,71.759,90.641,71.759,90.525z
			 M71.885,92.893h0.646l0.016,7.89H71.9L71.885,92.893z"/>
		<path fill="#515DA9" d="M74.932,93.586v0.426c0.252-0.399,0.567-0.708,0.946-0.924c0.379-0.214,0.794-0.323,1.246-0.323
			c0.369,0,0.713,0.076,1.034,0.229c0.32,0.151,0.6,0.357,0.837,0.615c0.236,0.258,0.426,0.563,0.567,0.916
			c0.142,0.353,0.218,0.729,0.229,1.128l0.047,5.129h-0.663l-0.015-5.129c-0.011-0.316-0.073-0.607-0.189-0.876
			c-0.115-0.269-0.269-0.502-0.457-0.702c-0.188-0.199-0.411-0.357-0.663-0.473c-0.252-0.116-0.521-0.174-0.806-0.174
			c-0.263,0-0.512,0.05-0.749,0.15s-0.449,0.24-0.64,0.419c-0.188,0.179-0.348,0.388-0.473,0.63
			c-0.126,0.244-0.212,0.506-0.252,0.789l0.015,5.367h-0.662l-0.017-7.166c0-0.18-0.008-0.328-0.023-0.449
			c-0.015-0.122-0.034-0.192-0.055-0.213h0.742V93.586z"/>
		<path fill="#515DA9" d="M83.815,98.953c0.053-0.021,0.112-0.031,0.182-0.031c0.067,0,0.13,0,0.182,0
			c0.442,0,0.855,0.065,1.239,0.196c0.384,0.132,0.721,0.308,1.011,0.529c0.289,0.221,0.515,0.483,0.678,0.788
			c0.162,0.306,0.244,0.632,0.244,0.979s-0.082,0.673-0.244,0.979c-0.163,0.304-0.389,0.569-0.678,0.796
			c-0.29,0.227-0.627,0.408-1.011,0.545s-0.797,0.205-1.239,0.205c-0.432,0-0.84-0.068-1.224-0.205
			c-0.383-0.137-0.717-0.318-1.002-0.545c-0.284-0.227-0.51-0.492-0.678-0.796c-0.169-0.306-0.252-0.631-0.252-0.979
			c0-0.474,0.149-0.902,0.449-1.286c0.3-0.385,0.696-0.682,1.191-0.893c-0.116-0.198-0.174-0.446-0.174-0.74
			c0-0.181,0.032-0.346,0.095-0.498c0.063-0.152,0.143-0.271,0.237-0.355c-0.369-0.263-0.655-0.576-0.86-0.939
			s-0.308-0.755-0.308-1.175c0-0.38,0.081-0.734,0.244-1.065c0.164-0.332,0.388-0.621,0.672-0.867
			c0.283-0.249,0.615-0.443,0.993-0.586c0.379-0.142,0.788-0.213,1.231-0.213c0.231,0,0.441,0.016,0.632,0.047
			c0.188,0.031,0.372,0.074,0.551,0.126h2.73l-0.646,0.663h-0.994c0.272,0.243,0.486,0.521,0.639,0.837
			c0.153,0.315,0.23,0.669,0.23,1.058c0,0.379-0.082,0.73-0.246,1.058c-0.162,0.326-0.387,0.61-0.671,0.851
			c-0.283,0.243-0.618,0.435-1.002,0.577s-0.791,0.214-1.222,0.214c-0.264,0-0.498-0.031-0.702-0.095
			c-0.206-0.063-0.402-0.096-0.592-0.096c-0.117,0-0.232,0.029-0.348,0.087c-0.116,0.057-0.175,0.172-0.175,0.339
			c0,0.221,0.062,0.36,0.183,0.419c0.121,0.057,0.245,0.086,0.371,0.086c0.052,0,0.104-0.002,0.158-0.008
			C83.742,98.956,83.783,98.953,83.815,98.953z M81.653,101.415c0,0.252,0.069,0.495,0.206,0.726
			c0.136,0.232,0.321,0.434,0.552,0.607c0.232,0.174,0.5,0.311,0.806,0.411c0.305,0.101,0.625,0.15,0.962,0.15
			c0.357,0,0.691-0.05,1.002-0.15s0.581-0.237,0.813-0.411c0.231-0.174,0.413-0.375,0.544-0.607c0.131-0.23,0.198-0.474,0.198-0.726
			c0-0.254-0.067-0.493-0.198-0.718c-0.131-0.227-0.313-0.427-0.544-0.6c-0.232-0.174-0.502-0.314-0.813-0.419
			c-0.311-0.104-0.645-0.157-1.002-0.157c-0.337,0-0.657,0.053-0.962,0.157c-0.306,0.104-0.573,0.245-0.806,0.419
			c-0.23,0.173-0.415,0.373-0.552,0.6C81.721,100.921,81.653,101.162,81.653,101.415z M82.301,95.529
			c0,0.283,0.064,0.552,0.197,0.805c0.131,0.252,0.31,0.472,0.537,0.654c0.225,0.185,0.487,0.33,0.788,0.442
			c0.3,0.11,0.623,0.166,0.971,0.166c0.357,0,0.688-0.056,0.993-0.166s0.571-0.258,0.797-0.442s0.405-0.402,0.536-0.654
			c0.132-0.253,0.197-0.521,0.197-0.805c0-0.295-0.065-0.571-0.197-0.829c-0.131-0.259-0.311-0.481-0.536-0.671
			s-0.492-0.337-0.797-0.442c-0.305-0.106-0.637-0.157-0.993-0.157c-0.348,0-0.671,0.053-0.971,0.157
			c-0.301,0.104-0.563,0.252-0.788,0.442c-0.228,0.189-0.406,0.412-0.537,0.671C82.365,94.958,82.301,95.234,82.301,95.529z"/>
		<path fill="#515DA9" d="M94.836,99.071c0.253,0.378,0.59,0.681,1.011,0.907c0.421,0.225,0.909,0.339,1.468,0.339
			c0.336,0,0.66-0.056,0.971-0.166s0.581-0.261,0.813-0.45c0.23-0.188,0.415-0.414,0.552-0.678c0.137-0.263,0.205-0.547,0.205-0.853
			c0-0.305-0.061-0.59-0.181-0.859c-0.122-0.269-0.289-0.511-0.505-0.727s-0.469-0.392-0.758-0.529
			c-0.289-0.136-0.603-0.226-0.939-0.268h-0.048c-0.453-0.043-0.872-0.15-1.255-0.325c-0.385-0.172-0.717-0.394-0.994-0.662
			c-0.279-0.269-0.498-0.576-0.656-0.923c-0.156-0.348-0.236-0.711-0.236-1.089c0-0.411,0.086-0.795,0.26-1.153
			c0.174-0.357,0.414-0.665,0.719-0.923s0.662-0.46,1.072-0.607c0.411-0.147,0.848-0.221,1.311-0.221c0.6,0,1.135,0.105,1.609,0.315
			c0.473,0.211,0.878,0.511,1.215,0.9l-0.537,0.425c-0.263-0.314-0.591-0.564-0.986-0.75c-0.395-0.184-0.828-0.275-1.302-0.275
			c-0.348,0-0.682,0.059-1.003,0.174c-0.32,0.117-0.604,0.274-0.852,0.475c-0.248,0.199-0.444,0.434-0.592,0.701
			c-0.148,0.268-0.221,0.559-0.221,0.875c0,0.305,0.063,0.598,0.189,0.875c0.125,0.279,0.302,0.527,0.528,0.742
			c0.226,0.216,0.494,0.395,0.804,0.537c0.311,0.142,0.645,0.229,1.003,0.26c0.442,0.063,0.849,0.182,1.224,0.355
			c0.372,0.174,0.695,0.392,0.97,0.654c0.273,0.264,0.486,0.563,0.64,0.9c0.151,0.337,0.229,0.689,0.229,1.058
			c0,0.399-0.087,0.776-0.261,1.128c-0.173,0.354-0.408,0.658-0.702,0.916c-0.295,0.258-0.643,0.46-1.041,0.607
			c-0.4,0.146-0.826,0.221-1.279,0.221c-0.641,0-1.222-0.137-1.743-0.41c-0.521-0.274-0.934-0.632-1.239-1.074L94.836,99.071z"/>
		<path fill="#515DA9" d="M101.59,96.94c0-0.568,0.098-1.1,0.293-1.594c0.193-0.494,0.459-0.926,0.797-1.294
			c0.336-0.368,0.73-0.66,1.183-0.875c0.452-0.216,0.931-0.324,1.437-0.324c0.505,0,0.979,0.107,1.42,0.324
			c0.441,0.215,0.828,0.507,1.16,0.875c0.33,0.368,0.594,0.8,0.788,1.294c0.195,0.495,0.292,1.025,0.292,1.594
			c0,0.559-0.098,1.081-0.292,1.57s-0.458,0.918-0.788,1.286c-0.332,0.367-0.719,0.661-1.16,0.876s-0.916,0.323-1.42,0.323
			c-0.505,0-0.984-0.107-1.437-0.323c-0.452-0.215-0.847-0.509-1.183-0.876c-0.338-0.368-0.604-0.797-0.797-1.286
			C101.688,98.021,101.59,97.497,101.59,96.94z M102.253,96.94c0,0.463,0.079,0.901,0.237,1.317s0.375,0.776,0.654,1.082
			c0.279,0.305,0.603,0.547,0.972,0.726c0.368,0.179,0.762,0.268,1.184,0.268c0.409,0,0.797-0.089,1.159-0.268
			c0.363-0.179,0.678-0.421,0.946-0.726c0.269-0.307,0.481-0.666,0.64-1.082c0.157-0.414,0.236-0.854,0.236-1.317
			c0-0.474-0.078-0.917-0.236-1.333c-0.158-0.415-0.371-0.779-0.64-1.088c-0.269-0.312-0.583-0.557-0.946-0.734
			c-0.362-0.179-0.75-0.269-1.159-0.269c-0.422,0-0.816,0.089-1.184,0.269c-0.369,0.179-0.692,0.423-0.972,0.734
			c-0.277,0.309-0.496,0.672-0.654,1.088S102.253,96.466,102.253,96.94z"/>
		<path fill="#515DA9" d="M110.365,89.932h0.662l0.016,10.905h-0.662L110.365,89.932z"/>
		<path fill="#515DA9" d="M117.497,100.113v-0.38c-0.243,0.368-0.552,0.669-0.931,0.9c-0.379,0.23-0.795,0.347-1.247,0.347
			c-0.368,0-0.71-0.076-1.026-0.229c-0.314-0.152-0.591-0.359-0.828-0.624c-0.236-0.263-0.424-0.57-0.561-0.923
			c-0.137-0.352-0.21-0.729-0.221-1.129l-0.047-0.078v-5.02h0.646v5.02l0.032,0.078c0.011,0.305,0.073,0.592,0.188,0.86
			s0.269,0.505,0.459,0.71c0.189,0.205,0.41,0.366,0.662,0.481c0.253,0.115,0.521,0.173,0.805,0.173c0.264,0,0.514-0.052,0.75-0.156
			c0.236-0.105,0.447-0.248,0.631-0.427c0.185-0.179,0.337-0.388,0.459-0.63c0.121-0.244,0.196-0.502,0.229-0.773v-5.366h0.662
			v7.133c0,0.189,0.011,0.357,0.031,0.505c0.021,0.147,0.043,0.231,0.063,0.252h-0.741L117.497,100.113z"/>
		<path fill="#515DA9" d="M121.633,89.932v3.126h2.129v0.678h-2.129l0.014,7.102h-0.631c-0.011-0.904-0.016-1.789-0.016-2.651
			v-4.449h-1.199v-0.679h1.168v-3.125L121.633,89.932L121.633,89.932z"/>
		<path fill="#515DA9" d="M125.262,90.581c0-0.116,0.045-0.216,0.133-0.3c0.09-0.085,0.199-0.127,0.324-0.127
			c0.115,0,0.221,0.042,0.316,0.127c0.094,0.083,0.141,0.184,0.141,0.3s-0.047,0.216-0.141,0.3
			c-0.096,0.084-0.201,0.126-0.316,0.126c-0.125,0-0.234-0.042-0.324-0.126C125.307,90.795,125.262,90.697,125.262,90.581z
			 M125.387,92.948h0.648l0.014,7.89h-0.646L125.387,92.948z"/>
		<path fill="#515DA9" d="M127.502,96.94c0-0.568,0.098-1.1,0.291-1.594c0.195-0.494,0.461-0.926,0.797-1.294
			c0.338-0.368,0.732-0.66,1.184-0.875c0.453-0.216,0.932-0.324,1.438-0.324s0.979,0.107,1.42,0.324
			c0.441,0.215,0.828,0.507,1.16,0.875c0.33,0.368,0.594,0.8,0.787,1.294c0.195,0.495,0.293,1.025,0.293,1.594
			c0,0.559-0.098,1.081-0.293,1.57c-0.193,0.489-0.457,0.918-0.787,1.286c-0.332,0.367-0.719,0.661-1.16,0.876
			c-0.443,0.215-0.916,0.323-1.42,0.323c-0.506,0-0.984-0.107-1.438-0.323c-0.451-0.215-0.846-0.509-1.184-0.876
			c-0.336-0.368-0.602-0.797-0.797-1.286C127.6,98.021,127.502,97.497,127.502,96.94z M128.166,96.94
			c0,0.463,0.076,0.901,0.236,1.317c0.156,0.416,0.375,0.776,0.654,1.082c0.277,0.305,0.602,0.547,0.971,0.726
			c0.367,0.179,0.762,0.268,1.184,0.268c0.41,0,0.797-0.089,1.16-0.268c0.361-0.179,0.678-0.421,0.945-0.726
			c0.27-0.307,0.482-0.666,0.641-1.082c0.156-0.414,0.236-0.854,0.236-1.317c0-0.474-0.078-0.917-0.236-1.333
			c-0.158-0.415-0.371-0.779-0.641-1.088c-0.268-0.312-0.584-0.557-0.945-0.734c-0.363-0.18-0.75-0.269-1.16-0.269
			c-0.42,0-0.816,0.089-1.184,0.269c-0.369,0.179-0.693,0.423-0.971,0.734c-0.279,0.309-0.498,0.672-0.654,1.088
			C128.242,96.023,128.166,96.466,128.166,96.94z"/>
		<path fill="#515DA9" d="M136.529,93.642v0.426c0.252-0.4,0.568-0.708,0.947-0.923c0.379-0.216,0.793-0.324,1.244-0.324
			c0.369,0,0.713,0.075,1.035,0.229c0.32,0.153,0.6,0.358,0.838,0.616c0.236,0.257,0.424,0.562,0.566,0.915
			c0.143,0.353,0.219,0.729,0.23,1.128l0.045,5.13h-0.662l-0.016-5.13c-0.01-0.315-0.074-0.606-0.188-0.875
			c-0.117-0.269-0.27-0.502-0.459-0.702s-0.41-0.357-0.664-0.473c-0.25-0.116-0.52-0.174-0.805-0.174
			c-0.262,0-0.512,0.05-0.748,0.149c-0.238,0.101-0.451,0.24-0.641,0.419c-0.188,0.179-0.348,0.389-0.473,0.631
			s-0.211,0.505-0.252,0.789l0.016,5.366h-0.662l-0.016-7.165c0-0.18-0.01-0.329-0.025-0.45s-0.033-0.192-0.055-0.213h0.742V93.642z
			"/>
		<path fill="#515DA9" d="M147.449,94.241c-0.242-0.231-0.537-0.407-0.883-0.528c-0.348-0.121-0.717-0.182-1.105-0.182
			c-0.535,0-0.986,0.126-1.35,0.379c-0.363,0.252-0.545,0.579-0.545,0.978c0,0.19,0.049,0.374,0.143,0.553
			c0.096,0.18,0.229,0.345,0.402,0.498c0.174,0.152,0.381,0.281,0.623,0.386c0.242,0.105,0.506,0.181,0.789,0.222
			c0.357,0.053,0.689,0.153,0.994,0.301s0.568,0.323,0.789,0.528c0.221,0.206,0.391,0.438,0.512,0.695
			c0.123,0.258,0.182,0.528,0.182,0.813c0,0.316-0.068,0.6-0.203,0.852c-0.137,0.253-0.324,0.472-0.563,0.655
			c-0.234,0.185-0.51,0.327-0.818,0.427c-0.313,0.1-0.641,0.148-0.986,0.148c-0.496,0-0.971-0.088-1.43-0.268
			c-0.457-0.179-0.822-0.432-1.096-0.758l0.504-0.395c0.221,0.221,0.504,0.405,0.854,0.553c0.346,0.146,0.721,0.221,1.119,0.221
			c0.547,0,1.01-0.132,1.389-0.395s0.568-0.61,0.568-1.041c0-0.2-0.047-0.393-0.143-0.577c-0.096-0.183-0.229-0.354-0.402-0.513
			c-0.174-0.157-0.379-0.292-0.615-0.402s-0.498-0.187-0.781-0.229c-0.369-0.053-0.705-0.153-1.01-0.301
			c-0.305-0.146-0.568-0.323-0.789-0.528s-0.395-0.435-0.521-0.687c-0.125-0.253-0.189-0.516-0.189-0.789
			c0-0.294,0.072-0.565,0.215-0.813c0.141-0.248,0.334-0.457,0.576-0.632c0.24-0.174,0.52-0.308,0.836-0.401
			c0.316-0.096,0.652-0.143,1.01-0.143c0.496,0,0.961,0.092,1.396,0.276c0.438,0.183,0.791,0.417,1.064,0.701L147.449,94.241z"/>
	</g>
</g>
</svg>
