<?xml version="1.0" encoding="utf-8"?>
<!-- Generator: Adobe Illustrator 16.0.0, SVG Export Plug-In . SVG Version: 6.00 Build 0)  -->
<!DOCTYPE svg PUBLIC "-//W3C//DTD SVG 1.1//EN" "http://www.w3.org/Graphics/SVG/1.1/DTD/svg11.dtd">
<svg version="1.1" id="Layer_1" xmlns="http://www.w3.org/2000/svg" xmlns:xlink="http://www.w3.org/1999/xlink" x="0px" y="0px"
	 width="180px" height="110.083px" viewBox="-15 0 180 110.083" enable-background="new -15 0 180 110.083" xml:space="preserve">
<g>
	<path fill="#FFFFFF" d="M130.424,54.335c0,29.458-23.875,53.334-53.334,53.334S23.755,83.792,23.755,54.335
		C23.755,24.877,47.631,1,77.09,1S130.424,24.877,130.424,54.335z"/>
	<g>
		<path fill="#515DA9" d="M6.438,91.833v-0.047c-0.389-0.399-0.833-0.715-1.331-0.945c-0.498-0.231-1.032-0.347-1.598-0.347
			c-0.588,0-1.139,0.127-1.654,0.378s-0.967,0.599-1.354,1.04c-0.389,0.441-0.696,0.957-0.921,1.544
			c-0.225,0.587-0.338,1.218-0.338,1.89c0,0.662,0.107,1.289,0.323,1.882s0.512,1.112,0.89,1.559
			c0.377,0.446,0.827,0.801,1.346,1.063c0.52,0.263,1.089,0.394,1.709,0.394c0.566,0,1.091-0.112,1.575-0.339
			c0.483-0.225,0.924-0.537,1.323-0.938l0.44,0.442c-0.44,0.472-0.944,0.842-1.512,1.11c-0.567,0.269-1.175,0.402-1.826,0.402
			c-0.652,0-1.273-0.146-1.867-0.442c-0.594-0.294-1.118-0.692-1.575-1.196s-0.822-1.096-1.095-1.772s-0.409-1.399-0.409-2.165
			c0-0.733,0.128-1.436,0.386-2.102s0.609-1.252,1.056-1.757c0.447-0.503,0.968-0.905,1.567-1.205
			c0.598-0.3,1.244-0.448,1.937-0.448c0.651,0,1.268,0.133,1.851,0.401s1.089,0.639,1.52,1.109L6.438,91.833z"/>
		<path fill="#515DA9" d="M7.744,96.887c0-0.567,0.098-1.098,0.292-1.59c0.193-0.494,0.459-0.925,0.795-1.292
			s0.729-0.659,1.181-0.873c0.451-0.214,0.929-0.324,1.434-0.324c0.504,0,0.977,0.108,1.417,0.324
			c0.441,0.214,0.827,0.506,1.158,0.873s0.593,0.798,0.787,1.292c0.194,0.493,0.291,1.022,0.291,1.59
			c0,0.558-0.097,1.079-0.291,1.567c-0.194,0.487-0.457,0.915-0.787,1.283c-0.331,0.367-0.716,0.658-1.158,0.873
			c-0.44,0.214-0.914,0.323-1.417,0.323c-0.504,0-0.982-0.107-1.434-0.323c-0.452-0.215-0.845-0.506-1.181-0.873
			c-0.336-0.368-0.602-0.796-0.795-1.283C7.842,97.966,7.744,97.444,7.744,96.887z M8.406,96.887c0,0.462,0.079,0.901,0.237,1.315
			s0.375,0.773,0.654,1.078c0.278,0.305,0.601,0.546,0.969,0.726c0.367,0.179,0.761,0.268,1.181,0.268
			c0.409,0,0.795-0.089,1.157-0.268c0.362-0.18,0.677-0.42,0.945-0.726c0.267-0.305,0.48-0.664,0.638-1.078s0.237-0.854,0.237-1.315
			c0-0.472-0.079-0.916-0.237-1.33c-0.157-0.413-0.37-0.778-0.638-1.087c-0.268-0.309-0.583-0.555-0.945-0.731
			c-0.362-0.178-0.748-0.269-1.157-0.269c-0.42,0-0.814,0.09-1.181,0.269c-0.368,0.18-0.69,0.423-0.969,0.731
			S8.8,95.142,8.643,95.557C8.485,95.971,8.406,96.416,8.406,96.887z"/>
		<path fill="#515DA9" d="M16.753,93.595v0.426c0.252-0.399,0.567-0.706,0.944-0.922c0.379-0.215,0.793-0.322,1.244-0.322
			c0.368,0,0.711,0.074,1.031,0.229c0.321,0.151,0.599,0.356,0.835,0.613c0.236,0.258,0.426,0.562,0.567,0.914
			c0.142,0.352,0.218,0.728,0.229,1.126l0.047,5.118h-0.662l-0.016-5.118c-0.011-0.315-0.074-0.606-0.189-0.874
			c-0.116-0.267-0.268-0.5-0.457-0.699c-0.188-0.2-0.409-0.357-0.661-0.473c-0.252-0.115-0.52-0.173-0.804-0.173
			c-0.263,0-0.512,0.05-0.748,0.15s-0.449,0.238-0.638,0.417c-0.189,0.179-0.346,0.388-0.472,0.63s-0.21,0.503-0.252,0.786
			l0.016,5.356h-0.662l-0.016-7.151c0-0.179-0.008-0.329-0.024-0.447c-0.016-0.123-0.035-0.192-0.055-0.215h0.741L16.753,93.595
			L16.753,93.595L16.753,93.595z"/>
		<path fill="#515DA9" d="M22.675,92.903h0.708l2.819,6.961l2.803-6.961h0.756l-3.197,7.874h-0.709L22.675,92.903z"/>
		<path fill="#515DA9" d="M33.935,100.273c0.168,0,0.344-0.018,0.528-0.055c0.184-0.037,0.367-0.084,0.551-0.142
			c0.184-0.058,0.359-0.12,0.528-0.188s0.315-0.134,0.442-0.197l0.267,0.584c-0.272,0.147-0.566,0.271-0.881,0.378
			c-0.315,0.105-0.651,0.188-1.009,0.252h-0.016c-0.063,0.012-0.129,0.016-0.196,0.016c-0.068,0-0.14,0-0.213,0
			c-0.441,0-0.854-0.098-1.236-0.292c-0.383-0.194-0.725-0.462-1.023-0.803c-0.299-0.342-0.541-0.741-0.725-1.197
			c-0.183-0.458-0.291-0.948-0.323-1.473v-0.3c0-0.556,0.084-1.081,0.252-1.575c0.168-0.493,0.394-0.923,0.677-1.291
			c0.283-0.367,0.614-0.659,0.992-0.874c0.378-0.215,0.782-0.322,1.213-0.322c0.441,0,0.851,0.102,1.228,0.307
			c0.378,0.205,0.706,0.485,0.984,0.843s0.497,0.777,0.654,1.261c0.157,0.481,0.236,1.007,0.236,1.574v0.378h-5.559
			c0.021,0.442,0.105,0.85,0.252,1.229c0.147,0.379,0.338,0.705,0.575,0.984c0.236,0.279,0.509,0.5,0.819,0.662
			S33.589,100.273,33.935,100.273z M36.234,96.509c-0.032-0.42-0.118-0.815-0.26-1.189c-0.142-0.372-0.323-0.695-0.542-0.968
			c-0.222-0.272-0.473-0.489-0.756-0.645c-0.284-0.157-0.588-0.237-0.914-0.237c-0.315,0-0.614,0.078-0.898,0.237
			c-0.284,0.157-0.535,0.372-0.756,0.645s-0.402,0.596-0.543,0.968c-0.142,0.374-0.228,0.77-0.26,1.189H36.234z"/>
		<path fill="#515DA9" d="M41.116,93.501c-0.053-0.021-0.102-0.031-0.149-0.031c-0.048,0-0.098,0-0.15,0
			c-0.262,0-0.512,0.049-0.748,0.149c-0.237,0.101-0.449,0.239-0.639,0.418c-0.189,0.178-0.344,0.387-0.465,0.629
			c-0.12,0.243-0.202,0.503-0.244,0.787l0.016,5.323h-0.661l-0.016-7.119c0-0.179-0.007-0.347-0.023-0.503
			c-0.016-0.157-0.034-0.246-0.055-0.269h0.74v1.165c0.251-0.399,0.564-0.705,0.937-0.921c0.372-0.215,0.785-0.323,1.237-0.323
			c0.052,0,0.113,0.002,0.181,0.007c0.069,0.006,0.134,0.019,0.197,0.041L41.116,93.501z"/>
		<path fill="#515DA9" d="M47.1,94.195c-0.242-0.231-0.535-0.407-0.882-0.528s-0.713-0.182-1.102-0.182
			c-0.536,0-0.985,0.126-1.347,0.378c-0.362,0.252-0.544,0.579-0.544,0.977c0,0.188,0.047,0.374,0.142,0.553
			s0.229,0.344,0.402,0.496c0.173,0.152,0.38,0.281,0.621,0.386c0.242,0.105,0.505,0.179,0.788,0.22
			c0.356,0.053,0.688,0.152,0.991,0.3s0.566,0.323,0.786,0.528c0.221,0.204,0.391,0.437,0.513,0.693
			c0.12,0.258,0.182,0.528,0.182,0.812c0,0.315-0.069,0.599-0.206,0.851c-0.135,0.252-0.322,0.471-0.559,0.653
			c-0.235,0.186-0.51,0.326-0.817,0.426c-0.31,0.099-0.639,0.149-0.984,0.149c-0.495,0-0.97-0.09-1.427-0.27
			c-0.456-0.178-0.82-0.43-1.094-0.756l0.505-0.393c0.22,0.22,0.503,0.404,0.85,0.55c0.346,0.148,0.721,0.222,1.119,0.222
			c0.545,0,1.008-0.13,1.386-0.394c0.378-0.263,0.566-0.609,0.566-1.04c0-0.199-0.047-0.391-0.142-0.575
			c-0.096-0.183-0.229-0.354-0.401-0.512c-0.173-0.157-0.378-0.292-0.615-0.401c-0.236-0.11-0.497-0.187-0.779-0.229
			c-0.368-0.053-0.703-0.152-1.009-0.301c-0.304-0.146-0.567-0.322-0.786-0.527c-0.221-0.205-0.395-0.434-0.521-0.686
			c-0.125-0.252-0.188-0.514-0.188-0.786c0-0.295,0.071-0.563,0.213-0.812c0.143-0.247,0.334-0.457,0.574-0.63
			c0.241-0.174,0.521-0.307,0.835-0.402c0.316-0.095,0.65-0.142,1.009-0.142c0.493,0,0.957,0.093,1.394,0.275
			c0.436,0.184,0.789,0.416,1.063,0.699L47.1,94.195z"/>
		<path fill="#515DA9" d="M53.385,100.148c-0.243,0.242-0.527,0.433-0.851,0.574c-0.326,0.142-0.678,0.213-1.055,0.213
			c-0.349,0-0.676-0.063-0.985-0.188c-0.31-0.127-0.578-0.298-0.804-0.512c-0.226-0.215-0.407-0.468-0.544-0.757
			c-0.136-0.289-0.204-0.596-0.204-0.921c0-0.348,0.071-0.668,0.213-0.961s0.332-0.549,0.575-0.764
			c0.241-0.214,0.521-0.381,0.841-0.496c0.322-0.115,0.659-0.174,1.016-0.174h1.795v-0.346c0-0.315-0.039-0.614-0.118-0.9
			c-0.079-0.281-0.19-0.528-0.338-0.739c-0.147-0.21-0.324-0.378-0.528-0.503c-0.205-0.127-0.434-0.194-0.685-0.205h-0.017
			c-0.683,0-1.29,0.078-1.826,0.237l-0.156-0.63c0.618-0.18,1.28-0.27,1.985-0.27h0.015c0.303,0.012,0.593,0.087,0.867,0.229
			c0.271,0.141,0.515,0.333,0.725,0.574c0.21,0.243,0.38,0.527,0.512,0.851c0.131,0.327,0.207,0.673,0.229,1.041v0.157
			c-0.011,0.263-0.016,0.541-0.016,0.836c-0.011,0.251-0.015,0.538-0.015,0.857c0,0.321,0,0.644,0,0.969
			c0,0.304,0.001,0.598,0.008,0.883c0.005,0.281,0.015,0.539,0.022,0.77c0.012,0.232,0.024,0.418,0.041,0.56
			c0.015,0.142,0.034,0.224,0.055,0.243h-0.74L53.385,100.148z M53.385,96.808h-1.796c-0.273,0-0.528,0.043-0.764,0.127
			c-0.236,0.084-0.443,0.202-0.622,0.354c-0.179,0.153-0.32,0.335-0.426,0.552c-0.104,0.215-0.156,0.453-0.156,0.718
			c0,0.241,0.047,0.464,0.141,0.669c0.096,0.205,0.227,0.384,0.396,0.535c0.167,0.152,0.364,0.272,0.589,0.361
			c0.226,0.09,0.471,0.135,0.732,0.135c0.261,0,0.508-0.045,0.739-0.135c0.231-0.089,0.434-0.211,0.606-0.361
			c0.173-0.154,0.311-0.33,0.41-0.535s0.15-0.428,0.15-0.669V96.808L53.385,96.808z"/>
		<path fill="#515DA9" d="M57.337,89.895v3.118h2.126v0.678h-2.126l0.015,7.086h-0.629c-0.012-0.902-0.016-1.784-0.016-2.645v-4.44
			h-1.196v-0.678h1.165v-3.118L57.337,89.895L57.337,89.895z"/>
		<path fill="#515DA9" d="M60.958,90.541c0-0.115,0.046-0.214,0.134-0.3c0.091-0.083,0.197-0.127,0.323-0.127
			c0.116,0,0.221,0.044,0.315,0.127c0.095,0.084,0.143,0.185,0.143,0.3s-0.048,0.215-0.143,0.3s-0.199,0.126-0.315,0.126
			c-0.126,0-0.232-0.041-0.323-0.126C61.004,90.755,60.958,90.656,60.958,90.541z M61.085,92.903h0.646l0.015,7.874h-0.645
			L61.085,92.903z"/>
		<path fill="#515DA9" d="M63.195,96.887c0-0.567,0.097-1.098,0.292-1.59c0.193-0.494,0.459-0.925,0.795-1.292
			s0.729-0.659,1.181-0.873c0.451-0.214,0.929-0.324,1.433-0.324c0.505,0,0.979,0.108,1.418,0.324
			c0.44,0.214,0.827,0.506,1.157,0.873c0.331,0.367,0.593,0.798,0.787,1.292c0.193,0.493,0.291,1.022,0.291,1.59
			c0,0.558-0.098,1.079-0.291,1.567c-0.194,0.487-0.456,0.915-0.787,1.283c-0.33,0.367-0.717,0.658-1.157,0.873
			c-0.44,0.214-0.913,0.323-1.418,0.323c-0.502,0-0.981-0.107-1.433-0.323c-0.451-0.215-0.844-0.506-1.181-0.873
			c-0.337-0.368-0.602-0.796-0.795-1.283C63.292,97.966,63.195,97.444,63.195,96.887z M63.857,96.887
			c0,0.462,0.078,0.901,0.236,1.315c0.157,0.414,0.375,0.773,0.653,1.078c0.277,0.305,0.602,0.546,0.968,0.726
			c0.368,0.179,0.762,0.268,1.181,0.268c0.411,0,0.796-0.089,1.158-0.268c0.362-0.18,0.677-0.42,0.945-0.726
			c0.268-0.305,0.48-0.664,0.638-1.078c0.158-0.414,0.237-0.854,0.237-1.315c0-0.472-0.079-0.916-0.237-1.33
			c-0.157-0.413-0.37-0.778-0.638-1.087c-0.269-0.309-0.583-0.555-0.945-0.731c-0.362-0.179-0.748-0.269-1.158-0.269
			c-0.418,0-0.813,0.09-1.181,0.269c-0.366,0.18-0.69,0.423-0.968,0.731c-0.278,0.309-0.497,0.672-0.653,1.087
			C63.936,95.971,63.857,96.416,63.857,96.887z"/>
		<path fill="#515DA9" d="M72.204,93.595v0.426c0.252-0.399,0.566-0.706,0.943-0.922c0.381-0.215,0.794-0.322,1.245-0.322
			c0.367,0,0.711,0.074,1.031,0.229c0.32,0.151,0.599,0.356,0.836,0.613c0.235,0.258,0.424,0.562,0.566,0.914
			c0.142,0.352,0.218,0.728,0.229,1.126l0.046,5.118h-0.661l-0.016-5.118c-0.01-0.315-0.073-0.606-0.188-0.874
			c-0.115-0.267-0.269-0.5-0.457-0.699c-0.188-0.2-0.409-0.357-0.661-0.473c-0.251-0.115-0.52-0.173-0.803-0.173
			c-0.264,0-0.512,0.05-0.748,0.15c-0.237,0.101-0.449,0.238-0.639,0.417c-0.188,0.179-0.348,0.388-0.472,0.63
			c-0.126,0.242-0.211,0.503-0.252,0.786l0.015,5.356h-0.661l-0.015-7.151c0-0.179-0.009-0.329-0.024-0.447
			c-0.015-0.123-0.035-0.192-0.055-0.215h0.74V93.595z"/>
		<path fill="#515DA9" d="M82.818,100.148c-0.242,0.242-0.526,0.433-0.85,0.574c-0.326,0.142-0.678,0.213-1.056,0.213
			c-0.347,0-0.674-0.063-0.985-0.188c-0.309-0.127-0.577-0.298-0.803-0.512c-0.227-0.215-0.407-0.468-0.544-0.757
			c-0.136-0.289-0.205-0.596-0.205-0.921c0-0.348,0.071-0.668,0.214-0.961c0.142-0.294,0.332-0.549,0.574-0.764
			c0.241-0.214,0.522-0.381,0.843-0.496s0.658-0.174,1.015-0.174h1.796v-0.346c0-0.315-0.04-0.614-0.119-0.9
			c-0.079-0.281-0.19-0.528-0.339-0.739c-0.147-0.21-0.323-0.378-0.528-0.503c-0.204-0.127-0.434-0.194-0.686-0.205h-0.015
			c-0.683,0-1.291,0.078-1.826,0.237l-0.157-0.63c0.618-0.18,1.28-0.27,1.984-0.27h0.016c0.304,0.012,0.593,0.087,0.867,0.229
			c0.271,0.141,0.514,0.333,0.725,0.574c0.211,0.243,0.381,0.527,0.513,0.851c0.129,0.327,0.206,0.673,0.228,1.041v0.157
			c-0.011,0.263-0.016,0.541-0.016,0.836c-0.011,0.251-0.016,0.538-0.016,0.857c0,0.321,0,0.644,0,0.969
			c0,0.304,0.003,0.598,0.009,0.883c0.006,0.281,0.015,0.539,0.023,0.77c0.01,0.232,0.023,0.418,0.039,0.56s0.035,0.224,0.055,0.243
			h-0.74L82.818,100.148z M82.818,96.808h-1.796c-0.272,0-0.528,0.043-0.764,0.127s-0.443,0.202-0.622,0.354
			c-0.179,0.153-0.319,0.335-0.424,0.552c-0.105,0.215-0.156,0.453-0.156,0.718c0,0.241,0.046,0.464,0.142,0.669
			s0.225,0.384,0.393,0.535c0.168,0.152,0.365,0.272,0.591,0.361c0.225,0.09,0.47,0.135,0.731,0.135s0.508-0.045,0.74-0.135
			c0.23-0.089,0.433-0.211,0.605-0.361c0.174-0.154,0.311-0.33,0.411-0.535s0.149-0.428,0.149-0.669L82.818,96.808L82.818,96.808z"
			/>
		<path fill="#515DA9" d="M85.164,89.895h0.661l0.017,10.882H85.18L85.164,89.895z"/>
		<path fill="#515DA9" d="M95.4,100.729h-0.662l-0.016-10.883h0.662L95.4,100.729z"/>
		<path fill="#515DA9" d="M97.4,93.548v0.426c0.252-0.399,0.566-0.707,0.944-0.922c0.378-0.214,0.794-0.323,1.244-0.323
			c0.368,0,0.711,0.074,1.032,0.228c0.32,0.153,0.598,0.356,0.834,0.614c0.236,0.257,0.426,0.561,0.566,0.913
			c0.143,0.353,0.219,0.728,0.229,1.127l0.047,5.118h-0.66l-0.016-5.118c-0.011-0.315-0.072-0.606-0.189-0.873
			c-0.115-0.269-0.268-0.501-0.457-0.701c-0.188-0.199-0.408-0.356-0.661-0.472c-0.253-0.113-0.52-0.174-0.804-0.174
			c-0.262,0-0.512,0.051-0.748,0.15c-0.234,0.1-0.448,0.24-0.637,0.418c-0.189,0.178-0.346,0.388-0.473,0.63
			c-0.126,0.241-0.211,0.504-0.252,0.786l0.016,5.355h-0.662l-0.016-7.15c0-0.179-0.008-0.329-0.023-0.449
			c-0.016-0.121-0.034-0.191-0.055-0.213h0.74V93.548z"/>
		<path fill="#515DA9" d="M105.574,89.846v3.119h2.125v0.677h-2.125l0.016,7.087h-0.631c-0.01-0.902-0.016-1.784-0.016-2.646v-4.44
			h-1.195v-0.678h1.164v-3.118L105.574,89.846L105.574,89.846z"/>
		<path fill="#515DA9" d="M112.063,100.226c0.168,0,0.344-0.019,0.527-0.056s0.368-0.084,0.551-0.142
			c0.184-0.058,0.359-0.12,0.528-0.188s0.315-0.134,0.442-0.197l0.267,0.583c-0.272,0.147-0.567,0.272-0.882,0.379
			c-0.314,0.104-0.65,0.188-1.008,0.251h-0.016c-0.063,0.012-0.129,0.016-0.197,0.016c-0.067,0-0.139,0-0.213,0
			c-0.441,0-0.854-0.098-1.236-0.292s-0.725-0.461-1.023-0.802c-0.299-0.342-0.541-0.74-0.725-1.197s-0.291-0.948-0.322-1.473v-0.3
			c0-0.556,0.084-1.081,0.252-1.574c0.168-0.495,0.395-0.925,0.676-1.292c0.284-0.367,0.615-0.659,0.992-0.874
			c0.379-0.215,0.783-0.323,1.213-0.323c0.441,0,0.852,0.102,1.229,0.308c0.379,0.205,0.706,0.485,0.984,0.843
			s0.496,0.777,0.654,1.26c0.156,0.483,0.236,1.008,0.236,1.574v0.379h-5.559c0.02,0.442,0.104,0.851,0.252,1.229
			c0.146,0.378,0.338,0.706,0.574,0.984c0.236,0.279,0.51,0.501,0.818,0.662C111.388,100.145,111.716,100.226,112.063,100.226z
			 M114.361,96.461c-0.031-0.419-0.117-0.815-0.26-1.188c-0.142-0.372-0.322-0.695-0.543-0.969
			c-0.221-0.271-0.472-0.487-0.756-0.646c-0.283-0.156-0.588-0.235-0.914-0.235c-0.314,0-0.613,0.077-0.898,0.235
			c-0.283,0.158-0.535,0.374-0.756,0.646c-0.221,0.273-0.4,0.597-0.543,0.969c-0.143,0.373-0.229,0.77-0.26,1.188H114.361z"/>
		<path fill="#515DA9" d="M119.244,93.454c-0.053-0.021-0.104-0.031-0.15-0.031s-0.098,0-0.148,0c-0.264,0-0.513,0.049-0.748,0.149
			c-0.236,0.101-0.449,0.239-0.639,0.417c-0.189,0.18-0.344,0.389-0.465,0.631s-0.202,0.504-0.244,0.786l0.016,5.323h-0.661
			l-0.017-7.118c0-0.18-0.007-0.347-0.023-0.503c-0.016-0.157-0.033-0.246-0.055-0.27h0.74v1.166
			c0.252-0.398,0.564-0.706,0.938-0.921c0.372-0.215,0.785-0.324,1.236-0.324c0.053,0,0.113,0.003,0.182,0.009
			c0.068,0.005,0.133,0.018,0.196,0.04L119.244,93.454z"/>
		<path fill="#515DA9" d="M124.488,90.461c-0.072-0.021-0.162-0.031-0.27-0.031c-0.105,0-0.203,0-0.297,0
			c-0.232,0.011-0.447,0.072-0.646,0.188c-0.2,0.116-0.375,0.272-0.529,0.472c-0.152,0.2-0.27,0.432-0.354,0.694
			c-0.084,0.262-0.127,0.541-0.127,0.834v0.41h2.08v0.677h-2.08l0.016,7.023h-0.613c-0.011-0.88-0.016-1.753-0.016-2.614v-4.41
			h-1.197v-0.677h1.166c0.01,0,0.016-0.036,0.016-0.11c0-0.02-0.003-0.048-0.008-0.086c-0.006-0.037-0.008-0.071-0.008-0.102v-0.11
			v-0.188c0.021-0.357,0.094-0.697,0.221-1.017c0.125-0.319,0.291-0.601,0.496-0.842c0.204-0.242,0.443-0.434,0.717-0.574
			c0.271-0.142,0.561-0.214,0.865-0.214c0.137,0,0.266,0,0.385,0c0.121,0,0.242,0.013,0.371,0.031L124.488,90.461z"/>
		<path fill="#515DA9" d="M130.111,100.099c-0.244,0.241-0.527,0.434-0.852,0.575c-0.326,0.141-0.676,0.213-1.057,0.213
			c-0.346,0-0.672-0.063-0.984-0.188c-0.307-0.126-0.576-0.298-0.803-0.512c-0.225-0.214-0.406-0.467-0.543-0.757
			c-0.137-0.289-0.205-0.595-0.205-0.92c0-0.348,0.072-0.668,0.213-0.961c0.143-0.294,0.334-0.55,0.574-0.764
			c0.244-0.215,0.523-0.382,0.844-0.497s0.658-0.173,1.016-0.173h1.795v-0.347c0-0.315-0.039-0.614-0.119-0.898
			c-0.078-0.283-0.189-0.53-0.338-0.741c-0.148-0.209-0.324-0.377-0.529-0.503s-0.434-0.194-0.684-0.204h-0.016
			c-0.684,0-1.293,0.078-1.826,0.236l-0.158-0.631c0.619-0.178,1.281-0.267,1.986-0.267h0.016c0.303,0.01,0.592,0.085,0.865,0.228
			c0.273,0.142,0.514,0.333,0.725,0.574c0.211,0.243,0.381,0.525,0.512,0.852c0.131,0.324,0.209,0.672,0.229,1.039v0.158
			c-0.01,0.262-0.016,0.541-0.016,0.835c-0.01,0.251-0.014,0.538-0.014,0.857c0,0.321,0,0.644,0,0.969
			c0,0.305,0.002,0.599,0.008,0.882s0.014,0.541,0.023,0.771c0.012,0.231,0.023,0.418,0.039,0.559
			c0.016,0.142,0.035,0.223,0.057,0.243h-0.74L130.111,100.099z M130.111,96.76h-1.797c-0.271,0-0.527,0.042-0.764,0.127
			c-0.234,0.084-0.443,0.202-0.621,0.354c-0.18,0.154-0.322,0.337-0.426,0.554c-0.104,0.213-0.156,0.452-0.156,0.715
			c0,0.242,0.045,0.465,0.141,0.67s0.227,0.385,0.395,0.536c0.166,0.152,0.363,0.272,0.59,0.362c0.225,0.089,0.471,0.133,0.73,0.133
			c0.264,0,0.51-0.044,0.742-0.133c0.23-0.09,0.434-0.212,0.605-0.362c0.174-0.153,0.309-0.331,0.41-0.536
			c0.1-0.205,0.15-0.428,0.15-0.67V96.76L130.111,96.76z"/>
		<path fill="#515DA9" d="M137.795,94.477c-0.271-0.315-0.6-0.569-0.984-0.764c-0.383-0.193-0.801-0.291-1.252-0.291
			c-0.43,0-0.834,0.09-1.213,0.268c-0.379,0.18-0.705,0.42-0.984,0.726s-0.5,0.665-0.662,1.078c-0.162,0.415-0.242,0.859-0.242,1.33
			c0,0.462,0.08,0.901,0.242,1.314c0.162,0.416,0.383,0.776,0.662,1.079c0.277,0.305,0.605,0.547,0.984,0.725
			c0.379,0.18,0.783,0.27,1.213,0.27c0.432,0,0.836-0.09,1.213-0.27c0.379-0.178,0.709-0.426,0.992-0.74l0.473,0.457
			c-0.355,0.368-0.76,0.662-1.213,0.882c-0.451,0.22-0.939,0.331-1.465,0.331c-0.516,0-1-0.107-1.457-0.323
			s-0.855-0.507-1.197-0.874s-0.611-0.795-0.811-1.284c-0.199-0.487-0.301-1.01-0.301-1.566s0.1-1.082,0.301-1.574
			c0.199-0.494,0.469-0.925,0.811-1.292s0.74-0.659,1.197-0.874c0.457-0.214,0.941-0.322,1.457-0.322
			c0.545,0,1.049,0.112,1.512,0.337c0.461,0.227,0.859,0.523,1.197,0.891L137.795,94.477z"/>
		<path fill="#515DA9" d="M142.725,100.226c0.168,0,0.344-0.019,0.527-0.056s0.367-0.084,0.551-0.142
			c0.186-0.058,0.359-0.12,0.529-0.188c0.166-0.068,0.314-0.134,0.439-0.197l0.27,0.583c-0.271,0.147-0.566,0.272-0.881,0.379
			c-0.316,0.104-0.65,0.188-1.01,0.251h-0.014c-0.064,0.012-0.129,0.016-0.197,0.016c-0.07,0-0.141,0-0.213,0
			c-0.441,0-0.854-0.098-1.236-0.292c-0.385-0.194-0.725-0.461-1.023-0.802c-0.299-0.342-0.541-0.74-0.727-1.197
			c-0.184-0.457-0.291-0.948-0.322-1.473v-0.3c0-0.556,0.084-1.081,0.252-1.574c0.168-0.495,0.393-0.925,0.676-1.292
			s0.613-0.659,0.994-0.874c0.377-0.215,0.781-0.323,1.211-0.323c0.441,0,0.85,0.102,1.229,0.308
			c0.379,0.205,0.707,0.485,0.986,0.843c0.277,0.357,0.496,0.777,0.652,1.26c0.158,0.483,0.236,1.008,0.236,1.574v0.379h-5.559
			c0.02,0.442,0.104,0.851,0.252,1.229c0.146,0.378,0.338,0.706,0.576,0.984c0.234,0.279,0.508,0.501,0.816,0.662
			C142.051,100.145,142.377,100.226,142.725,100.226z M145.023,96.461c-0.031-0.419-0.117-0.815-0.26-1.188
			c-0.143-0.372-0.324-0.695-0.543-0.969c-0.221-0.271-0.473-0.487-0.756-0.646c-0.285-0.156-0.59-0.235-0.914-0.235
			c-0.314,0-0.615,0.077-0.898,0.235s-0.535,0.374-0.756,0.646c-0.221,0.273-0.402,0.597-0.543,0.969
			c-0.143,0.373-0.229,0.77-0.262,1.188H145.023z"/>
		<path fill="#515DA9" d="M151.496,94.146c-0.242-0.229-0.535-0.406-0.881-0.528c-0.348-0.12-0.715-0.181-1.104-0.181
			c-0.533,0-0.984,0.126-1.346,0.378s-0.545,0.579-0.545,0.977c0,0.188,0.047,0.373,0.143,0.552c0.094,0.18,0.229,0.344,0.402,0.497
			c0.172,0.152,0.381,0.281,0.621,0.385c0.242,0.105,0.504,0.181,0.787,0.222c0.357,0.052,0.688,0.152,0.992,0.3
			s0.568,0.323,0.787,0.527c0.221,0.206,0.391,0.438,0.512,0.694s0.182,0.527,0.182,0.812c0,0.314-0.068,0.599-0.205,0.851
			c-0.137,0.251-0.324,0.47-0.559,0.653c-0.236,0.184-0.51,0.326-0.818,0.426c-0.311,0.1-0.639,0.148-0.984,0.148
			c-0.496,0-0.969-0.089-1.426-0.268c-0.457-0.18-0.822-0.432-1.096-0.757l0.504-0.394c0.221,0.221,0.504,0.404,0.85,0.552
			c0.348,0.147,0.721,0.22,1.119,0.22c0.545,0,1.008-0.13,1.385-0.395c0.377-0.262,0.566-0.607,0.566-1.038
			c0-0.199-0.047-0.392-0.141-0.575c-0.096-0.184-0.229-0.355-0.402-0.512c-0.174-0.157-0.379-0.293-0.613-0.402
			c-0.238-0.109-0.498-0.186-0.779-0.228c-0.369-0.053-0.705-0.154-1.01-0.302c-0.303-0.146-0.566-0.322-0.785-0.527
			c-0.221-0.205-0.396-0.434-0.521-0.685c-0.127-0.252-0.189-0.515-0.189-0.788c0-0.293,0.072-0.563,0.213-0.81
			c0.143-0.248,0.334-0.457,0.576-0.63c0.242-0.175,0.52-0.308,0.834-0.402c0.316-0.096,0.65-0.143,1.01-0.143
			c0.494,0,0.957,0.094,1.393,0.276c0.438,0.184,0.789,0.416,1.064,0.7L151.496,94.146z"/>
	</g>
	<g>
		<g>
			<g>
				<path fill="#151530" d="M83.104,60.635v1.473h13.256v2.21c0,1.219-0.99,2.21-2.209,2.21H55.849c-1.218,0-2.209-0.991-2.209-2.21
					v-2.21h13.258v-1.473H52.167v3.683c0,2.03,1.652,3.684,3.683,3.684h38.3c2.031,0,3.684-1.652,3.684-3.684v-3.683H83.104z"/>
				<path fill="#151530" d="M70.581,65.054h8.838c1.22,0,2.21-0.991,2.21-2.21v-2.209H68.371v2.209
					C68.371,64.063,69.362,65.054,70.581,65.054z M69.844,62.107h10.312v0.737c0,0.407-0.331,0.737-0.737,0.737h-8.838
					c-0.406,0-0.736-0.33-0.736-0.737L69.844,62.107L69.844,62.107z"/>
				<path fill="#151530" d="M55.113,35.592c0-1.218,0.991-2.21,2.209-2.21h5.156v-1.473h-5.156c-2.031,0-3.683,1.652-3.683,3.683
					v23.57h1.473L55.113,35.592L55.113,35.592z"/>
				<path fill="#151530" d="M94.889,35.592v23.57h1.473v-23.57c0-2.031-1.652-3.683-3.684-3.683h-5.156v1.473h5.156
					C93.896,33.382,94.889,34.374,94.889,35.592z"/>
				<path fill="#151530" d="M56.586,36.328v22.834h1.473V36.328h5.893v-1.473h-5.893C57.247,34.855,56.586,35.516,56.586,36.328z"/>
				<path fill="#151530" d="M93.414,59.162V36.328c0-0.812-0.66-1.473-1.473-1.473h-5.894v1.473h5.894v22.834H93.414z"/>
				<rect x="77.21" y="44.431" fill="#151530" width="1.474" height="10.312"/>
				<rect x="71.317" y="44.431" fill="#151530" width="1.473" height="10.312"/>
				<path fill="#151530" d="M86.049,50.323V48.85h-2.945c-0.406,0-0.737-0.33-0.737-0.737v-4.419h-1.474v4.419
					c0,1.218,0.991,2.21,2.211,2.21H86.049z"/>
				<path fill="#151530" d="M69.107,48.113v-4.419h-1.473v4.419c0,0.407-0.331,0.737-0.736,0.737h-2.946v1.473h2.946
					C68.116,50.323,69.107,49.332,69.107,48.113z"/>
				<rect x="77.21" y="56.215" fill="#151530" width="1.474" height="1.473"/>
				<rect x="71.317" y="56.215" fill="#151530" width="1.473" height="1.473"/>
				<rect x="87.521" y="48.85" fill="#151530" width="1.474" height="1.473"/>
				<rect x="61.005" y="48.85" fill="#151530" width="1.473" height="1.473"/>
				<path fill="#151530" d="M65.509,34.908c-0.056,0.225-0.084,0.454-0.084,0.684c0,1.07,0.584,2.042,1.493,2.558
					c-0.012,0.128-0.02,0.257-0.02,0.388c0,2.438,1.982,4.419,4.419,4.419c1.536,0,2.89-0.789,3.683-1.981
					c0.793,1.193,2.146,1.981,3.684,1.981c2.438,0,4.42-1.982,4.42-4.419c0-0.131-0.01-0.26-0.021-0.388
					c0.908-0.517,1.493-1.488,1.493-2.558c0-0.23-0.027-0.458-0.084-0.684c0.963-0.682,1.558-1.798,1.558-3
					c0-1.19-0.586-2.303-1.543-2.99c0.042-0.225,0.069-0.455,0.069-0.692c0-1.877-1.417-3.414-3.235-3.637
					c-0.559-1.324-1.869-2.255-3.395-2.255c-1.209,0-2.273,0.594-2.945,1.496c-0.672-0.902-1.737-1.496-2.946-1.496
					c-1.525,0-2.835,0.932-3.394,2.255c-1.818,0.224-3.235,1.76-3.235,3.637c0,0.237,0.027,0.468,0.07,0.692
					c-0.958,0.687-1.543,1.8-1.543,2.99C63.952,33.11,64.546,34.226,65.509,34.908z M75.736,26.016c0-1.218,0.99-2.209,2.209-2.209
					c1.22,0,2.211,0.991,2.211,2.209c0,1.218-0.991,2.21-2.211,2.21v1.473c1.986,0,3.599-1.583,3.67-3.551
					c0.863,0.301,1.486,1.114,1.486,2.078c0,1.218-0.992,2.209-2.209,2.209v1.473c1.246,0,2.348-0.626,3.014-1.578
					c0.42,0.411,0.669,0.978,0.669,1.578c0,0.859-0.509,1.646-1.296,2.005l-0.703,0.321l0.354,0.687
					c0.113,0.221,0.172,0.446,0.172,0.67c0,0.398-0.174,0.759-0.442,1.03c-0.716-1.479-2.226-2.503-3.978-2.503v1.473
					c1.625,0,2.946,1.321,2.946,2.946s-1.321,2.947-2.946,2.947s-2.945-1.322-2.945-2.947V26.016z M66.093,30.331
					c0.667,0.951,1.767,1.578,3.014,1.578v-1.473c-1.218,0-2.209-0.991-2.209-2.209c0-0.964,0.624-1.777,1.486-2.078
					c0.071,1.968,1.684,3.551,3.669,3.551v-1.473c-1.218,0-2.209-0.992-2.209-2.21c0-1.218,0.991-2.209,2.209-2.209
					c1.218,0,2.21,0.991,2.21,2.209v12.521c0,1.625-1.322,2.947-2.946,2.947c-1.625,0-2.947-1.322-2.947-2.947
					s1.322-2.946,2.947-2.946v-1.473c-1.75,0-3.261,1.024-3.976,2.503c-0.27-0.271-0.443-0.631-0.443-1.03
					c0-0.225,0.057-0.449,0.171-0.67l0.354-0.687l-0.704-0.322c-0.787-0.359-1.295-1.146-1.295-2.004
					C65.425,31.309,65.674,30.742,66.093,30.331z"/>
				<rect x="55.113" y="63.582" fill="#151530" width="1.473" height="1.473"/>
				<rect x="58.059" y="63.582" fill="#151530" width="1.473" height="1.473"/>
				<rect x="61.005" y="63.582" fill="#151530" width="1.473" height="1.473"/>
			</g>
		</g>
	</g>
</g>
</svg>
