<?xml version="1.0" encoding="utf-8"?>
<!-- Generator: Adobe Illustrator 16.0.0, SVG Export Plug-In . SVG Version: 6.00 Build 0)  -->
<!DOCTYPE svg PUBLIC "-//W3C//DTD SVG 1.1//EN" "http://www.w3.org/Graphics/SVG/1.1/DTD/svg11.dtd">
<svg version="1.1" id="Layer_1" xmlns="http://www.w3.org/2000/svg" xmlns:xlink="http://www.w3.org/1999/xlink" x="0px" y="0px"
	 width="150px" height="127.667px" viewBox="0 0 150 127.667" enable-background="new 0 0 150 127.667" xml:space="preserve">
<g>
	<path fill="#FFFFFF" d="M130.424,54.335c0,29.458-23.875,53.334-53.334,53.334S23.755,83.792,23.755,54.335
		C23.755,24.877,47.631,1,77.09,1S130.424,24.877,130.424,54.335z"/>
	<g>
		<path fill="#515DA9" d="M22.785,85.867v-0.068c-0.567-0.582-1.214-1.043-1.941-1.379c-0.727-0.338-1.505-0.506-2.332-0.506
			c-0.858,0-1.662,0.185-2.412,0.551c-0.751,0.367-1.41,0.873-1.976,1.518c-0.567,0.643-1.015,1.395-1.344,2.251
			c-0.329,0.858-0.494,1.777-0.494,2.757c0,0.965,0.157,1.881,0.471,2.746s0.747,1.623,1.298,2.274
			c0.551,0.651,1.206,1.168,1.964,1.551s1.589,0.574,2.493,0.574c0.827,0,1.593-0.164,2.298-0.494
			c0.704-0.329,1.347-0.784,1.93-1.367l0.643,0.644c-0.643,0.689-1.378,1.229-2.206,1.621c-0.828,0.391-1.715,0.586-2.665,0.586
			c-0.95,0-1.857-0.215-2.723-0.645c-0.866-0.429-1.631-1.011-2.297-1.746c-0.666-0.734-1.199-1.597-1.597-2.585
			c-0.398-0.987-0.597-2.041-0.597-3.159c0-1.07,0.187-2.094,0.563-3.066c0.376-0.971,0.888-1.826,1.54-2.563
			c0.651-0.734,1.413-1.32,2.286-1.757s1.815-0.655,2.826-0.655c0.95,0,1.85,0.195,2.7,0.586s1.589,0.932,2.217,1.619L22.785,85.867
			z"/>
		<path fill="#515DA9" d="M24.691,93.242c0-0.828,0.142-1.602,0.425-2.32c0.283-0.721,0.67-1.349,1.16-1.885
			c0.49-0.535,1.064-0.961,1.723-1.274c0.658-0.313,1.355-0.472,2.091-0.472c0.735,0,1.424,0.157,2.067,0.472
			c0.644,0.313,1.207,0.739,1.689,1.274c0.482,0.536,0.865,1.164,1.148,1.885c0.284,0.72,0.425,1.492,0.425,2.32
			c0,0.812-0.142,1.573-0.425,2.285c-0.283,0.712-0.666,1.336-1.148,1.872c-0.482,0.536-1.045,0.962-1.689,1.274
			c-0.643,0.313-1.333,0.472-2.067,0.472c-0.735,0-1.433-0.157-2.091-0.472c-0.659-0.313-1.233-0.738-1.723-1.274
			c-0.49-0.536-0.877-1.16-1.16-1.872C24.833,94.815,24.691,94.053,24.691,93.242z M25.656,93.242c0,0.674,0.115,1.313,0.345,1.918
			c0.23,0.604,0.547,1.129,0.954,1.573c0.406,0.444,0.876,0.797,1.413,1.058c0.536,0.26,1.11,0.391,1.723,0.391
			c0.597,0,1.16-0.131,1.688-0.391c0.528-0.261,0.988-0.612,1.378-1.058c0.39-0.444,0.701-0.969,0.931-1.573
			c0.229-0.604,0.345-1.244,0.345-1.918c0-0.689-0.115-1.337-0.345-1.941s-0.54-1.135-0.931-1.586
			c-0.391-0.451-0.85-0.808-1.378-1.067c-0.528-0.26-1.091-0.392-1.688-0.392c-0.613,0-1.188,0.131-1.723,0.392
			c-0.537,0.261-1.007,0.616-1.413,1.067c-0.406,0.451-0.724,0.98-0.954,1.586C25.771,91.905,25.656,92.552,25.656,93.242z"/>
		<path fill="#515DA9" d="M37.833,88.439v0.62c0.368-0.582,0.827-1.03,1.378-1.345c0.552-0.313,1.157-0.471,1.815-0.471
			c0.536,0,1.037,0.11,1.505,0.334c0.467,0.221,0.873,0.521,1.217,0.896c0.345,0.376,0.621,0.819,0.827,1.333
			c0.207,0.513,0.318,1.061,0.333,1.643l0.069,7.467h-0.965l-0.023-7.467c-0.016-0.46-0.107-0.885-0.276-1.275
			s-0.391-0.73-0.667-1.021c-0.275-0.291-0.597-0.521-0.965-0.689s-0.758-0.252-1.172-0.252c-0.383,0-0.747,0.072-1.091,0.219
			c-0.344,0.146-0.655,0.349-0.93,0.609c-0.276,0.26-0.505,0.565-0.689,0.918c-0.184,0.354-0.307,0.735-0.368,1.148l0.023,7.813
			h-0.965l-0.023-10.432c0-0.261-0.011-0.479-0.035-0.654c-0.023-0.177-0.05-0.279-0.08-0.311h1.08v0.918H37.833z"/>
		<path fill="#515DA9" d="M46.472,87.429h1.034l4.112,10.154l4.09-10.154h1.103l-4.664,11.486h-1.034L46.472,87.429z"/>
		<path fill="#515DA9" d="M62.899,98.181c0.245,0,0.501-0.026,0.77-0.08c0.268-0.055,0.536-0.123,0.804-0.207
			s0.524-0.176,0.77-0.275c0.246-0.099,0.459-0.195,0.644-0.287l0.39,0.851c-0.398,0.215-0.827,0.397-1.286,0.552
			c-0.46,0.153-0.95,0.275-1.471,0.367h-0.023c-0.092,0.016-0.188,0.023-0.287,0.023s-0.203,0-0.31,0
			c-0.644,0-1.245-0.143-1.804-0.427c-0.559-0.282-1.057-0.673-1.493-1.171s-0.789-1.08-1.057-1.746
			c-0.268-0.667-0.425-1.383-0.471-2.148v-0.437c0-0.812,0.122-1.577,0.367-2.298c0.245-0.72,0.575-1.348,0.988-1.884
			c0.413-0.536,0.896-0.961,1.447-1.275c0.551-0.313,1.141-0.471,1.769-0.471c0.644,0,1.241,0.149,1.792,0.448
			c0.552,0.299,1.03,0.707,1.436,1.229c0.406,0.521,0.724,1.135,0.954,1.84c0.229,0.703,0.345,1.469,0.345,2.297v0.551h-8.11
			c0.03,0.645,0.153,1.24,0.368,1.793c0.214,0.552,0.494,1.029,0.838,1.436c0.345,0.406,0.743,0.729,1.195,0.965
			C61.915,98.063,62.394,98.181,62.899,98.181z M66.253,92.689c-0.046-0.611-0.172-1.189-0.379-1.734
			c-0.207-0.543-0.471-1.015-0.792-1.412c-0.322-0.397-0.689-0.713-1.103-0.941c-0.414-0.23-0.858-0.346-1.333-0.346
			c-0.459,0-0.896,0.115-1.31,0.346c-0.414,0.229-0.781,0.544-1.103,0.941c-0.322,0.397-0.586,0.869-0.793,1.412
			c-0.207,0.545-0.333,1.123-0.379,1.734H66.253z"/>
		<path fill="#515DA9" d="M73.375,88.302c-0.077-0.031-0.149-0.047-0.218-0.047c-0.069,0-0.142,0-0.218,0
			c-0.383,0-0.747,0.072-1.091,0.219c-0.345,0.146-0.655,0.349-0.931,0.609c-0.276,0.26-0.502,0.565-0.678,0.918
			c-0.176,0.354-0.295,0.735-0.356,1.148l0.023,7.766h-0.965l-0.023-10.385c0-0.261-0.011-0.506-0.034-0.734
			c-0.023-0.229-0.05-0.359-0.081-0.392h1.08v1.7c0.367-0.582,0.823-1.029,1.367-1.344c0.543-0.313,1.145-0.471,1.804-0.471
			c0.077,0,0.165,0.004,0.264,0.01c0.1,0.009,0.195,0.027,0.287,0.059L73.375,88.302z"/>
		<path fill="#515DA9" d="M82.105,89.313c-0.354-0.337-0.781-0.594-1.287-0.771c-0.506-0.176-1.041-0.265-1.607-0.265
			c-0.781,0-1.438,0.185-1.965,0.552c-0.528,0.367-0.793,0.844-0.793,1.424c0,0.276,0.068,0.545,0.207,0.806
			c0.138,0.261,0.333,0.502,0.586,0.724c0.253,0.223,0.555,0.41,0.906,0.563c0.354,0.153,0.736,0.261,1.15,0.321
			c0.52,0.076,1.002,0.223,1.446,0.438s0.827,0.471,1.147,0.77c0.322,0.299,0.57,0.637,0.748,1.012
			c0.176,0.376,0.264,0.77,0.264,1.184c0,0.459-0.1,0.873-0.299,1.24c-0.198,0.368-0.471,0.686-0.815,0.953
			c-0.344,0.27-0.743,0.476-1.194,0.621s-0.931,0.218-1.436,0.218c-0.721,0-1.413-0.13-2.08-0.392
			c-0.666-0.26-1.197-0.627-1.596-1.103l0.735-0.573c0.322,0.32,0.735,0.59,1.241,0.803c0.505,0.216,1.05,0.322,1.632,0.322
			c0.795,0,1.471-0.19,2.021-0.574c0.552-0.383,0.827-0.889,0.827-1.517c0-0.291-0.068-0.569-0.207-0.839
			c-0.139-0.268-0.334-0.518-0.586-0.747s-0.551-0.425-0.896-0.586c-0.345-0.16-0.724-0.271-1.137-0.333
			c-0.537-0.076-1.026-0.222-1.472-0.438c-0.443-0.213-0.826-0.471-1.147-0.77s-0.575-0.632-0.759-0.999
			c-0.184-0.368-0.275-0.751-0.275-1.149c0-0.428,0.104-0.821,0.311-1.183c0.207-0.36,0.486-0.666,0.838-0.919
			s0.759-0.447,1.218-0.586c0.46-0.139,0.948-0.207,1.471-0.207c0.72,0,1.397,0.135,2.033,0.402
			c0.636,0.267,1.151,0.607,1.552,1.021L82.105,89.313z"/>
		<path fill="#515DA9" d="M91.273,97.998c-0.354,0.353-0.768,0.631-1.241,0.838c-0.476,0.207-0.988,0.311-1.539,0.311
			c-0.507,0-0.984-0.092-1.437-0.275c-0.451-0.184-0.843-0.433-1.172-0.746c-0.33-0.313-0.594-0.682-0.793-1.104
			c-0.199-0.421-0.299-0.869-0.299-1.344c0-0.506,0.104-0.973,0.311-1.401s0.485-0.801,0.838-1.114
			c0.354-0.313,0.763-0.556,1.229-0.724c0.468-0.169,0.961-0.253,1.481-0.253h2.619v-0.506c0-0.459-0.058-0.896-0.172-1.311
			c-0.115-0.412-0.279-0.772-0.494-1.08c-0.215-0.306-0.472-0.551-0.771-0.733c-0.299-0.185-0.632-0.284-0.999-0.3h-0.023
			c-0.996,0-1.883,0.115-2.664,0.346l-0.229-0.919c0.903-0.261,1.868-0.392,2.896-0.392h0.022c0.442,0.016,0.865,0.127,1.265,0.334
			c0.396,0.205,0.75,0.485,1.057,0.838c0.306,0.353,0.555,0.767,0.746,1.24c0.191,0.476,0.303,0.98,0.334,1.518v0.229
			c-0.016,0.383-0.023,0.789-0.023,1.219c-0.016,0.367-0.021,0.785-0.021,1.252c0,0.468,0,0.938,0,1.412
			c0,0.444,0.002,0.873,0.011,1.287c0.008,0.413,0.021,0.788,0.034,1.125c0.016,0.338,0.035,0.609,0.058,0.815
			c0.022,0.207,0.05,0.326,0.081,0.356h-1.08L91.273,97.998z M91.273,93.126h-2.619c-0.399,0-0.771,0.062-1.115,0.185
			c-0.344,0.122-0.646,0.295-0.907,0.517c-0.261,0.223-0.467,0.49-0.62,0.805c-0.152,0.313-0.229,0.662-0.229,1.046
			c0,0.353,0.068,0.678,0.205,0.977c0.14,0.298,0.33,0.56,0.576,0.781c0.244,0.222,0.531,0.397,0.86,0.528
			c0.329,0.13,0.687,0.195,1.068,0.195s0.741-0.065,1.079-0.195c0.337-0.131,0.633-0.308,0.885-0.528
			c0.253-0.224,0.452-0.483,0.598-0.781c0.146-0.299,0.219-0.624,0.219-0.977V93.126L91.273,93.126z"/>
		<path fill="#515DA9" d="M97.039,83.041v4.549h3.102v0.988h-3.102l0.021,10.338h-0.918c-0.016-1.316-0.022-2.604-0.022-3.858
			v-6.479h-1.746v-0.988h1.7v-4.549H97.039z"/>
		<path fill="#515DA9" d="M102.322,83.982c0-0.168,0.066-0.313,0.195-0.438c0.131-0.121,0.287-0.184,0.471-0.184
			c0.17,0,0.322,0.063,0.461,0.184c0.138,0.123,0.207,0.27,0.207,0.438c0,0.169-0.069,0.314-0.207,0.438
			c-0.139,0.123-0.291,0.184-0.461,0.184c-0.184,0-0.34-0.061-0.471-0.184C102.389,84.296,102.322,84.151,102.322,83.982z
			 M102.507,87.429h0.942l0.021,11.486h-0.941L102.507,87.429z"/>
		<path fill="#515DA9" d="M105.586,93.242c0-0.828,0.141-1.602,0.426-2.32c0.282-0.721,0.67-1.349,1.159-1.885
			c0.49-0.535,1.063-0.961,1.724-1.274c0.658-0.313,1.354-0.472,2.09-0.472c0.736,0,1.426,0.157,2.068,0.472
			c0.643,0.313,1.206,0.739,1.688,1.274c0.481,0.536,0.864,1.164,1.147,1.885c0.283,0.72,0.426,1.492,0.426,2.32
			c0,0.812-0.143,1.573-0.426,2.285s-0.666,1.336-1.147,1.872c-0.482,0.536-1.046,0.962-1.688,1.274
			c-0.644,0.313-1.332,0.472-2.068,0.472c-0.734,0-1.432-0.157-2.09-0.472c-0.658-0.313-1.232-0.738-1.724-1.274
			s-0.877-1.16-1.159-1.872C105.727,94.815,105.586,94.053,105.586,93.242z M106.551,93.242c0,0.674,0.114,1.313,0.346,1.918
			c0.229,0.604,0.547,1.129,0.953,1.573c0.404,0.444,0.877,0.797,1.412,1.058c0.536,0.26,1.11,0.391,1.723,0.391
			c0.599,0,1.16-0.131,1.689-0.391c0.528-0.261,0.987-0.612,1.379-1.058c0.391-0.444,0.7-0.969,0.93-1.573s0.346-1.244,0.346-1.918
			c0-0.689-0.115-1.337-0.346-1.941c-0.229-0.604-0.539-1.135-0.93-1.586c-0.392-0.451-0.851-0.808-1.379-1.067
			c-0.529-0.261-1.092-0.392-1.689-0.392c-0.611,0-1.187,0.131-1.723,0.392c-0.535,0.261-1.008,0.616-1.412,1.067
			c-0.406,0.451-0.725,0.98-0.953,1.586C106.665,91.905,106.551,92.552,106.551,93.242z"/>
		<path fill="#515DA9" d="M118.729,88.439v0.62c0.367-0.582,0.826-1.03,1.377-1.345c0.553-0.313,1.156-0.471,1.815-0.471
			c0.536,0,1.037,0.11,1.505,0.334c0.467,0.221,0.873,0.521,1.219,0.896c0.344,0.376,0.619,0.819,0.826,1.333
			c0.207,0.513,0.317,1.061,0.334,1.643l0.067,7.467h-0.965l-0.022-7.467c-0.016-0.46-0.107-0.885-0.275-1.275
			s-0.392-0.73-0.666-1.021c-0.275-0.291-0.598-0.521-0.965-0.689s-0.758-0.252-1.172-0.252c-0.384,0-0.746,0.072-1.092,0.219
			c-0.345,0.146-0.654,0.349-0.931,0.609c-0.275,0.26-0.507,0.565-0.688,0.918c-0.184,0.354-0.308,0.735-0.367,1.148l0.021,7.813
			h-0.965l-0.021-10.432c0-0.261-0.013-0.479-0.035-0.654c-0.022-0.177-0.051-0.279-0.08-0.311h1.08V88.439z"/>
		<path fill="#515DA9" d="M134.213,97.998c-0.354,0.353-0.768,0.631-1.24,0.838c-0.476,0.207-0.988,0.311-1.539,0.311
			c-0.506,0-0.984-0.092-1.438-0.275c-0.451-0.184-0.842-0.433-1.171-0.746c-0.33-0.313-0.595-0.682-0.793-1.104
			c-0.199-0.421-0.3-0.869-0.3-1.344c0-0.506,0.104-0.973,0.312-1.401c0.206-0.429,0.485-0.801,0.838-1.114s0.763-0.556,1.229-0.724
			c0.467-0.169,0.961-0.253,1.481-0.253h2.619v-0.506c0-0.459-0.058-0.896-0.173-1.311c-0.115-0.412-0.279-0.772-0.494-1.08
			c-0.215-0.306-0.471-0.551-0.77-0.733c-0.299-0.185-0.633-0.284-1-0.3h-0.022c-0.996,0-1.884,0.115-2.665,0.346l-0.229-0.919
			c0.902-0.261,1.867-0.392,2.895-0.392h0.023c0.443,0.016,0.865,0.127,1.264,0.334c0.396,0.205,0.75,0.485,1.057,0.838
			s0.555,0.767,0.748,1.24c0.189,0.476,0.301,0.98,0.332,1.518v0.229c-0.016,0.383-0.023,0.789-0.023,1.219
			c-0.016,0.367-0.021,0.785-0.021,1.252c0,0.468,0,0.938,0,1.412c0,0.444,0.004,0.873,0.012,1.287
			c0.008,0.413,0.02,0.788,0.035,1.125c0.014,0.338,0.033,0.609,0.057,0.815c0.022,0.207,0.05,0.326,0.08,0.356h-1.08
			L134.213,97.998z M134.213,93.126h-2.619c-0.398,0-0.771,0.062-1.115,0.185c-0.344,0.122-0.646,0.295-0.906,0.517
			c-0.262,0.223-0.467,0.49-0.62,0.805c-0.153,0.313-0.229,0.662-0.229,1.046c0,0.353,0.068,0.678,0.207,0.977
			c0.139,0.298,0.329,0.56,0.574,0.781c0.244,0.222,0.531,0.397,0.861,0.528c0.328,0.13,0.686,0.195,1.068,0.195
			c0.381,0,0.741-0.065,1.08-0.195c0.336-0.131,0.631-0.308,0.883-0.528c0.254-0.224,0.453-0.483,0.599-0.781
			c0.146-0.299,0.219-0.624,0.219-0.977L134.213,93.126L134.213,93.126z"/>
		<path fill="#515DA9" d="M137.635,83.041h0.965l0.023,15.875h-0.965L137.635,83.041z"/>
		<path fill="#515DA9" d="M34.501,126.486h-0.965l-0.023-15.876h0.965L34.501,126.486z"/>
		<path fill="#515DA9" d="M37.419,116.01v0.62c0.368-0.582,0.827-1.03,1.378-1.344c0.552-0.313,1.157-0.472,1.815-0.472
			c0.536,0,1.037,0.11,1.505,0.333c0.467,0.223,0.873,0.521,1.217,0.896c0.345,0.375,0.621,0.818,0.827,1.332
			c0.207,0.514,0.318,1.062,0.333,1.644l0.069,7.467H43.6l-0.023-7.467c-0.016-0.46-0.107-0.885-0.276-1.274
			c-0.169-0.392-0.391-0.731-0.667-1.022c-0.275-0.291-0.597-0.521-0.965-0.688s-0.758-0.253-1.172-0.253
			c-0.383,0-0.747,0.072-1.091,0.218c-0.344,0.146-0.655,0.35-0.93,0.609c-0.276,0.26-0.505,0.566-0.689,0.919
			s-0.307,0.735-0.368,1.147l0.023,7.813h-0.965l-0.023-10.431c0-0.261-0.011-0.479-0.035-0.655c-0.023-0.176-0.05-0.279-0.08-0.311
			h1.08V116.01z"/>
		<path fill="#515DA9" d="M49.343,110.61v4.55h3.102v0.987h-3.102l0.023,10.339h-0.919c-0.016-1.316-0.023-2.604-0.023-3.859v-6.479
			h-1.746v-0.988h1.7v-4.549L49.343,110.61L49.343,110.61z"/>
		<path fill="#515DA9" d="M58.809,125.751c0.245,0,0.501-0.026,0.77-0.08c0.268-0.055,0.536-0.123,0.804-0.207
			s0.524-0.176,0.77-0.275c0.246-0.1,0.459-0.195,0.644-0.287l0.39,0.85c-0.398,0.215-0.827,0.398-1.286,0.553
			c-0.46,0.152-0.95,0.275-1.471,0.367h-0.023c-0.092,0.016-0.188,0.022-0.287,0.022s-0.203,0-0.31,0
			c-0.644,0-1.245-0.142-1.804-0.426c-0.559-0.283-1.057-0.673-1.493-1.171s-0.789-1.08-1.057-1.746
			c-0.268-0.667-0.425-1.383-0.471-2.148v-0.437c0-0.812,0.122-1.577,0.367-2.298s0.575-1.348,0.988-1.885
			c0.413-0.535,0.896-0.961,1.447-1.274c0.551-0.313,1.141-0.472,1.769-0.472c0.644,0,1.241,0.149,1.792,0.449
			c0.552,0.299,1.03,0.707,1.436,1.229c0.406,0.521,0.724,1.134,0.954,1.839c0.229,0.704,0.345,1.47,0.345,2.297v0.552h-8.11
			c0.03,0.645,0.153,1.24,0.368,1.793c0.214,0.551,0.494,1.029,0.838,1.436c0.345,0.406,0.743,0.729,1.195,0.965
			C57.824,125.632,58.303,125.751,58.809,125.751z M62.163,120.26c-0.046-0.612-0.172-1.19-0.379-1.734
			c-0.207-0.543-0.471-1.015-0.792-1.413c-0.322-0.396-0.689-0.712-1.103-0.941s-0.858-0.344-1.333-0.344
			c-0.459,0-0.896,0.113-1.31,0.344c-0.414,0.229-0.781,0.545-1.103,0.941c-0.322,0.398-0.586,0.87-0.793,1.413
			c-0.207,0.544-0.333,1.122-0.379,1.734H62.163z"/>
		<path fill="#515DA9" d="M69.285,115.873c-0.077-0.031-0.149-0.047-0.218-0.047c-0.069,0-0.142,0-0.218,0
			c-0.383,0-0.747,0.072-1.091,0.219c-0.345,0.146-0.655,0.349-0.931,0.608c-0.276,0.261-0.502,0.566-0.678,0.919
			c-0.176,0.354-0.295,0.735-0.356,1.148l0.023,7.766h-0.965l-0.023-10.385c0-0.262-0.011-0.506-0.034-0.734
			c-0.023-0.229-0.05-0.359-0.081-0.392h1.08v1.7c0.367-0.582,0.823-1.029,1.367-1.344c0.543-0.313,1.145-0.472,1.804-0.472
			c0.077,0,0.165,0.004,0.264,0.011c0.1,0.008,0.195,0.027,0.287,0.059L69.285,115.873z"/>
		<path fill="#515DA9" d="M76.936,111.507c-0.106-0.031-0.236-0.047-0.391-0.047s-0.299,0-0.436,0
			c-0.338,0.016-0.652,0.107-0.943,0.275c-0.291,0.169-0.547,0.398-0.77,0.689s-0.395,0.628-0.517,1.011s-0.184,0.789-0.184,1.218
			v0.598h3.034v0.987h-3.034l0.023,10.247h-0.896c-0.016-1.285-0.023-2.558-0.023-3.813v-6.435h-1.746v-0.987h1.7
			c0.015,0,0.023-0.054,0.023-0.16c0-0.03-0.004-0.072-0.012-0.127c-0.008-0.053-0.011-0.104-0.011-0.148v-0.161v-0.274
			c0.03-0.521,0.138-1.016,0.322-1.482c0.184-0.467,0.425-0.877,0.724-1.229c0.298-0.353,0.647-0.633,1.045-0.838
			c0.398-0.207,0.819-0.312,1.263-0.312c0.199,0,0.387,0,0.563,0s0.354,0.017,0.54,0.046L76.936,111.507z"/>
		<path fill="#515DA9" d="M85.139,125.567c-0.354,0.353-0.768,0.632-1.242,0.839c-0.475,0.206-0.987,0.311-1.539,0.311
			c-0.506,0-0.983-0.092-1.437-0.275c-0.45-0.184-0.842-0.434-1.171-0.747c-0.33-0.313-0.594-0.681-0.793-1.103
			s-0.299-0.869-0.299-1.344c0-0.506,0.104-0.974,0.311-1.401c0.206-0.429,0.485-0.802,0.838-1.114
			c0.354-0.314,0.762-0.557,1.229-0.725c0.467-0.168,0.961-0.252,1.481-0.252h2.619v-0.506c0-0.459-0.058-0.896-0.173-1.311
			c-0.114-0.413-0.278-0.773-0.493-1.08c-0.216-0.306-0.472-0.551-0.771-0.734c-0.3-0.185-0.632-0.283-0.999-0.299h-0.023
			c-0.996,0-1.884,0.114-2.664,0.346l-0.229-0.92c0.903-0.26,1.868-0.391,2.896-0.391h0.022c0.442,0.016,0.864,0.126,1.264,0.333
			c0.397,0.206,0.75,0.486,1.058,0.838c0.306,0.354,0.555,0.767,0.746,1.241c0.19,0.475,0.303,0.98,0.334,1.518v0.229
			c-0.017,0.383-0.023,0.789-0.023,1.218c-0.016,0.367-0.021,0.785-0.021,1.252c0,0.468,0,0.938,0,1.413
			c0,0.444,0.002,0.873,0.01,1.286c0.009,0.414,0.021,0.789,0.035,1.126c0.016,0.337,0.035,0.609,0.058,0.814
			c0.022,0.207,0.05,0.326,0.081,0.356h-1.08L85.139,125.567z M85.139,120.696H82.52c-0.399,0-0.771,0.062-1.115,0.185
			s-0.646,0.295-0.907,0.518s-0.468,0.49-0.62,0.805c-0.152,0.313-0.229,0.662-0.229,1.045c0,0.354,0.067,0.678,0.205,0.978
			c0.14,0.298,0.33,0.56,0.576,0.78c0.243,0.223,0.53,0.398,0.86,0.529c0.329,0.129,0.687,0.194,1.067,0.194
			c0.383,0,0.742-0.065,1.08-0.194c0.336-0.131,0.633-0.308,0.885-0.529c0.253-0.223,0.451-0.482,0.598-0.78
			c0.146-0.3,0.219-0.624,0.219-0.978V120.696L85.139,120.696z"/>
		<path fill="#515DA9" d="M96.35,117.365c-0.397-0.46-0.877-0.83-1.437-1.113s-1.168-0.426-1.826-0.426
			c-0.628,0-1.218,0.131-1.771,0.391c-0.551,0.262-1.029,0.613-1.436,1.058s-0.729,0.97-0.965,1.573
			c-0.236,0.605-0.355,1.253-0.355,1.941c0,0.674,0.119,1.313,0.355,1.918c0.236,0.606,0.559,1.131,0.965,1.573
			c0.405,0.445,0.885,0.798,1.436,1.058c0.553,0.262,1.143,0.392,1.771,0.392s1.218-0.13,1.769-0.392
			c0.553-0.26,1.035-0.621,1.449-1.08l0.688,0.666c-0.521,0.537-1.11,0.966-1.77,1.287c-0.658,0.321-1.371,0.482-2.137,0.482
			c-0.751,0-1.459-0.156-2.125-0.472c-0.667-0.313-1.249-0.738-1.746-1.274c-0.498-0.535-0.893-1.16-1.184-1.873
			c-0.291-0.712-0.438-1.474-0.438-2.285c0-0.813,0.146-1.578,0.438-2.297c0.291-0.721,0.686-1.349,1.184-1.885
			c0.497-0.536,1.079-0.961,1.746-1.275c0.666-0.313,1.374-0.471,2.125-0.471c0.796,0,1.531,0.164,2.205,0.493
			c0.674,0.33,1.256,0.763,1.747,1.299L96.35,117.365z"/>
		<path fill="#515DA9" d="M103.54,125.751c0.245,0,0.501-0.026,0.771-0.08c0.268-0.055,0.535-0.123,0.803-0.207
			c0.27-0.084,0.525-0.176,0.771-0.275c0.244-0.1,0.459-0.195,0.643-0.287l0.392,0.85c-0.397,0.215-0.827,0.398-1.286,0.553
			c-0.46,0.152-0.949,0.275-1.471,0.367h-0.021c-0.094,0.016-0.188,0.022-0.289,0.022c-0.1,0-0.203,0-0.31,0
			c-0.644,0-1.245-0.142-1.804-0.426c-0.561-0.283-1.057-0.673-1.493-1.171s-0.789-1.08-1.058-1.746
			c-0.269-0.667-0.426-1.383-0.472-2.148v-0.437c0-0.812,0.123-1.577,0.368-2.298c0.244-0.721,0.574-1.348,0.986-1.885
			c0.414-0.535,0.896-0.961,1.449-1.274c0.551-0.313,1.141-0.472,1.769-0.472c0.644,0,1.239,0.149,1.792,0.449
			c0.552,0.299,1.029,0.707,1.438,1.229c0.404,0.521,0.724,1.134,0.953,1.839c0.229,0.704,0.344,1.47,0.344,2.297v0.552h-8.109
			c0.029,0.645,0.152,1.24,0.367,1.793c0.215,0.551,0.494,1.029,0.839,1.436s0.743,0.729,1.194,0.965
			S103.034,125.751,103.54,125.751z M106.895,120.26c-0.045-0.612-0.172-1.19-0.379-1.734c-0.207-0.543-0.472-1.015-0.793-1.413
			c-0.322-0.396-0.688-0.712-1.103-0.941s-0.858-0.344-1.333-0.344c-0.459,0-0.896,0.113-1.311,0.344
			c-0.412,0.229-0.781,0.545-1.103,0.941c-0.321,0.398-0.586,0.87-0.793,1.413c-0.207,0.544-0.333,1.122-0.379,1.734H106.895z"/>
		<path fill="#515DA9" d="M116.337,116.882c-0.353-0.336-0.78-0.594-1.286-0.77s-1.042-0.265-1.607-0.265
			c-0.781,0-1.438,0.185-1.965,0.552c-0.528,0.367-0.793,0.844-0.793,1.424c0,0.276,0.068,0.545,0.207,0.805
			c0.137,0.262,0.332,0.502,0.586,0.725c0.252,0.223,0.555,0.41,0.906,0.563c0.354,0.153,0.735,0.262,1.149,0.322
			c0.521,0.076,1.003,0.223,1.446,0.438c0.444,0.215,0.828,0.471,1.148,0.77c0.322,0.299,0.57,0.637,0.747,1.012
			s0.265,0.77,0.265,1.184c0,0.459-0.101,0.873-0.299,1.24c-0.199,0.367-0.472,0.686-0.816,0.953
			c-0.344,0.269-0.742,0.476-1.193,0.621c-0.452,0.146-0.932,0.217-1.436,0.217c-0.722,0-1.414-0.129-2.08-0.391
			c-0.666-0.26-1.198-0.628-1.598-1.103l0.735-0.574c0.321,0.321,0.735,0.59,1.241,0.804c0.505,0.215,1.049,0.322,1.631,0.322
			c0.796,0,1.471-0.191,2.021-0.575c0.551-0.382,0.826-0.888,0.826-1.516c0-0.291-0.068-0.57-0.206-0.839
			c-0.139-0.268-0.334-0.518-0.586-0.747c-0.253-0.229-0.552-0.425-0.896-0.586c-0.346-0.16-0.725-0.271-1.137-0.333
			c-0.537-0.076-1.027-0.223-1.472-0.438c-0.444-0.214-0.827-0.471-1.147-0.77c-0.322-0.299-0.576-0.633-0.76-0.999
			c-0.184-0.368-0.275-0.751-0.275-1.149c0-0.428,0.104-0.822,0.311-1.183c0.207-0.36,0.486-0.666,0.84-0.919
			c0.352-0.254,0.758-0.448,1.217-0.586c0.461-0.139,0.949-0.207,1.472-0.207c0.72,0,1.397,0.135,2.032,0.402
			c0.637,0.267,1.152,0.607,1.552,1.021L116.337,116.882z"/>
	</g>
	<g>
		<g>
			<g>
				<path fill="#151530" d="M83.103,60.635v1.473H96.36v2.21c0,1.218-0.991,2.21-2.21,2.21H55.849c-1.218,0-2.209-0.992-2.209-2.21
					v-2.21h13.258v-1.473H52.167v3.683c0,2.03,1.652,3.683,3.683,3.683H94.15c2.031,0,3.684-1.652,3.684-3.683v-3.683H83.103z"/>
				<path fill="#151530" d="M70.581,65.054h8.838c1.219,0,2.21-0.991,2.21-2.21v-2.209H68.371v2.209
					C68.371,64.063,69.362,65.054,70.581,65.054z M69.844,62.107h10.312v0.737c0,0.407-0.331,0.737-0.737,0.737h-8.838
					c-0.406,0-0.736-0.33-0.736-0.737V62.107z"/>
				<path fill="#151530" d="M55.113,35.592c0-1.218,0.991-2.21,2.209-2.21h5.156v-1.473h-5.156c-2.031,0-3.683,1.652-3.683,3.683
					v23.57h1.473V35.592z"/>
				<path fill="#151530" d="M94.888,35.592v23.57h1.473v-23.57c0-2.031-1.652-3.683-3.683-3.683h-5.156v1.473h5.156
					C93.896,33.382,94.888,34.374,94.888,35.592z"/>
				<path fill="#151530" d="M56.586,36.328v22.834h1.473V36.328h5.893v-1.473h-5.893C57.247,34.855,56.586,35.516,56.586,36.328z"/>
				<path fill="#151530" d="M93.414,59.162V36.328c0-0.812-0.66-1.473-1.473-1.473h-5.893v1.473h5.893v22.834H93.414z"/>
				<rect x="77.21" y="44.431" fill="#151530" width="1.473" height="10.312"/>
				<rect x="71.317" y="44.431" fill="#151530" width="1.473" height="10.312"/>
				<path fill="#151530" d="M86.049,50.323V48.85h-2.946c-0.406,0-0.737-0.33-0.737-0.737v-4.419h-1.473v4.419
					c0,1.218,0.991,2.21,2.21,2.21H86.049z"/>
				<path fill="#151530" d="M69.107,48.113v-4.419h-1.473v4.419c0,0.407-0.331,0.737-0.736,0.737h-2.946v1.473h2.946
					C68.116,50.323,69.107,49.332,69.107,48.113z"/>
				<rect x="77.21" y="56.215" fill="#151530" width="1.473" height="1.473"/>
				<rect x="71.317" y="56.215" fill="#151530" width="1.473" height="1.473"/>
				<rect x="87.521" y="48.85" fill="#151530" width="1.474" height="1.473"/>
				<rect x="61.005" y="48.85" fill="#151530" width="1.473" height="1.473"/>
				<path fill="#151530" d="M65.509,34.908c-0.056,0.225-0.084,0.454-0.084,0.684c0,1.07,0.584,2.042,1.493,2.558
					c-0.012,0.128-0.02,0.257-0.02,0.388c0,2.438,1.982,4.419,4.419,4.419c1.536,0,2.89-0.789,3.683-1.981
					c0.793,1.193,2.146,1.981,3.683,1.981c2.438,0,4.42-1.982,4.42-4.419c0-0.131-0.009-0.26-0.021-0.388
					c0.908-0.517,1.493-1.488,1.493-2.558c0-0.23-0.027-0.458-0.084-0.684c0.963-0.682,1.558-1.798,1.558-3
					c0-1.19-0.586-2.303-1.543-2.99c0.042-0.225,0.069-0.455,0.069-0.692c0-1.877-1.417-3.414-3.235-3.637
					c-0.559-1.324-1.869-2.255-3.394-2.255c-1.209,0-2.274,0.594-2.946,1.496c-0.672-0.902-1.737-1.496-2.946-1.496
					c-1.525,0-2.835,0.932-3.394,2.255c-1.818,0.224-3.235,1.76-3.235,3.637c0,0.237,0.027,0.468,0.07,0.692
					c-0.958,0.687-1.543,1.8-1.543,2.99C63.952,33.11,64.546,34.226,65.509,34.908z M75.736,26.016c0-1.218,0.991-2.209,2.21-2.209
					s2.21,0.991,2.21,2.209s-0.991,2.21-2.21,2.21v1.473c1.986,0,3.598-1.583,3.669-3.551c0.863,0.301,1.487,1.114,1.487,2.078
					c0,1.218-0.992,2.209-2.21,2.209v1.473c1.247,0,2.348-0.626,3.014-1.578c0.42,0.411,0.669,0.978,0.669,1.578
					c0,0.859-0.508,1.646-1.296,2.005l-0.703,0.321l0.354,0.687c0.113,0.221,0.172,0.446,0.172,0.67c0,0.398-0.174,0.759-0.443,1.03
					c-0.716-1.479-2.226-2.503-3.977-2.503v1.473c1.625,0,2.946,1.321,2.946,2.946c0,1.625-1.321,2.947-2.946,2.947
					s-2.946-1.322-2.946-2.947V26.016z M66.093,30.331c0.667,0.951,1.767,1.578,3.014,1.578v-1.473
					c-1.218,0-2.209-0.991-2.209-2.209c0-0.964,0.624-1.777,1.486-2.078c0.071,1.968,1.684,3.551,3.669,3.551v-1.473
					c-1.218,0-2.209-0.992-2.209-2.21s0.991-2.209,2.209-2.209s2.21,0.991,2.21,2.209v12.521c0,1.625-1.322,2.947-2.946,2.947
					c-1.625,0-2.947-1.322-2.947-2.947c0-1.625,1.322-2.946,2.947-2.946v-1.473c-1.75,0-3.261,1.024-3.976,2.503
					c-0.27-0.271-0.443-0.631-0.443-1.03c0-0.225,0.057-0.449,0.171-0.67l0.354-0.687l-0.704-0.322
					c-0.787-0.359-1.295-1.146-1.295-2.004C65.425,31.309,65.674,30.742,66.093,30.331z"/>
				<rect x="55.113" y="63.582" fill="#151530" width="1.473" height="1.473"/>
				<rect x="58.059" y="63.582" fill="#151530" width="1.473" height="1.473"/>
				<rect x="61.005" y="63.582" fill="#151530" width="1.473" height="1.473"/>
			</g>
		</g>
	</g>
</g>
</svg>
