<?xml version="1.0" encoding="utf-8"?>
<!-- Generator: Adobe Illustrator 16.0.0, SVG Export Plug-In . SVG Version: 6.00 Build 0)  -->
<!DOCTYPE svg PUBLIC "-//W3C//DTD SVG 1.1//EN" "http://www.w3.org/Graphics/SVG/1.1/DTD/svg11.dtd">
<svg version="1.1" id="Layer_1" xmlns="http://www.w3.org/2000/svg" xmlns:xlink="http://www.w3.org/1999/xlink" x="0px" y="0px"
	 width="150px" height="127.667px" viewBox="0 0 150 127.667" enable-background="new 0 0 150 127.667" xml:space="preserve">
<g>
	<path fill="#FFFFFF" d="M130.424,54.335c0,29.458-23.875,53.334-53.334,53.334S23.755,83.792,23.755,54.335
		C23.755,24.877,47.631,1,77.09,1S130.424,24.877,130.424,54.335z"/>
	<g>
		<path fill="#515DA9" d="M8.574,90.946l0.023,7.974H7.632L7.609,83.042h4.549c0.628,0,1.214,0.104,1.757,0.312
			s1.019,0.485,1.425,0.839c0.405,0.354,0.727,0.766,0.965,1.24c0.237,0.477,0.356,0.988,0.356,1.539
			c0,0.552-0.119,1.068-0.356,1.551c-0.238,0.482-0.56,0.904-0.965,1.264c-0.406,0.36-0.881,0.646-1.425,0.853
			c-0.543,0.206-1.129,0.31-1.757,0.31H9.884l7.03,7.975h-1.241L8.62,90.946H8.574z M8.574,83.939v6.042h3.584
			c0.475,0,0.926-0.076,1.355-0.229c0.429-0.151,0.804-0.361,1.126-0.631c0.321-0.269,0.578-0.586,0.77-0.953
			c0.191-0.369,0.287-0.768,0.287-1.194c0-0.413-0.096-0.806-0.287-1.172c-0.192-0.367-0.448-0.688-0.77-0.966
			c-0.322-0.274-0.697-0.494-1.126-0.653c-0.429-0.161-0.881-0.241-1.355-0.241h-0.046L8.574,83.939L8.574,83.939z"/>
		<path fill="#515DA9" d="M23.002,98.184c0.245,0,0.501-0.026,0.77-0.08c0.268-0.054,0.536-0.123,0.804-0.207
			s0.524-0.176,0.77-0.274c0.246-0.1,0.459-0.194,0.644-0.287l0.39,0.851c-0.398,0.215-0.827,0.397-1.286,0.552
			c-0.46,0.153-0.95,0.275-1.471,0.367H23.6c-0.092,0.018-0.188,0.021-0.287,0.021s-0.203,0-0.31,0
			c-0.644,0-1.245-0.142-1.804-0.426c-0.559-0.283-1.057-0.673-1.493-1.171s-0.789-1.079-1.057-1.745
			c-0.268-0.668-0.425-1.384-0.471-2.147v-0.438c0-0.812,0.122-1.576,0.367-2.298c0.245-0.72,0.575-1.348,0.988-1.884
			c0.413-0.536,0.896-0.961,1.447-1.275c0.551-0.313,1.141-0.471,1.769-0.471c0.644,0,1.241,0.148,1.792,0.448
			c0.552,0.299,1.03,0.708,1.436,1.229c0.406,0.521,0.724,1.134,0.954,1.839c0.229,0.704,0.345,1.471,0.345,2.297v0.554h-8.11
			c0.03,0.644,0.153,1.239,0.368,1.792c0.214,0.552,0.494,1.029,0.838,1.436c0.345,0.406,0.743,0.729,1.195,0.967
			C22.018,98.065,22.497,98.184,23.002,98.184z M26.356,92.692c-0.046-0.612-0.172-1.19-0.379-1.733s-0.471-1.016-0.792-1.414
			c-0.322-0.396-0.689-0.711-1.103-0.939s-0.858-0.345-1.333-0.345c-0.459,0-0.896,0.112-1.31,0.345
			c-0.414,0.229-0.781,0.544-1.103,0.939c-0.322,0.398-0.586,0.871-0.793,1.414s-0.333,1.121-0.379,1.733H26.356z"/>
		<path fill="#515DA9" d="M37.27,89.798c-0.398-0.461-0.877-0.832-1.436-1.114c-0.56-0.283-1.168-0.425-1.827-0.425
			c-0.628,0-1.218,0.13-1.769,0.391c-0.551,0.262-1.03,0.612-1.436,1.057c-0.406,0.444-0.728,0.969-0.965,1.573
			c-0.238,0.605-0.356,1.253-0.356,1.941c0,0.675,0.119,1.313,0.356,1.919c0.237,0.605,0.559,1.13,0.965,1.572
			c0.406,0.444,0.885,0.797,1.436,1.059c0.551,0.261,1.141,0.391,1.769,0.391c0.628,0,1.218-0.13,1.769-0.391
			c0.551-0.262,1.034-0.621,1.447-1.08l0.689,0.666c-0.521,0.536-1.111,0.965-1.769,1.287c-0.659,0.32-1.371,0.482-2.137,0.482
			c-0.75,0-1.459-0.157-2.125-0.474c-0.666-0.313-1.249-0.737-1.746-1.272c-0.497-0.536-0.892-1.16-1.183-1.873
			s-0.437-1.476-0.437-2.286c0-0.812,0.146-1.577,0.437-2.298c0.291-0.719,0.686-1.348,1.183-1.883
			c0.497-0.537,1.08-0.961,1.746-1.275c0.667-0.313,1.375-0.471,2.125-0.471c0.796,0,1.531,0.164,2.206,0.492
			c0.674,0.329,1.256,0.764,1.746,1.299L37.27,89.798z"/>
		<path fill="#515DA9" d="M39.475,93.244c0-0.826,0.142-1.601,0.425-2.32c0.283-0.719,0.67-1.348,1.16-1.883
			c0.49-0.537,1.064-0.961,1.723-1.274c0.658-0.313,1.355-0.472,2.091-0.472c0.735,0,1.424,0.156,2.067,0.472
			c0.644,0.313,1.207,0.737,1.689,1.274c0.482,0.535,0.865,1.164,1.148,1.883c0.284,0.722,0.425,1.494,0.425,2.32
			c0,0.813-0.142,1.574-0.425,2.286c-0.283,0.712-0.666,1.337-1.148,1.872c-0.482,0.536-1.045,0.962-1.689,1.275
			c-0.643,0.313-1.333,0.471-2.067,0.471c-0.735,0-1.433-0.156-2.091-0.471c-0.659-0.313-1.233-0.739-1.723-1.275
			c-0.49-0.535-0.877-1.16-1.16-1.872C39.617,94.818,39.475,94.056,39.475,93.244z M40.44,93.244c0,0.674,0.115,1.313,0.345,1.918
			c0.23,0.605,0.547,1.131,0.954,1.574c0.406,0.444,0.876,0.797,1.413,1.057c0.536,0.263,1.11,0.393,1.723,0.393
			c0.597,0,1.16-0.13,1.688-0.393c0.528-0.26,0.988-0.61,1.378-1.057c0.39-0.445,0.701-0.969,0.931-1.574
			c0.229-0.604,0.345-1.244,0.345-1.918c0-0.688-0.115-1.336-0.345-1.939s-0.54-1.135-0.931-1.585
			c-0.391-0.452-0.85-0.81-1.378-1.068s-1.091-0.391-1.688-0.391c-0.613,0-1.188,0.13-1.723,0.391
			c-0.537,0.263-1.007,0.616-1.413,1.068c-0.406,0.45-0.724,0.979-0.954,1.585C40.555,91.908,40.44,92.555,40.44,93.244z"/>
		<path fill="#515DA9" d="M52.663,88.511v0.598c0.368-0.566,0.823-1.007,1.367-1.32c0.543-0.313,1.137-0.472,1.781-0.472
			c0.812,0,1.535,0.241,2.171,0.724c0.636,0.483,1.106,1.092,1.413,1.828c0.153-0.461,0.36-0.854,0.62-1.185
			c0.26-0.33,0.552-0.599,0.873-0.806c0.322-0.205,0.659-0.358,1.011-0.459s0.689-0.148,1.011-0.148c0.536,0,1.038,0.107,1.505,0.32
			c0.467,0.216,0.873,0.511,1.218,0.886c0.345,0.376,0.616,0.819,0.815,1.333c0.199,0.513,0.306,1.061,0.322,1.643l0.046,7.422
			h-0.965v-7.422c-0.016-0.442-0.104-0.861-0.264-1.252c-0.161-0.391-0.379-0.729-0.655-1.021c-0.276-0.291-0.594-0.521-0.954-0.688
			c-0.36-0.169-0.747-0.254-1.16-0.254c-0.383,0-0.747,0.077-1.091,0.229c-0.345,0.152-0.655,0.359-0.931,0.621
			c-0.275,0.262-0.505,0.563-0.689,0.906c-0.184,0.346-0.307,0.717-0.368,1.114v7.767h-0.965V91.5
			c-0.016-0.461-0.104-0.886-0.265-1.274c-0.161-0.392-0.379-0.729-0.655-1.013c-0.275-0.281-0.601-0.508-0.976-0.678
			c-0.375-0.168-0.77-0.253-1.184-0.253c-0.383,0-0.743,0.073-1.08,0.22c-0.337,0.146-0.644,0.35-0.919,0.607
			c-0.276,0.262-0.502,0.563-0.678,0.907c-0.176,0.345-0.295,0.726-0.356,1.138l0.023,7.766h-0.965L51.696,88.56
			c0-0.262-0.011-0.506-0.034-0.734c-0.023-0.229-0.05-0.359-0.081-0.392h1.08v1.078L52.663,88.511L52.663,88.511z"/>
		<path fill="#515DA9" d="M69.641,88.511v0.598c0.368-0.566,0.823-1.007,1.367-1.32c0.543-0.313,1.137-0.472,1.781-0.472
			c0.812,0,1.535,0.241,2.171,0.724c0.636,0.483,1.106,1.092,1.413,1.828c0.152-0.461,0.359-0.854,0.62-1.185
			s0.552-0.599,0.873-0.806c0.321-0.205,0.657-0.358,1.011-0.459s0.689-0.148,1.012-0.148c0.535,0,1.037,0.107,1.506,0.32
			c0.467,0.216,0.873,0.511,1.217,0.886c0.346,0.376,0.617,0.819,0.816,1.333c0.197,0.513,0.305,1.061,0.32,1.643l0.046,7.422
			h-0.965v-7.422c-0.017-0.442-0.104-0.861-0.265-1.252c-0.162-0.391-0.379-0.729-0.654-1.021s-0.594-0.521-0.953-0.688
			c-0.359-0.169-0.747-0.254-1.161-0.254c-0.383,0-0.746,0.077-1.091,0.229c-0.346,0.152-0.655,0.359-0.932,0.621
			c-0.275,0.262-0.504,0.563-0.688,0.906c-0.185,0.346-0.308,0.717-0.367,1.114v7.767h-0.965V91.5
			c-0.017-0.461-0.104-0.886-0.265-1.274c-0.161-0.392-0.379-0.729-0.655-1.013c-0.275-0.281-0.601-0.508-0.976-0.678
			c-0.375-0.168-0.77-0.253-1.184-0.253c-0.383,0-0.743,0.073-1.08,0.22c-0.337,0.146-0.644,0.35-0.919,0.607
			c-0.276,0.262-0.502,0.563-0.678,0.907c-0.176,0.345-0.295,0.726-0.356,1.138l0.023,7.766h-0.965L68.675,88.56
			c0-0.262-0.011-0.506-0.034-0.734c-0.023-0.229-0.05-0.359-0.081-0.392h1.08L69.641,88.511L69.641,88.511z"/>
		<path fill="#515DA9" d="M90.204,98.184c0.245,0,0.501-0.026,0.771-0.08c0.269-0.054,0.535-0.123,0.803-0.207
			c0.271-0.084,0.525-0.176,0.771-0.274c0.244-0.101,0.459-0.194,0.643-0.287l0.393,0.851c-0.396,0.215-0.827,0.397-1.286,0.552
			c-0.46,0.153-0.948,0.275-1.471,0.367h-0.021c-0.095,0.018-0.188,0.021-0.289,0.021s-0.203,0-0.311,0
			c-0.645,0-1.245-0.142-1.805-0.426c-0.561-0.283-1.057-0.673-1.492-1.171s-0.789-1.079-1.059-1.745
			c-0.269-0.668-0.426-1.384-0.472-2.147v-0.438c0-0.812,0.123-1.576,0.368-2.298c0.244-0.72,0.574-1.348,0.986-1.884
			c0.414-0.536,0.896-0.961,1.449-1.275c0.551-0.313,1.141-0.471,1.769-0.471c0.644,0,1.239,0.148,1.792,0.448
			c0.552,0.299,1.029,0.708,1.438,1.229c0.404,0.521,0.723,1.134,0.952,1.839c0.229,0.704,0.345,1.471,0.345,2.297v0.554H86.37
			c0.028,0.644,0.151,1.239,0.366,1.792c0.216,0.552,0.494,1.029,0.84,1.436c0.345,0.406,0.742,0.729,1.193,0.967
			C89.221,98.065,89.697,98.184,90.204,98.184z M93.559,92.692c-0.045-0.612-0.172-1.19-0.379-1.733s-0.472-1.016-0.793-1.414
			c-0.322-0.396-0.689-0.711-1.103-0.939c-0.414-0.229-0.858-0.345-1.333-0.345c-0.459,0-0.896,0.112-1.311,0.345
			c-0.412,0.229-0.781,0.544-1.104,0.939c-0.322,0.398-0.586,0.871-0.793,1.414s-0.333,1.121-0.379,1.733H93.559z"/>
		<path fill="#515DA9" d="M97.051,88.442v0.62c0.367-0.582,0.827-1.029,1.379-1.344c0.551-0.313,1.155-0.471,1.814-0.471
			c0.535,0,1.037,0.108,1.505,0.332c0.467,0.223,0.873,0.521,1.218,0.896c0.346,0.376,0.62,0.817,0.827,1.333
			c0.206,0.513,0.317,1.063,0.333,1.645l0.068,7.467h-0.965l-0.022-7.467c-0.017-0.461-0.106-0.887-0.276-1.275
			c-0.168-0.391-0.391-0.731-0.666-1.022c-0.273-0.291-0.598-0.521-0.965-0.688c-0.367-0.166-0.758-0.252-1.172-0.252
			c-0.383,0-0.746,0.072-1.091,0.219s-0.655,0.349-0.931,0.607c-0.276,0.26-0.506,0.566-0.689,0.92s-0.307,0.734-0.367,1.147
			l0.022,7.812h-0.966l-0.021-10.431c0-0.261-0.012-0.479-0.035-0.655c-0.021-0.176-0.05-0.277-0.08-0.31h1.08V88.442z"/>
		<path fill="#515DA9" d="M115.225,98.184c-0.397,0.261-0.894,0.468-1.48,0.62c-0.592,0.152-1.229,0.244-1.919,0.275
			c-0.767-0.017-1.481-0.181-2.148-0.494c-0.665-0.313-1.247-0.738-1.745-1.274c-0.496-0.536-0.893-1.16-1.184-1.872
			c-0.291-0.713-0.438-1.482-0.438-2.311c0-0.795,0.146-1.551,0.438-2.262c0.291-0.714,0.688-1.335,1.184-1.861
			c0.498-0.528,1.08-0.945,1.745-1.252c0.667-0.308,1.384-0.459,2.148-0.459h0.046h-0.046c1.407,0,2.543,0.297,3.399,0.896v-5.146
			h0.965v13.67c0,0.384,0.008,0.721,0.022,1.012c0.015,0.26,0.03,0.505,0.046,0.734c0.016,0.229,0.047,0.358,0.092,0.391h-1.125
			V98.184z M115.225,89.477c-0.093-0.337-0.453-0.624-1.08-0.862c-0.629-0.236-1.4-0.354-2.319-0.354
			c-0.646,0.015-1.24,0.156-1.792,0.425c-0.553,0.271-1.034,0.62-1.447,1.058s-0.738,0.945-0.979,1.527
			c-0.236,0.582-0.354,1.202-0.354,1.859c0,0.676,0.119,1.311,0.354,1.906c0.238,0.599,0.563,1.123,0.979,1.574
			c0.413,0.451,0.896,0.814,1.447,1.092c0.552,0.274,1.146,0.422,1.792,0.438h0.046c0.46-0.016,0.896-0.068,1.311-0.161
			c0.414-0.092,0.771-0.198,1.067-0.321c0.299-0.121,0.536-0.265,0.713-0.425c0.177-0.161,0.265-0.333,0.265-0.519v-7.237H115.225z"
			/>
		<path fill="#515DA9" d="M122.896,98.184c0.246,0,0.502-0.026,0.771-0.08s0.536-0.123,0.804-0.207
			c0.271-0.084,0.524-0.176,0.771-0.274c0.244-0.101,0.459-0.194,0.643-0.287l0.391,0.851c-0.396,0.215-0.825,0.397-1.284,0.552
			c-0.462,0.153-0.95,0.275-1.472,0.367h-0.021c-0.094,0.018-0.188,0.021-0.288,0.021s-0.203,0-0.312,0
			c-0.644,0-1.244-0.142-1.803-0.426c-0.561-0.283-1.058-0.673-1.494-1.171c-0.436-0.498-0.789-1.079-1.057-1.745
			c-0.27-0.668-0.426-1.384-0.473-2.147v-0.438c0-0.812,0.123-1.576,0.369-2.298c0.244-0.72,0.574-1.348,0.986-1.884
			c0.413-0.536,0.896-0.961,1.447-1.275c0.551-0.313,1.143-0.471,1.77-0.471c0.645,0,1.239,0.148,1.793,0.448
			c0.551,0.299,1.028,0.708,1.437,1.229c0.405,0.521,0.724,1.134,0.953,1.839c0.229,0.704,0.345,1.471,0.345,2.297v0.554h-8.109
			c0.029,0.644,0.152,1.239,0.367,1.792c0.215,0.552,0.493,1.029,0.838,1.436c0.346,0.406,0.744,0.729,1.194,0.967
			C121.913,98.065,122.393,98.184,122.896,98.184z M126.252,92.692c-0.046-0.612-0.173-1.19-0.379-1.733
			c-0.207-0.543-0.473-1.016-0.793-1.414c-0.322-0.396-0.689-0.711-1.104-0.939c-0.416-0.229-0.857-0.345-1.332-0.345
			c-0.459,0-0.896,0.112-1.312,0.345c-0.413,0.229-0.78,0.544-1.104,0.939c-0.32,0.398-0.586,0.871-0.793,1.414
			s-0.332,1.121-0.379,1.733H126.252z"/>
		<path fill="#515DA9" d="M133.374,88.305c-0.077-0.031-0.149-0.046-0.22-0.046c-0.067,0-0.141,0-0.217,0
			c-0.383,0-0.748,0.072-1.092,0.218c-0.347,0.146-0.654,0.349-0.932,0.608c-0.275,0.262-0.502,0.565-0.68,0.92
			c-0.176,0.353-0.295,0.733-0.354,1.146l0.021,7.768h-0.965l-0.021-10.385c0-0.263-0.013-0.508-0.035-0.736
			c-0.021-0.229-0.05-0.358-0.08-0.391h1.08v1.699c0.367-0.582,0.823-1.027,1.367-1.344c0.543-0.313,1.146-0.473,1.803-0.473
			c0.077,0,0.165,0.004,0.267,0.013c0.1,0.008,0.195,0.026,0.287,0.058L133.374,88.305z"/>
		<path fill="#515DA9" d="M142.104,89.315c-0.353-0.337-0.781-0.594-1.285-0.771c-0.506-0.176-1.043-0.266-1.607-0.266
			c-0.779,0-1.438,0.186-1.965,0.553c-0.528,0.366-0.793,0.844-0.793,1.424c0,0.277,0.068,0.545,0.207,0.806
			c0.138,0.261,0.333,0.502,0.586,0.724c0.253,0.223,0.555,0.41,0.906,0.563c0.353,0.153,0.734,0.261,1.148,0.321
			c0.521,0.076,1.004,0.223,1.447,0.438s0.827,0.471,1.148,0.77c0.321,0.301,0.568,0.638,0.746,1.013
			c0.176,0.376,0.265,0.771,0.265,1.184c0,0.46-0.101,0.873-0.298,1.24c-0.199,0.368-0.473,0.687-0.816,0.953
			c-0.344,0.271-0.743,0.478-1.193,0.621c-0.453,0.146-0.932,0.218-1.437,0.218c-0.722,0-1.413-0.13-2.08-0.393
			c-0.666-0.26-1.198-0.627-1.597-1.103l0.734-0.573c0.321,0.32,0.734,0.59,1.24,0.803c0.505,0.217,1.051,0.322,1.631,0.322
			c0.797,0,1.473-0.189,2.021-0.574c0.553-0.383,0.828-0.889,0.828-1.517c0-0.291-0.068-0.569-0.207-0.839
			c-0.139-0.268-0.334-0.518-0.586-0.747s-0.551-0.425-0.896-0.586c-0.345-0.16-0.725-0.271-1.137-0.333
			c-0.537-0.076-1.026-0.222-1.473-0.438c-0.442-0.213-0.826-0.471-1.146-0.771c-0.322-0.299-0.575-0.632-0.76-0.999
			c-0.184-0.367-0.274-0.751-0.274-1.148c0-0.428,0.104-0.821,0.312-1.184c0.207-0.359,0.484-0.666,0.838-0.919
			s0.76-0.446,1.219-0.586c0.46-0.138,0.949-0.207,1.471-0.207c0.721,0,1.396,0.136,2.033,0.402s1.152,0.606,1.551,1.021
			L142.104,89.315z"/>
	</g>
	<g>
		<g>
			<path fill="#151530" d="M89.586,41.875c0-1.485-1.209-2.694-2.694-2.694H81.94c1.201-1.353,1.988-2.892,2.141-4.274
				c0.092-0.844-0.168-1.681-0.716-2.298c-0.5-0.563-1.185-0.877-1.927-0.884c-0.009,0-0.018,0-0.026,0
				c-0.717,0-1.391,0.276-1.899,0.78c-0.509,0.504-0.79,1.175-0.794,1.891c-0.025,0.157-0.302,0.698-0.978,1.34
				c-0.552,0.525-1.508,1.248-2.917,1.706c-0.553,0.18-1.058,0.51-1.501,0.982c-0.233,0.248-0.582,0.589-1.012,0.933
				c-0.212-0.111-0.453-0.176-0.708-0.176h-4.703c-0.837,0-1.519,0.682-1.519,1.519v12.542c0,0.837,0.682,1.519,1.519,1.519h4.703
				c0.571,0,1.069-0.317,1.328-0.784h12.001c1.271,0,2.304-1.033,2.304-2.303c0-0.426-0.116-0.827-0.32-1.17
				c0.661-0.405,1.104-1.134,1.104-1.965c0-0.426-0.117-0.827-0.32-1.17c0.661-0.405,1.104-1.135,1.104-1.965
				c0-0.48-0.147-0.926-0.4-1.296C89.115,43.621,89.586,42.801,89.586,41.875z M86.892,43.099h-0.391
				c-0.407,0-0.736,0.329-0.736,0.735s0.329,0.735,0.736,0.735c0.46,0,0.832,0.373,0.832,0.833c0,0.459-0.374,0.833-0.832,0.833
				h-0.785c-0.405,0-0.733,0.329-0.733,0.735s0.328,0.735,0.733,0.735c0.459,0,0.833,0.374,0.833,0.833
				c0,0.459-0.374,0.833-0.833,0.833h-0.783c-0.407,0-0.736,0.329-0.736,0.735c0,0.406,0.329,0.735,0.736,0.735
				c0.459,0,0.832,0.374,0.832,0.833c0,0.459-0.374,0.833-0.832,0.833H73.122v-7.104c0-0.406-0.329-0.735-0.734-0.735
				c-0.406,0-0.735,0.329-0.735,0.735v7.838c0,0.027-0.022,0.049-0.05,0.049H66.9c-0.027,0-0.049-0.022-0.049-0.049v-12.54
				c0-0.026,0.022-0.048,0.049-0.048h4.702c0.028,0,0.05,0.022,0.05,0.048v1.568c0,0.406,0.329,0.735,0.735,0.735
				c0.406,0,0.734-0.329,0.734-0.735v-1.568c0-0.035-0.002-0.071-0.005-0.105c0.551-0.426,0.991-0.857,1.278-1.163
				c0.272-0.29,0.569-0.489,0.884-0.59c1.729-0.561,2.893-1.466,3.564-2.125c0.844-0.827,1.347-1.688,1.347-2.306
				c0-0.326,0.127-0.631,0.357-0.86c0.233-0.231,0.542-0.354,0.876-0.354c0.412,0.004,0.687,0.215,0.842,0.391
				c0.269,0.302,0.4,0.737,0.354,1.161c-0.161,1.46-1.328,3.266-2.974,4.599c-0.241,0.196-0.336,0.523-0.231,0.815
				c0.104,0.293,0.382,0.49,0.693,0.49h6.784c0.675,0,1.224,0.55,1.224,1.224C88.115,42.549,87.566,43.099,86.892,43.099z"/>
		</g>
	</g>
	<g>
		<g>
			<path fill="#151530" d="M69.251,50.146c-0.406,0-0.739,0.333-0.739,0.739s0.333,0.739,0.739,0.739s0.739-0.333,0.739-0.739
				C69.99,50.479,69.657,50.146,69.251,50.146z"/>
		</g>
	</g>
	<g>
		<g>
			<path fill="#151530" d="M99.245,44.618l1.263-3.341c0.092-0.243,0.049-0.517-0.114-0.719l-2.232-2.788l0.167-3.567
				c0.014-0.259-0.112-0.506-0.33-0.649l-2.983-1.96l-0.942-3.445c-0.069-0.251-0.267-0.446-0.517-0.516l-3.445-0.942l-1.96-2.984
				c-0.143-0.218-0.389-0.343-0.647-0.331l-3.567,0.167l-2.787-2.232c-0.204-0.163-0.477-0.206-0.72-0.113l-3.341,1.262
				l-3.341-1.262c-0.243-0.092-0.517-0.049-0.719,0.113l-2.787,2.233l-3.567-0.168c-0.261-0.013-0.506,0.113-0.649,0.331
				l-1.96,2.984l-3.444,0.942c-0.251,0.069-0.446,0.265-0.515,0.516l-0.943,3.445l-2.984,1.96c-0.217,0.143-0.343,0.389-0.331,0.649
				l0.168,3.567l-2.233,2.787c-0.162,0.203-0.206,0.476-0.114,0.719l1.263,3.341l-1.263,3.341c-0.092,0.243-0.048,0.517,0.114,0.719
				l2.233,2.788l-0.168,3.567c-0.012,0.259,0.114,0.507,0.331,0.648l2.985,1.96l0.942,3.444c0.069,0.251,0.264,0.447,0.516,0.516
				l3.444,0.942l1.96,2.984c0.143,0.218,0.39,0.343,0.649,0.331l3.567-0.168l2.788,2.233c0.203,0.163,0.476,0.204,0.719,0.113
				l3.341-1.263l3.341,1.263c0.084,0.032,0.171,0.048,0.26,0.048c0.165,0,0.328-0.056,0.459-0.161l2.788-2.233l3.567,0.168
				c0.26,0.012,0.506-0.113,0.648-0.331l1.96-2.984l3.444-0.942c0.251-0.069,0.447-0.265,0.517-0.516l0.941-3.444l2.984-1.96
				c0.218-0.143,0.343-0.389,0.33-0.648l-0.168-3.567l2.233-2.788c0.164-0.203,0.205-0.476,0.114-0.719L99.245,44.618z
				 M97.772,44.878l1.213,3.208l-2.145,2.677c-0.111,0.14-0.169,0.314-0.16,0.494l0.161,3.426l-2.866,1.883
				c-0.149,0.099-0.258,0.248-0.306,0.42l-0.904,3.308L89.457,61.2c-0.173,0.048-0.321,0.156-0.42,0.306l-1.885,2.866l-3.425-0.162
				c-0.179-0.008-0.354,0.049-0.494,0.161l-2.677,2.145l-3.208-1.212c-0.084-0.032-0.171-0.049-0.26-0.049s-0.176,0.017-0.26,0.049
				l-3.208,1.212l-2.677-2.145c-0.141-0.112-0.316-0.168-0.495-0.161l-3.426,0.162l-1.883-2.866c-0.098-0.15-0.247-0.258-0.42-0.306
				l-3.308-0.905l-0.905-3.308c-0.047-0.172-0.156-0.321-0.305-0.42l-2.866-1.883l0.162-3.426c0.008-0.179-0.049-0.354-0.161-0.494
				l-2.144-2.677l1.212-3.208c0.063-0.167,0.063-0.352,0-0.52l-1.212-3.208l2.144-2.677c0.112-0.139,0.168-0.314,0.161-0.494
				l-0.162-3.426l2.866-1.883c0.149-0.098,0.258-0.248,0.305-0.42l0.905-3.308l3.308-0.905c0.173-0.047,0.322-0.156,0.42-0.306
				l1.883-2.866l3.426,0.162c0.179,0.008,0.354-0.049,0.495-0.161l2.677-2.144l3.208,1.212c0.167,0.063,0.351,0.063,0.52,0
				l3.208-1.212l2.677,2.144c0.139,0.112,0.314,0.168,0.494,0.161l3.425-0.162l1.885,2.866c0.097,0.15,0.246,0.259,0.42,0.306
				l3.309,0.905l0.904,3.308c0.048,0.173,0.155,0.322,0.306,0.42l2.866,1.883l-0.161,3.426c-0.01,0.179,0.049,0.354,0.16,0.494
				l2.145,2.677l-1.213,3.208C97.709,44.526,97.709,44.71,97.772,44.878z"/>
		</g>
	</g>
	<g>
		<g>
			<path fill="#151530" d="M90.896,31.929c-0.182-0.2-0.372-0.397-0.564-0.589c-0.19-0.191-0.388-0.381-0.587-0.564
				c-0.3-0.275-0.764-0.254-1.039,0.044c-0.274,0.299-0.255,0.763,0.045,1.038c0.184,0.168,0.365,0.344,0.542,0.521
				c0.177,0.177,0.352,0.359,0.521,0.544c0.146,0.157,0.343,0.237,0.542,0.237c0.176,0,0.354-0.064,0.495-0.193
				C91.151,32.693,91.172,32.229,90.896,31.929z"/>
		</g>
	</g>
	<g>
		<g>
			<path fill="#151530" d="M87.136,28.772c-3.544-2.257-7.811-3.262-12.014-2.826c-4.265,0.442-8.286,2.357-11.323,5.396
				c-3.343,3.343-5.29,7.783-5.481,12.504c-0.189,4.692,1.365,9.249,4.377,12.829c0.146,0.173,0.353,0.262,0.562,0.262
				c0.167,0,0.335-0.057,0.473-0.173c0.311-0.261,0.352-0.724,0.09-1.036c-2.775-3.298-4.208-7.498-4.032-11.823
				c0.176-4.351,1.97-8.443,5.051-11.524c2.799-2.799,6.505-4.565,10.436-4.972c3.875-0.402,7.807,0.523,11.072,2.604
				c0.343,0.218,0.797,0.118,1.016-0.224C87.578,29.444,87.479,28.99,87.136,28.772z"/>
		</g>
	</g>
	<g>
		<g>
			<path fill="#151530" d="M92.902,34.539c-0.217-0.343-0.672-0.443-1.015-0.225c-0.342,0.218-0.443,0.672-0.226,1.015
				c2.082,3.266,3.007,7.197,2.604,11.072c-0.407,3.931-2.173,7.636-4.972,10.436c-3.082,3.081-7.175,4.875-11.524,5.05
				c-4.325,0.176-8.524-1.257-11.823-4.033c-0.311-0.261-0.774-0.222-1.035,0.09c-0.262,0.31-0.222,0.774,0.089,1.035
				c3.384,2.847,7.641,4.393,12.06,4.393c0.257,0,0.513-0.005,0.77-0.016c4.72-0.19,9.161-2.138,12.505-5.48
				c3.037-3.038,4.952-7.059,5.395-11.324C96.165,42.349,95.16,38.083,92.902,34.539z"/>
		</g>
	</g>
</g>
</svg>
