<?xml version="1.0" encoding="utf-8"?>
<!-- Generator: Adobe Illustrator 16.0.0, SVG Export Plug-In . SVG Version: 6.00 Build 0)  -->
<!DOCTYPE svg PUBLIC "-//W3C//DTD SVG 1.1//EN" "http://www.w3.org/Graphics/SVG/1.1/DTD/svg11.dtd">
<svg version="1.1" id="Layer_1" xmlns="http://www.w3.org/2000/svg" xmlns:xlink="http://www.w3.org/1999/xlink" x="0px" y="0px"
	 width="180px" height="110.333px" viewBox="-15 0 180 110.333" enable-background="new -15 0 180 110.333" xml:space="preserve">
<g>
	<path fill="#FFFFFF" d="M130.424,54.335c0,29.458-23.875,53.334-53.334,53.334S23.755,83.792,23.755,54.335
		C23.755,24.877,47.631,1,77.09,1S130.424,24.877,130.424,54.335z"/>
	<g>
		<g>
			<path fill="#151530" d="M89.586,41.875c0-1.485-1.209-2.694-2.693-2.694h-4.953c1.201-1.353,1.988-2.892,2.142-4.274
				c0.092-0.844-0.168-1.681-0.716-2.298c-0.5-0.563-1.186-0.877-1.928-0.884c-0.008,0-0.018,0-0.025,0
				c-0.717,0-1.391,0.276-1.898,0.78c-0.51,0.504-0.791,1.175-0.795,1.891c-0.025,0.157-0.302,0.698-0.978,1.34
				c-0.552,0.525-1.509,1.248-2.917,1.706c-0.553,0.18-1.058,0.51-1.501,0.982c-0.233,0.248-0.582,0.589-1.012,0.933
				c-0.212-0.111-0.453-0.176-0.708-0.176H66.9c-0.837,0-1.519,0.682-1.519,1.519v12.542c0,0.837,0.682,1.519,1.519,1.519h4.703
				c0.571,0,1.069-0.317,1.328-0.784h12c1.271,0,2.305-1.033,2.305-2.303c0-0.426-0.116-0.827-0.32-1.17
				c0.661-0.405,1.104-1.134,1.104-1.965c0-0.426-0.117-0.827-0.319-1.17c0.661-0.405,1.104-1.135,1.104-1.965
				c0-0.48-0.147-0.926-0.4-1.296C89.115,43.621,89.586,42.801,89.586,41.875z M86.893,43.099h-0.392
				c-0.407,0-0.735,0.329-0.735,0.735s0.328,0.735,0.735,0.735c0.46,0,0.832,0.373,0.832,0.833c0,0.459-0.374,0.833-0.832,0.833
				h-0.785c-0.405,0-0.733,0.329-0.733,0.735c0,0.406,0.328,0.735,0.733,0.735c0.459,0,0.833,0.374,0.833,0.833
				s-0.374,0.833-0.833,0.833h-0.782c-0.408,0-0.736,0.329-0.736,0.735c0,0.406,0.328,0.735,0.736,0.735
				c0.459,0,0.832,0.374,0.832,0.833s-0.375,0.833-0.832,0.833H73.122v-7.104c0-0.406-0.329-0.735-0.734-0.735
				c-0.406,0-0.735,0.329-0.735,0.735v7.838c0,0.027-0.022,0.049-0.05,0.049H66.9c-0.027,0-0.049-0.022-0.049-0.049v-12.54
				c0-0.026,0.022-0.048,0.049-0.048h4.702c0.028,0,0.05,0.022,0.05,0.048v1.568c0,0.406,0.329,0.735,0.735,0.735
				c0.406,0,0.734-0.329,0.734-0.735v-1.568c0-0.035-0.002-0.071-0.005-0.105c0.551-0.426,0.991-0.857,1.278-1.163
				c0.272-0.29,0.569-0.489,0.884-0.59c1.729-0.562,2.893-1.466,3.564-2.125c0.844-0.827,1.348-1.688,1.348-2.306
				c0-0.326,0.127-0.631,0.356-0.86c0.233-0.231,0.542-0.354,0.876-0.354c0.412,0.004,0.688,0.215,0.842,0.391
				c0.27,0.302,0.4,0.737,0.354,1.161c-0.161,1.46-1.328,3.266-2.974,4.599c-0.242,0.196-0.336,0.523-0.231,0.815
				c0.104,0.293,0.382,0.49,0.692,0.49h6.785c0.674,0,1.223,0.55,1.223,1.224C88.115,42.549,87.566,43.099,86.893,43.099z"/>
		</g>
	</g>
	<g>
		<g>
			<path fill="#151530" d="M69.251,50.146c-0.406,0-0.739,0.333-0.739,0.739c0,0.406,0.333,0.739,0.739,0.739
				c0.406,0,0.739-0.333,0.739-0.739C69.99,50.479,69.657,50.146,69.251,50.146z"/>
		</g>
	</g>
	<g>
		<g>
			<path fill="#151530" d="M99.245,44.618l1.263-3.341c0.092-0.243,0.049-0.517-0.113-0.719l-2.232-2.788l0.167-3.567
				c0.014-0.259-0.112-0.506-0.33-0.649l-2.983-1.96l-0.941-3.445c-0.069-0.251-0.268-0.446-0.518-0.516l-3.445-0.942l-1.959-2.984
				c-0.144-0.218-0.389-0.343-0.647-0.331l-3.567,0.167l-2.787-2.232c-0.203-0.163-0.477-0.206-0.719-0.113L77.09,22.46
				l-3.341-1.262c-0.243-0.092-0.517-0.049-0.719,0.113l-2.787,2.233l-3.567-0.168c-0.261-0.013-0.506,0.113-0.649,0.331
				l-1.96,2.984l-3.444,0.942c-0.251,0.069-0.446,0.265-0.515,0.516l-0.943,3.445l-2.984,1.96c-0.217,0.143-0.343,0.389-0.331,0.649
				l0.168,3.567l-2.233,2.787c-0.162,0.203-0.206,0.476-0.114,0.719l1.263,3.341l-1.263,3.341c-0.092,0.243-0.048,0.517,0.114,0.719
				l2.233,2.788l-0.168,3.567c-0.012,0.259,0.114,0.507,0.331,0.648l2.985,1.96l0.942,3.444c0.069,0.251,0.264,0.447,0.516,0.516
				l3.444,0.942l1.96,2.984c0.143,0.218,0.39,0.343,0.649,0.331l3.567-0.168l2.788,2.232c0.203,0.164,0.476,0.205,0.719,0.113
				l3.341-1.263l3.342,1.263c0.084,0.032,0.17,0.049,0.26,0.049c0.164,0,0.328-0.057,0.459-0.162l2.787-2.232l3.567,0.168
				c0.261,0.012,0.507-0.113,0.647-0.331l1.961-2.984l3.443-0.942c0.252-0.069,0.447-0.265,0.518-0.516l0.941-3.444l2.983-1.96
				c0.218-0.143,0.343-0.389,0.33-0.648l-0.168-3.567l2.233-2.788c0.164-0.203,0.205-0.476,0.113-0.719L99.245,44.618z
				 M97.771,44.878l1.213,3.208l-2.145,2.677c-0.111,0.14-0.169,0.314-0.16,0.494l0.161,3.426l-2.866,1.883
				c-0.148,0.099-0.258,0.248-0.306,0.42l-0.903,3.308L89.457,61.2c-0.173,0.048-0.32,0.156-0.42,0.306l-1.885,2.867l-3.426-0.163
				c-0.179-0.008-0.354,0.049-0.494,0.161l-2.676,2.146l-3.209-1.212c-0.084-0.032-0.171-0.049-0.26-0.049s-0.176,0.017-0.26,0.049
				l-3.208,1.212l-2.677-2.146c-0.141-0.111-0.316-0.167-0.495-0.161l-3.426,0.163l-1.883-2.867c-0.098-0.15-0.247-0.258-0.42-0.306
				l-3.308-0.905l-0.905-3.308c-0.047-0.172-0.156-0.321-0.305-0.42l-2.866-1.883l0.162-3.426c0.008-0.179-0.049-0.354-0.161-0.494
				l-2.144-2.677l1.212-3.208c0.063-0.167,0.063-0.352,0-0.52l-1.212-3.208l2.144-2.677c0.112-0.139,0.168-0.314,0.161-0.494
				l-0.162-3.426l2.866-1.883c0.149-0.098,0.258-0.248,0.305-0.42l0.905-3.308l3.308-0.905c0.173-0.047,0.322-0.156,0.42-0.306
				l1.883-2.866l3.426,0.162c0.179,0.008,0.354-0.049,0.495-0.161l2.677-2.144l3.208,1.212c0.167,0.063,0.352,0.063,0.52,0
				l3.209-1.212l2.676,2.144c0.14,0.112,0.314,0.168,0.494,0.161l3.426-0.162l1.885,2.866c0.097,0.15,0.246,0.259,0.42,0.306
				l3.309,0.905l0.904,3.308c0.048,0.173,0.155,0.322,0.307,0.42l2.865,1.883l-0.16,3.426c-0.011,0.179,0.049,0.354,0.159,0.494
				l2.146,2.677l-1.213,3.208C97.709,44.526,97.709,44.71,97.771,44.878z"/>
		</g>
	</g>
	<g>
		<g>
			<path fill="#151530" d="M90.896,31.929c-0.183-0.2-0.373-0.397-0.564-0.589c-0.189-0.191-0.389-0.381-0.587-0.564
				c-0.3-0.275-0.765-0.254-1.039,0.044c-0.274,0.299-0.255,0.763,0.045,1.038c0.185,0.168,0.365,0.344,0.542,0.521
				c0.178,0.177,0.352,0.359,0.521,0.544c0.146,0.157,0.343,0.237,0.541,0.237c0.177,0,0.354-0.064,0.496-0.193
				C91.15,32.693,91.172,32.229,90.896,31.929z"/>
		</g>
	</g>
	<g>
		<g>
			<path fill="#151530" d="M87.137,28.772c-3.545-2.257-7.812-3.262-12.015-2.826c-4.265,0.442-8.286,2.357-11.323,5.396
				c-3.343,3.343-5.29,7.783-5.481,12.504c-0.189,4.692,1.365,9.249,4.377,12.829c0.146,0.173,0.353,0.262,0.562,0.262
				c0.167,0,0.335-0.057,0.473-0.173c0.311-0.261,0.352-0.724,0.09-1.036c-2.775-3.298-4.208-7.498-4.032-11.823
				c0.176-4.351,1.97-8.443,5.051-11.524c2.799-2.799,6.505-4.565,10.436-4.972c3.875-0.402,7.807,0.523,11.073,2.604
				c0.342,0.218,0.797,0.118,1.016-0.224C87.578,29.444,87.479,28.99,87.137,28.772z"/>
		</g>
	</g>
	<g>
		<g>
			<path fill="#151530" d="M92.902,34.539c-0.217-0.343-0.672-0.443-1.016-0.225c-0.342,0.218-0.443,0.672-0.226,1.015
				c2.082,3.266,3.007,7.197,2.604,11.072c-0.408,3.931-2.174,7.636-4.973,10.436c-3.082,3.081-7.175,4.875-11.523,5.05
				c-4.326,0.176-8.524-1.257-11.824-4.033c-0.311-0.261-0.774-0.222-1.035,0.09c-0.262,0.31-0.222,0.774,0.089,1.035
				c3.384,2.847,7.641,4.393,12.061,4.393c0.256,0,0.512-0.005,0.77-0.016c4.72-0.19,9.161-2.138,12.505-5.48
				c3.037-3.038,4.952-7.059,5.396-11.324C96.165,42.349,95.16,38.083,92.902,34.539z"/>
		</g>
	</g>
</g>
<g>
	<path fill="#515DA9" d="M32.625,95.15l0.016,5.364h-0.65l-0.016-10.681h3.061c0.422,0,0.816,0.071,1.181,0.21
		c0.366,0.14,0.686,0.326,0.958,0.564c0.273,0.238,0.489,0.515,0.649,0.834c0.16,0.32,0.24,0.665,0.24,1.035
		c0,0.371-0.08,0.72-0.24,1.044c-0.16,0.323-0.376,0.608-0.649,0.85c-0.272,0.243-0.593,0.435-0.958,0.574
		c-0.365,0.14-0.759,0.209-1.181,0.209h-1.531l4.73,5.364h-0.835l-4.745-5.368H32.625z M32.625,90.438v4.064h2.411
		c0.319,0,0.623-0.052,0.912-0.155c0.288-0.101,0.541-0.242,0.757-0.424c0.216-0.182,0.388-0.395,0.518-0.642
		c0.128-0.249,0.193-0.517,0.193-0.803c0-0.278-0.064-0.543-0.193-0.789c-0.13-0.246-0.302-0.463-0.518-0.649
		c-0.217-0.185-0.469-0.332-0.757-0.438c-0.289-0.11-0.593-0.163-0.912-0.163h-0.032L32.625,90.438L32.625,90.438z"/>
	<path fill="#515DA9" d="M42.331,100.02c0.165,0,0.337-0.019,0.519-0.055c0.18-0.035,0.36-0.081,0.541-0.139
		c0.18-0.057,0.352-0.118,0.518-0.186c0.166-0.065,0.309-0.13,0.433-0.191l0.263,0.572c-0.268,0.145-0.557,0.267-0.865,0.371
		c-0.31,0.103-0.64,0.185-0.989,0.247h-0.016c-0.062,0.012-0.126,0.013-0.193,0.013c-0.067,0-0.137,0-0.208,0
		c-0.434,0-0.838-0.094-1.213-0.285c-0.376-0.191-0.711-0.453-1.005-0.788c-0.293-0.336-0.531-0.726-0.711-1.173
		c-0.18-0.451-0.286-0.932-0.316-1.444v-0.296c0-0.546,0.082-1.06,0.246-1.545c0.165-0.485,0.387-0.906,0.665-1.268
		c0.277-0.361,0.603-0.646,0.974-0.856c0.37-0.211,0.767-0.318,1.19-0.318c0.433,0,0.834,0.099,1.206,0.301
		c0.371,0.201,0.692,0.477,0.966,0.827c0.273,0.351,0.487,0.764,0.642,1.238c0.154,0.472,0.232,0.988,0.232,1.544v0.374H39.75
		c0.02,0.432,0.103,0.834,0.248,1.205c0.144,0.371,0.332,0.692,0.563,0.966c0.232,0.272,0.5,0.491,0.804,0.649
		C41.669,99.94,41.991,100.02,42.331,100.02z M44.587,96.326c-0.031-0.412-0.115-0.801-0.254-1.166
		c-0.14-0.366-0.317-0.684-0.533-0.952c-0.217-0.265-0.464-0.478-0.742-0.63c-0.279-0.153-0.577-0.233-0.896-0.233
		c-0.309,0-0.603,0.076-0.881,0.233c-0.279,0.152-0.525,0.365-0.742,0.63c-0.216,0.269-0.394,0.586-0.533,0.952
		c-0.14,0.365-0.224,0.754-0.255,1.166H44.587z"/>
	<path fill="#515DA9" d="M51.929,94.378c-0.268-0.31-0.59-0.56-0.966-0.75c-0.377-0.19-0.786-0.285-1.229-0.285
		c-0.423,0-0.819,0.088-1.19,0.264c-0.371,0.176-0.692,0.411-0.966,0.71s-0.49,0.652-0.649,1.06c-0.16,0.406-0.24,0.842-0.24,1.305
		c0,0.455,0.081,0.884,0.24,1.291s0.375,0.76,0.649,1.058s0.595,0.535,0.966,0.712c0.371,0.175,0.768,0.264,1.19,0.264
		c0.422,0,0.819-0.089,1.19-0.264c0.371-0.177,0.696-0.418,0.973-0.727l0.463,0.448c-0.35,0.36-0.748,0.649-1.19,0.866
		c-0.443,0.216-0.922,0.323-1.437,0.323c-0.505,0-0.982-0.105-1.43-0.318c-0.448-0.21-0.84-0.495-1.174-0.855s-0.6-0.781-0.796-1.26
		c-0.196-0.479-0.294-0.994-0.294-1.538c0-0.546,0.098-1.062,0.294-1.545s0.461-0.906,0.796-1.268
		c0.334-0.36,0.727-0.646,1.174-0.858c0.449-0.209,0.925-0.315,1.43-0.315c0.534,0,1.029,0.109,1.483,0.331
		c0.454,0.221,0.845,0.513,1.175,0.873L51.929,94.378z"/>
	<path fill="#515DA9" d="M53.413,96.696c0-0.555,0.095-1.076,0.286-1.56c0.19-0.483,0.451-0.906,0.78-1.268
		c0.33-0.36,0.716-0.646,1.159-0.856c0.442-0.21,0.912-0.317,1.407-0.317c0.494,0,0.957,0.105,1.39,0.317
		c0.433,0.21,0.812,0.496,1.136,0.856c0.324,0.361,0.582,0.784,0.772,1.268c0.191,0.484,0.286,1.005,0.286,1.56
		c0,0.548-0.095,1.06-0.286,1.539c-0.19,0.479-0.448,0.899-0.772,1.26c-0.325,0.359-0.703,0.646-1.136,0.857
		c-0.433,0.209-0.896,0.316-1.39,0.316c-0.495,0-0.965-0.105-1.407-0.316c-0.443-0.211-0.83-0.498-1.159-0.857
		c-0.329-0.36-0.59-0.781-0.78-1.26C53.508,97.755,53.413,97.243,53.413,96.696z M54.062,96.696c0,0.454,0.078,0.885,0.232,1.29
		c0.154,0.407,0.367,0.762,0.642,1.061c0.273,0.299,0.589,0.535,0.951,0.71c0.36,0.178,0.747,0.266,1.159,0.266
		c0.402,0,0.78-0.088,1.135-0.266c0.355-0.175,0.665-0.409,0.927-0.71c0.262-0.301,0.472-0.653,0.626-1.061
		c0.154-0.404,0.232-0.836,0.232-1.29c0-0.462-0.077-0.897-0.232-1.304c-0.155-0.405-0.364-0.763-0.626-1.066
		c-0.263-0.305-0.572-0.545-0.927-0.718c-0.355-0.174-0.733-0.264-1.135-0.264c-0.412,0-0.799,0.088-1.159,0.264
		c-0.362,0.177-0.677,0.413-0.951,0.718c-0.273,0.304-0.487,0.659-0.642,1.066C54.139,95.798,54.062,96.233,54.062,96.696z"/>
	<path fill="#515DA9" d="M62.284,93.512v0.402c0.248-0.38,0.553-0.677,0.919-0.887c0.365-0.211,0.765-0.317,1.198-0.317
		c0.546,0,1.033,0.161,1.46,0.486c0.428,0.325,0.744,0.733,0.951,1.229c0.102-0.311,0.242-0.573,0.417-0.798
		c0.174-0.22,0.371-0.402,0.587-0.541c0.217-0.138,0.443-0.24,0.681-0.31c0.236-0.067,0.463-0.1,0.679-0.1
		c0.361,0,0.699,0.072,1.013,0.216c0.315,0.146,0.587,0.344,0.819,0.595c0.233,0.253,0.415,0.553,0.549,0.897
		c0.134,0.346,0.206,0.715,0.217,1.105l0.031,4.992h-0.649v-4.992c-0.011-0.298-0.07-0.58-0.178-0.843s-0.254-0.49-0.44-0.687
		c-0.185-0.195-0.399-0.35-0.642-0.462c-0.242-0.114-0.503-0.172-0.78-0.172c-0.258,0-0.502,0.052-0.734,0.154
		c-0.233,0.103-0.441,0.242-0.626,0.417c-0.186,0.177-0.34,0.379-0.463,0.609c-0.125,0.233-0.207,0.483-0.248,0.751v5.224h-0.649
		v-4.96c-0.011-0.312-0.069-0.596-0.178-0.857c-0.108-0.265-0.255-0.491-0.44-0.682c-0.185-0.188-0.404-0.343-0.657-0.456
		s-0.518-0.17-0.796-0.17c-0.257,0-0.5,0.05-0.726,0.147c-0.227,0.099-0.434,0.235-0.619,0.408
		c-0.185,0.177-0.337,0.379-0.456,0.611c-0.118,0.231-0.198,0.486-0.239,0.765l0.015,5.224h-0.649l-0.015-6.968
		c0-0.177-0.007-0.341-0.023-0.494c-0.016-0.154-0.034-0.242-0.055-0.264h0.727v0.725L62.284,93.512L62.284,93.512z"/>
	<path fill="#515DA9" d="M73.706,93.512v0.402c0.248-0.38,0.554-0.677,0.919-0.887c0.366-0.211,0.765-0.317,1.198-0.317
		c0.547,0,1.033,0.161,1.461,0.486s0.745,0.733,0.951,1.229c0.102-0.311,0.242-0.573,0.416-0.798
		c0.176-0.221,0.371-0.402,0.588-0.541c0.215-0.138,0.441-0.24,0.68-0.31c0.238-0.067,0.464-0.1,0.68-0.1
		c0.361,0,0.698,0.072,1.014,0.216c0.314,0.146,0.588,0.344,0.818,0.595c0.234,0.253,0.416,0.553,0.55,0.897
		c0.132,0.346,0.205,0.715,0.216,1.105l0.031,4.992h-0.65v-4.992c-0.01-0.298-0.07-0.58-0.178-0.843
		c-0.109-0.263-0.254-0.49-0.439-0.687s-0.4-0.35-0.643-0.462c-0.24-0.114-0.502-0.172-0.779-0.172
		c-0.259,0-0.504,0.052-0.734,0.154c-0.232,0.103-0.441,0.242-0.627,0.417c-0.186,0.177-0.339,0.379-0.463,0.609
		c-0.124,0.233-0.207,0.483-0.248,0.751v5.224h-0.648v-4.96c-0.012-0.312-0.07-0.596-0.178-0.857
		c-0.107-0.265-0.255-0.491-0.439-0.682c-0.186-0.188-0.405-0.343-0.657-0.456c-0.253-0.113-0.519-0.17-0.798-0.17
		c-0.257,0-0.499,0.05-0.726,0.147c-0.227,0.099-0.434,0.235-0.619,0.408c-0.186,0.177-0.337,0.379-0.455,0.611
		c-0.119,0.231-0.199,0.486-0.239,0.765l0.015,5.224h-0.649l-0.016-6.968c0-0.177-0.007-0.341-0.022-0.494
		c-0.015-0.154-0.034-0.242-0.055-0.264h0.727L73.706,93.512L73.706,93.512z"/>
	<path fill="#515DA9" d="M87.537,100.02c0.166,0,0.339-0.019,0.52-0.055c0.182-0.035,0.359-0.081,0.539-0.139
		c0.184-0.057,0.354-0.118,0.52-0.186c0.164-0.066,0.31-0.13,0.432-0.191l0.265,0.572c-0.266,0.145-0.556,0.267-0.864,0.371
		c-0.309,0.103-0.638,0.185-0.989,0.247h-0.015c-0.063,0.012-0.127,0.013-0.195,0.013s-0.136,0-0.207,0
		c-0.436,0-0.838-0.094-1.215-0.285c-0.379-0.191-0.711-0.453-1.004-0.788c-0.294-0.336-0.531-0.726-0.713-1.173
		c-0.18-0.451-0.287-0.932-0.316-1.444v-0.296c0-0.546,0.082-1.06,0.247-1.545s0.386-0.906,0.662-1.268
		c0.278-0.361,0.603-0.646,0.976-0.856c0.37-0.211,0.766-0.318,1.189-0.318c0.434,0,0.834,0.099,1.206,0.301
		c0.371,0.201,0.691,0.477,0.968,0.827c0.271,0.351,0.485,0.764,0.64,1.238c0.154,0.472,0.233,0.988,0.233,1.544v0.374h-5.455
		c0.02,0.432,0.102,0.834,0.246,1.205s0.332,0.692,0.565,0.966c0.232,0.272,0.499,0.491,0.802,0.649
		C86.877,99.94,87.197,100.02,87.537,100.02z M89.795,96.326c-0.031-0.412-0.117-0.801-0.256-1.166
		c-0.139-0.366-0.316-0.684-0.533-0.952c-0.217-0.265-0.463-0.478-0.742-0.63c-0.279-0.155-0.576-0.233-0.896-0.233
		c-0.309,0-0.602,0.076-0.881,0.233c-0.278,0.152-0.525,0.365-0.742,0.63c-0.217,0.269-0.396,0.586-0.534,0.952
		c-0.14,0.365-0.225,0.754-0.255,1.166H89.795z"/>
	<path fill="#515DA9" d="M92.144,93.466v0.417c0.247-0.392,0.558-0.691,0.927-0.904c0.371-0.21,0.777-0.315,1.221-0.315
		c0.361,0,0.699,0.071,1.013,0.223c0.313,0.148,0.587,0.351,0.819,0.602c0.233,0.253,0.418,0.551,0.557,0.897
		c0.139,0.346,0.214,0.716,0.224,1.106l0.047,5.022h-0.649l-0.016-5.022c-0.011-0.311-0.072-0.597-0.186-0.858
		c-0.113-0.263-0.264-0.491-0.447-0.688c-0.184-0.194-0.403-0.35-0.65-0.461c-0.246-0.112-0.509-0.17-0.788-0.17
		c-0.257,0-0.502,0.048-0.733,0.146c-0.232,0.1-0.44,0.235-0.626,0.408c-0.187,0.175-0.341,0.38-0.464,0.619
		c-0.123,0.238-0.207,0.493-0.247,0.772l0.015,5.255H91.51l-0.016-7.018c0-0.176-0.008-0.321-0.023-0.44
		c-0.015-0.118-0.033-0.187-0.055-0.209h0.728V93.466z"/>
	<path fill="#515DA9" d="M104.369,100.02c-0.267,0.175-0.602,0.314-0.996,0.417c-0.398,0.102-0.826,0.164-1.291,0.185
		c-0.516-0.011-0.994-0.121-1.443-0.332c-0.447-0.21-0.839-0.496-1.174-0.857c-0.334-0.359-0.602-0.781-0.798-1.259
		c-0.194-0.479-0.295-0.998-0.295-1.555c0-0.534,0.1-1.044,0.295-1.522c0.196-0.479,0.464-0.897,0.798-1.252
		c0.335-0.355,0.727-0.636,1.174-0.841c0.449-0.208,0.932-0.309,1.443-0.309h0.031h-0.031c0.947,0,1.711,0.199,2.287,0.602v-3.461
		h0.649v9.195c0,0.259,0.005,0.485,0.015,0.682c0.01,0.173,0.021,0.34,0.031,0.492c0.01,0.154,0.032,0.24,0.063,0.264h-0.758V100.02
		z M104.369,94.163c-0.062-0.227-0.305-0.421-0.727-0.581c-0.423-0.157-0.941-0.237-1.561-0.237
		c-0.436,0.01-0.832,0.106-1.204,0.286c-0.372,0.182-0.696,0.417-0.974,0.712c-0.278,0.294-0.496,0.636-0.66,1.026
		c-0.158,0.393-0.236,0.81-0.236,1.251c0,0.455,0.078,0.882,0.236,1.284c0.162,0.401,0.379,0.755,0.66,1.057
		c0.277,0.305,0.602,0.547,0.974,0.736c0.372,0.184,0.769,0.283,1.204,0.293h0.031c0.31-0.01,0.603-0.046,0.883-0.106
		c0.279-0.063,0.52-0.136,0.718-0.217c0.2-0.083,0.36-0.179,0.479-0.286c0.12-0.108,0.179-0.226,0.179-0.35v-4.868H104.369z"/>
	<path fill="#515DA9" d="M109.53,100.02c0.166,0,0.338-0.019,0.519-0.055c0.181-0.035,0.359-0.081,0.54-0.139
		c0.182-0.057,0.353-0.118,0.52-0.186c0.163-0.066,0.309-0.13,0.433-0.191l0.263,0.572c-0.267,0.145-0.556,0.267-0.863,0.371
		c-0.312,0.103-0.64,0.185-0.991,0.247h-0.015c-0.063,0.012-0.126,0.013-0.192,0.013c-0.067,0-0.138,0-0.212,0
		c-0.432,0-0.835-0.094-1.212-0.285s-0.711-0.453-1.005-0.788c-0.292-0.336-0.53-0.726-0.712-1.173
		c-0.181-0.451-0.285-0.932-0.316-1.444v-0.296c0-0.546,0.082-1.06,0.248-1.545c0.164-0.485,0.387-0.906,0.663-1.268
		c0.277-0.361,0.603-0.646,0.973-0.856c0.371-0.211,0.77-0.318,1.191-0.318c0.434,0,0.833,0.099,1.207,0.301
		c0.37,0.201,0.69,0.477,0.965,0.827c0.272,0.351,0.487,0.764,0.642,1.238c0.154,0.472,0.232,0.988,0.232,1.544v0.374h-5.455
		c0.02,0.432,0.103,0.834,0.247,1.205s0.331,0.692,0.563,0.966c0.233,0.272,0.5,0.491,0.804,0.649
		C108.868,99.94,109.19,100.02,109.53,100.02z M111.787,96.326c-0.03-0.412-0.116-0.801-0.255-1.166
		c-0.139-0.366-0.318-0.684-0.534-0.952c-0.215-0.265-0.463-0.478-0.742-0.63c-0.279-0.155-0.577-0.233-0.896-0.233
		c-0.309,0-0.604,0.076-0.883,0.233c-0.278,0.152-0.525,0.365-0.742,0.63c-0.216,0.269-0.395,0.586-0.533,0.952
		c-0.14,0.365-0.223,0.754-0.256,1.166H111.787z"/>
	<path fill="#515DA9" d="M116.579,93.375c-0.053-0.022-0.102-0.031-0.149-0.031c-0.045,0-0.093,0-0.146,0
		c-0.257,0-0.503,0.049-0.734,0.146c-0.233,0.099-0.44,0.236-0.627,0.41c-0.185,0.176-0.338,0.38-0.457,0.619
		c-0.119,0.237-0.199,0.492-0.239,0.771l0.015,5.226h-0.648l-0.015-6.985c0-0.177-0.009-0.343-0.022-0.496
		c-0.016-0.154-0.034-0.241-0.055-0.263h0.726v1.144c0.247-0.392,0.555-0.691,0.921-0.905c0.364-0.209,0.771-0.318,1.212-0.318
		c0.052,0,0.111,0.003,0.181,0.01c0.066,0.005,0.13,0.018,0.192,0.039L116.579,93.375z"/>
	<path fill="#515DA9" d="M122.45,94.053c-0.236-0.227-0.525-0.398-0.864-0.519c-0.34-0.118-0.702-0.179-1.081-0.179
		c-0.523,0-0.967,0.126-1.32,0.373c-0.356,0.245-0.534,0.567-0.534,0.958c0,0.187,0.045,0.366,0.139,0.541
		c0.094,0.176,0.225,0.339,0.396,0.486c0.169,0.15,0.372,0.276,0.608,0.38c0.238,0.104,0.493,0.175,0.772,0.216
		c0.35,0.051,0.676,0.149,0.973,0.294c0.299,0.145,0.557,0.316,0.773,0.518c0.216,0.203,0.382,0.43,0.502,0.682
		c0.117,0.253,0.178,0.52,0.178,0.798c0,0.309-0.067,0.586-0.2,0.834c-0.135,0.248-0.318,0.462-0.55,0.641
		c-0.23,0.183-0.5,0.322-0.802,0.417c-0.306,0.1-0.628,0.147-0.968,0.147c-0.484,0-0.949-0.088-1.398-0.266
		c-0.447-0.173-0.807-0.421-1.073-0.741l0.493-0.385c0.216,0.215,0.493,0.396,0.834,0.539c0.34,0.146,0.707,0.218,1.097,0.218
		c0.536,0,0.991-0.127,1.359-0.387c0.372-0.258,0.558-0.598,0.558-1.021c0-0.195-0.046-0.383-0.14-0.565
		c-0.094-0.179-0.224-0.347-0.394-0.502c-0.171-0.153-0.372-0.285-0.604-0.394c-0.23-0.107-0.486-0.182-0.764-0.224
		c-0.361-0.051-0.69-0.15-0.99-0.295c-0.298-0.144-0.558-0.315-0.771-0.519c-0.218-0.201-0.386-0.426-0.512-0.673
		c-0.123-0.246-0.184-0.505-0.184-0.771c0-0.287,0.068-0.553,0.21-0.797c0.14-0.241,0.325-0.448,0.563-0.618
		c0.237-0.17,0.511-0.3,0.819-0.393c0.311-0.095,0.639-0.141,0.99-0.141c0.484,0,0.939,0.093,1.367,0.271
		c0.429,0.179,0.776,0.407,1.044,0.687L122.45,94.053z"/>
</g>
</svg>
