<?xml version="1.0" encoding="utf-8"?>
<!-- Generator: Adobe Illustrator 16.0.0, SVG Export Plug-In . SVG Version: 6.00 Build 0)  -->
<!DOCTYPE svg PUBLIC "-//W3C//DTD SVG 1.1//EN" "http://www.w3.org/Graphics/SVG/1.1/DTD/svg11.dtd">
<svg version="1.1" id="Layer_1" xmlns="http://www.w3.org/2000/svg" xmlns:xlink="http://www.w3.org/1999/xlink" x="0px" y="0px"
	 width="150px" height="127.667px" viewBox="0 0 150 127.667" enable-background="new 0 0 150 127.667" xml:space="preserve">
<g>
	<path fill="#FFFFFF" d="M130.424,54.335c0,29.458-23.875,53.334-53.334,53.334S23.755,83.792,23.755,54.335
		C23.755,24.877,47.631,1,77.09,1S130.424,24.877,130.424,54.335z"/>
	<g>
		<path fill="#515DA9" d="M2.107,79.626l8.225,13.945V79.626h0.965l0.023,15.877h-0.965L2.107,81.488L2.13,95.503H1.188
			L1.165,79.626H2.107z"/>
		<path fill="#515DA9" d="M19.821,94.583c-0.353,0.354-0.766,0.633-1.241,0.84c-0.475,0.205-0.988,0.31-1.539,0.31
			c-0.506,0-0.984-0.092-1.436-0.274c-0.452-0.185-0.843-0.434-1.172-0.748c-0.33-0.313-0.594-0.681-0.792-1.103
			c-0.199-0.421-0.299-0.869-0.299-1.344c0-0.507,0.104-0.974,0.31-1.401c0.207-0.429,0.486-0.801,0.839-1.113
			c0.352-0.313,0.762-0.557,1.229-0.725c0.467-0.169,0.961-0.253,1.482-0.253h2.619v-0.506c0-0.459-0.058-0.896-0.172-1.31
			c-0.115-0.414-0.28-0.773-0.494-1.08c-0.215-0.308-0.471-0.551-0.77-0.734c-0.298-0.186-0.632-0.284-1-0.299h-0.023
			c-0.996,0-1.884,0.113-2.665,0.345l-0.229-0.919c0.903-0.262,1.868-0.391,2.895-0.391h0.023c0.444,0.015,0.865,0.125,1.264,0.332
			c0.398,0.207,0.75,0.485,1.057,0.838c0.306,0.354,0.555,0.768,0.747,1.242c0.191,0.475,0.302,0.979,0.333,1.517v0.229
			c-0.015,0.383-0.023,0.789-0.023,1.217c-0.015,0.367-0.023,0.785-0.023,1.252c0,0.469,0,0.938,0,1.414
			c0,0.442,0.004,0.873,0.012,1.285c0.007,0.414,0.019,0.789,0.034,1.127c0.015,0.336,0.035,0.607,0.058,0.813
			c0.023,0.207,0.049,0.326,0.081,0.354h-1.08L19.821,94.583z M19.821,89.712h-2.619c-0.398,0-0.77,0.063-1.114,0.186
			c-0.345,0.122-0.647,0.295-0.908,0.518c-0.261,0.223-0.467,0.489-0.62,0.805c-0.153,0.313-0.23,0.662-0.23,1.046
			c0,0.354,0.069,0.678,0.207,0.978c0.138,0.299,0.329,0.559,0.574,0.78c0.245,0.224,0.532,0.397,0.862,0.526
			c0.329,0.132,0.685,0.195,1.068,0.195c0.382,0,0.743-0.063,1.08-0.195c0.337-0.129,0.632-0.307,0.885-0.526
			c0.252-0.224,0.452-0.481,0.597-0.78c0.146-0.3,0.218-0.623,0.218-0.978V89.712z"/>
		<path fill="#515DA9" d="M25.587,79.626v4.549h3.102v0.988h-3.102l0.023,10.34h-0.919c-0.016-1.317-0.023-2.604-0.023-3.859v-6.48
			h-1.746v-0.988h1.7v-4.549H25.587L25.587,79.626z"/>
		<path fill="#515DA9" d="M37.718,94.446v-0.552c-0.353,0.536-0.804,0.973-1.355,1.311c-0.552,0.336-1.157,0.506-1.815,0.506
			c-0.537,0-1.034-0.11-1.494-0.334c-0.459-0.223-0.861-0.522-1.206-0.906c-0.345-0.385-0.617-0.83-0.816-1.346
			c-0.199-0.513-0.306-1.061-0.321-1.643l-0.069-0.115v-7.306h0.942v7.306l0.046,0.115c0.015,0.443,0.107,0.861,0.275,1.252
			s0.391,0.735,0.667,1.034c0.276,0.299,0.597,0.532,0.965,0.7c0.368,0.169,0.758,0.253,1.172,0.253
			c0.383,0,0.747-0.076,1.091-0.229c0.344-0.152,0.651-0.359,0.919-0.619c0.268-0.262,0.49-0.565,0.667-0.92
			c0.176-0.353,0.287-0.728,0.333-1.125v-7.813h0.965V94.4c0,0.275,0.015,0.521,0.046,0.734c0.031,0.215,0.061,0.338,0.092,0.367
			h-1.08L37.718,94.446z"/>
		<path fill="#515DA9" d="M45.392,84.889c-0.077-0.031-0.149-0.046-0.218-0.046c-0.069,0-0.142,0-0.218,0
			c-0.383,0-0.747,0.072-1.091,0.218c-0.345,0.146-0.655,0.349-0.931,0.608c-0.276,0.261-0.502,0.565-0.678,0.92
			c-0.176,0.353-0.295,0.733-0.356,1.146l0.023,7.768h-0.965l-0.023-10.385c0-0.263-0.011-0.508-0.034-0.736
			c-0.023-0.229-0.05-0.358-0.081-0.391h1.08v1.699c0.367-0.582,0.823-1.027,1.367-1.344c0.543-0.313,1.145-0.473,1.804-0.473
			c0.077,0,0.165,0.004,0.264,0.013c0.1,0.008,0.195,0.026,0.287,0.058L45.392,84.889z"/>
		<path fill="#515DA9" d="M53.708,94.583c-0.353,0.354-0.766,0.633-1.241,0.84c-0.475,0.205-0.988,0.31-1.539,0.31
			c-0.506,0-0.984-0.092-1.436-0.274c-0.452-0.185-0.843-0.434-1.172-0.748c-0.33-0.313-0.594-0.681-0.792-1.103
			c-0.199-0.421-0.299-0.869-0.299-1.344c0-0.507,0.104-0.974,0.31-1.401c0.207-0.429,0.486-0.801,0.839-1.113
			c0.352-0.313,0.762-0.557,1.229-0.725c0.467-0.169,0.961-0.253,1.482-0.253h2.619v-0.506c0-0.459-0.058-0.896-0.172-1.31
			c-0.115-0.414-0.28-0.773-0.494-1.08c-0.215-0.308-0.471-0.551-0.77-0.734c-0.298-0.186-0.632-0.284-1-0.299H51.25
			c-0.996,0-1.884,0.113-2.665,0.345l-0.229-0.919c0.903-0.262,1.868-0.391,2.895-0.391h0.023c0.444,0.015,0.865,0.125,1.264,0.332
			c0.398,0.207,0.75,0.485,1.057,0.838c0.306,0.354,0.555,0.768,0.747,1.242c0.191,0.475,0.302,0.979,0.333,1.517v0.229
			c-0.015,0.383-0.023,0.789-0.023,1.217c-0.015,0.367-0.023,0.785-0.023,1.252c0,0.469,0,0.938,0,1.414
			c0,0.442,0.004,0.873,0.012,1.285c0.007,0.414,0.019,0.789,0.034,1.127c0.015,0.336,0.035,0.607,0.058,0.813
			c0.023,0.207,0.049,0.326,0.081,0.354h-1.08L53.708,94.583z M53.708,89.712h-2.619c-0.398,0-0.77,0.063-1.114,0.186
			c-0.345,0.122-0.647,0.295-0.908,0.518c-0.261,0.223-0.467,0.489-0.62,0.805c-0.153,0.313-0.23,0.662-0.23,1.046
			c0,0.354,0.069,0.678,0.207,0.978c0.138,0.299,0.329,0.559,0.574,0.78s0.532,0.397,0.862,0.526
			c0.329,0.132,0.685,0.195,1.068,0.195c0.382,0,0.743-0.063,1.08-0.195c0.337-0.129,0.632-0.307,0.885-0.526
			c0.252-0.224,0.452-0.481,0.597-0.78c0.146-0.3,0.218-0.623,0.218-0.978V89.712z"/>
		<path fill="#515DA9" d="M57.131,79.626h0.965l0.023,15.877h-0.965L57.131,79.626z"/>
		<path fill="#515DA9" d="M67.24,94.539h7.742l0.023,0.965h-8.708l-0.023-15.877h0.965L67.24,94.539L67.24,94.539z"/>
		<path fill="#515DA9" d="M83.07,94.583c-0.354,0.354-0.768,0.633-1.241,0.84c-0.476,0.205-0.988,0.31-1.539,0.31
			c-0.506,0-0.983-0.092-1.437-0.274c-0.451-0.185-0.842-0.434-1.172-0.748c-0.33-0.313-0.595-0.681-0.793-1.103
			c-0.199-0.421-0.3-0.869-0.3-1.344c0-0.507,0.104-0.974,0.312-1.401c0.207-0.429,0.486-0.801,0.838-1.113
			c0.354-0.313,0.763-0.557,1.229-0.725c0.469-0.169,0.963-0.253,1.482-0.253h2.617v-0.506c0-0.459-0.057-0.896-0.172-1.31
			s-0.278-0.773-0.494-1.08c-0.215-0.308-0.471-0.551-0.771-0.734c-0.299-0.186-0.632-0.284-0.999-0.299h-0.023
			c-0.996,0-1.883,0.113-2.664,0.345l-0.229-0.919c0.903-0.262,1.868-0.391,2.896-0.391h0.021c0.443,0.015,0.865,0.125,1.266,0.332
			c0.396,0.207,0.75,0.485,1.057,0.838c0.307,0.354,0.555,0.768,0.747,1.242c0.19,0.475,0.302,0.979,0.333,1.517v0.229
			c-0.016,0.383-0.023,0.789-0.023,1.217c-0.016,0.367-0.021,0.785-0.021,1.252c0,0.469,0,0.938,0,1.414
			c0,0.442,0.003,0.873,0.011,1.285c0.008,0.414,0.021,0.789,0.035,1.127c0.016,0.336,0.033,0.607,0.057,0.813
			c0.023,0.207,0.051,0.326,0.081,0.354h-1.079L83.07,94.583z M83.07,89.712h-2.619c-0.398,0-0.771,0.063-1.115,0.186
			c-0.344,0.122-0.646,0.295-0.906,0.518c-0.262,0.223-0.468,0.489-0.621,0.805c-0.151,0.313-0.229,0.662-0.229,1.046
			c0,0.354,0.068,0.678,0.206,0.978c0.139,0.299,0.33,0.559,0.575,0.78c0.244,0.224,0.531,0.397,0.861,0.526
			c0.327,0.132,0.686,0.195,1.066,0.195s0.742-0.063,1.08-0.195c0.336-0.129,0.632-0.307,0.884-0.526
			c0.253-0.224,0.452-0.481,0.599-0.78c0.146-0.3,0.219-0.623,0.219-0.978V89.712L83.07,89.712z"/>
		<path fill="#515DA9" d="M86.859,85.026v0.62c0.367-0.582,0.828-1.029,1.379-1.344c0.552-0.313,1.156-0.471,1.814-0.471
			c0.535,0,1.036,0.108,1.506,0.332c0.467,0.223,0.873,0.521,1.217,0.896c0.346,0.376,0.621,0.817,0.828,1.333
			c0.205,0.513,0.315,1.063,0.332,1.645l0.067,7.467H93.04l-0.022-7.467c-0.016-0.461-0.105-0.887-0.274-1.275
			c-0.168-0.391-0.392-0.731-0.666-1.022s-0.599-0.521-0.966-0.688c-0.366-0.166-0.758-0.252-1.172-0.252
			c-0.383,0-0.746,0.072-1.092,0.219c-0.345,0.146-0.654,0.35-0.931,0.607c-0.274,0.261-0.506,0.566-0.688,0.92
			c-0.184,0.354-0.308,0.734-0.367,1.147l0.021,7.812h-0.965l-0.021-10.431c0-0.261-0.013-0.479-0.035-0.655
			c-0.021-0.176-0.051-0.277-0.079-0.31h1.079v0.918H86.859z"/>
		<path fill="#515DA9" d="M99.795,92.837c0.076-0.029,0.164-0.045,0.266-0.045c0.1,0,0.188,0,0.265,0
			c0.644,0,1.243,0.096,1.804,0.287c0.561,0.189,1.051,0.446,1.473,0.77c0.42,0.32,0.75,0.705,0.985,1.148s0.354,0.918,0.354,1.424
			c0,0.507-0.119,0.979-0.354,1.426c-0.235,0.443-0.565,0.83-0.985,1.16c-0.422,0.328-0.912,0.593-1.473,0.791
			c-0.561,0.199-1.16,0.3-1.804,0.3c-0.63,0-1.224-0.101-1.78-0.3c-0.561-0.198-1.046-0.463-1.459-0.791
			c-0.414-0.33-0.743-0.717-0.986-1.16c-0.246-0.444-0.367-0.919-0.367-1.426c0-0.688,0.218-1.313,0.652-1.871
			c0.438-0.562,1.016-0.992,1.735-1.299c-0.169-0.291-0.253-0.65-0.253-1.08c0-0.26,0.046-0.502,0.138-0.725
			c0.093-0.223,0.207-0.395,0.347-0.518c-0.537-0.385-0.953-0.84-1.252-1.367c-0.301-0.527-0.449-1.1-0.449-1.711
			c0-0.553,0.119-1.066,0.355-1.553c0.237-0.48,0.563-0.902,0.979-1.264c0.412-0.359,0.896-0.644,1.447-0.851
			c0.551-0.207,1.146-0.31,1.791-0.31c0.338,0,0.643,0.021,0.92,0.066c0.273,0.046,0.543,0.105,0.803,0.186h3.976l-0.94,0.965
			h-1.446c0.396,0.353,0.707,0.759,0.93,1.218c0.224,0.46,0.334,0.974,0.334,1.54c0,0.551-0.118,1.064-0.354,1.539
			c-0.237,0.475-0.563,0.889-0.979,1.24c-0.412,0.353-0.898,0.632-1.459,0.838c-0.561,0.207-1.15,0.312-1.779,0.312
			c-0.384,0-0.725-0.046-1.021-0.138c-0.299-0.094-0.586-0.139-0.861-0.139c-0.169,0-0.338,0.043-0.506,0.127
			c-0.169,0.084-0.253,0.248-0.253,0.494c0,0.319,0.088,0.522,0.265,0.606c0.176,0.084,0.355,0.126,0.541,0.126
			c0.075,0,0.151-0.003,0.229-0.011C99.688,92.841,99.749,92.837,99.795,92.837z M96.646,96.421c0,0.367,0.101,0.721,0.299,1.058
			c0.199,0.337,0.468,0.632,0.805,0.885s0.729,0.451,1.172,0.599c0.444,0.146,0.911,0.219,1.401,0.219
			c0.521,0,1.007-0.072,1.459-0.219c0.452-0.146,0.847-0.346,1.184-0.599s0.601-0.548,0.792-0.885s0.288-0.688,0.288-1.058
			c0-0.367-0.097-0.715-0.288-1.045c-0.191-0.328-0.455-0.621-0.792-0.873s-0.731-0.455-1.184-0.608
			c-0.452-0.151-0.938-0.229-1.459-0.229c-0.49,0-0.957,0.078-1.401,0.229c-0.443,0.153-0.835,0.356-1.172,0.608
			s-0.605,0.545-0.805,0.873C96.747,95.707,96.646,96.055,96.646,96.421z M97.59,87.853c0,0.413,0.096,0.804,0.287,1.172
			c0.191,0.367,0.451,0.686,0.781,0.953c0.328,0.268,0.712,0.482,1.148,0.645c0.437,0.159,0.905,0.24,1.411,0.24
			c0.521,0,1.005-0.081,1.447-0.24c0.442-0.162,0.831-0.377,1.16-0.645c0.327-0.268,0.59-0.586,0.78-0.953
			c0.19-0.368,0.287-0.759,0.287-1.172c0-0.43-0.097-0.831-0.287-1.206c-0.19-0.376-0.453-0.701-0.78-0.978
			c-0.329-0.275-0.718-0.489-1.16-0.645c-0.442-0.152-0.929-0.229-1.447-0.229c-0.506,0-0.977,0.076-1.411,0.229
			c-0.438,0.153-0.82,0.367-1.148,0.645c-0.33,0.274-0.59,0.602-0.781,0.978C97.686,87.022,97.59,87.423,97.59,87.853z"/>
		<path fill="#515DA9" d="M115.764,94.446v-0.552c-0.354,0.536-0.806,0.973-1.354,1.311c-0.554,0.336-1.157,0.506-1.815,0.506
			c-0.535,0-1.031-0.11-1.492-0.334c-0.459-0.223-0.861-0.522-1.205-0.906c-0.347-0.385-0.617-0.83-0.815-1.346
			c-0.199-0.513-0.308-1.061-0.322-1.643l-0.067-0.115v-7.306h0.94v7.306l0.046,0.115c0.016,0.443,0.107,0.861,0.276,1.252
			c0.168,0.391,0.392,0.735,0.666,1.034s0.598,0.532,0.965,0.7c0.368,0.169,0.758,0.253,1.172,0.253
			c0.384,0,0.747-0.076,1.091-0.229c0.346-0.152,0.651-0.359,0.92-0.619c0.27-0.262,0.489-0.565,0.666-0.92
			c0.176-0.353,0.287-0.728,0.334-1.125v-7.813h0.965V94.4c0,0.275,0.016,0.521,0.045,0.734c0.031,0.215,0.063,0.338,0.094,0.367
			h-1.08L115.764,94.446z"/>
		<path fill="#515DA9" d="M125.344,94.583c-0.353,0.354-0.767,0.633-1.24,0.84c-0.476,0.205-0.987,0.31-1.539,0.31
			c-0.506,0-0.983-0.092-1.438-0.274c-0.451-0.185-0.842-0.434-1.171-0.748c-0.33-0.313-0.595-0.681-0.793-1.103
			c-0.199-0.421-0.3-0.869-0.3-1.344c0-0.507,0.104-0.974,0.312-1.401c0.206-0.429,0.485-0.801,0.839-1.113
			c0.354-0.313,0.762-0.557,1.229-0.725c0.467-0.169,0.961-0.253,1.481-0.253h2.618v-0.506c0-0.459-0.058-0.896-0.173-1.31
			s-0.279-0.773-0.494-1.08c-0.215-0.308-0.471-0.551-0.77-0.734c-0.299-0.186-0.633-0.284-0.999-0.299h-0.023
			c-0.995,0-1.884,0.113-2.665,0.345l-0.229-0.919c0.902-0.262,1.867-0.391,2.895-0.391h0.023c0.443,0.015,0.865,0.125,1.264,0.332
			c0.396,0.207,0.75,0.485,1.057,0.838c0.308,0.354,0.557,0.768,0.748,1.242c0.189,0.475,0.301,0.979,0.332,1.517v0.229
			c-0.016,0.383-0.021,0.789-0.021,1.217c-0.018,0.367-0.021,0.785-0.021,1.252c0,0.469,0,0.938,0,1.414
			c0,0.442,0.004,0.873,0.012,1.285c0.008,0.414,0.02,0.789,0.035,1.127c0.015,0.336,0.033,0.607,0.057,0.813
			c0.023,0.207,0.05,0.326,0.081,0.354h-1.08L125.344,94.583z M125.344,89.712h-2.619c-0.397,0-0.771,0.063-1.115,0.186
			c-0.344,0.122-0.646,0.295-0.905,0.518c-0.263,0.223-0.468,0.489-0.62,0.805c-0.152,0.313-0.229,0.662-0.229,1.046
			c0,0.354,0.067,0.678,0.207,0.978c0.139,0.299,0.33,0.559,0.574,0.78c0.243,0.222,0.53,0.397,0.86,0.526
			c0.329,0.132,0.687,0.195,1.067,0.195s0.742-0.063,1.08-0.195c0.336-0.129,0.631-0.307,0.883-0.526
			c0.255-0.224,0.453-0.481,0.6-0.78c0.146-0.3,0.221-0.623,0.221-0.978v-2.554H125.344L125.344,89.712z"/>
		<path fill="#515DA9" d="M132.121,92.837c0.076-0.029,0.164-0.045,0.266-0.045c0.098,0,0.188,0,0.264,0
			c0.645,0,1.244,0.096,1.805,0.287c0.561,0.189,1.049,0.446,1.471,0.77c0.422,0.32,0.75,0.705,0.987,1.148
			c0.235,0.443,0.354,0.918,0.354,1.424c0,0.507-0.119,0.979-0.354,1.426c-0.237,0.443-0.565,0.83-0.987,1.16
			c-0.422,0.328-0.91,0.593-1.471,0.791c-0.561,0.199-1.16,0.3-1.805,0.3c-0.629,0-1.223-0.101-1.779-0.3
			c-0.561-0.198-1.046-0.463-1.459-0.791c-0.414-0.33-0.743-0.717-0.988-1.16c-0.244-0.444-0.365-0.919-0.365-1.426
			c0-0.688,0.217-1.313,0.652-1.871c0.438-0.562,1.016-0.992,1.734-1.299c-0.17-0.291-0.254-0.65-0.254-1.08
			c0-0.26,0.047-0.502,0.14-0.725c0.092-0.223,0.207-0.395,0.345-0.518c-0.535-0.385-0.951-0.84-1.252-1.367
			c-0.299-0.527-0.447-1.1-0.447-1.711c0-0.553,0.117-1.066,0.355-1.553c0.236-0.48,0.563-0.902,0.979-1.264
			c0.412-0.359,0.896-0.644,1.445-0.851c0.553-0.207,1.146-0.31,1.792-0.31c0.339,0,0.644,0.021,0.919,0.066
			s0.545,0.105,0.805,0.186h3.976l-0.94,0.965h-1.447c0.396,0.353,0.707,0.759,0.931,1.218c0.224,0.46,0.334,0.974,0.334,1.54
			c0,0.551-0.119,1.064-0.354,1.539c-0.238,0.475-0.563,0.889-0.979,1.24c-0.413,0.353-0.898,0.632-1.459,0.838
			c-0.561,0.207-1.15,0.312-1.779,0.312c-0.384,0-0.725-0.046-1.021-0.138c-0.299-0.094-0.586-0.139-0.861-0.139
			c-0.169,0-0.338,0.043-0.506,0.127c-0.169,0.084-0.253,0.248-0.253,0.494c0,0.319,0.088,0.522,0.265,0.606
			c0.176,0.084,0.355,0.126,0.54,0.126c0.076,0,0.151-0.003,0.229-0.011C132.014,92.841,132.075,92.837,132.121,92.837z
			 M128.975,96.421c0,0.367,0.101,0.721,0.299,1.058c0.197,0.337,0.468,0.632,0.805,0.885s0.729,0.451,1.172,0.599
			c0.443,0.146,0.911,0.219,1.4,0.219c0.521,0,1.008-0.072,1.459-0.219c0.451-0.146,0.848-0.346,1.185-0.599
			s0.603-0.548,0.792-0.885s0.288-0.688,0.288-1.058c0-0.367-0.099-0.715-0.288-1.045c-0.189-0.328-0.455-0.621-0.792-0.873
			s-0.729-0.455-1.185-0.608c-0.451-0.151-0.938-0.229-1.459-0.229c-0.489,0-0.957,0.078-1.4,0.229
			c-0.443,0.153-0.835,0.356-1.172,0.608s-0.604,0.545-0.805,0.873C129.072,95.707,128.975,96.055,128.975,96.421z M129.916,87.853
			c0,0.413,0.096,0.804,0.287,1.172c0.191,0.367,0.451,0.686,0.781,0.953c0.328,0.268,0.711,0.482,1.146,0.645
			c0.438,0.159,0.907,0.24,1.413,0.24c0.521,0,1.003-0.081,1.447-0.24c0.442-0.162,0.829-0.377,1.159-0.645
			c0.328-0.268,0.591-0.586,0.781-0.953c0.19-0.368,0.287-0.759,0.287-1.172c0-0.43-0.097-0.831-0.287-1.206
			c-0.19-0.376-0.453-0.701-0.781-0.978c-0.328-0.275-0.717-0.489-1.159-0.645c-0.444-0.152-0.929-0.229-1.447-0.229
			c-0.506,0-0.978,0.076-1.413,0.229c-0.436,0.153-0.818,0.367-1.146,0.645c-0.33,0.274-0.59,0.602-0.781,0.978
			C130.012,87.022,129.916,87.423,129.916,87.853z"/>
		<path fill="#515DA9" d="M145.424,94.768c0.245,0,0.501-0.026,0.77-0.08c0.27-0.054,0.537-0.123,0.806-0.207
			c0.271-0.084,0.522-0.176,0.771-0.274c0.244-0.101,0.459-0.194,0.644-0.287l0.392,0.851c-0.398,0.215-0.826,0.397-1.285,0.552
			c-0.461,0.153-0.951,0.275-1.473,0.367h-0.021c-0.092,0.018-0.188,0.021-0.287,0.021c-0.1,0-0.203,0-0.312,0
			c-0.644,0-1.243-0.142-1.804-0.426c-0.561-0.283-1.059-0.673-1.493-1.171c-0.435-0.497-0.789-1.079-1.058-1.745
			c-0.27-0.668-0.426-1.384-0.473-2.147v-0.438c0-0.812,0.123-1.576,0.369-2.298c0.243-0.72,0.573-1.348,0.986-1.884
			c0.414-0.536,0.896-0.961,1.447-1.275c0.552-0.313,1.142-0.471,1.77-0.471c0.645,0,1.24,0.148,1.792,0.448
			c0.552,0.299,1.03,0.708,1.437,1.229c0.406,0.521,0.726,1.134,0.953,1.839c0.229,0.705,0.347,1.471,0.347,2.297v0.554h-8.11
			c0.03,0.644,0.153,1.239,0.367,1.792c0.215,0.552,0.494,1.029,0.839,1.436c0.347,0.406,0.743,0.729,1.194,0.967
			C144.439,94.649,144.918,94.768,145.424,94.768z M148.777,89.276c-0.045-0.612-0.172-1.19-0.379-1.733s-0.471-1.016-0.793-1.414
			c-0.321-0.396-0.688-0.711-1.104-0.939s-0.857-0.345-1.333-0.345c-0.459,0-0.896,0.112-1.312,0.345
			c-0.412,0.229-0.779,0.544-1.103,0.939c-0.321,0.398-0.586,0.871-0.793,1.414s-0.333,1.121-0.379,1.733H148.777z"/>
		<path fill="#515DA9" d="M29.171,115.125l0.023,7.948h-0.965l-0.023-15.876h4.572c0.613,0,1.195,0.104,1.746,0.311
			c0.552,0.207,1.026,0.486,1.425,0.84c0.398,0.354,0.716,0.767,0.953,1.24c0.237,0.475,0.356,0.979,0.356,1.518
			c0,0.564-0.119,1.096-0.356,1.585c-0.237,0.49-0.555,0.915-0.953,1.274c-0.398,0.358-0.873,0.644-1.425,0.851
			c-0.551,0.207-1.133,0.312-1.746,0.312h-3.607V115.125z M29.171,108.117v6.043h3.607c0.475,0,0.923-0.078,1.344-0.229
			c0.421-0.152,0.792-0.367,1.114-0.644c0.322-0.276,0.574-0.599,0.758-0.966c0.184-0.368,0.275-0.772,0.275-1.218
			c0-0.414-0.092-0.801-0.275-1.16c-0.184-0.359-0.437-0.674-0.758-0.941c-0.322-0.269-0.693-0.481-1.114-0.645
			c-0.421-0.16-0.87-0.24-1.344-0.24h-0.069H29.171z"/>
		<path fill="#515DA9" d="M43.508,112.458c-0.077-0.03-0.149-0.045-0.218-0.045s-0.142,0-0.218,0c-0.383,0-0.747,0.07-1.091,0.217
			c-0.345,0.146-0.655,0.35-0.931,0.608c-0.276,0.261-0.502,0.566-0.678,0.921c-0.176,0.353-0.295,0.733-0.356,1.146l0.023,7.766
			h-0.965l-0.023-10.385c0-0.262-0.011-0.506-0.034-0.734c-0.023-0.229-0.05-0.358-0.081-0.392h1.08v1.7
			c0.367-0.582,0.823-1.029,1.367-1.346c0.543-0.313,1.145-0.471,1.804-0.471c0.077,0,0.165,0.004,0.264,0.012
			c0.1,0.008,0.195,0.026,0.287,0.059L43.508,112.458z"/>
		<path fill="#515DA9" d="M44.932,117.398c0-0.827,0.142-1.602,0.425-2.32c0.283-0.72,0.67-1.348,1.16-1.884
			c0.49-0.536,1.064-0.961,1.723-1.274c0.658-0.313,1.355-0.472,2.091-0.472c0.735,0,1.424,0.157,2.067,0.472
			c0.644,0.313,1.207,0.738,1.689,1.274s0.865,1.164,1.148,1.884c0.284,0.721,0.425,1.493,0.425,2.32
			c0,0.813-0.142,1.574-0.425,2.286c-0.283,0.712-0.666,1.336-1.148,1.872c-0.482,0.535-1.045,0.962-1.689,1.275
			c-0.643,0.313-1.333,0.471-2.067,0.471c-0.735,0-1.433-0.157-2.091-0.471c-0.659-0.313-1.233-0.74-1.723-1.275
			c-0.49-0.536-0.877-1.16-1.16-1.872C45.074,118.973,44.932,118.21,44.932,117.398z M45.897,117.398
			c0,0.674,0.115,1.313,0.345,1.918s0.547,1.13,0.954,1.574c0.406,0.443,0.876,0.797,1.413,1.057
			c0.536,0.262,1.11,0.391,1.723,0.391c0.597,0,1.16-0.129,1.688-0.391c0.528-0.26,0.988-0.611,1.378-1.057
			c0.39-0.446,0.701-0.969,0.931-1.574c0.229-0.604,0.345-1.244,0.345-1.918c0-0.689-0.115-1.336-0.345-1.941
			c-0.23-0.604-0.54-1.134-0.931-1.584c-0.391-0.453-0.85-0.809-1.378-1.067s-1.091-0.392-1.688-0.392
			c-0.613,0-1.188,0.129-1.723,0.392c-0.537,0.261-1.007,0.614-1.413,1.067c-0.406,0.45-0.724,0.979-0.954,1.584
			C46.012,116.063,45.897,116.708,45.897,117.398z"/>
		<path fill="#515DA9" d="M65.494,113.953c-0.398-0.461-0.877-0.832-1.436-1.115c-0.56-0.281-1.168-0.424-1.827-0.424
			c-0.628,0-1.218,0.129-1.769,0.392c-0.551,0.261-1.03,0.61-1.436,1.057c-0.406,0.444-0.728,0.97-0.965,1.573
			c-0.238,0.604-0.356,1.253-0.356,1.939c0,0.676,0.119,1.313,0.356,1.92c0.237,0.604,0.559,1.129,0.965,1.572
			c0.406,0.445,0.885,0.797,1.436,1.059c0.551,0.262,1.141,0.392,1.769,0.392s1.218-0.13,1.769-0.392s1.034-0.62,1.447-1.079
			l0.689,0.666c-0.521,0.534-1.111,0.965-1.769,1.286c-0.659,0.32-1.371,0.481-2.137,0.481c-0.75,0-1.459-0.157-2.125-0.472
			c-0.666-0.313-1.249-0.738-1.746-1.273c-0.497-0.537-0.892-1.16-1.183-1.873c-0.291-0.713-0.437-1.475-0.437-2.287
			c0-0.812,0.146-1.576,0.437-2.297c0.291-0.72,0.686-1.348,1.183-1.884s1.08-0.961,1.746-1.274
			c0.667-0.313,1.375-0.472,2.125-0.472c0.796,0,1.531,0.164,2.206,0.493c0.674,0.33,1.256,0.764,1.746,1.299L65.494,113.953z"/>
		<path fill="#515DA9" d="M72.686,122.337c0.245,0,0.501-0.025,0.77-0.08c0.268-0.053,0.536-0.123,0.804-0.207
			c0.268-0.084,0.524-0.176,0.77-0.274c0.246-0.099,0.459-0.194,0.644-0.287l0.391,0.851c-0.397,0.216-0.828,0.397-1.287,0.553
			c-0.46,0.152-0.95,0.273-1.471,0.365h-0.023c-0.092,0.018-0.188,0.023-0.287,0.023s-0.203,0-0.31,0
			c-0.644,0-1.245-0.142-1.804-0.426c-0.559-0.283-1.057-0.673-1.493-1.171s-0.789-1.08-1.057-1.746
			c-0.268-0.667-0.425-1.383-0.471-2.147v-0.438c0-0.813,0.122-1.577,0.367-2.298c0.245-0.72,0.575-1.349,0.988-1.884
			c0.413-0.537,0.896-0.961,1.447-1.275c0.551-0.313,1.141-0.471,1.769-0.471c0.644,0,1.241,0.147,1.792,0.447
			c0.552,0.299,1.03,0.709,1.436,1.229c0.405,0.521,0.724,1.134,0.954,1.839c0.229,0.704,0.345,1.472,0.345,2.297v0.554h-8.11
			c0.03,0.644,0.153,1.238,0.368,1.791c0.214,0.553,0.494,1.029,0.838,1.437c0.345,0.405,0.743,0.729,1.195,0.965
			C71.701,122.22,72.18,122.337,72.686,122.337z M76.039,116.847c-0.045-0.612-0.171-1.19-0.378-1.734
			c-0.207-0.543-0.471-1.015-0.792-1.412c-0.322-0.396-0.689-0.713-1.103-0.94c-0.414-0.23-0.858-0.347-1.333-0.347
			c-0.459,0-0.896,0.114-1.31,0.347c-0.414,0.229-0.781,0.544-1.103,0.94c-0.322,0.397-0.586,0.869-0.793,1.412
			c-0.207,0.544-0.333,1.122-0.379,1.734H76.039z"/>
		<path fill="#515DA9" d="M85.482,113.47c-0.354-0.338-0.781-0.594-1.287-0.77c-0.506-0.178-1.041-0.267-1.607-0.267
			c-0.781,0-1.438,0.185-1.965,0.552s-0.793,0.844-0.793,1.426c0,0.274,0.068,0.543,0.207,0.805
			c0.138,0.261,0.333,0.502,0.586,0.724c0.253,0.224,0.555,0.41,0.906,0.563c0.354,0.151,0.736,0.261,1.15,0.322
			c0.521,0.074,1.002,0.221,1.445,0.437c0.443,0.215,0.827,0.471,1.146,0.771c0.322,0.299,0.57,0.635,0.748,1.01
			c0.176,0.377,0.265,0.771,0.265,1.186c0,0.459-0.101,0.873-0.3,1.238c-0.197,0.369-0.471,0.688-0.814,0.953
			c-0.344,0.271-0.742,0.478-1.193,0.621c-0.451,0.146-0.932,0.22-1.437,0.22c-0.722,0-1.413-0.132-2.08-0.392
			c-0.666-0.261-1.196-0.629-1.599-1.104l0.736-0.574c0.321,0.321,0.734,0.59,1.24,0.805s1.049,0.321,1.631,0.321
			c0.797,0,1.471-0.19,2.021-0.575c0.552-0.382,0.826-0.888,0.826-1.516c0-0.291-0.067-0.57-0.205-0.839
			c-0.139-0.269-0.334-0.517-0.586-0.747c-0.254-0.229-0.553-0.426-0.896-0.586c-0.345-0.16-0.725-0.271-1.137-0.333
			c-0.537-0.076-1.026-0.222-1.471-0.437c-0.445-0.216-0.828-0.473-1.148-0.771c-0.322-0.301-0.575-0.633-0.76-0.999
			c-0.184-0.368-0.274-0.751-0.274-1.147c0-0.43,0.104-0.822,0.31-1.185c0.207-0.36,0.486-0.666,0.84-0.919s0.76-0.448,1.219-0.586
			c0.46-0.139,0.947-0.207,1.473-0.207c0.719,0,1.396,0.135,2.031,0.4c0.637,0.269,1.15,0.608,1.553,1.022L85.482,113.47z"/>
		<path fill="#515DA9" d="M95.063,113.47c-0.353-0.338-0.779-0.594-1.285-0.77c-0.506-0.178-1.043-0.267-1.607-0.267
			c-0.779,0-1.438,0.185-1.965,0.552s-0.793,0.844-0.793,1.426c0,0.274,0.068,0.543,0.207,0.805
			c0.138,0.261,0.333,0.502,0.586,0.724c0.253,0.224,0.555,0.41,0.906,0.563c0.354,0.151,0.734,0.261,1.148,0.322
			c0.521,0.074,1.004,0.221,1.447,0.437c0.443,0.215,0.827,0.471,1.148,0.771c0.322,0.299,0.568,0.635,0.746,1.01
			c0.176,0.377,0.265,0.771,0.265,1.186c0,0.459-0.101,0.873-0.298,1.238c-0.199,0.369-0.473,0.688-0.816,0.953
			c-0.344,0.271-0.743,0.478-1.193,0.621c-0.453,0.146-0.932,0.22-1.437,0.22c-0.722,0-1.413-0.132-2.08-0.392
			c-0.666-0.261-1.198-0.629-1.597-1.104l0.734-0.574c0.321,0.321,0.734,0.59,1.24,0.805c0.505,0.215,1.051,0.321,1.633,0.321
			c0.795,0,1.471-0.19,2.02-0.575c0.553-0.382,0.828-0.888,0.828-1.516c0-0.291-0.068-0.57-0.207-0.839s-0.334-0.517-0.586-0.747
			c-0.252-0.229-0.551-0.426-0.896-0.586c-0.345-0.16-0.725-0.271-1.137-0.333c-0.537-0.076-1.026-0.222-1.473-0.437
			c-0.442-0.216-0.826-0.473-1.146-0.771c-0.322-0.301-0.575-0.633-0.76-0.999c-0.184-0.368-0.274-0.751-0.274-1.147
			c0-0.43,0.104-0.822,0.312-1.185c0.207-0.36,0.484-0.666,0.838-0.919s0.76-0.448,1.219-0.586c0.46-0.139,0.949-0.207,1.471-0.207
			c0.721,0,1.396,0.135,2.033,0.4c0.637,0.269,1.152,0.608,1.551,1.022L95.063,113.47z"/>
		<path fill="#515DA9" d="M98.143,108.14c0-0.169,0.064-0.314,0.194-0.438c0.13-0.125,0.287-0.185,0.472-0.185
			c0.168,0,0.321,0.062,0.459,0.185c0.14,0.123,0.207,0.269,0.207,0.438s-0.067,0.313-0.207,0.438
			c-0.138,0.121-0.291,0.185-0.459,0.185c-0.185,0-0.342-0.063-0.472-0.185C98.207,108.453,98.143,108.309,98.143,108.14z
			 M98.325,111.585h0.942l0.021,11.486h-0.94L98.325,111.585z"/>
		<path fill="#515DA9" d="M102.76,112.597v0.619c0.367-0.582,0.827-1.029,1.379-1.344c0.551-0.313,1.155-0.472,1.814-0.472
			c0.535,0,1.037,0.11,1.505,0.333c0.467,0.223,0.873,0.521,1.218,0.896c0.346,0.377,0.62,0.82,0.827,1.334
			c0.206,0.513,0.317,1.061,0.333,1.643l0.068,7.467h-0.965l-0.022-7.467c-0.017-0.46-0.106-0.885-0.276-1.275
			c-0.168-0.391-0.391-0.729-0.666-1.021c-0.273-0.291-0.598-0.521-0.965-0.688s-0.758-0.252-1.172-0.252
			c-0.383,0-0.746,0.071-1.091,0.219c-0.345,0.146-0.655,0.349-0.931,0.607c-0.275,0.262-0.506,0.566-0.689,0.92
			s-0.307,0.734-0.367,1.147l0.022,7.813h-0.966l-0.021-10.433c0-0.263-0.012-0.479-0.035-0.655c-0.021-0.176-0.05-0.277-0.08-0.31
			h1.08V112.597z"/>
		<path fill="#515DA9" d="M115.693,120.408c0.076-0.029,0.164-0.046,0.266-0.046c0.1,0,0.188,0,0.264,0
			c0.646,0,1.244,0.097,1.805,0.287c0.56,0.19,1.05,0.448,1.472,0.771c0.421,0.32,0.75,0.705,0.985,1.147
			c0.238,0.445,0.356,0.919,0.356,1.425s-0.118,0.98-0.356,1.426c-0.235,0.442-0.564,0.83-0.985,1.16
			c-0.422,0.328-0.912,0.592-1.472,0.791c-0.561,0.199-1.159,0.299-1.805,0.299c-0.627,0-1.222-0.1-1.779-0.299
			c-0.561-0.199-1.047-0.463-1.459-0.791c-0.414-0.33-0.742-0.718-0.987-1.16c-0.245-0.443-0.367-0.92-0.367-1.426
			c0-0.688,0.22-1.313,0.654-1.871c0.438-0.561,1.015-0.992,1.733-1.3c-0.168-0.29-0.252-0.649-0.252-1.079
			c0-0.261,0.045-0.502,0.137-0.724c0.094-0.224,0.207-0.396,0.347-0.519c-0.536-0.383-0.953-0.838-1.252-1.367
			c-0.299-0.527-0.448-1.098-0.448-1.711c0-0.551,0.118-1.067,0.355-1.551c0.236-0.481,0.564-0.904,0.978-1.265
			c0.413-0.358,0.896-0.646,1.447-0.853c0.551-0.207,1.147-0.31,1.792-0.31c0.337,0,0.645,0.022,0.919,0.068
			s0.543,0.106,0.804,0.184h3.977l-0.941,0.966h-1.447c0.397,0.354,0.709,0.758,0.93,1.217c0.225,0.461,0.334,0.976,0.334,1.541
			c0,0.552-0.117,1.063-0.354,1.539c-0.235,0.476-0.563,0.89-0.978,1.24c-0.412,0.354-0.899,0.631-1.459,0.838
			c-0.561,0.207-1.151,0.313-1.779,0.313c-0.384,0-0.725-0.046-1.021-0.139c-0.299-0.094-0.586-0.14-0.861-0.14
			c-0.168,0-0.338,0.043-0.506,0.128c-0.168,0.084-0.252,0.248-0.252,0.493c0,0.321,0.088,0.524,0.265,0.608
			c0.176,0.084,0.354,0.126,0.54,0.126c0.076,0,0.152-0.003,0.229-0.011C115.587,120.412,115.648,120.408,115.693,120.408z
			 M112.547,123.992c0,0.367,0.1,0.721,0.299,1.057c0.198,0.339,0.467,0.634,0.805,0.887c0.336,0.253,0.729,0.45,1.172,0.598
			c0.443,0.146,0.91,0.219,1.4,0.219c0.521,0,1.008-0.071,1.459-0.219c0.452-0.146,0.848-0.345,1.186-0.598
			c0.337-0.253,0.601-0.548,0.792-0.887c0.19-0.336,0.286-0.688,0.286-1.057c0-0.367-0.096-0.716-0.286-1.045
			c-0.191-0.328-0.455-0.621-0.792-0.873c-0.338-0.253-0.73-0.455-1.186-0.609c-0.451-0.15-0.938-0.229-1.459-0.229
			c-0.49,0-0.957,0.077-1.4,0.229c-0.443,0.154-0.836,0.356-1.172,0.609c-0.338,0.252-0.604,0.545-0.805,0.873
			C112.646,123.276,112.547,123.625,112.547,123.992z M113.488,115.423c0,0.412,0.096,0.804,0.287,1.172
			c0.19,0.367,0.451,0.686,0.781,0.953c0.33,0.267,0.713,0.48,1.147,0.644c0.438,0.16,0.905,0.241,1.413,0.241
			c0.521,0,1.003-0.081,1.445-0.241c0.444-0.161,0.832-0.376,1.16-0.644c0.33-0.27,0.59-0.586,0.781-0.953
			c0.191-0.368,0.287-0.76,0.287-1.172c0-0.43-0.096-0.832-0.287-1.207s-0.451-0.7-0.781-0.978c-0.328-0.274-0.716-0.489-1.16-0.644
			c-0.442-0.154-0.926-0.229-1.445-0.229c-0.508,0-0.979,0.075-1.413,0.229c-0.435,0.152-0.817,0.365-1.147,0.644
			c-0.33,0.275-0.591,0.603-0.781,0.978C113.584,114.591,113.488,114.994,113.488,115.423z"/>
	</g>
	<g>
		<path fill="#151530" d="M95.907,42.448h-7.374c-0.058-3.585-0.554-7.048-1.415-10.12h4.838c0.396,0,0.717-0.321,0.717-0.718
			c0-0.396-0.321-0.716-0.717-0.716h-5.277c-0.765-2.314-1.753-4.359-2.922-6c-0.233-0.323-0.682-0.398-1.002-0.167
			c-0.325,0.23-0.4,0.679-0.167,1.002c1.015,1.423,1.885,3.179,2.579,5.166h-7.448v-6.636c0-0.397-0.321-0.718-0.719-0.718
			c-0.396,0-0.717,0.321-0.717,0.718v6.636h-7.451c0.696-1.986,1.564-3.742,2.582-5.166c0.23-0.323,0.156-0.771-0.167-1.002
			c-0.323-0.231-0.771-0.155-1.002,0.167c-1.171,1.641-2.158,3.687-2.924,6h-5.278c-0.396,0-0.716,0.321-0.716,0.716
			c0,0.397,0.321,0.718,0.716,0.718h4.838c-0.861,3.072-1.356,6.535-1.415,10.12h-7.375c-0.397,0-0.718,0.321-0.718,0.718
			s0.321,0.718,0.718,0.718h7.375c0.059,3.586,0.554,7.049,1.415,10.121h-4.838c-0.396,0-0.716,0.321-0.716,0.716
			s0.321,0.718,0.716,0.718h5.278c0.767,2.313,1.753,4.356,2.926,6c0.139,0.193,0.361,0.299,0.585,0.299
			c0.143,0,0.29-0.044,0.415-0.132c0.323-0.232,0.397-0.681,0.167-1.002c-1.015-1.424-1.885-3.182-2.582-5.163h7.451v6.633
			c0,0.397,0.32,0.718,0.717,0.718c0.397,0,0.719-0.32,0.719-0.718V55.44h7.448c-0.694,1.983-1.564,3.741-2.581,5.165
			c-0.231,0.321-0.156,0.77,0.166,1.002c0.126,0.088,0.271,0.132,0.416,0.132c0.224,0,0.448-0.105,0.585-0.299
			c1.173-1.644,2.161-3.687,2.926-6.002h5.277c0.396,0,0.717-0.321,0.717-0.716s-0.321-0.716-0.717-0.716h-4.838
			c0.861-3.072,1.357-6.535,1.415-10.121h7.374c0.399,0,0.721-0.321,0.721-0.718S96.307,42.448,95.907,42.448L95.907,42.448z
			 M85.629,32.329c0.892,3.035,1.41,6.506,1.468,10.12h-9.378v-10.12H85.629z M68.371,32.329h7.913v10.12h-9.38
			C66.962,38.834,67.479,35.363,68.371,32.329z M68.371,54.005c-0.892-3.037-1.409-6.508-1.468-10.121h9.38v10.121H68.371z
			 M85.629,54.005h-7.91V43.885h9.378C87.039,47.497,86.521,50.969,85.629,54.005z"/>
		<path fill="#151530" d="M92.91,27.257c-4.25-4.249-9.9-6.59-15.91-6.59c-6.01,0-11.66,2.341-15.909,6.59
			c-4.249,4.25-6.59,9.899-6.59,15.911c0,4.43,1.282,8.701,3.712,12.379l-2.751,8.248c-0.086,0.26-0.018,0.541,0.173,0.734
			c0.193,0.193,0.477,0.259,0.736,0.176l8.248-2.751c3.678,2.43,7.95,3.711,12.38,3.711c6.01,0,11.66-2.34,15.91-6.59
			c4.249-4.249,6.59-9.9,6.59-15.907C99.5,37.156,97.159,31.507,92.91,27.257z M77,64.231c-4.259,0-8.364-1.266-11.868-3.661
			c-0.121-0.083-0.262-0.127-0.404-0.127c-0.077,0-0.154,0.013-0.229,0.039l-7.22,2.404l2.407-7.22
			c0.071-0.211,0.039-0.448-0.089-0.633c-2.395-3.502-3.661-7.607-3.661-11.865c0-11.615,9.45-21.065,21.063-21.065
			c11.612,0,21.064,9.45,21.064,21.065C98.064,54.781,88.612,64.231,77,64.231z"/>
	</g>
</g>
</svg>
