<?xml version="1.0" encoding="utf-8"?>
<!-- Generator: Adobe Illustrator 16.0.0, SVG Export Plug-In . SVG Version: 6.00 Build 0)  -->
<!DOCTYPE svg PUBLIC "-//W3C//DTD SVG 1.1//EN" "http://www.w3.org/Graphics/SVG/1.1/DTD/svg11.dtd">
<svg version="1.1" id="Layer_1" xmlns="http://www.w3.org/2000/svg" xmlns:xlink="http://www.w3.org/1999/xlink" x="0px" y="0px"
	 width="180px" height="110.333px" viewBox="-15 0 180 110.333" enable-background="new -15 0 180 110.333" xml:space="preserve">
<g>
	<path fill="#FFFFFF" d="M130.424,54.335c0,29.458-23.875,53.334-53.334,53.334S23.755,83.792,23.755,54.335
		C23.755,24.877,47.631,1,77.09,1S130.424,24.877,130.424,54.335z"/>
	<g>
		<path fill="#515DA9" d="M-3.356,88.647l5.136,8.708v-8.708h0.603l0.015,9.915H1.794l-5.15-8.753l0.015,8.753H-3.93l-0.014-9.915
			H-3.356z"/>
		<path fill="#515DA9" d="M7.706,97.987c-0.221,0.222-0.479,0.396-0.775,0.524c-0.297,0.128-0.617,0.193-0.961,0.193
			c-0.315,0-0.614-0.057-0.896-0.172c-0.282-0.114-0.526-0.27-0.732-0.466c-0.206-0.196-0.371-0.426-0.495-0.688
			c-0.125-0.264-0.187-0.543-0.187-0.84c0-0.316,0.065-0.607,0.194-0.875c0.129-0.268,0.304-0.5,0.524-0.695
			c0.22-0.194,0.476-0.348,0.768-0.452c0.292-0.105,0.6-0.158,0.925-0.158h1.636v-0.315c0-0.287-0.036-0.56-0.108-0.818
			c-0.071-0.258-0.174-0.482-0.308-0.674c-0.134-0.193-0.294-0.345-0.481-0.459c-0.186-0.116-0.395-0.178-0.625-0.187H6.169
			c-0.621,0-1.176,0.07-1.664,0.216l-0.143-0.574c0.564-0.164,1.167-0.244,1.808-0.244h0.015c0.277,0.01,0.54,0.078,0.789,0.207
			c0.249,0.13,0.468,0.303,0.66,0.523c0.191,0.221,0.347,0.479,0.466,0.775c0.12,0.297,0.188,0.611,0.208,0.947v0.144
			c-0.009,0.239-0.014,0.492-0.014,0.76c-0.01,0.229-0.014,0.49-0.014,0.781c0,0.293,0,0.586,0,0.884
			c0,0.275,0.002,0.545,0.007,0.803c0.004,0.258,0.012,0.492,0.021,0.703c0.009,0.21,0.021,0.379,0.036,0.508
			s0.031,0.203,0.051,0.221H7.721L7.706,97.987z M7.706,94.945H6.07c-0.248,0-0.48,0.04-0.696,0.117
			c-0.215,0.076-0.404,0.184-0.567,0.322c-0.163,0.14-0.292,0.306-0.387,0.504c-0.096,0.195-0.144,0.412-0.144,0.652
			c0,0.221,0.042,0.423,0.129,0.611c0.086,0.187,0.206,0.349,0.358,0.486c0.153,0.141,0.333,0.248,0.538,0.328
			c0.206,0.083,0.428,0.122,0.667,0.122s0.464-0.039,0.675-0.122c0.21-0.08,0.395-0.191,0.552-0.328
			c0.158-0.14,0.283-0.3,0.373-0.486c0.091-0.188,0.136-0.389,0.136-0.611V94.945z"/>
		<path fill="#515DA9" d="M11.306,88.647v2.841h1.937v0.617h-1.937l0.014,6.457h-0.574c-0.01-0.822-0.014-1.627-0.014-2.41v-4.047
			h-1.09v-0.617h1.062v-2.841H11.306L11.306,88.647z"/>
		<path fill="#515DA9" d="M18.881,97.901v-0.344c-0.22,0.335-0.502,0.606-0.846,0.817c-0.345,0.21-0.722,0.316-1.133,0.316
			c-0.335,0-0.646-0.068-0.933-0.208c-0.287-0.14-0.538-0.326-0.753-0.565c-0.216-0.241-0.386-0.519-0.51-0.841
			c-0.125-0.321-0.191-0.663-0.201-1.026l-0.043-0.072v-4.562h0.588v4.562l0.029,0.072c0.009,0.277,0.067,0.537,0.172,0.781
			c0.105,0.245,0.244,0.459,0.417,0.646c0.172,0.187,0.373,0.332,0.603,0.438c0.229,0.105,0.473,0.158,0.731,0.158
			c0.239,0,0.467-0.048,0.681-0.145c0.215-0.095,0.407-0.224,0.574-0.387c0.167-0.163,0.306-0.352,0.417-0.574
			c0.11-0.22,0.179-0.453,0.208-0.702v-4.878h0.603v6.484c0,0.172,0.009,0.326,0.029,0.459c0.02,0.134,0.038,0.211,0.057,0.229
			h-0.674L18.881,97.901z"/>
		<path fill="#515DA9" d="M23.674,91.933c-0.048-0.02-0.093-0.028-0.136-0.028c-0.043,0-0.089,0-0.136,0
			c-0.239,0-0.466,0.045-0.681,0.136c-0.215,0.092-0.409,0.218-0.581,0.38c-0.173,0.163-0.313,0.353-0.424,0.575
			c-0.11,0.22-0.184,0.457-0.222,0.715l0.014,4.852h-0.603l-0.014-6.485c0-0.165-0.007-0.317-0.021-0.46
			c-0.015-0.144-0.031-0.224-0.051-0.244h0.675v1.061c0.229-0.363,0.514-0.641,0.854-0.839c0.339-0.195,0.715-0.296,1.126-0.296
			c0.048,0,0.103,0.003,0.165,0.009c0.063,0.005,0.122,0.017,0.179,0.036L23.674,91.933z"/>
		<path fill="#515DA9" d="M28.867,97.987c-0.221,0.222-0.479,0.396-0.775,0.524c-0.297,0.128-0.617,0.193-0.961,0.193
			c-0.316,0-0.615-0.057-0.897-0.172c-0.282-0.114-0.526-0.27-0.732-0.466c-0.206-0.196-0.371-0.426-0.495-0.688
			c-0.124-0.264-0.187-0.543-0.187-0.84c0-0.316,0.065-0.607,0.194-0.875s0.303-0.5,0.523-0.695c0.22-0.194,0.476-0.348,0.768-0.452
			c0.292-0.105,0.6-0.158,0.925-0.158h1.636v-0.315c0-0.287-0.036-0.56-0.107-0.818c-0.072-0.258-0.175-0.482-0.308-0.674
			c-0.135-0.193-0.294-0.345-0.481-0.459c-0.186-0.116-0.395-0.178-0.625-0.187h-0.013c-0.623,0-1.176,0.07-1.665,0.216
			l-0.143-0.574c0.564-0.164,1.167-0.244,1.808-0.244h0.014c0.277,0.01,0.541,0.078,0.79,0.207c0.249,0.13,0.468,0.303,0.66,0.523
			c0.191,0.221,0.346,0.479,0.466,0.775c0.119,0.297,0.188,0.611,0.208,0.947v0.144c-0.009,0.239-0.015,0.492-0.015,0.76
			c-0.009,0.229-0.014,0.49-0.014,0.781c0,0.293,0,0.586,0,0.884c0,0.275,0.002,0.545,0.007,0.803
			c0.004,0.258,0.012,0.492,0.021,0.703c0.009,0.21,0.022,0.379,0.036,0.508s0.031,0.203,0.05,0.221h-0.674L28.867,97.987z
			 M28.867,94.945h-1.636c-0.248,0-0.48,0.04-0.695,0.117c-0.216,0.076-0.404,0.184-0.567,0.322
			c-0.163,0.14-0.292,0.306-0.387,0.504c-0.096,0.195-0.144,0.412-0.144,0.652c0,0.221,0.043,0.423,0.129,0.611
			c0.086,0.187,0.206,0.349,0.359,0.486c0.153,0.138,0.332,0.248,0.538,0.328c0.206,0.083,0.428,0.122,0.667,0.122
			c0.238,0,0.464-0.039,0.674-0.122c0.21-0.08,0.395-0.191,0.553-0.328c0.157-0.14,0.282-0.3,0.373-0.486
			c0.091-0.188,0.136-0.389,0.136-0.611V94.945z"/>
		<path fill="#515DA9" d="M31.004,88.647h0.603l0.014,9.915h-0.603L31.004,88.647z"/>
		<path fill="#515DA9" d="M37.317,97.958h4.834l0.014,0.604h-5.438l-0.014-9.915h0.603L37.317,97.958L37.317,97.958z"/>
		<path fill="#515DA9" d="M47.202,97.987c-0.221,0.222-0.479,0.396-0.774,0.524c-0.298,0.128-0.617,0.193-0.961,0.193
			c-0.316,0-0.614-0.057-0.897-0.172c-0.282-0.114-0.525-0.27-0.731-0.466c-0.207-0.196-0.372-0.426-0.495-0.688
			c-0.125-0.264-0.188-0.543-0.188-0.84c0-0.316,0.064-0.607,0.195-0.875c0.129-0.268,0.304-0.5,0.523-0.695
			c0.221-0.194,0.476-0.348,0.767-0.452c0.293-0.105,0.602-0.158,0.926-0.158H47.2v-0.315c0-0.287-0.036-0.56-0.107-0.818
			c-0.072-0.258-0.174-0.482-0.309-0.674c-0.134-0.193-0.294-0.345-0.481-0.459c-0.188-0.116-0.396-0.178-0.624-0.187h-0.015
			c-0.621,0-1.175,0.07-1.663,0.216l-0.144-0.574c0.564-0.164,1.167-0.244,1.809-0.244h0.013c0.277,0.01,0.541,0.078,0.791,0.207
			c0.247,0.13,0.469,0.303,0.66,0.523c0.192,0.221,0.347,0.479,0.467,0.775c0.118,0.297,0.188,0.611,0.208,0.947v0.144
			c-0.011,0.239-0.014,0.492-0.014,0.76c-0.011,0.229-0.015,0.49-0.015,0.781c0,0.293,0,0.586,0,0.884
			c0,0.275,0.003,0.545,0.008,0.803c0.004,0.258,0.013,0.492,0.021,0.703c0.01,0.21,0.021,0.379,0.035,0.508
			s0.032,0.203,0.051,0.221h-0.673L47.202,97.987z M47.202,94.945h-1.635c-0.249,0-0.482,0.04-0.697,0.117
			c-0.214,0.076-0.403,0.184-0.565,0.322c-0.164,0.14-0.292,0.306-0.388,0.504c-0.094,0.195-0.143,0.412-0.143,0.652
			c0,0.221,0.042,0.423,0.129,0.611c0.086,0.187,0.205,0.349,0.358,0.486c0.152,0.141,0.332,0.248,0.538,0.328
			c0.204,0.083,0.428,0.122,0.665,0.122s0.463-0.039,0.675-0.122c0.21-0.08,0.395-0.191,0.552-0.328
			c0.158-0.14,0.282-0.3,0.375-0.486c0.091-0.188,0.136-0.389,0.136-0.611V94.945L47.202,94.945z"/>
		<path fill="#515DA9" d="M49.569,92.019v0.387c0.229-0.363,0.517-0.643,0.86-0.839c0.345-0.196,0.722-0.294,1.133-0.294
			c0.334,0,0.646,0.067,0.94,0.207c0.292,0.139,0.546,0.325,0.761,0.56s0.387,0.511,0.517,0.832
			c0.128,0.321,0.196,0.663,0.207,1.027l0.041,4.663h-0.601l-0.014-4.663c-0.01-0.288-0.065-0.554-0.171-0.796
			c-0.104-0.244-0.245-0.457-0.416-0.639c-0.17-0.182-0.374-0.325-0.604-0.43c-0.228-0.103-0.473-0.157-0.731-0.157
			c-0.239,0-0.466,0.046-0.682,0.138c-0.216,0.091-0.409,0.218-0.582,0.379c-0.171,0.162-0.315,0.354-0.43,0.574
			s-0.191,0.458-0.229,0.716l0.015,4.878H48.98l-0.013-6.514c0-0.162-0.008-0.299-0.022-0.408c-0.013-0.109-0.032-0.174-0.049-0.193
			h0.673V92.019L49.569,92.019L49.569,92.019z"/>
		<path fill="#515DA9" d="M57.646,96.897c0.048-0.019,0.103-0.028,0.166-0.028c0.063,0,0.118,0,0.166,0
			c0.402,0,0.775,0.06,1.126,0.18c0.351,0.117,0.657,0.277,0.921,0.48c0.262,0.199,0.468,0.439,0.614,0.717
			c0.146,0.276,0.221,0.573,0.221,0.889c0,0.317-0.074,0.611-0.221,0.891c-0.146,0.277-0.353,0.519-0.614,0.725
			c-0.264,0.205-0.57,0.371-0.921,0.494c-0.351,0.124-0.724,0.188-1.126,0.188c-0.394,0-0.766-0.063-1.111-0.188
			c-0.352-0.123-0.653-0.289-0.911-0.494c-0.259-0.206-0.465-0.447-0.615-0.725c-0.154-0.277-0.229-0.573-0.229-0.891
			c0-0.43,0.136-0.819,0.407-1.168c0.273-0.351,0.634-0.619,1.082-0.811c-0.105-0.182-0.157-0.406-0.157-0.675
			c0-0.163,0.028-0.313,0.086-0.453c0.059-0.14,0.13-0.246,0.218-0.323c-0.336-0.241-0.596-0.525-0.782-0.854
			c-0.188-0.329-0.281-0.688-0.281-1.068c0-0.347,0.075-0.666,0.222-0.971c0.148-0.299,0.353-0.563,0.612-0.789
			c0.257-0.225,0.559-0.401,0.903-0.531c0.344-0.129,0.715-0.193,1.119-0.193c0.211,0,0.4,0.014,0.574,0.041
			c0.17,0.028,0.339,0.065,0.501,0.116h2.482l-0.587,0.603h-0.902c0.247,0.221,0.441,0.475,0.58,0.761
			c0.141,0.287,0.208,0.608,0.208,0.962c0,0.344-0.073,0.665-0.22,0.961c-0.149,0.297-0.353,0.555-0.612,0.774
			c-0.257,0.22-0.56,0.395-0.911,0.523c-0.35,0.13-0.718,0.194-1.11,0.194c-0.24,0-0.453-0.028-0.638-0.086
			c-0.187-0.059-0.366-0.087-0.538-0.087c-0.104,0-0.211,0.027-0.315,0.079c-0.105,0.053-0.158,0.155-0.158,0.31
			c0,0.198,0.056,0.325,0.165,0.378c0.11,0.052,0.222,0.078,0.338,0.078c0.048,0,0.095-0.002,0.144-0.007
			C57.579,96.899,57.617,96.897,57.646,96.897z M55.681,99.134c0,0.23,0.063,0.451,0.187,0.661s0.292,0.395,0.502,0.553
			c0.211,0.157,0.455,0.281,0.732,0.374c0.277,0.091,0.568,0.137,0.875,0.137c0.325,0,0.628-0.045,0.911-0.137
			c0.282-0.092,0.528-0.217,0.739-0.374c0.21-0.158,0.375-0.343,0.494-0.553c0.12-0.21,0.18-0.431,0.18-0.661
			c0-0.229-0.06-0.445-0.18-0.651c-0.119-0.205-0.284-0.389-0.494-0.546c-0.211-0.157-0.457-0.284-0.739-0.38
			c-0.283-0.095-0.586-0.144-0.911-0.144c-0.307,0-0.598,0.049-0.875,0.144c-0.277,0.096-0.521,0.223-0.732,0.38
			c-0.21,0.157-0.378,0.341-0.502,0.546C55.743,98.689,55.681,98.906,55.681,99.134z M56.27,93.785c0,0.258,0.06,0.501,0.179,0.731
			c0.12,0.229,0.282,0.429,0.488,0.595c0.205,0.168,0.444,0.302,0.718,0.402c0.272,0.1,0.564,0.15,0.88,0.15
			c0.326,0,0.628-0.051,0.904-0.15c0.275-0.101,0.519-0.234,0.725-0.402c0.203-0.166,0.368-0.365,0.486-0.595
			c0.119-0.23,0.179-0.474,0.179-0.731c0-0.269-0.06-0.52-0.179-0.754c-0.118-0.234-0.283-0.438-0.486-0.61
			c-0.206-0.172-0.449-0.306-0.725-0.403c-0.276-0.094-0.581-0.143-0.904-0.143c-0.315,0-0.609,0.047-0.88,0.143
			c-0.274,0.097-0.513,0.229-0.718,0.403c-0.206,0.171-0.368,0.376-0.488,0.61C56.329,93.265,56.27,93.516,56.27,93.785z"/>
		<path fill="#515DA9" d="M67.619,97.901v-0.344c-0.222,0.335-0.504,0.606-0.846,0.817c-0.347,0.21-0.723,0.316-1.133,0.316
			c-0.335,0-0.645-0.068-0.933-0.208c-0.286-0.14-0.537-0.326-0.752-0.565c-0.218-0.241-0.386-0.519-0.509-0.841
			c-0.125-0.321-0.193-0.663-0.201-1.026l-0.043-0.072v-4.562h0.587v4.562l0.029,0.072c0.01,0.277,0.067,0.537,0.173,0.781
			c0.104,0.245,0.244,0.459,0.416,0.646c0.171,0.187,0.373,0.332,0.602,0.438c0.23,0.105,0.474,0.158,0.732,0.158
			c0.239,0,0.467-0.048,0.682-0.145c0.215-0.095,0.406-0.224,0.574-0.387c0.169-0.163,0.305-0.352,0.416-0.574
			c0.109-0.22,0.179-0.453,0.208-0.702v-4.878h0.603v6.484c0,0.172,0.01,0.326,0.028,0.459c0.02,0.134,0.04,0.211,0.059,0.229
			h-0.675L67.619,97.901z"/>
		<path fill="#515DA9" d="M73.602,97.987c-0.221,0.222-0.479,0.396-0.775,0.524c-0.297,0.128-0.616,0.193-0.961,0.193
			c-0.315,0-0.613-0.057-0.897-0.172c-0.281-0.114-0.525-0.27-0.731-0.466s-0.371-0.426-0.495-0.688
			c-0.124-0.264-0.188-0.543-0.188-0.84c0-0.316,0.065-0.607,0.195-0.875c0.129-0.268,0.303-0.5,0.523-0.695
			c0.221-0.194,0.476-0.348,0.768-0.452c0.291-0.105,0.601-0.158,0.926-0.158H73.6v-0.315c0-0.287-0.036-0.56-0.107-0.818
			c-0.072-0.258-0.175-0.482-0.31-0.674c-0.134-0.193-0.293-0.345-0.48-0.459c-0.187-0.116-0.396-0.178-0.624-0.187h-0.015
			c-0.62,0-1.176,0.07-1.664,0.216l-0.143-0.574c0.563-0.164,1.166-0.244,1.808-0.244h0.015c0.276,0.01,0.54,0.078,0.79,0.207
			c0.246,0.13,0.468,0.303,0.659,0.523c0.193,0.221,0.349,0.479,0.468,0.775c0.118,0.297,0.188,0.611,0.207,0.947v0.144
			c-0.01,0.239-0.013,0.492-0.013,0.76c-0.012,0.229-0.014,0.49-0.014,0.781c0,0.293,0,0.586,0,0.884
			c0,0.275,0.002,0.545,0.008,0.803c0.005,0.258,0.012,0.492,0.021,0.703c0.01,0.21,0.021,0.379,0.036,0.508
			c0.014,0.129,0.03,0.203,0.051,0.221h-0.675L73.602,97.987z M73.602,94.945h-1.636c-0.248,0-0.481,0.04-0.696,0.117
			c-0.215,0.076-0.404,0.184-0.565,0.322c-0.164,0.14-0.293,0.306-0.387,0.504c-0.095,0.195-0.144,0.412-0.144,0.652
			c0,0.221,0.042,0.423,0.129,0.611c0.088,0.187,0.206,0.349,0.358,0.486c0.152,0.139,0.332,0.248,0.538,0.328
			c0.205,0.083,0.428,0.122,0.666,0.122c0.236,0,0.464-0.039,0.675-0.122c0.209-0.08,0.394-0.191,0.552-0.328
			c0.158-0.14,0.282-0.3,0.374-0.486c0.092-0.188,0.138-0.389,0.138-0.611v-1.596H73.602L73.602,94.945z"/>
		<path fill="#515DA9" d="M77.833,96.897c0.048-0.019,0.103-0.028,0.166-0.028c0.062,0,0.117,0,0.164,0
			c0.404,0,0.777,0.06,1.128,0.18c0.352,0.117,0.655,0.277,0.92,0.48c0.263,0.199,0.468,0.439,0.615,0.717
			c0.146,0.276,0.221,0.573,0.221,0.889c0,0.317-0.074,0.611-0.221,0.891c-0.147,0.277-0.353,0.519-0.615,0.725
			c-0.265,0.205-0.568,0.371-0.92,0.494c-0.351,0.124-0.724,0.188-1.128,0.188c-0.393,0-0.763-0.063-1.11-0.188
			c-0.351-0.123-0.653-0.289-0.911-0.494c-0.258-0.206-0.463-0.447-0.616-0.725c-0.152-0.277-0.228-0.573-0.228-0.891
			c0-0.43,0.135-0.819,0.406-1.168c0.273-0.351,0.635-0.619,1.082-0.811c-0.105-0.182-0.158-0.406-0.158-0.675
			c0-0.163,0.029-0.313,0.088-0.453c0.058-0.14,0.129-0.246,0.216-0.323c-0.334-0.241-0.594-0.525-0.782-0.854
			c-0.187-0.329-0.278-0.688-0.278-1.068c0-0.347,0.073-0.666,0.221-0.971c0.147-0.299,0.352-0.563,0.612-0.789
			c0.257-0.225,0.56-0.401,0.901-0.531c0.347-0.129,0.716-0.193,1.119-0.193c0.212,0,0.402,0.014,0.574,0.041
			s0.341,0.065,0.503,0.116h2.482l-0.587,0.603h-0.903c0.247,0.221,0.44,0.475,0.581,0.761c0.14,0.287,0.209,0.608,0.209,0.962
			c0,0.344-0.075,0.665-0.222,0.961c-0.148,0.297-0.352,0.555-0.611,0.774c-0.258,0.22-0.561,0.395-0.911,0.523
			c-0.351,0.13-0.718,0.194-1.11,0.194c-0.24,0-0.453-0.028-0.638-0.086c-0.187-0.059-0.365-0.087-0.538-0.087
			c-0.105,0-0.211,0.027-0.316,0.079c-0.105,0.053-0.157,0.155-0.157,0.31c0,0.198,0.055,0.325,0.165,0.378
			c0.109,0.052,0.222,0.078,0.338,0.078c0.047,0,0.094-0.002,0.144-0.007C77.766,96.899,77.805,96.897,77.833,96.897z
			 M75.868,99.134c0,0.23,0.063,0.451,0.187,0.661s0.293,0.395,0.503,0.553c0.211,0.157,0.456,0.281,0.732,0.374
			c0.275,0.091,0.568,0.137,0.873,0.137c0.326,0,0.63-0.045,0.911-0.137c0.282-0.092,0.53-0.217,0.741-0.374
			c0.21-0.158,0.377-0.343,0.494-0.553c0.118-0.21,0.18-0.431,0.18-0.661c0-0.229-0.062-0.445-0.18-0.651
			c-0.117-0.205-0.284-0.389-0.494-0.546c-0.211-0.157-0.455-0.284-0.741-0.38c-0.281-0.095-0.585-0.144-0.911-0.144
			c-0.305,0-0.598,0.049-0.873,0.144c-0.276,0.096-0.521,0.223-0.732,0.38c-0.21,0.157-0.377,0.341-0.503,0.546
			C75.93,98.689,75.868,98.906,75.868,99.134z M76.456,93.785c0,0.258,0.061,0.501,0.18,0.731c0.119,0.229,0.281,0.429,0.487,0.595
			c0.205,0.168,0.444,0.302,0.716,0.402c0.273,0.1,0.566,0.15,0.882,0.15c0.326,0,0.626-0.051,0.904-0.15
			c0.275-0.101,0.517-0.234,0.724-0.402c0.205-0.166,0.369-0.365,0.487-0.595c0.119-0.23,0.18-0.474,0.18-0.731
			c0-0.269-0.061-0.52-0.18-0.754c-0.118-0.234-0.282-0.438-0.487-0.61c-0.205-0.172-0.448-0.306-0.724-0.403
			c-0.278-0.094-0.58-0.143-0.904-0.143c-0.315,0-0.61,0.047-0.882,0.143c-0.273,0.097-0.511,0.229-0.716,0.403
			c-0.206,0.171-0.368,0.376-0.487,0.61S76.456,93.516,76.456,93.785z"/>
		<path fill="#515DA9" d="M86.141,98.103c0.152,0,0.313-0.018,0.48-0.051c0.169-0.033,0.335-0.076,0.504-0.129
			s0.325-0.11,0.481-0.172c0.152-0.063,0.286-0.121,0.401-0.18l0.245,0.532c-0.249,0.134-0.516,0.247-0.803,0.345
			c-0.288,0.096-0.594,0.172-0.92,0.229h-0.013c-0.058,0.012-0.117,0.013-0.179,0.013c-0.063,0-0.128,0-0.195,0
			c-0.402,0-0.776-0.088-1.127-0.266c-0.35-0.177-0.66-0.42-0.933-0.731c-0.271-0.311-0.492-0.674-0.659-1.09
			c-0.169-0.417-0.267-0.864-0.296-1.341v-0.272c0-0.508,0.076-0.984,0.23-1.436c0.151-0.45,0.357-0.842,0.615-1.177
			c0.259-0.334,0.56-0.6,0.903-0.796c0.346-0.195,0.714-0.294,1.105-0.294c0.403,0,0.774,0.092,1.119,0.279
			c0.345,0.187,0.644,0.442,0.898,0.768c0.253,0.325,0.452,0.708,0.595,1.148c0.143,0.441,0.217,0.918,0.217,1.435v0.346h-5.065
			c0.02,0.401,0.097,0.773,0.229,1.119c0.134,0.345,0.309,0.643,0.523,0.896c0.217,0.254,0.465,0.456,0.746,0.604
			C85.525,98.028,85.824,98.103,86.141,98.103z M88.234,94.672c-0.028-0.382-0.107-0.743-0.236-1.082s-0.294-0.635-0.495-0.883
			c-0.201-0.247-0.431-0.444-0.69-0.587c-0.259-0.142-0.534-0.215-0.832-0.215c-0.286,0-0.56,0.069-0.819,0.215
			c-0.258,0.144-0.486,0.34-0.688,0.587c-0.201,0.248-0.366,0.544-0.495,0.883c-0.13,0.339-0.208,0.7-0.236,1.082H88.234z"/>
		<path fill="#515DA9" d="M95.82,93.476l0.014,4.964h-0.602l-0.016-9.914h2.855c0.383,0,0.746,0.065,1.09,0.193
			c0.346,0.13,0.642,0.304,0.891,0.525c0.248,0.222,0.447,0.479,0.595,0.774c0.148,0.297,0.223,0.611,0.223,0.948
			c0,0.352-0.074,0.685-0.223,0.989c-0.147,0.307-0.347,0.571-0.595,0.796c-0.249,0.224-0.545,0.401-0.891,0.531
			c-0.344,0.129-0.707,0.195-1.09,0.195H95.82V93.476z M95.82,89.1v3.773h2.252c0.297,0,0.576-0.048,0.84-0.143
			c0.263-0.095,0.494-0.229,0.695-0.402c0.201-0.172,0.359-0.374,0.473-0.604c0.115-0.229,0.172-0.481,0.172-0.76
			c0-0.259-0.057-0.501-0.172-0.725c-0.113-0.224-0.271-0.421-0.473-0.588c-0.201-0.168-0.433-0.3-0.695-0.402
			c-0.264-0.101-0.544-0.15-0.84-0.15h-0.043H95.82z"/>
		<path fill="#515DA9" d="M104.773,91.812c-0.049-0.02-0.094-0.029-0.137-0.029s-0.088,0-0.137,0c-0.238,0-0.466,0.045-0.681,0.136
			c-0.216,0.091-0.409,0.219-0.581,0.38c-0.172,0.163-0.314,0.354-0.424,0.575c-0.109,0.221-0.184,0.458-0.222,0.716l0.015,4.85
			h-0.604l-0.014-6.485c0-0.164-0.008-0.316-0.021-0.458c-0.015-0.143-0.031-0.224-0.051-0.245h0.675v1.062
			c0.229-0.363,0.514-0.643,0.853-0.841c0.34-0.194,0.716-0.294,1.127-0.294c0.049,0,0.104,0.002,0.165,0.008
			c0.063,0.004,0.122,0.016,0.179,0.037L104.773,91.812z"/>
		<path fill="#515DA9" d="M105.662,94.896c0-0.517,0.089-1,0.266-1.449s0.418-0.841,0.725-1.176
			c0.306-0.335,0.664-0.601,1.076-0.796c0.41-0.195,0.846-0.295,1.305-0.295s0.89,0.099,1.291,0.295
			c0.402,0.195,0.754,0.461,1.055,0.796s0.541,0.727,0.717,1.176c0.178,0.45,0.266,0.933,0.266,1.449
			c0,0.508-0.088,0.982-0.266,1.428c-0.176,0.444-0.416,0.834-0.717,1.169s-0.652,0.601-1.055,0.797
			c-0.401,0.194-0.832,0.294-1.291,0.294c-0.458,0-0.895-0.099-1.305-0.294c-0.412-0.196-0.771-0.462-1.076-0.797
			c-0.307-0.335-0.548-0.725-0.725-1.169S105.662,95.404,105.662,94.896z M106.266,94.896c0,0.421,0.071,0.819,0.215,1.197
			c0.144,0.379,0.342,0.706,0.596,0.984c0.254,0.276,0.547,0.497,0.883,0.659c0.334,0.163,0.693,0.244,1.076,0.244
			c0.372,0,0.724-0.081,1.053-0.244c0.33-0.162,0.617-0.382,0.861-0.659c0.244-0.279,0.438-0.605,0.581-0.984
			c0.144-0.376,0.216-0.776,0.216-1.197c0-0.431-0.072-0.834-0.216-1.212s-0.337-0.708-0.581-0.989
			c-0.244-0.283-0.531-0.505-0.861-0.666c-0.329-0.161-0.681-0.246-1.053-0.246c-0.383,0-0.742,0.081-1.076,0.246
			c-0.336,0.162-0.629,0.383-0.883,0.666c-0.254,0.281-0.452,0.611-0.596,0.989S106.266,94.465,106.266,94.896z"/>
		<path fill="#515DA9" d="M118.502,92.745c-0.248-0.288-0.547-0.52-0.896-0.696c-0.35-0.175-0.729-0.266-1.141-0.266
			c-0.393,0-0.76,0.081-1.104,0.246c-0.345,0.162-0.644,0.381-0.897,0.66c-0.252,0.277-0.454,0.605-0.602,0.981
			c-0.148,0.378-0.223,0.783-0.223,1.211c0,0.423,0.074,0.82,0.223,1.199c0.147,0.377,0.35,0.705,0.602,0.981
			c0.254,0.278,0.553,0.498,0.897,0.662c0.345,0.163,0.712,0.244,1.104,0.244s0.761-0.081,1.104-0.244
			c0.345-0.164,0.646-0.388,0.903-0.674l0.432,0.416c-0.326,0.332-0.695,0.602-1.105,0.803c-0.412,0.199-0.856,0.3-1.334,0.3
			c-0.469,0-0.912-0.098-1.327-0.294c-0.416-0.195-0.78-0.462-1.091-0.796c-0.311-0.335-0.557-0.724-0.738-1.169
			s-0.273-0.921-0.273-1.429c0-0.507,0.092-0.984,0.273-1.435c0.182-0.449,0.428-0.841,0.738-1.176s0.675-0.601,1.091-0.796
			s0.858-0.295,1.327-0.295c0.496,0,0.955,0.103,1.377,0.308c0.421,0.207,0.784,0.478,1.09,0.812L118.502,92.745z"/>
		<path fill="#515DA9" d="M122.994,97.981c0.152,0,0.313-0.017,0.48-0.051c0.168-0.032,0.335-0.077,0.502-0.129
			c0.167-0.053,0.328-0.109,0.48-0.171c0.154-0.062,0.287-0.122,0.402-0.18l0.244,0.531c-0.248,0.135-0.518,0.248-0.803,0.346
			c-0.288,0.094-0.594,0.17-0.919,0.228h-0.015c-0.058,0.012-0.117,0.015-0.18,0.015c-0.062,0-0.127,0-0.193,0
			c-0.402,0-0.777-0.089-1.127-0.266c-0.349-0.178-0.659-0.421-0.932-0.731c-0.272-0.312-0.492-0.675-0.66-1.091
			s-0.266-0.863-0.294-1.341v-0.272c0-0.508,0.076-0.985,0.229-1.436c0.152-0.449,0.358-0.842,0.616-1.176
			c0.258-0.336,0.56-0.601,0.903-0.797c0.345-0.195,0.713-0.294,1.105-0.294c0.402,0,0.774,0.092,1.119,0.279
			c0.344,0.187,0.643,0.442,0.896,0.768s0.451,0.707,0.596,1.147c0.143,0.44,0.215,0.919,0.215,1.435v0.346h-5.063
			c0.019,0.402,0.095,0.773,0.229,1.118c0.134,0.346,0.309,0.643,0.523,0.898c0.215,0.252,0.464,0.455,0.746,0.602
			C122.379,97.908,122.678,97.981,122.994,97.981z M125.088,94.552c-0.027-0.383-0.107-0.743-0.236-1.083
			c-0.129-0.339-0.294-0.634-0.494-0.882c-0.201-0.247-0.431-0.445-0.689-0.587c-0.258-0.144-0.535-0.218-0.832-0.218
			c-0.287,0-0.56,0.072-0.818,0.218c-0.258,0.144-0.488,0.34-0.688,0.587c-0.201,0.248-0.366,0.543-0.495,0.882
			c-0.129,0.34-0.208,0.7-0.236,1.083H125.088z"/>
		<path fill="#515DA9" d="M130.984,92.443c-0.221-0.211-0.486-0.37-0.803-0.48c-0.316-0.111-0.65-0.167-1.004-0.167
			c-0.488,0-0.898,0.116-1.227,0.345c-0.33,0.229-0.496,0.527-0.496,0.891c0,0.171,0.043,0.34,0.129,0.503s0.209,0.313,0.367,0.452
			c0.156,0.14,0.346,0.256,0.564,0.352c0.221,0.094,0.461,0.163,0.719,0.201c0.326,0.046,0.625,0.138,0.902,0.272
			c0.275,0.135,0.516,0.294,0.715,0.481c0.201,0.187,0.355,0.396,0.467,0.631c0.111,0.235,0.166,0.481,0.166,0.74
			c0,0.287-0.063,0.545-0.188,0.773c-0.123,0.23-0.293,0.43-0.508,0.595c-0.215,0.17-0.463,0.299-0.744,0.388
			c-0.283,0.092-0.582,0.138-0.898,0.138c-0.451,0-0.883-0.083-1.299-0.244c-0.416-0.163-0.746-0.394-0.998-0.689l0.459-0.358
			c0.201,0.2,0.459,0.368,0.775,0.502c0.314,0.134,0.654,0.201,1.018,0.201c0.498,0,0.918-0.119,1.262-0.359
			c0.346-0.238,0.516-0.555,0.516-0.947c0-0.182-0.041-0.355-0.127-0.523c-0.088-0.168-0.209-0.322-0.365-0.467
			c-0.158-0.143-0.346-0.266-0.561-0.365c-0.217-0.101-0.453-0.17-0.709-0.208c-0.336-0.048-0.643-0.139-0.92-0.272
			c-0.277-0.136-0.516-0.296-0.717-0.482c-0.201-0.188-0.359-0.395-0.475-0.623c-0.115-0.23-0.17-0.469-0.17-0.717
			c0-0.269,0.064-0.514,0.193-0.74c0.129-0.225,0.303-0.416,0.523-0.574c0.221-0.157,0.475-0.279,0.762-0.365
			c0.287-0.087,0.59-0.129,0.92-0.129c0.449,0,0.871,0.084,1.268,0.25c0.398,0.167,0.719,0.379,0.971,0.637L130.984,92.443z"/>
		<path fill="#515DA9" d="M136.967,92.443c-0.221-0.211-0.486-0.37-0.803-0.48c-0.314-0.111-0.65-0.167-1.002-0.167
			c-0.486,0-0.898,0.116-1.229,0.345c-0.328,0.229-0.494,0.527-0.494,0.891c0,0.171,0.041,0.34,0.129,0.503
			c0.086,0.163,0.207,0.313,0.365,0.452c0.158,0.14,0.348,0.256,0.566,0.352c0.221,0.094,0.459,0.163,0.717,0.201
			c0.326,0.046,0.627,0.138,0.904,0.272s0.516,0.294,0.717,0.481c0.201,0.187,0.354,0.396,0.465,0.631
			c0.111,0.235,0.166,0.481,0.166,0.74c0,0.287-0.063,0.545-0.186,0.773c-0.125,0.23-0.295,0.43-0.51,0.595
			c-0.215,0.17-0.465,0.299-0.746,0.388c-0.283,0.092-0.582,0.138-0.896,0.138c-0.451,0-0.883-0.083-1.299-0.244
			c-0.416-0.163-0.748-0.394-0.996-0.689l0.457-0.358c0.201,0.2,0.459,0.368,0.775,0.502c0.314,0.134,0.656,0.201,1.02,0.201
			c0.496,0,0.918-0.119,1.26-0.359c0.346-0.238,0.518-0.555,0.518-0.947c0-0.182-0.043-0.355-0.129-0.523s-0.209-0.322-0.365-0.467
			c-0.158-0.143-0.344-0.266-0.561-0.365c-0.215-0.101-0.453-0.17-0.709-0.208c-0.336-0.048-0.641-0.139-0.92-0.272
			c-0.277-0.136-0.516-0.296-0.717-0.482c-0.201-0.188-0.359-0.395-0.475-0.623c-0.113-0.23-0.17-0.469-0.17-0.717
			c0-0.269,0.064-0.514,0.193-0.74c0.129-0.225,0.303-0.416,0.523-0.574c0.221-0.157,0.477-0.279,0.762-0.365
			c0.287-0.087,0.592-0.129,0.92-0.129c0.449,0,0.871,0.084,1.268,0.25c0.398,0.167,0.721,0.379,0.969,0.637L136.967,92.443z"/>
		<path fill="#515DA9" d="M138.891,89.115c0-0.105,0.041-0.196,0.121-0.273c0.082-0.078,0.18-0.115,0.295-0.115
			c0.105,0,0.201,0.039,0.287,0.115c0.088,0.077,0.129,0.168,0.129,0.273s-0.041,0.195-0.129,0.273
			c-0.086,0.075-0.182,0.115-0.287,0.115c-0.115,0-0.213-0.038-0.295-0.115C138.932,89.31,138.891,89.22,138.891,89.115z
			 M139.004,91.266h0.59l0.012,7.173h-0.586L139.004,91.266z"/>
		<path fill="#515DA9" d="M141.773,91.898v0.387c0.229-0.363,0.518-0.643,0.861-0.839s0.721-0.296,1.133-0.296
			c0.334,0,0.648,0.069,0.939,0.209c0.293,0.14,0.547,0.324,0.762,0.559c0.215,0.235,0.387,0.513,0.516,0.833
			c0.129,0.321,0.199,0.663,0.209,1.026l0.043,4.663h-0.604l-0.014-4.663c-0.01-0.287-0.066-0.553-0.174-0.795
			c-0.104-0.245-0.244-0.456-0.414-0.639c-0.172-0.182-0.375-0.326-0.604-0.429c-0.229-0.105-0.473-0.157-0.732-0.157
			c-0.238,0-0.465,0.043-0.68,0.136c-0.217,0.091-0.41,0.218-0.582,0.379c-0.172,0.164-0.316,0.354-0.432,0.575
			c-0.113,0.221-0.189,0.458-0.229,0.716l0.016,4.879h-0.604l-0.014-6.515c0-0.164-0.008-0.3-0.021-0.41
			c-0.014-0.109-0.033-0.173-0.051-0.193h0.674V91.898z"/>
		<path fill="#515DA9" d="M149.852,96.775c0.047-0.018,0.102-0.028,0.164-0.028s0.117,0,0.166,0c0.402,0,0.777,0.062,1.127,0.18
			s0.656,0.28,0.918,0.481c0.264,0.199,0.469,0.439,0.615,0.716c0.15,0.278,0.223,0.574,0.223,0.89c0,0.316-0.072,0.613-0.223,0.891
			c-0.146,0.276-0.352,0.519-0.615,0.725c-0.262,0.205-0.568,0.369-0.918,0.494c-0.35,0.124-0.725,0.187-1.127,0.187
			c-0.393,0-0.764-0.063-1.111-0.187c-0.35-0.125-0.654-0.289-0.912-0.494c-0.258-0.206-0.463-0.448-0.615-0.725
			s-0.229-0.574-0.229-0.891c0-0.429,0.137-0.819,0.408-1.168c0.273-0.35,0.633-0.619,1.082-0.813
			c-0.105-0.181-0.158-0.404-0.158-0.674c0-0.162,0.027-0.313,0.086-0.451c0.059-0.14,0.129-0.247,0.217-0.324
			c-0.334-0.238-0.596-0.522-0.781-0.854c-0.188-0.329-0.281-0.686-0.281-1.068c0-0.344,0.074-0.666,0.223-0.968
			c0.146-0.302,0.352-0.565,0.611-0.79c0.258-0.224,0.559-0.404,0.902-0.533c0.346-0.13,0.717-0.193,1.119-0.193
			c0.211,0,0.404,0.014,0.574,0.042s0.34,0.066,0.502,0.115h2.484l-0.588,0.603h-0.904c0.248,0.222,0.443,0.473,0.58,0.76
			c0.141,0.288,0.209,0.609,0.209,0.963c0,0.345-0.072,0.664-0.221,0.961c-0.146,0.297-0.352,0.556-0.609,0.774
			c-0.258,0.221-0.563,0.394-0.912,0.523c-0.352,0.129-0.719,0.195-1.111,0.195c-0.238,0-0.453-0.028-0.637-0.087
			c-0.188-0.059-0.367-0.087-0.539-0.087c-0.104,0-0.211,0.026-0.314,0.079c-0.105,0.053-0.158,0.155-0.158,0.309
			c0,0.2,0.055,0.327,0.166,0.38c0.109,0.053,0.221,0.078,0.336,0.078c0.049,0,0.096-0.001,0.143-0.007
			C149.783,96.779,149.822,96.775,149.852,96.775z M147.885,99.013c0,0.229,0.063,0.45,0.188,0.66
			c0.123,0.213,0.291,0.396,0.502,0.555c0.211,0.157,0.457,0.281,0.732,0.373c0.277,0.092,0.568,0.138,0.875,0.138
			c0.326,0,0.629-0.045,0.91-0.138c0.283-0.091,0.529-0.216,0.742-0.373c0.209-0.158,0.375-0.342,0.494-0.555
			c0.117-0.21,0.178-0.429,0.178-0.66c0-0.229-0.061-0.446-0.178-0.652c-0.119-0.205-0.285-0.387-0.494-0.545
			c-0.213-0.158-0.457-0.284-0.742-0.381c-0.281-0.093-0.584-0.143-0.91-0.143c-0.307,0-0.598,0.049-0.875,0.143
			c-0.275,0.097-0.521,0.223-0.732,0.381s-0.377,0.34-0.502,0.545C147.947,98.567,147.885,98.785,147.885,99.013z M148.475,93.664
			c0,0.257,0.059,0.502,0.178,0.731s0.281,0.428,0.488,0.595s0.445,0.3,0.717,0.402c0.271,0.1,0.564,0.15,0.881,0.15
			c0.326,0,0.627-0.051,0.902-0.15c0.277-0.101,0.52-0.234,0.725-0.402c0.207-0.168,0.369-0.365,0.488-0.595s0.18-0.475,0.18-0.731
			c0-0.27-0.061-0.521-0.18-0.755c-0.119-0.233-0.281-0.437-0.488-0.61c-0.205-0.171-0.447-0.305-0.725-0.402
			c-0.275-0.096-0.578-0.143-0.902-0.143c-0.316,0-0.611,0.047-0.881,0.143c-0.273,0.096-0.51,0.228-0.717,0.402
			c-0.207,0.172-0.369,0.377-0.488,0.61C148.533,93.143,148.475,93.394,148.475,93.664z"/>
	</g>
	<g>
		<path fill="#151530" d="M95.907,42.448h-7.374c-0.059-3.585-0.555-7.048-1.415-10.12h4.838c0.396,0,0.717-0.321,0.717-0.718
			c0-0.396-0.321-0.716-0.717-0.716H86.68c-0.766-2.314-1.754-4.359-2.923-6c-0.233-0.323-0.682-0.398-1.002-0.167
			c-0.325,0.23-0.399,0.679-0.167,1.002c1.016,1.423,1.885,3.179,2.579,5.166h-7.448v-6.636c0-0.397-0.32-0.718-0.719-0.718
			c-0.396,0-0.717,0.321-0.717,0.718v6.636h-7.451c0.696-1.986,1.564-3.742,2.582-5.166c0.23-0.323,0.156-0.771-0.167-1.002
			c-0.323-0.231-0.771-0.155-1.002,0.167c-1.171,1.641-2.158,3.687-2.924,6h-5.278c-0.396,0-0.716,0.321-0.716,0.716
			c0,0.397,0.321,0.718,0.716,0.718h4.838c-0.861,3.072-1.356,6.535-1.415,10.12h-7.375c-0.397,0-0.718,0.321-0.718,0.718
			s0.321,0.718,0.718,0.718h7.375c0.059,3.586,0.554,7.049,1.415,10.121h-4.838c-0.396,0-0.716,0.321-0.716,0.716
			c0,0.395,0.321,0.718,0.716,0.718h5.278c0.767,2.313,1.753,4.356,2.926,6c0.139,0.193,0.361,0.299,0.585,0.299
			c0.143,0,0.29-0.044,0.415-0.132c0.323-0.232,0.397-0.681,0.167-1.002c-1.015-1.424-1.885-3.182-2.582-5.163h7.451v6.633
			c0,0.397,0.32,0.718,0.717,0.718s0.719-0.32,0.719-0.718V55.44h7.448c-0.694,1.983-1.563,3.741-2.581,5.165
			c-0.23,0.321-0.156,0.77,0.166,1.002c0.126,0.088,0.271,0.132,0.416,0.132c0.225,0,0.448-0.105,0.585-0.299
			c1.173-1.644,2.161-3.687,2.927-6.002h5.276c0.396,0,0.717-0.321,0.717-0.716s-0.321-0.716-0.717-0.716h-4.838
			c0.86-3.072,1.356-6.535,1.415-10.121h7.374c0.399,0,0.721-0.321,0.721-0.718S96.307,42.448,95.907,42.448L95.907,42.448z
			 M85.629,32.329c0.893,3.035,1.41,6.506,1.469,10.12h-9.379v-10.12H85.629z M68.371,32.329h7.913v10.12h-9.38
			C66.962,38.834,67.479,35.363,68.371,32.329z M68.371,54.005c-0.892-3.037-1.409-6.508-1.468-10.121h9.38v10.121H68.371z
			 M85.629,54.005h-7.91v-10.12h9.379C87.039,47.497,86.521,50.969,85.629,54.005z"/>
		<path fill="#151530" d="M92.91,27.257c-4.25-4.249-9.9-6.59-15.91-6.59s-11.66,2.341-15.909,6.59
			c-4.249,4.25-6.59,9.899-6.59,15.911c0,4.43,1.282,8.701,3.712,12.379l-2.751,8.248c-0.086,0.26-0.018,0.541,0.173,0.734
			c0.193,0.193,0.477,0.26,0.736,0.176l8.248-2.75c3.678,2.43,7.95,3.711,12.38,3.711c6.01,0,11.66-2.34,15.91-6.59
			c4.249-4.249,6.59-9.9,6.59-15.907C99.5,37.156,97.159,31.507,92.91,27.257z M77,64.231c-4.259,0-8.364-1.266-11.868-3.661
			c-0.121-0.083-0.262-0.127-0.404-0.127c-0.077,0-0.154,0.013-0.229,0.039l-7.22,2.404l2.407-7.22
			c0.071-0.211,0.039-0.448-0.089-0.633c-2.395-3.502-3.661-7.607-3.661-11.865c0-11.615,9.45-21.065,21.063-21.065
			c11.612,0,21.063,9.45,21.063,21.065C98.064,54.781,88.611,64.231,77,64.231z"/>
	</g>
</g>
</svg>
