<?xml version="1.0" encoding="utf-8"?>
<!-- Generator: Adobe Illustrator 16.0.0, SVG Export Plug-In . SVG Version: 6.00 Build 0)  -->
<!DOCTYPE svg PUBLIC "-//W3C//DTD SVG 1.1//EN" "http://www.w3.org/Graphics/SVG/1.1/DTD/svg11.dtd">
<svg version="1.1" id="Layer_1" xmlns="http://www.w3.org/2000/svg" xmlns:xlink="http://www.w3.org/1999/xlink" x="0px" y="0px"
	 width="150px" height="127.667px" viewBox="0 0 150 127.667" enable-background="new 0 0 150 127.667" xml:space="preserve">
<g>
	<path fill="#FFFFFF" d="M130.424,54.335c0,29.458-23.875,53.334-53.334,53.334S23.755,83.792,23.755,54.335
		C23.755,24.877,47.631,1,77.09,1S130.424,24.877,130.424,54.335z"/>
	<g enable-background="new    ">
		<path fill="#515DA9" d="M43.451,85.869V85.8c-0.567-0.582-1.214-1.041-1.941-1.379c-0.727-0.336-1.505-0.506-2.332-0.506
			c-0.858,0-1.662,0.185-2.412,0.553c-0.751,0.367-1.41,0.873-1.976,1.517c-0.567,0.644-1.015,1.394-1.344,2.251
			c-0.329,0.858-0.494,1.777-0.494,2.758c0,0.965,0.157,1.881,0.471,2.745c0.314,0.865,0.747,1.623,1.298,2.274
			c0.551,0.65,1.206,1.168,1.964,1.551s1.589,0.574,2.493,0.574c0.827,0,1.593-0.164,2.297-0.494
			c0.705-0.329,1.348-0.784,1.93-1.367l0.643,0.645c-0.643,0.688-1.378,1.229-2.206,1.619c-0.828,0.392-1.715,0.586-2.665,0.586
			c-0.95,0-1.857-0.215-2.723-0.644c-0.866-0.429-1.631-1.011-2.297-1.746c-0.666-0.735-1.199-1.597-1.597-2.585
			c-0.398-0.986-0.597-2.041-0.597-3.158c0-1.072,0.187-2.095,0.563-3.066c0.376-0.973,0.888-1.827,1.54-2.563
			c0.651-0.733,1.413-1.319,2.286-1.757s1.815-0.654,2.826-0.654c0.95,0,1.85,0.194,2.7,0.586c0.85,0.391,1.589,0.931,2.217,1.619
			L43.451,85.869z"/>
		<path fill="#515DA9" d="M46.346,83.042h0.965l0.023,15.875h-0.965L46.346,83.042z"/>
		<path fill="#515DA9" d="M55.972,98c-0.353,0.354-0.766,0.633-1.241,0.84c-0.475,0.205-0.988,0.31-1.539,0.31
			c-0.506,0-0.984-0.092-1.436-0.274c-0.452-0.185-0.843-0.434-1.172-0.748c-0.33-0.313-0.594-0.681-0.792-1.103
			c-0.199-0.421-0.299-0.869-0.299-1.344c0-0.507,0.104-0.974,0.31-1.401c0.207-0.429,0.486-0.801,0.839-1.113
			c0.352-0.314,0.762-0.557,1.229-0.725c0.467-0.169,0.961-0.253,1.482-0.253h2.619v-0.506c0-0.459-0.058-0.896-0.172-1.31
			c-0.115-0.414-0.28-0.773-0.494-1.08c-0.215-0.307-0.471-0.551-0.77-0.734c-0.298-0.186-0.632-0.283-1-0.299h-0.023
			c-0.996,0-1.884,0.113-2.665,0.345l-0.229-0.919c0.903-0.262,1.868-0.391,2.895-0.391h0.023c0.444,0.015,0.865,0.125,1.264,0.332
			c0.398,0.207,0.75,0.486,1.057,0.838c0.306,0.354,0.555,0.768,0.747,1.242c0.191,0.475,0.302,0.979,0.333,1.517v0.229
			c-0.015,0.383-0.023,0.789-0.023,1.217c-0.015,0.367-0.023,0.785-0.023,1.252c0,0.469,0,0.938,0,1.414
			c0,0.443,0.004,0.873,0.012,1.285c0.007,0.414,0.019,0.789,0.034,1.127c0.015,0.336,0.035,0.608,0.058,0.814
			c0.023,0.207,0.049,0.326,0.081,0.355h-1.08L55.972,98z M55.972,93.128h-2.619c-0.398,0-0.77,0.062-1.114,0.185
			c-0.345,0.122-0.647,0.295-0.908,0.517c-0.261,0.223-0.467,0.49-0.62,0.805c-0.153,0.313-0.23,0.662-0.23,1.046
			c0,0.353,0.069,0.678,0.207,0.977c0.138,0.298,0.329,0.56,0.574,0.781c0.245,0.222,0.532,0.397,0.862,0.528
			c0.329,0.13,0.685,0.195,1.068,0.195c0.382,0,0.743-0.065,1.08-0.195c0.337-0.131,0.632-0.307,0.885-0.528
			c0.252-0.224,0.452-0.483,0.597-0.781c0.146-0.299,0.218-0.624,0.218-0.977V93.128z"/>
		<path fill="#515DA9" d="M65.713,89.315c-0.353-0.337-0.781-0.594-1.287-0.771c-0.506-0.176-1.042-0.265-1.608-0.265
			c-0.781,0-1.436,0.185-1.964,0.552s-0.792,0.844-0.792,1.426c0,0.275,0.069,0.543,0.207,0.804s0.333,0.502,0.586,0.724
			c0.253,0.223,0.555,0.41,0.908,0.563c0.352,0.153,0.735,0.261,1.149,0.321c0.521,0.076,1.003,0.223,1.447,0.438
			c0.444,0.215,0.827,0.471,1.149,0.77c0.321,0.3,0.57,0.637,0.747,1.012c0.176,0.376,0.264,0.77,0.264,1.184
			c0,0.459-0.1,0.873-0.299,1.24c-0.199,0.368-0.471,0.686-0.815,0.953c-0.345,0.27-0.743,0.477-1.195,0.621
			c-0.452,0.146-0.931,0.218-1.436,0.218c-0.72,0-1.413-0.13-2.079-0.392c-0.667-0.26-1.199-0.627-1.597-1.103l0.735-0.573
			c0.322,0.32,0.735,0.59,1.241,0.803c0.505,0.216,1.049,0.322,1.631,0.322c0.796,0,1.47-0.19,2.022-0.574
			c0.551-0.383,0.827-0.889,0.827-1.517c0-0.291-0.069-0.569-0.207-0.839c-0.138-0.268-0.333-0.518-0.586-0.747
			c-0.252-0.229-0.551-0.425-0.896-0.586c-0.345-0.16-0.724-0.271-1.137-0.333c-0.536-0.076-1.026-0.222-1.47-0.438
			c-0.444-0.213-0.827-0.471-1.149-0.77c-0.322-0.299-0.574-0.632-0.758-0.999c-0.184-0.368-0.275-0.751-0.275-1.149
			c0-0.428,0.103-0.821,0.31-1.183c0.207-0.358,0.486-0.666,0.838-0.919s0.758-0.447,1.218-0.586c0.46-0.138,0.95-0.207,1.471-0.207
			c0.72,0,1.397,0.135,2.033,0.402c0.635,0.268,1.152,0.607,1.551,1.021L65.713,89.315z"/>
		<path fill="#515DA9" d="M75.294,89.315c-0.353-0.337-0.781-0.594-1.287-0.771c-0.506-0.176-1.042-0.265-1.608-0.265
			c-0.781,0-1.436,0.185-1.964,0.552s-0.792,0.844-0.792,1.426c0,0.275,0.069,0.543,0.207,0.804
			c0.138,0.261,0.333,0.502,0.586,0.724c0.253,0.223,0.555,0.41,0.908,0.563c0.352,0.153,0.735,0.261,1.149,0.321
			c0.521,0.076,1.003,0.223,1.447,0.438s0.827,0.471,1.149,0.77c0.321,0.3,0.571,0.637,0.747,1.012
			c0.176,0.376,0.264,0.77,0.264,1.184c0,0.459-0.1,0.873-0.299,1.24c-0.199,0.368-0.47,0.686-0.815,0.953
			c-0.345,0.27-0.743,0.477-1.195,0.621c-0.452,0.146-0.931,0.218-1.436,0.218c-0.72,0-1.413-0.13-2.079-0.392
			c-0.667-0.26-1.199-0.627-1.597-1.103l0.735-0.573c0.322,0.32,0.735,0.59,1.241,0.803c0.505,0.216,1.049,0.322,1.631,0.322
			c0.796,0,1.47-0.19,2.022-0.574c0.551-0.383,0.827-0.889,0.827-1.517c0-0.291-0.069-0.569-0.207-0.839
			c-0.138-0.268-0.333-0.518-0.586-0.747c-0.252-0.229-0.551-0.425-0.896-0.586c-0.345-0.16-0.724-0.271-1.137-0.333
			c-0.536-0.076-1.026-0.222-1.47-0.438c-0.444-0.213-0.827-0.471-1.149-0.77c-0.322-0.299-0.574-0.632-0.758-0.999
			c-0.184-0.368-0.275-0.751-0.275-1.149c0-0.428,0.103-0.821,0.31-1.183c0.207-0.358,0.486-0.666,0.838-0.919
			c0.352-0.253,0.758-0.447,1.218-0.586c0.46-0.138,0.95-0.207,1.471-0.207c0.72,0,1.397,0.135,2.033,0.402
			c0.635,0.268,1.153,0.607,1.551,1.021L75.294,89.315z"/>
		<path fill="#515DA9" d="M78.373,83.985c0-0.169,0.064-0.313,0.195-0.437c0.129-0.123,0.287-0.185,0.471-0.185
			c0.168,0,0.32,0.062,0.459,0.185c0.139,0.121,0.207,0.268,0.207,0.437s-0.068,0.313-0.207,0.437s-0.291,0.185-0.459,0.185
			c-0.184,0-0.342-0.062-0.471-0.185C78.438,84.298,78.373,84.154,78.373,83.985z M78.557,87.431h0.941l0.023,11.486h-0.942
			L78.557,87.431z"/>
		<path fill="#515DA9" d="M87.861,83.939c-0.107-0.031-0.238-0.046-0.391-0.046c-0.154,0-0.3,0-0.438,0
			c-0.337,0.015-0.65,0.106-0.941,0.274c-0.291,0.17-0.548,0.398-0.771,0.689s-0.395,0.628-0.518,1.012
			c-0.123,0.383-0.184,0.789-0.184,1.217v0.599h3.033v0.987h-3.033l0.023,10.246h-0.896c-0.016-1.285-0.023-2.558-0.023-3.813
			v-6.434h-1.746v-0.987h1.701c0.016,0,0.022-0.054,0.022-0.161c0-0.029-0.005-0.072-0.013-0.127
			c-0.008-0.053-0.01-0.104-0.01-0.148v-0.16v-0.275c0.028-0.521,0.137-1.016,0.32-1.482s0.425-0.877,0.725-1.229
			c0.299-0.352,0.646-0.632,1.045-0.838c0.397-0.207,0.818-0.311,1.264-0.311c0.199,0,0.387,0,0.563,0
			c0.178,0,0.357,0.016,0.541,0.045L87.861,83.939z"/>
		<path fill="#515DA9" d="M89.975,83.985c0-0.169,0.064-0.313,0.195-0.437c0.129-0.123,0.287-0.185,0.471-0.185
			c0.168,0,0.321,0.062,0.459,0.185c0.139,0.121,0.207,0.268,0.207,0.437s-0.068,0.313-0.207,0.437
			c-0.138,0.123-0.291,0.185-0.459,0.185c-0.184,0-0.342-0.062-0.471-0.185C90.039,84.298,89.975,84.154,89.975,83.985z
			 M90.158,87.431H91.1l0.023,11.486h-0.941L90.158,87.431z"/>
		<path fill="#515DA9" d="M98.223,98.183c0.244,0,0.502-0.026,0.771-0.08c0.269-0.055,0.534-0.123,0.804-0.207
			c0.268-0.084,0.523-0.176,0.77-0.275c0.246-0.099,0.461-0.195,0.645-0.287l0.391,0.851c-0.397,0.215-0.826,0.397-1.287,0.552
			c-0.459,0.153-0.948,0.275-1.471,0.367h-0.021c-0.092,0.016-0.188,0.023-0.287,0.023c-0.102,0-0.203,0-0.311,0
			c-0.645,0-1.244-0.143-1.805-0.426c-0.559-0.283-1.057-0.674-1.492-1.172c-0.438-0.498-0.789-1.08-1.058-1.746
			s-0.425-1.383-0.472-2.148v-0.437c0-0.812,0.123-1.577,0.367-2.298c0.246-0.72,0.575-1.348,0.988-1.884s0.896-0.961,1.447-1.274
			c0.552-0.313,1.141-0.472,1.77-0.472c0.645,0,1.24,0.149,1.793,0.448c0.551,0.299,1.028,0.707,1.436,1.229
			c0.406,0.521,0.724,1.135,0.953,1.84c0.229,0.703,0.346,1.469,0.346,2.297v0.551h-8.111c0.031,0.645,0.153,1.24,0.368,1.793
			c0.214,0.552,0.493,1.029,0.839,1.436c0.344,0.406,0.742,0.729,1.194,0.965C97.238,98.065,97.717,98.183,98.223,98.183z
			 M101.576,92.692c-0.047-0.612-0.172-1.19-0.379-1.733s-0.471-1.016-0.793-1.414c-0.321-0.396-0.689-0.711-1.104-0.94
			c-0.412-0.229-0.857-0.345-1.333-0.345c-0.459,0-0.896,0.113-1.309,0.345c-0.414,0.229-0.781,0.544-1.104,0.94
			c-0.32,0.398-0.586,0.871-0.793,1.414c-0.205,0.543-0.332,1.121-0.379,1.733H101.576z"/>
		<path fill="#515DA9" d="M108.699,88.304c-0.078-0.03-0.15-0.047-0.219-0.047c-0.069,0-0.144,0-0.219,0
			c-0.384,0-0.746,0.072-1.093,0.219c-0.344,0.146-0.653,0.35-0.931,0.609c-0.275,0.26-0.502,0.565-0.678,0.918
			c-0.176,0.354-0.295,0.735-0.354,1.148l0.022,7.766h-0.967l-0.021-10.385c0-0.26-0.012-0.506-0.034-0.734
			c-0.022-0.229-0.05-0.359-0.08-0.391h1.08v1.699c0.366-0.582,0.821-1.029,1.364-1.344c0.546-0.313,1.146-0.471,1.806-0.471
			c0.076,0,0.164,0.004,0.265,0.011c0.1,0.008,0.194,0.026,0.286,0.058L108.699,88.304z"/>
		<path fill="#515DA9" d="M117.43,89.315c-0.354-0.337-0.781-0.594-1.287-0.771c-0.506-0.176-1.041-0.265-1.606-0.265
			c-0.781,0-1.438,0.185-1.966,0.552c-0.528,0.367-0.793,0.844-0.793,1.426c0,0.275,0.068,0.543,0.207,0.804
			c0.138,0.261,0.332,0.502,0.586,0.724c0.252,0.223,0.556,0.41,0.906,0.563c0.354,0.153,0.736,0.261,1.15,0.321
			c0.52,0.076,1.002,0.223,1.447,0.438c0.443,0.215,0.826,0.471,1.148,0.77c0.321,0.299,0.569,0.637,0.745,1.012
			c0.177,0.376,0.265,0.77,0.265,1.184c0,0.459-0.101,0.873-0.297,1.24c-0.199,0.368-0.474,0.686-0.816,0.953
			c-0.344,0.27-0.744,0.477-1.195,0.621s-0.93,0.218-1.436,0.218c-0.721,0-1.412-0.13-2.08-0.392
			c-0.666-0.26-1.197-0.627-1.596-1.103l0.733-0.573c0.322,0.32,0.736,0.59,1.242,0.803c0.504,0.216,1.049,0.322,1.631,0.322
			c0.795,0,1.472-0.19,2.021-0.574c0.552-0.383,0.826-0.889,0.826-1.517c0-0.291-0.068-0.569-0.205-0.839
			c-0.139-0.268-0.334-0.518-0.586-0.747c-0.254-0.229-0.553-0.425-0.896-0.586c-0.347-0.16-0.726-0.271-1.138-0.333
			c-0.537-0.076-1.026-0.222-1.471-0.438c-0.445-0.213-0.828-0.471-1.148-0.77c-0.321-0.299-0.575-0.632-0.76-0.999
			c-0.184-0.368-0.274-0.751-0.274-1.149c0-0.428,0.104-0.821,0.312-1.183c0.207-0.358,0.485-0.666,0.838-0.919
			c0.354-0.253,0.76-0.447,1.219-0.586c0.459-0.138,0.949-0.207,1.471-0.207c0.719,0,1.396,0.135,2.033,0.402
			c0.635,0.268,1.152,0.607,1.551,1.021L117.43,89.315z"/>
	</g>
	<g>
		<g>
			<g>
				<path fill="#151530" d="M73.235,34.875c-0.177-0.176-0.422-0.278-0.671-0.278c-0.251,0-0.496,0.102-0.672,0.278
					c-0.177,0.177-0.279,0.421-0.279,0.671s0.102,0.496,0.279,0.672c0.177,0.177,0.421,0.278,0.672,0.278
					c0.25,0,0.494-0.102,0.671-0.278c0.177-0.176,0.278-0.421,0.278-0.672S73.412,35.052,73.235,34.875z"/>
			</g>
		</g>
		<g>
			<g>
				<path fill="#151530" d="M96.088,30.611c-1.781,0-3.23,1.45-3.23,3.23c0,0.545,0.137,1.059,0.376,1.51l-2.534,2.534H78.353
					c-0.525,0-0.95,0.425-0.95,0.95c0,0.525,0.425,0.95,0.95,0.95h12.74c0.252,0,0.494-0.1,0.672-0.278l2.812-2.812
					c0.451,0.24,0.965,0.377,1.512,0.377c1.78,0,3.229-1.449,3.229-3.23C99.317,32.06,97.868,30.611,96.088,30.611z M96.088,35.171
					c-0.734,0-1.331-0.597-1.331-1.331c0-0.733,0.597-1.33,1.331-1.33c0.732,0,1.329,0.597,1.329,1.33
					C97.417,34.575,96.82,35.171,96.088,35.171z"/>
			</g>
		</g>
		<g>
			<g>
				<path fill="#151530" d="M79.023,54.882c-0.177-0.176-0.422-0.277-0.671-0.277c-0.25,0-0.495,0.101-0.673,0.277
					c-0.177,0.178-0.277,0.422-0.277,0.672c0,0.25,0.101,0.494,0.277,0.672c0.178,0.176,0.423,0.278,0.673,0.278
					c0.249,0,0.494-0.102,0.671-0.278c0.177-0.177,0.278-0.422,0.278-0.672C79.302,55.304,79.2,55.059,79.023,54.882z"/>
			</g>
		</g>
		<g>
			<g>
				<path fill="#151530" d="M96.088,57.317c-0.547,0-1.061,0.136-1.512,0.376l-2.812-2.811c-0.178-0.178-0.42-0.278-0.672-0.278
					h-8.837c-0.524,0-0.949,0.425-0.949,0.95c0,0.525,0.425,0.95,0.949,0.95h8.443l2.533,2.533
					c-0.238,0.451-0.375,0.964-0.375,1.509c0,1.781,1.449,3.23,3.23,3.23c1.78,0,3.229-1.449,3.229-3.23
					C99.317,58.766,97.868,57.317,96.088,57.317z M96.088,61.876c-0.734,0-1.331-0.596-1.331-1.33c0-0.732,0.597-1.33,1.331-1.33
					c0.732,0,1.329,0.597,1.329,1.33C97.417,61.281,96.82,61.876,96.088,61.876z"/>
			</g>
		</g>
		<g>
			<g>
				<path fill="#151530" d="M90.958,65.054c-0.452,0-0.883,0.094-1.273,0.262l-2.889-5.269c-0.166-0.305-0.485-0.493-0.832-0.493
					H75.853c-0.525,0-0.95,0.426-0.95,0.949c0,0.525,0.425,0.95,0.95,0.95H85.4l2.813,5.13c-0.307,0.494-0.485,1.076-0.485,1.7
					c0,1.78,1.449,3.229,3.23,3.229s3.23-1.449,3.23-3.229S92.738,65.054,90.958,65.054z M90.958,69.614
					c-0.733,0-1.331-0.597-1.331-1.329c0-0.734,0.598-1.331,1.331-1.331c0.732,0,1.329,0.597,1.329,1.331
					C92.287,69.017,91.69,69.614,90.958,69.614z"/>
			</g>
		</g>
		<g>
			<g>
				<path fill="#151530" d="M90.958,22.872c-1.781,0-3.23,1.449-3.23,3.229c0,0.624,0.178,1.205,0.484,1.699l-2.809,5.091h-9.551
					c-0.525,0-0.95,0.425-0.95,0.95c0,0.525,0.425,0.95,0.95,0.95h10.111c0.346,0,0.664-0.188,0.831-0.491l2.888-5.231
					c0.391,0.168,0.822,0.263,1.275,0.263c1.781,0,3.23-1.449,3.23-3.23C94.188,24.32,92.738,22.872,90.958,22.872z M90.958,27.432
					c-0.733,0-1.331-0.597-1.331-1.331c0-0.733,0.598-1.33,1.331-1.33c0.732,0,1.329,0.597,1.329,1.33
					C92.287,26.835,91.69,27.432,90.958,27.432z"/>
			</g>
		</g>
		<g>
			<g>
				<path fill="#151530" d="M96.088,43.978c-1.451,0-2.682,0.961-3.088,2.28H73.513v-6.373c0-0.524-0.425-0.95-0.95-0.95
					c-0.525,0-0.95,0.426-0.95,0.95v7.296c0,0.009-0.001,0.018-0.001,0.026c0,0.009,0.001,0.018,0.001,0.027v15.911
					c0,2.31-1.879,4.188-4.188,4.188c-1.656,0-3.16-0.979-3.831-2.493l-0.041-0.093c0.982-0.416,1.863-1.058,2.565-1.885
					c0.206,0.047,0.42,0.072,0.639,0.072c1.572,0,2.851-1.277,2.851-2.85c0-1.571-1.279-2.85-2.851-2.85
					c-1.571,0-2.85,1.279-2.85,2.85c0,0.652,0.221,1.254,0.591,1.735c-0.934,0.993-2.241,1.569-3.625,1.569
					c-2.746,0-4.979-2.232-4.979-4.979c0-1.052,0.32-2.047,0.927-2.893c0.671-0.152,1.306-0.442,1.862-0.848
					c0.563,0.408,1.253,0.648,2,0.648c1.886,0,3.42-1.534,3.42-3.42c0-1.885-1.534-3.42-3.42-3.42s-3.42,1.535-3.42,3.42
					c0,0.452,0.089,0.883,0.249,1.278c-0.523,0.369-1.146,0.568-1.802,0.568c-1.729,0-3.135-1.407-3.135-3.135v-9.502
					c0-1.729,1.406-3.135,3.135-3.135c1.472,0,2.71,1.02,3.045,2.39c-1.059,0.417-1.81,1.448-1.81,2.652
					c0,1.571,1.278,2.85,2.85,2.85s2.85-1.279,2.85-2.85c0-1.263-0.825-2.335-1.964-2.708c-0.268-1.668-1.357-3.064-2.839-3.76
					c-0.434-0.535-0.672-1.2-0.672-1.894c0-1.659,1.349-3.007,3.008-3.007c0.43,0,0.85,0.091,1.236,0.266
					c0.071,0.874,0.395,1.697,0.934,2.385c-0.123,0.342-0.191,0.709-0.191,1.093c0,1.781,1.449,3.23,3.23,3.23
					c1.781,0,3.229-1.449,3.229-3.23s-1.449-3.23-3.229-3.23c-0.669,0-1.292,0.205-1.808,0.554
					c-0.184-0.359-0.282-0.758-0.282-1.172v-0.336c0-2.292,1.864-4.157,4.156-4.157s4.156,1.864,4.156,4.157
					c0,0.524,0.425,0.95,0.95,0.95s0.95-0.425,0.95-0.95c0-3.34-2.716-6.057-6.056-6.057c-2.904,0-5.336,2.054-5.921,4.786
					c-0.438-0.126-0.893-0.191-1.355-0.191c-2.706,0-4.908,2.202-4.908,4.908c0,0.488,0.073,0.967,0.212,1.424
					c-2.67,0.12-4.807,2.33-4.807,5.029v9.502c0,2.405,1.696,4.421,3.955,4.917c-0.415,0.899-0.636,1.885-0.636,2.884
					c0,3.793,3.086,6.879,6.879,6.879c0.276,0,0.549-0.018,0.819-0.049l0.163,0.367c0.975,2.201,3.16,3.625,5.567,3.625
					c3.357,0,6.088-2.732,6.088-6.089V48.157H93c0.406,1.319,1.637,2.28,3.088,2.28c1.78,0,3.229-1.449,3.229-3.23
					C99.317,45.426,97.868,43.978,96.088,43.978z M66.759,59.135c0.524,0,0.95,0.427,0.95,0.95s-0.426,0.949-0.95,0.949
					c-0.523,0-0.95-0.426-0.95-0.949S66.236,59.135,66.759,59.135z M60.686,50.379c0.838,0,1.52,0.682,1.52,1.52
					s-0.682,1.52-1.52,1.52s-1.521-0.682-1.521-1.52S59.848,50.379,60.686,50.379z M59.798,42.066c0.524,0,0.95,0.426,0.95,0.95
					c0,0.524-0.426,0.95-0.95,0.95c-0.523,0-0.95-0.426-0.95-0.95C58.848,42.493,59.274,42.066,59.798,42.066z M65.39,34.062
					c0.733,0,1.33,0.597,1.33,1.33s-0.597,1.33-1.33,1.33s-1.33-0.597-1.33-1.33S64.657,34.062,65.39,34.062z M96.088,48.538
					c-0.734,0-1.331-0.597-1.331-1.33c0-0.733,0.597-1.33,1.331-1.33c0.732,0,1.329,0.597,1.329,1.33
					C97.417,47.941,96.82,48.538,96.088,48.538z"/>
			</g>
		</g>
	</g>
</g>
</svg>
