<?xml version="1.0" encoding="utf-8"?>
<!-- Generator: Adobe Illustrator 16.0.0, SVG Export Plug-In . SVG Version: 6.00 Build 0)  -->
<!DOCTYPE svg PUBLIC "-//W3C//DTD SVG 1.1//EN" "http://www.w3.org/Graphics/SVG/1.1/DTD/svg11.dtd">
<svg version="1.1" id="Layer_1" xmlns="http://www.w3.org/2000/svg" xmlns:xlink="http://www.w3.org/1999/xlink" x="0px" y="0px"
	 width="180px" height="110.333px" viewBox="-15 0 180 110.333" enable-background="new -15 0 180 110.333" xml:space="preserve">
<g>
	<path fill="#FFFFFF" d="M130.424,54.335c0,29.458-23.875,53.334-53.334,53.334S23.755,83.792,23.755,54.335
		C23.755,24.877,47.631,1,77.09,1S130.424,24.877,130.424,54.335z"/>
	<g enable-background="new    ">
		<path fill="#515DA9" d="M53.928,87.584v-0.046c-0.38-0.39-0.813-0.696-1.299-0.922c-0.486-0.226-1.007-0.339-1.56-0.339
			c-0.574,0-1.112,0.123-1.614,0.37c-0.502,0.245-0.943,0.584-1.322,1.015c-0.379,0.43-0.679,0.932-0.899,1.505
			c-0.22,0.574-0.33,1.189-0.33,1.846c0,0.645,0.105,1.258,0.315,1.836c0.21,0.579,0.5,1.086,0.869,1.521
			c0.368,0.435,0.807,0.781,1.313,1.037s1.063,0.385,1.668,0.385c0.553,0,1.065-0.11,1.536-0.331
			c0.472-0.22,0.902-0.524,1.291-0.915l0.43,0.432c-0.43,0.461-0.922,0.822-1.476,1.083c-0.554,0.263-1.147,0.392-1.783,0.392
			c-0.635,0-1.242-0.144-1.821-0.43c-0.58-0.287-1.091-0.677-1.537-1.168c-0.445-0.492-0.802-1.068-1.068-1.729
			c-0.266-0.66-0.399-1.365-0.399-2.112c0-0.718,0.125-1.401,0.376-2.051c0.251-0.651,0.594-1.223,1.03-1.715
			c0.436-0.49,0.945-0.882,1.529-1.176c0.584-0.293,1.214-0.437,1.891-0.437c0.635,0,1.237,0.129,1.806,0.392
			c0.569,0.262,1.063,0.623,1.483,1.083L53.928,87.584z"/>
		<path fill="#515DA9" d="M55.865,85.694h0.646l0.015,10.619H55.88L55.865,85.694z"/>
		<path fill="#515DA9" d="M62.304,95.7c-0.236,0.236-0.512,0.423-0.83,0.562c-0.318,0.137-0.661,0.208-1.03,0.208
			c-0.338,0-0.658-0.062-0.96-0.184c-0.302-0.124-0.564-0.29-0.784-0.5c-0.221-0.21-0.397-0.456-0.53-0.738
			c-0.133-0.281-0.2-0.581-0.2-0.899c0-0.339,0.07-0.651,0.208-0.937c0.138-0.287,0.325-0.536,0.561-0.744
			c0.235-0.211,0.51-0.373,0.822-0.485c0.312-0.113,0.643-0.17,0.991-0.17h1.752v-0.338c0-0.308-0.039-0.6-0.115-0.877
			s-0.187-0.517-0.33-0.723c-0.144-0.205-0.315-0.368-0.515-0.49c-0.2-0.125-0.423-0.189-0.669-0.2h-0.015
			c-0.667,0-1.261,0.075-1.783,0.23L58.723,88.8c0.604-0.176,1.249-0.262,1.937-0.262h0.015c0.297,0.01,0.579,0.083,0.846,0.222
			c0.266,0.139,0.501,0.325,0.707,0.561c0.205,0.237,0.371,0.514,0.5,0.831c0.128,0.318,0.202,0.655,0.223,1.015v0.153
			c-0.01,0.256-0.015,0.527-0.015,0.813c-0.01,0.246-0.015,0.525-0.015,0.838c0,0.314,0,0.628,0,0.946
			c0,0.296,0.002,0.584,0.008,0.859c0.005,0.277,0.013,0.527,0.022,0.754c0.01,0.225,0.024,0.407,0.039,0.545
			c0.015,0.139,0.033,0.218,0.054,0.237H62.32L62.304,95.7z M62.304,92.441h-1.752c-0.266,0-0.515,0.041-0.745,0.123
			c-0.231,0.082-0.433,0.197-0.607,0.346c-0.175,0.149-0.313,0.328-0.415,0.539c-0.102,0.209-0.154,0.442-0.154,0.699
			c0,0.237,0.046,0.454,0.139,0.653c0.092,0.2,0.22,0.375,0.384,0.523c0.164,0.148,0.355,0.265,0.576,0.353
			c0.22,0.087,0.458,0.131,0.714,0.131s0.497-0.044,0.723-0.131c0.226-0.088,0.423-0.205,0.592-0.353
			c0.168-0.15,0.302-0.323,0.399-0.523c0.098-0.199,0.146-0.416,0.146-0.653V92.441z"/>
		<path fill="#515DA9" d="M68.82,89.89c-0.236-0.226-0.522-0.397-0.861-0.516s-0.697-0.178-1.076-0.178
			c-0.522,0-0.961,0.124-1.314,0.369s-0.53,0.564-0.53,0.954c0,0.184,0.046,0.363,0.139,0.538c0.092,0.174,0.223,0.336,0.392,0.483
			c0.169,0.149,0.371,0.274,0.607,0.377c0.235,0.103,0.492,0.175,0.769,0.215c0.349,0.052,0.671,0.149,0.968,0.293
			c0.297,0.144,0.553,0.315,0.769,0.515c0.215,0.201,0.381,0.427,0.5,0.678c0.118,0.251,0.176,0.516,0.176,0.792
			c0,0.307-0.067,0.584-0.2,0.829c-0.133,0.246-0.315,0.46-0.545,0.638c-0.23,0.181-0.497,0.319-0.799,0.416
			s-0.623,0.146-0.96,0.146c-0.481,0-0.945-0.087-1.391-0.263c-0.446-0.174-0.802-0.42-1.068-0.737l0.492-0.384
			c0.215,0.214,0.491,0.395,0.83,0.537c0.338,0.145,0.702,0.216,1.091,0.216c0.533,0,0.983-0.127,1.353-0.385
			c0.369-0.256,0.554-0.595,0.554-1.015c0-0.194-0.046-0.381-0.139-0.561s-0.223-0.347-0.392-0.5
			c-0.169-0.153-0.369-0.284-0.599-0.392c-0.231-0.107-0.484-0.182-0.761-0.223c-0.359-0.052-0.687-0.148-0.983-0.293
			c-0.297-0.143-0.553-0.315-0.769-0.516s-0.384-0.423-0.507-0.668c-0.123-0.246-0.184-0.503-0.184-0.769
			c0-0.286,0.069-0.55,0.208-0.792c0.138-0.239,0.325-0.445,0.56-0.614c0.236-0.169,0.507-0.299,0.815-0.393
			c0.308-0.092,0.636-0.138,0.984-0.138c0.481,0,0.935,0.091,1.36,0.269c0.425,0.18,0.771,0.406,1.038,0.683L68.82,89.89z"/>
		<path fill="#515DA9" d="M75.229,89.89c-0.236-0.226-0.522-0.397-0.861-0.516s-0.697-0.178-1.076-0.178
			c-0.522,0-0.961,0.124-1.314,0.369s-0.53,0.564-0.53,0.954c0,0.184,0.046,0.363,0.139,0.538c0.092,0.174,0.223,0.336,0.392,0.483
			c0.169,0.149,0.371,0.274,0.607,0.377c0.235,0.103,0.492,0.175,0.769,0.215c0.349,0.052,0.671,0.149,0.968,0.293
			s0.553,0.315,0.769,0.515c0.215,0.201,0.382,0.427,0.5,0.678c0.117,0.251,0.176,0.516,0.176,0.792
			c0,0.307-0.066,0.584-0.199,0.829c-0.134,0.246-0.314,0.46-0.545,0.638c-0.23,0.181-0.497,0.319-0.799,0.416
			c-0.303,0.097-0.623,0.146-0.96,0.146c-0.482,0-0.945-0.087-1.391-0.263c-0.446-0.174-0.802-0.42-1.068-0.737l0.492-0.384
			c0.215,0.214,0.491,0.395,0.83,0.537c0.338,0.145,0.702,0.216,1.091,0.216c0.533,0,0.983-0.127,1.353-0.385
			c0.369-0.256,0.553-0.595,0.553-1.015c0-0.194-0.046-0.381-0.138-0.561s-0.223-0.347-0.393-0.5
			c-0.168-0.153-0.368-0.284-0.599-0.392c-0.23-0.107-0.484-0.182-0.76-0.223c-0.359-0.052-0.687-0.148-0.983-0.293
			c-0.297-0.143-0.553-0.315-0.769-0.516s-0.384-0.423-0.507-0.668c-0.123-0.246-0.184-0.503-0.184-0.769
			c0-0.286,0.069-0.55,0.208-0.792c0.138-0.239,0.325-0.445,0.561-0.614s0.507-0.299,0.815-0.393
			c0.308-0.092,0.635-0.138,0.984-0.138c0.481,0,0.935,0.091,1.36,0.269c0.425,0.18,0.771,0.406,1.038,0.683L75.229,89.89z"/>
		<path fill="#515DA9" d="M77.289,86.325c0-0.113,0.043-0.21,0.13-0.292c0.087-0.083,0.192-0.125,0.315-0.125
			c0.112,0,0.214,0.042,0.307,0.125c0.093,0.08,0.139,0.179,0.139,0.292c0,0.112-0.046,0.209-0.139,0.292s-0.194,0.124-0.307,0.124
			c-0.123,0-0.229-0.042-0.315-0.124C77.332,86.534,77.289,86.437,77.289,86.325z M77.411,88.629h0.63l0.016,7.684h-0.63
			L77.411,88.629z"/>
		<path fill="#515DA9" d="M83.636,86.293c-0.072-0.021-0.159-0.03-0.262-0.03s-0.201,0-0.293,0c-0.226,0.01-0.435,0.071-0.63,0.184
			c-0.194,0.113-0.366,0.266-0.516,0.46c-0.148,0.195-0.264,0.42-0.347,0.678c-0.081,0.256-0.122,0.527-0.122,0.813v0.4h2.028v0.661
			h-2.028l0.015,6.854h-0.6c-0.011-0.859-0.015-1.711-0.015-2.551v-4.305h-1.168v-0.659h1.138c0.011,0,0.015-0.037,0.015-0.108
			c0-0.019-0.004-0.047-0.009-0.085c-0.006-0.035-0.007-0.069-0.007-0.099V88.4v-0.185c0.019-0.349,0.092-0.68,0.214-0.991
			c0.123-0.312,0.284-0.587,0.485-0.822c0.199-0.235,0.433-0.423,0.699-0.561c0.266-0.139,0.547-0.208,0.845-0.208
			c0.134,0,0.26,0,0.377,0c0.12,0,0.239,0.011,0.362,0.03L83.636,86.293z"/>
		<path fill="#515DA9" d="M85.05,86.325c0-0.113,0.043-0.21,0.13-0.292c0.087-0.083,0.192-0.125,0.315-0.125
			c0.112,0,0.215,0.042,0.307,0.125c0.093,0.08,0.139,0.179,0.139,0.292c0,0.112-0.046,0.209-0.139,0.292
			c-0.092,0.082-0.194,0.124-0.307,0.124c-0.123,0-0.229-0.042-0.315-0.124C85.093,86.534,85.05,86.437,85.05,86.325z
			 M85.172,88.629h0.63l0.016,7.684h-0.63L85.172,88.629z"/>
		<path fill="#515DA9" d="M90.566,95.822c0.164,0,0.336-0.018,0.517-0.054s0.356-0.082,0.538-0.138
			c0.179-0.057,0.349-0.118,0.515-0.185c0.165-0.066,0.309-0.13,0.432-0.192l0.261,0.57c-0.265,0.144-0.553,0.265-0.86,0.369
			c-0.308,0.103-0.634,0.184-0.984,0.245H90.97c-0.062,0.011-0.126,0.015-0.191,0.015c-0.069,0-0.137,0-0.209,0
			c-0.431,0-0.832-0.095-1.207-0.284c-0.374-0.189-0.707-0.451-0.998-0.784c-0.293-0.333-0.528-0.723-0.708-1.168
			s-0.284-0.925-0.315-1.437v-0.293c0-0.543,0.083-1.055,0.246-1.537c0.164-0.481,0.384-0.901,0.66-1.26s0.6-0.643,0.968-0.853
			c0.369-0.209,0.764-0.315,1.185-0.315c0.432,0,0.829,0.1,1.199,0.3c0.369,0.2,0.688,0.473,0.961,0.821
			c0.271,0.35,0.483,0.76,0.638,1.231c0.152,0.47,0.23,0.982,0.23,1.536v0.369h-5.426c0.021,0.432,0.103,0.829,0.246,1.199
			c0.144,0.369,0.33,0.688,0.562,0.961c0.23,0.271,0.496,0.487,0.799,0.646C89.908,95.743,90.229,95.822,90.566,95.822z
			 M92.811,92.149c-0.031-0.41-0.115-0.797-0.254-1.16c-0.139-0.362-0.314-0.679-0.53-0.945c-0.215-0.265-0.461-0.476-0.739-0.629
			c-0.274-0.152-0.572-0.23-0.892-0.23c-0.307,0-0.6,0.075-0.875,0.23c-0.277,0.153-0.522,0.364-0.738,0.629
			c-0.214,0.267-0.393,0.583-0.53,0.945c-0.138,0.363-0.223,0.75-0.254,1.16H92.811z"/>
		<path fill="#515DA9" d="M97.575,89.213c-0.053-0.02-0.101-0.031-0.146-0.031s-0.097,0-0.146,0c-0.257,0-0.499,0.049-0.731,0.146
			c-0.229,0.098-0.437,0.233-0.623,0.407c-0.184,0.174-0.336,0.378-0.453,0.614c-0.118,0.236-0.197,0.491-0.237,0.768l0.015,5.195
			h-0.646l-0.015-6.947c0-0.174-0.008-0.338-0.022-0.49c-0.014-0.153-0.033-0.24-0.053-0.262h0.722v1.136
			c0.245-0.389,0.549-0.688,0.912-0.898c0.366-0.21,0.768-0.315,1.209-0.315c0.051,0,0.109,0.003,0.178,0.008
			c0.066,0.005,0.129,0.017,0.19,0.038L97.575,89.213z"/>
		<path fill="#515DA9" d="M103.415,89.89c-0.236-0.226-0.522-0.397-0.86-0.516c-0.339-0.118-0.697-0.178-1.074-0.178
			c-0.522,0-0.962,0.124-1.315,0.369s-0.531,0.564-0.531,0.954c0,0.184,0.046,0.363,0.139,0.538
			c0.093,0.174,0.223,0.336,0.393,0.483c0.168,0.149,0.372,0.274,0.605,0.377c0.237,0.103,0.493,0.175,0.77,0.215
			c0.348,0.052,0.671,0.149,0.969,0.293c0.296,0.144,0.553,0.315,0.768,0.515c0.215,0.201,0.381,0.427,0.498,0.678
			c0.119,0.251,0.178,0.516,0.178,0.792c0,0.307-0.067,0.584-0.198,0.829c-0.134,0.246-0.317,0.46-0.547,0.638
			c-0.229,0.181-0.497,0.319-0.799,0.416c-0.302,0.096-0.622,0.146-0.961,0.146c-0.481,0-0.944-0.087-1.391-0.263
			c-0.446-0.174-0.802-0.42-1.068-0.737l0.49-0.384c0.216,0.214,0.493,0.395,0.831,0.537c0.337,0.145,0.702,0.216,1.091,0.216
			c0.532,0,0.985-0.127,1.353-0.385c0.369-0.256,0.553-0.595,0.553-1.015c0-0.194-0.046-0.381-0.138-0.561
			c-0.093-0.18-0.223-0.347-0.392-0.5c-0.17-0.153-0.37-0.284-0.6-0.392c-0.232-0.107-0.486-0.182-0.762-0.223
			c-0.359-0.052-0.686-0.148-0.983-0.293c-0.299-0.143-0.555-0.315-0.769-0.516c-0.215-0.2-0.385-0.423-0.509-0.668
			c-0.122-0.246-0.183-0.503-0.183-0.769c0-0.286,0.069-0.55,0.209-0.792c0.139-0.239,0.324-0.445,0.561-0.614
			s0.509-0.299,0.815-0.393c0.307-0.092,0.635-0.138,0.983-0.138c0.481,0,0.935,0.091,1.36,0.269
			c0.425,0.18,0.771,0.406,1.037,0.683L103.415,89.89z"/>
	</g>
	<g>
		<g>
			<g>
				<path fill="#151530" d="M73.235,34.875c-0.177-0.176-0.422-0.278-0.671-0.278c-0.251,0-0.496,0.102-0.672,0.278
					c-0.177,0.177-0.279,0.421-0.279,0.671s0.102,0.496,0.279,0.672c0.177,0.177,0.421,0.278,0.672,0.278
					c0.25,0,0.494-0.102,0.671-0.278c0.177-0.176,0.278-0.421,0.278-0.672S73.412,35.052,73.235,34.875z"/>
			</g>
		</g>
		<g>
			<g>
				<path fill="#151530" d="M96.088,30.611c-1.781,0-3.23,1.45-3.23,3.23c0,0.545,0.138,1.059,0.377,1.51L90.7,37.885H78.354
					c-0.525,0-0.951,0.425-0.951,0.95s0.426,0.95,0.951,0.95h12.739c0.253,0,0.494-0.1,0.673-0.278l2.812-2.812
					c0.45,0.24,0.965,0.377,1.512,0.377c1.78,0,3.229-1.449,3.229-3.23C99.316,32.06,97.868,30.611,96.088,30.611z M96.088,35.171
					c-0.734,0-1.331-0.597-1.331-1.331c0-0.733,0.597-1.33,1.331-1.33c0.732,0,1.329,0.597,1.329,1.33
					C97.417,34.575,96.82,35.171,96.088,35.171z"/>
			</g>
		</g>
		<g>
			<g>
				<path fill="#151530" d="M79.023,54.882c-0.178-0.176-0.422-0.277-0.672-0.277s-0.494,0.101-0.672,0.277
					c-0.178,0.178-0.277,0.422-0.277,0.672s0.101,0.494,0.277,0.672c0.178,0.176,0.422,0.278,0.672,0.278s0.494-0.102,0.672-0.278
					c0.177-0.177,0.277-0.422,0.277-0.672C79.303,55.304,79.2,55.059,79.023,54.882z"/>
			</g>
		</g>
		<g>
			<g>
				<path fill="#151530" d="M96.088,57.317c-0.547,0-1.061,0.136-1.512,0.376l-2.813-2.811c-0.178-0.178-0.42-0.278-0.672-0.278
					h-8.837c-0.524,0-0.948,0.425-0.948,0.95c0,0.525,0.424,0.95,0.948,0.95h8.443l2.532,2.533
					c-0.237,0.451-0.375,0.964-0.375,1.509c0,1.781,1.449,3.23,3.23,3.23c1.78,0,3.229-1.449,3.229-3.23
					C99.316,58.766,97.868,57.317,96.088,57.317z M96.088,61.876c-0.734,0-1.331-0.596-1.331-1.33c0-0.732,0.597-1.33,1.331-1.33
					c0.732,0,1.329,0.597,1.329,1.33C97.417,61.281,96.82,61.876,96.088,61.876z"/>
			</g>
		</g>
		<g>
			<g>
				<path fill="#151530" d="M90.958,65.054c-0.452,0-0.883,0.094-1.272,0.262l-2.89-5.269c-0.166-0.305-0.485-0.493-0.832-0.493
					h-10.11c-0.525,0-0.951,0.426-0.951,0.949c0,0.525,0.425,0.95,0.951,0.95H85.4l2.813,5.13c-0.307,0.494-0.484,1.076-0.484,1.699
					c0,1.78,1.449,3.229,3.229,3.229s3.229-1.449,3.229-3.229C94.188,66.503,92.738,65.054,90.958,65.054z M90.958,69.614
					c-0.733,0-1.331-0.597-1.331-1.329c0-0.733,0.598-1.33,1.331-1.33c0.731,0,1.329,0.597,1.329,1.33
					C92.287,69.017,91.689,69.614,90.958,69.614z"/>
			</g>
		</g>
		<g>
			<g>
				<path fill="#151530" d="M90.958,22.872c-1.78,0-3.229,1.449-3.229,3.229c0,0.624,0.178,1.205,0.483,1.699l-2.81,5.091h-9.551
					c-0.524,0-0.95,0.425-0.95,0.95c0,0.525,0.425,0.95,0.95,0.95h10.111c0.346,0,0.664-0.188,0.831-0.491l2.888-5.231
					c0.391,0.168,0.822,0.263,1.275,0.263c1.781,0,3.23-1.449,3.23-3.23C94.188,24.32,92.738,22.872,90.958,22.872z M90.958,27.432
					c-0.733,0-1.331-0.597-1.331-1.331c0-0.733,0.598-1.33,1.331-1.33c0.731,0,1.329,0.597,1.329,1.33
					C92.287,26.835,91.689,27.432,90.958,27.432z"/>
			</g>
		</g>
		<g>
			<g>
				<path fill="#151530" d="M96.088,43.978c-1.451,0-2.682,0.961-3.088,2.28H73.513v-6.373c0-0.524-0.425-0.95-0.95-0.95
					s-0.95,0.426-0.95,0.95v7.296c0,0.009-0.001,0.018-0.001,0.026c0,0.009,0.001,0.018,0.001,0.027v15.911
					c0,2.31-1.879,4.188-4.188,4.188c-1.656,0-3.16-0.979-3.831-2.494l-0.041-0.092c0.982-0.417,1.863-1.059,2.565-1.886
					c0.206,0.047,0.42,0.072,0.639,0.072c1.572,0,2.851-1.277,2.851-2.85c0-1.571-1.279-2.85-2.851-2.85
					c-1.571,0-2.85,1.279-2.85,2.85c0,0.652,0.221,1.254,0.591,1.735c-0.934,0.993-2.241,1.569-3.625,1.569
					c-2.746,0-4.979-2.232-4.979-4.979c0-1.052,0.32-2.047,0.927-2.893c0.671-0.152,1.306-0.442,1.862-0.848
					c0.563,0.408,1.253,0.648,2,0.648c1.886,0,3.42-1.534,3.42-3.42c0-1.885-1.534-3.42-3.42-3.42c-1.886,0-3.42,1.535-3.42,3.42
					c0,0.452,0.089,0.883,0.249,1.278c-0.523,0.369-1.146,0.568-1.802,0.568c-1.729,0-3.135-1.407-3.135-3.135v-9.502
					c0-1.729,1.406-3.135,3.135-3.135c1.472,0,2.71,1.02,3.045,2.39c-1.059,0.417-1.81,1.448-1.81,2.652
					c0,1.571,1.278,2.85,2.85,2.85c1.572,0,2.85-1.279,2.85-2.85c0-1.263-0.825-2.335-1.964-2.708
					c-0.268-1.668-1.357-3.064-2.839-3.76c-0.434-0.535-0.672-1.2-0.672-1.894c0-1.659,1.349-3.007,3.008-3.007
					c0.43,0,0.85,0.091,1.236,0.266c0.071,0.874,0.395,1.697,0.934,2.385c-0.123,0.342-0.191,0.709-0.191,1.093
					c0,1.781,1.449,3.23,3.23,3.23c1.781,0,3.229-1.449,3.229-3.23c0-1.781-1.449-3.23-3.229-3.23c-0.669,0-1.292,0.205-1.808,0.554
					c-0.184-0.359-0.282-0.758-0.282-1.172v-0.336c0-2.292,1.864-4.157,4.156-4.157s4.156,1.864,4.156,4.157
					c0,0.524,0.425,0.95,0.95,0.95s0.95-0.425,0.95-0.95c0-3.34-2.716-6.057-6.056-6.057c-2.904,0-5.336,2.054-5.921,4.786
					c-0.438-0.126-0.893-0.191-1.355-0.191c-2.706,0-4.908,2.202-4.908,4.908c0,0.488,0.073,0.967,0.212,1.424
					c-2.67,0.12-4.807,2.33-4.807,5.029v9.502c0,2.405,1.696,4.421,3.955,4.917c-0.415,0.899-0.636,1.885-0.636,2.884
					c0,3.793,3.086,6.88,6.879,6.88c0.276,0,0.549-0.019,0.819-0.05l0.163,0.367c0.975,2.201,3.16,3.625,5.567,3.625
					c3.357,0,6.088-2.731,6.088-6.089V48.157H93c0.406,1.319,1.637,2.28,3.088,2.28c1.78,0,3.229-1.449,3.229-3.23
					S97.868,43.978,96.088,43.978z M66.759,59.135c0.524,0,0.95,0.427,0.95,0.95s-0.426,0.949-0.95,0.949
					c-0.523,0-0.95-0.426-0.95-0.949S66.236,59.135,66.759,59.135z M60.686,50.379c0.838,0,1.52,0.682,1.52,1.52
					s-0.682,1.52-1.52,1.52s-1.521-0.682-1.521-1.52S59.848,50.379,60.686,50.379z M59.798,42.066c0.524,0,0.95,0.426,0.95,0.95
					s-0.426,0.95-0.95,0.95c-0.523,0-0.95-0.426-0.95-0.95C58.848,42.493,59.274,42.066,59.798,42.066z M65.39,34.062
					c0.733,0,1.33,0.597,1.33,1.33s-0.597,1.33-1.33,1.33s-1.33-0.597-1.33-1.33S64.657,34.062,65.39,34.062z M96.088,48.538
					c-0.734,0-1.331-0.597-1.331-1.33s0.597-1.33,1.331-1.33c0.732,0,1.329,0.597,1.329,1.33S96.82,48.538,96.088,48.538z"/>
			</g>
		</g>
	</g>
</g>
</svg>
