<?xml version="1.0" encoding="utf-8"?>
<!-- Generator: Adobe Illustrator 16.0.0, SVG Export Plug-In . SVG Version: 6.00 Build 0)  -->
<!DOCTYPE svg PUBLIC "-//W3C//DTD SVG 1.1//EN" "http://www.w3.org/Graphics/SVG/1.1/DTD/svg11.dtd">
<svg version="1.1" id="Layer_1" xmlns="http://www.w3.org/2000/svg" xmlns:xlink="http://www.w3.org/1999/xlink" x="0px" y="0px"
	 width="100px" height="100px" viewBox="0 0 100 100" enable-background="new 0 0 100 100" xml:space="preserve">
<circle fill="#FFFFFF" cx="50" cy="50" r="50"/>
<circle fill="#E6E7E8" cx="50" cy="50" r="42.276"/>
<g>
	<path fill="#8E0404" d="M32.333,32.333c0,0,0.705,0.399,1.868,1.168c1.167,0.765,2.79,1.903,4.672,3.333
		c1.877,1.436,4.002,3.175,6.203,5.116c1.102,0.969,2.224,1.985,3.341,3.042c1.126,1.047,2.236,2.146,3.351,3.24
		c1.094,1.114,2.195,2.221,3.242,3.348c1.062,1.112,2.073,2.24,3.045,3.338c1.942,2.199,3.681,4.325,5.116,6.202
		c1.437,1.876,2.568,3.505,3.329,4.676c0.77,1.164,1.167,1.87,1.167,1.87s-0.706-0.397-1.87-1.167
		c-1.171-0.761-2.8-1.893-4.676-3.329c-1.877-1.436-4.003-3.174-6.202-5.116c-1.098-0.972-2.226-1.983-3.339-3.044
		c-1.126-1.048-2.233-2.148-3.347-3.243c-1.094-1.114-2.193-2.224-3.24-3.351c-1.058-1.116-2.074-2.239-3.043-3.341
		c-1.941-2.2-3.68-4.325-5.115-6.202c-1.43-1.883-2.568-3.505-3.333-4.672C32.732,33.039,32.333,32.333,32.333,32.333z"/>
</g>
<g>
	<path fill="#8E0404" d="M67.667,32.333c0,0-0.398,0.706-1.169,1.868c-0.765,1.167-1.902,2.79-3.332,4.672
		c-1.436,1.877-3.175,4.002-5.116,6.202c-0.969,1.102-1.985,2.225-3.042,3.341c-1.048,1.126-2.146,2.236-3.24,3.351
		c-1.114,1.095-2.221,2.195-3.348,3.243c-1.113,1.061-2.24,2.072-3.339,3.044c-2.199,1.942-4.324,3.681-6.202,5.116
		c-1.875,1.437-3.504,2.568-4.675,3.329c-1.164,0.77-1.87,1.167-1.87,1.167s0.398-0.706,1.167-1.87
		c0.761-1.171,1.893-2.8,3.33-4.676c1.435-1.877,3.174-4.003,5.116-6.202c0.972-1.098,1.983-2.226,3.044-3.338
		c1.047-1.127,2.148-2.234,3.243-3.348c1.114-1.094,2.224-2.193,3.35-3.24c1.116-1.057,2.239-2.074,3.341-3.042
		c2.2-1.941,4.325-3.68,6.202-5.116c1.883-1.43,3.506-2.567,4.673-3.333C66.962,32.732,67.667,32.333,67.667,32.333z"/>
</g>
</svg>
