<?xml version="1.0" encoding="utf-8"?>
<!-- Generator: Adobe Illustrator 16.0.0, SVG Export Plug-In . SVG Version: 6.00 Build 0)  -->
<!DOCTYPE svg PUBLIC "-//W3C//DTD SVG 1.1//EN" "http://www.w3.org/Graphics/SVG/1.1/DTD/svg11.dtd">
<svg version="1.1" id="Layer_1" xmlns="http://www.w3.org/2000/svg" xmlns:xlink="http://www.w3.org/1999/xlink" x="0px" y="0px"
	 width="100px" height="100px" viewBox="0 0 100 100" enable-background="new 0 0 100 100" xml:space="preserve">
<circle fill="#FFFFFF" cx="50" cy="50" r="50"/>
<circle fill="#E6E7E8" cx="50" cy="50" r="42.276"/>
<g>
	<circle fill="#5ACAEA" cx="41.026" cy="35.645" r="6.928"/>
	<path fill="#5ACAEA" d="M54.521,53.111H27.534c0-5.816,6.045-10.539,13.491-10.539C48.474,42.573,54.521,47.295,54.521,53.111z"/>
</g>
<g>
	<g>
		<line fill="#5ACAEA" x1="73.204" y1="42.573" x2="54.389" y2="61.389"/>
		<path fill="#5ACAEA" d="M73.274,42.644c0,0-1.104,1.249-2.759,3.121c-1.649,1.878-3.912,4.319-6.153,6.782
			c-1.129,1.223-2.194,2.51-3.284,3.625c-1.104,1.1-2.206,2.056-3.184,2.843c-1.941,1.586-3.436,2.444-3.436,2.444l-0.141-0.141
			c0,0,0.858-1.494,2.444-3.436c0.787-0.978,1.743-2.079,2.843-3.184c1.115-1.09,2.402-2.155,3.625-3.284
			c2.463-2.241,4.903-4.504,6.782-6.154c1.872-1.655,3.121-2.759,3.121-2.759L73.274,42.644z"/>
	</g>
	
		<rect x="53.909" y="60.111" transform="matrix(-0.7071 -0.7071 0.7071 -0.7071 50.5647 142.7493)" fill="#5ACAEA" width="1.875" height="1.583"/>
	<polygon fill="#5ACAEA" points="54.67,62.404 52.136,65.763 50,63.627 53.345,61.079 	"/>
</g>
<g>
	<g>
		<line fill="#5ACAEA" x1="61.607" y1="37.766" x2="61.607" y2="64.374"/>
		<path fill="#5ACAEA" d="M61.707,37.766c0,0,0.103,1.663,0.257,4.158c0.161,2.495,0.288,5.82,0.443,9.147
			c0.067,1.662,0.224,3.325,0.242,4.885c-0.004,1.559-0.106,3.014-0.242,4.262c-0.251,2.494-0.7,4.157-0.7,4.157h-0.199
			c0,0-0.449-1.663-0.7-4.157c-0.136-1.248-0.238-2.703-0.242-4.262c0.019-1.56,0.175-3.223,0.242-4.885
			c0.155-3.327,0.282-6.652,0.443-9.147c0.154-2.495,0.257-4.158,0.257-4.158H61.707z"/>
	</g>
	<rect x="60.649" y="62.915" fill="#5ACAEA" width="1.876" height="1.583"/>
	<polygon fill="#5ACAEA" points="62.524,64.894 63.107,69.061 60.087,69.061 60.65,64.894 	"/>
</g>
</svg>
