<svg xmlns="http://www.w3.org/2000/svg" viewBox="0 0 6000 1000">
  <path fill="#64CCF5" d="M0 0h6000v800H0z"/>
  <path fill="#019547" d="M0 800h6000v150H0z"/>
  <path fill="#764E2A" d="M50 950l-7.165 7.165H7.165L0 950"/>
  <path fill="#8B5F3D" d="M50 950v50l-7.165-7.162v-35.673"/>
  <path fill="#764E2A" d="M50 1000H0l7.165-7.162h35.67"/>
  <path fill="#8B5F3D" d="M7.165 957.165v35.673L0 1000v-50"/>
  <path fill="#A97D51" d="M7.165 957.165h35.67v35.673H7.165z"/>
  <path fill="#764E2A" d="M100 1000l-7.165-7.162v-35.673L100 950"/>
  <path fill="#8B5F3D" d="M100 1000H50l7.165-7.162h35.67"/>
  <path fill="#764E2A" d="M50 1000v-50l7.165 7.165v35.673"/>
  <path fill="#8B5F3D" d="M92.835 957.165h-35.67L50 950h50"/>
  <path fill="#A97D51" d="M57.165 957.165h35.67v35.673h-35.67z"/>
  <path fill="#764E2A" d="M150 950l-7.165 7.165h-35.67L100 950"/>
  <path fill="#8B5F3D" d="M150 950v50l-7.165-7.162v-35.673"/>
  <path fill="#764E2A" d="M150 1000h-50l7.165-7.162h35.67"/>
  <path fill="#8B5F3D" d="M107.165 957.165v35.673L100 1000v-50"/>
  <path fill="#A97D51" d="M107.165 957.165h35.67v35.673h-35.67z"/>
  <path fill="#764E2A" d="M200 1000l-7.165-7.162v-35.673L200 950"/>
  <path fill="#8B5F3D" d="M200 1000h-50l7.165-7.162h35.67"/>
  <path fill="#764E2A" d="M150 1000v-50l7.165 7.165v35.673"/>
  <path fill="#8B5F3D" d="M192.835 957.165h-35.67L150 950h50"/>
  <path fill="#A97D51" d="M157.165 957.165h35.67v35.673h-35.67z"/>
  <path fill="#764E2A" d="M250 950l-7.165 7.165h-35.67L200 950"/>
  <path fill="#8B5F3D" d="M250 950v50l-7.165-7.162v-35.673"/>
  <path fill="#764E2A" d="M250 1000h-50l7.165-7.162h35.67"/>
  <path fill="#8B5F3D" d="M207.165 957.165v35.673L200 1000v-50"/>
  <path fill="#A97D51" d="M207.165 957.165h35.67v35.673h-35.67z"/>
  <path fill="#764E2A" d="M300 1000l-7.165-7.162v-35.673L300 950"/>
  <path fill="#8B5F3D" d="M300 1000h-50l7.165-7.162h35.67"/>
  <path fill="#764E2A" d="M250 1000v-50l7.165 7.165v35.673"/>
  <path fill="#8B5F3D" d="M292.835 957.165h-35.67L250 950h50"/>
  <path fill="#A97D51" d="M257.165 957.165h35.67v35.673h-35.67z"/>
  <path fill="#764E2A" d="M350 950l-7.165 7.165h-35.67L300 950"/>
  <path fill="#8B5F3D" d="M350 950v50l-7.165-7.162v-35.673"/>
  <path fill="#764E2A" d="M350 1000h-50l7.165-7.162h35.67"/>
  <path fill="#8B5F3D" d="M307.165 957.165v35.673L300 1000v-50"/>
  <path fill="#A97D51" d="M307.165 957.165h35.67v35.673h-35.67z"/>
  <path fill="#764E2A" d="M400 1000l-7.165-7.162v-35.673L400 950"/>
  <path fill="#8B5F3D" d="M400 1000h-50l7.165-7.162h35.67"/>
  <path fill="#764E2A" d="M350 1000v-50l7.165 7.165v35.673"/>
  <path fill="#8B5F3D" d="M392.835 957.165h-35.67L350 950h50"/>
  <path fill="#A97D51" d="M357.165 957.165h35.67v35.673h-35.67z"/>
  <path fill="#764E2A" d="M450 950l-7.165 7.165h-35.673L400 950"/>
  <path fill="#8B5F3D" d="M450 950v50l-7.165-7.162v-35.673"/>
  <path fill="#764E2A" d="M450 1000h-50l7.162-7.162h35.673"/>
  <path fill="#8B5F3D" d="M407.162 957.165v35.673L400 1000v-50"/>
  <path fill="#A97D51" d="M407.162 957.165h35.673v35.673h-35.673z"/>
  <path fill="#764E2A" d="M500 1000l-7.166-7.162v-35.673L500 950"/>
  <path fill="#8B5F3D" d="M500 1000h-50l7.162-7.162h35.672"/>
  <path fill="#764E2A" d="M450 1000v-50l7.162 7.165v35.673"/>
  <path fill="#8B5F3D" d="M492.834 957.165h-35.672L450 950h50"/>
  <path fill="#A97D51" d="M457.162 957.165h35.672v35.673h-35.672z"/>
  <path fill="#764E2A" d="M550 950l-7.165 7.165h-35.673L500 950"/>
  <path fill="#8B5F3D" d="M550 950v50l-7.165-7.162v-35.673"/>
  <path fill="#764E2A" d="M550 1000h-50l7.162-7.162h35.673"/>
  <path fill="#8B5F3D" d="M507.162 957.165v35.673L500 1000v-50"/>
  <path fill="#A97D51" d="M507.162 957.165h35.673v35.673h-35.673z"/>
  <path fill="#764E2A" d="M600 1000l-7.165-7.162v-35.673L600 950"/>
  <path fill="#8B5F3D" d="M600 1000h-50l7.162-7.162h35.673"/>
  <path fill="#764E2A" d="M550 1000v-50l7.162 7.165v35.673"/>
  <path fill="#8B5F3D" d="M592.835 957.165h-35.673L550 950h50"/>
  <path fill="#A97D51" d="M557.162 957.165h35.672v35.673h-35.672z"/>
  <path fill="#764E2A" d="M650 950l-7.165 7.165h-35.673L600 950"/>
  <path fill="#8B5F3D" d="M650 950v50l-7.165-7.162v-35.673"/>
  <path fill="#764E2A" d="M650 1000h-50l7.162-7.162h35.673"/>
  <path fill="#8B5F3D" d="M607.162 957.165v35.673L600 1000v-50"/>
  <path fill="#A97D51" d="M607.162 957.165h35.672v35.673h-35.672z"/>
  <path fill="#764E2A" d="M700 1000l-7.165-7.162v-35.673L700 950"/>
  <path fill="#8B5F3D" d="M700 1000h-50l7.162-7.162h35.673"/>
  <path fill="#764E2A" d="M650 1000v-50l7.162 7.165v35.673"/>
  <path fill="#8B5F3D" d="M692.835 957.165h-35.673L650 950h50"/>
  <path fill="#A97D51" d="M657.162 957.165h35.672v35.673h-35.672z"/>
  <path fill="#764E2A" d="M750 950l-7.165 7.165h-35.673L700 950"/>
  <path fill="#8B5F3D" d="M750 950v50l-7.165-7.162v-35.673"/>
  <path fill="#764E2A" d="M750 1000h-50l7.162-7.162h35.673"/>
  <path fill="#8B5F3D" d="M707.162 957.165v35.673L700 1000v-50"/>
  <path fill="#A97D51" d="M707.162 957.165h35.672v35.673h-35.672z"/>
  <path fill="#764E2A" d="M800 1000l-7.165-7.162v-35.673L800 950"/>
  <path fill="#8B5F3D" d="M800 1000h-50l7.162-7.162h35.673"/>
  <path fill="#764E2A" d="M750 1000v-50l7.162 7.165v35.673"/>
  <path fill="#8B5F3D" d="M792.835 957.165h-35.673L750 950h50"/>
  <path fill="#A97D51" d="M757.162 957.165h35.672v35.673h-35.672z"/>
  <path fill="#764E2A" d="M850 950l-7.165 7.165h-35.673L800 950"/>
  <path fill="#8B5F3D" d="M850 950v50l-7.165-7.162v-35.673"/>
  <path fill="#764E2A" d="M850 1000h-50l7.162-7.162h35.673"/>
  <path fill="#8B5F3D" d="M807.162 957.165v35.673L800 1000v-50"/>
  <path fill="#A97D51" d="M807.162 957.165h35.672v35.673h-35.672z"/>
  <path fill="#764E2A" d="M900 1000l-7.165-7.162v-35.673L900 950"/>
  <path fill="#8B5F3D" d="M900 1000h-50l7.162-7.162h35.673"/>
  <path fill="#764E2A" d="M850 1000v-50l7.162 7.165v35.673"/>
  <path fill="#8B5F3D" d="M892.835 957.165h-35.673L850 950h50"/>
  <path fill="#A97D51" d="M857.162 957.165h35.672v35.673h-35.672z"/>
  <path fill="#764E2A" d="M950 950l-7.165 7.165h-35.673L900 950"/>
  <path fill="#8B5F3D" d="M950 950v50l-7.165-7.162v-35.673"/>
  <path fill="#764E2A" d="M950 1000h-50l7.162-7.162h35.673"/>
  <path fill="#8B5F3D" d="M907.162 957.165v35.673L900 1000v-50"/>
  <path fill="#A97D51" d="M907.162 957.165h35.672v35.673h-35.672z"/>
  <path fill="#764E2A" d="M1000 1000l-7.165-7.162v-35.673L1000 950"/>
  <path fill="#8B5F3D" d="M1000 1000h-50l7.162-7.162h35.673"/>
  <path fill="#764E2A" d="M950 1000v-50l7.162 7.165v35.673"/>
  <path fill="#8B5F3D" d="M992.835 957.165h-35.673L950 950h50"/>
  <path fill="#A97D51" d="M957.162 957.165h35.672v35.673h-35.672z"/>
  <path fill="#764E2A" d="M1050 950l-7.166 7.165h-35.67L1000 950"/>
  <path fill="#8B5F3D" d="M1050 950v50l-7.166-7.162v-35.673"/>
  <path fill="#764E2A" d="M1050 1000h-50l7.164-7.162h35.67"/>
  <path fill="#8B5F3D" d="M1007.164 957.165v35.673L1000 1000v-50"/>
  <path fill="#A97D51" d="M1007.164 957.165h35.67v35.673h-35.67z"/>
  <path fill="#764E2A" d="M1100 1000l-7.166-7.162v-35.673L1100 950"/>
  <path fill="#8B5F3D" d="M1100 1000h-50l7.162-7.162h35.672"/>
  <path fill="#764E2A" d="M1050 1000v-50l7.162 7.165v35.673"/>
  <path fill="#8B5F3D" d="M1092.834 957.165h-35.672L1050 950h50"/>
  <path fill="#A97D51" d="M1057.162 957.165h35.672v35.673h-35.672z"/>
  <path fill="#764E2A" d="M1150 950l-7.166 7.165h-35.672L1100 950"/>
  <path fill="#8B5F3D" d="M1150 950v50l-7.166-7.162v-35.673"/>
  <path fill="#764E2A" d="M1150 1000h-50l7.162-7.162h35.672"/>
  <path fill="#8B5F3D" d="M1107.162 957.165v35.673L1100 1000v-50"/>
  <path fill="#A97D51" d="M1107.162 957.165h35.672v35.673h-35.672z"/>
  <path fill="#764E2A" d="M1200 1000l-7.166-7.162v-35.673L1200 950"/>
  <path fill="#8B5F3D" d="M1200 1000h-50l7.162-7.162h35.672"/>
  <path fill="#764E2A" d="M1150 1000v-50l7.162 7.165v35.673"/>
  <path fill="#8B5F3D" d="M1192.834 957.165h-35.672L1150 950h50"/>
  <path fill="#A97D51" d="M1157.162 957.165h35.672v35.673h-35.672z"/>
  <path fill="#764E2A" d="M1250 950l-7.166 7.165h-35.672L1200 950"/>
  <path fill="#8B5F3D" d="M1250 950v50l-7.166-7.162v-35.673"/>
  <path fill="#764E2A" d="M1250 1000h-50l7.162-7.162h35.672"/>
  <path fill="#8B5F3D" d="M1207.162 957.165v35.673L1200 1000v-50"/>
  <path fill="#A97D51" d="M1207.162 957.165h35.672v35.673h-35.672z"/>
  <path fill="#764E2A" d="M1892.896 359.882L1880 372.776h-64.205l-12.899-12.894"/>
  <path fill="#8B5F3D" d="M1892.896 359.882v90L1880 436.981v-64.205"/>
  <path fill="#764E2A" d="M1892.896 449.882h-90l12.899-12.901H1880"/>
  <path fill="#8B5F3D" d="M1815.795 372.776v64.205l-12.899 12.901v-90"/>
  <path fill="#A97D51" d="M1815.795 372.776H1880v64.205h-64.205z"/>
  <path fill="#764E2A" d="M2072.896 449.882l12.897-12.901h64.205l12.898 12.901"/>
  <path fill="#8B5F3D" d="M2072.896 449.882v-90l12.897 12.894v64.205"/>
  <path fill="#764E2A" d="M2072.896 359.882h90l-12.898 12.894h-64.205"/>
  <path fill="#8B5F3D" d="M2149.998 436.981v-64.205l12.898-12.894v90"/>
  <path fill="#A97D51" d="M2085.793 372.776h64.205v64.205h-64.205z"/>
  <path fill="#764E2A" d="M2072.896 449.883L2060 436.982v-64.205l12.896-12.894"/>
  <path fill="#8B5F3D" d="M2072.896 449.883h-90l12.899-12.901H2060"/>
  <path fill="#764E2A" d="M1982.896 449.883v-90l12.899 12.894v64.205"/>
  <path fill="#8B5F3D" d="M2060 372.777h-64.205l-12.899-12.894h90"/>
  <path fill="#A97D51" d="M1995.795 372.777H2060v64.205h-64.205z"/>
  <path fill="#764E2A" d="M1300 1000l-7.166-7.162v-35.673L1300 950"/>
  <path fill="#8B5F3D" d="M1300 1000h-50l7.162-7.162h35.672"/>
  <path fill="#764E2A" d="M1250 1000v-50l7.162 7.165v35.673"/>
  <path fill="#8B5F3D" d="M1292.834 957.165h-35.672L1250 950h50"/>
  <path fill="#A97D51" d="M1257.162 957.165h35.672v35.673h-35.672z"/>
  <path fill="#764E2A" d="M1350 950l-7.166 7.165h-35.672L1300 950"/>
  <path fill="#8B5F3D" d="M1350 950v50l-7.166-7.162v-35.673"/>
  <path fill="#764E2A" d="M1350 1000h-50l7.162-7.162h35.672"/>
  <path fill="#8B5F3D" d="M1307.162 957.165v35.673L1300 1000v-50"/>
  <path fill="#A97D51" d="M1307.162 957.165h35.672v35.673h-35.672z"/>
  <path fill="#764E2A" d="M1400 1000l-7.166-7.162v-35.673L1400 950"/>
  <path fill="#8B5F3D" d="M1400 1000h-50l7.162-7.162h35.672"/>
  <path fill="#764E2A" d="M1350 1000v-50l7.162 7.165v35.673"/>
  <path fill="#8B5F3D" d="M1392.834 957.165h-35.672L1350 950h50"/>
  <path fill="#A97D51" d="M1357.162 957.165h35.672v35.673h-35.672z"/>
  <path fill="#764E2A" d="M1450 950l-7.166 7.165h-35.672L1400 950"/>
  <path fill="#8B5F3D" d="M1450 950v50l-7.166-7.162v-35.673"/>
  <path fill="#764E2A" d="M1450 1000h-50l7.162-7.162h35.672"/>
  <path fill="#8B5F3D" d="M1407.162 957.165v35.673L1400 1000v-50"/>
  <path fill="#A97D51" d="M1407.162 957.165h35.672v35.673h-35.672z"/>
  <path fill="#764E2A" d="M1500 1000l-7.166-7.162v-35.673L1500 950"/>
  <path fill="#8B5F3D" d="M1500 1000h-50l7.162-7.162h35.672"/>
  <path fill="#764E2A" d="M1450 1000v-50l7.162 7.165v35.673"/>
  <path fill="#8B5F3D" d="M1492.834 957.165h-35.672L1450 950h50"/>
  <path fill="#A97D51" d="M1457.162 957.165h35.672v35.673h-35.672z"/>
  <path fill="#764E2A" d="M1550 950l-7.166 7.165h-35.672L1500 950"/>
  <path fill="#8B5F3D" d="M1550 950v50l-7.166-7.162v-35.673"/>
  <path fill="#764E2A" d="M1550 1000h-50l7.162-7.162h35.672"/>
  <path fill="#8B5F3D" d="M1507.162 957.165v35.673L1500 1000v-50"/>
  <path fill="#A97D51" d="M1507.162 957.165h35.672v35.673h-35.672z"/>
  <path fill="#764E2A" d="M1600 1000l-7.166-7.162v-35.673L1600 950"/>
  <path fill="#8B5F3D" d="M1600 1000h-50l7.162-7.162h35.672"/>
  <path fill="#764E2A" d="M1550 1000v-50l7.162 7.165v35.673"/>
  <path fill="#8B5F3D" d="M1592.834 957.165h-35.672L1550 950h50"/>
  <path fill="#A97D51" d="M1557.162 957.165h35.672v35.673h-35.672z"/>
  <path fill="#764E2A" d="M1650 950l-7.166 7.165h-35.672L1600 950"/>
  <path fill="#8B5F3D" d="M1650 950v50l-7.166-7.162v-35.673"/>
  <path fill="#764E2A" d="M1650 1000h-50l7.162-7.162h35.672"/>
  <path fill="#8B5F3D" d="M1607.162 957.165v35.673L1600 1000v-50"/>
  <path fill="#A97D51" d="M1607.162 957.165h35.672v35.673h-35.672z"/>
  <path fill="#764E2A" d="M1700 1000l-7.166-7.162v-35.673L1700 950"/>
  <path fill="#8B5F3D" d="M1700 1000h-50l7.162-7.162h35.672"/>
  <path fill="#764E2A" d="M1650 1000v-50l7.162 7.165v35.673"/>
  <path fill="#8B5F3D" d="M1692.834 957.165h-35.672L1650 950h50"/>
  <path fill="#A97D51" d="M1657.162 957.165h35.672v35.673h-35.672z"/>
  <path fill="#764E2A" d="M1750 950l-7.166 7.165h-35.672L1700 950"/>
  <path fill="#8B5F3D" d="M1750 950v50l-7.166-7.162v-35.673"/>
  <path fill="#764E2A" d="M1750 1000h-50l7.162-7.162h35.672"/>
  <path fill="#8B5F3D" d="M1707.162 957.165v35.673L1700 1000v-50"/>
  <path fill="#A97D51" d="M1707.162 957.165h35.672v35.673h-35.672z"/>
  <path fill="#764E2A" d="M1800 1000l-7.166-7.162v-35.673L1800 950"/>
  <path fill="#8B5F3D" d="M1800 1000h-50l7.162-7.162h35.672"/>
  <path fill="#764E2A" d="M1750 1000v-50l7.162 7.165v35.673"/>
  <path fill="#8B5F3D" d="M1792.834 957.165h-35.672L1750 950h50"/>
  <path fill="#A97D51" d="M1757.162 957.165h35.672v35.673h-35.672z"/>
  <path fill="#764E2A" d="M1850 950l-7.166 7.165h-35.672L1800 950"/>
  <path fill="#8B5F3D" d="M1850 950v50l-7.166-7.162v-35.673"/>
  <path fill="#764E2A" d="M1850 1000h-50l7.162-7.162h35.672"/>
  <path fill="#8B5F3D" d="M1807.162 957.165v35.673L1800 1000v-50"/>
  <path fill="#A97D51" d="M1807.162 957.165h35.672v35.673h-35.672z"/>
  <path fill="#764E2A" d="M1900 1000l-7.166-7.162v-35.673L1900 950"/>
  <path fill="#8B5F3D" d="M1900 1000h-50l7.162-7.162h35.672"/>
  <path fill="#764E2A" d="M1850 1000v-50l7.162 7.165v35.673"/>
  <path fill="#8B5F3D" d="M1892.834 957.165h-35.672L1850 950h50"/>
  <path fill="#A97D51" d="M1857.162 957.165h35.672v35.673h-35.672z"/>
  <path fill="#764E2A" d="M1950 950l-7.166 7.165h-35.672L1900 950"/>
  <path fill="#8B5F3D" d="M1950 950v50l-7.166-7.162v-35.673"/>
  <path fill="#764E2A" d="M1950 1000h-50l7.162-7.162h35.672"/>
  <path fill="#8B5F3D" d="M1907.162 957.165v35.673L1900 1000v-50"/>
  <path fill="#A97D51" d="M1907.162 957.165h35.672v35.673h-35.672z"/>
  <path fill="#764E2A" d="M2000 1000l-7.166-7.162v-35.673L2000 950"/>
  <path fill="#8B5F3D" d="M2000 1000h-50l7.162-7.162h35.672"/>
  <path fill="#764E2A" d="M1950 1000v-50l7.162 7.165v35.673"/>
  <path fill="#8B5F3D" d="M1992.834 957.165h-35.672L1950 950h50"/>
  <path fill="#A97D51" d="M1957.162 957.165h35.672v35.673h-35.672z"/>
  <path fill="#764E2A" d="M2050 950l-7.166 7.165h-35.672L2000 950"/>
  <path fill="#8B5F3D" d="M2050 950v50l-7.166-7.162v-35.673"/>
  <path fill="#764E2A" d="M2050 1000h-50l7.162-7.162h35.672"/>
  <path fill="#8B5F3D" d="M2007.162 957.165v35.673L2000 1000v-50"/>
  <path fill="#A97D51" d="M2007.162 957.165h35.672v35.673h-35.672z"/>
  <path fill="#764E2A" d="M2100 1000l-7.166-7.162v-35.673L2100 950"/>
  <path fill="#8B5F3D" d="M2100 1000h-50l7.164-7.162h35.67"/>
  <path fill="#764E2A" d="M2050 1000v-50l7.164 7.165v35.673"/>
  <path fill="#8B5F3D" d="M2092.834 957.165h-35.67L2050 950h50"/>
  <path fill="#A97D51" d="M2057.164 957.165h35.67v35.673h-35.67z"/>
  <path fill="#764E2A" d="M2150 950l-7.166 7.165h-35.67L2100 950"/>
  <path fill="#8B5F3D" d="M2150 950v50l-7.166-7.162v-35.673"/>
  <path fill="#764E2A" d="M2150 1000h-50l7.164-7.162h35.67"/>
  <path fill="#8B5F3D" d="M2107.164 957.165v35.673L2100 1000v-50"/>
  <path fill="#A97D51" d="M2107.164 957.165h35.67v35.673h-35.67z"/>
  <path fill="#764E2A" d="M2200 1000l-7.166-7.162v-35.673L2200 950"/>
  <path fill="#8B5F3D" d="M2200 1000h-50l7.164-7.162h35.67"/>
  <path fill="#764E2A" d="M2150 1000v-50l7.164 7.165v35.673"/>
  <path fill="#8B5F3D" d="M2192.834 957.165h-35.67L2150 950h50"/>
  <path fill="#A97D51" d="M2157.164 957.165h35.67v35.673h-35.67z"/>
  <path fill="#764E2A" d="M2250 950l-7.166 7.165h-35.67L2200 950"/>
  <path fill="#8B5F3D" d="M2250 950v50l-7.166-7.162v-35.673"/>
  <path fill="#764E2A" d="M2250 1000h-50l7.164-7.162h35.67"/>
  <path fill="#8B5F3D" d="M2207.164 957.165v35.673L2200 1000v-50"/>
  <path fill="#A97D51" d="M2207.164 957.165h35.67v35.673h-35.67z"/>
  <path fill="#764E2A" d="M2300 1000l-7.166-7.162v-35.673L2300 950"/>
  <path fill="#8B5F3D" d="M2300 1000h-50l7.164-7.162h35.67"/>
  <path fill="#764E2A" d="M2250 1000v-50l7.164 7.165v35.673"/>
  <path fill="#8B5F3D" d="M2292.834 957.165h-35.67L2250 950h50"/>
  <path fill="#A97D51" d="M2257.164 957.165h35.67v35.673h-35.67z"/>
  <path fill="#764E2A" d="M2350 950l-7.166 7.165h-35.67L2300 950"/>
  <path fill="#8B5F3D" d="M2350 950v50l-7.166-7.162v-35.673"/>
  <path fill="#764E2A" d="M2350 1000h-50l7.164-7.162h35.67"/>
  <path fill="#8B5F3D" d="M2307.164 957.165v35.673L2300 1000v-50"/>
  <path fill="#A97D51" d="M2307.164 957.165h35.67v35.673h-35.67z"/>
  <path fill="#764E2A" d="M2400 1000l-7.166-7.162v-35.673L2400 950"/>
  <path fill="#8B5F3D" d="M2400 1000h-50l7.164-7.162h35.67"/>
  <path fill="#764E2A" d="M2350 1000v-50l7.164 7.165v35.673"/>
  <path fill="#8B5F3D" d="M2392.834 957.165h-35.67L2350 950h50"/>
  <path fill="#A97D51" d="M2357.164 957.165h35.67v35.673h-35.67z"/>
  <path fill="#764E2A" d="M2450 950l-7.166 7.165h-35.67L2400 950"/>
  <path fill="#8B5F3D" d="M2450 950v50l-7.166-7.162v-35.673"/>
  <path fill="#764E2A" d="M2450 1000h-50l7.164-7.162h35.67"/>
  <path fill="#8B5F3D" d="M2407.164 957.165v35.673L2400 1000v-50"/>
  <path fill="#A97D51" d="M2407.164 957.165h35.67v35.673h-35.67z"/>
  <path fill="#764E2A" d="M2500 1000l-7.166-7.162v-35.673L2500 950"/>
  <path fill="#8B5F3D" d="M2500 1000h-50l7.164-7.162h35.67"/>
  <path fill="#764E2A" d="M2450 1000v-50l7.164 7.165v35.673"/>
  <path fill="#8B5F3D" d="M2492.834 957.165h-35.67L2450 950h50"/>
  <path fill="#A97D51" d="M2457.164 957.165h35.67v35.673h-35.67z"/>
  <path fill="#764E2A" d="M2550 950l-7.166 7.165h-35.67L2500 950"/>
  <path fill="#8B5F3D" d="M2550 950v50l-7.166-7.162v-35.673"/>
  <path fill="#764E2A" d="M2550 1000h-50l7.164-7.162h35.67"/>
  <path fill="#8B5F3D" d="M2507.164 957.165v35.673L2500 1000v-50"/>
  <path fill="#A97D51" d="M2507.164 957.165h35.67v35.673h-35.67z"/>
  <path fill="#764E2A" d="M2600 1000l-7.166-7.162v-35.673L2600 950"/>
  <path fill="#8B5F3D" d="M2600 1000h-50l7.164-7.162h35.67"/>
  <path fill="#764E2A" d="M2550 1000v-50l7.164 7.165v35.673"/>
  <path fill="#8B5F3D" d="M2592.834 957.165h-35.67L2550 950h50"/>
  <path fill="#A97D51" d="M2557.164 957.165h35.67v35.673h-35.67z"/>
  <path fill="#764E2A" d="M2650 950l-7.166 7.165h-35.67L2600 950"/>
  <path fill="#8B5F3D" d="M2650 950v50l-7.166-7.162v-35.673"/>
  <path fill="#764E2A" d="M2650 1000h-50l7.164-7.162h35.67"/>
  <path fill="#8B5F3D" d="M2607.164 957.165v35.673L2600 1000v-50"/>
  <path fill="#A97D51" d="M2607.164 957.165h35.67v35.673h-35.67z"/>
  <path fill="#764E2A" d="M2700 1000l-7.166-7.162v-35.673L2700 950"/>
  <path fill="#8B5F3D" d="M2700 1000h-50l7.164-7.162h35.67"/>
  <path fill="#764E2A" d="M2650 1000v-50l7.164 7.165v35.673"/>
  <path fill="#8B5F3D" d="M2692.834 957.165h-35.67L2650 950h50"/>
  <path fill="#A97D51" d="M2657.164 957.165h35.67v35.673h-35.67z"/>
  <path fill="#764E2A" d="M2750 950l-7.166 7.165h-35.67L2700 950"/>
  <path fill="#8B5F3D" d="M2750 950v50l-7.166-7.162v-35.673"/>
  <path fill="#764E2A" d="M2750 1000h-50l7.164-7.162h35.67"/>
  <path fill="#8B5F3D" d="M2707.164 957.165v35.673L2700 1000v-50"/>
  <path fill="#A97D51" d="M2707.164 957.165h35.67v35.673h-35.67z"/>
  <path fill="#764E2A" d="M2800 1000l-7.166-7.162v-35.673L2800 950"/>
  <path fill="#8B5F3D" d="M2800 1000h-50l7.164-7.162h35.67"/>
  <path fill="#764E2A" d="M2750 1000v-50l7.164 7.165v35.673"/>
  <path fill="#8B5F3D" d="M2792.834 957.165h-35.67L2750 950h50"/>
  <path fill="#A97D51" d="M2757.164 957.165h35.67v35.673h-35.67z"/>
  <path fill="#764E2A" d="M2850 950l-7.166 7.165h-35.67L2800 950"/>
  <path fill="#8B5F3D" d="M2850 950v50l-7.166-7.162v-35.673"/>
  <path fill="#764E2A" d="M2850 1000h-50l7.164-7.162h35.67"/>
  <path fill="#8B5F3D" d="M2807.164 957.165v35.673L2800 1000v-50"/>
  <path fill="#A97D51" d="M2807.164 957.165h35.67v35.673h-35.67z"/>
  <path fill="#764E2A" d="M2900 1000l-7.166-7.162v-35.673L2900 950"/>
  <path fill="#8B5F3D" d="M2900 1000h-50l7.164-7.162h35.67"/>
  <path fill="#764E2A" d="M2850 1000v-50l7.164 7.165v35.673"/>
  <path fill="#8B5F3D" d="M2892.834 957.165h-35.67L2850 950h50"/>
  <path fill="#A97D51" d="M2857.164 957.165h35.67v35.673h-35.67z"/>
  <path fill="#764E2A" d="M2950 950l-7.166 7.165h-35.67L2900 950"/>
  <path fill="#8B5F3D" d="M2950 950v50l-7.166-7.162v-35.673"/>
  <path fill="#764E2A" d="M2950 1000h-50l7.164-7.162h35.67"/>
  <path fill="#8B5F3D" d="M2907.164 957.165v35.673L2900 1000v-50"/>
  <path fill="#A97D51" d="M2907.164 957.165h35.67v35.673h-35.67z"/>
  <path fill="#764E2A" d="M3000 1000l-7.166-7.162v-35.673L3000 950"/>
  <path fill="#8B5F3D" d="M3000 1000h-50l7.164-7.162h35.67"/>
  <path fill="#764E2A" d="M2950 1000v-50l7.164 7.165v35.673"/>
  <path fill="#8B5F3D" d="M2992.834 957.165h-35.67L2950 950h50"/>
  <path fill="#A97D51" d="M2957.164 957.165h35.67v35.673h-35.67z"/>
  <path fill="#764E2A" d="M3050 950l-7.166 7.165h-35.67L3000 950"/>
  <path fill="#8B5F3D" d="M3050 950v50l-7.166-7.162v-35.673"/>
  <path fill="#764E2A" d="M3050 1000h-50l7.164-7.162h35.67"/>
  <path fill="#8B5F3D" d="M3007.164 957.165v35.673L3000 1000v-50"/>
  <path fill="#A97D51" d="M3007.164 957.165h35.67v35.673h-35.67z"/>
  <path fill="#764E2A" d="M3100 1000l-7.166-7.162v-35.673L3100 950"/>
  <path fill="#8B5F3D" d="M3100 1000h-50l7.164-7.162h35.67"/>
  <path fill="#764E2A" d="M3050 1000v-50l7.164 7.165v35.673"/>
  <path fill="#8B5F3D" d="M3092.834 957.165h-35.67L3050 950h50"/>
  <path fill="#A97D51" d="M3057.164 957.165h35.67v35.673h-35.67z"/>
  <path fill="#764E2A" d="M3150 950l-7.166 7.165h-35.67L3100 950"/>
  <path fill="#8B5F3D" d="M3150 950v50l-7.166-7.162v-35.673"/>
  <path fill="#764E2A" d="M3150 1000h-50l7.164-7.162h35.67"/>
  <path fill="#8B5F3D" d="M3107.164 957.165v35.673L3100 1000v-50"/>
  <path fill="#A97D51" d="M3107.164 957.165h35.67v35.673h-35.67z"/>
  <path fill="#764E2A" d="M3200 1000l-7.166-7.162v-35.673L3200 950"/>
  <path fill="#8B5F3D" d="M3200 1000h-50l7.164-7.162h35.67"/>
  <path fill="#764E2A" d="M3150 1000v-50l7.164 7.165v35.673"/>
  <path fill="#8B5F3D" d="M3192.834 957.165h-35.67L3150 950h50"/>
  <path fill="#A97D51" d="M3157.164 957.165h35.67v35.673h-35.67z"/>
  <path fill="#764E2A" d="M3250 950l-7.166 7.165h-35.67L3200 950"/>
  <path fill="#8B5F3D" d="M3250 950v50l-7.166-7.162v-35.673"/>
  <path fill="#764E2A" d="M3250 1000h-50l7.164-7.162h35.67"/>
  <path fill="#8B5F3D" d="M3207.164 957.165v35.673L3200 1000v-50"/>
  <path fill="#A97D51" d="M3207.164 957.165h35.67v35.673h-35.67z"/>
  <path fill="#764E2A" d="M3300 1000l-7.166-7.162v-35.673L3300 950"/>
  <path fill="#8B5F3D" d="M3300 1000h-50l7.164-7.162h35.67"/>
  <path fill="#764E2A" d="M3250 1000v-50l7.164 7.165v35.673"/>
  <path fill="#8B5F3D" d="M3292.834 957.165h-35.67L3250 950h50"/>
  <path fill="#A97D51" d="M3257.164 957.165h35.67v35.673h-35.67z"/>
  <path fill="#764E2A" d="M3350 950l-7.166 7.165h-35.67L3300 950"/>
  <path fill="#8B5F3D" d="M3350 950v50l-7.166-7.162v-35.673"/>
  <path fill="#764E2A" d="M3350 1000h-50l7.164-7.162h35.67"/>
  <path fill="#8B5F3D" d="M3307.164 957.165v35.673L3300 1000v-50"/>
  <path fill="#A97D51" d="M3307.164 957.165h35.67v35.673h-35.67z"/>
  <path fill="#764E2A" d="M3400 1000l-7.166-7.162v-35.673L3400 950"/>
  <path fill="#8B5F3D" d="M3400 1000h-50l7.164-7.162h35.67"/>
  <path fill="#764E2A" d="M3350 1000v-50l7.164 7.165v35.673"/>
  <path fill="#8B5F3D" d="M3392.834 957.165h-35.67L3350 950h50"/>
  <path fill="#A97D51" d="M3357.164 957.165h35.67v35.673h-35.67z"/>
  <path fill="#764E2A" d="M3450 950l-7.166 7.165h-35.67L3400 950"/>
  <path fill="#8B5F3D" d="M3450 950v50l-7.166-7.162v-35.673"/>
  <path fill="#764E2A" d="M3450 1000h-50l7.164-7.162h35.67"/>
  <path fill="#8B5F3D" d="M3407.164 957.165v35.673L3400 1000v-50"/>
  <path fill="#A97D51" d="M3407.164 957.165h35.67v35.673h-35.67z"/>
  <path fill="#764E2A" d="M3500 1000l-7.166-7.162v-35.673L3500 950"/>
  <path fill="#8B5F3D" d="M3500 1000h-50l7.164-7.162h35.67"/>
  <path fill="#764E2A" d="M3450 1000v-50l7.164 7.165v35.673"/>
  <path fill="#8B5F3D" d="M3492.834 957.165h-35.67L3450 950h50"/>
  <path fill="#A97D51" d="M3457.164 957.165h35.67v35.673h-35.67z"/>
  <path fill="#764E2A" d="M3550 950l-7.166 7.165h-35.67L3500 950"/>
  <path fill="#8B5F3D" d="M3550 950v50l-7.166-7.162v-35.673"/>
  <path fill="#764E2A" d="M3550 1000h-50l7.164-7.162h35.67"/>
  <path fill="#8B5F3D" d="M3507.164 957.165v35.673L3500 1000v-50"/>
  <path fill="#A97D51" d="M3507.164 957.165h35.67v35.673h-35.67z"/>
  <path fill="#764E2A" d="M3600 1000l-7.166-7.162v-35.673L3600 950"/>
  <path fill="#8B5F3D" d="M3600 1000h-50l7.164-7.162h35.67"/>
  <path fill="#764E2A" d="M3550 1000v-50l7.164 7.165v35.673"/>
  <path fill="#8B5F3D" d="M3592.834 957.165h-35.67L3550 950h50"/>
  <path fill="#A97D51" d="M3557.164 957.165h35.67v35.673h-35.67z"/>
  <path fill="#764E2A" d="M3650 950l-7.166 7.165h-35.67L3600 950"/>
  <path fill="#8B5F3D" d="M3650 950v50l-7.166-7.162v-35.673"/>
  <path fill="#764E2A" d="M3650 1000h-50l7.164-7.162h35.67"/>
  <path fill="#8B5F3D" d="M3607.164 957.165v35.673L3600 1000v-50"/>
  <path fill="#A97D51" d="M3607.164 957.165h35.67v35.673h-35.67z"/>
  <path fill="#764E2A" d="M3700 1000l-7.166-7.162v-35.673L3700 950"/>
  <path fill="#8B5F3D" d="M3700 1000h-50l7.164-7.162h35.67"/>
  <path fill="#764E2A" d="M3650 1000v-50l7.164 7.165v35.673"/>
  <path fill="#8B5F3D" d="M3692.834 957.165h-35.67L3650 950h50"/>
  <path fill="#A97D51" d="M3657.164 957.165h35.67v35.673h-35.67z"/>
  <path fill="#764E2A" d="M3750 950l-7.166 7.165h-35.67L3700 950"/>
  <path fill="#8B5F3D" d="M3750 950v50l-7.166-7.162v-35.673"/>
  <path fill="#764E2A" d="M3750 1000h-50l7.164-7.162h35.67"/>
  <path fill="#8B5F3D" d="M3707.164 957.165v35.673L3700 1000v-50"/>
  <path fill="#A97D51" d="M3707.164 957.165h35.67v35.673h-35.67z"/>
  <path fill="#764E2A" d="M3800 1000l-7.166-7.162v-35.673L3800 950"/>
  <path fill="#8B5F3D" d="M3800 1000h-50l7.164-7.162h35.67"/>
  <path fill="#764E2A" d="M3750 1000v-50l7.164 7.165v35.673"/>
  <path fill="#8B5F3D" d="M3792.834 957.165h-35.67L3750 950h50"/>
  <path fill="#A97D51" d="M3757.164 957.165h35.67v35.673h-35.67z"/>
  <path fill="#764E2A" d="M3850 950l-7.166 7.165h-35.67L3800 950"/>
  <path fill="#8B5F3D" d="M3850 950v50l-7.166-7.162v-35.673"/>
  <path fill="#764E2A" d="M3850 1000h-50l7.164-7.162h35.67"/>
  <path fill="#8B5F3D" d="M3807.164 957.165v35.673L3800 1000v-50"/>
  <path fill="#A97D51" d="M3807.164 957.165h35.67v35.673h-35.67z"/>
  <path fill="#764E2A" d="M3900 1000l-7.166-7.162v-35.673L3900 950"/>
  <path fill="#8B5F3D" d="M3900 1000h-50l7.164-7.162h35.67"/>
  <path fill="#764E2A" d="M3850 1000v-50l7.164 7.165v35.673"/>
  <path fill="#8B5F3D" d="M3892.834 957.165h-35.67L3850 950h50"/>
  <path fill="#A97D51" d="M3857.164 957.165h35.67v35.673h-35.67z"/>
  <path fill="#764E2A" d="M3950 950l-7.166 7.165h-35.67L3900 950"/>
  <path fill="#8B5F3D" d="M3950 950v50l-7.166-7.162v-35.673"/>
  <path fill="#764E2A" d="M3950 1000h-50l7.164-7.162h35.67"/>
  <path fill="#8B5F3D" d="M3907.164 957.165v35.673L3900 1000v-50"/>
  <path fill="#A97D51" d="M3907.164 957.165h35.67v35.673h-35.67z"/>
  <path fill="#764E2A" d="M4000 1000l-7.166-7.162v-35.673L4000 950"/>
  <path fill="#8B5F3D" d="M4000 1000h-50l7.164-7.162h35.67"/>
  <path fill="#764E2A" d="M3950 1000v-50l7.164 7.165v35.673"/>
  <path fill="#8B5F3D" d="M3992.834 957.165h-35.67L3950 950h50"/>
  <path fill="#A97D51" d="M3957.164 957.165h35.67v35.673h-35.67z"/>
  <path fill="#764E2A" d="M4050 950l-7.166 7.165h-35.67L4000 950"/>
  <path fill="#8B5F3D" d="M4050 950v50l-7.166-7.162v-35.673"/>
  <path fill="#764E2A" d="M4050 1000h-50l7.164-7.162h35.67"/>
  <path fill="#8B5F3D" d="M4007.164 957.165v35.673L4000 1000v-50"/>
  <path fill="#A97D51" d="M4007.164 957.165h35.67v35.673h-35.67z"/>
  <path fill="#764E2A" d="M4100 1000l-7.166-7.162v-35.673L4100 950"/>
  <path fill="#8B5F3D" d="M4100 1000h-50l7.164-7.162h35.67"/>
  <path fill="#764E2A" d="M4050 1000v-50l7.164 7.165v35.673"/>
  <path fill="#8B5F3D" d="M4092.834 957.165h-35.67L4050 950h50"/>
  <path fill="#A97D51" d="M4057.164 957.165h35.67v35.673h-35.67z"/>
  <path fill="#764E2A" d="M4150 950l-7.166 7.165h-35.67L4100 950"/>
  <path fill="#8B5F3D" d="M4150 950v50l-7.166-7.162v-35.673"/>
  <path fill="#764E2A" d="M4150 1000h-50l7.164-7.162h35.67"/>
  <path fill="#8B5F3D" d="M4107.164 957.165v35.673L4100 1000v-50"/>
  <path fill="#A97D51" d="M4107.164 957.165h35.67v35.673h-35.67z"/>
  <path fill="#764E2A" d="M4200 1000l-7.166-7.162v-35.673L4200 950"/>
  <path fill="#8B5F3D" d="M4200 1000h-50l7.164-7.162h35.67"/>
  <path fill="#764E2A" d="M4150 1000v-50l7.164 7.165v35.673"/>
  <path fill="#8B5F3D" d="M4192.834 957.165h-35.67L4150 950h50"/>
  <path fill="#A97D51" d="M4157.164 957.165h35.67v35.673h-35.67z"/>
  <path fill="#764E2A" d="M4250 950l-7.166 7.165h-35.67L4200 950"/>
  <path fill="#8B5F3D" d="M4250 950v50l-7.166-7.162v-35.673"/>
  <path fill="#764E2A" d="M4250 1000h-50l7.164-7.162h35.67"/>
  <path fill="#8B5F3D" d="M4207.164 957.165v35.673L4200 1000v-50"/>
  <path fill="#A97D51" d="M4207.164 957.165h35.67v35.673h-35.67z"/>
  <path fill="#764E2A" d="M4300 1000l-7.166-7.162v-35.673L4300 950"/>
  <path fill="#8B5F3D" d="M4300 1000h-50l7.164-7.162h35.67"/>
  <path fill="#764E2A" d="M4250 1000v-50l7.164 7.165v35.673"/>
  <path fill="#8B5F3D" d="M4292.834 957.165h-35.67L4250 950h50"/>
  <path fill="#A97D51" d="M4257.164 957.165h35.67v35.673h-35.67z"/>
  <path fill="#764E2A" d="M4350 950l-7.166 7.165h-35.67L4300 950"/>
  <path fill="#8B5F3D" d="M4350 950v50l-7.166-7.162v-35.673"/>
  <path fill="#764E2A" d="M4350 1000h-50l7.164-7.162h35.67"/>
  <path fill="#8B5F3D" d="M4307.164 957.165v35.673L4300 1000v-50"/>
  <path fill="#A97D51" d="M4307.164 957.165h35.67v35.673h-35.67z"/>
  <path fill="#764E2A" d="M4400 1000l-7.166-7.162v-35.673L4400 950"/>
  <path fill="#8B5F3D" d="M4400 1000h-50l7.164-7.162h35.67"/>
  <path fill="#764E2A" d="M4350 1000v-50l7.164 7.165v35.673"/>
  <path fill="#8B5F3D" d="M4392.834 957.165h-35.67L4350 950h50"/>
  <path fill="#A97D51" d="M4357.164 957.165h35.67v35.673h-35.67z"/>
  <path fill="#764E2A" d="M4450 950l-7.166 7.165h-35.67L4400 950"/>
  <path fill="#8B5F3D" d="M4450 950v50l-7.166-7.162v-35.673"/>
  <path fill="#764E2A" d="M4450 1000h-50l7.164-7.162h35.67"/>
  <path fill="#8B5F3D" d="M4407.164 957.165v35.673L4400 1000v-50"/>
  <path fill="#A97D51" d="M4407.164 957.165h35.67v35.673h-35.67z"/>
  <path fill="#764E2A" d="M4500 1000l-7.166-7.162v-35.673L4500 950"/>
  <path fill="#8B5F3D" d="M4500 1000h-50l7.164-7.162h35.67"/>
  <path fill="#764E2A" d="M4450 1000v-50l7.164 7.165v35.673"/>
  <path fill="#8B5F3D" d="M4492.834 957.165h-35.67L4450 950h50"/>
  <path fill="#A97D51" d="M4457.164 957.165h35.67v35.673h-35.67z"/>
  <path fill="#764E2A" d="M4550 950l-7.166 7.165h-35.67L4500 950"/>
  <path fill="#8B5F3D" d="M4550 950v50l-7.166-7.162v-35.673"/>
  <path fill="#764E2A" d="M4550 1000h-50l7.164-7.162h35.67"/>
  <path fill="#8B5F3D" d="M4507.164 957.165v35.673L4500 1000v-50"/>
  <path fill="#A97D51" d="M4507.164 957.165h35.67v35.673h-35.67z"/>
  <path fill="#764E2A" d="M4600 1000l-7.166-7.162v-35.673L4600 950"/>
  <path fill="#8B5F3D" d="M4600 1000h-50l7.164-7.162h35.67"/>
  <path fill="#764E2A" d="M4550 1000v-50l7.164 7.165v35.673"/>
  <path fill="#8B5F3D" d="M4592.834 957.165h-35.67L4550 950h50"/>
  <path fill="#A97D51" d="M4557.164 957.165h35.67v35.673h-35.67z"/>
  <path fill="#764E2A" d="M4650 950l-7.166 7.165h-35.67L4600 950"/>
  <path fill="#8B5F3D" d="M4650 950v50l-7.166-7.162v-35.673"/>
  <path fill="#764E2A" d="M4650 1000h-50l7.164-7.162h35.67"/>
  <path fill="#8B5F3D" d="M4607.164 957.165v35.673L4600 1000v-50"/>
  <path fill="#A97D51" d="M4607.164 957.165h35.67v35.673h-35.67z"/>
  <path fill="#764E2A" d="M4700 1000l-7.166-7.162v-35.673L4700 950"/>
  <path fill="#8B5F3D" d="M4700 1000h-50l7.164-7.162h35.67"/>
  <path fill="#764E2A" d="M4650 1000v-50l7.164 7.165v35.673"/>
  <path fill="#8B5F3D" d="M4692.834 957.165h-35.67L4650 950h50"/>
  <path fill="#A97D51" d="M4657.164 957.165h35.67v35.673h-35.67z"/>
  <path fill="#764E2A" d="M4750 950l-7.166 7.165h-35.67L4700 950"/>
  <path fill="#8B5F3D" d="M4750 950v50l-7.166-7.162v-35.673"/>
  <path fill="#764E2A" d="M4750 1000h-50l7.164-7.162h35.67"/>
  <path fill="#8B5F3D" d="M4707.164 957.165v35.673L4700 1000v-50"/>
  <path fill="#A97D51" d="M4707.164 957.165h35.67v35.673h-35.67z"/>
  <path fill="#764E2A" d="M4800 1000l-7.166-7.162v-35.673L4800 950"/>
  <path fill="#8B5F3D" d="M4800 1000h-50l7.164-7.162h35.67"/>
  <path fill="#764E2A" d="M4750 1000v-50l7.164 7.165v35.673"/>
  <path fill="#8B5F3D" d="M4792.834 957.165h-35.67L4750 950h50"/>
  <path fill="#A97D51" d="M4757.164 957.165h35.67v35.673h-35.67z"/>
  <path fill="#764E2A" d="M4850 950l-7.166 7.165h-35.67L4800 950"/>
  <path fill="#8B5F3D" d="M4850 950v50l-7.166-7.162v-35.673"/>
  <path fill="#764E2A" d="M4850 1000h-50l7.164-7.162h35.67"/>
  <path fill="#8B5F3D" d="M4807.164 957.165v35.673L4800 1000v-50"/>
  <path fill="#A97D51" d="M4807.164 957.165h35.67v35.673h-35.67z"/>
  <path fill="#764E2A" d="M4900 1000l-7.166-7.162v-35.673L4900 950"/>
  <path fill="#8B5F3D" d="M4900 1000h-50l7.164-7.162h35.67"/>
  <path fill="#764E2A" d="M4850 1000v-50l7.164 7.165v35.673"/>
  <path fill="#8B5F3D" d="M4892.834 957.165h-35.67L4850 950h50"/>
  <path fill="#A97D51" d="M4857.164 957.165h35.67v35.673h-35.67z"/>
  <path fill="#764E2A" d="M4950 950l-7.166 7.165h-35.67L4900 950"/>
  <path fill="#8B5F3D" d="M4950 950v50l-7.166-7.162v-35.673"/>
  <path fill="#764E2A" d="M4950 1000h-50l7.164-7.162h35.67"/>
  <path fill="#8B5F3D" d="M4907.164 957.165v35.673L4900 1000v-50"/>
  <path fill="#A97D51" d="M4907.164 957.165h35.67v35.673h-35.67z"/>
  <path fill="#764E2A" d="M5000 1000l-7.166-7.162v-35.673L5000 950"/>
  <path fill="#8B5F3D" d="M5000 1000h-50l7.164-7.162h35.67"/>
  <path fill="#764E2A" d="M4950 1000v-50l7.164 7.165v35.673"/>
  <path fill="#8B5F3D" d="M4992.834 957.165h-35.67L4950 950h50"/>
  <path fill="#A97D51" d="M4957.164 957.165h35.67v35.673h-35.67z"/>
  <path fill="#764E2A" d="M5050 950l-7.166 7.165h-35.67L5000 950"/>
  <path fill="#8B5F3D" d="M5050 950v50l-7.166-7.162v-35.673"/>
  <path fill="#764E2A" d="M5050 1000h-50l7.164-7.162h35.67"/>
  <path fill="#8B5F3D" d="M5007.164 957.165v35.673L5000 1000v-50"/>
  <path fill="#A97D51" d="M5007.164 957.165h35.67v35.673h-35.67z"/>
  <path fill="#764E2A" d="M5100 1000l-7.166-7.162v-35.673L5100 950"/>
  <path fill="#8B5F3D" d="M5100 1000h-50l7.164-7.162h35.67"/>
  <path fill="#764E2A" d="M5050 1000v-50l7.164 7.165v35.673"/>
  <path fill="#8B5F3D" d="M5092.834 957.165h-35.67L5050 950h50"/>
  <path fill="#A97D51" d="M5057.164 957.165h35.67v35.673h-35.67z"/>
  <path fill="#764E2A" d="M5150 950l-7.166 7.165h-35.67L5100 950"/>
  <path fill="#8B5F3D" d="M5150 950v50l-7.166-7.162v-35.673"/>
  <path fill="#764E2A" d="M5150 1000h-50l7.164-7.162h35.67"/>
  <path fill="#8B5F3D" d="M5107.164 957.165v35.673L5100 1000v-50"/>
  <path fill="#A97D51" d="M5107.164 957.165h35.67v35.673h-35.67z"/>
  <path fill="#764E2A" d="M5200 1000l-7.166-7.162v-35.673L5200 950"/>
  <path fill="#8B5F3D" d="M5200 1000h-50l7.164-7.162h35.67"/>
  <path fill="#764E2A" d="M5150 1000v-50l7.164 7.165v35.673"/>
  <path fill="#8B5F3D" d="M5192.834 957.165h-35.67L5150 950h50"/>
  <path fill="#A97D51" d="M5157.164 957.165h35.67v35.673h-35.67z"/>
  <path fill="#764E2A" d="M5250 950l-7.166 7.165h-35.67L5200 950"/>
  <path fill="#8B5F3D" d="M5250 950v50l-7.166-7.162v-35.673"/>
  <path fill="#764E2A" d="M5250 1000h-50l7.164-7.162h35.67"/>
  <path fill="#8B5F3D" d="M5207.164 957.165v35.673L5200 1000v-50"/>
  <path fill="#A97D51" d="M5207.164 957.165h35.67v35.673h-35.67z"/>
  <path fill="#764E2A" d="M5300 1000l-7.166-7.162v-35.673L5300 950"/>
  <path fill="#8B5F3D" d="M5300 1000h-50l7.164-7.162h35.67"/>
  <path fill="#764E2A" d="M5250 1000v-50l7.164 7.165v35.673"/>
  <path fill="#8B5F3D" d="M5292.834 957.165h-35.67L5250 950h50"/>
  <path fill="#A97D51" d="M5257.164 957.165h35.67v35.673h-35.67z"/>
  <path fill="#764E2A" d="M5350 950l-7.166 7.165h-35.67L5300 950"/>
  <path fill="#8B5F3D" d="M5350 950v50l-7.166-7.162v-35.673"/>
  <path fill="#764E2A" d="M5350 1000h-50l7.164-7.162h35.67"/>
  <path fill="#8B5F3D" d="M5307.164 957.165v35.673L5300 1000v-50"/>
  <path fill="#A97D51" d="M5307.164 957.165h35.67v35.673h-35.67z"/>
  <path fill="#764E2A" d="M5400 1000l-7.166-7.162v-35.673L5400 950"/>
  <path fill="#8B5F3D" d="M5400 1000h-50l7.164-7.162h35.67"/>
  <path fill="#764E2A" d="M5350 1000v-50l7.164 7.165v35.673"/>
  <path fill="#8B5F3D" d="M5392.834 957.165h-35.67L5350 950h50"/>
  <path fill="#A97D51" d="M5357.164 957.165h35.67v35.673h-35.67z"/>
  <path fill="#764E2A" d="M5450 950l-7.166 7.165h-35.67L5400 950"/>
  <path fill="#8B5F3D" d="M5450 950v50l-7.166-7.162v-35.673"/>
  <path fill="#764E2A" d="M5450 1000h-50l7.164-7.162h35.67"/>
  <path fill="#8B5F3D" d="M5407.164 957.165v35.673L5400 1000v-50"/>
  <path fill="#A97D51" d="M5407.164 957.165h35.67v35.673h-35.67z"/>
  <path fill="#764E2A" d="M5500 1000l-7.166-7.162v-35.673L5500 950"/>
  <path fill="#8B5F3D" d="M5500 1000h-50l7.164-7.162h35.67"/>
  <path fill="#764E2A" d="M5450 1000v-50l7.164 7.165v35.673"/>
  <path fill="#8B5F3D" d="M5492.834 957.165h-35.67L5450 950h50"/>
  <path fill="#A97D51" d="M5457.164 957.165h35.67v35.673h-35.67z"/>
  <path fill="#764E2A" d="M5550 950l-7.166 7.165h-35.67L5500 950"/>
  <path fill="#8B5F3D" d="M5550 950v50l-7.166-7.162v-35.673"/>
  <path fill="#764E2A" d="M5550 1000h-50l7.164-7.162h35.67"/>
  <path fill="#8B5F3D" d="M5507.164 957.165v35.673L5500 1000v-50"/>
  <path fill="#A97D51" d="M5507.164 957.165h35.67v35.673h-35.67z"/>
  <path fill="#764E2A" d="M5600 1000l-7.166-7.162v-35.673L5600 950"/>
  <path fill="#8B5F3D" d="M5600 1000h-50l7.164-7.162h35.67"/>
  <path fill="#764E2A" d="M5550 1000v-50l7.164 7.165v35.673"/>
  <path fill="#8B5F3D" d="M5592.834 957.165h-35.67L5550 950h50"/>
  <path fill="#A97D51" d="M5557.164 957.165h35.67v35.673h-35.67z"/>
  <path fill="#764E2A" d="M5650 950l-7.166 7.165h-35.67L5600 950"/>
  <path fill="#8B5F3D" d="M5650 950v50l-7.166-7.162v-35.673"/>
  <path fill="#764E2A" d="M5650 1000h-50l7.164-7.162h35.67"/>
  <path fill="#8B5F3D" d="M5607.164 957.165v35.673L5600 1000v-50"/>
  <path fill="#A97D51" d="M5607.164 957.165h35.67v35.673h-35.67z"/>
  <path fill="#764E2A" d="M5700 1000l-7.166-7.162v-35.673L5700 950"/>
  <path fill="#8B5F3D" d="M5700 1000h-50l7.164-7.162h35.67"/>
  <path fill="#764E2A" d="M5650 1000v-50l7.164 7.165v35.673"/>
  <path fill="#8B5F3D" d="M5692.834 957.165h-35.67L5650 950h50"/>
  <path fill="#A97D51" d="M5657.164 957.165h35.67v35.673h-35.67z"/>
  <path fill="#764E2A" d="M5750 950l-7.166 7.165h-35.67L5700 950"/>
  <path fill="#8B5F3D" d="M5750 950v50l-7.166-7.162v-35.673"/>
  <path fill="#764E2A" d="M5750 1000h-50l7.164-7.162h35.67"/>
  <path fill="#8B5F3D" d="M5707.164 957.165v35.673L5700 1000v-50"/>
  <path fill="#A97D51" d="M5707.164 957.165h35.67v35.673h-35.67z"/>
  <path fill="#764E2A" d="M5800 1000l-7.166-7.162v-35.673L5800 950"/>
  <path fill="#8B5F3D" d="M5800 1000h-50l7.164-7.162h35.67"/>
  <path fill="#764E2A" d="M5750 1000v-50l7.164 7.165v35.673"/>
  <path fill="#8B5F3D" d="M5792.834 957.165h-35.67L5750 950h50"/>
  <path fill="#A97D51" d="M5757.164 957.165h35.67v35.673h-35.67z"/>
  <path fill="#764E2A" d="M5850 950l-7.166 7.165h-35.67L5800 950"/>
  <path fill="#8B5F3D" d="M5850 950v50l-7.166-7.162v-35.673"/>
  <path fill="#764E2A" d="M5850 1000h-50l7.164-7.162h35.67"/>
  <path fill="#8B5F3D" d="M5807.164 957.165v35.673L5800 1000v-50"/>
  <path fill="#A97D51" d="M5807.164 957.165h35.67v35.673h-35.67z"/>
  <path fill="#764E2A" d="M5900 1000l-7.166-7.162v-35.673L5900 950"/>
  <path fill="#8B5F3D" d="M5900 1000h-50l7.164-7.162h35.67"/>
  <path fill="#764E2A" d="M5850 1000v-50l7.164 7.165v35.673"/>
  <path fill="#8B5F3D" d="M5892.834 957.165h-35.67L5850 950h50"/>
  <path fill="#A97D51" d="M5857.164 957.165h35.67v35.673h-35.67z"/>
  <path fill="#764E2A" d="M5950 950l-7.166 7.165h-35.67L5900 950"/>
  <path fill="#8B5F3D" d="M5950 950v50l-7.166-7.162v-35.673"/>
  <path fill="#764E2A" d="M5950 1000h-50l7.164-7.162h35.67"/>
  <path fill="#8B5F3D" d="M5907.164 957.165v35.673L5900 1000v-50"/>
  <path fill="#A97D51" d="M5907.164 957.165h35.67v35.673h-35.67z"/>
  <path fill="#764E2A" d="M6000 1000l-7.166-7.162v-35.673L6000 950"/>
  <path fill="#8B5F3D" d="M6000 1000h-50l7.164-7.162h35.67"/>
  <path fill="#764E2A" d="M5950 1000v-50l7.164 7.165v35.673"/>
  <path fill="#8B5F3D" d="M5992.834 957.165h-35.67L5950 950h50"/>
  <path fill="#A97D51" d="M5957.164 957.165h35.67v35.673h-35.67z"/>
  <path fill="#08A650" d="M764.121 800H254.086C415.973 622.231 457.97 578.305 507.937 577.009c.378-.016.757-.024 1.135-.024h.065c.378 0 .756.012 1.135.024 49.966 1.296 91.963 45.222 253.849 222.991zm2094.733 0h-432.041c137.131-150.584 172.706-187.794 215.032-188.894.319-.011.641-.021.961-.021h.056c.32 0 .643.01.961.021 42.326 1.1 77.902 38.31 215.031 188.894z"/>
  <path fill="#764E2A" d="M400 611.08v.03c-.29-.011-.58-.021-.87-.021.29-.009.58-.009.87-.009zm-.923.013c-.29 0-.577.01-.867.021v-.03c.29-.004.577-.004.867.009z"/>
  <path fill="#046938" d="M577.162 800c-30.555-56.92 71.981-133.416 106.958-82.419 1.979-74.993 74.609-81.485 93.042-16.742-8.563-85.25 96.406-65.438 96.417-12.349 15.013-39.902 60.011 18.678 28.513 32.884 26.999-5.293 30.147 29.206 14.326 39.705 23.172-25.499 52.993-31.499 78.582-4.5-11.912-34.498 62.086-49.421 67.834-3 10.25-28.498 74.743 13.349 41.745 46.421H577.162zm2511.653 0c-24.338-45.337 57.333-106.268 85.191-65.646 1.575-59.734 59.428-64.905 74.106-13.337-6.823-67.902 76.788-52.12 76.797-9.834 59.572-16.104 46.723 49.455 34.119 57.817 18.456-20.313 76.155 4.653 49.873 31.001-32.253-.001-320.086-.001-320.086-.001zM1210.258 675.666h179.479v225h-179.479z"/>
  <path fill="#05763E" d="M1300 699.367h89.737v201.299H1300z"/>
  <path fill="#064D28" d="M1200 675.704h200v76.374h-200z"/>
  <path fill="#06582E" d="M1300 675.704h100v76.374h-100z"/>
  <path fill="#046938" d="M3735.258 675.666h179.479v225h-179.479z"/>
  <path fill="#05763E" d="M3825 699.367h89.737v201.299H3825z"/>
  <path fill="#064D28" d="M3725 675.704h200v76.374h-200z"/>
  <path fill="#06582E" d="M3825 675.704h100v76.374h-100z"/>
  <path fill="#F2F2F2" d="M1256.468 120.035c17.677-29.256 60.646-12.494 53.331 15.848 15.542-25.599 81.368-8.24 77.711 19.192 34.742-24.069 79.845 46.634 1.83 50.9.605 34.36-79.235 49.369-84.724 6.705-11.581 37.789-90.813 35.652-85.331.914-20.111 24.685-74.054 12.799-76.797-4.571-2.742-17.371 14.628-56.698 63.998-53.948-33.827-27.421 24.993-64.296 49.982-35.04z"/>
  <path fill="#08A650" d="M4895.873 800h-386.525c122.684-134.721 154.512-168.01 192.378-168.991.286-.013.573-.021.86-.021h.049c.287 0 .571.009.858.021 37.866.981 69.695 34.27 192.38 168.991z"/>
  <path fill="#046938" d="M5007.023 800c-23.043-42.928 54.287-100.617 80.666-62.156 1.492-56.562 56.27-61.456 70.17-12.628-6.461-64.294 72.707-49.353 72.715-9.313 11.318-30.095 45.258 14.086 21.502 24.8 20.361-3.99 22.736 22.026 10.807 29.944 17.476-19.23 39.967-23.756 59.265-3.394-8.983-26.02 46.823-37.271 51.159-2.265 7.73-21.492 56.371 10.066 31.484 35.012h-397.768z"/>
  <path fill="#F2F2F2" d="M5444.152 207.846c17.677-29.258 60.646-12.494 53.331 15.848 15.542-25.599 81.368-8.242 77.711 19.192 34.742-24.069 79.847 46.634 1.83 50.898.606 34.362-79.233 49.369-84.724 6.705-11.58 37.789-90.813 35.654-85.33.914-20.111 24.687-74.055 12.799-76.797-4.571-2.742-17.371 14.627-56.696 63.998-53.946-33.823-27.421 24.993-64.296 49.981-35.04zM4376.971 388.748c-12.984 21.489-44.546 9.179-39.173-11.641-11.416 18.803-59.769 6.054-57.082-14.098-25.519 17.68-58.647-34.254-1.345-37.39-.445-25.24 58.201-36.263 62.229-4.925 8.507-27.757 66.707-26.189 62.681-.671 14.771-18.131 54.395-9.399 56.408 3.358 2.016 12.76-10.744 41.646-47.008 39.626 24.846 20.144-18.355 47.23-36.71 25.741z"/>
  <path fill="#E7E7E7" d="M1469.341 191.548c11.044-18.275 37.891-7.806 33.317 9.901 9.711-15.994 50.837-5.149 48.555 11.991 21.707-15.037 49.887 29.136 1.144 31.802.381 21.469-49.505 30.846-52.933 4.188-7.234 23.608-56.74 22.275-53.313.569-12.564 15.423-46.268 7.997-47.979-2.854-1.716-10.854 9.14-35.423 39.981-33.706-21.134-17.13 15.616-40.168 31.228-21.891zm1611.275 23.613c15.213-25.178 52.193-10.753 45.898 13.639 13.377-22.028 70.024-7.093 66.881 16.52 29.897-20.713 68.718 40.135 1.574 43.807.521 29.574-68.192 42.489-72.913 5.771-9.969 32.523-78.16 30.688-73.438.788-17.311 21.245-63.73 11.016-66.095-3.937-2.36-14.95 12.59-48.796 55.078-46.43-29.111-23.6 21.51-55.336 43.015-30.158zM230.537 369.694c-14.157 23.43-48.569 10.006-42.711-12.688-12.448 20.501-65.165 6.601-62.236-15.37-27.825 19.272-63.946-37.351-1.465-40.768-.489-27.52 63.457-39.539 67.85-5.369 9.274-30.265 72.732-28.556 68.338-.73 16.108-19.771 59.311-10.25 61.505 3.661 2.197 13.912-11.716 45.407-51.253 43.206 27.089 21.958-20.015 51.488-40.028 28.058z"/>
  <path fill="none" d="M2475.069 800.343l-.162-.162M2675.229 900.5l-.16-.157m.16-100.162l-.16.162m-200 100l-.162.157"/>
  <path fill="#764E2A" d="M2490.582 765.703l12.897-12.896 64.206.001 12.897 12.895"/>
  <path fill="#8B5F3D" d="M2490.582 765.703v-90l12.897 12.899v64.205"/>
  <path fill="#764E2A" d="M2490.582 675.703h90l-12.897 12.9-64.206-.001"/>
  <path fill="#8B5F3D" d="M2567.685 752.808v-64.205l12.897-12.9v90"/>
  <path fill="#A97D51" d="M2503.479 688.602h64.205v64.205h-64.205z"/>
  <path fill="#764E2A" d="M2670.582 765.705l-12.896-12.895v-64.206l12.896-12.899"/>
  <path fill="#8B5F3D" d="M2670.582 765.705h-90l12.897-12.895h64.207"/>
  <path fill="#764E2A" d="M2580.582 765.705v-90l12.897 12.899v64.206"/>
  <path fill="#8B5F3D" d="M2657.686 688.604h-64.207l-12.897-12.899h90"/>
  <path fill="#A97D51" d="M2593.479 688.604h64.205v64.205h-64.205z"/>
  <path fill="#764E2A" d="M2490.582 765.705l-12.896-12.897v-64.205l12.896-12.898"/>
  <path fill="#8B5F3D" d="M2490.582 765.705h-90l12.897-12.897h64.207"/>
  <path fill="#764E2A" d="M2400.582 765.705v-90l12.897 12.898v64.205"/>
  <path fill="#8B5F3D" d="M2477.686 688.603h-64.207l-12.897-12.898h90"/>
  <path fill="#A97D51" d="M2413.479 688.603h64.205v64.205h-64.205z"/>
  <path fill="#764E2A" d="M3292.464 808.473l12.896 12.895v64.205l-12.896 12.9"/>
  <path fill="#8B5F3D" d="M3292.464 808.473h90l-12.899 12.895h-64.205"/>
  <path fill="#764E2A" d="M3382.464 808.473v90l-12.899-12.9v-64.205"/>
  <path fill="#8B5F3D" d="M3305.36 885.573h64.205l12.899 12.9h-90"/>
  <path fill="#A97D51" d="M3305.36 821.368h64.205v64.205h-64.205z"/>
  <path fill="#764E2A" d="M3382.465 898.473l12.895-12.899h64.205l12.9 12.899"/>
  <path fill="#8B5F3D" d="M3382.465 898.473v-90l12.895 12.896v64.205"/>
  <path fill="#764E2A" d="M3382.465 808.473h90l-12.9 12.896h-64.205"/>
  <path fill="#8B5F3D" d="M3459.565 885.574v-64.205l12.9-12.896v90"/>
  <path fill="#A97D51" d="M3395.36 821.369h64.205v64.205h-64.205z"/>
  <path fill="#764E2A" d="M3292.464 808.473l-12.898 12.896h-64.205l-12.897-12.896"/>
  <path fill="#8B5F3D" d="M3292.464 808.473v90l-12.898-12.899v-64.205"/>
  <path fill="#764E2A" d="M3292.464 898.473h-90l12.897-12.899h64.205"/>
  <path fill="#8B5F3D" d="M3215.361 821.369v64.205l-12.897 12.899v-90"/>
  <path fill="#A97D51" d="M3215.361 821.369h64.205v64.205h-64.205z"/>
  <path fill="#424143" d="M3331.975 148.473h10.979v660h-10.979z"/>
  <circle cx="3337.464" cy="148.472" r="15.194" fill="#08A650"/>
</svg>
