<?xml version="1.0" encoding="utf-8"?>
<!-- Generator: Adobe Illustrator 16.0.0, SVG Export Plug-In . SVG Version: 6.00 Build 0)  -->
<!DOCTYPE svg PUBLIC "-//W3C//DTD SVG 1.1//EN" "http://www.w3.org/Graphics/SVG/1.1/DTD/svg11.dtd">
<svg version="1.1" id="Layer_1" xmlns="http://www.w3.org/2000/svg" xmlns:xlink="http://www.w3.org/1999/xlink" x="0px" y="0px"
	 width="100px" height="100px" viewBox="0 0 100 100" enable-background="new 0 0 100 100" xml:space="preserve">
<circle fill="#FFFFFF" cx="50" cy="50" r="50"/>
<circle fill="#E6E7E8" cx="50" cy="50" r="42.276"/>
<g>
	<circle fill="#5ACAEA" cx="41.026" cy="35.645" r="6.928"/>
	<path fill="#5ACAEA" d="M54.521,53.111H27.534c0-5.816,6.045-10.539,13.491-10.539C48.474,42.573,54.521,47.295,54.521,53.111z"/>
</g>
<g>
	<polygon fill="#5ACAEA" points="70,55.889 70,68.333 69.363,68.333 69.363,56.479 54.521,56.479 54.521,68.333 53.884,68.333 
		53.884,55.889 	"/>
	<polygon fill="#5ACAEA" points="51.397,55.889 61.945,50.646 72.755,55.889 	"/>
	<rect x="55.307" y="66.403" fill="#5ACAEA" width="2.416" height="1.93"/>
	<rect x="58.51" y="66.403" fill="#5ACAEA" width="2.415" height="1.93"/>
	<rect x="55.307" y="63.687" fill="#5ACAEA" width="2.416" height="1.93"/>
	<rect x="55.307" y="60.971" fill="#5ACAEA" width="2.416" height="1.93"/>
	<rect x="61.711" y="66.403" fill="#5ACAEA" width="2.417" height="1.93"/>
	<rect x="58.51" y="63.687" fill="#5ACAEA" width="2.415" height="1.93"/>
</g>
</svg>
