<?xml version="1.0" encoding="utf-8"?>
<!-- Generator: Adobe Illustrator 16.0.0, SVG Export Plug-In . SVG Version: 6.00 Build 0)  -->
<!DOCTYPE svg PUBLIC "-//W3C//DTD SVG 1.1//EN" "http://www.w3.org/Graphics/SVG/1.1/DTD/svg11.dtd">
<svg version="1.1" id="Layer_1" xmlns="http://www.w3.org/2000/svg" xmlns:xlink="http://www.w3.org/1999/xlink" x="0px" y="0px"
	 width="434.945px" height="245.969px" viewBox="0 0 434.945 245.969" enable-background="new 0 0 434.945 245.969"
	 xml:space="preserve">
<rect fill="#3A3A3C" width="434.945" height="245.969"/>
<rect x="22" y="22" fill="#25AAE1" width="390" height="201"/>
<g>
	<rect x="126.013" y="61.107" fill="#FFFFFF" width="60.662" height="61.877"/>
	<rect x="65.355" y="61.107" width="60.658" height="61.877"/>
	<rect x="186.675" y="61.107" width="60.659" height="61.877"/>
	<g>
		<path fill="#FFFFFF" d="M102.482,78.167c1.702,0.752,3.198,1.774,4.487,3.066l-3.973,4.053c-1.673-1.683-3.66-2.524-5.96-2.524
			c-2.323,0-4.307,0.844-5.951,2.533c-1.644,1.688-2.465,3.712-2.465,6.071c0,2.37,0.821,4.394,2.465,6.07
			c1.645,1.677,3.628,2.516,5.951,2.516s4.31-0.841,5.96-2.524l3.973,4.053c-1.289,1.304-2.785,2.332-4.487,3.084
			c-1.701,0.752-3.517,1.129-5.445,1.129c-3.868,0-7.177-1.401-9.924-4.204s-4.121-6.177-4.121-10.124
			c0-3.935,1.374-7.306,4.121-10.115c2.747-2.809,6.056-4.213,9.924-4.213C98.965,77.039,100.781,77.415,102.482,78.167z"/>
	</g>
	<g>
		<path fill="#231F20" d="M150.763,101.606l-1.813,4.088h-0.959h-0.227h-3.624h-1.185l12.023-27.322l0.592-1.333l0.61,1.351
			l12.041,27.305h-1.185h-3.625h-0.244h-0.958l-1.795-4.106l-0.087-0.195h-9.479L150.763,101.606z M157.786,95.668l-2.196-5.013
			l-2.213,5.013H157.786z"/>
	</g>
	<g>
		<path fill="#FFFFFF" d="M208.858,97.09V87.064V77.039h5.629h4.199c2.707,0,5.025,0.984,6.953,2.951s2.893,4.325,2.893,7.075
			c0,2.133-0.596,4.05-1.785,5.751c-1.191,1.701-2.711,2.906-4.559,3.617l6.344,9.262h-6.865l-7.179-10.488v10.488h-5.629V97.09z
			 M218.686,91.367c1.162,0,2.156-0.421,2.98-1.262c0.824-0.842,1.236-1.855,1.236-3.04c0-1.173-0.412-2.184-1.236-3.031
			s-1.818-1.271-2.98-1.271h-4.199v4.302v4.302H218.686z"/>
	</g>
	<rect x="247.334" y="61.107" fill="#FFFFFF" width="60.65" height="61.877"/>
	<rect x="307.984" y="61.107" width="60.66" height="61.877"/>
	<rect x="65.359" y="122.984" fill="#FFFFFF" width="60.662" height="61.877"/>
	<rect x="307.982" y="122.984" fill="#FFFFFF" width="60.662" height="61.877"/>
	<rect x="126.021" y="122.984" width="60.658" height="61.877"/>
	<rect x="186.679" y="122.984" fill="#FFFFFF" width="60.651" height="61.877"/>
	<rect x="247.33" y="122.984" width="60.66" height="61.877"/>
	<g>
		<path fill="#231F20" d="M266.764,97.09V87.064V77.039h5.629h4.199c2.707,0,5.023,0.984,6.953,2.951
			c1.928,1.967,2.893,4.325,2.893,7.075c0,2.761-0.965,5.123-2.893,7.084c-1.93,1.961-4.246,2.942-6.953,2.942h-4.199v8.604h-5.629
			V97.09z M276.592,91.367c1.16,0,2.154-0.421,2.979-1.262c0.826-0.842,1.238-1.855,1.238-3.04c0-1.173-0.412-2.184-1.238-3.031
			c-0.824-0.847-1.818-1.271-2.979-1.271h-4.199v4.302v4.302H276.592z"/>
	</g>
	<g>
		<path fill="#FFFFFF" d="M348.457,77.039v5.724h-11.223v5.742h8.416v5.724h-8.416v5.724h11.223v5.742h-11.223h-5.629V94.229v-5.724
			V77.039H348.457z"/>
	</g>
	<g>
		<path fill="#231F20" d="M98.965,142.252c2.753,2.809,4.13,6.18,4.13,10.115c0,3.945-1.377,7.32-4.13,10.123
			c-2.754,2.803-6.059,4.204-9.915,4.204h-5.629v-28.655h5.629C92.907,138.039,96.211,139.443,98.965,142.252z M94.992,158.438
			c1.649-1.678,2.475-3.701,2.475-6.07c0-2.359-0.825-4.383-2.475-6.071s-3.63-2.533-5.941-2.533v17.19
			C91.362,160.953,93.342,160.114,94.992,158.438z"/>
	</g>
	<g>
		<path fill="#FFFFFF" d="M153.539,138.039h5.629v28.655h-5.629V138.039z"/>
	</g>
	<g>
		<path fill="#231F20" d="M222.686,138.039v5.724h-11.222v5.741h8.416v5.725h-8.416v5.725h11.222v5.741h-11.222h-5.629v-11.466
			v-5.725v-11.465H222.686z"/>
	</g>
	<g>
		<path fill="#FFFFFF" d="M277.875,156.668l13.695-18.629v28.655h-5.627v-11.466l-8.068,11.004l-8.068-11.004v11.466h-5.629v-28.655
			L277.875,156.668z"/>
	</g>
</g>
</svg>
