<?xml version="1.0" encoding="utf-8"?>
<!-- Generator: Adobe Illustrator 16.0.0, SVG Export Plug-In . SVG Version: 6.00 Build 0)  -->
<!DOCTYPE svg PUBLIC "-//W3C//DTD SVG 1.1//EN" "http://www.w3.org/Graphics/SVG/1.1/DTD/svg11.dtd">
<svg version="1.1" id="Layer_1" xmlns="http://www.w3.org/2000/svg" xmlns:xlink="http://www.w3.org/1999/xlink" x="0px" y="0px"
	 width="606.512px" height="595.281px" viewBox="117.689 0 606.512 595.281" enable-background="new 117.689 0 606.512 595.281"
	 xml:space="preserve">
<path fill="#121112" d="M214.281,595.281l36.121-193.018h-76.668l-20.666,193.018"/>
<path fill="#231F20" d="M230.5,595.281l39.805-193.018h-19.902l-36.121,193.018"/>
<path fill="#121112" d="M214.281,595.281h36.121l-33.111-16.084"/>
<path fill="#D8D8D7" d="M270.305,191.95l40.569,184.717h9.569L284.323,191.95"/>
<path fill="#F2F2F2" d="M270.305,191.95h-56.023l51.599,184.717h44.994"/>
<path fill="#4A2A72" d="M262.577,376.667h48.297l-10.165-46.196h-47.734"/>
<path fill="#FFFFFF" d="M153.079,402.263H230.5l5.166-215.144H133.907"/>
<path fill="#E6E7E8" d="M230.5,402.263h39.805l19.173-215.144h-53.822"/>
<path fill="#FFFFFF" d="M203.948,191.95l-36.863,184.717h-49.396l20.644-184.717"/>
<path fill="#E6E7E8" d="M167.085,376.667h9.604l42.007-184.717h-14.747"/>
<path fill="#F3E5C2" d="M219.167,187.087h-35.212v-10.445h35.212V187.087z"/>
<path fill="#E4D6B6" d="M235.656,187.087h-16.96v-10.445h16.96V187.087z"/>
<path fill="#191818" d="M230.511,402.263l53.834,193.018h-61.213l-70.063-193.018"/>
<path fill="#0C0C0C" d="M284.323,595.281h16.959l-50.879-193.018H230.5"/>
<path fill="#652D90" d="M122.856,330.47h53.439l-9.21,46.196h-49.396"/>
<path fill="#562C80" d="M167.085,376.667h9.593l10.501-46.196h-10.86"/>
<path fill="#422666" d="M310.874,376.667h9.569l-9.03-46.196H300.72"/>
<path fill="#F6921E" stroke="#231F20" stroke-miterlimit="10" d="M250.403,402.263l12.175-215.144"/>
<ellipse fill="#231F20" cx="252.974" cy="290.407" rx="2.224" ry="6.099"/>
<path fill="#191818" d="M284.333,595.281h36.121l-40.805-16.702"/>
<path fill="#0C0C0C" d="M279.672,578.579l40.771,16.702l-23.564-16.702"/>
<path fill="#FFF0CD" d="M218.696,84.631v92.011H164.48l-3.661-92.011"/>
<path fill="#F3E5C2" d="M218.696,176.641h40.209l3.673-92.011h-43.882"/>
<path fill="#F6921E" d="M270.305,56.462l-51.609,28.169h-57.877"/>
<path fill="#E08026" d="M262.555,84.631l7.75-28.169l-51.609,28.169"/>
<path fill="#26A9E0" stroke="#231F20" stroke-width="2" stroke-linecap="round" stroke-linejoin="round" stroke-miterlimit="10" d="
	M218.696,106.409l21.936,30.663l21.946-20.757L218.696,106.409z"/>
<path fill="#E4D6B6" stroke="#231F20" stroke-width="2" stroke-linecap="round" stroke-miterlimit="10" d="M232.926,155.402
	l27.068,5.278"/>
<path fill="#E4D6B6" d="M194.671,130.625l-15.051-19.992h15.051"/>
<path fill="#231F20" d="M256.332,115.698l-4.874,4.29l-4.83-6.48"/>
<path fill="#E08026" d="M160.819,84.698l26.327-19.655l83.159-8.581"/>
<path fill="#F3E5C2" d="M418.17,186.503h-35.223v-10.445h35.223V186.503z"/>
<path fill="#E4D6B6" d="M434.648,186.503h-16.96v-10.445h16.96V186.503z"/>
<path fill="#FFF0CD" d="M417.688,84.047v92.011h-54.204l-3.662-92.011"/>
<path fill="#F3E5C2" d="M417.698,176.057h40.209l3.662-92.011h-43.882"/>
<path fill="#F6921E" d="M469.308,55.855l-51.62,28.191h-57.866"/>
<path fill="#E08026" d="M461.558,84.047l7.75-28.191l-51.62,28.191"/>
<path fill="#26A9E0" stroke="#231F20" stroke-width="2" stroke-linecap="round" stroke-linejoin="round" stroke-miterlimit="10" d="
	M417.698,105.825l21.936,30.663l21.936-20.757L417.698,105.825z"/>
<path fill="#E4D6B6" stroke="#231F20" stroke-width="2" stroke-linecap="round" stroke-miterlimit="10" d="M431.918,154.806
	l27.068,5.279"/>
<path fill="#E4D6B6" d="M393.674,130.052l-15.051-20.015h15.051"/>
<path fill="#231F20" d="M455.324,115.102l-4.886,4.291l-4.784-6.481"/>
<path fill="#E08026" d="M359.822,84.047l26.305-19.599l83.182-8.581"/>
<path fill="#FFFFFF" d="M553.242,400.254h77.42l5.167-215.155H534.071"/>
<path fill="#E6E7E8" d="M630.64,400.254h39.839l19.173-215.155h-53.845"/>
<path fill="#F3E5C2" d="M618.622,185.098h-35.233v-10.445h35.233V185.098z"/>
<path fill="#E4D6B6" d="M635.099,185.098h-16.96v-10.445h16.96V185.098z"/>
<path fill="#FFF0CD" d="M618.173,82.542v92.1h-54.238l-3.661-92.021"/>
<path fill="#F3E5C2" d="M618.139,174.641h40.21l3.661-92.021h-43.859"/>
<path fill="#F6921E" d="M669.749,54.451l-51.599,28.17h-57.877"/>
<path fill="#E08026" d="M661.999,82.621l7.75-28.17l-51.599,28.17"/>
<path fill="#26A9E0" stroke="#231F20" stroke-width="2" stroke-linecap="round" stroke-linejoin="round" stroke-miterlimit="10" d="
	M618.184,104.41l21.902,30.662l21.924-20.756L618.184,104.41z"/>
<path fill="#E4D6B6" stroke="#231F20" stroke-width="2" stroke-linecap="round" stroke-miterlimit="10" d="M632.37,153.391
	l27.068,5.279"/>
<path fill="#E4D6B6" d="M594.115,128.636l-15.05-20.026h15.05"/>
<path fill="#231F20" d="M655.777,113.687l-4.886,4.291l-4.796-6.481"/>
<path fill="#E08026" d="M560.274,82.621l26.315-19.589l83.16-8.581"/>
<path fill="#121112" d="M712.25,590.069l-18.195-7.93l-44.478-181.875h-73.86l61.303,195.017H724.2"/>
<path fill="#231F20" d="M710.497,582.139l-40.49-181.875h-20.441l44.478,181.875l18.195,7.93l11.962,5.212"/>
<path fill="#191818" d="M586.05,582.151l43.804-181.887h-76.712L521.58,595.281h87.854l-9.39-5.279"/>
<path fill="#0C0C0C" d="M649.577,400.264h-19.724L586.05,582.139l13.995,7.862l9.39,5.279l-7.346-13.142"/>
<path fill="#F6921E" stroke="#231F20" stroke-miterlimit="10" d="M652.273,400.254l12.175-215.155"/>
<ellipse fill="#231F20" cx="654.844" cy="288.408" rx="2.224" ry="6.099"/>
<path fill="#FFFFFF" d="M602.932,189.928h-62.595l50.902,138.532h49.757"/>
<path fill="#E6E7E8" d="M615.893,189.939h-12.961l38.075,138.521h10.558"/>
<path fill="#652D90" d="M640.974,328.461H591.24l16.96,46.185h45.466"/>
<path fill="#562C80" d="M651.644,328.461h-10.558l12.59,46.185h9.795"/>
<path fill="#231F20" d="M469.454,400.254h-19.993l29.765,72.826l-5.616,27.742l-11.456,56.697l-0.382,1.842h13.837l6.043-25.091
	l15.129-62.853 M475.586,559.339h-13.837l29.719,16.017"/>
<path fill="#121112" d="M461.782,559.361l-41.332-7.412l0.382,11.489l70.647,11.906"/>
<path fill="#121112" d="M449.461,400.254h-34.144l5.054,151.538v0.157l41.333,7.413l0.449-1.843l11.501-56.697l5.616-27.742"/>
<path fill="#FFFFFF" d="M352.061,400.254h77.42l5.167-213.74h-101.76"/>
<path fill="#E6E7E8" d="M429.626,400.254h39.816l19.173-213.74h-53.822"/>
<path fill="none" d="M401.075,582.139h30.798"/>
<path fill="#FFFFFF" d="M342.48,189.939l3.572,39.581l9.075,100.355h49.621V189.928"/>
<path fill="#652D90" d="M355.127,329.876l4.043,44.77h45.578v-44.77"/>
<path fill="#E6E7E8" d="M404.748,189.928v139.947h8.93l0.898-100.355l0.337-39.592"/>
<path fill="#562C80" d="M404.648,329.876v44.77h8.648l0.393-44.77"/>
<path fill="#191818" d="M352.106,400.254l6.199,181.886h62.146l8.379-181.886 M420.45,582.139h-62.146l0.449,13.107l100.378,0.034"
	/>
<path fill="#0C0C0C" d="M434.793,582.139H420.45l38.682,13.142 M428.829,400.254l-8.379,181.886h14.343l14.713-181.886"/>
<path fill="#F6921E" stroke="#231F20" stroke-miterlimit="10" d="M449.248,401.669l12.164-215.155"/>
<ellipse fill="#231F20" cx="451.821" cy="289.823" rx="2.224" ry="6.099"/>
</svg>
