<?xml version="1.0" encoding="utf-8"?>
<!-- Generator: Adobe Illustrator 16.0.0, SVG Export Plug-In . SVG Version: 6.00 Build 0)  -->
<!DOCTYPE svg PUBLIC "-//W3C//DTD SVG 1.1//EN" "http://www.w3.org/Graphics/SVG/1.1/DTD/svg11.dtd">
<svg version="1.1" id="Layer_1" xmlns="http://www.w3.org/2000/svg" xmlns:xlink="http://www.w3.org/1999/xlink" x="0px" y="0px"
	 width="606.512px" height="595.281px" viewBox="117.689 0 606.512 595.281" enable-background="new 117.689 0 606.512 595.281"
	 xml:space="preserve">
<path fill="#121112" d="M688.821,595.281l-20.666-193.018h-76.668l36.121,193.018"/>
<path fill="#231F20" d="M627.608,595.281l-36.121-193.018h-19.902l39.805,193.018"/>
<path fill="#121112" d="M624.598,579.197l-33.111,16.084h36.121"/>
<path fill="#D8D8D7" d="M557.567,191.95l-36.121,184.717h9.569l40.569-184.717"/>
<path fill="#F2F2F2" d="M531.015,376.667h44.994l51.599-184.717h-56.023"/>
<path fill="#4A2A72" d="M588.914,330.47H541.18l-10.165,46.196h48.297"/>
<path fill="#FFFFFF" d="M707.982,187.12H606.223l5.166,215.144h77.421"/>
<path fill="#E6E7E8" d="M606.234,187.12h-53.822l19.173,215.144h39.805"/>
<path fill="#FFFFFF" d="M703.557,191.95L724.2,376.667h-49.396L637.941,191.95"/>
<path fill="#E6E7E8" d="M637.941,191.95h-14.747L665.2,376.667h9.604"/>
<path fill="#F3E5C2" d="M622.722,176.641h35.212v10.445h-35.212V176.641z"/>
<path fill="#E4D6B6" d="M606.234,176.641h16.96v10.445h-16.96V176.641z"/>
<path fill="#191818" d="M688.821,402.263l-70.063,193.018h-61.213l53.834-193.018"/>
<path fill="#0C0C0C" d="M611.389,402.263h-19.902l-50.879,193.018h16.959"/>
<path fill="#652D90" d="M724.2,376.667h-49.396l-9.21-46.196h53.439"/>
<path fill="#562C80" d="M665.571,330.47h-10.86l10.501,46.196h9.593"/>
<path fill="#422666" d="M541.169,330.47h-10.693l-9.03,46.196h9.569"/>
<path fill="#F6921E" stroke="#231F20" stroke-miterlimit="10" d="M579.312,187.12l12.175,215.144"/>
<ellipse fill="#231F20" cx="588.914" cy="290.407" rx="2.225" ry="6.099"/>
<path fill="#191818" d="M562.24,578.579l-40.805,16.702h36.121"/>
<path fill="#0C0C0C" d="M545.01,578.579l-23.564,16.702l40.771-16.702"/>
<path fill="#FFF0CD" d="M681.071,84.631l-3.661,92.011h-54.216V84.631"/>
<path fill="#F3E5C2" d="M623.194,84.631h-43.882l3.673,92.011h40.209"/>
<path fill="#F6921E" d="M681.071,84.631h-57.877l-51.609-28.169"/>
<path fill="#E08026" d="M623.194,84.631l-51.609-28.169l7.75,28.169"/>
<path fill="#26A9E0" stroke="#231F20" stroke-width="2" stroke-linecap="round" stroke-linejoin="round" stroke-miterlimit="10" d="
	M579.312,116.315l21.946,20.757l21.936-30.663L579.312,116.315z"/>
<path fill="#E4D6B6" stroke="#231F20" stroke-width="2" stroke-linecap="round" stroke-miterlimit="10" d="M581.895,160.68
	l27.068-5.278"/>
<path fill="#E4D6B6" d="M647.218,110.633h15.051l-15.051,19.992"/>
<path fill="#231F20" d="M595.261,113.508l-4.83,6.48l-4.874-4.29"/>
<path fill="#E08026" d="M571.584,56.462l83.159,8.581l26.327,19.655"/>
<path fill="#F3E5C2" d="M423.719,176.057h35.223v10.445h-35.223V176.057z"/>
<path fill="#E4D6B6" d="M407.241,176.057h16.96v10.445h-16.96V176.057z"/>
<path fill="#FFF0CD" d="M482.068,84.047l-3.662,92.011h-54.204V84.047"/>
<path fill="#F3E5C2" d="M424.201,84.047H380.32l3.662,92.011h40.209"/>
<path fill="#F6921E" d="M482.068,84.047h-57.866l-51.62-28.191"/>
<path fill="#E08026" d="M424.201,84.047l-51.62-28.191l7.75,28.191"/>
<path fill="#26A9E0" stroke="#231F20" stroke-width="2" stroke-linecap="round" stroke-linejoin="round" stroke-miterlimit="10" d="
	M380.32,115.731l21.936,20.757l21.936-30.663L380.32,115.731z"/>
<path fill="#E4D6B6" stroke="#231F20" stroke-width="2" stroke-linecap="round" stroke-miterlimit="10" d="M382.903,160.086
	l27.068-5.279"/>
<path fill="#E4D6B6" d="M448.215,110.037h15.051l-15.051,20.015"/>
<path fill="#231F20" d="M396.235,112.912l-4.784,6.481l-4.886-4.291"/>
<path fill="#E08026" d="M372.581,55.867l83.182,8.581l26.305,19.599"/>
<path fill="#FFFFFF" d="M307.819,185.098H206.06l5.167,215.155h77.42"/>
<path fill="#E6E7E8" d="M206.082,185.098h-53.845l19.173,215.155h39.839"/>
<path fill="#F3E5C2" d="M223.267,174.653H258.5v10.445h-35.233V174.653z"/>
<path fill="#E4D6B6" d="M206.79,174.653h16.96v10.445h-16.96V174.653z"/>
<path fill="#FFF0CD" d="M281.615,82.621l-3.661,92.021h-54.238v-92.1"/>
<path fill="#F3E5C2" d="M223.739,82.621h-43.859l3.661,92.021h40.21"/>
<path fill="#F6921E" d="M281.615,82.621h-57.877l-51.599-28.17"/>
<path fill="#E08026" d="M223.739,82.621l-51.599-28.17l7.75,28.17"/>
<path fill="#26A9E0" stroke="#231F20" stroke-width="2" stroke-linecap="round" stroke-linejoin="round" stroke-miterlimit="10" d="
	M179.879,114.316l21.924,20.756l21.902-30.662L179.879,114.316z"/>
<path fill="#E4D6B6" stroke="#231F20" stroke-width="2" stroke-linecap="round" stroke-miterlimit="10" d="M182.45,158.671
	l27.068-5.279"/>
<path fill="#E4D6B6" d="M247.775,108.61h15.05l-15.05,20.026"/>
<path fill="#231F20" d="M195.794,111.497l-4.796,6.481l-4.886-4.291"/>
<path fill="#E08026" d="M172.14,54.451l83.16,8.581l26.315,19.589"/>
<path fill="#121112" d="M117.689,595.281h87.181l61.303-195.017h-73.86l-44.478,181.875l-18.195,7.93"/>
<path fill="#231F20" d="M117.689,595.281l11.962-5.212l18.195-7.93l44.478-181.875h-20.441l-40.49,181.875"/>
<path fill="#191818" d="M241.844,590.002l-9.39,5.279h87.854l-31.562-195.017h-76.712l43.804,181.887"/>
<path fill="#0C0C0C" d="M239.8,582.139l-7.346,13.142l9.39-5.279l13.995-7.862l-43.804-181.875h-19.724"/>
<path fill="#F6921E" stroke="#231F20" stroke-miterlimit="10" d="M177.442,185.098l12.175,215.155"/>
<ellipse fill="#231F20" cx="187.044" cy="288.408" rx="2.225" ry="6.099"/>
<path fill="#FFFFFF" d="M200.893,328.461h49.757l50.902-138.532h-62.595"/>
<path fill="#E6E7E8" d="M190.324,328.461h10.558l38.075-138.521h-12.961"/>
<path fill="#652D90" d="M188.224,374.645h45.466l16.96-46.185h-49.734"/>
<path fill="#562C80" d="M178.418,374.645h9.795l12.59-46.185h-10.558"/>
<path fill="#231F20" d="M345.109,471.418l15.129,62.853l6.043,25.091h13.837l-0.382-1.842l-11.456-56.697l-5.616-27.742
	l29.765-72.826h-19.993 M350.421,575.355l29.719-16.017h-13.837"/>
<path fill="#121112" d="M350.409,575.344l70.647-11.906l0.382-11.489l-41.332,7.412"/>
<path fill="#121112" d="M362.618,473.08l5.616,27.742l11.501,56.697l0.449,1.843l41.333-7.413v-0.157l5.054-151.538h-34.144"/>
<path fill="#FFFFFF" d="M509.001,186.514h-101.76l5.167,213.74h77.42"/>
<path fill="#E6E7E8" d="M407.096,186.513h-53.822l19.173,213.74h39.816"/>
<path fill="none" d="M410.016,582.139h30.798"/>
<path fill="#FFFFFF" d="M437.141,189.928v139.947h49.621l9.075-100.355l3.572-39.581"/>
<path fill="#652D90" d="M437.141,329.876v44.77h45.578l4.043-44.77"/>
<path fill="#E6E7E8" d="M426.976,189.928l0.337,39.592l0.898,100.355h8.93V189.928"/>
<path fill="#562C80" d="M428.2,329.876l0.393,44.77h8.648v-44.77"/>
<path fill="#191818" d="M413.06,400.254l8.379,181.886h62.146l6.199-181.886 M382.757,595.281l100.378-0.034l0.449-13.107h-62.146"
	/>
<path fill="#0C0C0C" d="M382.757,595.281l38.682-13.142h-14.343 M392.383,400.254l14.713,181.886h14.343l-8.379-181.886"/>
<path fill="#F6921E" stroke="#231F20" stroke-miterlimit="10" d="M380.477,186.513l12.164,215.155"/>
<ellipse fill="#231F20" cx="390.069" cy="289.823" rx="2.224" ry="6.099"/>
</svg>
