<?xml version="1.0" encoding="utf-8"?>
<!-- Generator: Adobe Illustrator 16.0.0, SVG Export Plug-In . SVG Version: 6.00 Build 0)  -->
<!DOCTYPE svg PUBLIC "-//W3C//DTD SVG 1.1//EN" "http://www.w3.org/Graphics/SVG/1.1/DTD/svg11.dtd">
<svg version="1.1" id="Layer_1" xmlns="http://www.w3.org/2000/svg" xmlns:xlink="http://www.w3.org/1999/xlink" x="0px" y="0px"
	 width="100px" height="100px" viewBox="0 0 100 100" enable-background="new 0 0 100 100" xml:space="preserve">
<circle fill="#FFFFFF" cx="50" cy="50" r="50"/>
<circle fill="#00233F" cx="50" cy="50" r="46"/>
<g>
	<path fill="#FFFFFF" d="M24.814,40.781c0,0,13.105-1.99,18.462-11.264c8.442,1.434,15.083,1.781,21.957-3.262
		c5.898,16.351,3.305,33.155-7.776,45.266C41.867,67.983,29.011,57.413,24.814,40.781z"/>
	<g>
		<path fill="#00233F" d="M36.303,46.639c0,0,0.378-0.53,1.054-1.125c0.333-0.305,0.741-0.629,1.195-0.942
			c0.231-0.15,0.456-0.329,0.709-0.466c0.249-0.146,0.501-0.293,0.754-0.44c0.523-0.263,1.043-0.529,1.56-0.727
			c0.511-0.208,1.005-0.371,1.443-0.484c0.868-0.24,1.518-0.268,1.517-0.268l0.048,0.088c0,0-2.046,1.135-4.093,2.27
			c-2.07,1.091-4.14,2.182-4.14,2.182L36.303,46.639z"/>
	</g>
	<g>
		<path fill="#00233F" d="M53.62,39.571c0,0,0.49-0.299,1.231-0.521c0.37-0.12,0.804-0.223,1.269-0.294
			c0.233-0.028,0.473-0.084,0.718-0.091c0.245-0.016,0.494-0.033,0.742-0.049c0.499,0.005,0.997,0.004,1.466,0.063
			c0.469,0.048,0.906,0.127,1.283,0.227c0.752,0.182,1.258,0.453,1.258,0.453l0.002,0.1c0,0-1.99,0.079-3.981,0.157
			c-1.992,0.028-3.985,0.057-3.985,0.057L53.62,39.571z"/>
	</g>
	<path fill="#00233F" d="M46.513,56.238c0,0,6.76,4.892,12.63-3.638"/>
</g>
</svg>
