<?xml version="1.0" encoding="utf-8"?>
<!-- Generator: Adobe Illustrator 16.0.0, SVG Export Plug-In . SVG Version: 6.00 Build 0)  -->
<!DOCTYPE svg PUBLIC "-//W3C//DTD SVG 1.1//EN" "http://www.w3.org/Graphics/SVG/1.1/DTD/svg11.dtd">
<svg version="1.1" id="Layer_1" xmlns="http://www.w3.org/2000/svg" xmlns:xlink="http://www.w3.org/1999/xlink" x="0px" y="0px"
	 width="912.971px" height="300px" viewBox="0 0 912.971 300" enable-background="new 0 0 912.971 300" xml:space="preserve">
<polygon fill="#D1D3D4" points="912.971,0 912.971,300 901.74,288.26 902.34,288.26 902.34,11.74 901.74,11.74 "/>
<polygon fill="#FFFFFF" points="912.971,300 0,300 11.23,288.26 901.74,288.26 "/>
<polygon fill="#D1D3D4" points="912.971,0 901.74,11.74 11.23,11.74 0,0 "/>
<polygon fill="#FFFFFF" points="10.641,288.26 11.23,288.26 0,300 0,0 11.23,11.74 10.641,11.74 "/>
<polygon fill="#E6E7E8" points="22.26,23.28 22.26,276.73 11.23,288.26 10.641,288.26 10.641,11.74 11.23,11.74 "/>
<polygon fill="#E6E7E8" points="901.74,288.26 11.23,288.26 22.26,276.73 890.711,276.73 "/>
<polygon fill="#F1F2F2" points="902.34,11.74 902.34,288.26 901.74,288.26 890.711,276.73 890.711,23.28 901.74,11.74 "/>
<rect x="22.26" y="23.28" fill="#00AEEF" width="868.451" height="253.451"/>
<polygon fill="#F1F2F2" points="901.74,11.74 890.711,23.28 22.26,23.28 11.23,11.74 "/>
<g>
	<rect x="59.327" y="150.005" width="60.923" height="60.923"/>
	<rect x="120.25" y="150.005" fill="#FFFFFF" width="60.923" height="60.923"/>
	<g>
		<path fill="#FFFFFF" d="M96.812,181.993v-19.854h7.28v36.33L82.298,178.59v19.879h-7.279v-36.33L96.812,181.993z"/>
	</g>
	<g>
		<path d="M146.326,162.137h7.278v36.33h-7.278V162.137z"/>
	</g>
	<rect x="181.173" y="150.005" width="60.923" height="60.923"/>
	<rect x="242.096" y="150.005" fill="#FFFFFF" width="60.924" height="60.923"/>
	<g>
		<path fill="#FFFFFF" d="M213.073,162.137h9.083v7.258h-9.083v29.072h-7.278v-29.072h-9.083v-7.258h9.083H213.073z"/>
	</g>
	<rect x="303.02" y="150.005" width="60.922" height="60.923"/>
	<rect x="363.941" y="150.005" fill="#FFFFFF" width="60.924" height="60.923"/>
	<g>
		<path fill="#FFFFFF" d="M326.794,182.984c-1.089-0.375-2.246-0.969-3.472-1.78c-1.225-0.812-2.324-1.882-3.302-3.212
			c-0.977-1.329-1.465-2.986-1.465-4.969c0-2.99,1.066-5.553,3.2-7.687c2.134-2.133,4.703-3.2,7.708-3.2
			c2.99,0,5.552,1.067,7.685,3.2c2.135,2.134,3.201,4.694,3.201,7.687h-7.258c0-0.992-0.356-1.846-1.07-2.56
			c-0.714-0.713-1.565-1.069-2.558-1.069c-1.007,0-1.863,0.356-2.569,1.069c-0.706,0.714-1.06,1.565-1.06,2.56
			c0,1.291,0.521,2.271,1.565,2.94c1.044,0.668,1.837,1.078,2.378,1.229c0.256,0.09,0.95,0.3,2.085,0.631
			c1.135,0.33,2.328,0.879,3.583,1.645c1.256,0.768,2.386,1.799,3.393,3.1c1.007,1.3,1.511,2.963,1.511,4.992
			c0,3.004-1.066,5.573-3.201,7.707c-2.133,2.133-4.693,3.201-7.685,3.201c-3.005,0-5.574-1.068-7.708-3.201
			c-2.134-2.134-3.2-4.703-3.2-7.707h7.279c0,1.006,0.354,1.862,1.06,2.568s1.563,1.061,2.569,1.061
			c0.991,0,1.844-0.354,2.558-1.061s1.07-1.563,1.07-2.568c0-1.533-0.612-2.524-1.836-2.976c-1.226-0.45-2.055-0.759-2.491-0.925
			C328.542,183.585,327.884,183.359,326.794,182.984z"/>
	</g>
	<g>
		<path d="M389.019,162.137h7.279v36.33h-7.279V162.137z"/>
	</g>
	<rect x="424.865" y="150.005" width="60.924" height="60.923"/>
	<rect x="546.711" y="150.005" width="60.924" height="60.923"/>
	<rect x="485.788" y="150.005" fill="#FFFFFF" width="60.923" height="60.923"/>
	<g>
		<path fill="#FFFFFF" d="M451.683,162.137v29.051h14.515v7.279h-21.794v-36.33H451.683z"/>
	</g>
	<g>
		<path d="M525.073,163.568c2.201,0.955,4.135,2.25,5.803,3.889l-5.139,5.139c-2.164-2.135-4.731-3.201-7.707-3.201
			c-3.006,0-5.569,1.07-7.697,3.213c-2.125,2.142-3.188,4.705-3.188,7.695c0,3.006,1.063,5.57,3.188,7.696
			c2.128,2.126,4.691,3.188,7.697,3.188c3.004,0,5.574-1.066,7.707-3.199l5.139,5.139c-1.668,1.652-3.602,2.955-5.803,3.91
			c-2.201,0.953-4.549,1.432-7.043,1.432c-5.004,0-9.281-1.777-12.836-5.33c-3.553-3.555-5.33-7.832-5.33-12.836
			c0-4.988,1.777-9.263,5.33-12.824c3.555-3.561,7.832-5.34,12.836-5.34C520.524,162.137,522.871,162.615,525.073,163.568z"/>
	</g>
	<rect x="607.635" y="150.005" fill="#FFFFFF" width="60.924" height="60.923"/>
	<g>
		<path fill="#FFFFFF" d="M569.528,162.137v14.536h10.887v-14.536h7.279v36.33h-7.279v-14.535h-10.887v14.535h-7.279v-36.33H569.528
			z"/>
	</g>
	<rect x="668.559" y="150.005" width="60.922" height="60.923"/>
	<rect x="790.404" y="150.005" width="60.924" height="60.923"/>
	<rect x="729.48" y="150.005" fill="#FFFFFF" width="60.924" height="60.923"/>
	<g>
		<path fill="#FFFFFF" d="M684.095,187.559v-12.711v-12.711h7.278h5.433c3.502,0,6.498,1.247,8.992,3.741
			c2.493,2.494,3.741,5.483,3.741,8.97c0,2.705-0.77,5.135-2.311,7.291c-1.539,2.155-3.504,3.686-5.893,4.588l8.202,11.74h-8.881
			l-9.284-13.297v13.297h-7.279L684.095,187.559L684.095,187.559z M696.806,180.303c1.504,0,2.787-0.533,3.854-1.601
			c1.068-1.067,1.603-2.353,1.603-3.854c0-1.486-0.533-2.769-1.603-3.843c-1.065-1.073-2.35-1.61-3.854-1.61h-5.433v5.453v5.455
			H696.806z"/>
	</g>
	<g>
		<path d="M632.289,193.284l-2.344,5.185h-1.24h-0.293h-4.688h-1.533l15.551-34.641l0.769-1.689l0.787,1.713l15.573,34.617h-1.532
			h-4.688h-0.314h-1.239l-2.322-5.207l-0.111-0.248h-12.26L632.289,193.284z M641.371,185.756l-2.84-6.355l-2.86,6.355H641.371z"/>
	</g>
</g>
<g>
	<rect x="59.326" y="89.083" fill="#FFFFFF" width="60.922" height="60.923"/>
	<rect x="120.248" y="89.083" width="60.924" height="60.923"/>
	<rect x="181.172" y="89.083" fill="#FFFFFF" width="60.924" height="60.923"/>
	<rect x="242.096" y="89.083" width="60.922" height="60.923"/>
	<rect x="303.018" y="89.083" fill="#FFFFFF" width="60.924" height="60.923"/>
	<rect x="729.48" y="89.083" width="60.922" height="60.923"/>
	<rect x="790.402" y="89.083" fill="#FFFFFF" width="60.924" height="60.923"/>
	<rect x="363.941" y="89.083" width="60.924" height="60.923"/>
	<rect x="485.786" y="89.083" width="60.925" height="60.923"/>
	<rect x="424.865" y="89.083" fill="#FFFFFF" width="60.922" height="60.923"/>
	<rect x="546.711" y="89.083" fill="#FFFFFF" width="60.924" height="60.923"/>
	<rect x="668.559" y="89.083" fill="#FFFFFF" width="60.924" height="60.923"/>
	<rect x="607.635" y="89.083" width="60.922" height="60.923"/>
	<g>
		<path d="M86.832,101.214h7.278v36.33h-7.278V101.214z"/>
	</g>
	<g>
		<path fill="#FFFFFF" d="M157.933,122.07v-19.855h7.28v36.33l-21.794-19.878v19.878h-7.279v-36.33L157.933,122.07z"/>
	</g>
	<g>
		<path d="M220.732,102.646c2.201,0.954,4.137,2.25,5.805,3.888l-5.14,5.139c-2.163-2.134-4.731-3.201-7.708-3.201
			c-3.004,0-5.569,1.071-7.695,3.212s-3.189,4.707-3.189,7.696c0,3.005,1.063,5.57,3.189,7.696s4.69,3.189,7.695,3.189
			c3.006,0,5.574-1.067,7.708-3.201l5.14,5.139c-1.668,1.653-3.604,2.956-5.805,3.91c-2.201,0.954-4.549,1.431-7.043,1.431
			c-5.003,0-9.28-1.777-12.834-5.33c-3.553-3.553-5.33-7.832-5.33-12.835c0-4.988,1.777-9.263,5.33-12.824
			c3.554-3.561,7.832-5.341,12.834-5.341C216.183,101.214,218.531,101.691,220.732,102.646z"/>
	</g>
	<g>
		<path d="M344.165,121.07v-19.855h7.278v36.33l-21.794-19.878v19.878h-7.278v-36.33L344.165,121.07z"/>
	</g>
	<g>
		<path fill="#FFFFFF" d="M268.135,132.361l-2.344,5.184h-1.239h-0.293h-4.688h-1.532l15.551-34.64l0.767-1.69l0.789,1.713
			l15.572,34.617h-1.532h-4.688h-0.315h-1.239l-2.321-5.206l-0.112-0.248h-12.26L268.135,132.361z M277.218,124.833l-2.84-6.355
			l-2.862,6.355H277.218z"/>
	</g>
	<g>
		<path fill="#FFFFFF" d="M401.122,106.556c3.562,3.561,5.342,7.835,5.342,12.824c0,5.003-1.78,9.282-5.342,12.835
			c-3.562,3.553-7.835,5.33-12.823,5.33h-7.279v-36.33h7.279C393.287,101.214,397.561,102.995,401.122,106.556z M395.984,127.076
			c2.134-2.126,3.2-4.691,3.2-7.696c0-2.99-1.066-5.555-3.2-7.696s-4.694-3.212-7.686-3.212v21.794
			C391.289,130.265,393.85,129.202,395.984,127.076z"/>
	</g>
	<g>
		<path d="M467.011,101.214v7.257h-14.515v7.28h10.886v7.257h-10.886v7.257h14.515v7.279h-14.515h-7.278v-14.537v-7.257v-14.537
			L467.011,101.214L467.011,101.214z"/>
	</g>
	<g>
		<path d="M830.735,101.214v7.257h-14.514v7.28h10.885v7.257h-10.885v7.257h14.514v7.279h-14.514h-7.279v-14.537v-7.257v-14.537
			L830.735,101.214L830.735,101.214z"/>
	</g>
	<g>
		<path fill="#FFFFFF" d="M512.914,122.062c-1.088-0.376-2.246-0.969-3.471-1.781c-1.225-0.811-2.324-1.882-3.301-3.211
			c-0.977-1.329-1.465-2.986-1.465-4.969c0-2.99,1.065-5.552,3.199-7.686c2.135-2.133,4.702-3.2,7.709-3.2
			c2.989,0,5.551,1.067,7.684,3.2c2.135,2.134,3.201,4.695,3.201,7.686h-7.258c0-0.992-0.355-1.845-1.07-2.558
			c-0.713-0.714-1.566-1.071-2.557-1.071c-1.009,0-1.863,0.357-2.57,1.071c-0.705,0.713-1.059,1.566-1.059,2.558
			c0,1.292,0.521,2.272,1.565,2.941c1.043,0.668,1.836,1.078,2.377,1.229c0.256,0.09,0.951,0.3,2.086,0.631
			c1.133,0.331,2.328,0.879,3.582,1.645c1.256,0.767,2.385,1.799,3.394,3.099c1.006,1.299,1.51,2.963,1.51,4.992
			c0,3.005-1.066,5.574-3.201,7.708c-2.133,2.133-4.693,3.2-7.684,3.2c-3.007,0-5.574-1.067-7.709-3.2
			c-2.134-2.134-3.199-4.703-3.199-7.708h7.278c0,1.007,0.354,1.863,1.06,2.569c0.707,0.706,1.563,1.06,2.57,1.06
			c0.989,0,1.844-0.354,2.557-1.06c0.715-0.706,1.07-1.563,1.07-2.569c0-1.532-0.611-2.524-1.836-2.975
			c-1.226-0.451-2.056-0.759-2.49-0.924C514.662,122.662,514.005,122.437,512.914,122.062z"/>
	</g>
	<g>
		<path d="M589.271,102.646c2.201,0.954,4.137,2.25,5.805,3.888l-5.139,5.139c-2.164-2.134-4.734-3.201-7.709-3.201
			c-3.004,0-5.57,1.071-7.695,3.212c-2.127,2.141-3.188,4.707-3.188,7.696c0,3.005,1.063,5.57,3.188,7.696
			c2.125,2.126,4.691,3.189,7.695,3.189c3.006,0,5.574-1.067,7.709-3.201l5.139,5.139c-1.668,1.653-3.604,2.956-5.805,3.91
			c-2.201,0.954-4.549,1.431-7.043,1.431c-5.002,0-9.281-1.777-12.834-5.33c-3.555-3.553-5.33-7.832-5.33-12.835
			c0-4.988,1.775-9.263,5.33-12.824c3.553-3.561,7.832-5.341,12.834-5.341C584.722,101.214,587.069,101.691,589.271,102.646z"/>
	</g>
	<g>
		<path d="M707.701,121.07v-19.855h7.279v36.33l-21.793-19.878v19.878h-7.279v-36.33L707.701,121.07z"/>
	</g>
	<g>
		<path fill="#FFFFFF" d="M643.319,101.214v7.257h-14.516v7.28h10.887v7.257h-10.887v7.257h14.516v7.279h-14.516h-7.279v-14.537
			v-7.257v-14.537L643.319,101.214L643.319,101.214z"/>
	</g>
	<g>
		<path fill="#FFFFFF" d="M767.271,102.646c2.201,0.954,4.137,2.25,5.805,3.888l-5.139,5.139c-2.164-2.134-4.734-3.201-7.709-3.201
			c-3.004,0-5.57,1.071-7.695,3.212c-2.127,2.141-3.188,4.707-3.188,7.696c0,3.005,1.063,5.57,3.188,7.696
			c2.125,2.126,4.691,3.189,7.695,3.189c3.006,0,5.574-1.067,7.709-3.201l5.139,5.139c-1.668,1.653-3.604,2.956-5.805,3.91
			c-2.201,0.954-4.549,1.431-7.043,1.431c-5.002,0-9.281-1.777-12.834-5.33c-3.555-3.553-5.33-7.832-5.33-12.835
			c0-4.988,1.775-9.263,5.33-12.824c3.553-3.561,7.832-5.341,12.834-5.341C762.722,101.214,765.069,101.691,767.271,102.646z"/>
	</g>
</g>
</svg>
