<?xml version="1.0" encoding="utf-8"?>
<!-- Generator: Adobe Illustrator 16.0.0, SVG Export Plug-In . SVG Version: 6.00 Build 0)  -->
<!DOCTYPE svg PUBLIC "-//W3C//DTD SVG 1.1//EN" "http://www.w3.org/Graphics/SVG/1.1/DTD/svg11.dtd">
<svg version="1.1" id="Layer_1" xmlns="http://www.w3.org/2000/svg" xmlns:xlink="http://www.w3.org/1999/xlink" x="0px" y="0px"
	 width="100px" height="100px" viewBox="0 0 100 100" enable-background="new 0 0 100 100" xml:space="preserve">
<circle fill="#FFFFFF" cx="50" cy="50" r="50"/>
<g>
	<path fill="#6A453B" d="M62.518,30.348H37.481c-3.996,0-7.247,3.251-7.247,7.247v25.036c0,3.996,3.251,7.248,7.247,7.248h25.036
		c3.996,0,7.248-3.251,7.248-7.248V37.595C69.766,33.599,66.514,30.348,62.518,30.348z M50,63.127
		c-7.176,0-13.014-5.838-13.014-13.015C36.986,42.938,42.824,37.1,50,37.1s13.014,5.838,13.014,13.013
		C63.014,57.288,57.174,63.127,50,63.127z M63.432,39.791c-1.699,0-3.08-1.382-3.08-3.079c0-1.698,1.381-3.079,3.08-3.079
		c1.697,0,3.08,1.381,3.08,3.079C66.512,38.409,65.129,39.791,63.432,39.791z"/>
	<path fill="#6A453B" d="M50,42.599c-4.143,0-7.516,3.371-7.516,7.514c0,4.144,3.373,7.516,7.516,7.516s7.514-3.372,7.514-7.516
		C57.514,45.971,54.143,42.599,50,42.599z"/>
	<path fill="#6A453B" d="M50,8C26.805,8,8,26.805,8,50c0,23.194,18.805,42,42,42s42-18.806,42-42C92,26.805,73.195,8,50,8z
		 M75.264,62.631c0,7.029-5.717,12.746-12.746,12.746H37.481c-7.028,0-12.746-5.717-12.746-12.746V37.595
		c0-7.028,5.718-12.746,12.746-12.746h25.036c7.029,0,12.746,5.718,12.746,12.746V62.631z"/>
</g>
</svg>
