<svg xmlns="http://www.w3.org/2000/svg" viewBox="0 0 504 493">
  <path fill="#1F4D78" d="M313.6 392.6l-12.25 50.94-4.9 20.34h-11.22l.3-1.5 9.32-45.95 4.57-22.5-24.1-59.03h16.18"/>
  <path fill="#23140E" d="M309.3 476.84l-24.07-12.96h11.22"/>
  <path fill="#2D1B12" d="M309.3 476.84l-57.27-9.65-.3-9.4 33.5 6"/>
  <path fill="#265791" d="M299.42 393.92l-4.57 22.5-9.3 45.97-.32 1.4-33.5-6v-.2l-4.1-122.9h27.7m-165.37 0l-26.76 143H32.5l15.3-142.9"/>
  <path fill="#1F4D78" d="M80.67 491.37l29.3-156.47h16.13L93.82 491.37"/>
  <path fill="#2D1B12" d="M109.95 493h-78.9l1.45-15.17h50.7l-.1.56"/>
  <path fill="#DD2627" d="M161.05 285.03h-8.48l-19.5-88.92-6.97-31.7h11.35l6.2 31.7"/>
  <path fill="#E5E5E4" d="M158.97 314.14l-6.4-29.1h8.48l5.7 29.1h-7.78"/>
  <path fill="#F2F2F2" d="M158.97 314.14h-36.45l-8.14-29.1h38.2"/>
  <path fill="#ED2424" d="M152.57 285.03h-38.2L80.67 164.4h45.44l7 31.7 19.5 88.93"/>
  <path fill="#2C61AD" d="M96.85 208.84L93.82 334.9H31.07L19.83 208.84"/>
  <path fill="#E52727" d="M98 160.47l-1.15 48.37H19.83l-4.3-48.37"/>
  <path fill="#2C61AD" d="M262.34 208.84L259.3 334.9h-62.74l-11.24-126.06"/>
  <path fill="#E52727" d="M263.5 160.47l-1.16 48.37h-77.02l-4.3-48.37"/>
  <path fill="#265791" d="M137.33 208.84L126.1 334.9H93.82l3.03-126.06"/>
  <path fill="#DA2427" d="M141.65 160.47l-4.32 48.37H96.85L98 160.47"/>
  <path fill="#ED2424" d="M72.3 164.4l-6.4 32.1-17.67 88.53H5.63l9.9-88.54 3.58-32.1"/>
  <path fill="#FFF" d="M48.23 285.03l-5.8 29.12H2.36l3.26-29.12"/>
  <path fill="#DD2627" d="M84.26 164.4l-7.3 32.1-20.15 88.53h-8.5l17.6-88.53 6.4-32.1"/>
  <path fill="#F2F2F2" d="M56.8 285.03l-6.6 29.12h-7.8l5.8-29.12"/>
  <path fill="#F3E5C2" d="M56.1 152h28.54v8.47H56.1z"/>
  <path fill="#E4D6B6" d="M84.26 152H98v8.47H84.27z"/>
  <path fill="#3B2314" d="M166.74 493h-78.9l-4.9-15.17h50.74l15.64 7.18"/>
  <path fill="#2C61AD" d="M133.68 477.83H82.94L31.06 334.9h62.77"/>
  <path fill="#265791" d="M147.63 477.83h-13.95L93.83 334.9h16.13"/>
  <path fill="#331D11" d="M166.74 493l-17.42-8-15.64-7.17h13.96"/>
  <path fill="#FFF0CD" d="M37.34 77.4L40.3 152h43.96V77.4"/>
  <path fill="#F3E5C2" d="M84.26 77.4h35.56l-2.97 74.6h-32.6"/>
  <path fill="#E4D6B6" d="M58.68 93.68H45.06l13.62 18.1"/>
  <path fill="none" d="M173.8 955.66h-3.7"/>
  <path fill="#F3E5C2" d="M220.86 152h28.55v8.47h-28.5z"/>
  <path fill="#E4D6B6" d="M249.03 152h13.75v8.47h-13.75z"/>
  <path fill="none" d="M261 482.35h-25"/>
  <path fill="#ED2424" d="M239 164.4v32.1h-47.58l-2.9-32.1"/>
  <path fill="#F2F2F2" d="M246.18 285.03l-.26 29.1H239v-29.1"/>
  <path fill="#FFF" d="M239 285.03v29.1h-36.95l-2.64-29.1"/>
  <path fill="#ED2424" d="M239 196.48v88.55h-39.6l-7.98-88.55"/>
  <path fill="#DD2627" d="M247.24 164.4l-.28 32.1H239v-32.1"/>
  <path fill="#DD2627" d="M246.95 196.48l-.77 88.55H239v-88.55"/>
  <path fill="#2C61AD" d="M258.53 334.9l-6.6 142.93h-50.58l-5.02-142.93"/>
  <path fill="#3B2314" d="M283.08 493l-81.37-.03-.3-15.14H252"/>
  <path fill="#331D11" d="M283.08 493l-31.14-15.17h11.57"/>
  <path fill="#285C99" d="M275.3 334.9l-11.8 142.93h-11.56l6.6-142.93"/>
  <path fill="#ED2424" d="M149.9 77.4l-2.48 2.77H37.45l-.1-2.77-3.22-22.96H60.8l65.3-12.38-1.7 9.6c-4.5.1-8.1 4.64-8.1 10.23 0 4 1.9 7.5 4.64 9.2l-1.12 6.3h30.08z"/>
  <path fill="#FFF" d="M124.4 51.65l-3.46 19.45c-2.74-1.67-4.63-5.17-4.63-9.2 0-5.6 3.6-10.14 8.1-10.25z"/>
  <ellipse cx="110.8" cy="104.07" fill="#FFF" rx="6.94" ry="8.82"/>
  <ellipse cx="113.03" cy="104.07" fill="#231F20" rx="4.71" ry="5.98"/>
  <path fill="#231F20" d="M117.93 124.7l-.26 6.77.26-6.76z"/>
  <circle cx="119.91" cy="118.53" r="6.46" fill="#F3E5C2"/>
  <path fill="#3B2314" d="M117.93 124.7l-.27 6.77-.1 3.14c-1.98 1.9-5.4 3.1-8.5-1.3-4.32 2.8-8.72 1-9.53-2.6-3.9-.6-5.3-2.7-5.6-5-.4-3.2 1.52-6.8 1.52-6.8 8.9 5.6 22.48 6 22.48 6z"/>
  <path fill="none" stroke="#231F20" stroke-miterlimit="10" d="M117.36 139.2s-6.5-.17-10.2-2.9"/>
  <path fill="#3B2314" d="M119.1 95.76l-3.24.12-3.16.14c-.57.02-1.16.06-1.76.1-.6.02-1.2.1-1.8.12-.6.03-1.2.12-1.8.14-.6.07-1.18.13-1.76.17-.57.06-1.13.1-1.65.17-.54.02-1.04.1-1.5.15-.48.05-.93.05-1.32.1-.3.05-.7.07-1 .1-.5.02-.9 0-.9 0l.7-.57c.5-.36 1.2-.85 2.1-1.3.5-.22.9-.48 1.5-.67.6-.2 1.1-.42 1.7-.6.6-.15 1.2-.32 1.9-.43.7-.1 1.3-.2 2-.25.7-.02 1.4-.08 2-.04.7.1 1.3.1 1.9.2 1.3.2 2.4.5 3.3.8 1 .4 1.7.8 2.2 1.1.5.3.8.6.8.6zm-46.9-15.6C67.9 93.66 70.53 114 70.53 114l-8.57-1.94s.33-14.98-1.74-19.52c-1.53-3.38-14.02-3.23-16-.08-2.14 3.4-1.07 17.6-1.07 17.6s.16 8.22-3.87 16.3c-12.63 5.26-9.83-10.23-8.02-14.58-5.44-.23 6.17-15.6 6.17-31.6H72.2z"/>
  <path fill="#FFF0CD" d="M202.47 77.4l2.97 74.6h43.95V77.4"/>
  <path fill="#F3E5C2" d="M249.4 77.4h35.55l-2.97 74.6h-32.6"/>
  <path fill="#E4D6B6" d="M223.8 93.68h-13.62l13.62 18.1"/>
  <path fill="#ED2424" d="M315.03 77.4l-2.5 2.77H202.6l-.1-2.77-3.22-22.96h26.67l65.3-12.38-1.7 9.6c-4.5.1-8.1 4.64-8.1 10.23 0 4 1.9 7.5 4.64 9.2l-1.2 6.3H315z"/>
  <path fill="#FFF" d="M289.52 51.65l-3.45 19.45c-2.74-1.67-4.63-5.17-4.63-9.2 0-5.6 3.6-10.14 8.08-10.25z"/>
  <ellipse cx="275.92" cy="104.07" fill="#FFF" rx="6.94" ry="8.82"/>
  <ellipse cx="278.15" cy="104.07" fill="#231F20" rx="4.71" ry="5.98"/>
  <path fill="#231F20" d="M283.06 124.7l-.26 6.77.26-6.76z"/>
  <circle cx="285.04" cy="118.53" r="6.46" fill="#F3E5C2"/>
  <path fill="#3B2314" d="M283.06 124.7l-.27 6.77-.2 3.14c-2 1.9-5.4 3.1-8.5-1.3-4.4 2.8-8.8 1-9.6-2.6-3.9-.6-5.3-2.7-5.6-5-.4-3.2 1.5-6.8 1.5-6.8 8.9 5.6 22.4 6 22.4 6z"/>
  <path fill="none" stroke="#231F20" stroke-miterlimit="10" d="M282.5 139.2s-6.52-.17-10.23-2.9"/>
  <path fill="#3B2314" d="M284.22 95.76l-3.23.12-3.2.14c-.6.02-1.2.06-1.8.1-.6.02-1.2.1-1.8.12-.6.03-1.2.12-1.8.14-.6.07-1.2.13-1.8.17-.6.06-1.2.1-1.7.17-.6.02-1.1.1-1.5.15-.5.05-1 .05-1.3.1-.4.05-.8.07-1.1.1-.6.02-.96 0-.96 0s.23-.22.7-.57c.46-.36 1.14-.85 2.03-1.3.5-.22.96-.48 1.5-.67.53-.2 1.1-.42 1.7-.6.6-.15 1.23-.32 1.87-.43.7-.1 1.3-.2 2-.25.68-.02 1.34-.08 2-.04.66.1 1.3.1 1.9.2 1.26.2 2.4.5 3.34.8.92.4 1.7.8 2.2 1.1.5.3.73.6.73.6zm-46.9-15.6c-4.3 13.5-1.65 33.83-1.65 33.83l-8.57-2s.3-15-1.78-19.6c-1.54-3.4-14.02-3.2-16-.1-2.15 3.4-1.07 17.6-1.07 17.6s.15 8.2-3.9 16.3c-12.6 5.2-9.8-10.3-8-14.6-5.44-.3 6.18-15.6 6.18-31.6h34.74z"/>
  <path fill="#2C61AD" d="M427.6 208.84l-3.04 126.06H361.8l-11.23-126.06"/>
  <path fill="#E52727" d="M428.75 160.47l-1.16 48.37h-77.1l-4.3-48.37"/>
  <path fill="#285C99" d="M467.96 208.85L456.73 334.9h-32.28l3.03-126.05"/>
  <path fill="#DA2427" d="M472.28 160.47l-4.32 48.38h-40.48l1.16-48.38"/>
  <path fill="#265791" d="M429.8 208.85l1.23-48.38h8.73l-1.98 48.38m31.86-48.38l-4.13 48.38h-5.7l4-48.38"/>
  <ellipse cx="433.84" cy="214.46" fill="#F9EC31" rx="2.97" ry="3.96"/>
  <ellipse cx="461.72" cy="214.46" fill="#F9EC31" rx="2.97" ry="3.96"/>
  <path fill="#F3E5C2" d="M386.37 152h28.55v8.47h-28.55z"/>
  <path fill="#E4D6B6" d="M414.55 152h13.75v8.47h-13.75z"/>
  <path fill="#2D1B12" d="M503 493h-73.15l-4.77-15.17h48.97"/>
  <path fill="#24598C" d="M474.05 477.83h-48.97l-12.22-38.86-7.86-25v-.02l-24.85-79.05h59.87"/>
  <path fill="#23140E" d="M503 493l-28.95-15.17h14.34"/>
  <path fill="#22537D" d="M488.4 477.83h-14.35L440.02 334.9h16.57"/>
  <path fill="#3B2314" d="M414.82 493h-78.56l2.46-15.17h50.9"/>
  <path fill="#2C61AD" d="M424.04 334.9L405 413.95l-15.4 63.88h-50.88l23.12-142.93"/>
  <path fill="#331D11" d="M414.82 493l-25.2-15.17h13.1"/>
  <path fill="#285C99" d="M440.02 334.9l-27.16 104.06-10.15 38.87h-13.1l15.4-63.87 19.1-79.06"/>
  <path fill="#FFF" d="M443.35 314.14h-36.87l-10.7-29.1h39.57"/>
  <path fill="#ED2424" d="M435.35 285.03H395.8l-3.08-8.34-29.47-80.2h47.8l22 80.2"/>
  <path fill="#ED2424" d="M411.04 196.5h-47.8l-11.78-32.1h50.76"/>
  <path fill="#F2F2F2" d="M451.28 314.14h-7.93l-8-29.1h8.43"/>
  <path fill="#DD2627" d="M443.78 285.03h-8.43l-2.3-8.34-22-80.2h9.93l20.65 80.2"/>
  <path fill="#DD2627" d="M420.98 196.5h-9.94l-8.82-32.1h10.5"/>
  <path fill="#FFF0CD" d="M368.97 77.4l2.97 74.6h43.95V77.4"/>
  <path fill="#F3E5C2" d="M415.9 77.4h35.55l-2.97 74.6h-32.6"/>
  <path fill="#E4D6B6" d="M390.3 93.68h-13.6l13.6 18.1"/>
  <path fill="#ED2424" d="M481.53 77.4l-2.48 2.77H369.08l-.1-2.77-3.22-22.96h26.67l65.3-12.38-1.7 9.6c-4.5.1-8.1 4.64-8.1 10.23 0 4 1.9 7.5 4.64 9.2l-1.12 6.3h30.08z"/>
  <path fill="#FFF" d="M456.02 51.65l-3.45 19.45c-2.74-1.67-4.64-5.17-4.64-9.2 0-5.6 3.6-10.14 8.1-10.25z"/>
  <ellipse cx="442.42" cy="104.07" fill="#FFF" rx="6.94" ry="8.82"/>
  <ellipse cx="444.65" cy="104.07" fill="#231F20" rx="4.71" ry="5.98"/>
  <path fill="#231F20" d="M449.56 124.7l-.26 6.77.26-6.76z"/>
  <circle cx="451.54" cy="118.53" r="6.46" fill="#F3E5C2"/>
  <path fill="#3B2314" d="M449.56 124.7l-.27 6.77-.2 3.14c-2 1.9-5.4 3.1-8.5-1.3-4.4 2.8-8.8 1-9.6-2.6-3.9-.6-5.3-2.7-5.6-5-.4-3.2 1.5-6.8 1.5-6.8 8.9 5.6 22.4 6 22.4 6z"/>
  <path fill="none" stroke="#231F20" stroke-miterlimit="10" d="M449 139.2s-6.52-.17-10.23-2.9"/>
  <path fill="#3B2314" d="M450.72 95.76l-3.23.12-3.2.14c-.6.02-1.2.06-1.8.1-.6.02-1.2.1-1.8.12-.6.03-1.2.12-1.8.14-.6.07-1.2.13-1.8.17-.6.06-1.2.1-1.7.17-.6.02-1.1.1-1.5.15-.5.05-.9.05-1.3.1s-.8.07-1.1.1c-.6.02-.96 0-.96 0s.23-.22.7-.57c.46-.36 1.14-.85 2.03-1.3.5-.22.96-.48 1.5-.67.54-.2 1.1-.42 1.7-.6.6-.15 1.23-.32 1.87-.43.7-.1 1.3-.2 2-.25.68-.02 1.35-.08 2-.04.66.1 1.3.1 1.9.2 1.26.2 2.4.5 3.34.8.92.4 1.7.8 2.2 1.1.5.3.73.6.73.6zm-46.9-15.6c-4.3 13.5-1.65 33.83-1.65 33.83l-8.57-2s.3-15-1.78-19.6c-1.53-3.4-14.02-3.2-16-.1-2.15 3.4-1.07 17.6-1.07 17.6s.15 8.2-3.88 16.3c-12.63 5.2-9.83-10.3-8-14.6-5.46-.3 6.15-15.6 6.15-31.6h34.74z"/>
  <path fill="#265791" d="M99.17 208.84l1.23-48.37h8.73l-1.98 48.37M139 160.47l-4.12 48.37h-5.77l4-48.37"/>
  <ellipse cx="103.21" cy="214.46" fill="#F9EC31" rx="2.97" ry="3.96"/>
  <ellipse cx="131.09" cy="214.46" fill="#F9EC31" rx="2.97" ry="3.96"/>
  <path fill="#285C99" d="M302.7 208.85L291.48 334.9H259.2l3.03-126.05"/>
  <path fill="#DA2427" d="M307.02 160.47l-4.3 48.38h-40.5l1.16-48.38"/>
  <path fill="#265791" d="M264.54 208.85l1.24-48.38h8.72l-1.98 48.38m31.86-48.38l-4.13 48.38h-5.77l3.95-48.38"/>
  <ellipse cx="268.58" cy="214.46" fill="#F9EC31" rx="2.97" ry="3.96"/>
  <ellipse cx="296.46" cy="214.46" fill="#F9EC31" rx="2.97" ry="3.96"/>
</svg>
