<svg xmlns="http://www.w3.org/2000/svg" viewBox="0 0 504 493">
  <path fill="#1F4D78" d="M191.76 392.6l12.27 50.94 4.9 20.34h11.2l-.3-1.5-9.3-45.95-4.57-22.5 24.08-59.03h-16.16"/>
  <path fill="#23140E" d="M196.06 476.84l24.08-12.96h-11.2"/>
  <path fill="#2D1B12" d="M196.06 476.84l57.28-9.65.3-9.4-33.5 6"/>
  <path fill="#265791" d="M205.96 393.92l4.56 22.5 9.3 45.97.32 1.4 33.5-6 .02-.2 4.1-122.9h-27.72m165.36 0l26.77 142.9h50.7l-15.3-143"/>
  <path fill="#1F4D78" d="M424.7 491.37L395.4 334.9h-16.13l32.28 156.47"/>
  <path fill="#2D1B12" d="M395.42 493h78.9l-1.45-15.17h-50.7l.1.56"/>
  <path fill="#DD2627" d="M344.32 285.03h8.48l19.52-88.92 6.95-31.7h-11.35l-6.2 31.7"/>
  <path fill="#E5E5E4" d="M346.4 314.14l6.4-29.1h-8.48l-5.7 29.1h7.78"/>
  <path fill="#F2F2F2" d="M346.4 314.14h36.46l8.13-29.1h-38.2"/>
  <path fill="#ED2424" d="M352.8 285.03H391l33.7-120.64h-45.43l-6.95 31.7L352.8 285"/>
  <path fill="#2C61AD" d="M408.52 208.84l3.03 126.06h62.76l11.3-126.06"/>
  <path fill="#E52727" d="M407.37 160.47l1.15 48.37h77.02l4.3-48.37"/>
  <path fill="#2C61AD" d="M243.04 208.84l3.02 126.06h62.76l11.23-126.06"/>
  <path fill="#E52727" d="M241.88 160.47l1.16 48.37h77l4.32-48.37"/>
  <path fill="#265791" d="M368.04 208.84l11.23 126.06h32.28l-3.03-126.06"/>
  <path fill="#DA2427" d="M363.73 160.47l4.3 48.37h40.5l-1.16-48.37"/>
  <path fill="#ED2424" d="M433.07 164.4l6.4 32.1 17.67 88.53h42.6l-9.9-88.54-3.58-32.1"/>
  <path fill="#FFF" d="M457.14 285.03l5.8 29.12H503l-3.26-29.12"/>
  <path fill="#DD2627" d="M421.1 164.4l7.32 32.1 20.14 88.53h8.58l-17.66-88.54-6.4-32.1"/>
  <path fill="#F2F2F2" d="M448.56 285.03l6.62 29.12h7.77l-5.8-29.12"/>
  <path fill="#F3E5C2" d="M420.73 152h28.55v8.47h-28.55z"/>
  <path fill="#E4D6B6" d="M407.36 152h13.75v8.47h-13.7z"/>
  <path fill="#3B2314" d="M338.63 493h78.9l4.9-15.17H371.7L356.05 485"/>
  <path fill="#2C61AD" d="M371.7 477.83h50.74L474.3 334.9h-62.75"/>
  <path fill="#265791" d="M357.74 477.83h13.95l39.8-142.93h-16.1"/>
  <path fill="#331D11" d="M338.63 493l17.42-8 15.64-7.17h-14"/>
  <path fill="#FFF0CD" d="M468.03 77.4l-2.97 74.6H421.1V77.4"/>
  <path fill="#F3E5C2" d="M421.1 77.4h-35.55l2.97 74.6h32.6"/>
  <path fill="#E4D6B6" d="M446.7 93.68h13.6l-13.6 18.1"/>
  <path fill="none" d="M361.7 196.1h.02m56.76 281.73h3.7"/>
  <path fill="#F3E5C2" d="M255.96 152h28.55v8.47H256z"/>
  <path fill="#E4D6B6" d="M242.6 152h13.74v8.47H242.6z"/>
  <path fill="none" d="M244.38 482.35h24.97"/>
  <path fill="#ED2424" d="M266.37 164.4v32.1h47.58l2.9-32.1"/>
  <path fill="#F2F2F2" d="M259.2 285.03l.25 29.1h6.93v-29.1"/>
  <path fill="#FFF" d="M266.38 285.03v29.1h36.95l2.63-29.1"/>
  <path fill="#ED2424" d="M266.38 196.48v88.55h39.58l8-88.55"/>
  <path fill="#DD2627" d="M258.13 164.4l.3 32.1h7.94v-32.1"/>
  <path fill="#DD2627" d="M258.42 196.48l.77 88.55h7.1v-88.55"/>
  <path fill="#2C61AD" d="M246.84 334.9l6.6 142.93h50.58l5.02-142.93"/>
  <path fill="#3B2314" d="M222.3 493l81.36-.03.36-15.14h-50.58"/>
  <path fill="#331D11" d="M222.3 493l31.14-15.17h-11.58"/>
  <path fill="#285C99" d="M230.08 334.9l11.78 142.93h11.58l-6.6-142.93"/>
  <path fill="#ED2424" d="M355.47 77.4l2.48 2.77h109.97l.1-2.77 3.22-22.96h-26.67l-65.3-12.38 1.7 9.6c4.5.1 8.1 4.64 8.1 10.23 0 4-1.9 7.5-4.64 9.2l1.12 6.3h-30.08z"/>
  <path fill="#FFF" d="M380.98 51.65l3.45 19.45c2.74-1.67 4.63-5.17 4.63-9.2 0-5.6-3.6-10.14-8.08-10.25z"/>
  <ellipse cx="394.58" cy="104.07" fill="#FFF" rx="6.94" ry="8.82"/>
  <ellipse cx="392.35" cy="104.07" fill="#231F20" rx="4.71" ry="5.98"/>
  <path fill="#231F20" d="M387.44 124.7l.26 6.77-.26-6.76z"/>
  <circle cx="385.46" cy="118.53" r="6.46" fill="#F3E5C2"/>
  <path fill="#3B2314" d="M387.44 124.7l.27 6.77.2 3.14c2 1.9 5.4 3.1 8.5-1.3 4.4 2.8 8.8 1 9.6-2.6 3.9-.6 5.3-2.7 5.6-5 .4-3.2-1.5-6.8-1.5-6.8-8.9 5.6-22.4 6-22.4 6z"/>
  <path fill="none" stroke="#231F20" stroke-miterlimit="10" d="M388 139.2s6.52-.17 10.23-2.9"/>
  <path fill="#3B2314" d="M386.28 95.76s.26-.23.76-.54c.5-.3 1.25-.7 2.2-1.04.93-.35 2.07-.65 3.3-.8.63-.1 1.27-.16 1.93-.17.65 0 1.32.1 1.98.1l1.98.3c.64.1 1.27.3 1.87.5.6.2 1.16.4 1.7.6.53.2 1 .5 1.45.7.9.5 1.57 1 2.04 1.3l.7.6h-1c-.3 0-.7 0-1-.1-.4 0-.9 0-1.3-.1-.5 0-1-.1-1.5-.1l-1.7-.1c-.6 0-1.2-.1-1.8-.1-.6 0-1.2-.1-1.8-.12-.6-.06-1.2-.1-1.8-.14-.6-.04-1.2-.1-1.8-.1l-3.2-.2-3.3-.1zm46.9-15.6c4.3 13.5 1.65 33.83 1.65 33.83l8.57-2s-.32-15 1.74-19.5c1.54-3.4 14.02-3.3 16-.1 2.14 3.4 1.07 17.6 1.07 17.6s-.1 8.2 3.9 16.3c12.6 5.2 9.8-10.3 8-14.6 5.5-.3-6.1-15.6-6.1-31.6h-34.8z"/>
  <path fill="#FFF0CD" d="M302.9 77.4l-2.96 74.6H256V77.4"/>
  <path fill="#F3E5C2" d="M256 77.4h-35.6l2.97 74.6H256"/>
  <path fill="#E4D6B6" d="M281.57 93.68h13.62l-13.7 18.1"/>
  <path fill="#ED2424" d="M190.35 77.4l2.48 2.77H302.8l.1-2.77 3.2-22.96h-26.65l-65.3-12.38 1.7 9.6c4.48.1 8.1 4.64 8.1 10.23 0 4-1.9 7.5-4.64 9.2l1.2 6.3h-30.1z"/>
  <path fill="#FFF" d="M215.85 51.65l3.46 19.45c2.8-1.67 4.7-5.17 4.7-9.2 0-5.6-3.6-10.14-8.1-10.25z"/>
  <ellipse cx="229.45" cy="104.07" fill="#FFF" rx="6.94" ry="8.82"/>
  <ellipse cx="227.22" cy="104.07" fill="#231F20" rx="4.71" ry="5.98"/>
  <path fill="#231F20" d="M222.3 124.7l.27 6.77-.25-6.76z"/>
  <circle cx="220.34" cy="118.53" r="6.46" fill="#F3E5C2"/>
  <path fill="#3B2314" d="M222.3 124.7l.28 6.77.12 3.14c1.97 1.9 5.4 3.1 8.48-1.3 4.33 2.8 8.72 1 9.53-2.6 4-.6 5.4-2.7 5.6-5 .5-3.2-1.5-6.8-1.5-6.8-8.9 5.6-22.5 6-22.5 6z"/>
  <path fill="none" stroke="#231F20" stroke-miterlimit="10" d="M222.88 139.2s6.5-.17 10.22-2.9"/>
  <path fill="#3B2314" d="M221.16 95.76s.25-.23.75-.54c.6-.3 1.3-.7 2.2-1.04 1-.35 2.1-.65 3.4-.8.6-.1 1.3-.16 1.9-.17.7 0 1.3.1 2 .1l2 .3c.7.1 1.3.3 1.9.5.6.2 1.2.4 1.7.6.5.2 1 .5 1.5.7.9.5 1.6 1 2.1 1.3l.7.6h-.9c-.3 0-.6 0-1-.1-.4 0-.8 0-1.3-.1-.5 0-1-.1-1.5-.1l-1.7-.1c-.5 0-1.1-.1-1.7-.1-.6 0-1.2-.1-1.8-.12-.6-.06-1.2-.1-1.8-.14-.6-.04-1.2-.1-1.7-.1l-3.16-.2-3.24-.12zm46.9-15.6c4.3 13.5 1.64 33.83 1.64 33.83l8.58-2s-.33-15 1.72-19.5c1.6-3.4 14.1-3.3 16-.1 2.2 3.4 1.1 17.6 1.1 17.6s-.12 8.2 3.9 16.3c12.6 5.2 9.8-10.3 8-14.6 5.47-.3-6.15-15.6-6.15-31.6H268.1z"/>
  <path fill="#2C61AD" d="M77.78 208.84L80.8 334.9h62.76l11.24-126.06"/>
  <path fill="#E52727" d="M76.62 160.47l1.16 48.37h77.02l4.3-48.37"/>
  <path fill="#285C99" d="M37.4 208.85L48.66 334.9h32.27L77.9 208.85"/>
  <path fill="#DA2427" d="M33.1 160.47l4.3 48.38h40.5l-1.17-48.38"/>
  <path fill="#265791" d="M75.58 208.85l-1.24-48.38H65.6l2 48.38m-31.86-48.38l4.13 48.38h5.76l-3.94-48.38"/>
  <ellipse cx="71.53" cy="214.46" fill="#F9EC31" rx="2.97" ry="3.96"/>
  <ellipse cx="43.66" cy="214.46" fill="#F9EC31" rx="2.97" ry="3.96"/>
  <path fill="#F3E5C2" d="M90.45 152H119v8.47H90.45z"/>
  <path fill="#E4D6B6" d="M77.08 152h13.75v8.47H77.08z"/>
  <path fill="#2D1B12" d="M2.37 493h73.16l4.76-15.17h-49"/>
  <path fill="#24598C" d="M31.32 477.83H80.3l12.2-38.86 7.87-25v-.02l24.85-79.05H65.35"/>
  <path fill="#23140E" d="M2.37 493l28.95-15.17H16.98"/>
  <path fill="#22537D" d="M16.98 477.83h14.34L65.35 334.9H48.78"/>
  <path fill="#3B2314" d="M90.56 493h78.55l-2.4-15.17h-50.9"/>
  <path fill="#2C61AD" d="M81.33 334.9l19.04 79.05 15.4 63.88h50.9L143.52 334.9"/>
  <path fill="#331D11" d="M90.56 493l25.2-15.17h-13.1"/>
  <path fill="#285C99" d="M65.35 334.9L92.5 438.96l10.16 38.87h13.1l-15.4-63.87-19.03-79.06"/>
  <path fill="#FFF" d="M62.03 314.14H98.9l10.7-29.1H70.02"/>
  <path fill="#ED2424" d="M70.03 285.03h39.56l3-8.34 29.4-80.2H94.3l-22 80.2m22.03-80.2h47.8l11.8-32.1h-50.78"/>
  <path fill="#F2F2F2" d="M54.1 314.14h7.93l8-29.1H61.6"/>
  <path fill="#DD2627" d="M61.6 285.03h8.43l2.28-8.34 22.1-80.2h-10l-20.6 80.2"/>
  <path fill="#DD2627" d="M84.4 196.5h9.93l8.82-32.1h-10.5"/>
  <path fill="none" d="M16 482.35h-.02"/>
  <path fill="#FFF0CD" d="M136.4 77.4l-2.96 74.6H89.48V77.4"/>
  <path fill="#F3E5C2" d="M89.48 77.4H53.92L56.9 152h32.58"/>
  <path fill="#E4D6B6" d="M115.07 93.68h13.62l-13.7 18.1"/>
  <path fill="#ED2424" d="M23.84 77.4l2.5 2.77H136.3l.1-2.77 3.2-22.96h-26.67l-65.3-12.38 1.7 9.6c4.5.1 8.1 4.64 8.1 10.23 0 4-1.9 7.5-4.64 9.2l1.1 6.3H23.8z"/>
  <path fill="#FFF" d="M49.35 51.65L52.8 71.1c2.75-1.67 4.64-5.17 4.64-9.2 0-5.6-3.6-10.14-8.1-10.25z"/>
  <ellipse cx="62.95" cy="104.07" fill="#FFF" rx="6.94" ry="8.82"/>
  <ellipse cx="60.72" cy="104.07" fill="#231F20" rx="4.71" ry="5.98"/>
  <path fill="#231F20" d="M55.8 124.7l.27 6.77-.26-6.76z"/>
  <circle cx="53.84" cy="118.53" r="6.46" fill="#F3E5C2"/>
  <path fill="#3B2314" d="M55.8 124.7l.28 6.77.12 3.14c1.97 1.9 5.38 3.1 8.48-1.3 4.33 2.8 8.72 1 9.53-2.6 3.9-.6 5.4-2.7 5.6-5 .5-3.2-1.5-6.8-1.5-6.8-8.9 5.6-22.5 6-22.5 6z"/>
  <path fill="none" stroke="#231F20" stroke-miterlimit="10" d="M56.38 139.2s6.5-.17 10.22-2.9"/>
  <path fill="#3B2314" d="M54.65 95.76s.26-.23.76-.54c.5-.3 1.3-.7 2.2-1.04 1-.35 2.1-.65 3.4-.8.6-.1 1.3-.16 1.9-.17.7 0 1.3.1 2 .1l2 .3c.7.1 1.3.3 1.9.5.6.2 1.2.4 1.7.6.6.2 1.1.5 1.5.7.9.5 1.6 1 2.1 1.3l.7.6h-.9c-.3 0-.6 0-1-.1-.3 0-.8 0-1.3-.1-.4 0-.9-.1-1.5-.1-.5-.1-1.1-.1-1.6-.2-.5 0-1.1-.1-1.7-.1-.6 0-1.2-.1-1.8-.12-.6-.03-1.2-.1-1.8-.12l-1.75-.1L58 96l-3.26-.1zm46.9-15.6c4.3 13.5 1.65 33.83 1.65 33.83l8.58-2s-.33-15 1.73-19.5c1.6-3.4 14.1-3.3 16-.1 2.2 3.4 1.1 17.6 1.1 17.6s-.1 8.2 3.9 16.3c12.6 5.2 9.8-10.3 8-14.6 5.5-.3-6.1-15.6-6.1-31.6h-34.8z"/>
  <path fill="#265791" d="M406.2 208.84l-1.23-48.37h-8.73l2 48.37m-31.87-48.37l4.13 48.37h5.76l-3.94-48.37"/>
  <ellipse cx="402.17" cy="214.46" fill="#F9EC31" rx="2.97" ry="3.96"/>
  <ellipse cx="374.29" cy="214.46" fill="#F9EC31" rx="2.97" ry="3.96"/>
  <path fill="#285C99" d="M202.67 208.85L213.9 334.9h32.28l-3.03-126.05"/>
  <path fill="#DA2427" d="M198.35 160.47l4.32 48.38h40.48L242 160.47"/>
  <path fill="#265791" d="M240.83 208.85l-1.24-48.38h-8.8l2 48.38M201 160.47l4.12 48.38h5.77l-4-48.38"/>
  <ellipse cx="236.79" cy="214.46" fill="#F9EC31" rx="2.97" ry="3.96"/>
  <ellipse cx="208.91" cy="214.46" fill="#F9EC31" rx="2.97" ry="3.96"/>
</svg>
