<svg xmlns="http://www.w3.org/2000/svg" viewBox="0 0 320 240">
  <g fill="none" stroke="#000" stroke-width="2" stroke-miterlimit="10" clip-rule="evenodd" stroke-linecap="round" stroke-linejoin="round">
    <path d="M212.5 79.1c-5.35 1.2-9.65 3.7-11.52 9.23-.77 2.26-.52 4.46.2 6.73.72 2.33 3.05 2.26 4.32.92 1.3-1.36 2.52-2.83 3.47-4.44 1.36-2.3 2.44-4.77 3.64-7.17m-37.5 46.08c-5.3 1.2-9.6 3.72-11.5 9.24-.8 2.2-.5 4.4.2 6.7s3.1 2.2 4.4.9c1.3-1.4 2.5-2.9 3.5-4.5 1.4-2.3 2.5-4.8 3.7-7.2m19.6-10.4c-4.5.9-8.2 3-10.5 7.1-1.5 2.8-1.6 5.8-.3 8.8.6 1.5 2.25 1.8 3.7.7 2.1-1.7 3.3-4 4.55-6.3 1-1.8 1.8-3.7 2.7-5.5m-4.66-43l-.24-1.5c-2.07-.1-3.62.84-4.9 2.16-2.6 2.7-4.13 6-4.7 9.7-.3 2.12 1.14 4.46 3 4.62 1.14.1 2.4-.13 3.46-.6 4.85-2.2 8.6-5.5 10.8-10.4m-64.53 11.2c-.1-.5-.18-1-.26-1.5-2.05-.1-3.6.8-4.9 2.1-2.6 2.7-4.1 6-4.65 9.7-.3 2.1 1.12 4.4 3 4.6 1.12.1 2.4-.1 3.44-.6 4.9-2.15 8.7-5.5 10.9-10.4m65.1 15.1c-1.1 1.16-2.2 2.3-3.2 3.5-.6.75-1 1.7-.8 2.8 1.6 1.1 3.5 1.1 5.3 1.5 1.5.37 3 .7 4.4 1.2.6.15.9.74 1.4 1.14m.3 1.92c-.3 1.1-1.1 1.7-2.1 2.2-2.3 1.14-4.7 1.8-7.3 1.05m-26.13-33.2c-.33-1.9-.55-3.86-1-5.76-.54-2.35-1.2-4.67-1.93-6.96-.26-.7-.4-1.7-1.7-2-.7 1-1.57 2-2.1 3.12-1 2.1-1.8 4.3-2.7 6.46m-.8 5.5l.05 2.26m-76.1-4.5l1.66 7.3c.64 2.7 1.3 5.4 1.9 8.16.4 2.1.8 4.27 1.3 6.4m64.8 18.83c-1 2.6-2.8 4.75-4.8 6.56-2.2 1.9-4.6 3.5-7.46 4.18-2.5.54-3.6.15-4.43-2.07-.5-1.5-.5-3.1 0-4.56.2-.54.3-1.14.5-1.65 1.1-2.9 2.7-5.4 5.26-7.1 1.3-1 2.75-1.3 4.3-.6m-33.23-25.7c-1 2.6-2.72 4.7-4.8 6.5-2.13 1.9-4.5 3.45-7.4 4.1-2.5.54-3.55.15-4.4-2.08-.55-1.46-.5-3.06 0-4.54.2-.6.3-1.2.5-1.7 1.1-2.82 2.7-5.33 5.2-7.1 1.36-.93 2.8-1.2 4.35-.6m104.5-37.8c1.5 5.4 2 10.94 2.8 16.45.25 1.6.7 3.2.94 4.8.1.9.1 1.85.1 2.77m-83.4-4.58h1.4c.5 1.8 1.1 3.6 1.5 5.4.6 3 1.12 6 1.64 9.1.2 1.2.2 2.42.36 3.7m-8.4 37.2l-8.5 3.5c-.4.1-.8.3-1.2.43m24.38-53c1.17 1.96 1.68 4.1 2.16 6.27.46 2.16.73 4.34 1.1 6.5.04.24.15.48.23.7M105.3 96c-1.8.8-3.57 1.68-5.4 2.4-2.38.9-4.8 1.68-7.2 2.53-.37.13-.7.32-1.08.48m-1.68.5c-1.52.7-3.04 1.5-4.56 2.2m73.2-10.8l.9 3.5c.7 2.8 1.4 5.5 2 8.3.2.8.6 1.6-.1 2.3M116 134.2l.6 3c.7 3.5 1.44 7.04 2.17 10.56.13.7.3 1.38.46 2.06"/>
    <path d="M158.97 137.65c-.68.36-1.38.68-2.03 1.08-3.5 2.15-6.96 4.33-10.45 6.47-.5.28-1.1.4-1.6.6m-25.8-39.1c-.7.35-1.4.67-2 1.07l-10.5 6.47c-.5.28-1.1.4-1.6.6m34.3 27.3l-3.2 1.05 2.9 11.6c.1.6.4 1.3.6 1.9m-6.4-26.5c-.1.4-.3.8-.3 1.1 1 3.6 2 7.3 3.1 10.9l.2.7m14.5-48.6c-1.5.9-2.2 2.4-2.8 4-.9 2.2-1.5 4.4-2.2 6.7-.2.6-.6 1.1-.9 1.7M214 81.4c.2.5.46 1.1.56 1.6.4 2.2.7 4.5 1 6.7.1.7.22 1.4.34 2.1m-39.34 40.8c.2.6.5 1.1.6 1.7.4 2.2.68 4.5 1 6.7.1.7.25 1.4.37 2.2m16.7-13.6l.84 1.5m-3.95-18.6c1.4 1.12 1.16 2.8 1.47 4.3.3 1.83.7 3.7.9 5.52.1.9.1 1.82.1 2.74M165 92.8c.57 1.68 1.1 3.36 1.7 5.03.14.4.4.72.6 1.1m-10.56-9.2l.9.24-.23 1.5"/>
  </g>
</svg>
