<svg xmlns="http://www.w3.org/2000/svg" viewBox="0 0 320 240">
  <g fill="none" stroke="#000" stroke-width="2" stroke-miterlimit="10" clip-rule="evenodd" stroke-linecap="round" stroke-linejoin="round">
    <path d="M227.02 81.28l.18.6m1.02 5.88c.53 2.62 1.38 5.2 1.26 7.92-.2 4.54-2.18 7.4-6.6 8.86-2 .66-4.1 1.03-6.23.85-3.28-.3-6.22-1.3-8.18-4.2-.1-.2-.4-.3-.6-.4m-83.5 1.9c-5.35 1.2-9.65 3.7-11.5 9.2-.78 2.2-.54 4.4.17 6.7.73 2.3 3.06 2.2 4.34.9 1.3-1.4 2.52-2.8 3.46-4.5 1.36-2.3 2.44-4.8 3.64-7.2m-40.44 46.8c-5.34 1.2-9.64 3.7-11.5 9.2-.78 2.2-.53 4.4.18 6.7.73 2.3 3.06 2.3 4.33.9 1.3-1.4 2.53-2.9 3.47-4.5 1.36-2.3 2.44-4.8 3.64-7.2m55.2-16.8c1.48-.3 3-.4 4.44-.8 5.03-1.28 9.3-3.8 11.32-8.7 1.55-3.78.2-6.26-4-7.27-3.64-.9-7.03.34-10.3 1.8-1.4.6-2.66 1.5-3.98 2.24m88.2-54.6c-2.62.23-4.9 1.4-6.93 2.94-2.7 2.1-4.5 4.9-4.6 8.5 0 1.44.3 3 .9 4.4.8 1.8 2.6 2 4 .46 1.4-1.4 2.6-3.04 3.6-4.75 1.3-2.3 2.3-4.7 3.4-7M118 145.8c-4.5.9-8.23 3-10.52 7.1-1.57 2.83-1.6 5.87-.36 8.86.64 1.6 2.25 1.83 3.7.7 2.1-1.64 3.34-3.95 4.55-6.24.94-1.8 1.76-3.7 2.64-5.54m102.5-30.6l-.2-1.4c-2-.1-3.6.84-4.8 2.16-2.6 2.7-4.1 6-4.6 9.7-.3 2.1 1.2 4.43 3 4.6 1.1.1 2.4-.1 3.5-.6 4.8-2.16 8.6-5.5 10.8-10.4m30.4-12.73c.9 1 .8 2.4 1.15 3.5.94 3.2 1.75 6.4 2.6 9.6.75 2.8 0 5.3-1.74 7.5m-1.4 1.3c-1.8 1.6-4.1 2.2-6.4 2.7-1.7.3-3.3.4-4.9-.1M103.46 165c-.38-1.93-.6-3.87-1-5.77-.6-2.34-1.2-4.66-2-6.95-.3-.75-.4-1.73-1.7-2.05-.7 1-1.6 2-2.1 3.12-1 2.1-1.8 4.3-2.7 6.46m-.8 5.5l.04 2.3M210.33 95c-.3-1.9-.54-3.85-.98-5.75-.53-2.33-1.2-4.65-1.92-6.94-.22-.7-.35-1.7-1.7-2-.66 1-1.52 2-2.06 3.1-1 2.1-1.8 4.3-2.7 6.5m-.8 5.6v2.3m-102.3 2.6c-.5 1.88-1 3.7-1.46 5.56-.77 3.55-1.5 7.12-2.27 10.68-.56 2.6-.57 5.2-.37 7.8m93.7 1.7v.28c2.6.78 3.14 3.06 3.58 5.2 1 4.73-1.1 9.1-4.8 11.5-1.7 1.06-3.6 1.9-5.7 1.46-.2 0-.4.17-.6.25m-98.7-37.34c.5 2.07.9 4.14 1.3 6.23.5 2.5 1 5.02 1.3 7.55.4 2.43.7 4.88 1 7.32.1.43 0 .88 0 1.32m14-28.94l2 4.08m2.3 4.56l1.9 3.24m72.1-16.08c-1 2.63-2.7 4.76-4.8 6.57-2.1 1.9-4.5 3.5-7.4 4.1-2.5.6-3.6.2-4.4-2-.5-1.4-.5-3 0-4.5.2-.5.3-1.1.5-1.6 1.1-2.8 2.7-5.3 5.3-7.1 1.3-.9 2.8-1.2 4.3-.6m4.48 26c-.3 1.3.6 2.3.8 3.5.56 3.1 1.24 6.2 1.78 9.3.48 2.8.8 5.5 1.3 8.3.1.7.58 1.3.88 1.9m14.5-23.9c1.5 5.4 2 11 2.8 16.5.26 1.6.7 3.2.96 4.8.1.9.05 1.87.1 2.8m-116.4-34c.34.3.9.57 1.04.97 2.3 5.26 5.67 9.9 8.68 14.74.6.9 1.4 1.8 2.1 2.7m41.1-20.82l-.72 2.4m-.56 5.78l.4 3.77m29.3 26.1c.26 2 .5 4 .8 6 .05.33.3.64.46.96m-22-61.56c.1 1.33.18 2.66.4 3.97.6 3.4 1.25 6.8 1.9 10.2.2 1.05.56 2.08.8 3.1m.5 6.6c.04-.6.2-1.1.1-1.6-.22-1.4-.54-2.7-.82-4.1m.84-.7l7.45 3.2m1.57.8l1.8.6"/>
    <path d="M187.48 126.4c-2.5.24-3.6 2.1-4.55 4.08-1.35 2.86-2 5.95-2.77 9m-9.23-4.92c-.24.46-.6.9-.7 1.38-.85 3.63-2.1 7.1-3.65 10.5-.52 1.12-1.32 2.14-2.5 2.76m84.85-38.76c.3.92.83 1.82.92 2.76.2 2.1.14 4.24.3 6.36.1 1.36.3 2.73.6 4.07.14.57.64 1.05.92 1.5 1.48-.35 1.7-1.48 2.03-2.4 1.18-3.26 2.26-6.55 3.4-9.83.16-.48.46-.92.7-1.38m-54.83 11.16l.84 3.48 2.1 8.28c.2.73.6 1.55-.1 2.28m-14.3-52.44l.9 3.48c.7 2.76 1.4 5.5 2 8.28.2.73.6 1.55-.1 2.28m36.4 16.92l.9 3.48 2.1 8.28c.2.73.6 1.55-.1 2.28M175 91.72c-.68.36-1.38.68-2.03 1.08-3.5 2.15-6.96 4.33-10.45 6.47-.47.28-1.04.4-1.56.6m19.32-10.55l2.28 10.32.24.96m56.52 14.16c.76 3.44 1.52 6.88 2.3 10.32.06.32.14.64.22.96m-70.56 8.64c.2.48.56.95.58 1.44.08 2.63.8 5.1 1.7 7.56m-54.96 6.72l.84 1.56m6.73-46.8c.2.56.5 1.1.58 1.68.36 2.23.65 4.48.98 6.72.1.72.23 1.44.35 2.16m-42.24 41.52c.2.56.5 1.1.6 1.68.35 2.23.64 4.48.97 6.72.1.72.3 1.44.4 2.16m27.7-34.44c1.4 1.14 1.2 2.83 1.5 4.32.4 1.83.7 3.67 1 5.52.2.9.1 1.84.2 2.76m19.6-2.88h1.3l.3-.2c.3 1.15.6 2.28.8 3.44.6 3 1.1 6.03 2.3 8.88 0 .02-.1.08-.1.12m-5.1-22.44l2 10.08M152 96.28c-1.25 3.45-3.77 5.88-6.5 8.16M131 98.92c.3 1.44.65 2.87.95 4.32.15.7.2 1.45.38 2.15.12.5.38.9.58 1.4m65-22.7c.6 1.7 1.1 3.3 1.7 5l.6 1m-109.3 64c.6 1.6 1.1 3.3 1.7 5 .2.4.4.7.6 1.1"/>
    <path d="M186.04 86.44c-3.18 1.28-6.28 2.72-9.1 4.7-.15.1-.17.38-.25.58m68.3 20.16c-3.2 1.28-6.3 2.72-9.1 4.7-.2.1-.2.38-.3.58m22.3-10.32l.1 2.88m-57.1 9.54l.9.24-.3 1.5m-12.2-40.14l.9.23-.3 1.5m38.4 29.2l.92.2-.26 1.5m-2.5-37.2l-.4.2"/>
  </g>
</svg>
