<svg xmlns="http://www.w3.org/2000/svg" viewBox="0 0 320 240">
  <g fill="none" stroke="#000" stroke-width="2" stroke-miterlimit="10" clip-rule="evenodd" stroke-linecap="round" stroke-linejoin="round">
    <path d="M98.8 141c-1.4-.82-2.94-.52-4.3-.2-7.14 1.7-12.26 5.98-14.96 12.82-1.34 3.4-1.07 6.87 1.28 9.93 1.75 2.3 4.27 3.2 6.95 3.72 3.27.64 6.43-.06 9.47-1.1 3.58-1.24 6.87-3.1 9.72-5.63 1.28-1.14 2.45-2.43 2.9-4.18.05-.15.3-.25.47-.37M64 108.8c-1.4-.8-2.94-.5-4.3-.2-7.14 1.7-12.26 6-14.96 12.83-1.34 3.4-1.07 6.87 1.27 9.93 1.8 2.27 4.3 3.17 7 3.7 3.3.64 6.4-.06 9.5-1.1 3.6-1.24 6.9-3.1 9.7-5.63 1.3-1.14 2.5-2.43 2.9-4.18.1-.16.3-.25.5-.37m155-48.7c-1.6-.9-3-.2-4.5.37-4 1.57-7.2 4.06-8.6 8.4-.7 2.27-.5 4.47.2 6.74.7 2.3 3 2.2 4.4.9 1.5-1.3 2.6-3 3.6-4.7 1.6-2.8 3.1-5.7 4.2-8.7.3-.9 1.4-1.5 1.1-2.7-.1-.7.1-1.3.3-1.8m-20.9 48.1c-1.6-.9-3-.2-4.5.3-4 1.5-7.2 4-8.6 8.4-.7 2.3-.5 4.4.2 6.7.8 2.3 3 2.2 4.4.9 1.5-1.3 2.6-3 3.6-4.7 1.6-2.8 3.1-5.7 4.2-8.7.3-.9 1.4-1.5 1.1-2.7-.1-.7.1-1.3.3-1.8m52-54.9c-4.5.9-8.2 3-10.5 7.1-1.6 2.82-1.6 5.9-.4 8.9.7 1.6 2.3 1.8 3.7.7 2.1-1.68 3.3-4 4.6-6.28.9-1.6 1.7-3.18 2.3-4.8.1-.3.2-.6.4-.7.8-.5.8-1.3.8-2.1.1-1 .5-1.97-.5-2.8-.3-.3-.2-1.18-.3-1.78-.5-2.9-.9-5.77-1.3-8.6-.1-1-.4-1.7-1.1-2.3M168 132.4c-4.5.9-8.27 3-10.55 7.1-1.54 2.83-1.6 5.87-.34 8.86.6 1.56 2.3 1.82 3.7.7 2.1-1.63 3.3-3.96 4.6-6.23.9-1.55 1.7-3.13 2.3-4.8.1-.25.2-.57.4-.7.8-.5.8-1.3.8-2.06.1-1 .5-1.93-.5-2.8-.3-.26-.2-1.15-.3-1.75-.4-2.87-.9-5.75-1.3-8.64-.1-.92-.4-1.65-1.1-2.3m-46.6 24.9c.8.5 1.5 1 2.4 1.3 1.8.55 2.6 1.77 3 3.6.8 4-2 8.96-4.8 10.57-2.7 1.56-5.3.06-5.8-3.1-.5-3.77.7-7 2.6-10.08.2-.38.5-.65.5-1.1m17.4-5.2c.8.5 1.5 1 2.4 1.24 1.8.6 2.6 1.8 2.9 3.6.8 4-2 9-4.8 10.6-2.7 1.6-5.3.1-5.8-3.1-.5-3.7.7-7 2.6-10 .2-.3.6-.6.5-1.1m-48-28.8c.8.5 1.5 1 2.4 1.3 1.8.6 2.6 1.8 2.9 3.6.8 4-2 9-4.8 10.6-2.7 1.6-5.3.1-5.8-3.1-.5-3.7.7-7 2.6-10 .2-.4.6-.6.5-1.1m151.8.1c.8.5 1.5 1 2.4 1.2 1.8.5 2.6 1.7 2.9 3.6.8 4-2 8.9-4.8 10.5-2.7 1.5-5.3 0-5.8-3.2-.6-3.8.7-7 2.6-10.1.3-.4.6-.7.5-1.1M195 85c.2-1.1-.63-1.48-1.3-1.8-.56-.3-1.2-.3-1.7.3-1.03 1.4-2.5 2.4-3.46 3.9-.2.33-.5.7-.7 1.05-.6 1.2-.3 1.83 1.1 2.4 2 .8 4.2.83 6.3 1.4 1 .3 2 .6 2.9 1.3 1.1.94 1.1 2.67.1 3.73-1.3 1.4-3.1 2-4.9 2.2-.6.08-1.1.27-1.6.3-2.9.14-4.4-1.54-4.2-4.57M105.4 123c-.1-2.2-.8-4.3-1.2-6.46-.5-2.2-1.1-4.3-1.8-6.4-.2-.43-.3-.84-.6-1.2-.5-.83-.9-.9-1.5-.13-1.56 1.8-2.4 4-3.4 6.1-.5 1.2-.56 2.5-1.6 3.6-.5.6-.1 2-.2 3-.1 1.4.4 2.8.13 4.1m98.4 15.2c-.03-2.2-.8-4.3-1.2-6.42-.4-2.2-1.1-4.3-1.73-6.4-.17-.4-.3-.87-.58-1.2-.5-.8-.9-.9-1.58-.1-1.6 1.8-2.4 4-3.4 6.1-.56 1.2-.6 2.5-1.6 3.6-.56.5-.1 2-.2 3-.1 1.34.32 2.7.1 4.1m-31.38-33c-.05-2.2-.8-4.3-1.2-6.5-.4-2.1-1.1-4.2-1.75-6.3-.1-.4-.3-.8-.5-1.2-.5-.8-.9-.85-1.52-.1-1.53 1.8-2.4 3.97-3.36 6.1-.52 1.17-.55 2.5-1.6 3.57-.53.58-.12 2-.2 3.04-.1 1.4.3 2.7.1 4.1M248 84.7c-.07-2.24-.8-4.34-1.2-6.5-.45-2.2-1.1-4.3-1.77-6.4-.1-.4-.3-.82-.52-1.2-.5-.8-.9-.85-1.5-.1-1.5 1.8-2.4 4-3.4 6.1-.5 1.2-.5 2.5-1.6 3.6-.5.55-.1 2-.2 3-.1 1.4.4 2.76.2 4.1m-65.6 10.5c-1 2.65-2.7 4.78-4.8 6.6-2.1 1.9-4.5 3.5-7.4 4.14-2.5.54-3.5.15-4.4-2.1-.5-1.46-.5-3.06 0-4.54.2-.6.3-1.2.5-1.7 1.1-2.86 2.7-5.37 5.2-7.1 1.4-.97 2.8-1.2 4.4-.6M138.5 107c-1 2.63-2.74 4.75-4.8 6.57-2.14 1.9-4.5 3.5-7.4 4.1-2.5.6-3.56.2-4.4-2.03-.56-1.47-.5-3.06 0-4.54.2-.57.3-1.17.5-1.68 1.1-2.8 2.7-5.33 5.22-7.1 1.33-.93 2.77-1.2 4.32-.6m118.4 6.95c-1.02 1-2 2.04-2.76 3.25-.94 1.5-1.6 3.1-2.17 4.8-.2.68-.5 1.35-1 1.98-.4.5-.2 1.56-.1 2.35l.6 6.48M181.7 85.8c-1.02 1-2 2.02-2.76 3.23-.95 1.5-1.62 3.12-2.18 4.8-.28.68-.5 1.35-1 1.98-.4.6-.27 1.6-.2 2.4.14 2.2.4 4.3.6 6.5m-25.46 30.9c-1.02 1-2 2.1-2.76 3.3-.95 1.5-1.6 3.2-2.18 4.8-.23.7-.5 1.4-1 2-.4.5-.22 1.6-.16 2.4.15 2.2.38 4.4.58 6.5m-28.8-50.4c-.74 2.1-1.1 4.3-1.5 6.5-.28 1.4-.3 2.8-.58 4.2-.34 1.7-.05 3.6-1 5.2-.24.4.03 1.1.07 1.7m61.1 8.9c-.07 1.3.55 2.3.84 3.5.7 2.8 1.6 5.5 2.1 8.3.1.7.6 1.5-.1 2.3"/>
    <path d="M136.5 102.23c-.53.66-1.37.72-2.06 1.07-3.67 1.85-7 4.26-10.42 6.5-.5.34-.94.68-1.57.6m47.88-17.3c-.52.67-1.36.73-2.05 1.08-3.67 1.85-7 4.26-10.42 6.5-.5.34-.94.68-1.57.6m60.8 19.44c1 3.38 1.5 6.88 2.2 10.32.1.78.5 1.55.3 2.4m-113.8-25.92c.3.56.5 1.2.9 1.66 2.4 2.74 3.7 6.08 5.3 9.26.2.54.5 1.04.9 1.44M263.5 70.2c1.12 1 .9 2.47 1.3 3.72.52 1.77.8 3.6 1.22 5.4.2.83.4 1.65.23 2.5m-97.8 55.33c1.13 1 .92 2.48 1.3 3.73.53 1.77.82 3.6 1.24 5.4.2.83.3 1.65.2 2.5m39.1-24.95c.5.44.6 1.04.6 1.7-.1 2.27.6 4.47.9 6.7.1 1.27.7 2.44.6 3.73m18.2-58.93c.5.44.6 1.04.6 1.68-.1 2.3.6 4.5.9 6.8.1 1.3.7 2.5.6 3.7m-90.3 48.1c-.1 1.6.8 2.9 1 4.3 0 .7.3 1.5.3 2.2 0 .6.2 1.1.6 1.5m29-57.6c-.1 1.5.8 2.9.9 4.3 0 .8.3 1.5.3 2.2 0 .6.2 1.1.6 1.5m66.7 15.2c-.1 1.5.8 2.8.9 4.3 0 .8.3 1.5.3 2.2 0 .6.2 1.1.6 1.5m-104.4-19c.8 1.6 1.4 3.3 1.6 5.1 0 .5.3.8.6 1.1m39 24.2c.7 1.6 1.4 3.3 1.6 5.1 0 .5.3.8.6 1.1m-90.5-23.9c.7 1.6 1.4 3.27 1.6 5 .02.5.3.8.6 1.1m140.8-44.2c.7 1.6 1.4 3.3 1.6 5.1 0 .5.3.8.6 1.1"/>
    <path d="M222.9 117.83c-3.2 1.28-6.3 2.73-9.13 4.7-.2.12-.27.34-.24.58m3.24-8.1c-.08 1.4-.55 2.7-1.32 3.9"/>
  </g>
</svg>
