<svg xmlns="http://www.w3.org/2000/svg" viewBox="0 0 320 240">
  <g fill="none" stroke="#000" stroke-width="2" stroke-miterlimit="10" clip-rule="evenodd" stroke-linecap="round" stroke-linejoin="round">
    <path d="M180.58 82.46c-1.3-.57-2.4-.24-3.5.65-2.28 1.9-4.1 4.1-4.9 7-.5 1.8.1 3.3 1.8 3.8 1.33.4 2.72.6 4.08.9 2.13.4 4.3.6 6.23 1.7.6.4 1.2.8 1.6 1.3 1.6 2.2 1.1 3.3-.4 4.7-2.9 2.7-6.4 3.9-10.3 3.6-2.3-.1-3.9-1.8-4.5-4.3-.1-.4-.3-.9-.4-1.3M43.1 118.7c1.03-.1 1.45.4 1.7 1.3 1.78 6.38 3.8 12.6 4.55 19.2 0 .4.1.7.2 1.38 5.8-1.37 11.4-3.05 16.25-6.73M92 117.2l.24-.88c-.35-.2-.68-.4-1.14-.7-4.4 1-8.14 3.1-9.8 7.7-.7 1.9-.6 3.9.24 5.76.85 1.9 1.86 2.1 3.15 1.04 1.4-1.17 2.4-2.75 3.4-4.3 1.1-1.9 2-3.98 3-5.98l.6-1.25h.3c.3 1.1.7 2.2.9 3.4.5 2.8 1.1 5.6 1.5 8.5.4 2.6.1 5.1-1.7 7.3-1.3 1.6-3.1 2.3-5 2.7-2.7.6-5.3.7-7.9-.4-1.6-.7-2.7-1.7-3.6-3.1m129.5-38.9c5.2.4 9.2-4.7 9.1-9.2-.1-1.5-.2-2.9-.8-4.2-1.1-2.4-2.8-3.3-5-1-.8.8-1.3 1.9-1.7 3-.7 1.9-1.2 3.9-1.7 5.8-.1.2-.3.4-.5.6m-25.9 47.5c5.2.5 9.3-4.6 9.1-9.1-.05-1.5-.23-2.9-.8-4.2-1.05-2.4-2.7-3.3-5-.9-.75.8-1.3 1.9-1.67 2.9-.7 1.9-1.13 3.9-1.7 5.84-.04.2-.3.4-.44.6m42.7-42.25c5.25.5 9.3-4.6 9.15-9.1 0-1.5-.2-2.9-.74-4.2-1-2.4-2.7-3.35-4.94-.98-.74.8-1.3 1.94-1.66 3-.66 1.9-1.13 3.9-1.7 5.87-.1.2-.3.4-.5.6m-78.4 14.2c-.44-1-.8-1.2-1.8-.86-1.3.45-2.36 1.3-3.2 2.4-1.84 2.22-3.17 4.7-3.4 7.65-.2 2.74 1.44 4.9 4.9 3.6 4.3-1.63 7.53-4.47 9.6-8.64.1-.2.44-.33.7-.5m20.9 23.4l-2-1.5c-1.5 2.35-4.3 3.4-4.46 6.4 1.1 1.1 2.56 1.05 3.9 1.36 1.3.3 2.65.55 3.93 1 2.2.7 2.7 3.1.7 4.5-1.8 1.26-4 1.64-6.1 1.5-1.5-.1-2.2-1.2-2.4-2.6-.1-.4.1-1-.6-.97m-52.6-29.4l-2-1.5c-1.5 2.34-4.3 3.4-4.5 6.37 1.16 1.1 2.6 1.1 3.9 1.4 1.35.3 2.7.6 4 1 2.26.8 2.74 3.1.73 4.6-1.8 1.3-4 1.7-6.1 1.57-1.5-.08-2.2-1.18-2.4-2.6-.1-.4.12-1-.6-.96m51.7 13.32c.6.3 1.2.6 1.8.82 1.62.6 2.42 1.8 2.5 3.6.1 3.2-1.08 5.9-3.57 8-.68.5-1.5.9-2.3 1.2-.9.3-2.2-.5-2.87-1.8-1.15-2.3-.8-4.7 0-7 .5-1.24 1.2-2.4 1.8-3.6m87-59.64c.6.3 1.2.6 1.8.83 1.66.65 2.46 1.8 2.54 3.6.14 3.3-1.02 5.97-3.5 8.04-.65.53-1.5.9-2.3 1.2-.9.33-2.2-.5-2.9-1.8-1.15-2.3-.83-4.66 0-6.95.5-1.27 1.2-2.4 1.8-3.6M73 120c.6.3 1.2.6 1.8.87 1.65.6 2.45 1.8 2.53 3.6.1 3.22-1.06 5.9-3.55 8-.64.52-1.47.9-2.27 1.2-.9.32-2.2-.5-2.8-1.8-1.1-2.3-.8-4.67 0-6.96.5-1.2 1.2-2.4 1.8-3.6M256.9 106l.1 2.4m.25 1.56c.5 1.56 1 3.1 1.45 4.68.57 2.06 1.15 4.1 1.66 6.18.83 3.34-.5 5.93-3.12 7.84-2.5 1.82-5.45 2.45-8.5 2.04-.77-.1-1.47-.54-2.2-.82m-20.87-23.04c.27 1.32.6 2.64.82 3.96.3 1.84.5 3.68.8 5.52.3 2.32.7 4.64 1 6.96.2 1.56.9 3.06.6 4.68m-117.3 17.76c-3.8.67-6.8 2.43-8.9 5.66-1.5 2.37-1.6 5.03-.7 7.66.5 1.7 2.2 2.1 3.5.82 1-.96 1.9-2.05 2.6-3.24 1.1-1.92 2-3.98 3-5.97.2-.4.5-.8.8-1.1m109.2-32.8c-1.4-.8-2.6-.2-3.88.3-3.3 1.34-6 3.3-7.24 6.83-.8 2.15-.6 4.27.07 6.35.53 1.6 2.5 1.95 3.8.56 1.3-1.4 2.44-2.9 3.4-4.6 1.3-2.3 2.3-4.7 3.4-7.1.2-.4.5-.7.7-1M83.8 153.7c-1.36-.76-2.6-.13-3.84.37-3.26 1.34-5.96 3.3-7.2 6.83-.73 2.15-.6 4.27.1 6.35.5 1.63 2.45 1.97 3.74.6 1.3-1.4 2.47-2.94 3.4-4.57 1.22-2.25 2.2-4.7 3.4-7.03.12-.38.42-.67.7-1m114-65.87c.26 1.7.42 3.4.8 5.03.4 1.6 1.02 3.2 1.53 4.7 0 .3 0 .5.1.8m-56.4 39.1l-6.27 2.6c-3.2 1.3-6.35 2.8-9.87 3m62.1-54.1l.2.9m0 .1l.9 9.5c0 .4.2.7.3 1.1m5.9-12.7l-1.2 3.4c-.9 2.4-1.7 4.9-2.7 7.2-.4 1-1.4 1.6-2.1 2.4"/>
    <path d="M249.34 108.92c.78 1.35.58 2.87.7 4.32.18 1.92.2 3.85.42 5.76.1.78.58 1.5.9 2.27.13 0 .26 0 .4.02.35-.4.82-.8 1.04-1.3 1.33-2.9 2.38-5.8 3.15-8.9.13-.5.47-1 .7-1.5M90.58 158.3c.48-1.15.9-2.34 1.45-3.46.88-1.8 1.85-3.54 2.72-5.2 1.24 0 1.52.74 1.7 1.45.9 3.5 1.77 7.1 2.65 10.7m27.6-30.5c.76 3.5 1.54 7.1 2.27 10.7.74 3.6 1.8 7 3.16 10.4.16.4.3 1.1 1.05.9m46.2-12.5l.6 5.1c.25 2.3 1.1 4.5.86 6.9-.03.2.14.5.22.8m40.56-59.9l.6 5.1c.25 2.3 1.1 4.5.86 6.9-.03.2.14.5.22.8m-135 46l1.8 5.5m.18 2.3l.06 4.2M205.78 98l.6 5.1c.25 2.3 1.1 4.53.86 6.9-.03.27.14.56.22.84m-66.24 16c0 .1-.02.17 0 .24l4.8 19.2c.34 1.37.72 2.72 1.08 4.1m72.24-69.6c.36 2.26.7 4.54 1.1 6.82.06.35.3.7.46 1.05m-17.4-3.6c.36 2.25.7 4.53 1.1 6.8.06.36.3.7.46 1.06m-27.96 35c.36 2.3.7 4.6 1.1 6.9.06.4.3.8.46 1.1m54.84-22.8c.48 1.9.98 3.7 1.44 5.5.42 1.8.84 3.5 1.18 5.2.13.7.02 1.4.02 2.1m-42.96-1.9c.48 1.9.98 3.7 1.44 5.6.42 1.7.84 3.4 1.18 5.2.13.7.02 1.4.02 2.1m-67.92-31c.48 1.87.98 3.7 1.44 5.55.42 1.7.84 3.4 1.18 5.16.13.6.02 1.3.02 2M97.9 114c.48 1.84.98 3.7 1.44 5.5.42 1.74.84 3.45 1.18 5.2.13.64.02 1.34.02 2.02m8.28 8.4l.6-.06c1.13.47 1.13 1.6 1.28 2.5.46 2.67.76 5.36 1.12 8.04m143.76-73.7l-1.68-.8c-2.4 2.1-3.4 5.1-4.44 8.1m-.42 2.07l.54 4.9m-27.42 33.23c.2 3.3.54 6.5 1.5 9.6M84.64 156.2c.2 3.25.54 6.47 1.5 9.6m154.8-53.28c.48 2.2.98 4.4 1.43 6.6.32 1.6.57 3.2.85 4.8m16.44-52.2c.48 2.2.98 4.4 1.43 6.6.3 1.6.5 3.2.8 4.8m-61.6 40.2c.5 2.2 1 4.4 1.4 6.6.3 1.6.6 3.2.8 4.8m-84.2-25.08c.5 2.2 1 4.4 1.4 6.6.3 1.6.6 3.2.8 4.8m-8.1 28.92l1 4.32.6 2.28m133-83.4c.4 1.64.7 3.3 1.1 4.92.1.42.33.8.5 1.2m-94.46 36c1.4-.48 2.1-1.86 1.5-3.23-.2-.48-.6-.9-.85-1.33m109.2-42c-.1.16-.1.4-.28.47-2.6 1.3-5.45 2.5-7.9 4.3m-10.55 36c-.1.1-.1.4-.2.4-2.67 1.3-5.5 2.5-7.9 4.3M123 106.5c-.07.1-.1.4-.24.4-2.7 1.4-5.5 2.5-7.9 4.3m90 8.8c-.07.12-.1.4-.2.43-2.7 1.37-5.5 2.5-7.9 4.3M147.1 138l-2.65.83"/>
  </g>
</svg>
