<svg xmlns="http://www.w3.org/2000/svg" viewBox="0 0 828.19 284.45">
  <path fill="#414042" d="M0 0h828.2v284.45H0z"/>
  <path fill="#27AAE1" d="M23 23.58h785.87v237.28H23z"/>
  <path fill="#FFF" d="M131.2 82.82h56.5v57.63h-56.5z"/>
  <path d="M74.7 82.82h56.5v57.63H74.7zm113 0h56.5v57.63h-56.5z"/>
  <path fill="#FFF" d="M104.54 97.65h6.54v5.33h-6.54v21.36H99.3v-21.36h-6.53v-5.33h11.78z"/>
  <path d="M154.33 97.65v10.68h7.84V97.65h5.24v26.7h-5.2v-10.7h-7.8v10.7h-5.2v-26.7h5.3z"/>
  <path fill="#FFF" d="M227.94 97.65v16c0 2.96-1.03 5.48-3.07 7.56-2.05 2.1-4.52 3.2-7.4 3.2-2.88 0-5.35-1-7.4-3.1s-3.05-4.6-3.05-7.5V97.7h5.23v16c0 1.5.52 2.74 1.54 3.8 1 1.02 2.2 1.54 3.6 1.54s2.6-.57 3.7-1.6 1.5-2.3 1.5-3.8v-16h5.2zm16.26-14.83h56.48v57.63h-56.5z"/>
  <path d="M300.68 82.82h56.5v57.63h-56.5zm-24.45 29.42v-14.6h5.23v26.7l-15.68-14.6v14.6h-5.24v-26.7l15.7 14.6z"/>
  <path fill="#FFF" d="M336.13 101.58c2.56 2.6 3.84 5.75 3.84 9.42s-1.28 6.8-3.85 9.43c-2.56 2.6-5.64 3.9-9.22 3.9h-5.24V97.66h5.24c3.6 0 6.66 1.3 9.23 3.93zm-3.7 15.07c1.53-1.56 2.3-3.45 2.3-5.65s-.77-4.08-2.3-5.66c-1.54-1.57-3.38-2.36-5.53-2.36v16c2.15 0 4-.77 5.53-2.33zm25.1-33.83h56.5v57.63h-56.5z"/>
  <path d="M414.04 82.82h56.5v57.63h-56.5zm-21.6 14.83v5.33H382v5.35h7.84v5.33H382V119h10.45v5.34h-15.68v-26.7h15.68z"/>
  <path fill="#FFF" d="M434.7 116.33v-18.7h9.14c2.52 0 4.68.93 6.48 2.76 1.8 1.8 2.7 4 2.7 6.6 0 1.9-.57 3.7-1.67 5.3-1.1 1.6-2.53 2.7-4.25 3.3l5.9 8.6h-6.38l-6.7-9.8v9.7h-5.23v-8zm9.15-5.33c1.08 0 2-.4 2.77-1.18s1.15-1.72 1.15-2.83c0-1.1-.38-2.1-1.15-2.9s-1.7-1.2-2.77-1.2h-3.9v8.1h3.9z"/>
  <path d="M527.03 82.86h56.5v57.63h-56.5z"/>
  <path fill="#FFF" d="M470.53 82.86h56.5v57.63h-56.5zm113 0h56.5v57.63h-56.5z"/>
  <path d="M497.85 115.05L510.6 97.7v26.67h-5.24V113.7l-7.5 10.25-7.52-10.25v10.68h-5.23v-26.7l12.8 17.36z"/>
  <path fill="#FFF" d="M550.07 120.58l-1.7 3.8h-5.57L554 98.94l.55-1.24.56 1.25 11.3 25.43h-5.6l-1.7-3.82-.1-.18h-8.8l-.1.2zm6.54-5.53l-2-4.67-2 4.67h4.1z"/>
  <path d="M604.18 116.37V97.7h9.14c2.53 0 4.7.9 6.48 2.74 1.8 1.84 2.7 4.03 2.7 6.6 0 1.98-.56 3.77-1.67 5.35-1.1 1.5-2.52 2.7-4.24 3.3l5.9 8.6h-6.4l-6.7-9.8v9.7h-5.3v-8zm9.15-5.33c1.08 0 2-.4 2.77-1.18s1.16-1.72 1.16-2.83c0-1.1-.4-2.03-1.16-2.82s-1.7-1.1-2.77-1.1h-3.9v8h3.9zm26.7-28.18h56.5v57.63H640z"/>
  <path fill="#FFF" d="M696.5 82.86H753v57.63h-56.5zm-22.2 15.9c1.6.7 3 1.64 4.2 2.84l-3.7 3.78c-1.57-1.57-3.42-2.35-5.56-2.35-2.16 0-4 .78-5.54 2.35-1.53 1.58-2.3 3.46-2.3 5.66s.77 4.1 2.3 5.65c1.53 1.5 3.38 2.3 5.54 2.3s4-.8 5.55-2.4l3.7 3.8c-1.3 1.2-2.6 2.1-4.2 2.8-1.6.7-3.3 1-5.1 1-3.6 0-6.7-1.3-9.3-3.9s-3.9-5.8-3.9-9.5 1.3-6.8 3.8-9.4 5.6-4 9.2-4c1.8 0 3.4.3 5 1z"/>
  <path d="M722.4 97.7v10.67h7.85V97.7h5.24v26.68h-5.3V113.7h-7.9v10.68H717v-26.7h5.24z"/>
  <path fill="#FFF" d="M83.2 193.94c-1.1-.38-2.3-1-3.57-1.84-1.27-.83-2.4-1.94-3.4-3.3-1.02-1.4-1.53-3.1-1.53-5.15 0-3.1 1.1-5.73 3.3-7.94s4.87-3.3 7.97-3.3c3.1 0 5.74 1.1 7.94 3.3s3.4 4.9 3.4 8h-7.5c0-1-.3-1.9-1.1-2.6-.7-.7-1.6-1.1-2.6-1.1s-1.9.4-2.6 1.1c-.7.8-1.1 1.7-1.1 2.7 0 1.4.6 2.4 1.6 3.1 1.1.7 1.9 1.1 2.5 1.3l2.2.7c1.2.4 2.4.9 3.7 1.7s2.5 1.9 3.5 3.2c1.1 1.4 1.6 3.1 1.6 5.2 0 3.1-1.1 5.8-3.3 8-2.2 2.2-4.8 3.3-7.9 3.3-3.1 0-5.7-1.1-7.9-3.3-2.2-2.2-3.3-4.8-3.3-7.9h7.5c0 1.05.36 1.9 1.1 2.66.7.7 1.6 1.1 2.6 1.1s1.9-.4 2.7-1.1c.7-.74 1.1-1.6 1.1-2.66 0-1.6-.64-2.6-1.9-3.1l-2.6-.94-2.02-.7zm34-21.54h9.38v7.5h-9.4v30.04h-7.5V179.9h-9.4v-7.5h16.9zm23 32.2l-2.43 5.34h-8.03l16.08-35.8.8-1.73.8 1.8 16.1 35.8h-8.04l-2.4-5.4-.12-.2H140.3l-.1.3zm9.38-7.8l-2.94-6.56-2.95 6.57h5.8zm23.6-24.4l6.48 11.9 6.47-11.9h8.55l-11.27 20.7v16.84h-7.5V193.1l-11.2-20.7h8.5zm42.47 0v15.02h11.24v-15h7.5v37.52h-7.5v-15.02h-11.3v15.02H208V172.4h7.53zm22.18 0h7.52v37.54h-7.52V172.4zm37.53 1.48c2.27 1 4.27 2.33 6 4.02l-5.32 5.3c-2.23-2.2-4.9-3.3-7.96-3.3-3.1 0-5.76 1.1-7.95 3.32-2.2 2.2-3.3 4.86-3.3 7.95 0 3.1 1.1 5.76 3.3 7.95 2.2 2.2 4.84 3.3 7.95 3.3 2.44 0 4.62-.7 6.54-2.1s3.28-3.2 4.08-5.4h-10.62v-7.5h18.4c.24 1.18.37 2.43.37 3.75 0 5.17-1.84 9.6-5.52 13.26-3.68 3.67-8.1 5.5-13.25 5.5-5.17 0-9.6-1.83-13.26-5.5-3.67-3.67-5.5-8.1-5.5-13.26 0-5.15 1.83-9.57 5.5-13.25 3.67-3.68 8.1-5.5 13.26-5.5 2.58 0 5 .48 7.28 1.46zm21.2-1.48v15.02h11.24v-15h7.52v37.52h-7.52v-15.02h-11.25v15.02h-7.52V172.4h7.52zm42.64 29.65v7.9h-7.9v-7.9h7.9zm13.53 0v7.9h-7.9v-7.9h7.9zm13.52 0v7.9h-7.9v-7.9h7.9zm24.85-8.1c-1.12-.4-2.3-1-3.58-1.85-1.26-.83-2.4-1.94-3.4-3.3-1.02-1.4-1.52-3.1-1.52-5.15 0-3.1 1.1-5.73 3.3-7.94s4.86-3.3 7.97-3.3c3.1 0 5.73 1.1 7.94 3.3s3.3 4.9 3.3 8h-7.4c0-1-.3-1.9-1.1-2.6-.7-.7-1.6-1.1-2.6-1.1s-1.9.4-2.6 1.1c-.7.8-1.1 1.7-1.1 2.7 0 1.4.6 2.4 1.6 3.1 1.1.7 1.9 1.1 2.5 1.3l2.2.7c1.2.4 2.4.9 3.7 1.7s2.5 1.9 3.5 3.2 1.6 3.1 1.6 5.2c0 3.1-1.1 5.8-3.3 8-2.2 2.2-4.8 3.3-7.9 3.3-3.1 0-5.7-1.1-7.9-3.3-2.2-2.2-3.3-4.8-3.3-7.9h7.5c0 1.05.3 1.9 1.1 2.66.7.7 1.6 1.1 2.6 1.1s1.9-.4 2.64-1.1c.76-.74 1.1-1.6 1.1-2.66 0-1.6-.6-2.6-1.87-3.1l-2.6-.94-2.03-.7zm34-21.55h9.37v7.5h-9.38v30.04h-7.6V179.9h-9.4v-7.5H425zm23 32.2l-2.43 5.34h-8.02l16.06-35.8.8-1.73.8 1.8 16.1 35.8h-8l-2.4-5.3-.1-.2h-12.7l-.1.3zm9.37-7.8l-2.93-6.56-2.96 6.57h5.9zm23.6-24.4l6.48 11.9 6.47-11.9h8.55l-11.27 20.7v16.84h-7.5V193.1l-11.24-20.7h8.52zm59 17.1c1.5 2.17 2.24 4.6 2.24 7.3 0 3.62-1.2 6.72-3.8 9.3-2.5 2.55-5.6 3.84-9.3 3.84h-13.1V172.4h9.4c2.6 0 4.8.93 6.7 2.77 1.9 1.83 2.8 4.04 2.8 6.62 0 1-.1 1.9-.5 2.9 2.4 1 4.3 2.6 5.8 4.8zm-14.66-5.85c1.3 0 1.9-.62 1.9-1.86 0-1.3-.6-1.9-1.9-1.9h-1.8v3.7h1.9zm0 7.52h-1.8v11.26h5.6c1.6 0 2.9-.55 4-1.64 1.1-1.1 1.7-2.5 1.7-4 0-1.6-.5-2.9-1.6-4s-2.4-1.7-4-1.7h-3.7zm19.8 7.5V172.4h13.1c3.6 0 6.7 1.3 9.3 3.87 2.6 2.58 3.9 5.67 3.9 9.27 0 2.8-.8 5.3-2.4 7.53-1.6 2.23-3.6 3.8-6.1 4.74l8.5 12.2h-9.1l-9.6-13.7V210h-7.5v-11.3zm13.2-7.5c1.6 0 2.9-.55 4-1.65 1.1-1.1 1.7-2.43 1.7-3.98 0-1.54-.5-2.86-1.6-3.97-1.1-1.1-2.4-1.67-4-1.67h-5.6v11.27h5.6zM605 172.4v22.52c0 4.15-1.47 7.7-4.4 10.62s-6.5 4.4-10.6 4.4c-4.16 0-7.7-1.47-10.64-4.4-2.93-2.94-4.4-6.48-4.4-10.62v-22.5h7.5v22.5c0 2.07.75 3.83 2.2 5.3 1.48 1.47 3.25 2.2 5.3 2.2 2.06 0 3.8-.73 5.3-2.2 1.47-1.47 2.2-3.23 2.2-5.3v-22.5h7.5zm20.4 0h9.4v7.5h-9.4v30.04h-7.5V179.9h-9.4v-7.5h16.9zm23 32.2l-2.4 5.34h-8l16.05-35.8.8-1.73.8 1.8 16.1 35.8h-8.03l-2.4-5.4-.1-.2h-12.7l-.1.3zm9.4-7.8l-2.93-6.56-2.95 6.57h5.9zm22.95-24.4v30.02h15v7.52H673.2V172.4h7.52zm38.84 29.65v7.9h-7.9v-7.9h7.9zm13.5 0v7.9h-7.9v-7.9h7.9zm13.5 0v7.9h-7.9v-7.9h7.9z"/>
</svg>
