<?xml version="1.0" encoding="utf-8"?>
<!-- Generator: Adobe Illustrator 16.0.0, SVG Export Plug-In . SVG Version: 6.00 Build 0)  -->
<!DOCTYPE svg PUBLIC "-//W3C//DTD SVG 1.1//EN" "http://www.w3.org/Graphics/SVG/1.1/DTD/svg11.dtd">
<svg version="1.1" id="Layer_1" xmlns="http://www.w3.org/2000/svg" xmlns:xlink="http://www.w3.org/1999/xlink" x="0px" y="0px"
	 width="100px" height="100px" viewBox="0 0 100 100" enable-background="new 0 0 100 100" xml:space="preserve">
<circle fill="#FFFFFF" cx="50" cy="50" r="50"/>
<circle fill="#00233F" cx="50" cy="50" r="46"/>
<g>
	<g>
		<g>
			<path fill="#FFFFFF" d="M84.982,55.846l-4.512-16.111c-0.867-3.112-3.027-5.736-5.904-7.2c-2.883-1.462-6.272-1.652-9.301-0.518
				c-2.213,0.832-4.091,2.293-5.436,4.222c0,0-0.008,0.006-0.018,0.006H40.256c-0.013,0-0.02-0.004-0.02-0.004
				c-1.341-1.931-3.22-3.393-5.433-4.224c-3.028-1.134-6.417-0.945-9.298,0.518c-2.884,1.464-5.035,4.088-5.906,7.2l-4.512,16.111
				c-1.49,5.32,0.835,10.457,5.531,12.219c1.182,0.443,2.424,0.651,3.662,0.651c4.029,0,8.013-2.212,9.711-5.782l2.164-4.525
				c1.336,1.787,3.459,2.896,5.766,2.896c3.147,0,5.903-2.055,6.846-4.99h2.529c0.938,2.937,3.695,4.99,6.845,4.99
				c2.305,0,4.434-1.111,5.764-2.898l2.174,4.525c1.096,2.301,2.992,4.088,5.352,5.039c2.358,0.953,4.971,0.983,7.355,0.096
				c2.378-0.893,4.322-2.639,5.477-4.901C85.414,60.895,85.667,58.293,84.982,55.846z M81.666,61.84
				c-0.818,1.621-2.207,2.863-3.904,3.498c-1.701,0.637-3.564,0.614-5.242-0.066c-1.68-0.678-3.037-1.951-3.816-3.592l-3.023-6.314
				c-0.337-0.695-1.049-1.122-1.818-1.081c-0.769,0.043-1.432,0.536-1.69,1.258c-0.604,1.705-2.222,2.847-4.028,2.847
				c-2.043,0-3.806-1.451-4.199-3.443c-0.172-0.891-0.959-1.541-1.864-1.541h-4.09c-0.908,0-1.69,0.65-1.863,1.543
				c-0.395,1.99-2.16,3.441-4.202,3.441c-1.806,0-3.428-1.142-4.033-2.847c-0.255-0.722-0.917-1.214-1.687-1.257
				c-0.77-0.045-1.485,0.386-1.817,1.08l-3.02,6.316c-1.571,3.303-6.116,5.014-9.723,3.656c-3.301-1.236-4.841-4.82-3.752-8.71
				l4.512-16.11c0.661-2.364,2.23-4.277,4.42-5.389c1.241-0.628,2.57-0.944,3.909-0.944c1.024,0,2.054,0.183,3.049,0.558
				c1.657,0.623,3.065,1.715,4.066,3.159c0.547,0.784,1.446,1.253,2.411,1.253h19.558c0.963,0,1.863-0.47,2.408-1.253
				c1.006-1.444,2.412-2.538,4.067-3.159c2.297-0.861,4.771-0.725,6.961,0.387c2.187,1.112,3.759,3.025,4.422,5.389l4.509,16.11
				C82.668,58.373,82.482,60.225,81.666,61.84z"/>
		</g>
	</g>
	<g>
		<g>
			<path fill="#FFFFFF" d="M69.471,38.662c1.018,0,1.838,0.821,1.838,1.837c0,1.013-0.82,1.837-1.838,1.837
				c-1.019,0-1.842-0.824-1.842-1.837C67.629,39.483,68.452,38.662,69.471,38.662z"/>
		</g>
	</g>
	<g>
		<g>
			<path fill="#FFFFFF" d="M69.471,47.342c1.018,0,1.838,0.824,1.838,1.838c0,1.014-0.82,1.841-1.838,1.841
				c-1.019,0-1.842-0.828-1.842-1.841C67.629,48.166,68.452,47.342,69.471,47.342z"/>
		</g>
	</g>
	<g>
		<g>
			<circle fill="#FFFFFF" cx="65.129" cy="44.839" r="1.84"/>
		</g>
	</g>
	<g>
		<g>
			<path fill="#FFFFFF" d="M73.813,43c1.01,0,1.834,0.824,1.834,1.841c0,1.015-0.824,1.838-1.834,1.838
				c-1.018,0-1.842-0.824-1.842-1.838C71.971,43.823,72.795,43,73.813,43z"/>
		</g>
	</g>
	<g>
		<g>
			<path fill="#FFFFFF" d="M34.97,43.382h-2.578v-2.575c0-0.801-0.652-1.454-1.456-1.454c-0.802,0-1.454,0.653-1.454,1.454v2.575
				h-2.578c-0.803,0-1.454,0.652-1.454,1.458c0,0.804,0.651,1.454,1.454,1.454h2.578v2.575c0,0.803,0.652,1.459,1.454,1.459
				c0.804,0,1.456-0.657,1.456-1.459v-2.575h2.578c0.802,0,1.454-0.65,1.454-1.454C36.424,44.034,35.772,43.382,34.97,43.382z"/>
		</g>
	</g>
	<g>
		<g>
			<path fill="#FFFFFF" d="M46.689,43.382h-1.591c-0.803,0-1.455,0.652-1.455,1.458c0,0.804,0.652,1.454,1.455,1.454h1.591
				c0.802,0,1.455-0.65,1.455-1.454C48.143,44.034,47.491,43.382,46.689,43.382z"/>
		</g>
	</g>
	<g>
		<g>
			<path fill="#FFFFFF" d="M54.973,43.382h-1.594c-0.805,0-1.455,0.652-1.455,1.458c0,0.804,0.648,1.454,1.455,1.454h1.594
				c0.805,0,1.451-0.65,1.451-1.454C56.424,44.034,55.775,43.382,54.973,43.382z"/>
		</g>
	</g>
	<g>
		<g>
			<path fill="#FFFFFF" d="M41.921,51.18c-1.615,0-2.93,1.314-2.93,2.928c0,1.619,1.315,2.935,2.93,2.935
				c1.617,0,2.931-1.315,2.931-2.935C44.852,52.494,43.538,51.18,41.921,51.18z M41.921,54.855c-0.412,0-0.747-0.336-0.747-0.75
				c0-0.403,0.335-0.74,0.747-0.74s0.749,0.335,0.749,0.74C42.669,54.52,42.333,54.855,41.921,54.855z"/>
		</g>
	</g>
	<g>
		<g>
			<path fill="#FFFFFF" d="M58.141,51.18c-1.619,0-2.935,1.314-2.935,2.928c0,1.619,1.313,2.935,2.935,2.935
				c1.611,0,2.926-1.315,2.926-2.935C61.066,52.494,59.752,51.18,58.141,51.18z M58.141,54.855c-0.412,0-0.75-0.336-0.75-0.75
				c0-0.403,0.338-0.74,0.75-0.74s0.748,0.335,0.748,0.74C58.889,54.52,58.553,54.855,58.141,54.855z"/>
		</g>
	</g>
</g>
</svg>
