# Blender v2.78 (sub 0) OBJ File: 'minimalEBuilding.blend'
# www.blender.org
mtllib minimalEBuilding.mtl
o Cube.003
v -2.000000 0.000000 0.500000
v -1.150000 0.000000 0.500000
v -1.150000 0.000000 3.500000
v -2.000000 0.000000 3.500000
v -2.000000 1.392134 0.500000
v -1.149999 1.392134 0.500001
v -1.150000 1.392134 3.500000
v -2.000000 1.392134 3.500000
v -2.000000 0.000000 2.497007
v -1.150000 0.000000 2.497007
v -2.000000 1.392134 2.497007
v -1.150000 1.392134 2.497007
v -2.000000 1.087983 0.500000
v -1.150000 1.087983 0.500000
v -1.150000 1.087983 3.500000
v -2.000000 1.087983 3.500000
v -2.000000 1.087983 2.497007
v -1.150000 1.087983 2.497007
v -2.000000 0.000000 2.807935
v -1.150000 0.000000 2.807935
v -2.000000 1.392134 2.807935
v -1.150000 1.392134 2.807935
v -2.000000 1.087983 2.807935
v -1.150000 1.087983 2.807935
v -1.150000 0.250681 2.497007
v -2.000000 0.250681 0.500000
v -1.150000 0.250681 0.500000
v -1.150000 0.250681 3.500000
v -2.000000 0.250681 3.500000
v -2.000000 0.250681 2.497007
v -1.150000 0.250681 2.807935
v -2.000000 0.250681 2.807935
v -1.000000 1.087983 0.500000
v -0.999999 1.392134 0.500001
v -1.000000 0.000000 0.500000
v -1.000000 0.000000 2.497007
v -1.000000 1.392134 2.497007
v -1.000000 0.250681 2.497007
v -1.000000 1.087983 2.497007
v -1.000000 0.250681 0.500000
v -1.000000 0.000000 2.807935
v -1.000000 0.000000 3.500000
v -1.000000 1.087983 3.500000
v -1.000000 1.392134 3.500000
v -1.000000 1.392134 2.807935
v -1.000000 0.250681 2.497007
v -1.000000 0.000000 2.497007
v -1.000000 0.250681 3.500000
v -1.000000 1.392134 2.497007
v -1.000000 1.087983 2.497007
v -1.000000 1.087983 2.807935
v -1.000000 0.250681 2.807935
v 1.000000 0.000000 2.807935
v 1.000000 0.000000 3.500000
v 1.000000 1.087983 3.500000
v 1.000000 1.392134 3.500000
v 1.000000 1.392134 2.807935
v 1.000000 0.250681 2.497007
v 1.000000 0.000000 2.497007
v 1.000000 0.250681 3.500000
v 1.000000 1.392134 2.497007
v 1.000000 1.087983 2.497007
v 1.000000 1.087983 2.807935
v 1.000000 0.250681 2.807935
v -1.575000 0.000000 0.500000
v -1.575000 0.000000 3.500000
v -1.574999 1.392134 0.500000
v -1.575000 1.392134 3.500000
v -1.575000 1.392134 2.497007
v -1.575000 0.000000 2.497007
v -1.575000 1.087983 3.500000
v -1.575000 1.087983 0.500000
v -1.575000 1.392134 2.807935
v -1.575000 0.000000 2.807935
v -1.575000 0.250681 0.500000
v -1.575000 0.250681 3.500000
v -2.000000 0.250681 0.168085
v -2.000000 1.087983 0.168085
v -2.000000 0.000000 0.168085
v -1.575000 0.000000 0.168085
v -1.574999 1.087983 0.168085
v -1.575000 0.250681 0.168085
v 1.000000 0.000000 -3.500000
v 1.000000 0.000000 -2.650000
v -2.000000 0.000000 -2.650001
v -1.999999 0.000000 -3.500000
v 1.000001 1.392134 -3.500000
v 1.000000 1.392134 -2.649999
v -2.000000 1.392134 -2.650001
v -2.000000 1.392134 -3.500000
v -0.997006 0.000000 -3.500000
v -0.997007 0.000000 -2.650000
v -0.997006 1.392134 -3.500000
v -0.997007 1.392134 -2.650000
v 1.000001 1.087983 -3.500000
v 1.000000 1.087983 -2.650000
v -2.000000 1.087983 -2.650001
v -2.000000 1.087983 -3.500000
v -0.997006 1.087983 -3.500000
v -0.997007 1.087983 -2.650000
v -1.307934 0.000000 -3.500000
v -1.307935 0.000000 -2.650000
v -1.307934 1.392134 -3.500000
v -1.307935 1.392134 -2.650000
v -1.307934 1.087983 -3.500000
v -1.307935 1.087983 -2.650000
v -0.997007 0.250681 -2.650000
v 1.000000 0.250681 -3.500000
v 1.000000 0.250681 -2.650000
v -2.000000 0.250681 -2.650001
v -1.999999 0.250681 -3.500000
v -0.997006 0.250681 -3.500000
v -1.307935 0.250681 -2.650000
v -1.307934 0.250681 -3.500000
v 1.000000 1.087983 -2.500000
v 1.000000 1.392134 -2.500000
v 1.000000 0.000000 -2.500000
v -0.997007 0.000000 -2.500000
v -0.997007 1.392134 -2.500000
v -0.997007 0.250681 -2.500000
v -0.997007 1.087983 -2.500000
v 1.000000 0.250681 -2.500000
v -1.307935 0.000000 -2.500000
v -2.000000 0.000000 -2.500000
v -2.000000 1.087983 -2.500000
v -2.000000 1.392134 -2.500000
v -1.307935 1.392134 -2.500000
v -0.997007 0.250681 -2.500000
v -0.997007 0.000000 -2.500000
v -2.000000 0.250681 -2.500000
v -0.997007 1.392134 -2.500000
v -0.997007 1.087983 -2.500000
v -1.307935 1.087983 -2.500000
v -1.307935 0.250681 -2.500000
v -1.307935 0.000000 -0.500000
v -2.000000 0.000000 -0.500000
v -2.000000 1.087983 -0.500001
v -2.000000 1.392134 -0.500001
v -1.307935 1.392134 -0.500000
v -0.997007 0.250681 -0.500000
v -0.997007 0.000000 -0.500000
v -2.000000 0.250681 -0.500000
v -0.997007 1.392134 -0.500000
v -0.997007 1.087983 -0.500000
v -1.307935 1.087983 -0.500000
v -1.307935 0.250681 -0.500000
v 1.000000 0.000000 -0.500000
v 1.000000 0.000000 0.500000
v -1.000000 0.000000 0.500000
v -1.000000 0.000000 -0.500000
v 1.000001 1.392134 -0.500000
v 1.000000 1.392134 0.500000
v -1.000000 1.392134 0.500000
v -1.000000 1.392134 -0.500000
v 1.000000 0.250681 -0.500000
v 1.000000 0.250681 0.500000
v -1.000000 0.250681 0.500000
v -1.000000 0.250681 -0.500000
v -2.000000 0.000000 0.500000
v -2.000000 0.000000 -0.500000
v -2.000000 0.250681 0.500000
v -2.000000 0.250681 -0.500000
v 1.000001 1.292567 -0.500000
v 1.000000 1.292567 0.500000
v -1.000000 1.292567 0.500000
v -1.000000 1.292567 -0.500000
v -2.000000 1.292567 0.500000
v -2.000000 1.392134 0.500000
v -2.000000 1.292567 -0.500000
v -2.000000 1.392134 -0.500000
v 1.000000 0.048420 -0.500000
v 1.000000 0.048420 0.500000
v -1.000000 0.048420 0.500000
v -1.000000 0.048420 -0.500000
v -2.000000 0.048420 0.500000
v -2.000000 0.048420 -0.500000
v 1.000001 1.320315 -0.500000
v 1.000000 1.320315 0.500000
v -1.000000 1.320315 0.500000
v -1.000000 1.320315 -0.500000
v -2.000000 1.320315 0.500000
v -2.000000 1.320315 -0.500000
v -2.900000 0.000000 0.500000
v -2.899999 0.000000 -0.500000
v -2.900000 0.048420 0.500000
v -2.899999 0.048420 -0.500000
v -2.799999 0.000000 -0.500000
v -2.799999 0.048420 -0.500000
v -2.800000 0.048420 0.500000
v -2.800000 0.000000 0.500000
v -2.800000 1.392134 -0.500000
v -2.800000 1.392134 0.500000
v -2.800000 1.320315 0.500000
v -2.800000 1.320315 -0.500000
v -2.900000 0.148420 0.500000
v -2.899999 0.148420 -0.500000
v -2.799999 0.148420 -0.500000
v -2.800000 0.148420 0.500000
v -2.800000 1.320315 -0.500000
v -2.800000 1.320315 0.500000
v -2.800000 1.392134 0.500000
v -2.800000 1.392134 -0.500000
v -2.900000 1.392134 -0.500000
v -2.885000 1.320315 -0.485000
v -2.900000 1.392134 0.500000
v -2.885000 1.320315 0.485000
v -2.900000 1.392134 -0.400000
v -2.885000 1.320315 -0.415000
v -2.800000 1.320315 -0.400000
v -2.800000 1.392134 -0.400000
v -2.800000 1.392134 0.399999
v -2.900000 1.392134 0.399999
v -2.885000 1.320315 0.414999
v -2.800000 1.320315 0.399999
v -2.815000 1.320315 -0.415000
v -2.815000 1.320315 -0.485000
v -2.900000 1.320315 -0.500000
v -2.900000 1.320315 0.500000
v -2.900000 1.320315 -0.400000
v -2.815000 1.320315 0.485000
v -2.900000 1.320315 0.399999
v -2.815000 0.133170 -0.415000
v -2.815000 1.320315 0.414999
v -2.815000 0.133170 -0.485000
v -2.815000 0.133170 0.485000
v -2.815000 0.133170 0.414999
v -2.885000 0.133170 -0.485000
v -2.885000 0.133170 0.485000
v -2.885000 0.133170 -0.415000
v -2.885000 0.133170 0.414999
vn 0.0000 -1.0000 0.0000
vn 0.0000 1.0000 0.0000
vn 0.0000 0.0000 -1.0000
vn 0.0000 0.0000 1.0000
vn -1.0000 0.0000 0.0000
vn 1.0000 -0.0000 0.0000
usemtl Material
s off
f 74//1 20//1 3//1 66//1
f 73//2 68//2 7//2 22//2
f 72//3 67//3 6//3 14//3
f 31//3 24//3 51//3 52//3
f 71//4 68//4 8//4 16//4
f 32//5 19//5 4//5 29//5
f 26//5 1//5 9//5 30//5
f 2//3 27//3 40//3 35//3
f 67//2 69//2 12//2 6//2
f 65//1 2//1 10//1 70//1
f 27//6 14//6 18//6 25//6
f 5//5 13//5 17//5 11//5
f 21//5 23//5 16//5 8//5
f 76//4 71//4 16//4 29//4
f 25//2 31//2 52//2 46//2
f 75//3 72//3 14//3 27//3
f 25//6 18//6 24//6 31//6
f 11//5 17//5 23//5 21//5
f 30//5 9//5 19//5 32//5
f 15//4 28//4 48//4 43//4
f 69//2 73//2 22//2 12//2
f 70//1 10//1 20//1 74//1
f 17//5 30//5 32//5 23//5
f 18//3 12//3 49//3 50//3
f 65//3 75//3 27//3 2//3
f 12//2 22//2 45//2 49//2
f 66//4 76//4 29//4 4//4
f 27//2 25//2 38//2 40//2
f 13//5 26//5 30//5 17//5
f 23//5 32//5 29//5 16//5
f 33//6 34//6 37//6 39//6
f 35//6 40//6 38//6 36//6
f 10//1 2//1 35//1 36//1
f 12//4 18//4 39//4 37//4
f 25//4 10//4 36//4 38//4
f 18//1 14//1 33//1 39//1
f 14//3 6//3 34//3 33//3
f 6//2 12//2 37//2 34//2
f 44//4 43//4 55//4 56//4
f 43//4 48//4 60//4 55//4
f 46//2 52//2 64//2 58//2
f 41//1 47//1 59//1 53//1
f 42//1 41//1 53//1 54//1
f 20//1 10//1 47//1 41//1
f 7//4 15//4 43//4 44//4
f 28//4 3//4 42//4 48//4
f 24//1 18//1 50//1 51//1
f 3//1 20//1 41//1 42//1
f 22//2 7//2 44//2 45//2
f 10//3 25//3 46//3 47//3
f 63//6 57//6 56//6 55//6
f 64//6 63//6 55//6 60//6
f 62//6 61//6 57//6 63//6
f 59//6 58//6 64//6 53//6
f 53//6 64//6 60//6 54//6
f 49//2 45//2 57//2 61//2
f 50//3 49//3 61//3 62//3
f 48//4 42//4 54//4 60//4
f 45//2 44//2 56//2 57//2
f 51//1 50//1 62//1 63//1
f 52//3 51//3 63//3 64//3
f 47//3 46//3 58//3 59//3
f 3//4 28//4 76//4 66//4
f 75//6 65//6 80//6 82//6
f 9//1 70//1 74//1 19//1
f 11//2 21//2 73//2 69//2
f 26//5 13//5 78//5 77//5
f 28//4 15//4 71//4 76//4
f 1//1 65//1 70//1 9//1
f 5//2 11//2 69//2 67//2
f 15//4 7//4 68//4 71//4
f 13//3 5//3 67//3 72//3
f 21//2 8//2 68//2 73//2
f 19//1 74//1 66//1 4//1
f 79//3 77//3 82//3 80//3
f 77//3 78//3 81//3 82//3
f 65//1 1//1 79//1 80//1
f 1//5 26//5 77//5 79//5
f 13//2 72//2 81//2 78//2
f 72//6 75//6 82//6 81//6
f 101//1 102//1 85//1 86//1
f 103//2 90//2 89//2 104//2
f 95//6 87//6 88//6 96//6
f 113//6 106//6 133//6 134//6
f 97//5 89//5 90//5 98//5
f 114//3 101//3 86//3 111//3
f 108//3 83//3 91//3 112//3
f 84//6 109//6 122//6 117//6
f 87//2 93//2 94//2 88//2
f 83//1 84//1 92//1 91//1
f 109//4 96//4 100//4 107//4
f 87//3 95//3 99//3 93//3
f 103//3 105//3 98//3 90//3
f 110//5 97//5 98//5 111//5
f 107//2 113//2 134//2 128//2
f 108//6 95//6 96//6 109//6
f 107//4 100//4 106//4 113//4
f 93//3 99//3 105//3 103//3
f 112//3 91//3 101//3 114//3
f 97//5 110//5 130//5 125//5
f 93//2 103//2 104//2 94//2
f 91//1 92//1 102//1 101//1
f 99//3 112//3 114//3 105//3
f 100//6 94//6 131//6 132//6
f 83//6 108//6 109//6 84//6
f 94//2 104//2 127//2 131//2
f 85//5 110//5 111//5 86//5
f 109//2 107//2 120//2 122//2
f 95//3 108//3 112//3 99//3
f 105//3 114//3 111//3 98//3
f 115//4 116//4 119//4 121//4
f 117//4 122//4 120//4 118//4
f 92//1 84//1 117//1 118//1
f 94//5 100//5 121//5 119//5
f 107//5 92//5 118//5 120//5
f 100//1 96//1 115//1 121//1
f 96//6 88//6 116//6 115//6
f 88//2 94//2 119//2 116//2
f 126//5 125//5 137//5 138//5
f 125//5 130//5 142//5 137//5
f 128//2 134//2 146//2 140//2
f 123//1 129//1 141//1 135//1
f 124//1 123//1 135//1 136//1
f 102//1 92//1 129//1 123//1
f 89//5 97//5 125//5 126//5
f 110//5 85//5 124//5 130//5
f 106//1 100//1 132//1 133//1
f 85//1 102//1 123//1 124//1
f 104//2 89//2 126//2 127//2
f 92//6 107//6 128//6 129//6
f 145//4 139//4 138//4 137//4
f 146//4 145//4 137//4 142//4
f 144//4 143//4 139//4 145//4
f 141//4 140//4 146//4 135//4
f 135//4 146//4 142//4 136//4
f 131//2 127//2 139//2 143//2
f 132//6 131//6 143//6 144//6
f 130//5 124//5 136//5 142//5
f 127//2 126//2 138//2 139//2
f 133//1 132//1 144//1 145//1
f 134//6 133//6 145//6 146//6
f 129//6 128//6 140//6 141//6
f 147//1 148//1 149//1 150//1
f 151//2 154//2 153//2 152//2
f 177//6 151//6 152//6 178//6
f 178//4 152//4 153//4 179//4
f 180//3 166//3 169//3 182//3
f 171//3 147//3 150//3 174//3
f 163//3 155//3 158//3 166//3
f 150//1 149//1 159//1 160//1
f 172//4 156//4 157//4 173//4
f 171//6 155//6 156//6 172//6
f 175//5 161//5 162//5 176//5
f 173//4 157//4 161//4 175//4
f 157//2 158//2 162//2 161//2
f 174//3 150//3 160//3 176//3
f 177//3 163//3 166//3 180//3
f 157//5 165//5 166//5 158//5
f 156//4 164//4 165//4 157//4
f 155//6 163//6 164//6 156//6
f 179//4 153//4 168//4 181//4
f 153//2 154//2 170//2 168//2
f 166//1 165//1 167//1 169//1
f 158//3 174//3 176//3 162//3
f 149//4 173//4 175//4 159//4
f 188//3 187//3 184//3 186//3
f 147//6 171//6 172//6 148//6
f 148//4 172//4 173//4 149//4
f 155//3 171//3 174//3 158//3
f 165//4 179//4 181//4 167//4
f 167//5 181//5 182//5 169//5
f 151//3 177//3 180//3 154//3
f 154//3 180//3 182//3 170//3
f 164//4 178//4 179//4 165//4
f 163//6 177//6 178//6 164//6
f 183//5 185//5 186//5 184//5
f 186//5 185//5 195//5 196//5
f 190//4 189//4 185//4 183//4
f 187//1 190//1 183//1 184//1
f 160//1 159//1 190//1 187//1
f 159//4 175//4 189//4 190//4
f 175//2 176//2 188//2 189//2
f 176//3 160//3 187//3 188//3
f 170//3 182//3 194//3 191//3
f 182//1 181//1 193//1 194//1
f 181//4 168//4 192//4 193//4
f 168//2 170//2 191//2 192//2
f 198//2 197//2 196//2 195//2
f 188//3 186//3 196//3 197//3
f 189//6 188//6 197//6 198//6
f 185//4 189//4 198//4 195//4
f 202//3 199//3 217//3 203//3
f 216//6 215//6 222//6 224//6
f 200//4 201//4 205//4 218//4
f 219//5 207//5 203//5 217//5
f 210//2 202//2 203//2 207//2
f 220//4 206//4 228//4 225//4
f 221//5 212//5 207//5 219//5
f 211//2 210//2 207//2 212//2
f 201//2 211//2 212//2 205//2
f 218//5 205//5 212//5 221//5
f 209//1 214//1 221//1 219//1
f 215//1 216//1 199//1 209//1
f 216//1 204//1 217//1 199//1
f 206//1 220//1 200//1 218//1
f 204//1 208//1 219//1 217//1
f 208//1 215//1 209//1 219//1
f 213//1 206//1 218//1 221//1
f 220//1 223//1 214//1 200//1
f 223//1 213//1 221//1 214//1
f 226//1 225//1 228//1 230//1
f 224//1 222//1 229//1 227//1
f 213//3 223//3 226//3 230//3
f 223//6 220//6 225//6 226//6
f 206//5 213//5 230//5 228//5
f 208//5 204//5 227//5 229//5
f 204//3 216//3 224//3 227//3
f 215//4 208//4 229//4 222//4
