# Blender v2.78 (sub 0) OBJ File: 'minimalLibrary.blend'
# www.blender.org
mtllib minimalLibrary.mtl
o Cylinder
v 0.464368 0.000000 -1.815319
v 0.464368 2.053898 -1.771204
v 0.773385 0.000000 -1.766376
v 0.759753 2.053898 -1.724420
v 1.052153 0.000000 -1.624336
v 1.026223 2.053898 -1.588646
v 1.273385 0.000000 -1.403104
v 1.237695 2.053898 -1.377174
v 1.415424 0.000000 -1.124336
v 1.373469 2.053898 -1.110704
v 1.464368 0.000000 -0.815319
v 1.420253 2.053898 -0.815319
v 1.415424 0.000000 -0.506302
v 1.373469 2.053898 -0.519934
v 1.273385 0.000000 -0.227534
v 1.237695 2.053898 -0.253464
v 1.052153 0.000000 -0.006302
v 1.026223 2.053898 -0.041991
v 0.773385 0.000000 0.135738
v 0.759753 2.053898 0.093782
v 0.464368 0.000000 0.184681
v 0.464368 2.053898 0.140566
v 0.155350 0.000000 0.135737
v 0.168983 2.053898 0.093782
v -0.123418 0.000000 -0.006302
v -0.097488 2.053898 -0.041992
v -0.344650 0.000000 -0.227534
v -0.308960 2.053898 -0.253464
v -0.486689 0.000000 -0.506303
v -0.444734 2.053898 -0.519935
v -0.535632 0.000000 -0.815320
v -0.491518 2.053898 -0.815320
v -0.486688 0.000000 -1.124337
v -0.444733 2.053898 -1.110705
v -0.344648 0.000000 -1.403105
v -0.308959 2.053898 -1.377175
v -0.123416 0.000000 -1.624337
v -0.097486 2.053898 -1.588647
v 0.155352 0.000000 -1.766376
v 0.168984 2.053898 -1.724421
v 0.840553 2.002692 -1.973097
v 0.464368 2.002692 -2.032679
v 1.179914 2.002692 -1.800184
v 1.449233 2.002692 -1.530865
v 1.622146 2.002692 -1.191504
v 1.681728 2.002692 -0.815319
v 1.622146 2.002692 -0.439134
v 1.449233 2.002692 -0.099773
v 1.179914 2.002692 0.169546
v 0.840553 2.002692 0.342459
v 0.464367 2.002692 0.402041
v 0.088182 2.002692 0.342459
v -0.251179 2.002692 0.169546
v -0.520498 2.002692 -0.099773
v -0.693411 2.002692 -0.439135
v -0.752992 2.002692 -0.815320
v -0.693410 2.002692 -1.191505
v -0.520496 2.002692 -1.530867
v -0.251177 2.002692 -1.800185
v 0.088185 2.002692 -1.973098
v 0.759753 2.109225 -1.724420
v 0.464368 2.109225 -1.771204
v 1.026223 2.109225 -1.588646
v 1.237695 2.109225 -1.377174
v 1.373469 2.109225 -1.110704
v 1.420253 2.109225 -0.815319
v 1.373469 2.109225 -0.519934
v 1.237695 2.109225 -0.253464
v 1.026223 2.109225 -0.041991
v 0.759753 2.109225 0.093782
v 0.464368 2.109225 0.140566
v 0.168983 2.109225 0.093782
v -0.097488 2.109225 -0.041992
v -0.308960 2.109225 -0.253464
v -0.444734 2.109225 -0.519935
v -0.491518 2.109225 -0.815320
v -0.444733 2.109225 -1.110705
v -0.308959 2.109225 -1.377175
v -0.097486 2.109225 -1.588647
v 0.168984 2.109225 -1.724421
v 0.781498 2.139775 -1.791346
v 0.464368 2.139775 -1.841574
v 1.067585 2.139775 -1.645577
v 1.294626 2.139775 -1.418537
v 1.440395 2.139775 -1.132449
v 1.490623 2.139775 -0.815319
v 1.440394 2.139775 -0.498189
v 1.294626 2.139775 -0.212101
v 1.067585 2.139775 0.014939
v 0.781498 2.139775 0.160708
v 0.464368 2.139775 0.210936
v 0.147237 2.139775 0.160708
v -0.138850 2.139775 0.014939
v -0.365891 2.139775 -0.212102
v -0.511659 2.139775 -0.498189
v -0.561887 2.139775 -0.815320
v -0.511659 2.139775 -1.132450
v -0.365889 2.139775 -1.418538
v -0.138849 2.139775 -1.645578
v 0.147239 2.139775 -1.791346
v 0.781498 2.177171 -1.791346
v 0.464368 2.177171 -1.841574
v 1.067585 2.177171 -1.645577
v 1.294626 2.177171 -1.418537
v 1.440395 2.177171 -1.132449
v 1.490623 2.177171 -0.815319
v 1.440394 2.177171 -0.498189
v 1.294626 2.177171 -0.212101
v 1.067585 2.177171 0.014939
v 0.781498 2.177171 0.160708
v 0.464368 2.177171 0.210936
v 0.147237 2.177171 0.160708
v -0.138850 2.177171 0.014939
v -0.365891 2.177171 -0.212102
v -0.511659 2.177171 -0.498189
v -0.561887 2.177171 -0.815320
v -0.511659 2.177171 -1.132450
v -0.365889 2.177171 -1.418538
v -0.138849 2.177171 -1.645578
v 0.147239 2.177171 -1.791346
v 0.464368 2.304513 -0.815319
v 0.464368 2.304513 -0.815319
v 0.464368 2.304513 -0.815319
v 0.464368 2.304513 -0.815319
v 0.464368 2.304513 -0.815319
v 0.464368 2.304513 -0.815319
v 0.464368 2.304513 -0.815319
v 0.464368 2.304513 -0.815319
v 0.464368 2.304513 -0.815319
v 0.464368 2.304513 -0.815319
v 0.464368 2.304513 -0.815319
v 0.464368 2.304513 -0.815319
v 0.464368 2.304513 -0.815319
v 0.464368 2.304513 -0.815319
v 0.464368 2.304513 -0.815319
v 0.464368 2.304513 -0.815319
v 0.464368 2.304513 -0.815319
v 0.464368 2.304513 -0.815319
v 0.464368 2.304513 -0.815319
v 0.464368 2.304513 -0.815319
vn 0.1555 -0.1066 -0.9821
vn 0.4514 -0.1066 -0.8859
vn 0.7031 -0.1066 -0.7031
vn 0.8859 -0.1066 -0.4514
vn 0.9821 -0.1066 -0.1555
vn 0.9821 -0.1066 0.1555
vn 0.8859 -0.1066 0.4514
vn 0.7031 -0.1066 0.7031
vn 0.4514 -0.1066 0.8859
vn 0.1555 -0.1066 0.9821
vn -0.1555 -0.1066 0.9821
vn -0.4514 -0.1066 0.8859
vn -0.7031 -0.1066 0.7031
vn -0.8859 -0.1066 0.4514
vn -0.9821 -0.1066 0.1555
vn -0.9821 -0.1066 -0.1555
vn -0.8859 -0.1066 -0.4514
vn -0.7031 -0.1066 -0.7031
vn 0.7071 0.0000 0.7071
vn -0.4514 -0.1066 -0.8859
vn -0.1555 -0.1066 -0.9821
vn 0.0304 0.9809 -0.1921
vn 0.0883 0.9809 -0.1733
vn 0.1375 0.9809 -0.1375
vn 0.1733 0.9809 -0.0883
vn 0.1921 0.9809 -0.0304
vn 0.1921 0.9809 0.0304
vn 0.1733 0.9809 0.0883
vn 0.1375 0.9809 0.1375
vn 0.0883 0.9809 0.1733
vn 0.0304 0.9809 0.1921
vn -0.0304 0.9809 0.1921
vn -0.0883 0.9809 0.1733
vn -0.1375 0.9809 0.1375
vn -0.1733 0.9809 0.0883
vn -0.1921 0.9809 0.0304
vn -0.1921 0.9809 -0.0304
vn -0.1733 0.9809 -0.0883
vn -0.1375 0.9809 -0.1375
vn -0.0883 0.9809 -0.1733
vn -0.0304 0.9809 -0.1921
vn 0.3974 -0.9155 -0.0629
vn 0.1564 0.0000 -0.9877
vn -0.9877 0.0000 -0.1564
vn 0.4540 0.0000 0.8910
vn 0.4540 0.0000 -0.8910
vn -0.8910 0.0000 -0.4540
vn 0.1564 0.0000 0.9877
vn 0.7071 0.0000 -0.7071
vn -0.7071 0.0000 -0.7071
vn -0.1564 0.0000 0.9877
vn 0.8910 0.0000 -0.4540
vn -0.4540 0.0000 -0.8910
vn -0.4540 0.0000 0.8910
vn 0.9877 0.0000 -0.1564
vn -0.1564 0.0000 -0.9877
vn -0.7071 0.0000 0.7071
vn 0.9877 0.0000 0.1564
vn -0.8910 0.0000 0.4540
vn 0.8910 0.0000 0.4540
vn -0.9877 0.0000 0.1564
vn -0.0629 -0.9155 -0.3974
vn -0.2845 -0.9155 0.2845
vn 0.3974 -0.9155 0.0629
vn -0.3585 -0.9155 0.1827
vn 0.3585 -0.9155 0.1827
vn -0.3974 -0.9155 0.0629
vn 0.2845 -0.9155 0.2845
vn 0.0629 -0.9155 -0.3974
vn -0.3974 -0.9155 -0.0629
vn 0.1827 -0.9155 0.3585
vn 0.1827 -0.9155 -0.3585
vn -0.3585 -0.9155 -0.1827
vn 0.0629 -0.9155 0.3974
vn 0.2845 -0.9155 -0.2845
vn -0.2845 -0.9155 -0.2845
vn -0.0629 -0.9155 0.3974
vn 0.3585 -0.9155 -0.1827
vn -0.1827 -0.9155 -0.3585
vn -0.1827 -0.9155 0.3585
vn -0.1111 0.9922 0.0566
vn 0.0000 0.0000 1.0000
vn 0.1111 0.9922 0.0566
vn -0.1231 0.9922 0.0195
vn 0.0881 0.9922 0.0881
vn 0.0195 0.9922 -0.1231
vn -0.1231 0.9922 -0.0195
vn 0.0566 0.9922 0.1111
vn 0.0566 0.9922 -0.1111
vn -0.1111 0.9922 -0.0566
vn 0.0195 0.9922 0.1231
vn 0.0881 0.9922 -0.0881
vn -0.0881 0.9922 -0.0881
vn -0.0195 0.9922 0.1231
vn 0.1111 0.9922 -0.0566
vn -0.0566 0.9922 -0.1111
vn -0.0566 0.9922 0.1111
vn 0.1231 0.9922 -0.0195
vn -0.0195 0.9922 -0.1231
vn -0.0881 0.9922 0.0881
vn 0.1231 0.9922 0.0195
g Cylinder_Cylinder_None
usemtl None
s off
f 1//1 42//1 41//1 3//1
f 3//2 41//2 43//2 5//2
f 5//3 43//3 44//3 7//3
f 7//4 44//4 45//4 9//4
f 9//5 45//5 46//5 11//5
f 11//6 46//6 47//6 13//6
f 13//7 47//7 48//7 15//7
f 15//8 48//8 49//8 17//8
f 17//9 49//9 50//9 19//9
f 19//10 50//10 51//10 21//10
f 21//11 51//11 52//11 23//11
f 23//12 52//12 53//12 25//12
f 25//13 53//13 54//13 27//13
f 27//14 54//14 55//14 29//14
f 29//15 55//15 56//15 31//15
f 31//16 56//16 57//16 33//16
f 33//17 57//17 58//17 35//17
f 35//18 58//18 59//18 37//18
f 18//19 16//19 68//19 69//19
f 37//20 59//20 60//20 39//20
f 39//21 60//21 42//21 1//21
f 2//22 4//22 41//22 42//22
f 4//23 6//23 43//23 41//23
f 6//24 8//24 44//24 43//24
f 8//25 10//25 45//25 44//25
f 10//26 12//26 46//26 45//26
f 12//27 14//27 47//27 46//27
f 14//28 16//28 48//28 47//28
f 16//29 18//29 49//29 48//29
f 18//30 20//30 50//30 49//30
f 20//31 22//31 51//31 50//31
f 22//32 24//32 52//32 51//32
f 24//33 26//33 53//33 52//33
f 26//34 28//34 54//34 53//34
f 28//35 30//35 55//35 54//35
f 30//36 32//36 56//36 55//36
f 32//37 34//37 57//37 56//37
f 34//38 36//38 58//38 57//38
f 36//39 38//39 59//39 58//39
f 38//40 40//40 60//40 59//40
f 40//41 2//41 42//41 60//41
f 66//42 65//42 85//42 86//42
f 4//43 2//43 62//43 61//43
f 34//44 32//44 76//44 77//44
f 20//45 18//45 69//45 70//45
f 6//46 4//46 61//46 63//46
f 36//47 34//47 77//47 78//47
f 22//48 20//48 70//48 71//48
f 8//49 6//49 63//49 64//49
f 38//50 36//50 78//50 79//50
f 24//51 22//51 71//51 72//51
f 10//52 8//52 64//52 65//52
f 40//53 38//53 79//53 80//53
f 26//54 24//54 72//54 73//54
f 12//55 10//55 65//55 66//55
f 2//56 40//56 80//56 62//56
f 28//57 26//57 73//57 74//57
f 14//58 12//58 66//58 67//58
f 30//59 28//59 74//59 75//59
f 16//60 14//60 67//60 68//60
f 32//61 30//61 75//61 76//61
f 83//46 81//46 101//46 103//46
f 62//62 80//62 100//62 82//62
f 74//63 73//63 93//63 94//63
f 67//64 66//64 86//64 87//64
f 75//65 74//65 94//65 95//65
f 68//66 67//66 87//66 88//66
f 76//67 75//67 95//67 96//67
f 69//68 68//68 88//68 89//68
f 61//69 62//69 82//69 81//69
f 77//70 76//70 96//70 97//70
f 70//71 69//71 89//71 90//71
f 63//72 61//72 81//72 83//72
f 78//73 77//73 97//73 98//73
f 71//74 70//74 90//74 91//74
f 64//75 63//75 83//75 84//75
f 79//76 78//76 98//76 99//76
f 72//77 71//77 91//77 92//77
f 65//78 64//78 84//78 85//78
f 80//79 79//79 99//79 100//79
f 73//80 72//80 92//80 93//80
f 115//81 114//81 134//81 135//81
f 98//47 97//47 117//47 118//47
f 91//48 90//48 110//48 111//48
f 84//49 83//49 103//49 104//49
f 99//50 98//50 118//50 119//50
f 92//51 91//51 111//51 112//51
f 85//52 84//52 104//52 105//52
f 100//53 99//53 119//53 120//53
f 93//54 92//54 112//54 113//54
f 86//55 85//55 105//55 106//55
f 82//56 100//56 120//56 102//56
f 94//57 93//57 113//57 114//57
f 87//58 86//58 106//58 107//58
f 95//59 94//59 114//59 115//59
f 88//60 87//60 107//60 108//60
f 96//61 95//61 115//61 116//61
f 89//19 88//19 108//19 109//19
f 81//43 82//43 102//43 101//43
f 97//44 96//44 116//44 117//44
f 90//45 89//45 109//45 110//45
f 121//82 122//82 140//82 139//82 138//82 137//82 136//82 135//82 134//82 133//82 132//82 131//82 130//82 129//82 128//82 127//82 126//82 125//82 124//82 123//82
f 108//83 107//83 127//83 128//83
f 116//84 115//84 135//84 136//84
f 109//85 108//85 128//85 129//85
f 101//86 102//86 122//86 121//86
f 117//87 116//87 136//87 137//87
f 110//88 109//88 129//88 130//88
f 103//89 101//89 121//89 123//89
f 118//90 117//90 137//90 138//90
f 111//91 110//91 130//91 131//91
f 104//92 103//92 123//92 124//92
f 119//93 118//93 138//93 139//93
f 112//94 111//94 131//94 132//94
f 105//95 104//95 124//95 125//95
f 120//96 119//96 139//96 140//96
f 113//97 112//97 132//97 133//97
f 106//98 105//98 125//98 126//98
f 102//99 120//99 140//99 122//99
f 114//100 113//100 133//100 134//100
f 107//101 106//101 126//101 127//101
o Cube
v 1.654519 0.000000 1.000000
v -0.787845 0.000000 1.000000
v -0.787844 0.000000 -1.000000
v 1.654519 2.084154 -0.999999
v 1.654518 2.084154 1.000000
v -0.787845 2.084154 1.000000
v -0.787844 2.084154 -1.000000
v 1.654519 0.000000 -0.133086
v -0.787844 0.000000 -0.133087
v 1.654519 2.084154 -0.133086
v -0.787845 2.084154 -0.133086
v 3.150484 2.084154 -0.999999
v 3.150483 0.000000 -0.133086
v 3.150483 2.084154 -0.133086
v 1.290816 0.000000 1.000000
v 1.290817 2.084154 -1.000000
v 1.290816 2.084154 1.000000
v 1.290816 2.084154 -0.133086
v 1.654519 1.000000 -1.000000
v 1.654519 1.000000 1.000000
v -0.787845 1.000000 1.000000
v -0.787844 1.000000 -1.000000
v -0.787844 1.000000 -0.133087
v 1.654519 1.000000 -0.133086
v 1.290816 1.000000 -1.000000
v 1.290816 1.000000 1.000000
v 1.654519 0.000000 -1.633357
v 1.290816 0.000000 -1.633357
v 1.654519 1.000000 -1.633356
v 1.290816 1.000000 -1.633356
v 3.150483 1.000000 -1.000000
v 3.150483 1.000000 -0.133086
v 3.150483 0.000000 -1.633357
v 3.150483 1.000000 -1.633356
v 3.150483 0.500000 -0.133086
v 3.150483 0.500000 -1.633356
v 3.150483 0.000000 -0.482274
v 3.150483 1.000000 -0.482274
v 3.150483 0.500000 -0.482274
v 3.765543 0.928524 -1.000000
v 3.765542 0.500000 -1.557185
v 3.765543 0.928524 -1.557185
v 3.765542 0.000000 -1.000000
v 3.765542 0.000000 -1.633357
v 3.765542 0.000000 -0.482274
v 3.765542 1.000000 -0.482274
v 3.765542 0.500000 -0.482274
v 3.765542 0.500000 -1.000000
v 3.765543 1.000000 -1.000000
v 3.765542 0.500000 -1.633356
v 3.765543 1.000000 -1.633356
v 4.274170 0.500000 -1.000000
v 4.274170 0.928524 -1.000000
v 4.274170 0.500000 -1.557185
v 4.274170 0.928524 -1.557185
v 1.290816 0.000000 -1.000000
vn 0.0000 1.0000 -0.0000
vn 1.0000 0.0000 0.0000
vn -0.0000 -0.0000 1.0000
vn -1.0000 -0.0000 -0.0000
vn 0.0000 0.0000 -1.0000
vn 0.9344 0.0000 0.3562
vn 0.0000 -1.0000 0.0000
g Cube_Cube_Material.001
usemtl Material.001
s off
f 158//102 151//102 146//102 157//102
f 164//103 150//103 145//103 160//103
f 166//104 157//104 146//104 161//104
f 163//105 151//105 147//105 162//105
f 165//106 196//106 143//106 162//106
f 161//105 146//105 151//105 163//105
f 164//104 148//104 153//104 172//104
f 156//102 147//102 151//102 158//102
f 171//103 152//103 154//103 172//103
f 159//106 144//106 152//106 171//106
f 144//102 150//102 154//102 152//102
f 144//102 156//102 158//102 150//102
f 160//104 145//104 157//104 166//104
f 150//102 158//102 157//102 145//102
f 141//104 160//104 166//104 155//104
f 144//106 159//106 165//106 156//106
f 177//103 179//103 175//103 153//103
f 150//104 164//104 172//104 154//104
f 142//105 161//105 163//105 149//105
f 156//106 165//106 162//106 147//106
f 149//105 163//105 162//105 143//105
f 155//104 166//104 161//104 142//104
f 148//103 164//103 160//103 141//103
f 169//106 167//106 168//106 170//106
f 167//106 169//106 174//106 173//106
f 171//102 178//102 186//102 189//102
f 165//102 159//102 169//102 170//102
f 159//102 171//102 174//102 169//102
f 179//103 178//103 172//103 175//103
f 178//104 179//104 187//104 186//104
f 181//106 182//106 195//106 194//106
f 188//103 183//103 184//103 190//103
f 188//103 189//103 186//103 187//103
f 183//103 188//103 187//103 185//103
f 173//106 176//106 190//106 184//106
f 174//102 171//102 189//102 191//102
f 179//104 177//104 185//104 187//104
f 176//106 174//106 191//106 190//106
f 188//107 180//107 189//107
f 182//103 181//103 190//103 191//103
f 180//103 182//103 191//103 189//103
f 181//104 188//104 190//104
f 193//103 192//103 194//103 195//103
f 182//102 180//102 193//102 195//102
f 180//104 188//104 192//104 193//104
f 188//108 181//108 194//108 192//108
f 196//105 165//105 170//105 168//105
