<?xml version="1.0" encoding="utf-8"?>
<!-- Generator: Adobe Illustrator 16.0.0, SVG Export Plug-In . SVG Version: 6.00 Build 0)  -->
<!DOCTYPE svg PUBLIC "-//W3C//DTD SVG 1.1//EN" "http://www.w3.org/Graphics/SVG/1.1/DTD/svg11.dtd">
<svg version="1.1" id="Layer_1" xmlns="http://www.w3.org/2000/svg" xmlns:xlink="http://www.w3.org/1999/xlink" x="0px" y="0px"
	 width="100px" height="100px" viewBox="0 0 100 100" enable-background="new 0 0 100 100" xml:space="preserve">
<circle fill="#FFFFFF" cx="50" cy="50" r="50"/>
<circle fill="#E6E7E8" cx="50" cy="50" r="42.276"/>
<g>
	<circle fill="#5ACAEA" cx="41.026" cy="35.645" r="6.928"/>
	<path fill="#5ACAEA" d="M54.521,53.111H27.534c0-5.816,6.045-10.539,13.491-10.539C48.474,42.573,54.521,47.295,54.521,53.111z"/>
</g>
<g>
	<path fill="#5ACAEA" d="M69.748,56.32c0,3.081-1.91,5.711-4.612,6.779c-0.829,0.327-1.729,0.508-2.675,0.508
		s-1.853-0.181-2.682-0.515c-2.702-1.062-4.612-3.691-4.612-6.772c0-4.026,3.268-7.287,7.294-7.287S69.748,52.294,69.748,56.32z"/>
	<path fill="#5ACAEA" d="M65.136,63.742v3.724h-5.356v-3.73c0.829,0.335,1.736,0.515,2.682,0.515S64.307,64.07,65.136,63.742z"/>
	<rect x="61.174" y="68.109" fill="#5ACAEA" width="2.573" height="0.862"/>
	<line fill="none" stroke="#5ACAEA" stroke-miterlimit="10" x1="62.459" y1="47.53" x2="62.459" y2="43.028"/>
	<line fill="none" stroke="#5ACAEA" stroke-miterlimit="10" x1="58.064" y1="48.708" x2="55.813" y2="44.809"/>
	<line fill="none" stroke="#5ACAEA" stroke-miterlimit="10" x1="53.669" y1="56.32" x2="49.167" y2="56.319"/>
	<line fill="none" stroke="#5ACAEA" stroke-miterlimit="10" x1="54.847" y1="60.715" x2="50.947" y2="62.965"/>
	<line fill="none" stroke="#5ACAEA" stroke-miterlimit="10" x1="70.069" y1="60.715" x2="73.97" y2="62.967"/>
	<line fill="none" stroke="#5ACAEA" stroke-miterlimit="10" x1="71.248" y1="56.32" x2="75.75" y2="56.321"/>
	<line fill="none" stroke="#5ACAEA" stroke-miterlimit="10" x1="70.069" y1="51.926" x2="73.971" y2="49.675"/>
	<line fill="none" stroke="#5ACAEA" stroke-miterlimit="10" x1="66.854" y1="48.709" x2="69.105" y2="44.81"/>
</g>
</svg>
