<?xml version="1.0" encoding="utf-8"?>
<!-- Generator: Adobe Illustrator 16.0.0, SVG Export Plug-In . SVG Version: 6.00 Build 0)  -->
<!DOCTYPE svg PUBLIC "-//W3C//DTD SVG 1.1//EN" "http://www.w3.org/Graphics/SVG/1.1/DTD/svg11.dtd">
<svg version="1.1" id="Layer_1" xmlns="http://www.w3.org/2000/svg" xmlns:xlink="http://www.w3.org/1999/xlink" x="0px" y="0px"
	 width="841.889px" height="153.225px" viewBox="0 220.952 841.889 153.225" enable-background="new 0 220.952 841.889 153.225"
	 xml:space="preserve">
<path fill="#9DD8EF" d="M536.82,220.868h305.069v122.458H536.82V220.868z"/>
<path fill="#334F9E" d="M0,221.021h528.246v153.071H0V221.021z"/>
<path fill="#84B7CC" d="M5.511,343.478l-5.358,5.389v-5.389"/>
<path fill="#A2D1E0" d="M38.513,358.785l-15.246,15.309H0.153l15.231-15.309"/>
<path fill="#84B7CC" d="M53.728,343.478l-15.215,15.307H15.399l15.217-15.307 M61.642,358.785l-15.229,15.309H23.297l15.216-15.309"
	/>
<path fill="#A2D1E0" d="M76.872,343.478l-15.23,15.307H38.528l15.2-15.307 M84.755,358.785l-15.23,15.309H46.411l15.229-15.309"/>
<path fill="#84B7CC" d="M99.986,343.478l-15.229,15.307H61.642l15.23-15.307 M107.884,358.785l-15.23,15.309H69.54l15.215-15.309"/>
<path fill="#A2D1E0" d="M123.115,343.478l-15.229,15.307H84.771l15.186-15.307 M131.029,358.785l-15.245,15.309H92.669
	l15.215-15.309"/>
<path fill="#84B7CC" d="M146.243,343.478l-15.216,15.307h-23.158l15.229-15.307 M154.142,358.785l-15.229,15.309h-23.113
	l15.215-15.309"/>
<path fill="#A2D1E0" d="M169.373,343.478l-15.231,15.307h-23.113l15.216-15.307 M177.256,358.785l-15.23,15.309h-23.113
	l15.229-15.309"/>
<path fill="#84B7CC" d="M192.487,343.478l-15.229,15.307h-23.114l15.231-15.307 M200.369,358.785l-15.216,15.309H162.04
	l15.216-15.309"/>
<path fill="#A2D1E0" d="M215.615,343.478l-15.246,15.307h-23.113l15.229-15.307 M223.514,358.785l-15.229,15.309H185.17
	l15.215-15.309"/>
<path fill="#84B7CC" d="M238.744,343.478l-15.23,15.307h-23.113l15.216-15.307 M246.643,358.785l-15.229,15.309H208.3l15.215-15.309
	"/>
<path fill="#A2D1E0" d="M261.873,343.478l-15.23,15.307H223.53l15.216-15.307 M269.772,358.785l-15.229,15.309h-23.146
	l15.231-15.309"/>
<path fill="#84B7CC" d="M285.018,343.478l-15.246,15.307h-23.112l15.215-15.307 M292.886,358.785l-15.23,15.309h-23.113
	l15.216-15.309"/>
<path fill="#A2D1E0" d="M308.131,343.478l-15.245,15.307h-23.114l15.23-15.307 M316.015,358.785l-15.229,15.309H277.67
	l15.216-15.309"/>
<path fill="#84B7CC" d="M331.245,343.478l-15.23,15.307h-23.114l15.217-15.307 M339.144,358.785l-15.229,15.309H300.8l15.23-15.309"
	/>
<path fill="#A2D1E0" d="M354.359,343.478l-15.215,15.307h-23.113l15.216-15.307 M362.273,358.785l-15.229,15.309H323.93
	l15.215-15.309"/>
<path fill="#84B7CC" d="M377.503,343.478l-15.23,15.307H339.16l15.215-15.307"/>
<path fill="#A2D1E0" d="M400.615,343.478l-15.229,15.307h-23.113l15.23-15.307"/>
<path fill="#84B7CC" d="M385.386,358.785l-15.23,15.309h-23.112l15.229-15.309"/>
<path fill="#A2D1E0" d="M408.515,358.785l-15.229,15.309h-23.113l15.215-15.309"/>
<path fill="#84B7CC" d="M423.744,343.478l-15.229,15.307h-23.113l15.215-15.307 M431.658,358.785l-15.246,15.309H393.3
	l15.215-15.309"/>
<path fill="#A2D1E0" d="M446.875,343.478l-15.217,15.307h-23.145l15.229-15.307 M454.774,358.785l-15.23,15.309H416.43
	l15.215-15.309"/>
<path fill="#84B7CC" d="M470.004,343.478l-15.23,15.307h-23.114l15.216-15.307 M477.887,358.785l-15.23,15.309h-23.113l15.23-15.309
	"/>
<path fill="#A2D1E0" d="M493.116,343.478l-15.229,15.307h-23.113l15.23-15.307 M501,358.785l-15.216,15.309h-23.112l15.215-15.309"
	/>
<path fill="#84B7CC" d="M516.245,343.478L501,358.785h-23.113l15.229-15.307 M524.145,358.785l-15.23,15.309h-23.112l15.215-15.309"
	/>
<path fill="#A2D1E0" d="M528.246,343.478v11.174l-4.103,4.133h-23.113l15.215-15.307 M528.246,358.785v15.309h-19.333l15.23-15.309"
	/>
<path fill="#84B7CC" d="M528.246,354.652v4.133h-4.103 M0,343.478h0.151v30.613H0V343.478z"/>
<path fill="#A2D1E0" d="M30.615,343.478l-15.23,15.307H0.153v-9.918l5.358-5.389"/>
<path fill="#84B7CC" d="M15.384,358.785L0.153,374.094v-15.309"/>
<path fill="#F1F2F2" d="M0,290.056h236.035v5.356H0V290.056z"/>
<path fill="#D8D8D8" d="M0,295.413h236.035v5.389H0V295.413z"/>
<path fill="#606161" d="M78.954,276.403v67.076h-1.653v-65.607l1.484-1.469"/>
<path fill="#6D6E71" d="M40.472,277.871h36.829v65.607H40.488L40.472,277.871z"/>
<path fill="#58595B" d="M47.728,264.003h22.96v12.399h-22.96V264.003z"/>
<path fill="#414042" d="M45.891,292.475h5.051v51.003h-5.051V292.475z M56.682,292.475h5.052v51.003h-5.052V292.475z
	 M66.862,292.475h5.052v51.003h-5.052V292.475z"/>
<path fill="#939598" d="M78.954,306.388h3.245v7.502h-3.216L78.954,306.388z"/>
<path fill="#7E7F7F" d="M78.954,313.859h3.245v7.5h-3.216L78.954,313.859z"/>
<path fill="#ADADAD" d="M153.53,254.697v5.97H120.16v58.628H82.199v-5.391h32.449v-59.208"/>
<path fill="#BCBEC0" d="M153.53,249.951v4.745h-38.88v59.208H82.2v-5.479h28.164v-58.474"/>
<path fill="#A7A9AC" d="M60.111,243.369v20.634h-3.429v-17.419H15.766v31.272H0v-3.107h12.245v-31.38"/>
<path fill="#939598" d="M63.525,240.156v23.848h-3.414v-20.634H12.245v31.38H0v-3.062h8.725v-31.532 M197.002,276.479H153.53
	l1.64-1.53h40.227 M155.168,222.644v52.289l-1.623,1.529v-55.35"/>
<path fill="#808285" d="M197.002,221.098v55.381l-1.607-1.53v-52.32h-40.227l-1.64-1.515"/>
<path fill="#A7A9AC" d="M155.168,222.644h40.227v52.289h-40.227V222.644z"/>
<path fill="#58595B" d="M161.49,276.479h28.164v7.225H161.49V276.479z"/>
<path fill="#414042" d="M170.367,283.703h10.408v3.368h-10.408V283.703z"/>
<path fill="#58595B" d="M163.633,230.405H186.9v36.783h-23.267V230.405z"/>
<path fill="#BCBEC0" d="M163.633,247.548H186.9v2.48h-23.267V247.548z"/>
<path fill="#6D6E71" d="M56.682,257.911h6.843v1.103h-6.843V257.911z M56.682,249.401h6.843v1.102h-6.843V249.401z M8.725,249.86
	h7.041v1.103H8.725V249.86z M8.725,258.524h7.041v1.102H8.725V258.524z M8.725,267.188h7.041v1.102H8.725V267.188z M4.363,271.657
	h1.103v6.214H4.363V271.657z M52.198,240.156h1.117v6.429h-1.117V240.156z M43.779,240.156h1.103v6.429h-1.103V240.156z
	 M35.36,240.156h1.071v6.429H35.36V240.156z M26.909,240.156h1.103v6.429h-1.103V240.156z M18.476,240.156h1.103v6.429H18.46
	L18.476,240.156z"/>
<path fill="#A7A9AC" d="M423.853,317.761c1.729,0,3.138,1.424,3.138,3.152c0,1.73-1.408,3.139-3.138,3.139H275.987
	c-1.729,0-3.138-1.377-3.138-3.121c0-1.746,1.408-3.139,3.138-3.139h147.866 M423.853,317.486H275.987
	c-1.897,0-3.443,1.563-3.443,3.461c0,1.896,1.531,3.443,3.443,3.443h147.866c1.898,0,3.444-1.531,3.444-3.43
	c0-1.912-1.531-3.443-3.444-3.443V317.486z"/>
<circle fill="#6D6E71" cx="275.987" cy="320.916" r="3"/>
<circle fill="#939598" cx="287.36" cy="320.916" r="3"/>
<circle fill="#939598" cx="298.733" cy="320.916" r="3"/>
<circle fill="#939598" cx="310.106" cy="320.916" r="3"/>
<circle fill="#939598" cx="321.48" cy="320.916" r="3"/>
<circle fill="#939598" cx="332.853" cy="320.916" r="3"/>
<circle fill="#939598" cx="344.226" cy="320.916" r="3"/>
<circle fill="#939598" cx="355.615" cy="320.916" r="3"/>
<circle fill="#939598" cx="366.988" cy="320.916" r="3"/>
<circle fill="#939598" cx="378.361" cy="320.916" r="3"/>
<circle fill="#939598" cx="389.734" cy="320.916" r="3"/>
<circle fill="#939598" cx="401.107" cy="320.916" r="3"/>
<circle fill="#939598" cx="412.48" cy="320.916" r="3"/>
<circle fill="#6D6E71" cx="423.853" cy="320.916" r="3"/>
<circle fill="#414042" cx="423.853" cy="320.916" r="1.563"/>
<circle fill="#414042" cx="275.987" cy="320.916" r="1.563"/>
<circle fill="#414042" cx="287.36" cy="320.916" r="1.563"/>
<circle fill="#414042" cx="298.733" cy="320.916" r="1.563"/>
<circle fill="#414042" cx="310.106" cy="320.916" r="1.563"/>
<circle fill="#414042" cx="321.479" cy="320.916" r="1.563"/>
<circle fill="#414042" cx="332.852" cy="320.916" r="1.563"/>
<circle fill="#414042" cx="344.225" cy="320.916" r="1.563"/>
<circle fill="#414042" cx="355.598" cy="320.916" r="1.563"/>
<circle fill="#414042" cx="366.971" cy="320.916" r="1.563"/>
<circle fill="#414042" cx="378.344" cy="320.916" r="1.563"/>
<circle fill="#414042" cx="389.717" cy="320.916" r="1.563"/>
<circle fill="#414042" cx="401.09" cy="320.916" r="1.563"/>
<circle fill="#414042" cx="412.463" cy="320.916" r="1.563"/>
<path fill="#CED1D3" d="M236.035,283.015h39.95v60.463h-39.95V283.015L236.035,283.015z"/>
<path opacity="0.5" fill="#58595B" enable-background="new    " d="M242.617,289.75h26.939v53.728h-26.939V289.75z"/>
<path fill="#58595B" d="M242.617,300.802h26.939v3.029h-26.939V300.802z M242.617,323.732h26.939v3.063h-26.939V323.732z"/>
<path fill="#939598" d="M90.128,308.426h1.684v10.869h-1.684V308.426z M101.914,308.426h1.684v10.869h-1.684V308.426z
	 M110.365,301.474h9.797v1.686h-9.797V301.474z M110.365,289.214h9.797v1.685h-9.797V289.214z M110.365,274.626h9.797v1.686h-9.797
	V274.626z M110.365,264.294h9.797v1.685h-9.797V264.294z M124.416,250.029h1.684v10.638h-1.684V250.029z M139.723,250.029h1.685
	v10.638h-1.685V250.029z M102.527,290.056h1.685v10.747h-1.685V290.056z M87.22,290.056h1.684v10.747H87.22V290.056z
	 M133.141,290.056h1.685v10.747h-1.685V290.056z M148.448,290.056h1.685v10.747h-1.685V290.056z M163.755,290.056h1.684v10.747
	h-1.684V290.056z M179.062,290.056h1.686v10.747h-1.686V290.056z M194.369,290.056h1.684v10.747h-1.684V290.056z M209.676,290.056
	h1.685v10.747h-1.685V290.056z M224.984,290.056h1.685v10.747h-1.685V290.056z M25.838,290.056h1.684v10.747h-1.684V290.056z
	 M10.531,290.056h1.685v10.747h-1.685V290.056z"/>
<path fill="#414042" d="M191.583,335.824h45.922v22.961h-45.922V335.824z"/>
<path fill="#6D6E71" d="M196.941,343.478h4.439v4.438h-4.439V343.478z M204.962,343.478h4.438v4.438h-4.438V343.478z
	 M213.166,343.478h4.438v4.438h-4.438V343.478z M220.667,343.478h4.438v4.438h-4.438V343.478z M228.167,343.478h4.438v4.438h-4.438
	V343.478z M196.941,352.203h35.666v1.377h-35.666V352.203z"/>
<path fill="#BCBEC0" d="M451.955,268.167v9.093h-50.359v-32.176h-35.91v-9.093h46.381v32.176"/>
<path fill="#D1D3D4" d="M370.921,239.741h35.939v31.992h38.729v5.511h-44.023v-32.298h-30.675"/>
<path fill="#808285" d="M341.47,221.021v50.729c0,0,11.512-6.827,28.625,0v-50.729H341.47z"/>
<path fill="#58595B" d="M337.674,221.021l3.796,50.729v-50.729 M373.861,221.021l-3.766,50.729v-50.729 M346.4,221.021l2.755,44.544
	l3.521-44.544 M358.186,221.021l2.755,44.544l3.521-44.544 M342.082,272.453c0,0,11.112-6.659,27.399,0
	C369.483,272.453,357.665,277.121,342.082,272.453z"/>
<path fill="#808285" d="M355.782,280.458c4.774,0,8.663-3.779,8.663-8.449h-17.357c0,4.685,3.888,8.466,8.679,8.466L355.782,280.458
	z M347.104,271.993c0,0,6.796-2.204,17.343,0"/>
<path fill="#414042" d="M354.359,271.03l1.118,6.628l1.117-6.612c0,0-1.577-0.03-2.22,0L354.359,271.03z"/>
<path fill="#58595B" d="M431.017,311.441h10.378v14.74h-10.378V311.441z"/>
<path fill="#505251" d="M431.017,318.802h10.378v7.379h-10.378V318.802z"/>
<g>
	<g>
		<path fill="#808285" d="M427.986,343.478l12.309-18.92h14.541v18.92 M481.714,343.478l-12.339-18.92h-14.541v18.92"/>
	</g>
	<path fill="#747476" d="M440.293,321.435h28.868v3.123h-28.868V321.435z"/>
	<path fill="#414042" d="M453.595,343.478l1.225-16.486v16.486 M456.09,343.478l-1.256-16.486v16.486 M438.609,343.386l5.863-16.379
		l-2.572,16.379 M470.538,343.386l-5.861-16.379l2.557,16.379"/>
	<path fill="#808285" d="M440.293,321.435l-3.904-10.76h18.323v10.76 M469.161,321.435l3.889-10.76h-18.323v10.76 M436.405,310.676
		l8.067-71.79h10.362l-0.107,71.79"/>
	<path fill="#808285" d="M473.112,310.676l-8.083-71.79h-10.362l0.107,71.79"/>
	<path fill="#414042" d="M436.405,310.676c0,0,16.181-6.781,36.707,0l-0.337-3.016c0,0-16.18-5.971-36.385,0v3.016H436.405z"/>
	<path fill="#808285" d="M444.472,238.886c0,0,9.397-6.507,20.557,0"/>
	<path fill="#58595B" d="M438.609,311.84l2.908,7.959h2.955v-9.123C444.472,310.676,441.409,309.404,438.609,311.84z
		 M471.198,311.84l-2.908,7.959h-2.953v-9.123C465.335,310.676,468.397,309.404,471.198,311.84z"/>
	<g>
		<path fill="#58595B" d="M454.008,309.404c-2.604,0.063-5.587,0.414-8.694,1.271v9.139h8.694V309.404z M455.692,309.404v10.41
			h8.679v-9.139C464.369,310.676,460.881,309.511,455.692,309.404z"/>
	</g>
	<path fill="#58595B" d="M449.659,241.38l-5.907,61.61c0,0,3.979-3.826,9.644-2.082V241.38
		C453.396,241.38,452.355,239.636,449.659,241.38z M460.59,241.38l5.893,61.61c0,0-3.979-3.826-9.643-2.082V241.38
		c0,0,1.04-1.729,3.733,0H460.59z"/>
</g>
<path fill="#939598" d="M414.592,268.167h1.684v9.093h-1.684V268.167z M401.596,261.172h10.485v1.685h-10.471L401.596,261.172z
	 M401.596,249.233h10.485v1.684h-10.471L401.596,249.233z M426.302,268.167h1.684v9.093h-1.684V268.167z M384.131,235.991h1.684
	v9.063h-1.684V235.991z M395.841,235.991h1.684v9.063h-1.684V235.991z"/>
<path fill="#B0B1B2" d="M470.479,279.754l1.255,9.89l2.525,0.565l-1.653-11.71"/>
<path fill="#414042" d="M472.606,278.499c0,0,5.113,4.517,1.653,11.71L472.606,278.499z"/>
<g>
	<path fill="#D1D3D4" d="M514.777,243.11v3.413h-11.021v41.176h-27.677c0.23-1.225,0.245-2.356,0.153-3.337h23.344V243.11h15.215
		H514.777z"/>
	<path fill="#BCBEC0" d="M528.094,238.991v7.531h-13.317v-3.413h-15.199v41.252h-23.374c0-0.352-0.076-0.688-0.123-0.994
		c-0.396-2.066-1.225-3.276-1.225-3.276h20.543v-41.114h32.695V238.991z"/>
	<path fill="#BCBEC0" d="M514.777,235.409h13.317v14.083h-13.317V235.409z"/>
	<circle fill="#808285" cx="521.528" cy="242.45" r="4.638"/>
</g>
<path fill="#939598" d="M481.071,280.107h1.685v7.606h-1.685V280.107z M490.162,280.107h1.685v7.606h-1.685V280.107z
	 M508.226,238.991h1.684v7.531h-1.684V238.991z M495.399,249.462h8.372v1.685h-8.357L495.399,249.462z M495.399,258.416h8.372v1.685
	h-8.357L495.399,258.416z M495.399,266.682h8.372v1.685h-8.357L495.399,266.682z M495.399,274.963h8.372v1.685h-8.357
	L495.399,274.963z"/>
<path fill="#E2E2E2" d="M275.987,320.916h147.928v6.645H275.987V320.916z"/>
<path fill="#414042" d="M404.214,322.201v21.277H400.8v-18.293h-29.909v18.293h-3.429v-21.277"/>
<path fill="#58595B" d="M366.758,322.201h38.113v4.059h-38.113V322.201z"/>
<path fill="#2C4A83" d="M528.246,221.021h8.572v153.071h-8.572V221.021z"/>
<path fill="#009444" d="M536.82,343.478h305.069v30.613H536.82V343.478z"/>
<path fill="#F1F2F2" d="M536.942,304.935h192.211v3.979H536.942V304.935z M536.942,333.574h192.211v3.98H536.942V333.574z"/>
<path fill="#F1F2F2" d="M543.294,299.547h4.285v43.932h-4.285V299.547z M557.375,299.547h4.286v43.932h-4.286V299.547z
	 M571.459,299.547h4.285v43.932h-4.285V299.547z M585.541,299.547h4.285v43.932h-4.285V299.547z M599.623,299.547h4.286v43.932
	h-4.286V299.547z M613.705,299.547h4.286v43.932h-4.286V299.547z M627.788,299.547h4.286v43.932h-4.286V299.547z M641.87,299.547
	h4.286v43.932h-4.286V299.547z M655.953,299.547h4.286v43.932h-4.286V299.547z M670.035,299.547h4.286v43.932h-4.286V299.547z
	 M684.118,299.547h4.286v43.932h-4.286V299.547z M698.2,299.547h4.286v43.932H698.2V299.547z M712.283,299.547h4.286v43.932h-4.286
	V299.547z M726.673,299.547h4.286v74.547h-4.286V299.547z M590.576,243.936c2.971-4.898,10.164-2.098,8.939,2.647
	c2.603-4.286,13.623-1.378,13.011,3.214c5.817-4.024,13.363,7.808,0.308,8.526c0.092,5.756-13.271,8.266-14.189,1.117
	c-1.96,6.322-15.216,5.97-14.297,0.153c-3.368,4.133-12.398,2.144-12.858-0.767c-0.459-2.908,2.449-9.49,10.716-9.031
	c-5.663-4.592,4.179-10.761,8.357-5.861L590.576,243.936L590.576,243.936z"/>
<path fill="#E6E7E8" d="M615.712,249.997c2.556-4.225,8.725-1.806,7.684,2.296c2.25-3.704,11.726-1.225,11.205,2.756
	c5.006-3.475,11.479,6.704,0.261,7.316c0.092,4.975-11.42,7.133-12.216,0.995c-1.684,5.434-13.072,5.128-12.291,0.122
	c-2.908,3.566-10.669,1.837-11.067-0.658c-0.397-2.495,2.144-8.174,9.245-7.775c-4.896-3.948,3.599-9.261,7.194-5.052H615.712
	L615.712,249.997z"/>
<path fill="#414042" d="M530.084,272.729h4.929v86.056h-4.898L530.084,272.729z"/>
<path fill="#7C7D7D" d="M40.472,277.871v65.607h-1.47v-67.076"/>
<path fill="#4F4F4F" d="M78.785,276.403l-1.471,1.469H40.488l-1.47-1.469"/>
<path fill="#334F9E" d="M78.863,276.311l-0.076,0.092h-2.098"/>
<path fill="none" d="M30.95,343.174l-0.307,0.305 M55.932,343.174l-0.306,0.305 M80.913,343.174l-0.308,0.305 M105.895,343.174
	l-0.307,0.305 M130.875,343.174l-0.307,0.305 M155.872,343.174l-0.308,0.305 M180.853,343.174l-0.306,0.305 M0.153,358.785H0"/>
<path fill="#F1F2F2" d="M726.673,314.853h4.286v59.238h-4.286V314.853z"/>
<path fill="#808285" d="M244.056,343.478v-52.305l-1.424-1.408v53.729"/>
<path fill="#898B8C" d="M242.617,289.75l1.438,1.424h25.502v-1.424"/>
<path fill="none" d="M195.395,222.644l1.623-1.53"/>
<path fill="#BCBEC0" d="M420.945,327.558h1.424v15.92h-1.438L420.945,327.558z M423.93,310.369h7.102v17.189h-7.117L423.93,310.369z
	"/>
<path fill="#B2B1B2" d="M423.93,319.644h7.102v7.914h-7.117L423.93,319.644z"/>
<g>
	<path fill="#FFFFFF" d="M12.215,355.617c-0.215-0.076-0.459-0.199-0.704-0.367c-0.261-0.184-0.459-0.398-0.688-0.674
		c-0.198-0.275-0.307-0.611-0.307-1.025c0-0.611,0.229-1.146,0.674-1.576c0.459-0.459,0.979-0.658,1.593-0.658
		c0.612,0,1.133,0.215,1.575,0.658c0.43,0.43,0.658,0.949,0.658,1.561h-1.5c0-0.213-0.061-0.381-0.214-0.533
		c-0.153-0.154-0.307-0.217-0.521-0.217s-0.383,0.094-0.535,0.23c-0.152,0.139-0.229,0.307-0.229,0.52
		c0,0.262,0.107,0.461,0.307,0.613c0.229,0.123,0.397,0.199,0.506,0.23c0.062,0,0.198,0.061,0.429,0.15
		c0.229,0.047,0.459,0.154,0.734,0.309c0.261,0.152,0.489,0.383,0.688,0.643c0.198,0.275,0.306,0.611,0.306,1.025
		c0,0.611-0.229,1.146-0.657,1.576c-0.43,0.43-0.965,0.658-1.576,0.658c-0.612,0-1.148-0.215-1.577-0.658s-0.643-0.965-0.643-1.576
		h1.483c0,0.197,0.077,0.383,0.215,0.52c0.152,0.154,0.307,0.23,0.521,0.23c0.198,0,0.382-0.076,0.52-0.23
		c0.153-0.152,0.215-0.305,0.215-0.52c0-0.307-0.121-0.521-0.366-0.613l-0.521-0.184c-0.046,0-0.153-0.061-0.397-0.152
		L12.215,355.617z M20.772,351.636c0.459,0.199,0.842,0.459,1.194,0.797l-1.072,1.07c-0.429-0.459-0.964-0.674-1.561-0.674
		c-0.612,0-1.148,0.23-1.577,0.674s-0.658,0.965-0.658,1.576c0,0.613,0.215,1.135,0.658,1.576c0.429,0.43,0.949,0.658,1.577,0.658
		c0.611,0,1.132-0.229,1.576-0.658l1.07,1.072c-0.367,0.307-0.765,0.582-1.225,0.766c-0.459,0.184-0.918,0.307-1.423,0.307
		c-1.026,0-1.914-0.367-2.633-1.072c-0.721-0.764-1.072-1.621-1.072-2.646s0.353-1.898,1.072-2.633
		c0.733-0.721,1.621-1.072,2.646-1.072c0.505,0,0.979,0.076,1.439,0.275L20.772,351.636z M22.501,356.551v-5.203h2.587
		c0.704,0,1.315,0.244,1.837,0.766c0.505,0.504,0.766,1.117,0.766,1.836c0,0.551-0.152,1.072-0.459,1.484
		c-0.307,0.414-0.734,0.766-1.225,0.965l1.684,2.404h-1.837l-1.883-2.727v2.709h-1.47V356.551z M25.104,355.066
		c0.307,0,0.566-0.107,0.767-0.338c0.229-0.213,0.336-0.459,0.336-0.766s-0.106-0.58-0.307-0.811
		c-0.229-0.215-0.489-0.307-0.812-0.307h-1.117v2.219h1.102h0.031V355.066z M34.747,352.433c0.719,0.732,1.07,1.605,1.07,2.633
		c0,1.025-0.353,1.898-1.07,2.633c-0.767,0.703-1.623,1.07-2.648,1.07c-1.01,0-1.897-0.367-2.603-1.07
		c-0.766-0.766-1.117-1.623-1.117-2.648s0.367-1.896,1.103-2.633c0.72-0.719,1.607-1.07,2.603-1.07c1.041,0,1.914,0.352,2.647,1.07
		L34.747,352.433z M30.523,353.506c-0.429,0.428-0.644,0.947-0.644,1.561s0.215,1.133,0.644,1.576
		c0.459,0.43,0.964,0.658,1.576,0.658s1.148-0.229,1.592-0.658c0.459-0.459,0.658-0.963,0.658-1.576
		c0-0.611-0.214-1.146-0.643-1.576c-0.43-0.459-0.949-0.658-1.577-0.658c-0.612,0-1.133,0.23-1.576,0.674H30.523L30.523,353.506z
		 M37.961,351.345v5.971h2.955v1.469h-4.485v-7.438h1.53V351.345z M43.074,351.345v5.971h2.969v1.469h-4.438v-7.438h1.47V351.345z
		 M52.932,351.345h1.867v1.484h-1.867v5.971h-1.5v-5.971h-1.837v-1.469h3.337V351.345z M61.152,352.433
		c0.721,0.732,1.071,1.605,1.071,2.633c0,1.025-0.352,1.898-1.071,2.633c-0.733,0.703-1.606,1.07-2.633,1.07
		c-1.025,0-1.896-0.367-2.633-1.07c-0.704-0.766-1.071-1.623-1.071-2.648s0.367-1.896,1.071-2.633
		c0.766-0.719,1.623-1.07,2.648-1.07c1.024,0,1.896,0.352,2.633,1.07L61.152,352.433z M56.943,353.506
		c-0.429,0.428-0.657,0.947-0.657,1.561s0.229,1.133,0.657,1.576c0.459,0.43,0.965,0.658,1.576,0.658
		c0.612,0,1.148-0.229,1.577-0.658c0.459-0.459,0.658-0.963,0.658-1.576c0-0.611-0.229-1.146-0.674-1.576
		c-0.444-0.428-0.965-0.658-1.577-0.658c-0.611,0-1.132,0.23-1.576,0.674H56.943L56.943,353.506z M71.76,355.418v-4.07h1.5v7.438
		l-4.47-4.07v4.07h-1.485v-7.438l4.439,4.057L71.76,355.418z M76.031,357.715l-0.459,1.07h-1.639l3.186-7.102l0.151-0.338
		l0.153,0.354l3.215,7.086h-1.607l-0.459-1.07l-0.03-0.045h-2.464l-0.047,0.061V357.715z M77.898,356.183l-0.611-1.301l-0.582,1.301
		h1.179H77.898z M82.352,358.785l-0.151-0.352l-3.216-7.088h1.593l1.774,3.92l1.745-3.92h1.623L82.352,358.785z M86.546,351.345h1.5
		v7.439h-1.5V351.345z M94.353,351.636c0.459,0.199,0.857,0.459,1.194,0.797l-1.072,1.07c-0.428-0.459-0.948-0.674-1.561-0.674
		c-0.613,0-1.134,0.23-1.577,0.674s-0.658,0.965-0.658,1.576c0,0.613,0.229,1.135,0.658,1.576c0.459,0.43,0.965,0.658,1.577,0.658
		c0.488,0,0.918-0.152,1.301-0.428c0.383-0.277,0.643-0.613,0.812-1.072h-2.111v-1.484h3.643c0.063,0.244,0.077,0.49,0.077,0.766
		c0,1.012-0.368,1.883-1.072,2.604c-0.765,0.734-1.622,1.102-2.646,1.102c-1.026,0-1.898-0.367-2.633-1.07
		c-0.721-0.766-1.072-1.623-1.072-2.648s0.353-1.896,1.072-2.633c0.733-0.719,1.605-1.07,2.633-1.07
		c0.521,0,0.994,0.076,1.438,0.275L94.353,351.636L94.353,351.636z M98.669,357.715l-0.489,1.07h-1.592l3.214-7.102l0.153-0.338
		l0.152,0.354l3.185,7.086h-1.577l-0.459-1.07l-0.046-0.045h-2.495v0.061L98.669,357.715z M100.506,356.183l-0.566-1.301
		l-0.611,1.301H100.506z M105.833,351.345h1.867v1.484h-1.867v5.971h-1.485v-5.971h-1.867v-1.469h3.354L105.833,351.345
		L105.833,351.345z M112.905,351.345v1.484h-3v1.5h2.25v1.484h-2.25v1.5h3v1.486h-4.453v-7.455h4.47H112.905L112.905,351.345z
		 M115.507,357.224v1.561h-1.563v-1.561H115.507z M118.171,357.224v1.561h-1.531v-1.561H118.171z M120.88,357.224v1.561h-1.577
		v-1.561H120.88z"/>
</g>
</svg>
