<?xml version="1.0" encoding="utf-8"?>
<!-- Generator: Adobe Illustrator 16.0.0, SVG Export Plug-In . SVG Version: 6.00 Build 0)  -->
<!DOCTYPE svg PUBLIC "-//W3C//DTD SVG 1.1//EN" "http://www.w3.org/Graphics/SVG/1.1/DTD/svg11.dtd">
<svg version="1.1" id="Layer_1" xmlns="http://www.w3.org/2000/svg" xmlns:xlink="http://www.w3.org/1999/xlink" x="0px" y="0px"
	 width="6000px" height="1000px" viewBox="0 0 6000 1000" enable-background="new 0 0 6000 1000" xml:space="preserve">
<rect x="0" y="0" fill="#64CCF5" width="6000" height="800"/>
<rect x="0" y="800" fill="#019547" width="6000" height="150"/>
<g>
	<polygon fill="#764E2A" points="50,950 42.835,957.165 7.165,957.165 0,950 	"/>
	<polygon fill="#8B5F3D" points="50,950 50,1000 42.835,992.838 42.835,957.165 	"/>
	<polygon fill="#764E2A" points="50,1000 0,1000 7.165,992.838 42.835,992.838 	"/>
	<polygon fill="#8B5F3D" points="7.165,957.165 7.165,992.838 0,1000 0,950 	"/>
	<rect x="7.165" y="957.165" fill="#A97D51" width="35.67" height="35.673"/>
</g>
<g>
	<polygon fill="#764E2A" points="100,1000 92.835,992.838 92.835,957.165 100,950 	"/>
	<polygon fill="#8B5F3D" points="100,1000 50,1000 57.165,992.838 92.835,992.838 	"/>
	<polygon fill="#764E2A" points="50,1000 50,950 57.165,957.165 57.165,992.838 	"/>
	<polygon fill="#8B5F3D" points="92.835,957.165 57.165,957.165 50,950 100,950 	"/>
	<rect x="57.165" y="957.165" fill="#A97D51" width="35.67" height="35.673"/>
</g>
<g>
	<polygon fill="#764E2A" points="150,950 142.835,957.165 107.165,957.165 100,950 	"/>
	<polygon fill="#8B5F3D" points="150,950 150,1000 142.835,992.838 142.835,957.165 	"/>
	<polygon fill="#764E2A" points="150,1000 100,1000 107.165,992.838 142.835,992.838 	"/>
	<polygon fill="#8B5F3D" points="107.165,957.165 107.165,992.838 100,1000 100,950 	"/>
	<rect x="107.165" y="957.165" fill="#A97D51" width="35.67" height="35.673"/>
</g>
<g>
	<polygon fill="#764E2A" points="200,1000 192.835,992.838 192.835,957.165 200,950 	"/>
	<polygon fill="#8B5F3D" points="200,1000 150,1000 157.165,992.838 192.835,992.838 	"/>
	<polygon fill="#764E2A" points="150,1000 150,950 157.165,957.165 157.165,992.838 	"/>
	<polygon fill="#8B5F3D" points="192.835,957.165 157.165,957.165 150,950 200,950 	"/>
	<rect x="157.165" y="957.165" fill="#A97D51" width="35.67" height="35.673"/>
</g>
<g>
	<polygon fill="#764E2A" points="250,950 242.835,957.165 207.165,957.165 200,950 	"/>
	<polygon fill="#8B5F3D" points="250,950 250,1000 242.835,992.838 242.835,957.165 	"/>
	<polygon fill="#764E2A" points="250,1000 200,1000 207.165,992.838 242.835,992.838 	"/>
	<polygon fill="#8B5F3D" points="207.165,957.165 207.165,992.838 200,1000 200,950 	"/>
	<rect x="207.165" y="957.165" fill="#A97D51" width="35.67" height="35.673"/>
</g>
<g>
	<polygon fill="#764E2A" points="300,1000 292.835,992.838 292.835,957.165 300,950 	"/>
	<polygon fill="#8B5F3D" points="300,1000 250,1000 257.165,992.838 292.835,992.838 	"/>
	<polygon fill="#764E2A" points="250,1000 250,950 257.165,957.165 257.165,992.838 	"/>
	<polygon fill="#8B5F3D" points="292.835,957.165 257.165,957.165 250,950 300,950 	"/>
	<rect x="257.165" y="957.165" fill="#A97D51" width="35.67" height="35.673"/>
</g>
<g>
	<polygon fill="#764E2A" points="350,950 342.835,957.165 307.165,957.165 300,950 	"/>
	<polygon fill="#8B5F3D" points="350,950 350,1000 342.835,992.838 342.835,957.165 	"/>
	<polygon fill="#764E2A" points="350,1000 300,1000 307.165,992.838 342.835,992.838 	"/>
	<polygon fill="#8B5F3D" points="307.165,957.165 307.165,992.838 300,1000 300,950 	"/>
	<rect x="307.165" y="957.165" fill="#A97D51" width="35.67" height="35.673"/>
</g>
<g>
	<polygon fill="#764E2A" points="400,1000 392.835,992.838 392.835,957.165 400,950 	"/>
	<polygon fill="#8B5F3D" points="400,1000 350,1000 357.165,992.838 392.835,992.838 	"/>
	<polygon fill="#764E2A" points="350,1000 350,950 357.165,957.165 357.165,992.838 	"/>
	<polygon fill="#8B5F3D" points="392.835,957.165 357.165,957.165 350,950 400,950 	"/>
	<rect x="357.165" y="957.165" fill="#A97D51" width="35.67" height="35.673"/>
</g>
<g>
	<polygon fill="#764E2A" points="450,950 442.835,957.165 407.162,957.165 400,950 	"/>
	<polygon fill="#8B5F3D" points="450,950 450,1000 442.835,992.838 442.835,957.165 	"/>
	<polygon fill="#764E2A" points="450,1000 400,1000 407.162,992.838 442.835,992.838 	"/>
	<polygon fill="#8B5F3D" points="407.162,957.165 407.162,992.838 400,1000 400,950 	"/>
	<rect x="407.162" y="957.165" fill="#A97D51" width="35.673" height="35.673"/>
</g>
<g>
	<polygon fill="#764E2A" points="500,1000 492.834,992.838 492.834,957.165 500,950 	"/>
	<polygon fill="#8B5F3D" points="500,1000 450,1000 457.162,992.838 492.834,992.838 	"/>
	<polygon fill="#764E2A" points="450,1000 450,950 457.162,957.165 457.162,992.838 	"/>
	<polygon fill="#8B5F3D" points="492.834,957.165 457.162,957.165 450,950 500,950 	"/>
	<rect x="457.162" y="957.165" fill="#A97D51" width="35.672" height="35.673"/>
</g>
<g>
	<polygon fill="#764E2A" points="550,950 542.835,957.165 507.162,957.165 500,950 	"/>
	<polygon fill="#8B5F3D" points="550,950 550,1000 542.835,992.838 542.835,957.165 	"/>
	<polygon fill="#764E2A" points="550,1000 500,1000 507.162,992.838 542.835,992.838 	"/>
	<polygon fill="#8B5F3D" points="507.162,957.165 507.162,992.838 500,1000 500,950 	"/>
	<rect x="507.162" y="957.165" fill="#A97D51" width="35.673" height="35.673"/>
</g>
<g>
	<polygon fill="#764E2A" points="600,1000 592.835,992.838 592.835,957.165 600,950 	"/>
	<polygon fill="#8B5F3D" points="600,1000 550,1000 557.162,992.838 592.835,992.838 	"/>
	<polygon fill="#764E2A" points="550,1000 550,950 557.162,957.165 557.162,992.838 	"/>
	<polygon fill="#8B5F3D" points="592.835,957.165 557.162,957.165 550,950 600,950 	"/>
	<rect x="557.162" y="957.165" fill="#A97D51" width="35.672" height="35.673"/>
</g>
<g>
	<polygon fill="#764E2A" points="650,950 642.835,957.165 607.162,957.165 600,950 	"/>
	<polygon fill="#8B5F3D" points="650,950 650,1000 642.835,992.838 642.835,957.165 	"/>
	<polygon fill="#764E2A" points="650,1000 600,1000 607.162,992.838 642.835,992.838 	"/>
	<polygon fill="#8B5F3D" points="607.162,957.165 607.162,992.838 600,1000 600,950 	"/>
	<rect x="607.162" y="957.165" fill="#A97D51" width="35.672" height="35.673"/>
</g>
<g>
	<polygon fill="#764E2A" points="700,1000 692.835,992.838 692.835,957.165 700,950 	"/>
	<polygon fill="#8B5F3D" points="700,1000 650,1000 657.162,992.838 692.835,992.838 	"/>
	<polygon fill="#764E2A" points="650,1000 650,950 657.162,957.165 657.162,992.838 	"/>
	<polygon fill="#8B5F3D" points="692.835,957.165 657.162,957.165 650,950 700,950 	"/>
	<rect x="657.162" y="957.165" fill="#A97D51" width="35.672" height="35.673"/>
</g>
<g>
	<polygon fill="#764E2A" points="750,950 742.835,957.165 707.162,957.165 700,950 	"/>
	<polygon fill="#8B5F3D" points="750,950 750,1000 742.835,992.838 742.835,957.165 	"/>
	<polygon fill="#764E2A" points="750,1000 700,1000 707.162,992.838 742.835,992.838 	"/>
	<polygon fill="#8B5F3D" points="707.162,957.165 707.162,992.838 700,1000 700,950 	"/>
	<rect x="707.162" y="957.165" fill="#A97D51" width="35.672" height="35.673"/>
</g>
<g>
	<polygon fill="#764E2A" points="800,1000 792.835,992.838 792.835,957.165 800,950 	"/>
	<polygon fill="#8B5F3D" points="800,1000 750,1000 757.162,992.838 792.835,992.838 	"/>
	<polygon fill="#764E2A" points="750,1000 750,950 757.162,957.165 757.162,992.838 	"/>
	<polygon fill="#8B5F3D" points="792.835,957.165 757.162,957.165 750,950 800,950 	"/>
	<rect x="757.162" y="957.165" fill="#A97D51" width="35.672" height="35.673"/>
</g>
<g>
	<polygon fill="#764E2A" points="850,950 842.835,957.165 807.162,957.165 800,950 	"/>
	<polygon fill="#8B5F3D" points="850,950 850,1000 842.835,992.838 842.835,957.165 	"/>
	<polygon fill="#764E2A" points="850,1000 800,1000 807.162,992.838 842.835,992.838 	"/>
	<polygon fill="#8B5F3D" points="807.162,957.165 807.162,992.838 800,1000 800,950 	"/>
	<rect x="807.162" y="957.165" fill="#A97D51" width="35.672" height="35.673"/>
</g>
<g>
	<polygon fill="#764E2A" points="900,1000 892.835,992.838 892.835,957.165 900,950 	"/>
	<polygon fill="#8B5F3D" points="900,1000 850,1000 857.162,992.838 892.835,992.838 	"/>
	<polygon fill="#764E2A" points="850,1000 850,950 857.162,957.165 857.162,992.838 	"/>
	<polygon fill="#8B5F3D" points="892.835,957.165 857.162,957.165 850,950 900,950 	"/>
	<rect x="857.162" y="957.165" fill="#A97D51" width="35.672" height="35.673"/>
</g>
<g>
	<polygon fill="#764E2A" points="950,950 942.835,957.165 907.162,957.165 900,950 	"/>
	<polygon fill="#8B5F3D" points="950,950 950,1000 942.835,992.838 942.835,957.165 	"/>
	<polygon fill="#764E2A" points="950,1000 900,1000 907.162,992.838 942.835,992.838 	"/>
	<polygon fill="#8B5F3D" points="907.162,957.165 907.162,992.838 900,1000 900,950 	"/>
	<rect x="907.162" y="957.165" fill="#A97D51" width="35.672" height="35.673"/>
</g>
<g>
	<polygon fill="#764E2A" points="1000,1000 992.835,992.838 992.835,957.165 1000,950 	"/>
	<polygon fill="#8B5F3D" points="1000,1000 950,1000 957.162,992.838 992.835,992.838 	"/>
	<polygon fill="#764E2A" points="950,1000 950,950 957.162,957.165 957.162,992.838 	"/>
	<polygon fill="#8B5F3D" points="992.835,957.165 957.162,957.165 950,950 1000,950 	"/>
	<rect x="957.162" y="957.165" fill="#A97D51" width="35.672" height="35.673"/>
</g>
<g>
	<polygon fill="#764E2A" points="1050,950 1042.834,957.165 1007.164,957.165 1000,950 	"/>
	<polygon fill="#8B5F3D" points="1050,950 1050,1000 1042.834,992.838 1042.834,957.165 	"/>
	<polygon fill="#764E2A" points="1050,1000 1000,1000 1007.164,992.838 1042.834,992.838 	"/>
	<polygon fill="#8B5F3D" points="1007.164,957.165 1007.164,992.838 1000,1000 1000,950 	"/>
	<rect x="1007.164" y="957.165" fill="#A97D51" width="35.67" height="35.673"/>
</g>
<g>
	<polygon fill="#764E2A" points="1100,1000 1092.834,992.838 1092.834,957.165 1100,950 	"/>
	<polygon fill="#8B5F3D" points="1100,1000 1050,1000 1057.162,992.838 1092.834,992.838 	"/>
	<polygon fill="#764E2A" points="1050,1000 1050,950 1057.162,957.165 1057.162,992.838 	"/>
	<polygon fill="#8B5F3D" points="1092.834,957.165 1057.162,957.165 1050,950 1100,950 	"/>
	<rect x="1057.162" y="957.165" fill="#A97D51" width="35.672" height="35.673"/>
</g>
<g>
	<polygon fill="#764E2A" points="1150,950 1142.834,957.165 1107.162,957.165 1100,950 	"/>
	<polygon fill="#8B5F3D" points="1150,950 1150,1000 1142.834,992.838 1142.834,957.165 	"/>
	<polygon fill="#764E2A" points="1150,1000 1100,1000 1107.162,992.838 1142.834,992.838 	"/>
	<polygon fill="#8B5F3D" points="1107.162,957.165 1107.162,992.838 1100,1000 1100,950 	"/>
	<rect x="1107.162" y="957.165" fill="#A97D51" width="35.672" height="35.673"/>
</g>
<g>
	<polygon fill="#764E2A" points="1200,1000 1192.834,992.838 1192.834,957.165 1200,950 	"/>
	<polygon fill="#8B5F3D" points="1200,1000 1150,1000 1157.162,992.838 1192.834,992.838 	"/>
	<polygon fill="#764E2A" points="1150,1000 1150,950 1157.162,957.165 1157.162,992.838 	"/>
	<polygon fill="#8B5F3D" points="1192.834,957.165 1157.162,957.165 1150,950 1200,950 	"/>
	<rect x="1157.162" y="957.165" fill="#A97D51" width="35.672" height="35.673"/>
</g>
<g>
	<polygon fill="#764E2A" points="1250,950 1242.834,957.165 1207.162,957.165 1200,950 	"/>
	<polygon fill="#8B5F3D" points="1250,950 1250,1000 1242.834,992.838 1242.834,957.165 	"/>
	<polygon fill="#764E2A" points="1250,1000 1200,1000 1207.162,992.838 1242.834,992.838 	"/>
	<polygon fill="#8B5F3D" points="1207.162,957.165 1207.162,992.838 1200,1000 1200,950 	"/>
	<rect x="1207.162" y="957.165" fill="#A97D51" width="35.672" height="35.673"/>
</g>
<g>
	<polygon fill="#764E2A" points="1892.896,359.882 1880,372.776 1815.795,372.776 1802.896,359.882 	"/>
	<polygon fill="#8B5F3D" points="1892.896,359.882 1892.896,449.882 1880,436.981 1880,372.776 	"/>
	<polygon fill="#764E2A" points="1892.896,449.882 1802.896,449.882 1815.795,436.981 1880,436.981 	"/>
	<polygon fill="#8B5F3D" points="1815.795,372.776 1815.795,436.981 1802.896,449.882 1802.896,359.882 	"/>
	<rect x="1815.795" y="372.776" fill="#A97D51" width="64.205" height="64.205"/>
</g>
<g>
	<polygon fill="#764E2A" points="2072.896,449.882 2085.793,436.981 2149.998,436.981 2162.896,449.882 	"/>
	<polygon fill="#8B5F3D" points="2072.896,449.882 2072.896,359.882 2085.793,372.776 2085.793,436.981 	"/>
	<polygon fill="#764E2A" points="2072.896,359.882 2162.896,359.882 2149.998,372.776 2085.793,372.776 	"/>
	<polygon fill="#8B5F3D" points="2149.998,436.981 2149.998,372.776 2162.896,359.882 2162.896,449.882 	"/>
	<rect x="2085.793" y="372.776" fill="#A97D51" width="64.205" height="64.205"/>
</g>
<g>
	<polygon fill="#764E2A" points="2072.896,449.883 2060,436.982 2060,372.777 2072.896,359.883 	"/>
	<polygon fill="#8B5F3D" points="2072.896,449.883 1982.896,449.883 1995.795,436.982 2060,436.982 	"/>
	<polygon fill="#764E2A" points="1982.896,449.883 1982.896,359.883 1995.795,372.777 1995.795,436.982 	"/>
	<polygon fill="#8B5F3D" points="2060,372.777 1995.795,372.777 1982.896,359.883 2072.896,359.883 	"/>
	<rect x="1995.795" y="372.777" fill="#A97D51" width="64.205" height="64.205"/>
</g>
<g>
	<polygon fill="#764E2A" points="1300,1000 1292.834,992.838 1292.834,957.165 1300,950 	"/>
	<polygon fill="#8B5F3D" points="1300,1000 1250,1000 1257.162,992.838 1292.834,992.838 	"/>
	<polygon fill="#764E2A" points="1250,1000 1250,950 1257.162,957.165 1257.162,992.838 	"/>
	<polygon fill="#8B5F3D" points="1292.834,957.165 1257.162,957.165 1250,950 1300,950 	"/>
	<rect x="1257.162" y="957.165" fill="#A97D51" width="35.672" height="35.673"/>
</g>
<g>
	<polygon fill="#764E2A" points="1350,950 1342.834,957.165 1307.162,957.165 1300,950 	"/>
	<polygon fill="#8B5F3D" points="1350,950 1350,1000 1342.834,992.838 1342.834,957.165 	"/>
	<polygon fill="#764E2A" points="1350,1000 1300,1000 1307.162,992.838 1342.834,992.838 	"/>
	<polygon fill="#8B5F3D" points="1307.162,957.165 1307.162,992.838 1300,1000 1300,950 	"/>
	<rect x="1307.162" y="957.165" fill="#A97D51" width="35.672" height="35.673"/>
</g>
<g>
	<polygon fill="#764E2A" points="1400,1000 1392.834,992.838 1392.834,957.165 1400,950 	"/>
	<polygon fill="#8B5F3D" points="1400,1000 1350,1000 1357.162,992.838 1392.834,992.838 	"/>
	<polygon fill="#764E2A" points="1350,1000 1350,950 1357.162,957.165 1357.162,992.838 	"/>
	<polygon fill="#8B5F3D" points="1392.834,957.165 1357.162,957.165 1350,950 1400,950 	"/>
	<rect x="1357.162" y="957.165" fill="#A97D51" width="35.672" height="35.673"/>
</g>
<g>
	<polygon fill="#764E2A" points="1450,950 1442.834,957.165 1407.162,957.165 1400,950 	"/>
	<polygon fill="#8B5F3D" points="1450,950 1450,1000 1442.834,992.838 1442.834,957.165 	"/>
	<polygon fill="#764E2A" points="1450,1000 1400,1000 1407.162,992.838 1442.834,992.838 	"/>
	<polygon fill="#8B5F3D" points="1407.162,957.165 1407.162,992.838 1400,1000 1400,950 	"/>
	<rect x="1407.162" y="957.165" fill="#A97D51" width="35.672" height="35.673"/>
</g>
<g>
	<polygon fill="#764E2A" points="1500,1000 1492.834,992.838 1492.834,957.165 1500,950 	"/>
	<polygon fill="#8B5F3D" points="1500,1000 1450,1000 1457.162,992.838 1492.834,992.838 	"/>
	<polygon fill="#764E2A" points="1450,1000 1450,950 1457.162,957.165 1457.162,992.838 	"/>
	<polygon fill="#8B5F3D" points="1492.834,957.165 1457.162,957.165 1450,950 1500,950 	"/>
	<rect x="1457.162" y="957.165" fill="#A97D51" width="35.672" height="35.673"/>
</g>
<g>
	<polygon fill="#764E2A" points="1550,950 1542.834,957.165 1507.162,957.165 1500,950 	"/>
	<polygon fill="#8B5F3D" points="1550,950 1550,1000 1542.834,992.838 1542.834,957.165 	"/>
	<polygon fill="#764E2A" points="1550,1000 1500,1000 1507.162,992.838 1542.834,992.838 	"/>
	<polygon fill="#8B5F3D" points="1507.162,957.165 1507.162,992.838 1500,1000 1500,950 	"/>
	<rect x="1507.162" y="957.165" fill="#A97D51" width="35.672" height="35.673"/>
</g>
<g>
	<polygon fill="#764E2A" points="1600,1000 1592.834,992.838 1592.834,957.165 1600,950 	"/>
	<polygon fill="#8B5F3D" points="1600,1000 1550,1000 1557.162,992.838 1592.834,992.838 	"/>
	<polygon fill="#764E2A" points="1550,1000 1550,950 1557.162,957.165 1557.162,992.838 	"/>
	<polygon fill="#8B5F3D" points="1592.834,957.165 1557.162,957.165 1550,950 1600,950 	"/>
	<rect x="1557.162" y="957.165" fill="#A97D51" width="35.672" height="35.673"/>
</g>
<g>
	<polygon fill="#764E2A" points="1650,950 1642.834,957.165 1607.162,957.165 1600,950 	"/>
	<polygon fill="#8B5F3D" points="1650,950 1650,1000 1642.834,992.838 1642.834,957.165 	"/>
	<polygon fill="#764E2A" points="1650,1000 1600,1000 1607.162,992.838 1642.834,992.838 	"/>
	<polygon fill="#8B5F3D" points="1607.162,957.165 1607.162,992.838 1600,1000 1600,950 	"/>
	<rect x="1607.162" y="957.165" fill="#A97D51" width="35.672" height="35.673"/>
</g>
<g>
	<polygon fill="#764E2A" points="1700,1000 1692.834,992.838 1692.834,957.165 1700,950 	"/>
	<polygon fill="#8B5F3D" points="1700,1000 1650,1000 1657.162,992.838 1692.834,992.838 	"/>
	<polygon fill="#764E2A" points="1650,1000 1650,950 1657.162,957.165 1657.162,992.838 	"/>
	<polygon fill="#8B5F3D" points="1692.834,957.165 1657.162,957.165 1650,950 1700,950 	"/>
	<rect x="1657.162" y="957.165" fill="#A97D51" width="35.672" height="35.673"/>
</g>
<g>
	<polygon fill="#764E2A" points="1750,950 1742.834,957.165 1707.162,957.165 1700,950 	"/>
	<polygon fill="#8B5F3D" points="1750,950 1750,1000 1742.834,992.838 1742.834,957.165 	"/>
	<polygon fill="#764E2A" points="1750,1000 1700,1000 1707.162,992.838 1742.834,992.838 	"/>
	<polygon fill="#8B5F3D" points="1707.162,957.165 1707.162,992.838 1700,1000 1700,950 	"/>
	<rect x="1707.162" y="957.165" fill="#A97D51" width="35.672" height="35.673"/>
</g>
<g>
	<polygon fill="#764E2A" points="1800,1000 1792.834,992.838 1792.834,957.165 1800,950 	"/>
	<polygon fill="#8B5F3D" points="1800,1000 1750,1000 1757.162,992.838 1792.834,992.838 	"/>
	<polygon fill="#764E2A" points="1750,1000 1750,950 1757.162,957.165 1757.162,992.838 	"/>
	<polygon fill="#8B5F3D" points="1792.834,957.165 1757.162,957.165 1750,950 1800,950 	"/>
	<rect x="1757.162" y="957.165" fill="#A97D51" width="35.672" height="35.673"/>
</g>
<g>
	<polygon fill="#764E2A" points="1850,950 1842.834,957.165 1807.162,957.165 1800,950 	"/>
	<polygon fill="#8B5F3D" points="1850,950 1850,1000 1842.834,992.838 1842.834,957.165 	"/>
	<polygon fill="#764E2A" points="1850,1000 1800,1000 1807.162,992.838 1842.834,992.838 	"/>
	<polygon fill="#8B5F3D" points="1807.162,957.165 1807.162,992.838 1800,1000 1800,950 	"/>
	<rect x="1807.162" y="957.165" fill="#A97D51" width="35.672" height="35.673"/>
</g>
<g>
	<polygon fill="#764E2A" points="1900,1000 1892.834,992.838 1892.834,957.165 1900,950 	"/>
	<polygon fill="#8B5F3D" points="1900,1000 1850,1000 1857.162,992.838 1892.834,992.838 	"/>
	<polygon fill="#764E2A" points="1850,1000 1850,950 1857.162,957.165 1857.162,992.838 	"/>
	<polygon fill="#8B5F3D" points="1892.834,957.165 1857.162,957.165 1850,950 1900,950 	"/>
	<rect x="1857.162" y="957.165" fill="#A97D51" width="35.672" height="35.673"/>
</g>
<g>
	<polygon fill="#764E2A" points="1950,950 1942.834,957.165 1907.162,957.165 1900,950 	"/>
	<polygon fill="#8B5F3D" points="1950,950 1950,1000 1942.834,992.838 1942.834,957.165 	"/>
	<polygon fill="#764E2A" points="1950,1000 1900,1000 1907.162,992.838 1942.834,992.838 	"/>
	<polygon fill="#8B5F3D" points="1907.162,957.165 1907.162,992.838 1900,1000 1900,950 	"/>
	<rect x="1907.162" y="957.165" fill="#A97D51" width="35.672" height="35.673"/>
</g>
<g>
	<polygon fill="#764E2A" points="2000,1000 1992.834,992.838 1992.834,957.165 2000,950 	"/>
	<polygon fill="#8B5F3D" points="2000,1000 1950,1000 1957.162,992.838 1992.834,992.838 	"/>
	<polygon fill="#764E2A" points="1950,1000 1950,950 1957.162,957.165 1957.162,992.838 	"/>
	<polygon fill="#8B5F3D" points="1992.834,957.165 1957.162,957.165 1950,950 2000,950 	"/>
	<rect x="1957.162" y="957.165" fill="#A97D51" width="35.672" height="35.673"/>
</g>
<g>
	<polygon fill="#764E2A" points="2050,950 2042.834,957.165 2007.162,957.165 2000,950 	"/>
	<polygon fill="#8B5F3D" points="2050,950 2050,1000 2042.834,992.838 2042.834,957.165 	"/>
	<polygon fill="#764E2A" points="2050,1000 2000,1000 2007.162,992.838 2042.834,992.838 	"/>
	<polygon fill="#8B5F3D" points="2007.162,957.165 2007.162,992.838 2000,1000 2000,950 	"/>
	<rect x="2007.162" y="957.165" fill="#A97D51" width="35.672" height="35.673"/>
</g>
<g>
	<polygon fill="#764E2A" points="2100,1000 2092.834,992.838 2092.834,957.165 2100,950 	"/>
	<polygon fill="#8B5F3D" points="2100,1000 2050,1000 2057.164,992.838 2092.834,992.838 	"/>
	<polygon fill="#764E2A" points="2050,1000 2050,950 2057.164,957.165 2057.164,992.838 	"/>
	<polygon fill="#8B5F3D" points="2092.834,957.165 2057.164,957.165 2050,950 2100,950 	"/>
	<rect x="2057.164" y="957.165" fill="#A97D51" width="35.67" height="35.673"/>
</g>
<g>
	<polygon fill="#764E2A" points="2150,950 2142.834,957.165 2107.164,957.165 2100,950 	"/>
	<polygon fill="#8B5F3D" points="2150,950 2150,1000 2142.834,992.838 2142.834,957.165 	"/>
	<polygon fill="#764E2A" points="2150,1000 2100,1000 2107.164,992.838 2142.834,992.838 	"/>
	<polygon fill="#8B5F3D" points="2107.164,957.165 2107.164,992.838 2100,1000 2100,950 	"/>
	<rect x="2107.164" y="957.165" fill="#A97D51" width="35.67" height="35.673"/>
</g>
<g>
	<polygon fill="#764E2A" points="2200,1000 2192.834,992.838 2192.834,957.165 2200,950 	"/>
	<polygon fill="#8B5F3D" points="2200,1000 2150,1000 2157.164,992.838 2192.834,992.838 	"/>
	<polygon fill="#764E2A" points="2150,1000 2150,950 2157.164,957.165 2157.164,992.838 	"/>
	<polygon fill="#8B5F3D" points="2192.834,957.165 2157.164,957.165 2150,950 2200,950 	"/>
	<rect x="2157.164" y="957.165" fill="#A97D51" width="35.67" height="35.673"/>
</g>
<g>
	<polygon fill="#764E2A" points="2250,950 2242.834,957.165 2207.164,957.165 2200,950 	"/>
	<polygon fill="#8B5F3D" points="2250,950 2250,1000 2242.834,992.838 2242.834,957.165 	"/>
	<polygon fill="#764E2A" points="2250,1000 2200,1000 2207.164,992.838 2242.834,992.838 	"/>
	<polygon fill="#8B5F3D" points="2207.164,957.165 2207.164,992.838 2200,1000 2200,950 	"/>
	<rect x="2207.164" y="957.165" fill="#A97D51" width="35.67" height="35.673"/>
</g>
<g>
	<polygon fill="#764E2A" points="2300,1000 2292.834,992.838 2292.834,957.165 2300,950 	"/>
	<polygon fill="#8B5F3D" points="2300,1000 2250,1000 2257.164,992.838 2292.834,992.838 	"/>
	<polygon fill="#764E2A" points="2250,1000 2250,950 2257.164,957.165 2257.164,992.838 	"/>
	<polygon fill="#8B5F3D" points="2292.834,957.165 2257.164,957.165 2250,950 2300,950 	"/>
	<rect x="2257.164" y="957.165" fill="#A97D51" width="35.67" height="35.673"/>
</g>
<g>
	<polygon fill="#764E2A" points="2350,950 2342.834,957.165 2307.164,957.165 2300,950 	"/>
	<polygon fill="#8B5F3D" points="2350,950 2350,1000 2342.834,992.838 2342.834,957.165 	"/>
	<polygon fill="#764E2A" points="2350,1000 2300,1000 2307.164,992.838 2342.834,992.838 	"/>
	<polygon fill="#8B5F3D" points="2307.164,957.165 2307.164,992.838 2300,1000 2300,950 	"/>
	<rect x="2307.164" y="957.165" fill="#A97D51" width="35.67" height="35.673"/>
</g>
<g>
	<polygon fill="#764E2A" points="2400,1000 2392.834,992.838 2392.834,957.165 2400,950 	"/>
	<polygon fill="#8B5F3D" points="2400,1000 2350,1000 2357.164,992.838 2392.834,992.838 	"/>
	<polygon fill="#764E2A" points="2350,1000 2350,950 2357.164,957.165 2357.164,992.838 	"/>
	<polygon fill="#8B5F3D" points="2392.834,957.165 2357.164,957.165 2350,950 2400,950 	"/>
	<rect x="2357.164" y="957.165" fill="#A97D51" width="35.67" height="35.673"/>
</g>
<g>
	<polygon fill="#764E2A" points="2450,950 2442.834,957.165 2407.164,957.165 2400,950 	"/>
	<polygon fill="#8B5F3D" points="2450,950 2450,1000 2442.834,992.838 2442.834,957.165 	"/>
	<polygon fill="#764E2A" points="2450,1000 2400,1000 2407.164,992.838 2442.834,992.838 	"/>
	<polygon fill="#8B5F3D" points="2407.164,957.165 2407.164,992.838 2400,1000 2400,950 	"/>
	<rect x="2407.164" y="957.165" fill="#A97D51" width="35.67" height="35.673"/>
</g>
<g>
	<polygon fill="#764E2A" points="2500,1000 2492.834,992.838 2492.834,957.165 2500,950 	"/>
	<polygon fill="#8B5F3D" points="2500,1000 2450,1000 2457.164,992.838 2492.834,992.838 	"/>
	<polygon fill="#764E2A" points="2450,1000 2450,950 2457.164,957.165 2457.164,992.838 	"/>
	<polygon fill="#8B5F3D" points="2492.834,957.165 2457.164,957.165 2450,950 2500,950 	"/>
	<rect x="2457.164" y="957.165" fill="#A97D51" width="35.67" height="35.673"/>
</g>
<g>
	<polygon fill="#764E2A" points="2550,950 2542.834,957.165 2507.164,957.165 2500,950 	"/>
	<polygon fill="#8B5F3D" points="2550,950 2550,1000 2542.834,992.838 2542.834,957.165 	"/>
	<polygon fill="#764E2A" points="2550,1000 2500,1000 2507.164,992.838 2542.834,992.838 	"/>
	<polygon fill="#8B5F3D" points="2507.164,957.165 2507.164,992.838 2500,1000 2500,950 	"/>
	<rect x="2507.164" y="957.165" fill="#A97D51" width="35.67" height="35.673"/>
</g>
<g>
	<polygon fill="#764E2A" points="2600,1000 2592.834,992.838 2592.834,957.165 2600,950 	"/>
	<polygon fill="#8B5F3D" points="2600,1000 2550,1000 2557.164,992.838 2592.834,992.838 	"/>
	<polygon fill="#764E2A" points="2550,1000 2550,950 2557.164,957.165 2557.164,992.838 	"/>
	<polygon fill="#8B5F3D" points="2592.834,957.165 2557.164,957.165 2550,950 2600,950 	"/>
	<rect x="2557.164" y="957.165" fill="#A97D51" width="35.67" height="35.673"/>
</g>
<g>
	<polygon fill="#764E2A" points="2650,950 2642.834,957.165 2607.164,957.165 2600,950 	"/>
	<polygon fill="#8B5F3D" points="2650,950 2650,1000 2642.834,992.838 2642.834,957.165 	"/>
	<polygon fill="#764E2A" points="2650,1000 2600,1000 2607.164,992.838 2642.834,992.838 	"/>
	<polygon fill="#8B5F3D" points="2607.164,957.165 2607.164,992.838 2600,1000 2600,950 	"/>
	<rect x="2607.164" y="957.165" fill="#A97D51" width="35.67" height="35.673"/>
</g>
<g>
	<polygon fill="#764E2A" points="2700,1000 2692.834,992.838 2692.834,957.165 2700,950 	"/>
	<polygon fill="#8B5F3D" points="2700,1000 2650,1000 2657.164,992.838 2692.834,992.838 	"/>
	<polygon fill="#764E2A" points="2650,1000 2650,950 2657.164,957.165 2657.164,992.838 	"/>
	<polygon fill="#8B5F3D" points="2692.834,957.165 2657.164,957.165 2650,950 2700,950 	"/>
	<rect x="2657.164" y="957.165" fill="#A97D51" width="35.67" height="35.673"/>
</g>
<g>
	<polygon fill="#764E2A" points="2750,950 2742.834,957.165 2707.164,957.165 2700,950 	"/>
	<polygon fill="#8B5F3D" points="2750,950 2750,1000 2742.834,992.838 2742.834,957.165 	"/>
	<polygon fill="#764E2A" points="2750,1000 2700,1000 2707.164,992.838 2742.834,992.838 	"/>
	<polygon fill="#8B5F3D" points="2707.164,957.165 2707.164,992.838 2700,1000 2700,950 	"/>
	<rect x="2707.164" y="957.165" fill="#A97D51" width="35.67" height="35.673"/>
</g>
<g>
	<polygon fill="#764E2A" points="2800,1000 2792.834,992.838 2792.834,957.165 2800,950 	"/>
	<polygon fill="#8B5F3D" points="2800,1000 2750,1000 2757.164,992.838 2792.834,992.838 	"/>
	<polygon fill="#764E2A" points="2750,1000 2750,950 2757.164,957.165 2757.164,992.838 	"/>
	<polygon fill="#8B5F3D" points="2792.834,957.165 2757.164,957.165 2750,950 2800,950 	"/>
	<rect x="2757.164" y="957.165" fill="#A97D51" width="35.67" height="35.673"/>
</g>
<g>
	<polygon fill="#764E2A" points="2850,950 2842.834,957.165 2807.164,957.165 2800,950 	"/>
	<polygon fill="#8B5F3D" points="2850,950 2850,1000 2842.834,992.838 2842.834,957.165 	"/>
	<polygon fill="#764E2A" points="2850,1000 2800,1000 2807.164,992.838 2842.834,992.838 	"/>
	<polygon fill="#8B5F3D" points="2807.164,957.165 2807.164,992.838 2800,1000 2800,950 	"/>
	<rect x="2807.164" y="957.165" fill="#A97D51" width="35.67" height="35.673"/>
</g>
<g>
	<polygon fill="#764E2A" points="2900,1000 2892.834,992.838 2892.834,957.165 2900,950 	"/>
	<polygon fill="#8B5F3D" points="2900,1000 2850,1000 2857.164,992.838 2892.834,992.838 	"/>
	<polygon fill="#764E2A" points="2850,1000 2850,950 2857.164,957.165 2857.164,992.838 	"/>
	<polygon fill="#8B5F3D" points="2892.834,957.165 2857.164,957.165 2850,950 2900,950 	"/>
	<rect x="2857.164" y="957.165" fill="#A97D51" width="35.67" height="35.673"/>
</g>
<g>
	<polygon fill="#764E2A" points="2950,950 2942.834,957.165 2907.164,957.165 2900,950 	"/>
	<polygon fill="#8B5F3D" points="2950,950 2950,1000 2942.834,992.838 2942.834,957.165 	"/>
	<polygon fill="#764E2A" points="2950,1000 2900,1000 2907.164,992.838 2942.834,992.838 	"/>
	<polygon fill="#8B5F3D" points="2907.164,957.165 2907.164,992.838 2900,1000 2900,950 	"/>
	<rect x="2907.164" y="957.165" fill="#A97D51" width="35.67" height="35.673"/>
</g>
<g>
	<polygon fill="#764E2A" points="3000,1000 2992.834,992.838 2992.834,957.165 3000,950 	"/>
	<polygon fill="#8B5F3D" points="3000,1000 2950,1000 2957.164,992.838 2992.834,992.838 	"/>
	<polygon fill="#764E2A" points="2950,1000 2950,950 2957.164,957.165 2957.164,992.838 	"/>
	<polygon fill="#8B5F3D" points="2992.834,957.165 2957.164,957.165 2950,950 3000,950 	"/>
	<rect x="2957.164" y="957.165" fill="#A97D51" width="35.67" height="35.673"/>
</g>
<g>
	<polygon fill="#764E2A" points="3050,950 3042.834,957.165 3007.164,957.165 3000,950 	"/>
	<polygon fill="#8B5F3D" points="3050,950 3050,1000 3042.834,992.838 3042.834,957.165 	"/>
	<polygon fill="#764E2A" points="3050,1000 3000,1000 3007.164,992.838 3042.834,992.838 	"/>
	<polygon fill="#8B5F3D" points="3007.164,957.165 3007.164,992.838 3000,1000 3000,950 	"/>
	<rect x="3007.164" y="957.165" fill="#A97D51" width="35.67" height="35.673"/>
</g>
<g>
	<polygon fill="#764E2A" points="3100,1000 3092.834,992.838 3092.834,957.165 3100,950 	"/>
	<polygon fill="#8B5F3D" points="3100,1000 3050,1000 3057.164,992.838 3092.834,992.838 	"/>
	<polygon fill="#764E2A" points="3050,1000 3050,950 3057.164,957.165 3057.164,992.838 	"/>
	<polygon fill="#8B5F3D" points="3092.834,957.165 3057.164,957.165 3050,950 3100,950 	"/>
	<rect x="3057.164" y="957.165" fill="#A97D51" width="35.67" height="35.673"/>
</g>
<g>
	<polygon fill="#764E2A" points="3150,950 3142.834,957.165 3107.164,957.165 3100,950 	"/>
	<polygon fill="#8B5F3D" points="3150,950 3150,1000 3142.834,992.838 3142.834,957.165 	"/>
	<polygon fill="#764E2A" points="3150,1000 3100,1000 3107.164,992.838 3142.834,992.838 	"/>
	<polygon fill="#8B5F3D" points="3107.164,957.165 3107.164,992.838 3100,1000 3100,950 	"/>
	<rect x="3107.164" y="957.165" fill="#A97D51" width="35.67" height="35.673"/>
</g>
<g>
	<polygon fill="#764E2A" points="3200,1000 3192.834,992.838 3192.834,957.165 3200,950 	"/>
	<polygon fill="#8B5F3D" points="3200,1000 3150,1000 3157.164,992.838 3192.834,992.838 	"/>
	<polygon fill="#764E2A" points="3150,1000 3150,950 3157.164,957.165 3157.164,992.838 	"/>
	<polygon fill="#8B5F3D" points="3192.834,957.165 3157.164,957.165 3150,950 3200,950 	"/>
	<rect x="3157.164" y="957.165" fill="#A97D51" width="35.67" height="35.673"/>
</g>
<g>
	<polygon fill="#764E2A" points="3250,950 3242.834,957.165 3207.164,957.165 3200,950 	"/>
	<polygon fill="#8B5F3D" points="3250,950 3250,1000 3242.834,992.838 3242.834,957.165 	"/>
	<polygon fill="#764E2A" points="3250,1000 3200,1000 3207.164,992.838 3242.834,992.838 	"/>
	<polygon fill="#8B5F3D" points="3207.164,957.165 3207.164,992.838 3200,1000 3200,950 	"/>
	<rect x="3207.164" y="957.165" fill="#A97D51" width="35.67" height="35.673"/>
</g>
<g>
	<polygon fill="#764E2A" points="3300,1000 3292.834,992.838 3292.834,957.165 3300,950 	"/>
	<polygon fill="#8B5F3D" points="3300,1000 3250,1000 3257.164,992.838 3292.834,992.838 	"/>
	<polygon fill="#764E2A" points="3250,1000 3250,950 3257.164,957.165 3257.164,992.838 	"/>
	<polygon fill="#8B5F3D" points="3292.834,957.165 3257.164,957.165 3250,950 3300,950 	"/>
	<rect x="3257.164" y="957.165" fill="#A97D51" width="35.67" height="35.673"/>
</g>
<g>
	<polygon fill="#764E2A" points="3350,950 3342.834,957.165 3307.164,957.165 3300,950 	"/>
	<polygon fill="#8B5F3D" points="3350,950 3350,1000 3342.834,992.838 3342.834,957.165 	"/>
	<polygon fill="#764E2A" points="3350,1000 3300,1000 3307.164,992.838 3342.834,992.838 	"/>
	<polygon fill="#8B5F3D" points="3307.164,957.165 3307.164,992.838 3300,1000 3300,950 	"/>
	<rect x="3307.164" y="957.165" fill="#A97D51" width="35.67" height="35.673"/>
</g>
<g>
	<polygon fill="#764E2A" points="3400,1000 3392.834,992.838 3392.834,957.165 3400,950 	"/>
	<polygon fill="#8B5F3D" points="3400,1000 3350,1000 3357.164,992.838 3392.834,992.838 	"/>
	<polygon fill="#764E2A" points="3350,1000 3350,950 3357.164,957.165 3357.164,992.838 	"/>
	<polygon fill="#8B5F3D" points="3392.834,957.165 3357.164,957.165 3350,950 3400,950 	"/>
	<rect x="3357.164" y="957.165" fill="#A97D51" width="35.67" height="35.673"/>
</g>
<g>
	<polygon fill="#764E2A" points="3450,950 3442.834,957.165 3407.164,957.165 3400,950 	"/>
	<polygon fill="#8B5F3D" points="3450,950 3450,1000 3442.834,992.838 3442.834,957.165 	"/>
	<polygon fill="#764E2A" points="3450,1000 3400,1000 3407.164,992.838 3442.834,992.838 	"/>
	<polygon fill="#8B5F3D" points="3407.164,957.165 3407.164,992.838 3400,1000 3400,950 	"/>
	<rect x="3407.164" y="957.165" fill="#A97D51" width="35.67" height="35.673"/>
</g>
<g>
	<polygon fill="#764E2A" points="3500,1000 3492.834,992.838 3492.834,957.165 3500,950 	"/>
	<polygon fill="#8B5F3D" points="3500,1000 3450,1000 3457.164,992.838 3492.834,992.838 	"/>
	<polygon fill="#764E2A" points="3450,1000 3450,950 3457.164,957.165 3457.164,992.838 	"/>
	<polygon fill="#8B5F3D" points="3492.834,957.165 3457.164,957.165 3450,950 3500,950 	"/>
	<rect x="3457.164" y="957.165" fill="#A97D51" width="35.67" height="35.673"/>
</g>
<g>
	<polygon fill="#764E2A" points="3550,950 3542.834,957.165 3507.164,957.165 3500,950 	"/>
	<polygon fill="#8B5F3D" points="3550,950 3550,1000 3542.834,992.838 3542.834,957.165 	"/>
	<polygon fill="#764E2A" points="3550,1000 3500,1000 3507.164,992.838 3542.834,992.838 	"/>
	<polygon fill="#8B5F3D" points="3507.164,957.165 3507.164,992.838 3500,1000 3500,950 	"/>
	<rect x="3507.164" y="957.165" fill="#A97D51" width="35.67" height="35.673"/>
</g>
<g>
	<polygon fill="#764E2A" points="3600,1000 3592.834,992.838 3592.834,957.165 3600,950 	"/>
	<polygon fill="#8B5F3D" points="3600,1000 3550,1000 3557.164,992.838 3592.834,992.838 	"/>
	<polygon fill="#764E2A" points="3550,1000 3550,950 3557.164,957.165 3557.164,992.838 	"/>
	<polygon fill="#8B5F3D" points="3592.834,957.165 3557.164,957.165 3550,950 3600,950 	"/>
	<rect x="3557.164" y="957.165" fill="#A97D51" width="35.67" height="35.673"/>
</g>
<g>
	<polygon fill="#764E2A" points="3650,950 3642.834,957.165 3607.164,957.165 3600,950 	"/>
	<polygon fill="#8B5F3D" points="3650,950 3650,1000 3642.834,992.838 3642.834,957.165 	"/>
	<polygon fill="#764E2A" points="3650,1000 3600,1000 3607.164,992.838 3642.834,992.838 	"/>
	<polygon fill="#8B5F3D" points="3607.164,957.165 3607.164,992.838 3600,1000 3600,950 	"/>
	<rect x="3607.164" y="957.165" fill="#A97D51" width="35.67" height="35.673"/>
</g>
<g>
	<polygon fill="#764E2A" points="3700,1000 3692.834,992.838 3692.834,957.165 3700,950 	"/>
	<polygon fill="#8B5F3D" points="3700,1000 3650,1000 3657.164,992.838 3692.834,992.838 	"/>
	<polygon fill="#764E2A" points="3650,1000 3650,950 3657.164,957.165 3657.164,992.838 	"/>
	<polygon fill="#8B5F3D" points="3692.834,957.165 3657.164,957.165 3650,950 3700,950 	"/>
	<rect x="3657.164" y="957.165" fill="#A97D51" width="35.67" height="35.673"/>
</g>
<g>
	<polygon fill="#764E2A" points="3750,950 3742.834,957.165 3707.164,957.165 3700,950 	"/>
	<polygon fill="#8B5F3D" points="3750,950 3750,1000 3742.834,992.838 3742.834,957.165 	"/>
	<polygon fill="#764E2A" points="3750,1000 3700,1000 3707.164,992.838 3742.834,992.838 	"/>
	<polygon fill="#8B5F3D" points="3707.164,957.165 3707.164,992.838 3700,1000 3700,950 	"/>
	<rect x="3707.164" y="957.165" fill="#A97D51" width="35.67" height="35.673"/>
</g>
<g>
	<polygon fill="#764E2A" points="3800,1000 3792.834,992.838 3792.834,957.165 3800,950 	"/>
	<polygon fill="#8B5F3D" points="3800,1000 3750,1000 3757.164,992.838 3792.834,992.838 	"/>
	<polygon fill="#764E2A" points="3750,1000 3750,950 3757.164,957.165 3757.164,992.838 	"/>
	<polygon fill="#8B5F3D" points="3792.834,957.165 3757.164,957.165 3750,950 3800,950 	"/>
	<rect x="3757.164" y="957.165" fill="#A97D51" width="35.67" height="35.673"/>
</g>
<g>
	<polygon fill="#764E2A" points="3850,950 3842.834,957.165 3807.164,957.165 3800,950 	"/>
	<polygon fill="#8B5F3D" points="3850,950 3850,1000 3842.834,992.838 3842.834,957.165 	"/>
	<polygon fill="#764E2A" points="3850,1000 3800,1000 3807.164,992.838 3842.834,992.838 	"/>
	<polygon fill="#8B5F3D" points="3807.164,957.165 3807.164,992.838 3800,1000 3800,950 	"/>
	<rect x="3807.164" y="957.165" fill="#A97D51" width="35.67" height="35.673"/>
</g>
<g>
	<polygon fill="#764E2A" points="3900,1000 3892.834,992.838 3892.834,957.165 3900,950 	"/>
	<polygon fill="#8B5F3D" points="3900,1000 3850,1000 3857.164,992.838 3892.834,992.838 	"/>
	<polygon fill="#764E2A" points="3850,1000 3850,950 3857.164,957.165 3857.164,992.838 	"/>
	<polygon fill="#8B5F3D" points="3892.834,957.165 3857.164,957.165 3850,950 3900,950 	"/>
	<rect x="3857.164" y="957.165" fill="#A97D51" width="35.67" height="35.673"/>
</g>
<g>
	<polygon fill="#764E2A" points="3950,950 3942.834,957.165 3907.164,957.165 3900,950 	"/>
	<polygon fill="#8B5F3D" points="3950,950 3950,1000 3942.834,992.838 3942.834,957.165 	"/>
	<polygon fill="#764E2A" points="3950,1000 3900,1000 3907.164,992.838 3942.834,992.838 	"/>
	<polygon fill="#8B5F3D" points="3907.164,957.165 3907.164,992.838 3900,1000 3900,950 	"/>
	<rect x="3907.164" y="957.165" fill="#A97D51" width="35.67" height="35.673"/>
</g>
<g>
	<polygon fill="#764E2A" points="4000,1000 3992.834,992.838 3992.834,957.165 4000,950 	"/>
	<polygon fill="#8B5F3D" points="4000,1000 3950,1000 3957.164,992.838 3992.834,992.838 	"/>
	<polygon fill="#764E2A" points="3950,1000 3950,950 3957.164,957.165 3957.164,992.838 	"/>
	<polygon fill="#8B5F3D" points="3992.834,957.165 3957.164,957.165 3950,950 4000,950 	"/>
	<rect x="3957.164" y="957.165" fill="#A97D51" width="35.67" height="35.673"/>
</g>
<g>
	<polygon fill="#764E2A" points="4050,950 4042.834,957.165 4007.164,957.165 4000,950 	"/>
	<polygon fill="#8B5F3D" points="4050,950 4050,1000 4042.834,992.838 4042.834,957.165 	"/>
	<polygon fill="#764E2A" points="4050,1000 4000,1000 4007.164,992.838 4042.834,992.838 	"/>
	<polygon fill="#8B5F3D" points="4007.164,957.165 4007.164,992.838 4000,1000 4000,950 	"/>
	<rect x="4007.164" y="957.165" fill="#A97D51" width="35.67" height="35.673"/>
</g>
<g>
	<polygon fill="#764E2A" points="4100,1000 4092.834,992.838 4092.834,957.165 4100,950 	"/>
	<polygon fill="#8B5F3D" points="4100,1000 4050,1000 4057.164,992.838 4092.834,992.838 	"/>
	<polygon fill="#764E2A" points="4050,1000 4050,950 4057.164,957.165 4057.164,992.838 	"/>
	<polygon fill="#8B5F3D" points="4092.834,957.165 4057.164,957.165 4050,950 4100,950 	"/>
	<rect x="4057.164" y="957.165" fill="#A97D51" width="35.67" height="35.673"/>
</g>
<g>
	<polygon fill="#764E2A" points="4150,950 4142.834,957.165 4107.164,957.165 4100,950 	"/>
	<polygon fill="#8B5F3D" points="4150,950 4150,1000 4142.834,992.838 4142.834,957.165 	"/>
	<polygon fill="#764E2A" points="4150,1000 4100,1000 4107.164,992.838 4142.834,992.838 	"/>
	<polygon fill="#8B5F3D" points="4107.164,957.165 4107.164,992.838 4100,1000 4100,950 	"/>
	<rect x="4107.164" y="957.165" fill="#A97D51" width="35.67" height="35.673"/>
</g>
<g>
	<polygon fill="#764E2A" points="4200,1000 4192.834,992.838 4192.834,957.165 4200,950 	"/>
	<polygon fill="#8B5F3D" points="4200,1000 4150,1000 4157.164,992.838 4192.834,992.838 	"/>
	<polygon fill="#764E2A" points="4150,1000 4150,950 4157.164,957.165 4157.164,992.838 	"/>
	<polygon fill="#8B5F3D" points="4192.834,957.165 4157.164,957.165 4150,950 4200,950 	"/>
	<rect x="4157.164" y="957.165" fill="#A97D51" width="35.67" height="35.673"/>
</g>
<g>
	<polygon fill="#764E2A" points="4250,950 4242.834,957.165 4207.164,957.165 4200,950 	"/>
	<polygon fill="#8B5F3D" points="4250,950 4250,1000 4242.834,992.838 4242.834,957.165 	"/>
	<polygon fill="#764E2A" points="4250,1000 4200,1000 4207.164,992.838 4242.834,992.838 	"/>
	<polygon fill="#8B5F3D" points="4207.164,957.165 4207.164,992.838 4200,1000 4200,950 	"/>
	<rect x="4207.164" y="957.165" fill="#A97D51" width="35.67" height="35.673"/>
</g>
<g>
	<polygon fill="#764E2A" points="4300,1000 4292.834,992.838 4292.834,957.165 4300,950 	"/>
	<polygon fill="#8B5F3D" points="4300,1000 4250,1000 4257.164,992.838 4292.834,992.838 	"/>
	<polygon fill="#764E2A" points="4250,1000 4250,950 4257.164,957.165 4257.164,992.838 	"/>
	<polygon fill="#8B5F3D" points="4292.834,957.165 4257.164,957.165 4250,950 4300,950 	"/>
	<rect x="4257.164" y="957.165" fill="#A97D51" width="35.67" height="35.673"/>
</g>
<g>
	<polygon fill="#764E2A" points="4350,950 4342.834,957.165 4307.164,957.165 4300,950 	"/>
	<polygon fill="#8B5F3D" points="4350,950 4350,1000 4342.834,992.838 4342.834,957.165 	"/>
	<polygon fill="#764E2A" points="4350,1000 4300,1000 4307.164,992.838 4342.834,992.838 	"/>
	<polygon fill="#8B5F3D" points="4307.164,957.165 4307.164,992.838 4300,1000 4300,950 	"/>
	<rect x="4307.164" y="957.165" fill="#A97D51" width="35.67" height="35.673"/>
</g>
<g>
	<polygon fill="#764E2A" points="4400,1000 4392.834,992.838 4392.834,957.165 4400,950 	"/>
	<polygon fill="#8B5F3D" points="4400,1000 4350,1000 4357.164,992.838 4392.834,992.838 	"/>
	<polygon fill="#764E2A" points="4350,1000 4350,950 4357.164,957.165 4357.164,992.838 	"/>
	<polygon fill="#8B5F3D" points="4392.834,957.165 4357.164,957.165 4350,950 4400,950 	"/>
	<rect x="4357.164" y="957.165" fill="#A97D51" width="35.67" height="35.673"/>
</g>
<g>
	<polygon fill="#764E2A" points="4450,950 4442.834,957.165 4407.164,957.165 4400,950 	"/>
	<polygon fill="#8B5F3D" points="4450,950 4450,1000 4442.834,992.838 4442.834,957.165 	"/>
	<polygon fill="#764E2A" points="4450,1000 4400,1000 4407.164,992.838 4442.834,992.838 	"/>
	<polygon fill="#8B5F3D" points="4407.164,957.165 4407.164,992.838 4400,1000 4400,950 	"/>
	<rect x="4407.164" y="957.165" fill="#A97D51" width="35.67" height="35.673"/>
</g>
<g>
	<polygon fill="#764E2A" points="4500,1000 4492.834,992.838 4492.834,957.165 4500,950 	"/>
	<polygon fill="#8B5F3D" points="4500,1000 4450,1000 4457.164,992.838 4492.834,992.838 	"/>
	<polygon fill="#764E2A" points="4450,1000 4450,950 4457.164,957.165 4457.164,992.838 	"/>
	<polygon fill="#8B5F3D" points="4492.834,957.165 4457.164,957.165 4450,950 4500,950 	"/>
	<rect x="4457.164" y="957.165" fill="#A97D51" width="35.67" height="35.673"/>
</g>
<g>
	<polygon fill="#764E2A" points="4550,950 4542.834,957.165 4507.164,957.165 4500,950 	"/>
	<polygon fill="#8B5F3D" points="4550,950 4550,1000 4542.834,992.838 4542.834,957.165 	"/>
	<polygon fill="#764E2A" points="4550,1000 4500,1000 4507.164,992.838 4542.834,992.838 	"/>
	<polygon fill="#8B5F3D" points="4507.164,957.165 4507.164,992.838 4500,1000 4500,950 	"/>
	<rect x="4507.164" y="957.165" fill="#A97D51" width="35.67" height="35.673"/>
</g>
<g>
	<polygon fill="#764E2A" points="4600,1000 4592.834,992.838 4592.834,957.165 4600,950 	"/>
	<polygon fill="#8B5F3D" points="4600,1000 4550,1000 4557.164,992.838 4592.834,992.838 	"/>
	<polygon fill="#764E2A" points="4550,1000 4550,950 4557.164,957.165 4557.164,992.838 	"/>
	<polygon fill="#8B5F3D" points="4592.834,957.165 4557.164,957.165 4550,950 4600,950 	"/>
	<rect x="4557.164" y="957.165" fill="#A97D51" width="35.67" height="35.673"/>
</g>
<g>
	<polygon fill="#764E2A" points="4650,950 4642.834,957.165 4607.164,957.165 4600,950 	"/>
	<polygon fill="#8B5F3D" points="4650,950 4650,1000 4642.834,992.838 4642.834,957.165 	"/>
	<polygon fill="#764E2A" points="4650,1000 4600,1000 4607.164,992.838 4642.834,992.838 	"/>
	<polygon fill="#8B5F3D" points="4607.164,957.165 4607.164,992.838 4600,1000 4600,950 	"/>
	<rect x="4607.164" y="957.165" fill="#A97D51" width="35.67" height="35.673"/>
</g>
<g>
	<polygon fill="#764E2A" points="4700,1000 4692.834,992.838 4692.834,957.165 4700,950 	"/>
	<polygon fill="#8B5F3D" points="4700,1000 4650,1000 4657.164,992.838 4692.834,992.838 	"/>
	<polygon fill="#764E2A" points="4650,1000 4650,950 4657.164,957.165 4657.164,992.838 	"/>
	<polygon fill="#8B5F3D" points="4692.834,957.165 4657.164,957.165 4650,950 4700,950 	"/>
	<rect x="4657.164" y="957.165" fill="#A97D51" width="35.67" height="35.673"/>
</g>
<g>
	<polygon fill="#764E2A" points="4750,950 4742.834,957.165 4707.164,957.165 4700,950 	"/>
	<polygon fill="#8B5F3D" points="4750,950 4750,1000 4742.834,992.838 4742.834,957.165 	"/>
	<polygon fill="#764E2A" points="4750,1000 4700,1000 4707.164,992.838 4742.834,992.838 	"/>
	<polygon fill="#8B5F3D" points="4707.164,957.165 4707.164,992.838 4700,1000 4700,950 	"/>
	<rect x="4707.164" y="957.165" fill="#A97D51" width="35.67" height="35.673"/>
</g>
<g>
	<polygon fill="#764E2A" points="4800,1000 4792.834,992.838 4792.834,957.165 4800,950 	"/>
	<polygon fill="#8B5F3D" points="4800,1000 4750,1000 4757.164,992.838 4792.834,992.838 	"/>
	<polygon fill="#764E2A" points="4750,1000 4750,950 4757.164,957.165 4757.164,992.838 	"/>
	<polygon fill="#8B5F3D" points="4792.834,957.165 4757.164,957.165 4750,950 4800,950 	"/>
	<rect x="4757.164" y="957.165" fill="#A97D51" width="35.67" height="35.673"/>
</g>
<g>
	<polygon fill="#764E2A" points="4850,950 4842.834,957.165 4807.164,957.165 4800,950 	"/>
	<polygon fill="#8B5F3D" points="4850,950 4850,1000 4842.834,992.838 4842.834,957.165 	"/>
	<polygon fill="#764E2A" points="4850,1000 4800,1000 4807.164,992.838 4842.834,992.838 	"/>
	<polygon fill="#8B5F3D" points="4807.164,957.165 4807.164,992.838 4800,1000 4800,950 	"/>
	<rect x="4807.164" y="957.165" fill="#A97D51" width="35.67" height="35.673"/>
</g>
<g>
	<polygon fill="#764E2A" points="4900,1000 4892.834,992.838 4892.834,957.165 4900,950 	"/>
	<polygon fill="#8B5F3D" points="4900,1000 4850,1000 4857.164,992.838 4892.834,992.838 	"/>
	<polygon fill="#764E2A" points="4850,1000 4850,950 4857.164,957.165 4857.164,992.838 	"/>
	<polygon fill="#8B5F3D" points="4892.834,957.165 4857.164,957.165 4850,950 4900,950 	"/>
	<rect x="4857.164" y="957.165" fill="#A97D51" width="35.67" height="35.673"/>
</g>
<g>
	<polygon fill="#764E2A" points="4950,950 4942.834,957.165 4907.164,957.165 4900,950 	"/>
	<polygon fill="#8B5F3D" points="4950,950 4950,1000 4942.834,992.838 4942.834,957.165 	"/>
	<polygon fill="#764E2A" points="4950,1000 4900,1000 4907.164,992.838 4942.834,992.838 	"/>
	<polygon fill="#8B5F3D" points="4907.164,957.165 4907.164,992.838 4900,1000 4900,950 	"/>
	<rect x="4907.164" y="957.165" fill="#A97D51" width="35.67" height="35.673"/>
</g>
<g>
	<polygon fill="#764E2A" points="5000,1000 4992.834,992.838 4992.834,957.165 5000,950 	"/>
	<polygon fill="#8B5F3D" points="5000,1000 4950,1000 4957.164,992.838 4992.834,992.838 	"/>
	<polygon fill="#764E2A" points="4950,1000 4950,950 4957.164,957.165 4957.164,992.838 	"/>
	<polygon fill="#8B5F3D" points="4992.834,957.165 4957.164,957.165 4950,950 5000,950 	"/>
	<rect x="4957.164" y="957.165" fill="#A97D51" width="35.67" height="35.673"/>
</g>
<g>
	<polygon fill="#764E2A" points="5050,950 5042.834,957.165 5007.164,957.165 5000,950 	"/>
	<polygon fill="#8B5F3D" points="5050,950 5050,1000 5042.834,992.838 5042.834,957.165 	"/>
	<polygon fill="#764E2A" points="5050,1000 5000,1000 5007.164,992.838 5042.834,992.838 	"/>
	<polygon fill="#8B5F3D" points="5007.164,957.165 5007.164,992.838 5000,1000 5000,950 	"/>
	<rect x="5007.164" y="957.165" fill="#A97D51" width="35.67" height="35.673"/>
</g>
<g>
	<polygon fill="#764E2A" points="5100,1000 5092.834,992.838 5092.834,957.165 5100,950 	"/>
	<polygon fill="#8B5F3D" points="5100,1000 5050,1000 5057.164,992.838 5092.834,992.838 	"/>
	<polygon fill="#764E2A" points="5050,1000 5050,950 5057.164,957.165 5057.164,992.838 	"/>
	<polygon fill="#8B5F3D" points="5092.834,957.165 5057.164,957.165 5050,950 5100,950 	"/>
	<rect x="5057.164" y="957.165" fill="#A97D51" width="35.67" height="35.673"/>
</g>
<g>
	<polygon fill="#764E2A" points="5150,950 5142.834,957.165 5107.164,957.165 5100,950 	"/>
	<polygon fill="#8B5F3D" points="5150,950 5150,1000 5142.834,992.838 5142.834,957.165 	"/>
	<polygon fill="#764E2A" points="5150,1000 5100,1000 5107.164,992.838 5142.834,992.838 	"/>
	<polygon fill="#8B5F3D" points="5107.164,957.165 5107.164,992.838 5100,1000 5100,950 	"/>
	<rect x="5107.164" y="957.165" fill="#A97D51" width="35.67" height="35.673"/>
</g>
<g>
	<polygon fill="#764E2A" points="5200,1000 5192.834,992.838 5192.834,957.165 5200,950 	"/>
	<polygon fill="#8B5F3D" points="5200,1000 5150,1000 5157.164,992.838 5192.834,992.838 	"/>
	<polygon fill="#764E2A" points="5150,1000 5150,950 5157.164,957.165 5157.164,992.838 	"/>
	<polygon fill="#8B5F3D" points="5192.834,957.165 5157.164,957.165 5150,950 5200,950 	"/>
	<rect x="5157.164" y="957.165" fill="#A97D51" width="35.67" height="35.673"/>
</g>
<g>
	<polygon fill="#764E2A" points="5250,950 5242.834,957.165 5207.164,957.165 5200,950 	"/>
	<polygon fill="#8B5F3D" points="5250,950 5250,1000 5242.834,992.838 5242.834,957.165 	"/>
	<polygon fill="#764E2A" points="5250,1000 5200,1000 5207.164,992.838 5242.834,992.838 	"/>
	<polygon fill="#8B5F3D" points="5207.164,957.165 5207.164,992.838 5200,1000 5200,950 	"/>
	<rect x="5207.164" y="957.165" fill="#A97D51" width="35.67" height="35.673"/>
</g>
<g>
	<polygon fill="#764E2A" points="5300,1000 5292.834,992.838 5292.834,957.165 5300,950 	"/>
	<polygon fill="#8B5F3D" points="5300,1000 5250,1000 5257.164,992.838 5292.834,992.838 	"/>
	<polygon fill="#764E2A" points="5250,1000 5250,950 5257.164,957.165 5257.164,992.838 	"/>
	<polygon fill="#8B5F3D" points="5292.834,957.165 5257.164,957.165 5250,950 5300,950 	"/>
	<rect x="5257.164" y="957.165" fill="#A97D51" width="35.67" height="35.673"/>
</g>
<g>
	<polygon fill="#764E2A" points="5350,950 5342.834,957.165 5307.164,957.165 5300,950 	"/>
	<polygon fill="#8B5F3D" points="5350,950 5350,1000 5342.834,992.838 5342.834,957.165 	"/>
	<polygon fill="#764E2A" points="5350,1000 5300,1000 5307.164,992.838 5342.834,992.838 	"/>
	<polygon fill="#8B5F3D" points="5307.164,957.165 5307.164,992.838 5300,1000 5300,950 	"/>
	<rect x="5307.164" y="957.165" fill="#A97D51" width="35.67" height="35.673"/>
</g>
<g>
	<polygon fill="#764E2A" points="5400,1000 5392.834,992.838 5392.834,957.165 5400,950 	"/>
	<polygon fill="#8B5F3D" points="5400,1000 5350,1000 5357.164,992.838 5392.834,992.838 	"/>
	<polygon fill="#764E2A" points="5350,1000 5350,950 5357.164,957.165 5357.164,992.838 	"/>
	<polygon fill="#8B5F3D" points="5392.834,957.165 5357.164,957.165 5350,950 5400,950 	"/>
	<rect x="5357.164" y="957.165" fill="#A97D51" width="35.67" height="35.673"/>
</g>
<g>
	<polygon fill="#764E2A" points="5450,950 5442.834,957.165 5407.164,957.165 5400,950 	"/>
	<polygon fill="#8B5F3D" points="5450,950 5450,1000 5442.834,992.838 5442.834,957.165 	"/>
	<polygon fill="#764E2A" points="5450,1000 5400,1000 5407.164,992.838 5442.834,992.838 	"/>
	<polygon fill="#8B5F3D" points="5407.164,957.165 5407.164,992.838 5400,1000 5400,950 	"/>
	<rect x="5407.164" y="957.165" fill="#A97D51" width="35.67" height="35.673"/>
</g>
<g>
	<polygon fill="#764E2A" points="5500,1000 5492.834,992.838 5492.834,957.165 5500,950 	"/>
	<polygon fill="#8B5F3D" points="5500,1000 5450,1000 5457.164,992.838 5492.834,992.838 	"/>
	<polygon fill="#764E2A" points="5450,1000 5450,950 5457.164,957.165 5457.164,992.838 	"/>
	<polygon fill="#8B5F3D" points="5492.834,957.165 5457.164,957.165 5450,950 5500,950 	"/>
	<rect x="5457.164" y="957.165" fill="#A97D51" width="35.67" height="35.673"/>
</g>
<g>
	<polygon fill="#764E2A" points="5550,950 5542.834,957.165 5507.164,957.165 5500,950 	"/>
	<polygon fill="#8B5F3D" points="5550,950 5550,1000 5542.834,992.838 5542.834,957.165 	"/>
	<polygon fill="#764E2A" points="5550,1000 5500,1000 5507.164,992.838 5542.834,992.838 	"/>
	<polygon fill="#8B5F3D" points="5507.164,957.165 5507.164,992.838 5500,1000 5500,950 	"/>
	<rect x="5507.164" y="957.165" fill="#A97D51" width="35.67" height="35.673"/>
</g>
<g>
	<polygon fill="#764E2A" points="5600,1000 5592.834,992.838 5592.834,957.165 5600,950 	"/>
	<polygon fill="#8B5F3D" points="5600,1000 5550,1000 5557.164,992.838 5592.834,992.838 	"/>
	<polygon fill="#764E2A" points="5550,1000 5550,950 5557.164,957.165 5557.164,992.838 	"/>
	<polygon fill="#8B5F3D" points="5592.834,957.165 5557.164,957.165 5550,950 5600,950 	"/>
	<rect x="5557.164" y="957.165" fill="#A97D51" width="35.67" height="35.673"/>
</g>
<g>
	<polygon fill="#764E2A" points="5650,950 5642.834,957.165 5607.164,957.165 5600,950 	"/>
	<polygon fill="#8B5F3D" points="5650,950 5650,1000 5642.834,992.838 5642.834,957.165 	"/>
	<polygon fill="#764E2A" points="5650,1000 5600,1000 5607.164,992.838 5642.834,992.838 	"/>
	<polygon fill="#8B5F3D" points="5607.164,957.165 5607.164,992.838 5600,1000 5600,950 	"/>
	<rect x="5607.164" y="957.165" fill="#A97D51" width="35.67" height="35.673"/>
</g>
<g>
	<polygon fill="#764E2A" points="5700,1000 5692.834,992.838 5692.834,957.165 5700,950 	"/>
	<polygon fill="#8B5F3D" points="5700,1000 5650,1000 5657.164,992.838 5692.834,992.838 	"/>
	<polygon fill="#764E2A" points="5650,1000 5650,950 5657.164,957.165 5657.164,992.838 	"/>
	<polygon fill="#8B5F3D" points="5692.834,957.165 5657.164,957.165 5650,950 5700,950 	"/>
	<rect x="5657.164" y="957.165" fill="#A97D51" width="35.67" height="35.673"/>
</g>
<g>
	<polygon fill="#764E2A" points="5750,950 5742.834,957.165 5707.164,957.165 5700,950 	"/>
	<polygon fill="#8B5F3D" points="5750,950 5750,1000 5742.834,992.838 5742.834,957.165 	"/>
	<polygon fill="#764E2A" points="5750,1000 5700,1000 5707.164,992.838 5742.834,992.838 	"/>
	<polygon fill="#8B5F3D" points="5707.164,957.165 5707.164,992.838 5700,1000 5700,950 	"/>
	<rect x="5707.164" y="957.165" fill="#A97D51" width="35.67" height="35.673"/>
</g>
<g>
	<polygon fill="#764E2A" points="5800,1000 5792.834,992.838 5792.834,957.165 5800,950 	"/>
	<polygon fill="#8B5F3D" points="5800,1000 5750,1000 5757.164,992.838 5792.834,992.838 	"/>
	<polygon fill="#764E2A" points="5750,1000 5750,950 5757.164,957.165 5757.164,992.838 	"/>
	<polygon fill="#8B5F3D" points="5792.834,957.165 5757.164,957.165 5750,950 5800,950 	"/>
	<rect x="5757.164" y="957.165" fill="#A97D51" width="35.67" height="35.673"/>
</g>
<g>
	<polygon fill="#764E2A" points="5850,950 5842.834,957.165 5807.164,957.165 5800,950 	"/>
	<polygon fill="#8B5F3D" points="5850,950 5850,1000 5842.834,992.838 5842.834,957.165 	"/>
	<polygon fill="#764E2A" points="5850,1000 5800,1000 5807.164,992.838 5842.834,992.838 	"/>
	<polygon fill="#8B5F3D" points="5807.164,957.165 5807.164,992.838 5800,1000 5800,950 	"/>
	<rect x="5807.164" y="957.165" fill="#A97D51" width="35.67" height="35.673"/>
</g>
<g>
	<polygon fill="#764E2A" points="5900,1000 5892.834,992.838 5892.834,957.165 5900,950 	"/>
	<polygon fill="#8B5F3D" points="5900,1000 5850,1000 5857.164,992.838 5892.834,992.838 	"/>
	<polygon fill="#764E2A" points="5850,1000 5850,950 5857.164,957.165 5857.164,992.838 	"/>
	<polygon fill="#8B5F3D" points="5892.834,957.165 5857.164,957.165 5850,950 5900,950 	"/>
	<rect x="5857.164" y="957.165" fill="#A97D51" width="35.67" height="35.673"/>
</g>
<g>
	<polygon fill="#764E2A" points="5950,950 5942.834,957.165 5907.164,957.165 5900,950 	"/>
	<polygon fill="#8B5F3D" points="5950,950 5950,1000 5942.834,992.838 5942.834,957.165 	"/>
	<polygon fill="#764E2A" points="5950,1000 5900,1000 5907.164,992.838 5942.834,992.838 	"/>
	<polygon fill="#8B5F3D" points="5907.164,957.165 5907.164,992.838 5900,1000 5900,950 	"/>
	<rect x="5907.164" y="957.165" fill="#A97D51" width="35.67" height="35.673"/>
</g>
<g>
	<polygon fill="#764E2A" points="6000,1000 5992.834,992.838 5992.834,957.165 6000,950 	"/>
	<polygon fill="#8B5F3D" points="6000,1000 5950,1000 5957.164,992.838 5992.834,992.838 	"/>
	<polygon fill="#764E2A" points="5950,1000 5950,950 5957.164,957.165 5957.164,992.838 	"/>
	<polygon fill="#8B5F3D" points="5992.834,957.165 5957.164,957.165 5950,950 6000,950 	"/>
	<rect x="5957.164" y="957.165" fill="#A97D51" width="35.67" height="35.673"/>
</g>
<path fill="#08A650" d="M764.121,800H254.086C415.973,622.231,457.97,578.305,507.937,577.009c0.378-0.016,0.757-0.024,1.135-0.024
	h0.065c0.378,0,0.756,0.012,1.135,0.024C560.238,578.305,602.235,622.231,764.121,800z"/>
<path fill="#08A650" d="M2858.854,800h-432.041c137.131-150.584,172.706-187.794,215.032-188.894
	c0.319-0.011,0.641-0.021,0.961-0.021h0.056c0.32,0,0.643,0.01,0.961,0.021C2686.149,612.206,2721.725,649.416,2858.854,800z"/>
<path fill="#764E2A" d="M400,611.08v0.03c-0.29-0.011-0.58-0.021-0.87-0.021C399.42,611.08,399.71,611.08,400,611.08z"/>
<path fill="#764E2A" d="M399.077,611.093c-0.29,0-0.577,0.01-0.867,0.021v-0.03C398.5,611.08,398.787,611.08,399.077,611.093z"/>
<path fill="#046938" d="M577.162,800c-30.555-56.92,71.981-133.416,106.958-82.419c1.979-74.993,74.609-81.485,93.042-16.742
	c-8.563-85.25,96.406-65.438,96.417-12.349c15.013-39.902,60.011,18.678,28.513,32.884c26.999-5.293,30.147,29.206,14.326,39.705
	c23.172-25.499,52.993-31.499,78.582-4.5c-11.912-34.498,62.086-49.421,67.834-3c10.25-28.498,74.743,13.349,41.745,46.421
	C1064.084,800,577.162,800,577.162,800z"/>
<path fill="#046938" d="M3088.815,800c-24.338-45.337,57.333-106.268,85.191-65.646c1.575-59.734,59.428-64.905,74.106-13.337
	c-6.823-67.902,76.788-52.12,76.797-9.834c59.572-16.104,46.723,49.455,34.119,57.817c18.456-20.313,76.155,4.653,49.873,31.001
	C3376.648,800,3088.815,800,3088.815,800z"/>
<g>
	<rect x="1210.258" y="675.666" fill="#046938" width="179.479" height="225"/>
	<rect x="1300" y="699.367" fill="#05763E" width="89.737" height="201.299"/>
	<rect x="1200" y="675.704" fill="#064D28" width="200" height="76.374"/>
	<rect x="1300" y="675.704" fill="#06582E" width="100" height="76.374"/>
</g>
<g>
	<rect x="3735.258" y="675.666" fill="#046938" width="179.479" height="225"/>
	<rect x="3825" y="699.367" fill="#05763E" width="89.737" height="201.299"/>
	<rect x="3725" y="675.704" fill="#064D28" width="200" height="76.374"/>
	<rect x="3825" y="675.704" fill="#06582E" width="100" height="76.374"/>
</g>
<path fill="#F2F2F2" d="M1256.468,120.035c17.677-29.256,60.646-12.494,53.331,15.848c15.542-25.599,81.368-8.24,77.711,19.192
	c34.742-24.069,79.845,46.634,1.83,50.9c0.605,34.36-79.235,49.369-84.724,6.705c-11.581,37.789-90.813,35.652-85.331,0.914
	c-20.111,24.685-74.054,12.799-76.797-4.571c-2.742-17.371,14.628-56.698,63.998-53.948
	C1172.659,127.654,1231.479,90.779,1256.468,120.035z"/>
<path fill="#08A650" d="M4895.873,800h-386.525c122.684-134.721,154.512-168.01,192.378-168.991c0.286-0.013,0.573-0.021,0.86-0.021
	h0.049c0.287,0,0.571,0.009,0.858,0.021C4741.359,631.99,4773.188,665.279,4895.873,800z"/>
<path fill="#046938" d="M5007.023,800c-23.043-42.928,54.287-100.617,80.666-62.156c1.492-56.562,56.27-61.456,70.17-12.628
	c-6.461-64.294,72.707-49.353,72.715-9.313c11.318-30.095,45.258,14.086,21.502,24.8c20.361-3.99,22.736,22.026,10.807,29.944
	c17.476-19.23,39.967-23.756,59.265-3.394c-8.983-26.02,46.823-37.271,51.159-2.265c7.73-21.492,56.371,10.066,31.484,35.012
	C5374.248,800,5007.023,800,5007.023,800z"/>
<path fill="#F2F2F2" d="M5444.152,207.846c17.677-29.258,60.646-12.494,53.331,15.848c15.542-25.599,81.368-8.242,77.711,19.192
	c34.742-24.069,79.847,46.634,1.83,50.898c0.606,34.362-79.233,49.369-84.724,6.705c-11.58,37.789-90.813,35.654-85.33,0.914
	c-20.111,24.687-74.055,12.799-76.797-4.571c-2.742-17.371,14.627-56.696,63.998-53.946
	C5360.348,215.465,5419.164,178.59,5444.152,207.846z"/>
<path fill="#F2F2F2" d="M4376.971,388.748c-12.984,21.489-44.546,9.179-39.173-11.641c-11.416,18.803-59.769,6.054-57.082-14.098
	c-25.519,17.68-58.647-34.254-1.345-37.39c-0.445-25.24,58.201-36.263,62.229-4.925c8.507-27.757,66.707-26.189,62.681-0.671
	c14.771-18.131,54.395-9.399,56.408,3.358c2.016,12.76-10.744,41.646-47.008,39.626
	C4438.527,383.151,4395.326,410.237,4376.971,388.748z"/>
<path fill="#E7E7E7" d="M1469.341,191.548c11.044-18.275,37.891-7.806,33.317,9.901c9.711-15.994,50.837-5.149,48.555,11.991
	c21.707-15.037,49.887,29.136,1.144,31.802c0.381,21.469-49.505,30.846-52.933,4.188c-7.234,23.608-56.74,22.275-53.313,0.569
	c-12.564,15.423-46.268,7.997-47.979-2.854c-1.716-10.854,9.14-35.423,39.981-33.706
	C1416.979,196.309,1453.729,173.271,1469.341,191.548z"/>
<path fill="#E7E7E7" d="M3080.616,215.161c15.213-25.178,52.193-10.753,45.898,13.639c13.377-22.028,70.024-7.093,66.881,16.52
	c29.897-20.713,68.718,40.135,1.574,43.807c0.521,29.574-68.192,42.489-72.913,5.771c-9.969,32.523-78.16,30.688-73.438,0.788
	c-17.311,21.245-63.73,11.016-66.095-3.937c-2.36-14.95,12.59-48.796,55.078-46.43
	C3008.49,221.719,3059.111,189.983,3080.616,215.161z"/>
<path fill="#E7E7E7" d="M230.537,369.694c-14.157,23.43-48.569,10.006-42.711-12.688c-12.448,20.501-65.165,6.601-62.236-15.37
	c-27.825,19.272-63.946-37.351-1.465-40.768c-0.489-27.52,63.457-39.539,67.85-5.369c9.274-30.265,72.732-28.556,68.338-0.73
	c16.108-19.771,59.311-10.25,61.505,3.661c2.197,13.912-11.716,45.407-51.253,43.206
	C297.654,363.594,250.55,393.124,230.537,369.694z"/>
<line fill="none" x1="2475.069" y1="800.343" x2="2474.907" y2="800.181"/>
<line fill="none" x1="2675.229" y1="900.5" x2="2675.069" y2="900.343"/>
<line fill="none" x1="2675.229" y1="800.181" x2="2675.069" y2="800.343"/>
<line fill="none" x1="2475.069" y1="900.343" x2="2474.907" y2="900.5"/>
<g>
	<polygon fill="#764E2A" points="2490.582,765.703 2503.479,752.807 2567.685,752.808 2580.582,765.703 	"/>
	<polygon fill="#8B5F3D" points="2490.582,765.703 2490.582,675.703 2503.479,688.602 2503.479,752.807 	"/>
	<polygon fill="#764E2A" points="2490.582,675.703 2580.582,675.703 2567.685,688.603 2503.479,688.602 	"/>
	<polygon fill="#8B5F3D" points="2567.685,752.808 2567.685,688.603 2580.582,675.703 2580.582,765.703 	"/>
	<rect x="2503.479" y="688.602" fill="#A97D51" width="64.205" height="64.205"/>
</g>
<g>
	<polygon fill="#764E2A" points="2670.582,765.705 2657.686,752.81 2657.686,688.604 2670.582,675.705 	"/>
	<polygon fill="#8B5F3D" points="2670.582,765.705 2580.582,765.705 2593.479,752.81 2657.686,752.81 	"/>
	<polygon fill="#764E2A" points="2580.582,765.705 2580.582,675.705 2593.479,688.604 2593.479,752.81 	"/>
	<polygon fill="#8B5F3D" points="2657.686,688.604 2593.479,688.604 2580.582,675.705 2670.582,675.705 	"/>
	<rect x="2593.479" y="688.604" fill="#A97D51" width="64.205" height="64.205"/>
</g>
<g>
	<polygon fill="#764E2A" points="2490.582,765.705 2477.686,752.808 2477.686,688.603 2490.582,675.705 	"/>
	<polygon fill="#8B5F3D" points="2490.582,765.705 2400.582,765.705 2413.479,752.808 2477.686,752.808 	"/>
	<polygon fill="#764E2A" points="2400.582,765.705 2400.582,675.705 2413.479,688.603 2413.479,752.808 	"/>
	<polygon fill="#8B5F3D" points="2477.686,688.603 2413.479,688.603 2400.582,675.705 2490.582,675.705 	"/>
	<rect x="2413.479" y="688.603" fill="#A97D51" width="64.205" height="64.205"/>
</g>
<g>
	<polygon fill="#764E2A" points="3292.464,808.473 3305.36,821.368 3305.36,885.573 3292.464,898.473 	"/>
	<polygon fill="#8B5F3D" points="3292.464,808.473 3382.464,808.473 3369.565,821.368 3305.36,821.368 	"/>
	<polygon fill="#764E2A" points="3382.464,808.473 3382.464,898.473 3369.565,885.573 3369.565,821.368 	"/>
	<polygon fill="#8B5F3D" points="3305.36,885.573 3369.565,885.573 3382.464,898.473 3292.464,898.473 	"/>
	<rect x="3305.36" y="821.368" fill="#A97D51" width="64.205" height="64.205"/>
</g>
<g>
	<polygon fill="#764E2A" points="3382.465,898.473 3395.36,885.574 3459.565,885.574 3472.465,898.473 	"/>
	<polygon fill="#8B5F3D" points="3382.465,898.473 3382.465,808.473 3395.36,821.369 3395.36,885.574 	"/>
	<polygon fill="#764E2A" points="3382.465,808.473 3472.465,808.473 3459.565,821.369 3395.36,821.369 	"/>
	<polygon fill="#8B5F3D" points="3459.565,885.574 3459.565,821.369 3472.465,808.473 3472.465,898.473 	"/>
	<rect x="3395.36" y="821.369" fill="#A97D51" width="64.205" height="64.205"/>
</g>
<g>
	<polygon fill="#764E2A" points="3292.464,808.473 3279.566,821.369 3215.361,821.369 3202.464,808.473 	"/>
	<polygon fill="#8B5F3D" points="3292.464,808.473 3292.464,898.473 3279.566,885.574 3279.566,821.369 	"/>
	<polygon fill="#764E2A" points="3292.464,898.473 3202.464,898.473 3215.361,885.574 3279.566,885.574 	"/>
	<polygon fill="#8B5F3D" points="3215.361,821.369 3215.361,885.574 3202.464,898.473 3202.464,808.473 	"/>
	<rect x="3215.361" y="821.369" fill="#A97D51" width="64.205" height="64.205"/>
</g>
<rect x="3331.975" y="148.473" fill="#424143" width="10.979" height="660"/>
<circle fill="#08A650" cx="3337.464" cy="148.472" r="15.194"/>
</svg>
