<?xml version="1.0" encoding="utf-8"?>
<!-- Generator: Adobe Illustrator 16.0.0, SVG Export Plug-In . SVG Version: 6.00 Build 0)  -->
<!DOCTYPE svg PUBLIC "-//W3C//DTD SVG 1.1//EN" "http://www.w3.org/Graphics/SVG/1.1/DTD/svg11.dtd">
<svg version="1.1" id="Layer_1" xmlns="http://www.w3.org/2000/svg" xmlns:xlink="http://www.w3.org/1999/xlink" x="0px" y="0px"
	 width="298px" height="396px" viewBox="0 0 298 396" enable-background="new 0 0 298 396" xml:space="preserve">
<g>
	<path fill="#FFFFFF" d="M54.493,17.487h12.928c1.69,0.034,3.282,0.497,4.773,1.393c1.492,0.895,2.792,2.113,3.903,3.654
		c1.11,1.542,1.98,3.349,2.61,5.42c0.629,2.072,0.945,4.285,0.945,6.638c0,2.354-0.315,4.567-0.945,6.638
		c-0.63,2.072-1.492,3.887-2.585,5.445c-1.094,1.559-2.379,2.793-3.854,3.705c-1.476,0.912-3.058,1.401-4.749,1.467H54.493V17.487z
		 M58.123,21.117v27.1c0.762,0,1.517,0,2.262,0c0.746,0,1.5-0.016,2.263-0.05c0.828,0,1.648-0.008,2.461-0.025
		c0.812-0.016,1.616-0.025,2.412-0.025c1.16-0.032,2.254-0.414,3.282-1.144c1.027-0.729,1.931-1.698,2.71-2.909
		c0.778-1.21,1.392-2.627,1.839-4.251c0.448-1.624,0.671-3.364,0.671-5.221c0-1.856-0.224-3.596-0.671-5.221
		c-0.447-1.624-1.061-3.041-1.839-4.251c-0.779-1.21-1.691-2.171-2.735-2.884c-1.044-0.712-2.163-1.085-3.356-1.119H58.123z"/>
	<path fill="#FFFFFF" d="M93.377,48.713c0.463,0,0.977-0.057,1.541-0.174c0.563-0.116,1.127-0.273,1.691-0.472
		c0.563-0.199,1.119-0.415,1.666-0.646c0.547-0.231,1.052-0.448,1.517-0.646l1.393,3.132c-1.062,0.597-2.138,1.086-3.232,1.467
		c-1.094,0.381-2.188,0.671-3.282,0.87c-0.199,0.033-0.422,0.05-0.671,0.05c-0.249,0-0.456,0-0.621,0
		c-1.393,0-2.71-0.307-3.953-0.92c-1.243-0.613-2.354-1.458-3.332-2.536c-0.979-1.077-1.765-2.345-2.362-3.804
		c-0.597-1.458-0.945-3.016-1.044-4.674v-0.945c0-1.756,0.273-3.414,0.82-4.972c0.547-1.558,1.276-2.917,2.188-4.078
		c0.911-1.16,1.98-2.08,3.207-2.759c1.226-0.679,2.536-1.02,3.928-1.02c1.425,0,2.743,0.323,3.953,0.97
		c1.21,0.646,2.263,1.534,3.158,2.66c0.895,1.127,1.591,2.454,2.088,3.978c0.497,1.525,0.746,3.182,0.746,4.972v1.939H86.416
		c0.132,1.094,0.397,2.105,0.795,3.033c0.398,0.928,0.903,1.724,1.517,2.387c0.613,0.664,1.318,1.193,2.113,1.591
		C91.637,48.515,92.482,48.713,93.377,48.713z M99.195,37.625c-0.133-1.061-0.39-2.046-0.771-2.958
		c-0.382-0.911-0.854-1.698-1.417-2.362c-0.564-0.663-1.202-1.176-1.914-1.542c-0.713-0.364-1.467-0.547-2.263-0.547
		c-0.763,0-1.484,0.191-2.163,0.572c-0.68,0.381-1.302,0.912-1.865,1.591c-0.564,0.68-1.044,1.467-1.442,2.362
		c-0.398,0.895-0.68,1.857-0.846,2.884H99.195z"/>
	<path fill="#FFFFFF" d="M120.625,32.553c-0.763-0.729-1.658-1.293-2.685-1.69c-1.028-0.398-2.072-0.597-3.132-0.597
		c-1.36,0-2.495,0.291-3.406,0.87c-0.912,0.58-1.367,1.351-1.367,2.312c0,0.929,0.472,1.782,1.417,2.561
		c0.945,0.779,2.163,1.301,3.655,1.566c1.126,0.167,2.179,0.49,3.157,0.97c0.978,0.481,1.823,1.069,2.536,1.765
		c0.712,0.696,1.275,1.476,1.69,2.337c0.414,0.862,0.622,1.74,0.622,2.635c0,1.028-0.224,1.973-0.671,2.834
		c-0.447,0.863-1.053,1.6-1.815,2.213c-0.763,0.614-1.658,1.086-2.685,1.417c-1.028,0.331-2.105,0.498-3.232,0.498
		c-1.492,0-3.025-0.348-4.6-1.044c-1.575-0.696-2.876-1.673-3.903-2.934l2.685-2.088c0.729,0.729,1.599,1.326,2.611,1.79
		c1.011,0.464,2.03,0.696,3.058,0.696c0.696,0,1.343-0.083,1.939-0.249c0.597-0.166,1.126-0.397,1.591-0.696
		c0.464-0.298,0.828-0.654,1.094-1.069c0.265-0.414,0.398-0.87,0.398-1.367c0-0.431-0.149-0.87-0.448-1.318
		c-0.298-0.447-0.68-0.861-1.144-1.243c-0.464-0.38-1.012-0.729-1.641-1.044c-0.63-0.315-1.26-0.555-1.89-0.721
		c-1.094-0.166-2.122-0.497-3.083-0.995c-0.962-0.497-1.815-1.094-2.561-1.79c-0.746-0.696-1.335-1.45-1.766-2.262
		c-0.431-0.812-0.646-1.649-0.646-2.511c0-0.994,0.231-1.906,0.696-2.735c0.464-0.828,1.085-1.542,1.865-2.138
		c0.778-0.597,1.69-1.052,2.735-1.367c1.044-0.314,2.146-0.472,3.307-0.472c1.591,0,3.14,0.356,4.649,1.069
		c1.508,0.713,2.792,1.616,3.854,2.71L120.625,32.553z"/>
	<path fill="#FFFFFF" d="M127.238,20.719c0-0.563,0.199-1.044,0.597-1.442c0.398-0.397,0.912-0.597,1.542-0.597
		c0.563,0,1.069,0.199,1.517,0.597c0.448,0.398,0.671,0.879,0.671,1.442c0,0.564-0.224,1.053-0.671,1.467
		c-0.447,0.415-0.953,0.621-1.517,0.621c-0.63,0-1.144-0.207-1.542-0.621C127.438,21.771,127.238,21.283,127.238,20.719z
		 M127.636,26.935h3.48v24.912h-3.48V26.935z"/>
	<path fill="#FFFFFF" d="M143.746,44.885c0.066,0,0.107-0.008,0.124-0.025c0.017-0.016,0.058-0.025,0.125-0.025h0.099
		c0.166-0.066,0.373-0.099,0.622-0.099c0.249,0,0.473,0,0.671,0c1.425,0,2.76,0.216,4.003,0.646c1.243,0.432,2.32,1.012,3.232,1.741
		c0.911,0.729,1.633,1.591,2.163,2.585s0.796,2.056,0.796,3.183c0,1.126-0.266,2.195-0.796,3.207
		c-0.53,1.011-1.252,1.89-2.163,2.635c-0.912,0.746-1.989,1.343-3.232,1.79c-1.243,0.448-2.578,0.671-4.003,0.671
		c-1.359,0-2.652-0.224-3.878-0.671c-1.227-0.447-2.304-1.044-3.232-1.79c-0.929-0.746-1.666-1.625-2.213-2.635
		c-0.547-1.012-0.82-2.081-0.82-3.207c0-1.393,0.422-2.693,1.268-3.904c0.845-1.209,1.947-2.179,3.307-2.909
		c-0.1-0.265-0.158-0.547-0.174-0.845c-0.017-0.298-0.025-0.613-0.025-0.945c0-0.43,0.058-0.853,0.174-1.268
		c0.116-0.414,0.256-0.787,0.422-1.119c-2.056-1.657-3.083-3.795-3.083-6.415c0-1.193,0.265-2.328,0.795-3.406
		c0.53-1.077,1.243-2.022,2.138-2.834c0.895-0.812,1.956-1.45,3.182-1.915c1.226-0.464,2.536-0.696,3.928-0.696
		c0.828,0,1.524,0.05,2.088,0.149c0.563,0.1,1.127,0.216,1.691,0.348h9.646l-3.381,3.58h-1.442c0.464,0.664,0.837,1.41,1.119,2.238
		c0.281,0.829,0.423,1.674,0.423,2.536c0,1.26-0.266,2.42-0.796,3.481c-0.53,1.061-1.252,1.989-2.163,2.785
		c-0.912,0.795-1.989,1.417-3.231,1.864c-1.244,0.448-2.562,0.671-3.954,0.671c-0.497,0-0.937-0.033-1.317-0.1
		c-0.382-0.066-0.738-0.132-1.069-0.199c-0.597-0.166-1.061-0.249-1.392-0.249c-0.167,0-0.332,0.033-0.498,0.1
		c-0.166,0.066-0.249,0.183-0.249,0.348c0,0.298,0.091,0.49,0.273,0.572c0.182,0.083,0.373,0.124,0.572,0.124H143.746z
		 M138.773,52.891c0,0.663,0.174,1.284,0.522,1.864c0.348,0.58,0.829,1.085,1.442,1.517c0.613,0.431,1.317,0.779,2.113,1.044
		c0.795,0.265,1.641,0.398,2.536,0.398c0.928,0,1.807-0.133,2.635-0.398c0.829-0.266,1.549-0.614,2.164-1.044
		c0.613-0.431,1.094-0.937,1.442-1.517c0.348-0.58,0.521-1.202,0.521-1.864c0-0.63-0.174-1.235-0.521-1.815
		c-0.349-0.58-0.829-1.085-1.442-1.517c-0.614-0.431-1.335-0.779-2.164-1.044c-0.829-0.265-1.708-0.398-2.635-0.398
		c-0.895,0-1.74,0.133-2.536,0.398c-0.796,0.266-1.5,0.614-2.113,1.044c-0.614,0.431-1.094,0.937-1.442,1.517
		C138.948,51.656,138.773,52.26,138.773,52.891z M140.663,35.487c0,0.729,0.174,1.417,0.522,2.063
		c0.348,0.646,0.812,1.211,1.393,1.691c0.58,0.481,1.268,0.862,2.063,1.144c0.795,0.282,1.641,0.423,2.536,0.423
		c0.928,0,1.798-0.141,2.611-0.423c0.812-0.281,1.517-0.663,2.114-1.144c0.597-0.48,1.068-1.044,1.417-1.691
		c0.348-0.646,0.522-1.334,0.522-2.063c0-0.729-0.175-1.425-0.522-2.088c-0.349-0.663-0.82-1.234-1.417-1.715
		c-0.597-0.48-1.302-0.862-2.114-1.144c-0.813-0.281-1.683-0.423-2.611-0.423c-0.895,0-1.74,0.142-2.536,0.423
		c-0.796,0.282-1.484,0.664-2.063,1.144c-0.581,0.481-1.044,1.053-1.393,1.715C140.837,34.062,140.663,34.758,140.663,35.487z"/>
	<path fill="#FFFFFF" d="M166.321,28.725c0.796-0.796,1.648-1.359,2.561-1.691c0.911-0.331,1.964-0.497,3.157-0.497
		s2.304,0.241,3.332,0.721c1.027,0.481,1.931,1.144,2.71,1.989c0.778,0.845,1.399,1.84,1.864,2.983
		c0.464,1.144,0.713,2.362,0.746,3.655l0.1,15.961h-3.58V35.885c0-0.795-0.149-1.549-0.448-2.262
		c-0.298-0.713-0.695-1.326-1.193-1.84c-0.497-0.514-1.068-0.92-1.715-1.218s-1.335-0.448-2.063-0.448
		c-0.63,0-1.243,0.142-1.84,0.423c-0.597,0.282-1.136,0.664-1.616,1.144c-0.48,0.481-0.896,1.037-1.243,1.666
		c-0.348,0.63-0.605,1.277-0.771,1.939v16.558h-3.53V29.868c0-0.431-0.167-0.928-0.497-1.492c-0.332-0.563-0.631-0.978-0.896-1.243
		h4.923V28.725z"/>
	<path fill="#FFFFFF" d="M194.515,48.713c0.464,0,0.978-0.057,1.541-0.174c0.563-0.116,1.127-0.273,1.69-0.472
		c0.563-0.199,1.119-0.415,1.666-0.646c0.547-0.231,1.052-0.448,1.517-0.646l1.393,3.132c-1.062,0.597-2.139,1.086-3.232,1.467
		c-1.094,0.381-2.188,0.671-3.281,0.87c-0.199,0.033-0.423,0.05-0.672,0.05c-0.248,0-0.456,0-0.621,0
		c-1.393,0-2.71-0.307-3.953-0.92c-1.243-0.613-2.354-1.458-3.332-2.536c-0.978-1.077-1.765-2.345-2.361-3.804
		c-0.597-1.458-0.945-3.016-1.044-4.674v-0.945c0-1.756,0.273-3.414,0.82-4.972c0.547-1.558,1.275-2.917,2.188-4.078
		c0.911-1.16,1.98-2.08,3.207-2.759c1.227-0.679,2.536-1.02,3.929-1.02c1.425,0,2.742,0.323,3.953,0.97
		c1.209,0.646,2.262,1.534,3.157,2.66c0.895,1.127,1.591,2.454,2.088,3.978c0.498,1.525,0.746,3.182,0.746,4.972v1.939h-16.359
		c0.133,1.094,0.398,2.105,0.796,3.033c0.397,0.928,0.902,1.724,1.517,2.387c0.613,0.664,1.317,1.193,2.113,1.591
		C192.774,48.515,193.619,48.713,194.515,48.713z M200.332,37.625c-0.133-1.061-0.39-2.046-0.771-2.958
		c-0.382-0.911-0.854-1.698-1.417-2.362c-0.564-0.663-1.202-1.176-1.915-1.542c-0.713-0.364-1.467-0.547-2.262-0.547
		c-0.764,0-1.484,0.191-2.163,0.572c-0.68,0.381-1.302,0.912-1.865,1.591c-0.563,0.68-1.044,1.467-1.441,2.362
		c-0.398,0.895-0.68,1.857-0.846,2.884H200.332z"/>
	<path fill="#FFFFFF" d="M225.741,50.951c-0.829,0.332-1.774,0.605-2.835,0.82c-1.062,0.215-2.121,0.356-3.182,0.423
		c-1.658-0.034-3.216-0.398-4.675-1.094c-1.459-0.696-2.734-1.624-3.828-2.784c-1.095-1.16-1.957-2.519-2.586-4.078
		c-0.63-1.558-0.944-3.215-0.944-4.972c0-1.723,0.314-3.356,0.944-4.898c0.629-1.542,1.491-2.884,2.586-4.028
		c1.094-1.144,2.361-2.046,3.804-2.71c1.441-0.663,2.991-0.994,4.649-0.994c1.259,0,2.361,0.083,3.307,0.249
		c0.944,0.166,1.864,0.481,2.76,0.945v-9.846h3.58v28.592c0,0.729,0.065,1.409,0.198,2.039c0.1,0.564,0.273,1.127,0.522,1.69
		c0.248,0.564,0.604,1.028,1.069,1.392h-5.37V50.951z M211.172,39.266c0,1.26,0.215,2.445,0.646,3.555
		c0.43,1.111,1.035,2.088,1.814,2.934c0.778,0.845,1.69,1.525,2.735,2.039c1.044,0.515,2.163,0.788,3.356,0.821
		c0.828-0.033,1.607-0.116,2.337-0.249c0.729-0.132,1.367-0.29,1.914-0.473c0.547-0.182,0.978-0.389,1.293-0.622
		c0.314-0.231,0.473-0.464,0.473-0.696v-14.47c-0.199-0.464-0.863-0.895-1.989-1.293c-1.128-0.398-2.486-0.597-4.077-0.597
		c-1.193,0.033-2.305,0.298-3.332,0.795c-1.027,0.498-1.923,1.161-2.685,1.989c-0.764,0.829-1.368,1.782-1.815,2.859
		C211.396,36.938,211.172,38.073,211.172,39.266z"/>
	<path fill="#FFFFFF" d="M122.291,111.515h-4.624c0.265-0.364,0.464-0.837,0.597-1.417c0.132-0.58,0.249-1.151,0.348-1.716
		c0.099-0.629,0.182-1.309,0.249-2.039V77.653h3.58v9.796c1.723-0.762,3.762-1.144,6.116-1.144c1.657,0,3.215,0.34,4.674,1.019
		c1.458,0.68,2.726,1.608,3.804,2.785c1.077,1.177,1.931,2.536,2.561,4.078c0.629,1.541,0.945,3.174,0.945,4.897
		c0,1.758-0.315,3.415-0.945,4.973c-0.63,1.559-1.492,2.917-2.586,4.077c-1.094,1.161-2.37,2.088-3.829,2.785
		c-1.459,0.696-3.017,1.061-4.674,1.094c-1.26-0.066-2.404-0.199-3.431-0.397c-1.028-0.199-1.956-0.48-2.785-0.846V111.515z
		 M122.291,106.344c0,0.266,0.166,0.522,0.498,0.771c0.331,0.249,0.778,0.456,1.342,0.622c0.563,0.166,1.226,0.307,1.989,0.422
		c0.762,0.117,1.574,0.191,2.437,0.224c1.126-0.032,2.204-0.298,3.232-0.795c1.027-0.497,1.922-1.16,2.685-1.989
		c0.762-0.829,1.367-1.807,1.815-2.934c0.447-1.126,0.671-2.32,0.671-3.58c0-1.226-0.224-2.395-0.671-3.505
		c-0.448-1.11-1.053-2.088-1.815-2.934c-0.763-0.846-1.658-1.517-2.685-2.014c-1.028-0.497-2.105-0.746-3.232-0.746
		c-1.591,0-2.976,0.183-4.152,0.547c-1.177,0.365-1.881,0.779-2.113,1.243V106.344z"/>
	<path fill="#FFFFFF" d="M144.915,116.338c0.464,0.497,0.87,0.787,1.218,0.87c0.348,0.083,0.654,0.125,0.919,0.125
		c0.961,0,1.897-0.323,2.81-0.97s1.6-1.6,2.064-2.859c0.165-0.397,0.314-0.779,0.447-1.144c0.132-0.365,0.281-0.746,0.447-1.144
		c0.166-0.364,0.307-0.704,0.423-1.02c0.115-0.314,0.256-0.654,0.423-1.019c-0.232-0.563-0.465-1.135-0.696-1.716
		c-0.232-0.58-0.447-1.151-0.646-1.715c-0.597-1.425-1.243-2.983-1.939-4.674c-0.696-1.691-1.393-3.397-2.089-5.122
		c-0.696-1.724-1.384-3.414-2.063-5.072c-0.68-1.657-1.301-3.183-1.865-4.575h3.829l7.26,18.298c0.762-1.922,1.532-3.87,2.312-5.843
		c0.779-1.972,1.566-3.953,2.362-5.942c0.397-1.061,0.82-2.163,1.268-3.307c0.448-1.144,0.887-2.213,1.318-3.207h3.828
		l-9.348,23.072c-0.166,0.365-0.307,0.729-0.423,1.094c-0.116,0.365-0.257,0.73-0.423,1.094c-0.166,0.497-0.373,1.019-0.621,1.566
		c-0.249,0.547-0.456,1.102-0.622,1.666c-0.365,0.961-0.845,1.815-1.441,2.561c-0.597,0.746-1.261,1.383-1.989,1.914
		c-0.729,0.53-1.491,0.928-2.288,1.193c-0.796,0.265-1.591,0.398-2.387,0.398c-0.763,0-1.641-0.133-2.636-0.398L144.915,116.338z"/>
</g>
<g>
	<g opacity="0.9">
		<rect x="81.519" y="175.112" fill="#FFFFFF" width="21.813" height="21.778"/>
	</g>
	<rect x="106.646" y="175.112" fill="#FFFFFF" width="21.813" height="21.778"/>
	<g opacity="0.9">
		<rect x="81.519" y="200.206" fill="#FFFFFF" width="21.813" height="21.78"/>
	</g>
	<g opacity="0.4">
		<rect x="106.646" y="200.206" fill="#FFFFFF" width="21.813" height="21.78"/>
	</g>
	<g opacity="0.9">
		<rect x="106.646" y="225.301" fill="#FFFFFF" width="21.813" height="21.779"/>
	</g>
	<g opacity="0.9">
		<rect x="81.519" y="225.301" fill="#FFFFFF" width="21.813" height="21.779"/>
	</g>
	<g opacity="0.6">
		<rect x="131.773" y="175.112" fill="#FFFFFF" width="21.81" height="21.778"/>
	</g>
	<g opacity="0.6">
		<rect x="156.897" y="175.112" fill="#FFFFFF" width="21.813" height="21.778"/>
	</g>
	<g opacity="0.6">
		<rect x="131.773" y="200.206" fill="#FFFFFF" width="21.81" height="21.78"/>
	</g>
	<g opacity="0.2">
		<rect x="156.897" y="200.206" fill="#FFFFFF" width="21.813" height="21.78"/>
	</g>
	<g opacity="0.6">
		<rect x="182.025" y="200.206" fill="#FFFFFF" width="21.813" height="21.78"/>
	</g>
	<g opacity="0.6">
		<rect x="182.025" y="225.301" fill="#FFFFFF" width="21.813" height="21.779"/>
	</g>
	<g opacity="0.6">
		<rect x="182.025" y="175.112" fill="#FFFFFF" width="21.813" height="21.778"/>
	</g>
	<g opacity="0.6">
		<rect x="156.897" y="225.301" fill="#FFFFFF" width="21.813" height="21.779"/>
	</g>
	<g opacity="0.6">
		<rect x="131.773" y="225.301" fill="#FFFFFF" width="21.81" height="21.779"/>
	</g>
	<g opacity="0.6">
		<rect x="131.773" y="250.395" fill="#FFFFFF" width="21.81" height="21.778"/>
	</g>
</g>
<g>
	<g>
		<g>
			<path fill="#F1F2F2" d="M191,293.786c-0.01,0.007-0.151,0.106-0.414,0.325c-0.275,0.231-0.687,0.59-1.197,1.098
				c-1.025,1.009-2.457,2.598-4.104,4.775c-1.647,2.176-3.52,4.931-5.466,8.222c-1.942,3.293-3.969,7.111-6.013,11.361
				c-2.045,4.244-4.052,8.97-6.325,13.9c-2.263,4.935-4.732,10.107-7.523,15.342c-2.8,5.226-5.895,10.54-9.607,15.568
				c-1.862,2.505-3.878,4.946-6.197,7.122c-2.299,2.166-4.938,4.148-8.017,5.164c-3.094,1.02-6.513,0.911-9.504-0.299
				c-3-1.19-5.51-3.457-7.065-6.219c-1.566-2.769-2.173-5.967-2.051-9.039c0.102-3.09,0.93-6.063,2.049-8.815
				c1.142-2.754,2.612-5.3,4.275-7.629c1.696-2.317,3.679-4.328,5.807-6.029c4.261-3.418,8.981-5.648,13.438-7.23
				c4.477-1.571,8.737-2.506,12.533-3.123c3.801-0.611,7.146-0.908,9.903-1.06c5.518-0.294,8.674-0.064,8.674-0.064
				s-3.158-0.206-8.67,0.129c-2.754,0.172-6.095,0.493-9.884,1.132c-3.785,0.645-8.029,1.609-12.477,3.208
				c-4.428,1.608-9.104,3.864-13.298,7.28c-2.093,1.699-4.041,3.706-5.691,5.996c-1.626,2.313-3.066,4.851-4.17,7.571
				c-1.083,2.72-1.872,5.645-1.948,8.652c-0.098,2.993,0.517,6.075,2.039,8.72c1.512,2.638,3.925,4.778,6.787,5.89
				c2.847,1.132,6.111,1.201,9.004,0.225c2.936-0.99,5.465-2.913,7.703-5.053c2.252-2.144,4.224-4.565,6.045-7.056
				c3.634-4.998,6.672-10.302,9.417-15.521c2.738-5.228,5.161-10.399,7.381-15.339c2.23-4.936,4.198-9.667,6.229-13.967
				c2.027-4.295,4.042-8.162,5.983-11.508c1.944-3.345,3.825-6.158,5.493-8.396c1.667-2.239,3.133-3.894,4.208-4.966
				c0.534-0.54,0.976-0.932,1.283-1.193c0.149-0.131,0.292-0.235,0.374-0.303c0.08-0.06,0.12-0.09,0.12-0.09
				c0.33-0.251,0.801-0.186,1.051,0.145c0.251,0.33,0.186,0.801-0.145,1.051C191.021,293.771,191.008,293.781,191,293.786z"/>
		</g>
		<g>
			<path fill="#F1F2F2" d="M255.32,319.379c0,0-0.138,0.202-0.445,0.57c-0.304,0.371-0.776,0.882-1.439,1.472
				c-0.662,0.586-1.506,1.266-2.576,1.896c-1.074,0.613-2.352,1.263-3.936,1.497c-0.783,0.113-1.681,0.087-2.523-0.318
				c-0.846-0.394-1.504-1.192-1.846-2.058c-0.353-0.857-0.483-1.835-0.543-2.717c-0.064-0.947-0.044-1.879,0.042-2.835
				c0.364-3.816,1.615-7.693,3.12-11.41c1.517-3.722,3.313-7.313,5.134-10.593c1.812-3.287,3.614-6.288,5.211-8.826
				c1.603-2.534,2.982-4.615,3.953-6.069c0.979-1.448,1.537-2.275,1.537-2.275c0.075-0.111,0.226-0.141,0.337-0.065
				c0.108,0.074,0.138,0.223,0.067,0.333c0,0-0.537,0.841-1.477,2.311c-0.932,1.476-2.256,3.587-3.789,6.154
				c-1.53,2.566-3.307,5.567-5.059,8.862c-1.753,3.292-3.522,6.859-5.016,10.533c-1.478,3.669-2.687,7.482-3.024,11.135
				c-0.081,0.905-0.122,1.818-0.073,2.669c0.049,0.911,0.154,1.704,0.439,2.444c0.279,0.726,0.758,1.303,1.376,1.606
				c0.62,0.306,1.344,0.368,2.038,0.297c1.399-0.147,2.655-0.708,3.7-1.258c1.044-0.574,1.915-1.157,2.589-1.693
				c0.677-0.531,1.166-1.004,1.486-1.329s0.481-0.524,0.481-0.524c0.053-0.064,0.147-0.074,0.212-0.022
				c0.062,0.05,0.073,0.138,0.03,0.201L255.32,319.379z"/>
		</g>
		<g>
			<path fill="#F1F2F2" d="M177.284,307.783c0,0,0.222-0.125,0.637-0.359c0.429-0.235,1.054-0.58,1.865-0.979
				c0.813-0.399,1.809-0.866,2.989-1.324c1.181-0.455,2.539-0.919,4.091-1.231c0.776-0.152,1.603-0.264,2.48-0.27
				c0.872-0.001,1.823,0.102,2.744,0.552c0.455,0.23,0.89,0.571,1.212,1.011c0.159,0.222,0.291,0.458,0.397,0.707
				c0.097,0.267,0.165,0.422,0.238,0.685c0.289,0.979,0.371,2.013,0.174,3.041c-0.199,1.021-0.65,1.983-1.242,2.83
				c-0.6,0.844-1.325,1.581-2.097,2.263c-1.572,1.331-3.376,2.367-5.163,3.335c-1.803,0.963-3.604,1.919-5.528,2.621
				c-0.499,0.151-0.948,0.354-1.607,0.295c-0.081-0.013-0.198-0.052-0.28-0.109c-0.097-0.051-0.234-0.255-0.211-0.403
				c0.035-0.299,0.168-0.384,0.261-0.502c0.204-0.206,0.415-0.353,0.629-0.493c0.857-0.546,1.746-0.947,2.626-1.333
				c3.535-1.492,6.958-2.502,9.896-3.33c2.942-0.815,5.419-1.397,7.154-1.792c1.738-0.381,2.731-0.599,2.731-0.599
				s-0.988,0.24-2.717,0.662c-1.725,0.435-4.186,1.074-7.103,1.956c-2.91,0.894-6.308,1.984-9.767,3.541
				c-0.855,0.398-1.73,0.821-2.518,1.35c-0.192,0.132-0.383,0.276-0.521,0.426c-0.067,0.062-0.116,0.175-0.099,0.129
				c0.017-0.023-0.048-0.11-0.042-0.093c0.02,0.01,0.025,0.012,0.064,0.018c0.337,0.03,0.856-0.14,1.295-0.302
				c1.825-0.713,3.61-1.708,5.368-2.701c1.763-1.006,3.481-2.053,4.941-3.348c1.43-1.296,2.636-2.865,2.917-4.603
				c0.147-0.852,0.048-1.736-0.196-2.508c-0.049-0.179-0.164-0.444-0.225-0.603c-0.077-0.167-0.169-0.322-0.274-0.464
				c-0.216-0.28-0.501-0.496-0.828-0.653c-1.364-0.603-3.047-0.371-4.451-0.076c-1.435,0.323-2.723,0.795-3.843,1.257
				c-1.12,0.464-2.071,0.937-2.847,1.34c-0.777,0.403-1.369,0.749-1.771,0.98c-0.409,0.244-0.627,0.374-0.627,0.374
				c-0.356,0.212-0.816,0.096-1.028-0.26c-0.213-0.356-0.096-0.816,0.26-1.028C177.273,307.789,177.28,307.785,177.284,307.783z"/>
		</g>
		<g>
			<path fill="#F1F2F2" d="M203.335,304.475c0,0-0.275,0.48-0.729,1.372c-0.455,0.885-1.071,2.171-1.809,3.713
				c-0.731,1.546-1.545,3.369-2.352,5.34c-0.397,0.987-0.785,2.016-1.11,3.071c-0.161,0.528-0.308,1.063-0.409,1.597
				c-0.101,0.521-0.176,1.095-0.075,1.484c0.093,0.356,0.439,0.55,0.938,0.609c0.483,0.057,1.022-0.032,1.54-0.157
				c1.044-0.269,2.048-0.717,2.991-1.195c1.892-0.962,3.568-2.061,4.977-3.034c1.409-0.977,2.564-1.823,3.361-2.431
				c0.796-0.611,1.25-0.96,1.25-0.96s-0.43,0.38-1.182,1.044c-0.758,0.657-1.844,1.596-3.204,2.655
				c-1.367,1.048-2.993,2.243-4.885,3.321c-0.954,0.524-1.971,1.028-3.104,1.362c-0.569,0.156-1.167,0.289-1.824,0.24
				c-0.326-0.025-0.674-0.1-1.003-0.29c-0.166-0.098-0.312-0.212-0.449-0.385c-0.081-0.101-0.122-0.171-0.153-0.226
				c-0.063-0.115-0.096-0.196-0.124-0.291c-0.196-0.727-0.089-1.323-0.007-1.919c0.101-0.59,0.245-1.155,0.403-1.709
				c0.318-1.106,0.696-2.163,1.082-3.176c0.769-2.026,1.612-3.857,2.347-5.42c0.732-1.564,1.408-2.835,1.884-3.726
				c0.475-0.887,0.78-1.394,0.78-1.394l0.003-0.005c0.143-0.236,0.45-0.313,0.687-0.17
				C203.393,303.938,203.47,304.239,203.335,304.475z"/>
		</g>
		
			<line fill="#F1F2F2" stroke="#F1F2F2" stroke-width="1.5" stroke-linecap="round" stroke-miterlimit="10" x1="206.631" y1="296.7" x2="203.976" y2="299.256"/>
		<g>
			<path fill="#F1F2F2" d="M213.07,304.754c0,0,0.048,1.438,0.338,3.606c0.14,1.082,0.342,2.34,0.609,3.678
				c0.267,1.338,0.607,2.754,1.014,4.151c0.22,0.693,0.405,1.399,0.659,2.068c0.24,0.675,0.464,1.344,0.737,1.969
				c0.26,0.63,0.502,1.244,0.786,1.801c0.28,0.558,0.506,1.107,0.789,1.573c0.269,0.475,0.514,0.91,0.731,1.296
				c0.232,0.376,0.456,0.691,0.629,0.958c0.354,0.529,0.555,0.832,0.555,0.832l0.01,0.015c0.068,0.103,0.041,0.24-0.062,0.309
				c-0.101,0.067-0.236,0.041-0.306-0.058c0,0-0.212-0.303-0.584-0.832c-0.183-0.267-0.418-0.583-0.664-0.961
				c-0.23-0.387-0.491-0.824-0.774-1.301c-0.301-0.468-0.543-1.019-0.841-1.58c-0.303-0.561-0.563-1.178-0.843-1.812
				c-0.293-0.63-0.536-1.303-0.796-1.982c-0.274-0.676-0.479-1.386-0.719-2.085c-0.446-1.408-0.826-2.838-1.129-4.189
				c-0.304-1.352-0.539-2.624-0.707-3.721c-0.346-2.186-0.432-3.683-0.432-3.683l-0.001-0.007c-0.016-0.276,0.195-0.513,0.471-0.528
				s0.513,0.194,0.528,0.471C213.07,304.745,213.07,304.751,213.07,304.754z"/>
		</g>
		<g>
			<path fill="#F1F2F2" d="M230.226,304.656c0,0-0.769,0.432-2.087,1.221c-0.65,0.404-1.441,0.896-2.348,1.458
				c-0.904,0.567-1.943,1.179-3.015,1.943c-1.086,0.744-2.261,1.551-3.504,2.404c-0.617,0.433-1.272,0.849-1.902,1.328
				c-0.621,0.489-1.255,0.99-1.9,1.499c-1.291,1.019-2.625,2.07-3.98,3.14c-1.362,1.062-2.653,2.262-3.964,3.427
				c-2.597,2.359-5.11,4.82-7.182,7.363c-1.033,1.271-1.954,2.563-2.678,3.867c-0.729,1.299-1.221,2.641-1.358,3.91
				c-0.163,1.275,0.203,2.442,0.777,3.289c0.586,0.851,1.32,1.425,1.957,1.824c0.645,0.392,1.181,0.656,1.561,0.806
				c0.375,0.16,0.574,0.245,0.574,0.245l0.013,0.005c0.087,0.037,0.127,0.138,0.09,0.225c-0.036,0.086-0.136,0.127-0.222,0.091
				c0,0-0.206-0.085-0.592-0.244c-0.39-0.148-0.946-0.413-1.62-0.813c-0.666-0.408-1.45-1-2.094-1.912
				c-0.635-0.905-1.048-2.194-0.888-3.557c0.131-1.358,0.634-2.762,1.367-4.104c0.728-1.351,1.651-2.676,2.684-3.978
				c2.07-2.602,4.573-5.109,7.156-7.512c1.306-1.188,2.583-2.403,3.941-3.489c1.353-1.092,2.683-2.168,3.971-3.208
				c0.645-0.521,1.278-1.032,1.898-1.533c0.628-0.49,1.282-0.915,1.897-1.358c1.241-0.873,2.414-1.698,3.497-2.46
				c1.069-0.782,2.111-1.412,3.017-1.995c0.909-0.579,1.702-1.084,2.354-1.499c1.315-0.809,2.076-1.248,2.076-1.248l0.007-0.004
				c0.239-0.139,0.545-0.057,0.684,0.183c0.138,0.239,0.056,0.545-0.183,0.684C230.23,304.653,230.227,304.655,230.226,304.656z"/>
		</g>
		<g>
			<path fill="#F1F2F2" d="M228.576,311.517c0,0,0.872,0.08,2.425,0.08c0.775,0.003,1.717-0.036,2.791-0.137
				c1.072-0.104,2.284-0.265,3.554-0.62c1.261-0.357,2.625-0.86,3.705-1.888c0.511-0.499,0.988-1.128,1.139-1.83
				c0.162-0.699-0.121-1.438-0.744-1.855c-0.609-0.429-1.44-0.561-2.238-0.464c-0.195,0.024-0.413,0.059-0.589,0.112
				c-0.207,0.062-0.426,0.115-0.604,0.199c-0.372,0.142-0.763,0.34-1.135,0.548c-1.5,0.849-2.88,1.987-4.136,3.226
				c-1.243,1.255-2.382,2.623-3.282,4.104c-0.907,1.474-1.589,3.051-2.041,4.638c-0.439,1.577-0.715,3.186-0.48,4.612
				c0.123,0.707,0.418,1.344,0.898,1.758c0.481,0.415,1.117,0.597,1.742,0.639c1.268,0.07,2.463-0.271,3.474-0.605
				c1.017-0.35,1.883-0.729,2.59-1.052c1.413-0.656,2.19-1.099,2.19-1.099c0.092-0.052,0.207-0.02,0.259,0.071
				c0.051,0.088,0.021,0.2-0.063,0.254l-0.008,0.005c0,0-0.764,0.477-2.168,1.199c-0.703,0.358-1.567,0.782-2.614,1.152
				c-1.042,0.361-2.266,0.749-3.697,0.699c-0.705-0.036-1.495-0.229-2.132-0.76c-0.637-0.529-1.006-1.33-1.157-2.131
				c-0.304-1.625,0-3.308,0.474-4.944c0.479-1.642,1.196-3.273,2.148-4.8c0.943-1.528,2.123-2.927,3.407-4.207
				c1.301-1.265,2.714-2.425,4.292-3.307c0.397-0.22,0.793-0.421,1.239-0.587c0.221-0.097,0.427-0.146,0.637-0.207
				c0.241-0.069,0.455-0.099,0.688-0.128c0.906-0.104,1.88,0.037,2.655,0.582c0.797,0.52,1.2,1.582,0.974,2.469
				c-0.205,0.892-0.746,1.569-1.326,2.136c-1.166,1.118-2.621,1.688-3.919,2.074c-2.642,0.743-4.916,0.893-6.494,0.998
				c-1.583,0.093-2.502,0.063-2.502,0.063h-0.011c-0.276-0.009-0.493-0.24-0.484-0.517c0.009-0.275,0.24-0.492,0.517-0.483
				C228.556,311.515,228.567,311.516,228.576,311.517z"/>
		</g>
		<g>
			<path fill="#F1F2F2" d="M277.338,300.834c0,0-0.07-0.028-0.204-0.082c-0.107-0.034-0.269-0.087-0.53-0.127
				c-0.502-0.087-1.299-0.1-2.312,0.032c-2.021,0.292-4.899,1.164-8.039,2.839c-1.564,0.835-3.191,1.903-4.655,3.293
				c-0.725,0.699-1.402,1.484-1.95,2.36c-0.548,0.871-0.928,1.863-0.971,2.866c-0.043,1.006,0.362,1.983,1.048,2.793
				c0.336,0.412,0.751,0.773,1.191,1.109c0.441,0.331,0.967,0.69,1.418,1.129c0.454,0.432,0.88,0.931,1.17,1.55
				c0.29,0.613,0.381,1.386,0.157,2.063c-0.469,1.363-1.602,2.146-2.663,2.754c-1.097,0.599-2.266,1.011-3.465,1.283
				c-0.6,0.133-1.209,0.229-1.833,0.258c-0.625-0.005-1.262,0.069-1.969-0.392c-0.171-0.128-0.332-0.362-0.358-0.611l-0.01-0.092
				l0.004-0.091c0.003-0.038,0.001-0.064,0.016-0.134c0.022-0.129,0.058-0.218,0.09-0.303c0.146-0.335,0.343-0.586,0.543-0.826
				c0.406-0.472,0.854-0.866,1.308-1.243c0.911-0.748,1.862-1.398,2.813-2.011c3.822-2.421,7.637-4.227,10.97-5.595
				c3.345-1.349,6.227-2.219,8.268-2.72c2.041-0.503,3.231-0.673,3.231-0.673c0.045-0.009,0.087,0.021,0.096,0.065
				c0.008,0.043-0.023,0.086-0.066,0.095c0,0-1.181,0.2-3.198,0.754c-2.016,0.552-4.859,1.491-8.146,2.918
				c-3.284,1.419-7.06,3.259-10.797,5.702c-0.928,0.616-1.855,1.271-2.721,2.002c-0.431,0.365-0.852,0.752-1.202,1.172
				c-0.172,0.208-0.332,0.432-0.415,0.639c-0.021,0.053-0.035,0.102-0.039,0.117c-0.007,0.002-0.008,0.05-0.01,0.085
				c0,0.002-0.004,0.072-0.002,0.02l0.005,0.018c0.008,0.045,0.022,0.073,0.085,0.123c0.291,0.208,0.93,0.242,1.466,0.208
				c0.563-0.033,1.133-0.13,1.695-0.263c1.123-0.271,2.229-0.681,3.229-1.245c0.978-0.559,1.929-1.324,2.22-2.276
				c0.307-0.942-0.3-1.933-1.115-2.66c-0.764-0.719-1.932-1.309-2.722-2.287c-0.821-0.936-1.328-2.22-1.258-3.474
				c0.059-1.255,0.595-2.364,1.219-3.294c0.638-0.935,1.395-1.726,2.181-2.422c1.566-1.407,3.262-2.432,4.842-3.322
				c3.188-1.746,6.114-2.664,8.232-3.005c1.059-0.182,1.926-0.21,2.535-0.131c0.296,0.031,0.55,0.097,0.72,0.149
				c0.137,0.048,0.207,0.073,0.207,0.073c0.226,0.08,0.343,0.327,0.263,0.553c-0.079,0.225-0.327,0.343-0.552,0.263
				C277.351,300.839,277.343,300.836,277.338,300.834z"/>
		</g>
	</g>
	<g>
		<path fill="#F1F2F2" d="M38.44,294.956c1.747,0.757,3.282,1.785,4.605,3.085l-4.077,4.077c-1.717-1.692-3.756-2.539-6.116-2.539
			c-2.385,0-4.42,0.85-6.107,2.548c-1.687,1.699-2.53,3.735-2.53,6.107c0,2.385,0.843,4.42,2.53,6.107
			c1.687,1.687,3.723,2.53,6.107,2.53c2.384,0,4.423-0.847,6.116-2.539l4.077,4.077c-1.323,1.312-2.858,2.346-4.605,3.103
			s-3.609,1.136-5.588,1.136c-3.97,0-7.365-1.41-10.185-4.229c-2.82-2.819-4.229-6.214-4.229-10.185c0-3.958,1.41-7.35,4.229-10.176
			c2.819-2.825,6.214-4.238,10.185-4.238C34.831,293.82,36.694,294.199,38.44,294.956z"/>
		<path fill="#F1F2F2" d="M62.402,293.82v5.759H50.886v5.776h8.638v5.758h-8.638v5.759h11.517v5.776H50.886h-5.776v-11.535v-5.758
			V293.82H62.402z"/>
		<path fill="#F1F2F2" d="M65.001,313.993v-10.087V293.82h5.776h4.31c2.778,0,5.157,0.99,7.136,2.969
			c1.979,1.979,2.969,4.352,2.969,7.117c0,2.778-0.99,5.154-2.969,7.127c-1.979,1.974-4.357,2.96-7.136,2.96h-4.31v8.655h-5.776
			V313.993z M75.087,308.234c1.192,0,2.212-0.423,3.058-1.27c0.847-0.847,1.27-1.866,1.27-3.059c0-1.18-0.423-2.196-1.27-3.049
			c-0.846-0.853-1.866-1.278-3.058-1.278h-4.31v4.327v4.328H75.087z"/>
		<path fill="#F1F2F2" d="M87.379,293.82h5.776v28.828h-5.776V293.82z"/>
		<path fill="#F1F2F2" d="M101.975,293.82v23.052h11.517v5.776H96.199V293.82H101.975z"/>
		<path fill="#F1F2F2" d="M121.867,293.82v23.052h11.517v5.776H116.09V293.82H121.867z"/>
		<path fill="#F1F2F2" d="M160.571,298.059c2.826,2.826,4.238,6.218,4.238,10.176c0,3.971-1.412,7.365-4.238,10.185
			c-2.825,2.819-6.217,4.229-10.176,4.229c-3.969,0-7.364-1.41-10.184-4.229c-2.82-2.819-4.229-6.214-4.229-10.185
			c0-3.958,1.41-7.35,4.229-10.176c2.819-2.825,6.214-4.238,10.184-4.238C154.354,293.82,157.746,295.233,160.571,298.059z
			 M144.289,302.127c-1.687,1.699-2.53,3.735-2.53,6.107c0,2.385,0.843,4.42,2.53,6.107c1.687,1.687,3.723,2.53,6.106,2.53
			c2.373,0,4.408-0.844,6.107-2.53c1.699-1.688,2.549-3.723,2.549-6.107c0-2.372-0.85-4.408-2.549-6.107
			c-1.699-1.698-3.734-2.548-6.107-2.548C148.012,299.579,145.976,300.429,144.289,302.127z"/>
	</g>
</g>
<g>
</g>
<g>
</g>
<g>
</g>
<g>
</g>
<g>
</g>
<g>
</g>
</svg>
