<?xml version="1.0" encoding="utf-8"?>
<!-- Generator: Adobe Illustrator 16.0.0, SVG Export Plug-In . SVG Version: 6.00 Build 0)  -->
<!DOCTYPE svg PUBLIC "-//W3C//DTD SVG 1.1//EN" "http://www.w3.org/Graphics/SVG/1.1/DTD/svg11.dtd">
<svg version="1.1" id="Layer_1" xmlns="http://www.w3.org/2000/svg" xmlns:xlink="http://www.w3.org/1999/xlink" x="0px" y="0px"
	 width="139.691px" height="100px" viewBox="0 0 139.691 100" enable-background="new 0 0 139.691 100" xml:space="preserve">
<polygon fill="#FFFFFF" points="139.695,0 51.025,63.47 48.025,65.62 -0.004,100 -0.004,0 "/>
<path fill="#662D91" d="M64.525,40.653c0,5.714-5.373,10.347-12,10.347h-6c-6.627,0-12-4.633-12-10.347V19.097
	c0-5.715,5.373-10.347,12-10.347h6c6.627,0,12,4.632,12,10.347V40.653z"/>
<polygon fill="#662D91" points="51.025,39.75 51.025,63.47 48.025,65.62 48.025,39.75 "/>
<rect x="38.275" y="19.146" fill="#FFFFFF" width="26.25" height="1"/>
<rect x="34.525" y="22.239" fill="#FFFFFF" width="26.25" height="1"/>
<rect x="38.275" y="25.332" fill="#FFFFFF" width="26.25" height="1"/>
<rect x="34.525" y="28.426" fill="#FFFFFF" width="26.25" height="1"/>
<rect x="38.275" y="31.519" fill="#FFFFFF" width="26.25" height="1"/>
<rect x="34.525" y="34.612" fill="#FFFFFF" width="26.25" height="1"/>
<rect x="38.275" y="37.705" fill="#FFFFFF" width="26.25" height="1"/>
<rect x="34.525" y="40.799" fill="#FFFFFF" width="26.25" height="1"/>
<polyline fill="none" stroke="#662D91" stroke-width="2" stroke-miterlimit="10" points="21.859,7.75 14.692,7.75 14.692,14.667 "/>
<polyline fill="none" stroke="#662D91" stroke-width="2" stroke-miterlimit="10" points="14.817,57.875 14.817,65.041 
	21.733,65.041 "/>
<polyline fill="none" stroke="#662D91" stroke-width="2" stroke-miterlimit="10" points="88.734,14.792 88.734,7.625 81.816,7.625 
	"/>
<g>
</g>
<g>
</g>
<g>
</g>
<g>
</g>
<g>
</g>
<g>
</g>
</svg>
