<?xml version="1.0" encoding="utf-8"?>
<!-- Generator: Adobe Illustrator 16.0.0, SVG Export Plug-In . SVG Version: 6.00 Build 0)  -->
<!DOCTYPE svg PUBLIC "-//W3C//DTD SVG 1.1//EN" "http://www.w3.org/Graphics/SVG/1.1/DTD/svg11.dtd">
<svg version="1.1" id="Layer_1" xmlns="http://www.w3.org/2000/svg" xmlns:xlink="http://www.w3.org/1999/xlink" x="0px" y="0px"
	 width="449.039px" height="199.029px" viewBox="0 0 449.039 199.029" enable-background="new 0 0 449.039 199.029"
	 xml:space="preserve">
<g>
	<rect fill="#414042" width="449.039" height="199.029"/>
	<rect x="23.52" y="24.014" fill="#00AEEF" width="402" height="151.027"/>
	<g>
		<rect x="99.416" y="63.467" fill="#FFFFFF" width="31.865" height="31.865"/>
		<rect x="67.553" y="63.467" width="31.863" height="31.865"/>
		<rect x="131.281" y="63.467" width="31.865" height="31.865"/>
		<g>
			<path fill="#FFFFFF" d="M86.073,72.25c0.895,0.387,1.68,0.914,2.357,1.579l-2.088,2.087c-0.879-0.867-1.922-1.3-3.131-1.3
				c-1.221,0-2.263,0.435-3.127,1.305c-0.863,0.87-1.295,1.912-1.295,3.127c0,1.221,0.432,2.263,1.295,3.126
				c0.864,0.863,1.906,1.295,3.127,1.295c0.959,0,1.816-0.276,2.572-0.829c0.758-0.552,1.291-1.259,1.603-2.12h-4.175v-2.948h4.175
				h1.712h1.346c0.098,0.464,0.146,0.955,0.146,1.474c0,2.032-0.723,3.77-2.17,5.214c-1.445,1.443-3.183,2.165-5.209,2.165
				c-2.032,0-3.77-0.722-5.214-2.165c-1.443-1.444-2.165-3.182-2.165-5.214c0-2.026,0.722-3.763,2.165-5.209
				c1.444-1.447,3.182-2.17,5.214-2.17C84.226,71.669,85.179,71.863,86.073,72.25z"/>
		</g>
		<g>
			<path d="M113.218,71.669V83.47h5.896v2.957h-8.854V71.669H113.218z"/>
		</g>
		<g>
			<path fill="#FFFFFF" d="M146.521,71.669h2.957v14.758h-2.957V71.669z"/>
		</g>
		<rect x="163.146" y="63.467" fill="#FFFFFF" width="31.865" height="31.865"/>
		<rect x="195.012" y="63.467" width="31.863" height="31.865"/>
		<g>
			<path d="M179.826,71.669h3.69v2.948h-3.69v11.811h-2.957V74.617h-3.689v-2.948h3.689H179.826z"/>
		</g>
		<g>
			<path fill="#FFFFFF" d="M213.253,71.669h3.689v2.948h-3.689v11.811h-2.957V74.617h-3.689v-2.948h3.689H213.253z"/>
		</g>
		<rect x="226.875" y="63.467" fill="#FFFFFF" width="31.865" height="31.865"/>
		<rect x="258.74" y="63.467" width="31.863" height="31.865"/>
		<g>
			<path d="M246.571,71.669v2.948h-5.896v2.958h4.422v2.948h-4.422v2.948h5.896v2.957h-5.896h-2.957v-5.905v-2.948v-5.905H246.571z"
				/>
		</g>
		<g>
			<path fill="#FFFFFF" d="M270.396,81.996v-5.164v-5.164h2.957h2.207c1.422,0,2.639,0.506,3.652,1.52
				c1.014,1.013,1.52,2.228,1.52,3.644c0,1.099-0.313,2.086-0.938,2.962c-0.626,0.875-1.424,1.497-2.395,1.863l3.332,4.77h-3.607
				l-3.771-5.401v5.401h-2.957V81.996z M275.56,79.048c0.609,0,1.132-0.217,1.564-0.65c0.434-0.433,0.65-0.955,0.65-1.565
				c0-0.604-0.217-1.125-0.65-1.561c-0.433-0.437-0.955-0.655-1.564-0.655h-2.207v2.216v2.216H275.56z"/>
		</g>
		<rect x="290.604" y="63.467" fill="#FFFFFF" width="31.867" height="31.865"/>
		<rect x="322.471" y="63.467" width="31.863" height="31.865"/>
		<g>
			<path d="M303.604,84.322l-0.952,2.105h-0.503h-0.119h-1.904h-0.623l6.317-14.072l0.312-0.687l0.32,0.696l6.326,14.063h-0.622
				h-1.904h-0.129h-0.503l-0.943-2.115l-0.046-0.101h-4.98L303.604,84.322z M307.295,81.264l-1.154-2.582l-1.162,2.582H307.295z"/>
		</g>
		<rect x="354.334" y="63.467" fill="#FFFFFF" width="31.865" height="31.865"/>
		<g>
			<path d="M368.011,71.669h2.957v14.758h-2.957V71.669z"/>
		</g>
		<g>
			<path fill="#FFFFFF" d="M340.712,71.669h3.689v2.948h-3.689v11.811h-2.957V74.617h-3.689v-2.948h3.689H340.712z"/>
		</g>
	</g>
	<g>
		<path fill="#FFFFFF" d="M75.653,119.736h4.526v3.616h-4.526v14.487h-3.627v-14.487h-4.525v-3.616h4.525H75.653z"/>
		<path fill="#FFFFFF" d="M85.604,119.736v7.244h5.424v-7.244h3.627v18.104h-3.627v-7.244h-5.424v7.244h-3.628v-18.104H85.604z"/>
		<path fill="#FFFFFF" d="M107.167,119.736v3.616h-7.232v3.627h5.424v3.616h-5.424v3.616h7.232v3.627h-7.232h-3.628v-7.244v-3.616
			v-7.244H107.167z"/>
		<path fill="#FFFFFF" d="M119.183,135.256l-1.168,2.583h-0.617h-0.146h-2.336h-0.764l7.75-17.261l0.381-0.842l0.394,0.854
			l7.761,17.25h-0.764h-2.336h-0.158h-0.617l-1.156-2.594l-0.057-0.124h-6.109L119.183,135.256z M123.709,131.505l-1.415-3.167
			l-1.426,3.167H123.709z"/>
		<path fill="#FFFFFF" d="M142.015,129.63v-9.894h3.627v18.104l-10.859-9.905v9.905h-3.627v-18.104L142.015,129.63z"/>
		<path fill="#FFFFFF" d="M158.479,129.63v-9.894h3.628v18.104l-10.86-9.905v9.905h-3.628v-18.104L158.479,129.63z"/>
		<path fill="#FFFFFF" d="M178.569,119.736v7.244v3.616c0,1.999-0.709,3.706-2.128,5.121s-3.124,2.123-5.115,2.123
			c-1.999,0-3.706-0.708-5.121-2.123s-2.122-3.122-2.122-5.121v-3.616v-7.244h3.627v7.244v3.246v0.371
			c0,0.996,0.354,1.847,1.062,2.555c0.707,0.707,1.56,1.061,2.555,1.061c0.988,0,1.838-0.354,2.55-1.061
			c0.711-0.708,1.066-1.56,1.066-2.555v-0.371v-3.246v-7.244H178.569z"/>
		<path fill="#FFFFFF" d="M185.038,135.256l-1.168,2.583h-0.617h-0.146h-2.336h-0.764l7.75-17.261l0.381-0.842l0.394,0.854
			l7.761,17.25h-0.764h-2.336h-0.158h-0.617l-1.156-2.594l-0.057-0.124h-6.109L185.038,135.256z M189.564,131.505l-1.415-3.167
			l-1.426,3.167H189.564z"/>
		<path fill="#FFFFFF" d="M200.638,119.736v14.476h7.232v3.627h-10.859v-18.104H200.638z"/>
		<path fill="#FFFFFF" d="M225.974,119.736v3.616h-7.232v3.627h5.424v3.616h-5.424v3.616v3.627h-3.627v-7.244v-3.616v-7.244H225.974
			z"/>
		<path fill="#FFFFFF" d="M232.375,135.256l-1.168,2.583h-0.618h-0.146h-2.336h-0.764l7.749-17.261l0.382-0.842l0.394,0.854
			l7.76,17.25h-0.764h-2.336h-0.157h-0.618l-1.156-2.594l-0.057-0.124h-6.109L232.375,135.256z M236.901,131.505l-1.416-3.167
			l-1.426,3.167H236.901z"/>
		<path fill="#FFFFFF" d="M248.451,130.124c-0.542-0.187-1.119-0.483-1.729-0.887c-0.609-0.404-1.158-0.938-1.645-1.601
			c-0.487-0.662-0.73-1.488-0.73-2.476c0-1.49,0.531-2.767,1.595-3.83s2.343-1.595,3.841-1.595c1.49,0,2.767,0.532,3.83,1.595
			c1.063,1.063,1.594,2.34,1.594,3.83h-3.615c0-0.494-0.178-0.919-0.534-1.275c-0.355-0.355-0.78-0.533-1.274-0.533
			c-0.502,0-0.928,0.178-1.28,0.533c-0.353,0.356-0.528,0.781-0.528,1.275c0,0.644,0.261,1.132,0.781,1.465
			c0.52,0.333,0.915,0.538,1.185,0.612c0.128,0.045,0.474,0.15,1.039,0.314s1.16,0.438,1.785,0.82
			c0.626,0.382,1.188,0.896,1.69,1.544c0.502,0.647,0.752,1.477,0.752,2.487c0,1.498-0.531,2.778-1.594,3.841
			c-1.063,1.063-2.34,1.595-3.83,1.595c-1.498,0-2.777-0.532-3.841-1.595s-1.595-2.343-1.595-3.841h3.627
			c0,0.501,0.176,0.928,0.528,1.28s0.778,0.528,1.28,0.528c0.494,0,0.919-0.176,1.274-0.528c0.356-0.352,0.534-0.779,0.534-1.28
			c0-0.764-0.306-1.258-0.916-1.482c-0.609-0.225-1.023-0.378-1.24-0.46C249.321,130.423,248.994,130.311,248.451,130.124z"/>
		<path fill="#FFFFFF" d="M260.316,119.736v7.244h5.425v-7.244h3.627v18.104h-3.627v-7.244h-5.425v7.244h-3.628v-18.104H260.316z"/>
		<path fill="#FFFFFF" d="M271.019,119.736h3.628v18.104h-3.628V119.736z"/>
		<path fill="#FFFFFF" d="M291.997,122.397c1.775,1.774,2.662,3.904,2.662,6.39c0,2.493-0.887,4.625-2.662,6.396
			c-1.773,1.771-3.904,2.656-6.39,2.656c-2.493,0-4.625-0.885-6.396-2.656c-1.771-1.771-2.656-3.902-2.656-6.396
			c0-2.486,0.885-4.616,2.656-6.39c1.771-1.774,3.902-2.662,6.396-2.662C288.093,119.736,290.224,120.623,291.997,122.397z
			 M281.772,124.953c-1.06,1.066-1.59,2.345-1.59,3.835c0,1.498,0.53,2.776,1.59,3.835c1.059,1.06,2.338,1.589,3.835,1.589
			c1.489,0,2.769-0.53,3.835-1.589c1.067-1.059,1.601-2.337,1.601-3.835c0-1.49-0.533-2.769-1.601-3.835
			c-1.066-1.067-2.346-1.601-3.835-1.601C284.11,123.352,282.831,123.885,281.772,124.953z"/>
		<path fill="#FFFFFF" d="M306.575,129.63v-9.894h3.627v18.104l-10.859-9.905v9.905h-3.628v-18.104L306.575,129.63z"/>
		<path fill="#FFFFFF" d="M321.898,130.124c-0.542-0.187-1.119-0.483-1.729-0.887c-0.609-0.404-1.158-0.938-1.645-1.601
			c-0.487-0.662-0.73-1.488-0.73-2.476c0-1.49,0.531-2.767,1.595-3.83s2.343-1.595,3.841-1.595c1.49,0,2.767,0.532,3.83,1.595
			c1.063,1.063,1.594,2.34,1.594,3.83h-3.615c0-0.494-0.178-0.919-0.534-1.275c-0.355-0.355-0.78-0.533-1.274-0.533
			c-0.502,0-0.928,0.178-1.28,0.533c-0.353,0.356-0.528,0.781-0.528,1.275c0,0.644,0.261,1.132,0.781,1.465
			c0.52,0.333,0.915,0.538,1.185,0.612c0.128,0.045,0.474,0.15,1.039,0.314s1.16,0.438,1.785,0.82
			c0.626,0.382,1.188,0.896,1.69,1.544c0.502,0.647,0.752,1.477,0.752,2.487c0,1.498-0.531,2.778-1.594,3.841
			c-1.063,1.063-2.34,1.595-3.83,1.595c-1.498,0-2.777-0.532-3.841-1.595s-1.595-2.343-1.595-3.841h3.627
			c0,0.501,0.176,0.928,0.528,1.28s0.778,0.528,1.28,0.528c0.494,0,0.919-0.176,1.274-0.528c0.356-0.352,0.534-0.779,0.534-1.28
			c0-0.764-0.306-1.258-0.916-1.482c-0.609-0.225-1.023-0.378-1.24-0.46C322.769,130.423,322.441,130.311,321.898,130.124z"/>
		<path fill="#FFFFFF" d="M333.764,119.736v7.244h5.425v-7.244h3.627v18.104h-3.627v-7.244h-5.425v7.244h-3.628v-18.104H333.764z"/>
		<path fill="#FFFFFF" d="M359.908,122.397c1.774,1.774,2.661,3.904,2.661,6.39c0,2.493-0.887,4.625-2.661,6.396
			c-1.774,1.771-3.904,2.656-6.39,2.656c-2.494,0-4.625-0.885-6.396-2.656c-1.771-1.771-2.656-3.902-2.656-6.396
			c0-2.486,0.886-4.616,2.656-6.39c1.771-1.774,3.902-2.662,6.396-2.662C356.004,119.736,358.134,120.623,359.908,122.397z
			 M349.683,124.953c-1.059,1.066-1.589,2.345-1.589,3.835c0,1.498,0.53,2.776,1.589,3.835c1.06,1.06,2.338,1.589,3.836,1.589
			c1.489,0,2.768-0.53,3.835-1.589c1.066-1.059,1.601-2.337,1.601-3.835c0-1.49-0.534-2.769-1.601-3.835
			c-1.067-1.067-2.346-1.601-3.835-1.601C352.021,123.352,350.742,123.885,349.683,124.953z"/>
		<path fill="#FFFFFF" d="M367.175,119.736l3.335,8.198l3.335-8.198l3.336,8.198l3.324-8.198h3.908l-7.232,18.104l-3.369-8.412
			l-3.302,8.412l-7.232-18.104H367.175z"/>
	</g>
</g>
<g>
</g>
<g>
</g>
<g>
</g>
<g>
</g>
<g>
</g>
<g>
</g>
</svg>
