<?xml version="1.0" encoding="utf-8"?>
<!-- Generator: Adobe Illustrator 16.0.0, SVG Export Plug-In . SVG Version: 6.00 Build 0)  -->
<!DOCTYPE svg PUBLIC "-//W3C//DTD SVG 1.1//EN" "http://www.w3.org/Graphics/SVG/1.1/DTD/svg11.dtd">
<svg version="1.1" id="Layer_1" xmlns="http://www.w3.org/2000/svg" xmlns:xlink="http://www.w3.org/1999/xlink" x="0px" y="0px"
	 width="912.971px" height="300px" viewBox="0 0 912.971 300" enable-background="new 0 0 912.971 300" xml:space="preserve">
<g>
	<polygon fill="#D1D3D4" points="912.971,0 912.971,300 901.74,288.26 902.34,288.26 902.34,11.74 901.74,11.74 	"/>
	<polygon fill="#FFFFFF" points="912.971,300 0,300 11.23,288.26 901.74,288.26 	"/>
	<polygon fill="#D1D3D4" points="912.971,0 901.74,11.74 11.23,11.74 0,0 	"/>
	<polygon fill="#FFFFFF" points="10.641,288.26 11.23,288.26 0,300 0,0 11.23,11.74 10.641,11.74 	"/>
	<polygon fill="#E6E7E8" points="22.26,23.28 22.26,276.73 11.23,288.26 10.641,288.26 10.641,11.74 11.23,11.74 	"/>
	<polygon fill="#E6E7E8" points="901.74,288.26 11.23,288.26 22.26,276.73 890.711,276.73 	"/>
	<polygon fill="#F1F2F2" points="902.34,11.74 902.34,288.26 901.74,288.26 890.711,276.73 890.711,23.28 901.74,11.74 	"/>
	<rect x="22.26" y="23.28" fill="#00AEEF" width="868.451" height="253.45"/>
	<polygon fill="#F1F2F2" points="901.74,11.74 890.711,23.28 22.26,23.28 11.23,11.74 	"/>
	<g>
		<rect x="59.327" y="86.949" width="60.923" height="60.923"/>
		<rect x="120.25" y="86.949" fill="#FFFFFF" width="60.923" height="60.923"/>
		<g>
			<path fill="#FFFFFF" d="M85.019,99.081h7.279v36.33h-7.279V99.081z"/>
		</g>
		<g>
			<path d="M157.12,118.936V99.081h7.28v36.33l-21.794-19.878v19.878h-7.279v-36.33L157.12,118.936z"/>
		</g>
		<rect x="181.173" y="86.949" width="60.923" height="60.923"/>
		<rect x="242.096" y="86.949" fill="#FFFFFF" width="60.924" height="60.923"/>
		<g>
			<path fill="#FFFFFF" d="M221.918,100.512c2.201,0.954,4.136,2.25,5.804,3.888l-5.139,5.139c-2.163-2.134-4.732-3.201-7.708-3.201
				c-3.004,0-5.57,1.071-7.696,3.212c-2.126,2.141-3.189,4.707-3.189,7.696c0,3.005,1.063,5.57,3.189,7.696
				c2.126,2.126,4.691,3.189,7.696,3.189c3.006,0,5.574-1.067,7.708-3.201l5.139,5.139c-1.668,1.653-3.603,2.956-5.804,3.91
				s-4.549,1.431-7.043,1.431c-5.003,0-9.281-1.777-12.834-5.33s-5.33-7.832-5.33-12.835c0-4.988,1.777-9.263,5.33-12.824
				s7.832-5.341,12.834-5.341C217.37,99.081,219.717,99.558,221.918,100.512z"/>
		</g>
		<g>
			<path d="M266.75,130.227l-2.344,5.184h-1.239h-0.293h-4.688h-1.533l15.551-34.64l0.767-1.69l0.788,1.713l15.573,34.617H287.8
				h-4.688h-0.315h-1.239l-2.322-5.206l-0.112-0.248h-12.26L266.75,130.227z M275.833,122.7l-2.84-6.355l-2.862,6.355H275.833z"/>
		</g>
		<rect x="303.02" y="86.949" width="60.922" height="60.923"/>
		<rect x="363.941" y="86.949" fill="#FFFFFF" width="60.924" height="60.923"/>
		<g>
			<path fill="#FFFFFF" d="M340.351,118.936V99.081h7.279v36.33l-21.794-19.878v19.878h-7.279v-36.33L340.351,118.936z"/>
		</g>
		<g>
			<path d="M402.123,104.422c3.561,3.561,5.341,7.835,5.341,12.824c0,5.003-1.78,9.282-5.341,12.835
				c-3.562,3.553-7.836,5.33-12.824,5.33h-7.279v-36.33h7.279C394.287,99.081,398.561,100.861,402.123,104.422z M396.984,124.942
				c2.134-2.126,3.2-4.691,3.2-7.696c0-2.99-1.066-5.555-3.2-7.696s-4.695-3.212-7.686-3.212v21.794
				C392.289,128.131,394.85,127.068,396.984,124.942z"/>
		</g>
		<rect x="424.865" y="86.949" width="60.924" height="60.923"/>
		<rect x="546.711" y="86.949" width="60.924" height="60.923"/>
		<rect x="485.789" y="86.949" fill="#FFFFFF" width="60.922" height="60.923"/>
		<g>
			<path fill="#FFFFFF" d="M466.198,99.081v7.257h-14.515v7.28h10.886v7.257h-10.886v7.257h14.515v7.279h-14.515h-7.279v-14.537
				v-7.257V99.081H466.198z"/>
		</g>
		<g>
			<path d="M509.103,119.928c-1.09-0.376-2.246-0.969-3.471-1.781c-1.225-0.811-2.326-1.882-3.303-3.211s-1.465-2.986-1.465-4.969
				c0-2.99,1.066-5.552,3.201-7.686c2.133-2.133,4.703-3.2,7.707-3.2c2.99,0,5.553,1.067,7.686,3.2
				c2.133,2.134,3.201,4.695,3.201,7.686h-7.258c0-0.992-0.357-1.845-1.07-2.558c-0.715-0.714-1.566-1.071-2.559-1.071
				c-1.006,0-1.863,0.357-2.568,1.071c-0.707,0.713-1.061,1.566-1.061,2.558c0,1.292,0.523,2.272,1.566,2.941
				c1.045,0.668,1.838,1.078,2.379,1.229c0.254,0.09,0.949,0.3,2.084,0.631s2.328,0.879,3.584,1.645
				c1.254,0.767,2.385,1.799,3.391,3.099c1.008,1.299,1.512,2.963,1.512,4.992c0,3.005-1.068,5.574-3.201,7.708
				c-2.133,2.133-4.695,3.2-7.686,3.2c-3.004,0-5.574-1.067-7.707-3.2c-2.135-2.134-3.201-4.703-3.201-7.708h7.279
				c0,1.007,0.354,1.863,1.061,2.569c0.705,0.706,1.563,1.06,2.568,1.06c0.992,0,1.844-0.354,2.559-1.06
				c0.713-0.706,1.07-1.563,1.07-2.569c0-1.532-0.613-2.524-1.836-2.975c-1.225-0.451-2.055-0.759-2.492-0.924
				C510.849,120.528,510.19,120.303,509.103,119.928z"/>
		</g>
		<rect x="607.635" y="86.949" fill="#FFFFFF" width="60.924" height="60.923"/>
		<g>
			<path fill="#FFFFFF" d="M587.458,100.512c2.201,0.954,4.135,2.25,5.803,3.888l-5.139,5.139c-2.164-2.134-4.732-3.201-7.707-3.201
				c-3.006,0-5.57,1.071-7.697,3.212c-2.125,2.141-3.189,4.707-3.189,7.696c0,3.005,1.064,5.57,3.189,7.696
				c2.127,2.126,4.691,3.189,7.697,3.189c3.004,0,5.574-1.067,7.707-3.201l5.139,5.139c-1.668,1.653-3.602,2.956-5.803,3.91
				s-4.549,1.431-7.043,1.431c-5.004,0-9.281-1.777-12.836-5.33c-3.553-3.553-5.33-7.832-5.33-12.835
				c0-4.988,1.777-9.263,5.33-12.824c3.555-3.561,7.832-5.341,12.836-5.341C582.909,99.081,585.257,99.558,587.458,100.512z"/>
		</g>
		<rect x="668.559" y="86.949" width="60.922" height="60.923"/>
		<rect x="790.404" y="86.949" width="60.924" height="60.923"/>
		<rect x="729.48" y="86.949" fill="#FFFFFF" width="60.924" height="60.923"/>
		<g>
			<path fill="#FFFFFF" d="M705.89,118.936V99.081h7.279v36.33l-21.795-19.878v19.878h-7.279v-36.33L705.89,118.936z"/>
		</g>
		<g>
			<path d="M752.794,119.928c-1.088-0.376-2.246-0.969-3.471-1.781c-1.225-0.811-2.324-1.882-3.301-3.211s-1.465-2.986-1.465-4.969
				c0-2.99,1.066-5.552,3.199-7.686c2.135-2.133,4.703-3.2,7.709-3.2c2.99,0,5.551,1.067,7.684,3.2
				c2.135,2.134,3.201,4.695,3.201,7.686h-7.258c0-0.992-0.355-1.845-1.07-2.558c-0.713-0.714-1.566-1.071-2.557-1.071
				c-1.008,0-1.863,0.357-2.57,1.071c-0.705,0.713-1.059,1.566-1.059,2.558c0,1.292,0.521,2.272,1.566,2.941
				c1.043,0.668,1.836,1.078,2.377,1.229c0.256,0.09,0.951,0.3,2.086,0.631c1.133,0.331,2.328,0.879,3.582,1.645
				c1.256,0.767,2.385,1.799,3.393,3.099c1.006,1.299,1.51,2.963,1.51,4.992c0,3.005-1.066,5.574-3.201,7.708
				c-2.133,2.133-4.693,3.2-7.684,3.2c-3.006,0-5.574-1.067-7.709-3.2c-2.133-2.134-3.199-4.703-3.199-7.708h7.279
				c0,1.007,0.354,1.863,1.059,2.569c0.707,0.706,1.563,1.06,2.57,1.06c0.99,0,1.844-0.354,2.557-1.06
				c0.715-0.706,1.07-1.563,1.07-2.569c0-1.532-0.611-2.524-1.836-2.975s-2.055-0.759-2.49-0.924
				C754.542,120.528,753.884,120.303,752.794,119.928z"/>
		</g>
		<g>
			<path fill="#FFFFFF" d="M830.735,99.081v7.257h-14.514v7.28h10.885v7.257h-10.885v7.257h14.514v7.279h-14.514h-7.279v-14.537
				v-7.257V99.081H830.735z"/>
		</g>
		<g>
			<path d="M648.505,99.081v7.257h-14.514v7.28h10.885v7.257h-10.885v7.257h14.514v7.279h-14.514h-7.279v-14.537v-7.257V99.081
				H648.505z"/>
		</g>
	</g>
	<g>
		<rect x="59.326" y="147.872" fill="#FFFFFF" width="60.922" height="60.923"/>
		<rect x="120.248" y="147.872" width="60.924" height="60.923"/>
		<rect x="181.172" y="147.872" fill="#FFFFFF" width="60.924" height="60.923"/>
		<g>
		</g>
		<rect x="242.096" y="147.872" width="60.922" height="60.923"/>
		<rect x="303.018" y="147.872" fill="#FFFFFF" width="60.924" height="60.923"/>
		<rect x="729.48" y="147.872" width="60.922" height="60.923"/>
		<rect x="790.402" y="147.872" fill="#FFFFFF" width="60.924" height="60.923"/>
		<rect x="363.941" y="147.872" width="60.924" height="60.923"/>
		<rect x="485.787" y="147.872" width="60.924" height="60.923"/>
		<rect x="424.865" y="147.872" fill="#FFFFFF" width="60.922" height="60.923"/>
		<rect x="546.711" y="147.872" fill="#FFFFFF" width="60.924" height="60.923"/>
		<rect x="668.559" y="147.872" fill="#FFFFFF" width="60.924" height="60.923"/>
		<rect x="607.635" y="147.872" width="60.922" height="60.923"/>
		<g>
			<path d="M93.625,179.859v-19.855h7.28v36.33l-21.794-19.878v19.878h-7.279v-36.33L93.625,179.859z"/>
		</g>
		<g>
			<path fill="#FFFFFF" d="M147.14,161.003h7.279v36.33h-7.279V161.003z"/>
		</g>
		<g>
			<path d="M211.886,160.003h9.083v7.257h-9.083v29.073h-7.279V167.26h-9.083v-7.257h9.083H211.886z"/>
		</g>
		<g>
			<path d="M330.608,180.851c-1.089-0.377-2.246-0.97-3.471-1.781c-1.225-0.811-2.325-1.882-3.302-3.211
				c-0.977-1.33-1.465-2.986-1.465-4.97c0-2.99,1.066-5.552,3.2-7.686s4.703-3.2,7.708-3.2c2.99,0,5.552,1.066,7.685,3.2
				c2.134,2.134,3.201,4.695,3.201,7.686h-7.258c0-0.991-0.356-1.845-1.07-2.558c-0.714-0.715-1.566-1.071-2.558-1.071
				c-1.007,0-1.863,0.356-2.569,1.071c-0.706,0.713-1.06,1.566-1.06,2.558c0,1.292,0.522,2.272,1.566,2.94
				c1.044,0.669,1.837,1.078,2.378,1.229c0.255,0.09,0.95,0.301,2.085,0.631c1.134,0.331,2.328,0.879,3.583,1.646
				s2.385,1.8,3.392,3.099c1.007,1.3,1.511,2.964,1.511,4.992c0,3.006-1.067,5.574-3.201,7.708c-2.133,2.134-4.694,3.2-7.685,3.2
				c-3.005,0-5.574-1.066-7.708-3.2s-3.2-4.702-3.2-7.708h7.279c0,1.007,0.354,1.863,1.06,2.569s1.563,1.06,2.569,1.06
				c0.991,0,1.844-0.354,2.558-1.06s1.07-1.563,1.07-2.569c0-1.532-0.612-2.523-1.836-2.975c-1.225-0.451-2.055-0.759-2.491-0.924
				C332.355,181.451,331.698,181.226,330.608,180.851z"/>
		</g>
		<g>
			<path fill="#FFFFFF" d="M387.833,160.003h7.279v36.33h-7.279V160.003z"/>
		</g>
		<g>
			<path d="M452.497,160.003v29.051h14.514v7.279h-21.793v-36.33H452.497z"/>
		</g>
		<g>
			<path fill="#FFFFFF" d="M524.886,161.435c2.201,0.953,4.137,2.25,5.805,3.887l-5.139,5.139c-2.164-2.133-4.734-3.2-7.709-3.2
				c-3.004,0-5.57,1.071-7.695,3.212c-2.127,2.141-3.189,4.707-3.189,7.696c0,3.005,1.063,5.57,3.189,7.696
				c2.125,2.127,4.691,3.189,7.695,3.189c3.006,0,5.574-1.066,7.709-3.201l5.139,5.139c-1.668,1.653-3.604,2.957-5.805,3.91
				c-2.201,0.955-4.549,1.432-7.043,1.432c-5.002,0-9.281-1.777-12.834-5.33c-3.555-3.553-5.33-7.832-5.33-12.835
				c0-4.988,1.775-9.263,5.33-12.823c3.553-3.562,7.832-5.342,12.834-5.342C520.337,160.003,522.685,160.48,524.886,161.435z"/>
		</g>
		<g>
			<path d="M571.343,160.003v14.537h10.885v-14.537h7.279v36.33h-7.279v-14.537h-10.885v14.537h-7.279v-36.33H571.343z"/>
		</g>
		<g>
			<path d="M685.909,185.425v-12.711v-12.711h7.279h5.432c3.5,0,6.498,1.247,8.992,3.741s3.74,5.483,3.74,8.97
				c0,2.705-0.77,5.135-2.309,7.291c-1.541,2.156-3.506,3.685-5.895,4.586l8.203,11.742h-8.879l-9.285-13.297v13.297h-7.279V185.425
				z M698.62,178.168c1.502,0,2.787-0.533,3.854-1.601c1.066-1.066,1.6-2.352,1.6-3.854c0-1.487-0.533-2.768-1.6-3.842
				s-2.352-1.612-3.854-1.612h-5.432v5.454v5.454H698.62z"/>
		</g>
		<g>
			<path fill="#FFFFFF" d="M631.103,191.15l-2.344,5.184h-1.238h-0.293h-4.688h-1.533l15.551-34.64l0.766-1.69l0.789,1.713
				l15.572,34.617h-1.531h-4.688h-0.316h-1.238l-2.322-5.206l-0.113-0.248h-12.26L631.103,191.15z M640.187,183.623l-2.84-6.355
				l-2.863,6.355H640.187z"/>
		</g>
	</g>
</g>
<g>
</g>
<g>
</g>
<g>
</g>
<g>
</g>
<g>
</g>
<g>
</g>
</svg>
