<?xml version="1.0" encoding="utf-8"?>
<!-- Generator: Adobe Illustrator 16.0.0, SVG Export Plug-In . SVG Version: 6.00 Build 0)  -->
<!DOCTYPE svg PUBLIC "-//W3C//DTD SVG 1.1//EN" "http://www.w3.org/Graphics/SVG/1.1/DTD/svg11.dtd">
<svg version="1.1" id="Layer_1" xmlns="http://www.w3.org/2000/svg" xmlns:xlink="http://www.w3.org/1999/xlink" x="0px" y="0px"
	 width="912.971px" height="300px" viewBox="0 0 912.971 300" enable-background="new 0 0 912.971 300" xml:space="preserve">
<polygon fill="#D1D3D4" points="912.971,0 912.971,300 901.74,288.26 902.34,288.26 902.34,11.74 901.74,11.74 "/>
<polygon fill="#FFFFFF" points="912.971,300 0,300 11.23,288.26 901.74,288.26 "/>
<polygon fill="#D1D3D4" points="912.971,0 901.74,11.74 11.23,11.74 0,0 "/>
<polygon fill="#FFFFFF" points="10.641,288.26 11.23,288.26 0,300 0,0 11.23,11.74 10.641,11.74 "/>
<polygon fill="#E6E7E8" points="22.26,23.28 22.26,276.73 11.23,288.26 10.641,288.26 10.641,11.74 11.23,11.74 "/>
<polygon fill="#E6E7E8" points="901.74,288.26 11.23,288.26 22.26,276.73 890.711,276.73 "/>
<polygon fill="#F1F2F2" points="902.34,11.74 902.34,288.26 901.74,288.26 890.711,276.73 890.711,23.28 901.74,11.74 "/>
<rect x="22.26" y="23.28" fill="#00AEEF" width="868.451" height="253.45"/>
<polygon fill="#F1F2F2" points="901.74,11.74 890.711,23.28 22.26,23.28 11.23,11.74 "/>
<g>
	<rect x="59.327" y="150.005" width="60.923" height="60.923"/>
	<rect x="120.25" y="150.005" fill="#FFFFFF" width="60.923" height="60.923"/>
	<g>
		<path fill="#FFFFFF" d="M96.812,181.993v-19.855h7.28v36.33l-21.794-19.878v19.878h-7.279v-36.33L96.812,181.993z"/>
	</g>
	<g>
		<path d="M146.326,162.137h7.279v36.33h-7.279V162.137z"/>
	</g>
	<rect x="181.173" y="150.005" width="60.923" height="60.923"/>
	<rect x="242.096" y="150.005" fill="#FFFFFF" width="60.924" height="60.923"/>
	<g>
		<path fill="#FFFFFF" d="M213.073,162.137h9.083v7.257h-9.083v29.073h-7.279v-29.073h-9.083v-7.257h9.083H213.073z"/>
	</g>
	<rect x="303.02" y="150.005" width="60.922" height="60.923"/>
	<rect x="363.941" y="150.005" fill="#FFFFFF" width="60.924" height="60.923"/>
	<g>
		<path fill="#FFFFFF" d="M326.794,182.984c-1.089-0.375-2.246-0.969-3.471-1.78s-2.325-1.882-3.302-3.212
			c-0.977-1.329-1.465-2.986-1.465-4.969c0-2.99,1.066-5.552,3.2-7.686c2.134-2.133,4.703-3.2,7.708-3.2
			c2.99,0,5.552,1.067,7.685,3.2c2.134,2.134,3.201,4.695,3.201,7.686h-7.258c0-0.992-0.356-1.845-1.07-2.559
			c-0.714-0.713-1.566-1.07-2.558-1.07c-1.007,0-1.863,0.357-2.569,1.07c-0.706,0.714-1.06,1.566-1.06,2.559
			c0,1.292,0.522,2.272,1.566,2.941c1.044,0.668,1.837,1.078,2.378,1.229c0.255,0.09,0.95,0.3,2.085,0.631
			c1.134,0.33,2.328,0.879,3.583,1.645c1.255,0.767,2.385,1.799,3.392,3.1c1.007,1.299,1.511,2.963,1.511,4.991
			c0,3.005-1.067,5.574-3.201,7.708c-2.133,2.133-4.694,3.2-7.685,3.2c-3.005,0-5.574-1.067-7.708-3.2
			c-2.134-2.134-3.2-4.703-3.2-7.708h7.279c0,1.007,0.354,1.863,1.06,2.569s1.563,1.06,2.569,1.06c0.991,0,1.844-0.354,2.558-1.06
			s1.07-1.563,1.07-2.569c0-1.532-0.612-2.524-1.836-2.975c-1.225-0.45-2.055-0.759-2.491-0.925
			C328.542,183.585,327.884,183.36,326.794,182.984z"/>
	</g>
	<g>
		<path d="M389.019,162.137h7.279v36.33h-7.279V162.137z"/>
	</g>
	<rect x="424.865" y="150.005" width="60.924" height="60.923"/>
	<rect x="546.711" y="150.005" width="60.924" height="60.923"/>
	<rect x="485.789" y="150.005" fill="#FFFFFF" width="60.922" height="60.923"/>
	<g>
		<path fill="#FFFFFF" d="M451.683,162.137v29.051h14.515v7.279h-21.794v-36.33H451.683z"/>
	</g>
	<g>
		<path d="M525.073,163.568c2.201,0.955,4.135,2.25,5.803,3.889l-5.139,5.139c-2.164-2.135-4.732-3.201-7.707-3.201
			c-3.006,0-5.57,1.07-7.697,3.212c-2.125,2.142-3.189,4.706-3.189,7.696c0,3.005,1.064,5.57,3.189,7.696
			c2.127,2.126,4.691,3.189,7.697,3.189c3.004,0,5.574-1.067,7.707-3.2l5.139,5.139c-1.668,1.652-3.602,2.955-5.803,3.91
			c-2.201,0.953-4.549,1.431-7.043,1.431c-5.004,0-9.281-1.776-12.836-5.33c-3.553-3.554-5.33-7.831-5.33-12.835
			c0-4.988,1.777-9.263,5.33-12.824c3.555-3.561,7.832-5.341,12.836-5.341C520.524,162.137,522.872,162.615,525.073,163.568z"/>
	</g>
	<rect x="607.635" y="150.005" fill="#FFFFFF" width="60.924" height="60.923"/>
	<g>
		<path fill="#FFFFFF" d="M569.528,162.137v14.536h10.887v-14.536h7.279v36.33h-7.279v-14.536h-10.887v14.536h-7.279v-36.33H569.528
			z"/>
	</g>
	<rect x="668.559" y="150.005" width="60.922" height="60.923"/>
	<rect x="790.404" y="150.005" width="60.924" height="60.923"/>
	<rect x="729.48" y="150.005" fill="#FFFFFF" width="60.924" height="60.923"/>
	<g>
		<path fill="#FFFFFF" d="M684.095,187.559v-12.711v-12.711h7.279h5.432c3.502,0,6.498,1.247,8.992,3.741s3.742,5.484,3.742,8.97
			c0,2.704-0.77,5.135-2.311,7.291c-1.539,2.155-3.504,3.685-5.893,4.587l8.203,11.741h-8.881l-9.285-13.297v13.297h-7.279V187.559z
			 M696.806,180.302c1.504,0,2.787-0.533,3.854-1.6c1.068-1.067,1.602-2.352,1.602-3.854c0-1.487-0.533-2.769-1.602-3.843
			c-1.066-1.074-2.35-1.611-3.854-1.611h-5.432v5.454v5.454H696.806z"/>
	</g>
	<g>
		<path d="M632.29,193.284l-2.344,5.184h-1.24h-0.293h-4.688h-1.533l15.551-34.64l0.768-1.69l0.787,1.713l15.574,34.617h-1.533
			h-4.688h-0.314h-1.24l-2.322-5.206l-0.111-0.248h-12.26L632.29,193.284z M641.372,185.756l-2.84-6.355l-2.861,6.355H641.372z"/>
	</g>
</g>
<g>
	<rect x="59.326" y="89.083" fill="#FFFFFF" width="60.922" height="60.923"/>
	<rect x="120.248" y="89.083" width="60.924" height="60.923"/>
	<rect x="181.172" y="89.083" fill="#FFFFFF" width="60.924" height="60.923"/>
	<g>
	</g>
	<rect x="242.096" y="89.083" width="60.922" height="60.923"/>
	<rect x="303.018" y="89.083" fill="#FFFFFF" width="60.924" height="60.923"/>
	<rect x="729.48" y="89.083" width="60.922" height="60.923"/>
	<rect x="790.402" y="89.083" fill="#FFFFFF" width="60.924" height="60.923"/>
	<rect x="363.941" y="89.083" width="60.924" height="60.923"/>
	<rect x="485.787" y="89.083" width="60.924" height="60.923"/>
	<rect x="424.865" y="89.083" fill="#FFFFFF" width="60.922" height="60.923"/>
	<rect x="546.711" y="89.083" fill="#FFFFFF" width="60.924" height="60.923"/>
	<rect x="668.559" y="89.083" fill="#FFFFFF" width="60.924" height="60.923"/>
	<rect x="607.635" y="89.083" width="60.922" height="60.923"/>
	<g>
		<path d="M86.832,101.214h7.279v36.33h-7.279V101.214z"/>
	</g>
	<g>
		<path fill="#FFFFFF" d="M157.933,122.07v-19.855h7.28v36.33l-21.794-19.878v19.878h-7.279v-36.33L157.933,122.07z"/>
	</g>
	<g>
		<path d="M220.732,102.646c2.201,0.954,4.136,2.25,5.804,3.888l-5.139,5.139c-2.163-2.134-4.732-3.201-7.708-3.201
			c-3.004,0-5.57,1.071-7.696,3.212c-2.126,2.141-3.189,4.707-3.189,7.696c0,3.005,1.063,5.57,3.189,7.696
			c2.126,2.126,4.691,3.189,7.696,3.189c3.006,0,5.574-1.067,7.708-3.201l5.139,5.139c-1.668,1.653-3.603,2.956-5.804,3.91
			s-4.549,1.431-7.043,1.431c-5.003,0-9.281-1.777-12.834-5.33s-5.33-7.832-5.33-12.835c0-4.988,1.777-9.263,5.33-12.824
			s7.832-5.341,12.834-5.341C216.183,101.214,218.531,101.691,220.732,102.646z"/>
	</g>
	<g>
		<path d="M344.165,121.07v-19.855h7.279v36.33l-21.794-19.878v19.878h-7.279v-36.33L344.165,121.07z"/>
	</g>
	<g>
		<path fill="#FFFFFF" d="M268.135,132.361l-2.344,5.184h-1.239h-0.293h-4.688h-1.533l15.551-34.64l0.767-1.69l0.789,1.713
			l15.572,34.617h-1.532h-4.688h-0.315h-1.239l-2.322-5.206l-0.112-0.248h-12.26L268.135,132.361z M277.218,124.833l-2.84-6.355
			l-2.862,6.355H277.218z"/>
	</g>
	<g>
		<path fill="#FFFFFF" d="M401.123,106.556c3.561,3.561,5.341,7.835,5.341,12.824c0,5.003-1.78,9.282-5.341,12.835
			c-3.562,3.553-7.836,5.33-12.824,5.33h-7.279v-36.33h7.279C393.287,101.214,397.561,102.995,401.123,106.556z M395.984,127.076
			c2.134-2.126,3.2-4.691,3.2-7.696c0-2.99-1.066-5.555-3.2-7.696s-4.695-3.212-7.686-3.212v21.794
			C391.289,130.265,393.85,129.202,395.984,127.076z"/>
	</g>
	<g>
		<path d="M467.011,101.214v7.257h-14.514v7.28h10.885v7.257h-10.885v7.257h14.514v7.279h-14.514h-7.279v-14.537v-7.257v-14.537
			H467.011z"/>
	</g>
	<g>
		<path d="M830.735,101.214v7.257h-14.514v7.28h10.885v7.257h-10.885v7.257h14.514v7.279h-14.514h-7.279v-14.537v-7.257v-14.537
			H830.735z"/>
	</g>
	<g>
		<path fill="#FFFFFF" d="M512.915,122.062c-1.088-0.376-2.246-0.969-3.471-1.781c-1.225-0.811-2.324-1.882-3.301-3.211
			s-1.465-2.986-1.465-4.969c0-2.99,1.066-5.552,3.199-7.686c2.135-2.133,4.703-3.2,7.709-3.2c2.99,0,5.551,1.067,7.684,3.2
			c2.135,2.134,3.201,4.695,3.201,7.686h-7.258c0-0.992-0.355-1.845-1.07-2.558c-0.713-0.714-1.566-1.071-2.557-1.071
			c-1.008,0-1.863,0.357-2.57,1.071c-0.705,0.713-1.059,1.566-1.059,2.558c0,1.292,0.521,2.272,1.566,2.941
			c1.043,0.668,1.836,1.078,2.377,1.229c0.256,0.09,0.951,0.3,2.086,0.631c1.133,0.331,2.328,0.879,3.582,1.645
			c1.256,0.767,2.385,1.799,3.393,3.099c1.006,1.299,1.51,2.963,1.51,4.992c0,3.005-1.066,5.574-3.201,7.708
			c-2.133,2.133-4.693,3.2-7.684,3.2c-3.006,0-5.574-1.067-7.709-3.2c-2.133-2.134-3.199-4.703-3.199-7.708h7.279
			c0,1.007,0.354,1.863,1.059,2.569c0.707,0.706,1.563,1.06,2.57,1.06c0.99,0,1.844-0.354,2.557-1.06
			c0.715-0.706,1.07-1.563,1.07-2.569c0-1.532-0.611-2.524-1.836-2.975s-2.055-0.759-2.49-0.924
			C514.663,122.662,514.005,122.437,512.915,122.062z"/>
	</g>
	<g>
		<path fill="#FFFFFF" d="M758.403,122.062c-1.09-0.376-2.246-0.969-3.471-1.781c-1.225-0.811-2.326-1.882-3.303-3.211
			s-1.465-2.986-1.465-4.969c0-2.99,1.066-5.552,3.201-7.686c2.133-2.133,4.703-3.2,7.707-3.2c2.99,0,5.553,1.067,7.686,3.2
			c2.133,2.134,3.201,4.695,3.201,7.686h-7.258c0-0.992-0.357-1.845-1.07-2.558c-0.715-0.714-1.566-1.071-2.559-1.071
			c-1.006,0-1.863,0.357-2.568,1.071c-0.707,0.713-1.061,1.566-1.061,2.558c0,1.292,0.523,2.272,1.566,2.941
			c1.045,0.668,1.838,1.078,2.379,1.229c0.254,0.09,0.949,0.3,2.084,0.631s2.328,0.879,3.584,1.645
			c1.254,0.767,2.385,1.799,3.391,3.099c1.008,1.299,1.512,2.963,1.512,4.992c0,3.005-1.068,5.574-3.201,7.708
			c-2.133,2.133-4.695,3.2-7.686,3.2c-3.004,0-5.574-1.067-7.707-3.2c-2.135-2.134-3.201-4.703-3.201-7.708h7.279
			c0,1.007,0.354,1.863,1.061,2.569c0.705,0.706,1.563,1.06,2.568,1.06c0.992,0,1.844-0.354,2.559-1.06
			c0.713-0.706,1.07-1.563,1.07-2.569c0-1.532-0.613-2.524-1.836-2.975c-1.225-0.451-2.055-0.759-2.492-0.924
			C760.149,122.662,759.491,122.437,758.403,122.062z"/>
	</g>
	<g>
		<path d="M589.271,102.646c2.201,0.954,4.137,2.25,5.805,3.888l-5.139,5.139c-2.164-2.134-4.734-3.201-7.709-3.201
			c-3.004,0-5.57,1.071-7.695,3.212c-2.127,2.141-3.189,4.707-3.189,7.696c0,3.005,1.063,5.57,3.189,7.696
			c2.125,2.126,4.691,3.189,7.695,3.189c3.006,0,5.574-1.067,7.709-3.201l5.139,5.139c-1.668,1.653-3.604,2.956-5.805,3.91
			s-4.549,1.431-7.043,1.431c-5.002,0-9.281-1.777-12.834-5.33c-3.555-3.553-5.33-7.832-5.33-12.835
			c0-4.988,1.775-9.263,5.33-12.824c3.553-3.561,7.832-5.341,12.834-5.341C584.722,101.214,587.069,101.691,589.271,102.646z"/>
	</g>
	<g>
		<path d="M707.702,121.07v-19.855h7.279v36.33l-21.793-19.878v19.878h-7.279v-36.33L707.702,121.07z"/>
	</g>
	<g>
		<path fill="#FFFFFF" d="M643.319,101.214v7.257h-14.516v7.28h10.887v7.257h-10.887v7.257h14.516v7.279h-14.516h-7.279v-14.537
			v-7.257v-14.537H643.319z"/>
	</g>
</g>
<g>
</g>
<g>
</g>
<g>
</g>
<g>
</g>
<g>
</g>
<g>
</g>
</svg>
