<?xml version="1.0" encoding="utf-8"?>
<!-- Generator: Adobe Illustrator 16.0.0, SVG Export Plug-In . SVG Version: 6.00 Build 0)  -->
<!DOCTYPE svg PUBLIC "-//W3C//DTD SVG 1.1//EN" "http://www.w3.org/Graphics/SVG/1.1/DTD/svg11.dtd">
<svg version="1.1" id="Layer_1" xmlns="http://www.w3.org/2000/svg" xmlns:xlink="http://www.w3.org/1999/xlink" x="0px" y="0px"
	 width="100px" height="192px" viewBox="0 0 100 192" enable-background="new 0 0 100 192" xml:space="preserve">
<polygon fill="#EF4723" points="25.896,73.454 8.537,94.157 25.896,118.83 "/>
<polygon fill="#EF4723" points="25.896,118.83 0,118.83 8.537,94.157 "/>
<polygon fill="#FED195" points="0,118.83 25.896,118.83 8.537,144.354 "/>
<polygon fill="#F8BF79" points="8.537,144.354 21.627,138.967 25.896,118.83 "/>
<polygon fill="#F15A29" points="25.896,73.454 32.157,73.454 25.896,96.142 "/>
<polygon fill="#F15A29" points="38.752,73.454 38.752,105.255 61.465,73.454 "/>
<polygon fill="#F15A29" points="61.465,73.454 60.938,103.44 38.752,105.255 "/>
<polygon fill="#2E3192" points="32.157,73.454 30.306,98.27 25.896,96.142 "/>
<polygon fill="#F15A29" points="72.516,73.454 89.877,94.157 72.516,118.83 "/>
<polygon fill="#F15A29" points="72.516,118.83 98.414,118.83 89.877,94.157 "/>
<polygon fill="#FED195" points="98.414,118.83 72.516,118.83 89.877,144.354 "/>
<polygon fill="#F8BF79" points="89.877,144.354 76.785,138.967 72.516,118.83 "/>
<polygon fill="#F15A29" points="72.516,73.454 66.258,73.454 72.516,96.142 "/>
<polygon fill="#414042" points="25.896,63.745 18.498,64.946 18.498,53.035 "/>
<polygon fill="#414042" points="18.498,23.823 18.498,58.991 8.537,58.991 "/>
<polygon fill="#F15A29" points="18.498,23.823 84.801,23.823 84.801,15.882 "/>
<polygon fill="#EF4723" points="18.498,23.823 67.484,17.956 67.484,0 "/>
<polygon fill="#F15A29" points="18.498,23.823 25.896,1.136 67.484,0 "/>
<polygon fill="#414042" points="30.733,23.823 30.733,47.646 42.991,47.646 "/>
<polygon fill="#414042" points="64.025,41.974 51.648,62.842 84.801,58.991 "/>
<polygon fill="#454545" points="72.023,48.523 84.801,48.523 84.801,58.991 "/>
<polygon fill="#414042" points="63.1,30.425 48.947,34.731 64.025,41.974 "/>
<polygon fill="#754C29" points="0,179.238 0,192 36.862,192 "/>
<polygon fill="#754C29" points="12.949,168.461 12.949,183.722 36.862,168.461 "/>
<polygon fill="#7F542F" points="36.862,168.461 36.862,192 12.949,183.722 "/>
<polygon fill="#754C29" points="100,179.238 100,192 63.139,192 "/>
<polygon fill="#754C29" points="87.053,168.461 87.053,183.722 63.139,168.461 "/>
<polygon fill="#7F542F" points="63.139,168.461 63.139,192 87.053,183.722 "/>
<polygon fill="#2E3192" points="7.47,168.461 7.47,150.808 36.862,168.461 "/>
<polygon fill="#2C337C" points="7.47,150.808 50.107,114.647 36.862,168.461 "/>
<polygon fill="#2E3192" points="92.531,168.461 92.531,150.808 63.139,168.461 "/>
<polygon fill="#2C337C" points="92.531,150.808 50.107,114.647 63.139,168.461 "/>
<polygon fill="#2E3192" points="40.577,153.366 59.424,153.366 50.107,114.647 "/>
<polygon fill="#2E3192" points="21.627,138.967 50.107,114.647 30.306,98.27 "/>
<polygon fill="#2E3192" points="66.258,73.454 67.721,96.425 72.516,96.142 "/>
<polygon fill="#2E3192" points="76.375,137.039 50.107,114.647 67.721,96.425 "/>
<polygon fill="#2C337C" points="32.157,73.454 38.752,105.255 30.306,98.27 "/>
<polygon fill="#2E3192" points="32.157,73.454 38.752,73.454 38.752,105.255 "/>
<polygon fill="#2E3192" points="61.465,73.454 66.258,73.454 60.969,103.305 "/>
<polygon fill="#2C337C" points="66.258,73.454 67.721,96.425 60.969,103.305 "/>
<polygon fill="#2C337C" points="67.721,96.425 72.516,96.142 72.449,118.618 "/>
<polygon fill="#2C337C" points="38.752,105.255 60.969,103.518 50.107,114.647 "/>
<polygon fill="#2C337C" points="25.896,96.142 30.306,98.27 25.896,118.95 "/>
<polygon fill="#F8BF79" points="25.896,63.745 25.896,73.454 66.258,73.454 "/>
<polygon fill="#FED195" points="18.498,23.823 18.498,53.035 30.733,47.646 "/>
<polygon fill="#F8D2A2" points="18.498,23.823 30.733,23.823 30.733,47.646 "/>
<polygon fill="#F8D2A2" points="18.498,53.035 30.733,47.646 25.896,63.745 "/>
<polygon fill="#FED195" points="30.733,47.646 66.258,73.454 25.896,63.745 "/>
<polygon fill="#F8D2A2" points="30.733,47.646 60.662,47.646 51.648,62.842 "/>
<polygon fill="#F3C286" points="84.801,58.991 66.258,73.454 51.648,62.842 "/>
<polygon fill="#F8D2A2" points="30.733,23.823 84.801,23.823 38.051,38.046 "/>
<polygon fill="#F8D2A2" points="72.023,27.712 84.801,36.267 72.023,48.523 "/>
<polygon fill="#EFB773" points="72.023,48.523 87.502,33.501 87.502,48.523 "/>
<polygon fill="#FED195" points="38.051,38.046 48.947,34.731 64.025,41.974 "/>
<polygon fill="#FED195" points="42.991,47.646 64.025,41.974 60.662,47.646 "/>
<polygon fill="#F8D2A2" points="38.051,38.046 64.025,41.974 42.991,47.646 "/>
<polygon fill="#F8D2A2" points="63.1,30.425 72.023,48.523 64.025,41.974 "/>
<polygon fill="#FED195" points="63.1,30.425 72.023,27.712 72.023,48.523 "/>
</svg>
