<?xml version="1.0" encoding="utf-8"?>
<!-- Generator: Adobe Illustrator 16.0.0, SVG Export Plug-In . SVG Version: 6.00 Build 0)  -->
<!DOCTYPE svg PUBLIC "-//W3C//DTD SVG 1.1//EN" "http://www.w3.org/Graphics/SVG/1.1/DTD/svg11.dtd">
<svg version="1.1" id="Layer_1" xmlns="http://www.w3.org/2000/svg" xmlns:xlink="http://www.w3.org/1999/xlink" x="0px" y="0px"
	 width="963.88px" height="40.995px" viewBox="0 0 963.88 40.995" enable-background="new 0 0 963.88 40.995" xml:space="preserve">
<g>
	<path fill="#0090D8" d="M17.628,2.995h9.733v7.59h-9.733v30.41H9.827v-30.41H0.094v-7.59h9.733H17.628z"/>
	<path fill="#0090D8" d="M39.027,2.995V18.2h11.666V2.995h7.801v38h-7.801V25.79H39.027v15.205h-7.801v-38H39.027z"/>
	<path fill="#0090D8" d="M85.4,2.995v7.59H69.846V18.2h11.666v7.59H69.846v7.591H85.4v7.614H69.846h-7.801V25.79V18.2V2.995H85.4z"
		/>
	<path fill="#0090D8" d="M127.993,4.492c2.359,0.999,4.432,2.354,6.219,4.066l-5.507,5.375c-2.319-2.231-5.072-3.348-8.26-3.348
		c-3.22,0-5.97,1.12-8.248,3.36c-2.278,2.239-3.418,4.922-3.418,8.051c0,3.141,1.14,5.826,3.418,8.05
		c2.278,2.222,5.027,3.335,8.248,3.335c2.528,0,4.791-0.712,6.787-2.133c1.997-1.422,3.405-3.241,4.227-5.458h-11.014V18.2h11.014
		h4.517h3.551c0.256,1.195,0.386,2.459,0.386,3.796c0,5.232-1.908,9.705-5.724,13.423c-3.815,3.717-8.397,5.576-13.743,5.576
		c-5.362,0-9.946-1.859-13.754-5.576c-3.808-3.718-5.712-8.19-5.712-13.423c0-5.219,1.904-9.689,5.712-13.414
		c3.808-3.725,8.393-5.587,13.754-5.587C123.118,2.995,125.633,3.495,127.993,4.492z"/>
	<path fill="#0090D8" d="M142.182,29.585V16.29V2.995h7.801h5.821c3.751,0,6.964,1.304,9.637,3.913
		c2.672,2.609,4.009,5.736,4.009,9.382c0,2.829-0.825,5.371-2.476,7.626c-1.651,2.255-3.756,3.854-6.315,4.798l8.791,12.281h-9.516
		l-9.951-13.908v13.908h-7.801V29.585z M155.805,21.996c1.609,0,2.986-0.559,4.13-1.675c1.143-1.116,1.714-2.459,1.714-4.031
		c0-1.556-0.571-2.895-1.714-4.019c-1.144-1.124-2.521-1.686-4.13-1.686h-5.821v5.705v5.706H155.805z"/>
	<path fill="#0090D8" d="M183.266,35.572l-2.512,5.423h-1.328h-0.314h-5.023h-1.643L189.11,4.763l0.821-1.768l0.845,1.791
		l16.689,36.209h-1.642H200.8h-0.338h-1.328l-2.488-5.444l-0.12-0.26h-13.139L183.266,35.572z M192.999,27.698l-3.043-6.646
		l-3.067,6.646H192.999z"/>
	<path fill="#0090D8" d="M232.367,23.763V2.995h7.801v38l-23.355-20.791v20.791h-7.801v-38L232.367,23.763z"/>
	<path fill="#0090D8" d="M265.963,8.583c3.815,3.724,5.724,8.195,5.724,13.414c0,5.232-1.909,9.705-5.724,13.423
		c-3.816,3.717-8.396,5.576-13.743,5.576h-7.801v-38h7.801C257.566,2.995,262.147,4.858,265.963,8.583z M260.456,30.046
		c2.287-2.224,3.431-4.909,3.431-8.05c0-3.128-1.144-5.812-3.431-8.051c-2.285-2.24-5.031-3.36-8.236-3.36v22.795
		C255.424,33.381,258.17,32.268,260.456,30.046z"/>
	<path fill="#0090D8" d="M297.675,2.995v7.59h-15.554V18.2h11.666v7.59h-11.666v7.591h15.554v7.614h-15.554h-7.801V25.79V18.2V2.995
		H297.675z"/>
	<path fill="#0090D8" d="M310.004,24.799c-1.167-0.391-2.406-1.011-3.719-1.86c-1.313-0.849-2.492-1.969-3.538-3.36
		c-1.047-1.391-1.57-3.123-1.57-5.198c0-3.127,1.144-5.807,3.43-8.038c2.286-2.232,5.039-3.348,8.26-3.348
		c3.204,0,5.95,1.115,8.236,3.348c2.286,2.231,3.43,4.911,3.43,8.038h-7.777c0-1.038-0.383-1.929-1.147-2.675
		c-0.765-0.747-1.679-1.12-2.741-1.12c-1.079,0-1.997,0.374-2.753,1.12c-0.758,0.746-1.135,1.638-1.135,2.675
		c0,1.352,0.56,2.376,1.678,3.077c1.12,0.7,1.969,1.127,2.548,1.284c0.274,0.094,1.018,0.314,2.234,0.661
		c1.216,0.345,2.497,0.919,3.84,1.721c1.344,0.802,2.557,1.882,3.635,3.241c1.078,1.36,1.619,3.1,1.619,5.221
		c0,3.144-1.144,5.83-3.43,8.063c-2.286,2.23-5.032,3.348-8.236,3.348c-3.221,0-5.975-1.117-8.26-3.348
		c-2.286-2.232-3.43-4.919-3.43-8.063h7.801c0,1.055,0.377,1.95,1.135,2.688c0.757,0.737,1.675,1.107,2.753,1.107
		c1.063,0,1.976-0.37,2.741-1.107c0.764-0.738,1.147-1.634,1.147-2.688c0-1.602-0.656-2.639-1.969-3.112
		c-1.313-0.47-2.201-0.792-2.669-0.966C311.876,25.429,311.172,25.194,310.004,24.799z"/>
	<path fill="#0090D8" d="M345.254,2.995h9.734v7.59h-9.734v30.41h-7.801v-30.41h-9.733v-7.59h9.733H345.254z"/>
	<path fill="#0090D8" d="M381.194,35.572l-2.512,5.423h-1.329h-0.313h-5.024h-1.643l16.665-36.232l0.821-1.768l0.846,1.791
		l16.688,36.209h-1.642h-5.023h-0.338h-1.329l-2.487-5.444l-0.122-0.26h-13.139L381.194,35.572z M390.927,27.698l-3.043-6.646
		l-3.067,6.646H390.927z"/>
	<path fill="#0090D8" d="M430.295,23.763V2.995h7.801v38l-23.354-20.791v20.791h-7.802v-38L430.295,23.763z"/>
	<path fill="#0090D8" d="M465.703,23.763V2.995h7.801v38l-23.355-20.791v20.791h-7.801v-38L465.703,23.763z"/>
	<path fill="#0090D8" d="M508.909,2.995V18.2v7.59c0,4.197-1.524,7.779-4.575,10.75c-3.051,2.97-6.72,4.455-11.002,4.455
		c-4.299,0-7.971-1.485-11.015-4.455c-3.042-2.971-4.563-6.553-4.563-10.75V18.2V2.995h7.801V18.2v6.814v0.776
		c0,2.09,0.76,3.878,2.281,5.362c1.522,1.485,3.354,2.229,5.495,2.229c2.126,0,3.954-0.743,5.483-2.229
		c1.528-1.484,2.294-3.272,2.294-5.362v-0.776V18.2V2.995H508.909z"/>
	<path fill="#0090D8" d="M522.823,35.572l-2.513,5.423h-1.327h-0.315h-5.023h-1.643l16.665-36.232l0.822-1.768l0.845,1.791
		l16.688,36.209h-1.641h-5.025h-0.338h-1.327l-2.489-5.444l-0.12-0.26h-13.139L522.823,35.572z M532.556,27.698l-3.043-6.646
		l-3.066,6.646H532.556z"/>
	<path fill="#0090D8" d="M556.37,2.995v30.386h15.555v7.614h-23.355v-38H556.37z"/>
	<path fill="#0090D8" d="M614.518,4.492c2.357,0.999,4.431,2.354,6.219,4.066l-5.507,5.375c-2.318-2.231-5.072-3.348-8.261-3.348
		c-3.221,0-5.97,1.12-8.248,3.36c-2.278,2.239-3.419,4.922-3.419,8.051c0,3.141,1.141,5.826,3.419,8.05
		c2.278,2.222,5.027,3.335,8.248,3.335s5.976-1.116,8.261-3.348l5.507,5.376c-1.788,1.727-3.861,3.09-6.219,4.088
		c-2.36,0.999-4.877,1.498-7.549,1.498c-5.36,0-9.946-1.859-13.755-5.576c-3.807-3.718-5.712-8.19-5.712-13.423
		c0-5.219,1.905-9.689,5.712-13.414c3.809-3.725,8.395-5.587,13.755-5.587C609.641,2.995,612.157,3.495,614.518,4.492z"/>
	<path fill="#0090D8" d="M654.67,2.995V18.2v7.59c0,4.197-1.526,7.779-4.578,10.75c-3.051,2.97-6.717,4.455-10.999,4.455
		c-4.301,0-7.97-1.485-11.014-4.455c-3.044-2.971-4.566-6.553-4.566-10.75V18.2V2.995h7.803V18.2v6.814v0.776
		c0,2.09,0.759,3.878,2.282,5.362c1.521,1.485,3.354,2.229,5.495,2.229c2.124,0,3.95-0.743,5.48-2.229
		c1.531-1.484,2.295-3.272,2.295-5.362v-0.776V18.2V2.995H654.67z"/>
	<path fill="#0090D8" d="M666.117,2.995v30.386h15.555v7.614h-23.354v-38H666.117z"/>
	<path fill="#0090D8" d="M702.708,2.995h9.733v7.59h-9.733v30.41h-7.8v-30.41h-9.733v-7.59h9.733H702.708z"/>
	<path fill="#0090D8" d="M747.463,2.995V18.2v7.59c0,4.197-1.525,7.779-4.576,10.75c-3.052,2.97-6.719,4.455-11.002,4.455
		c-4.299,0-7.972-1.485-11.015-4.455c-3.042-2.971-4.563-6.553-4.563-10.75V18.2V2.995h7.799V18.2v6.814v0.776
		c0,2.09,0.763,3.878,2.284,5.362c1.521,1.485,3.352,2.229,5.494,2.229c2.125,0,3.952-0.743,5.483-2.229
		c1.53-1.484,2.293-3.272,2.293-5.362v-0.776V18.2V2.995H747.463z"/>
	<path fill="#0090D8" d="M751.111,29.585V16.29V2.995h7.8h5.821c3.753,0,6.963,1.304,9.635,3.913
		c2.674,2.609,4.011,5.736,4.011,9.382c0,2.829-0.824,5.371-2.476,7.626c-1.65,2.255-3.756,3.854-6.315,4.798l8.791,12.281h-9.518
		l-9.949-13.908v13.908h-7.8V29.585z M764.732,21.996c1.608,0,2.986-0.559,4.128-1.675c1.145-1.116,1.717-2.459,1.717-4.031
		c0-1.556-0.572-2.895-1.717-4.019c-1.142-1.124-2.52-1.686-4.128-1.686h-5.821v5.705v5.706H764.732z"/>
	<path fill="#0090D8" d="M792.192,35.572l-2.512,5.423h-1.327h-0.314h-5.023h-1.643l16.665-36.232l0.82-1.768l0.847,1.791
		l16.688,36.209h-1.642h-5.024h-0.337h-1.328l-2.489-5.444l-0.119-0.26h-13.14L792.192,35.572z M801.927,27.698l-3.044-6.646
		l-3.067,6.646H801.927z"/>
	<path fill="#0090D8" d="M825.74,2.995v30.386h15.554v7.614h-23.354v-38H825.74z"/>
	<path fill="#0090D8" d="M880.228,2.995v7.59h-15.552V18.2h11.664v7.59h-11.664v7.591v7.614h-7.804V25.79V18.2V2.995H880.228z"/>
	<path fill="#0090D8" d="M907.086,2.995v7.59h-15.554V18.2h11.666v7.59h-11.666v7.591h15.554v7.614h-15.554h-7.803V25.79V18.2V2.995
		H907.086z"/>
	<path fill="#0090D8" d="M919.416,24.799c-1.17-0.391-2.406-1.011-3.721-1.86c-1.313-0.849-2.491-1.969-3.538-3.36
		c-1.048-1.391-1.568-3.123-1.568-5.198c0-3.127,1.141-5.807,3.428-8.038c2.286-2.232,5.04-3.348,8.261-3.348
		c3.204,0,5.95,1.115,8.236,3.348c2.285,2.231,3.431,4.911,3.431,8.038h-7.778c0-1.038-0.383-1.929-1.147-2.675
		c-0.766-0.747-1.679-1.12-2.741-1.12c-1.078,0-1.997,0.374-2.754,1.12c-0.758,0.746-1.135,1.638-1.135,2.675
		c0,1.352,0.559,2.376,1.679,3.077c1.12,0.7,1.969,1.127,2.549,1.284c0.271,0.094,1.017,0.314,2.232,0.661
		c1.216,0.345,2.496,0.919,3.841,1.721c1.344,0.802,2.556,1.882,3.637,3.241c1.076,1.36,1.618,3.1,1.618,5.221
		c0,3.144-1.146,5.83-3.431,8.063c-2.286,2.23-5.032,3.348-8.236,3.348c-3.221,0-5.975-1.117-8.261-3.348
		c-2.287-2.232-3.428-4.919-3.428-8.063h7.8c0,1.055,0.377,1.95,1.135,2.688c0.757,0.737,1.676,1.107,2.754,1.107
		c1.063,0,1.976-0.37,2.741-1.107c0.765-0.738,1.147-1.634,1.147-2.688c0-1.602-0.654-2.639-1.971-3.112
		c-1.312-0.47-2.199-0.792-2.668-0.966C921.287,25.429,920.584,25.194,919.416,24.799z"/>
	<path fill="#0090D8" d="M954.665,2.995h9.733v7.59h-9.733v30.41h-7.801v-30.41h-9.733v-7.59h9.733H954.665z"/>
</g>
</svg>
