<?xml version="1.0" encoding="utf-8"?>
<!-- Generator: Adobe Illustrator 16.0.0, SVG Export Plug-In . SVG Version: 6.00 Build 0)  -->
<!DOCTYPE svg PUBLIC "-//W3C//DTD SVG 1.1//EN" "http://www.w3.org/Graphics/SVG/1.1/DTD/svg11.dtd">
<svg version="1.1" id="Layer_1" xmlns="http://www.w3.org/2000/svg" xmlns:xlink="http://www.w3.org/1999/xlink" x="0px" y="0px"
	 width="90px" height="90px" viewBox="0 0 90 90" enable-background="new 0 0 90 90" xml:space="preserve">
<g>
	<g>
		<polygon fill="#F8ED34" points="90,0 90,90 45,45 		"/>
		<polygon fill="#F8ED34" points="45,45 0,90 0,0 		"/>
	</g>
	<polygon fill="#F8D134" points="90,90 0,90 45,45 	"/>
	<polygon fill="#F8D134" points="90,0 45,45 0,0 	"/>
	<circle fill="#FDEB9B" cx="45" cy="44.999" r="36.455"/>
	<g>
		<path fill="#DE9527" d="M39.318,53.785l-0.067-1.756c-0.202-3.442,0.945-6.955,3.984-10.601c2.159-2.565,3.916-4.727,3.916-7.022
			c0-2.362-1.555-3.916-4.931-4.051c-2.228,0-4.929,0.811-6.684,2.026l-2.296-7.36c2.431-1.418,6.48-2.769,11.274-2.769
			c8.913,0,12.965,4.929,12.965,10.532c0,5.133-3.174,8.509-5.739,11.344c-2.498,2.769-3.511,5.401-3.443,8.439v1.215h-8.979V53.785
			z M37.563,63.103c0-3.578,2.498-6.144,6.01-6.144c3.646,0,6.01,2.565,6.077,6.144c0,3.511-2.432,6.146-6.077,6.146
			C39.994,69.248,37.563,66.614,37.563,63.103z"/>
	</g>
</g>
<g>
</g>
<g>
</g>
<g>
</g>
<g>
</g>
<g>
</g>
<g>
</g>
</svg>
