<?xml version="1.0" encoding="utf-8"?>
<!-- Generator: Adobe Illustrator 16.0.0, SVG Export Plug-In . SVG Version: 6.00 Build 0)  -->
<!DOCTYPE svg PUBLIC "-//W3C//DTD SVG 1.1//EN" "http://www.w3.org/Graphics/SVG/1.1/DTD/svg11.dtd">
<svg version="1.1" id="Layer_1" xmlns="http://www.w3.org/2000/svg" xmlns:xlink="http://www.w3.org/1999/xlink" x="0px" y="0px"
	 width="320px" height="240px" viewBox="0 0 320 240" enable-background="new 0 0 320 240" xml:space="preserve">
<g>
	
		<path fill-rule="evenodd" clip-rule="evenodd" fill="none" stroke="#000000" stroke-width="2" stroke-linecap="round" stroke-linejoin="round" stroke-miterlimit="10" d="
		M227.024,81.277c0.06,0.2,0.12,0.4,0.18,0.6"/>
	
		<path fill-rule="evenodd" clip-rule="evenodd" fill="none" stroke="#000000" stroke-width="2" stroke-linecap="round" stroke-linejoin="round" stroke-miterlimit="10" d="
		M228.225,87.758c0.521,2.624,1.375,5.2,1.254,7.919c-0.202,4.542-2.182,7.405-6.601,8.86c-2.006,0.661-4.103,1.036-6.232,0.85
		c-3.276-0.287-6.219-1.273-8.172-4.182c-0.118-0.176-0.39-0.248-0.589-0.368"/>
	
		<path fill-rule="evenodd" clip-rule="evenodd" fill="none" stroke="#000000" stroke-width="2" stroke-linecap="round" stroke-linejoin="round" stroke-miterlimit="10" d="
		M124.364,102.758c-5.341,1.208-9.645,3.721-11.514,9.242c-0.765,2.257-0.516,4.461,0.193,6.731c0.728,2.329,3.056,2.263,4.333,0.92
		c1.29-1.357,2.52-2.832,3.467-4.437c1.361-2.305,2.441-4.776,3.641-7.176"/>
	
		<path fill-rule="evenodd" clip-rule="evenodd" fill="none" stroke="#000000" stroke-width="2" stroke-linecap="round" stroke-linejoin="round" stroke-miterlimit="10" d="
		M84.044,154.838c-5.341,1.208-9.645,3.721-11.514,9.241c-0.765,2.258-0.516,4.462,0.193,6.731c0.728,2.329,3.056,2.263,4.332,0.92
		c1.29-1.356,2.521-2.832,3.468-4.438c1.36-2.305,2.441-4.775,3.641-7.176"/>
	
		<path fill-rule="evenodd" clip-rule="evenodd" fill="none" stroke="#000000" stroke-width="2" stroke-linecap="round" stroke-linejoin="round" stroke-miterlimit="10" d="
		M139.364,143.317c1.48-0.24,2.984-0.382,4.436-0.737c5.026-1.231,9.296-3.755,11.317-8.658c1.549-3.758,0.209-6.245-4-7.255
		c-3.639-0.874-7.03,0.351-10.302,1.796c-1.386,0.611-2.651,1.494-3.971,2.255"/>
	
		<path fill-rule="evenodd" clip-rule="evenodd" fill="none" stroke="#000000" stroke-width="2" stroke-linecap="round" stroke-linejoin="round" stroke-miterlimit="10" d="
		M225.044,76.058c-2.624,0.259-4.911,1.426-6.935,2.973c-2.756,2.106-4.564,4.925-4.652,8.489c-0.037,1.472,0.284,3.049,0.843,4.416
		c0.733,1.796,2.57,2.013,3.992,0.473c1.35-1.461,2.597-3.075,3.592-4.794c1.287-2.223,2.28-4.616,3.4-6.936"/>
	
		<path fill-rule="evenodd" clip-rule="evenodd" fill="none" stroke="#000000" stroke-width="2" stroke-linecap="round" stroke-linejoin="round" stroke-miterlimit="10" d="
		M117.884,145.958c-4.493,0.908-8.248,2.985-10.535,7.094c-1.578,2.833-1.585,5.867-0.371,8.86c0.637,1.569,2.251,1.836,3.696,0.712
		c2.1-1.634,3.343-3.941,4.556-6.234c0.953-1.802,1.774-3.672,2.654-5.512"/>
	
		<path fill-rule="evenodd" clip-rule="evenodd" fill="none" stroke="#000000" stroke-width="2" stroke-linecap="round" stroke-linejoin="round" stroke-miterlimit="10" d="
		M220.364,120.277c-0.083-0.466-0.167-0.933-0.256-1.431c-2.069-0.084-3.618,0.858-4.885,2.17c-2.607,2.704-4.143,5.989-4.687,9.703
		c-0.311,2.121,1.13,4.457,2.992,4.622c1.133,0.101,2.414-0.12,3.458-0.582c4.846-2.145,8.604-5.488,10.817-10.402"/>
	
		<path fill-rule="evenodd" clip-rule="evenodd" fill="none" stroke="#000000" stroke-width="2" stroke-linecap="round" stroke-linejoin="round" stroke-miterlimit="10" d="
		M258.164,111.638c0.947,0.971,0.823,2.319,1.171,3.489c0.945,3.174,1.754,6.39,2.608,9.591c0.743,2.786,0.003,5.231-1.739,7.439"/>
	
		<path fill-rule="evenodd" clip-rule="evenodd" fill="none" stroke="#000000" stroke-width="2" stroke-linecap="round" stroke-linejoin="round" stroke-miterlimit="10" d="
		M258.765,133.478c-1.812,1.623-4.068,2.188-6.362,2.631c-1.638,0.315-3.289,0.374-4.918-0.11"/>
	
		<path fill-rule="evenodd" clip-rule="evenodd" fill="none" stroke="#000000" stroke-width="2" stroke-linecap="round" stroke-linejoin="round" stroke-miterlimit="10" d="
		M103.244,165.157c-0.32-1.92-0.546-3.861-0.983-5.754c-0.541-2.343-1.204-4.662-1.927-6.956c-0.233-0.741-0.361-1.717-1.695-2.038
		c-0.675,0.991-1.543,1.979-2.083,3.124c-0.993,2.106-1.792,4.305-2.672,6.465"/>
	
		<path fill-rule="evenodd" clip-rule="evenodd" fill="none" stroke="#000000" stroke-width="2" stroke-linecap="round" stroke-linejoin="round" stroke-miterlimit="10" d="
		M93.104,165.518c0.02,0.76,0.04,1.52,0.06,2.28"/>
	
		<path fill-rule="evenodd" clip-rule="evenodd" fill="none" stroke="#000000" stroke-width="2" stroke-linecap="round" stroke-linejoin="round" stroke-miterlimit="10" d="
		M210.284,95.078c-0.319-1.92-0.547-3.862-0.983-5.754c-0.541-2.343-1.204-4.662-1.927-6.956c-0.233-0.742-0.36-1.716-1.695-2.038
		c-0.675,0.992-1.543,1.98-2.082,3.124c-0.993,2.107-1.792,4.305-2.672,6.465"/>
	
		<path fill-rule="evenodd" clip-rule="evenodd" fill="none" stroke="#000000" stroke-width="2" stroke-linecap="round" stroke-linejoin="round" stroke-miterlimit="10" d="
		M200.145,95.438c0.02,0.76,0.04,1.52,0.06,2.28"/>
	
		<path fill-rule="evenodd" clip-rule="evenodd" fill="none" stroke="#000000" stroke-width="2" stroke-linecap="round" stroke-linejoin="round" stroke-miterlimit="10" d="
		M97.844,100.357c-0.48,1.84-1.012,3.668-1.429,5.523c-0.798,3.551-1.529,7.118-2.292,10.677c-0.553,2.581-0.559,5.186-0.359,7.8"/>
	
		<path fill-rule="evenodd" clip-rule="evenodd" fill="none" stroke="#000000" stroke-width="2" stroke-linecap="round" stroke-linejoin="round" stroke-miterlimit="10" d="
		M187.484,126.037c0,0.08-0.02,0.225,0.003,0.231c2.573,0.77,3.115,3.047,3.556,5.178c0.978,4.731-1.063,9.1-4.778,11.48
		c-1.697,1.087-3.591,1.896-5.743,1.485c-0.179-0.033-0.397,0.146-0.597,0.226"/>
	
		<path fill-rule="evenodd" clip-rule="evenodd" fill="none" stroke="#000000" stroke-width="2" stroke-linecap="round" stroke-linejoin="round" stroke-miterlimit="10" d="
		M81.165,107.317c0.44,2.08,0.914,4.153,1.311,6.242c0.478,2.513,0.929,5.032,1.317,7.56c0.373,2.432,0.662,4.877,0.961,7.319
		c0.053,0.432-0.029,0.879-0.05,1.319"/>
	
		<path fill-rule="evenodd" clip-rule="evenodd" fill="none" stroke="#000000" stroke-width="2" stroke-linecap="round" stroke-linejoin="round" stroke-miterlimit="10" d="
		M98.685,100.837c0.68,1.36,1.36,2.72,2.04,4.08"/>
	
		<path fill-rule="evenodd" clip-rule="evenodd" fill="none" stroke="#000000" stroke-width="2" stroke-linecap="round" stroke-linejoin="round" stroke-miterlimit="10" d="
		M103.004,109.478c0.64,1.08,1.28,2.16,1.92,3.24"/>
	
		<path fill-rule="evenodd" clip-rule="evenodd" fill="none" stroke="#000000" stroke-width="2" stroke-linecap="round" stroke-linejoin="round" stroke-miterlimit="10" d="
		M177.044,96.638c-1.006,2.632-2.747,4.761-4.82,6.576c-2.156,1.888-4.532,3.468-7.417,4.113c-2.481,0.555-3.566,0.161-4.411-2.061
		c-0.555-1.458-0.491-3.053,0.007-4.535c0.189-0.563,0.292-1.161,0.492-1.673c1.098-2.817,2.688-5.326,5.231-7.097
		c1.331-0.926,2.767-1.208,4.318-0.603"/>
	
		<path fill-rule="evenodd" clip-rule="evenodd" fill="none" stroke="#000000" stroke-width="2" stroke-linecap="round" stroke-linejoin="round" stroke-miterlimit="10" d="
		M174.885,117.397c-0.301,1.272,0.531,2.307,0.738,3.477c0.546,3.09,1.226,6.156,1.769,9.246c0.482,2.749,0.815,5.524,1.3,8.272
		c0.118,0.672,0.573,1.285,0.873,1.925"/>
	
		<path fill-rule="evenodd" clip-rule="evenodd" fill="none" stroke="#000000" stroke-width="2" stroke-linecap="round" stroke-linejoin="round" stroke-miterlimit="10" d="
		M194.084,116.438c1.51,5.381,1.989,10.935,2.774,16.438c0.229,1.612,0.673,3.194,0.928,4.805c0.143,0.903,0.099,1.837,0.139,2.757"
		/>
	
		<path fill-rule="evenodd" clip-rule="evenodd" fill="none" stroke="#000000" stroke-width="2" stroke-linecap="round" stroke-linejoin="round" stroke-miterlimit="10" d="
		M81.524,106.478c0.36,0.32,0.881,0.57,1.056,0.971c2.298,5.266,5.672,9.896,8.68,14.739c0.613,0.987,1.425,1.851,2.145,2.771"/>
	
		<path fill-rule="evenodd" clip-rule="evenodd" fill="none" stroke="#000000" stroke-width="2" stroke-linecap="round" stroke-linejoin="round" stroke-miterlimit="10" d="
		M134.504,104.078c-0.26,0.8-0.52,1.6-0.78,2.4"/>
	
		<path fill-rule="evenodd" clip-rule="evenodd" fill="none" stroke="#000000" stroke-width="2" stroke-linecap="round" stroke-linejoin="round" stroke-miterlimit="10" d="
		M133.185,112.238c0.14,1.24,0.28,2.48,0.42,3.72"/>
	
		<path fill-rule="evenodd" clip-rule="evenodd" fill="none" stroke="#000000" stroke-width="2" stroke-linecap="round" stroke-linejoin="round" stroke-miterlimit="10" d="
		M162.944,141.998c0.26,1.999,0.504,4.002,0.796,5.997c0.049,0.337,0.304,0.643,0.464,0.963"/>
	
		<path fill-rule="evenodd" clip-rule="evenodd" fill="none" stroke="#000000" stroke-width="2" stroke-linecap="round" stroke-linejoin="round" stroke-miterlimit="10" d="
		M142.244,87.638c0.12,1.32,0.152,2.655,0.377,3.957c0.589,3.409,1.244,6.807,1.914,10.201c0.208,1.054,0.549,2.083,0.829,3.122"/>
	
		<path fill-rule="evenodd" clip-rule="evenodd" fill="none" stroke="#000000" stroke-width="2" stroke-linecap="round" stroke-linejoin="round" stroke-miterlimit="10" d="
		M145.844,111.518c0.04-0.52,0.182-1.057,0.101-1.557c-0.223-1.37-0.541-2.723-0.82-4.083"/>
	
		<path fill-rule="evenodd" clip-rule="evenodd" fill="none" stroke="#000000" stroke-width="2" stroke-linecap="round" stroke-linejoin="round" stroke-miterlimit="10" d="
		M145.964,105.158c2.48,1.08,4.96,2.16,7.44,3.24"/>
	
		<path fill-rule="evenodd" clip-rule="evenodd" fill="none" stroke="#000000" stroke-width="2" stroke-linecap="round" stroke-linejoin="round" stroke-miterlimit="10" d="
		M154.964,109.178c0.6,0.22,1.2,0.44,1.8,0.66"/>
	
		<path fill-rule="evenodd" clip-rule="evenodd" fill="none" stroke="#000000" stroke-width="2" stroke-linecap="round" stroke-linejoin="round" stroke-miterlimit="10" d="
		M187.484,126.397c-2.518,0.245-3.615,2.09-4.555,4.082c-1.353,2.865-1.999,5.951-2.766,8.998"/>
	
		<path fill-rule="evenodd" clip-rule="evenodd" fill="none" stroke="#000000" stroke-width="2" stroke-linecap="round" stroke-linejoin="round" stroke-miterlimit="10" d="
		M170.925,134.558c-0.24,0.46-0.59,0.895-0.703,1.384c-0.841,3.627-2.102,7.109-3.644,10.484c-0.52,1.138-1.32,2.156-2.494,2.771"/>
	
		<path fill-rule="evenodd" clip-rule="evenodd" fill="none" stroke="#000000" stroke-width="2" stroke-linecap="round" stroke-linejoin="round" stroke-miterlimit="10" d="
		M248.925,110.438c0.319,0.92,0.83,1.822,0.921,2.764c0.204,2.108,0.146,4.24,0.298,6.355c0.099,1.368,0.31,2.738,0.614,4.074
		c0.13,0.568,0.629,1.053,0.912,1.5c1.475-0.355,1.695-1.484,2.029-2.401c1.185-3.256,2.256-6.554,3.395-9.827
		c0.169-0.485,0.471-0.924,0.711-1.384"/>
	
		<path fill-rule="evenodd" clip-rule="evenodd" fill="none" stroke="#000000" stroke-width="2" stroke-linecap="round" stroke-linejoin="round" stroke-miterlimit="10" d="
		M202.965,122.678c0.279,1.16,0.556,2.321,0.84,3.479c0.678,2.761,1.391,5.514,2.02,8.285c0.166,0.732,0.57,1.549-0.1,2.275"/>
	
		<path fill-rule="evenodd" clip-rule="evenodd" fill="none" stroke="#000000" stroke-width="2" stroke-linecap="round" stroke-linejoin="round" stroke-miterlimit="10" d="
		M191.444,84.277c0.28,1.16,0.557,2.321,0.841,3.48c0.678,2.761,1.39,5.513,2.019,8.285c0.166,0.733,0.57,1.548-0.1,2.275"/>
	
		<path fill-rule="evenodd" clip-rule="evenodd" fill="none" stroke="#000000" stroke-width="2" stroke-linecap="round" stroke-linejoin="round" stroke-miterlimit="10" d="
		M230.564,115.238c0.28,1.16,0.556,2.321,0.841,3.479c0.678,2.761,1.39,5.513,2.019,8.285c0.166,0.733,0.57,1.549-0.1,2.275"/>
	
		<path fill-rule="evenodd" clip-rule="evenodd" fill="none" stroke="#000000" stroke-width="2" stroke-linecap="round" stroke-linejoin="round" stroke-miterlimit="10" d="
		M175.004,91.718c-0.68,0.36-1.382,0.684-2.036,1.086c-3.487,2.147-6.957,4.324-10.45,6.462c-0.468,0.286-1.033,0.412-1.553,0.612"
		/>
	
		<path fill-rule="evenodd" clip-rule="evenodd" fill="none" stroke="#000000" stroke-width="2" stroke-linecap="round" stroke-linejoin="round" stroke-miterlimit="10" d="
		M180.284,89.317c0.761,3.44,1.52,6.88,2.281,10.32c0.071,0.322,0.159,0.641,0.239,0.96"/>
	
		<path fill-rule="evenodd" clip-rule="evenodd" fill="none" stroke="#000000" stroke-width="2" stroke-linecap="round" stroke-linejoin="round" stroke-miterlimit="10" d="
		M239.324,114.758c0.76,3.439,1.52,6.88,2.281,10.319c0.071,0.322,0.159,0.641,0.239,0.96"/>
	
		<path fill-rule="evenodd" clip-rule="evenodd" fill="none" stroke="#000000" stroke-width="2" stroke-linecap="round" stroke-linejoin="round" stroke-miterlimit="10" d="
		M171.284,134.678c0.2,0.479,0.558,0.955,0.574,1.44c0.087,2.636,0.812,5.113,1.706,7.56"/>
	
		<path fill-rule="evenodd" clip-rule="evenodd" fill="none" stroke="#000000" stroke-width="2" stroke-linecap="round" stroke-linejoin="round" stroke-miterlimit="10" d="
		M118.604,150.397c0.28,0.521,0.56,1.04,0.84,1.561"/>
	
		<path fill-rule="evenodd" clip-rule="evenodd" fill="none" stroke="#000000" stroke-width="2" stroke-linecap="round" stroke-linejoin="round" stroke-miterlimit="10" d="
		M126.165,105.158c0.2,0.56,0.491,1.105,0.583,1.683c0.36,2.233,0.652,4.478,0.979,6.717c0.105,0.722,0.238,1.44,0.358,2.16"/>
	
		<path fill-rule="evenodd" clip-rule="evenodd" fill="none" stroke="#000000" stroke-width="2" stroke-linecap="round" stroke-linejoin="round" stroke-miterlimit="10" d="
		M85.844,157.237c0.2,0.561,0.491,1.105,0.584,1.683c0.359,2.233,0.652,4.479,0.979,6.718c0.105,0.722,0.238,1.439,0.357,2.16"/>
	
		<path fill-rule="evenodd" clip-rule="evenodd" fill="none" stroke="#000000" stroke-width="2" stroke-linecap="round" stroke-linejoin="round" stroke-miterlimit="10" d="
		M115.484,133.357c1.377,1.141,1.117,2.835,1.426,4.323c0.379,1.827,0.691,3.672,0.958,5.52c0.131,0.906,0.096,1.838,0.136,2.758"/>
	
		<path fill-rule="evenodd" clip-rule="evenodd" fill="none" stroke="#000000" stroke-width="2" stroke-linecap="round" stroke-linejoin="round" stroke-miterlimit="10" d="
		M137.564,143.077c0.44,0,0.88,0,1.32,0c0.089-0.064,0.178-0.129,0.267-0.193c0.271,1.145,0.588,2.28,0.804,3.436
		c0.563,3.013,1.083,6.032,2.283,8.881c0.008,0.02-0.074,0.077-0.114,0.117"/>
	
		<path fill-rule="evenodd" clip-rule="evenodd" fill="none" stroke="#000000" stroke-width="2" stroke-linecap="round" stroke-linejoin="round" stroke-miterlimit="10" d="
		M137.024,132.878c0.66,3.359,1.32,6.72,1.98,10.08"/>
	
		<path fill-rule="evenodd" clip-rule="evenodd" fill="none" stroke="#000000" stroke-width="2" stroke-linecap="round" stroke-linejoin="round" stroke-miterlimit="10" d="
		M151.964,96.277c-1.239,3.452-3.767,5.88-6.48,8.16"/>
	
		<path fill-rule="evenodd" clip-rule="evenodd" fill="none" stroke="#000000" stroke-width="2" stroke-linecap="round" stroke-linejoin="round" stroke-miterlimit="10" d="
		M130.964,98.917c0.32,1.44,0.652,2.877,0.955,4.321c0.15,0.714,0.203,1.45,0.38,2.155c0.125,0.499,0.385,0.963,0.585,1.443"/>
	
		<path fill-rule="evenodd" clip-rule="evenodd" fill="none" stroke="#000000" stroke-width="2" stroke-linecap="round" stroke-linejoin="round" stroke-miterlimit="10" d="
		M197.805,84.158c0.56,1.68,1.106,3.364,1.689,5.037c0.134,0.383,0.391,0.723,0.59,1.083"/>
	
		<path fill-rule="evenodd" clip-rule="evenodd" fill="none" stroke="#000000" stroke-width="2" stroke-linecap="round" stroke-linejoin="round" stroke-miterlimit="10" d="
		M90.764,154.237c0.56,1.681,1.107,3.364,1.69,5.037c0.134,0.383,0.39,0.724,0.59,1.083"/>
	
		<path fill-rule="evenodd" clip-rule="evenodd" fill="none" stroke="#000000" stroke-width="2" stroke-linecap="round" stroke-linejoin="round" stroke-miterlimit="10" d="
		M186.044,86.438c-3.184,1.279-6.286,2.72-9.111,4.692c-0.147,0.104-0.168,0.388-0.248,0.588"/>
	
		<path fill-rule="evenodd" clip-rule="evenodd" fill="none" stroke="#000000" stroke-width="2" stroke-linecap="round" stroke-linejoin="round" stroke-miterlimit="10" d="
		M245.084,111.877c-3.184,1.279-6.286,2.72-9.111,4.692c-0.147,0.104-0.168,0.388-0.248,0.588"/>
	
		<path fill-rule="evenodd" clip-rule="evenodd" fill="none" stroke="#000000" stroke-width="2" stroke-linecap="round" stroke-linejoin="round" stroke-miterlimit="10" d="
		M258.044,106.837c0.04,0.96,0.08,1.92,0.12,2.88"/>
	
		<path fill-rule="evenodd" clip-rule="evenodd" fill="none" stroke="#000000" stroke-width="2" stroke-linecap="round" stroke-linejoin="round" stroke-miterlimit="10" d="
		M201.044,119.258c0.323,0.081,0.646,0.162,0.946,0.238c-0.093,0.618-0.159,1.06-0.226,1.502"/>
	
		<path fill-rule="evenodd" clip-rule="evenodd" fill="none" stroke="#000000" stroke-width="2" stroke-linecap="round" stroke-linejoin="round" stroke-miterlimit="10" d="
		M189.524,80.857c0.321,0.081,0.643,0.162,0.946,0.238c-0.093,0.618-0.16,1.06-0.227,1.502"/>
	
		<path fill-rule="evenodd" clip-rule="evenodd" fill="none" stroke="#000000" stroke-width="2" stroke-linecap="round" stroke-linejoin="round" stroke-miterlimit="10" d="
		M228.645,111.817c0.321,0.081,0.642,0.162,0.946,0.238c-0.094,0.618-0.16,1.06-0.227,1.502"/>
	
		<path fill-rule="evenodd" clip-rule="evenodd" fill="none" stroke="#000000" stroke-width="2" stroke-linecap="round" stroke-linejoin="round" stroke-miterlimit="10" d="
		M226.845,76.417c-0.12,0.06-0.24,0.12-0.36,0.18"/>
</g>
</svg>
