<?xml version="1.0" encoding="utf-8"?>
<!-- Generator: Adobe Illustrator 16.0.0, SVG Export Plug-In . SVG Version: 6.00 Build 0)  -->
<!DOCTYPE svg PUBLIC "-//W3C//DTD SVG 1.1//EN" "http://www.w3.org/Graphics/SVG/1.1/DTD/svg11.dtd">
<svg version="1.1" id="Layer_1" xmlns="http://www.w3.org/2000/svg" xmlns:xlink="http://www.w3.org/1999/xlink" x="0px" y="0px"
	 width="320px" height="240px" viewBox="0 0 320 240" enable-background="new 0 0 320 240" xml:space="preserve">
<g>
	
		<path fill-rule="evenodd" clip-rule="evenodd" fill="none" stroke="#000000" stroke-width="2" stroke-linecap="round" stroke-linejoin="round" stroke-miterlimit="10" d="
		M175.215,130.499c-5.342,1.209-9.646,3.722-11.515,9.242c-0.765,2.257-0.516,4.461,0.193,6.73c0.728,2.33,3.056,2.263,4.332,0.92
		c1.29-1.356,2.521-2.831,3.468-4.437c1.36-2.306,2.441-4.776,3.641-7.176"/>
	
		<path fill-rule="evenodd" clip-rule="evenodd" fill="none" stroke="#000000" stroke-width="2" stroke-linecap="round" stroke-linejoin="round" stroke-miterlimit="10" d="
		M194.654,125.459c-4.493,0.909-8.248,2.986-10.535,7.094c-1.577,2.834-1.586,5.868-0.371,8.86c0.637,1.57,2.252,1.837,3.696,0.713
		c2.1-1.634,3.343-3.942,4.556-6.234c0.952-1.802,1.774-3.673,2.654-5.513"/>
	
		<path fill-rule="evenodd" clip-rule="evenodd" fill="none" stroke="#000000" stroke-width="2" stroke-linecap="round" stroke-linejoin="round" stroke-miterlimit="10" d="
		M151.694,97.379c-0.083-0.466-0.167-0.933-0.256-1.431c-2.07-0.084-3.618,0.857-4.884,2.17c-2.608,2.704-4.143,5.989-4.687,9.703
		c-0.311,2.122,1.13,4.458,2.992,4.623c1.133,0.101,2.414-0.121,3.458-0.583c4.846-2.145,8.603-5.488,10.817-10.402"/>
	
		<path fill-rule="evenodd" clip-rule="evenodd" fill="none" stroke="#000000" stroke-width="2" stroke-linecap="round" stroke-linejoin="round" stroke-miterlimit="10" d="
		M205.694,121.619c-1.08,1.16-2.212,2.277-3.221,3.496c-0.63,0.76-1.06,1.678-0.789,2.772c1.589,1.09,3.466,1.09,5.209,1.535
		c1.484,0.38,2.983,0.73,4.429,1.231c0.517,0.18,0.893,0.765,1.332,1.165"/>
	
		<path fill-rule="evenodd" clip-rule="evenodd" fill="none" stroke="#000000" stroke-width="2" stroke-linecap="round" stroke-linejoin="round" stroke-miterlimit="10" d="
		M212.954,133.739c-0.314,1.115-1.112,1.783-2.1,2.28c-2.321,1.168-4.718,1.819-7.32,1.079"/>
	
		<path fill-rule="evenodd" clip-rule="evenodd" fill="none" stroke="#000000" stroke-width="2" stroke-linecap="round" stroke-linejoin="round" stroke-miterlimit="10" d="
		M84.854,109.859c0.32,1.68,0.649,3.358,0.958,5.041c0.527,2.879,1.005,5.768,1.586,8.635c0.161,0.792,0.518,1.587,0.956,2.272
		c0.956,1.495,2.211,1.909,3.924,1.06c2.147-1.064,4.263-2.241,6.233-3.601c2.258-1.557,4.343-3.367,6.503-5.066"/>
	
		<path fill-rule="evenodd" clip-rule="evenodd" fill="none" stroke="#000000" stroke-width="2" stroke-linecap="round" stroke-linejoin="round" stroke-miterlimit="10" d="
		M139.574,106.859c-1.006,2.632-2.747,4.761-4.82,6.577c-2.156,1.888-4.533,3.468-7.417,4.113c-2.481,0.554-3.565,0.161-4.411-2.061
		c-0.555-1.458-0.491-3.054,0.007-4.535c0.189-0.563,0.292-1.161,0.492-1.674c1.098-2.816,2.688-5.326,5.232-7.096
		c1.331-0.926,2.766-1.208,4.318-0.603"/>
	
		<path fill-rule="evenodd" clip-rule="evenodd" fill="none" stroke="#000000" stroke-width="2" stroke-linecap="round" stroke-linejoin="round" stroke-miterlimit="10" d="
		M227.174,83.339c-1.006,2.631-2.747,4.76-4.82,6.576c-2.156,1.888-4.532,3.468-7.417,4.113c-2.481,0.555-3.565,0.161-4.411-2.061
		c-0.555-1.458-0.491-3.054,0.008-4.535c0.188-0.563,0.292-1.161,0.491-1.673c1.098-2.817,2.688-5.326,5.231-7.097
		c1.331-0.926,2.767-1.208,4.318-0.603"/>
	
		<path fill-rule="evenodd" clip-rule="evenodd" fill="none" stroke="#000000" stroke-width="2" stroke-linecap="round" stroke-linejoin="round" stroke-miterlimit="10" d="
		M160.935,142.379c-1.007,2.632-2.747,4.761-4.821,6.576c-2.156,1.888-4.533,3.468-7.417,4.113c-2.481,0.555-3.565,0.16-4.411-2.062
		c-0.555-1.457-0.491-3.053,0.008-4.535c0.189-0.563,0.292-1.161,0.491-1.673c1.098-2.817,2.688-5.326,5.232-7.097
		c1.33-0.927,2.766-1.208,4.318-0.604"/>
	
		<path fill-rule="evenodd" clip-rule="evenodd" fill="none" stroke="#000000" stroke-width="2" stroke-linecap="round" stroke-linejoin="round" stroke-miterlimit="10" d="
		M101.654,102.659c0.178,0.721-0.439,0.802-0.845,0.946c-2.43,0.867-4.883,1.671-7.313,2.54c-2.491,0.891-4.967,1.822-7.438,2.764
		c-0.429,0.164-0.793,0.491-1.207,0.704c-0.508,0.262-1.037,0.485-1.557,0.725"/>
	
		<path fill-rule="evenodd" clip-rule="evenodd" fill="none" stroke="#000000" stroke-width="2" stroke-linecap="round" stroke-linejoin="round" stroke-miterlimit="10" d="
		M135.975,143.459c-2.84,1.16-5.68,2.32-8.521,3.479c-0.398,0.163-0.8,0.32-1.2,0.48"/>
	
		<path fill-rule="evenodd" clip-rule="evenodd" fill="none" stroke="#000000" stroke-width="2" stroke-linecap="round" stroke-linejoin="round" stroke-miterlimit="10" d="
		M162.194,100.859c0.26,2,0.504,4.002,0.796,5.998c0.049,0.336,0.304,0.642,0.464,0.962"/>
	
		<path fill-rule="evenodd" clip-rule="evenodd" fill="none" stroke="#000000" stroke-width="2" stroke-linecap="round" stroke-linejoin="round" stroke-miterlimit="10" d="
		M204.854,80.339c-0.521,2.16-1.101,4.308-1.538,6.484c-0.277,1.376-0.307,2.801-0.512,4.194c-0.24,1.646-0.551,3.282-0.83,4.921"/>
	
		<path fill-rule="evenodd" clip-rule="evenodd" fill="none" stroke="#000000" stroke-width="2" stroke-linecap="round" stroke-linejoin="round" stroke-miterlimit="10" d="
		M201.854,96.059c0,0.6,0,1.2,0,1.8"/>
	
		<path fill-rule="evenodd" clip-rule="evenodd" fill="none" stroke="#000000" stroke-width="2" stroke-linecap="round" stroke-linejoin="round" stroke-miterlimit="10" d="
		M170.175,93.419c-0.24,0.46-0.59,0.895-0.703,1.384c-0.841,3.626-2.102,7.109-3.644,10.484c-0.52,1.137-1.32,2.156-2.494,2.771"/>
	
		<path fill-rule="evenodd" clip-rule="evenodd" fill="none" stroke="#000000" stroke-width="2" stroke-linecap="round" stroke-linejoin="round" stroke-miterlimit="10" d="
		M98.294,97.979c-4.84,1.84-9.709,3.609-14.497,5.576c-1.053,0.433-2.026,0.789-3.143,0.784"/>
	
		<path fill-rule="evenodd" clip-rule="evenodd" fill="none" stroke="#000000" stroke-width="2" stroke-linecap="round" stroke-linejoin="round" stroke-miterlimit="10" d="
		M189.015,84.899c0.279,1.16,0.556,2.321,0.841,3.48c0.678,2.761,1.39,5.513,2.019,8.285c0.166,0.733,0.57,1.549-0.1,2.275"/>
	
		<path fill-rule="evenodd" clip-rule="evenodd" fill="none" stroke="#000000" stroke-width="2" stroke-linecap="round" stroke-linejoin="round" stroke-miterlimit="10" d="
		M115.814,134.099c0.2,1.001,0.396,2.001,0.601,3c0.718,3.521,1.436,7.041,2.162,10.56c0.141,0.685,0.317,1.361,0.478,2.041"/>
	
		<path fill-rule="evenodd" clip-rule="evenodd" fill="none" stroke="#000000" stroke-width="2" stroke-linecap="round" stroke-linejoin="round" stroke-miterlimit="10" d="
		M225.135,78.419c-0.681,0.36-1.383,0.684-2.037,1.086c-3.487,2.147-6.957,4.324-10.45,6.462c-0.468,0.286-1.033,0.412-1.553,0.612"
		/>
	
		<path fill-rule="evenodd" clip-rule="evenodd" fill="none" stroke="#000000" stroke-width="2" stroke-linecap="round" stroke-linejoin="round" stroke-miterlimit="10" d="
		M137.534,101.939c-0.68,0.36-1.382,0.684-2.036,1.086c-3.488,2.147-6.958,4.324-10.451,6.462c-0.467,0.286-1.033,0.412-1.553,0.612
		"/>
	
		<path fill-rule="evenodd" clip-rule="evenodd" fill="none" stroke="#000000" stroke-width="2" stroke-linecap="round" stroke-linejoin="round" stroke-miterlimit="10" d="
		M158.895,137.459c-0.68,0.36-1.383,0.684-2.037,1.086c-3.488,2.147-6.958,4.324-10.451,6.462c-0.467,0.286-1.033,0.412-1.553,0.612
		"/>
	
		<path fill-rule="evenodd" clip-rule="evenodd" fill="none" stroke="#000000" stroke-width="2" stroke-linecap="round" stroke-linejoin="round" stroke-miterlimit="10" d="
		M139.334,142.199c-1.09,0.353-2.179,0.705-3.237,1.047c0.973,3.929,1.919,7.772,2.882,11.611c0.163,0.649,0.395,1.281,0.595,1.922"
		/>
	
		<path fill-rule="evenodd" clip-rule="evenodd" fill="none" stroke="#000000" stroke-width="2" stroke-linecap="round" stroke-linejoin="round" stroke-miterlimit="10" d="
		M195.854,86.339c2.055,2.583,3.282,5.633,4.807,8.516c0.269,0.507,0.633,0.964,0.953,1.444"/>
	
		<path fill-rule="evenodd" clip-rule="evenodd" fill="none" stroke="#000000" stroke-width="2" stroke-linecap="round" stroke-linejoin="round" stroke-miterlimit="10" d="
		M178.095,89.939c0.76,3.44,1.519,6.88,2.281,10.32c0.071,0.322,0.158,0.641,0.238,0.96"/>
	
		<path fill-rule="evenodd" clip-rule="evenodd" fill="none" stroke="#000000" stroke-width="2" stroke-linecap="round" stroke-linejoin="round" stroke-miterlimit="10" d="
		M133.214,130.319c-0.08,0.38-0.309,0.801-0.217,1.134c1.004,3.649,2.057,7.286,3.099,10.926c0.07,0.243,0.159,0.48,0.239,0.72"/>
	
		<path fill-rule="evenodd" clip-rule="evenodd" fill="none" stroke="#000000" stroke-width="2" stroke-linecap="round" stroke-linejoin="round" stroke-miterlimit="10" d="
		M170.534,93.539c0.2,0.48,0.558,0.955,0.574,1.441c0.087,2.636,0.812,5.113,1.706,7.559"/>
	
		<path fill-rule="evenodd" clip-rule="evenodd" fill="none" stroke="#000000" stroke-width="2" stroke-linecap="round" stroke-linejoin="round" stroke-miterlimit="10" d="
		M195.374,129.899c0.28,0.52,0.561,1.04,0.84,1.56"/>
	
		<path fill-rule="evenodd" clip-rule="evenodd" fill="none" stroke="#000000" stroke-width="2" stroke-linecap="round" stroke-linejoin="round" stroke-miterlimit="10" d="
		M177.015,132.899c0.2,0.56,0.491,1.104,0.584,1.683c0.359,2.233,0.651,4.478,0.979,6.717c0.104,0.722,0.237,1.44,0.357,2.16"/>
	
		<path fill-rule="evenodd" clip-rule="evenodd" fill="none" stroke="#000000" stroke-width="2" stroke-linecap="round" stroke-linejoin="round" stroke-miterlimit="10" d="
		M192.254,112.859c1.378,1.141,1.117,2.834,1.427,4.323c0.379,1.828,0.69,3.671,0.958,5.519c0.131,0.907,0.096,1.838,0.136,2.758"/>
	
		<path fill-rule="evenodd" clip-rule="evenodd" fill="none" stroke="#000000" stroke-width="2" stroke-linecap="round" stroke-linejoin="round" stroke-miterlimit="10" d="
		M117.614,103.619c-0.48,1.92-0.789,3.905-1.488,5.742c-0.702,1.843-1.792,3.539-2.712,5.298"/>
	
		<path fill-rule="evenodd" clip-rule="evenodd" fill="none" stroke="#000000" stroke-width="2" stroke-linecap="round" stroke-linejoin="round" stroke-miterlimit="10" d="
		M106.935,107.579c1.174,0.282,1.641,1.322,2.273,2.165c1.065,1.421,2.087,2.875,3.127,4.315"/>
	
		<path fill-rule="evenodd" clip-rule="evenodd" fill="none" stroke="#000000" stroke-width="2" stroke-linecap="round" stroke-linejoin="round" stroke-miterlimit="10" d="
		M112.935,115.739c-1.12,1.88-2.206,3.781-3.377,5.629c-0.452,0.714-0.545,1.397-0.343,2.171"/>
	
		<path fill-rule="evenodd" clip-rule="evenodd" fill="none" stroke="#000000" stroke-width="2" stroke-linecap="round" stroke-linejoin="round" stroke-miterlimit="10" d="
		M113.415,115.379c2.12,1.92,4.24,3.84,6.36,5.76"/>
	
		<path fill-rule="evenodd" clip-rule="evenodd" fill="none" stroke="#000000" stroke-width="2" stroke-linecap="round" stroke-linejoin="round" stroke-miterlimit="10" d="
		M83.535,103.859c0.32,1.08,0.644,2.159,0.958,3.241c0.208,0.718,0.401,1.439,0.602,2.16"/>
	
		<path fill-rule="evenodd" clip-rule="evenodd" fill="none" stroke="#000000" stroke-width="2" stroke-linecap="round" stroke-linejoin="round" stroke-miterlimit="10" d="
		M183.854,87.059c-3.185,1.279-6.286,2.719-9.111,4.692c-0.147,0.103-0.169,0.388-0.249,0.587"/>
	
		<path fill-rule="evenodd" clip-rule="evenodd" fill="none" stroke="#000000" stroke-width="2" stroke-linecap="round" stroke-linejoin="round" stroke-miterlimit="10" d="
		M187.095,81.479c0.334,0.084,0.668,0.168,0.945,0.238c-0.093,0.618-0.159,1.061-0.226,1.502"/>
</g>
</svg>
