<?xml version="1.0" encoding="utf-8"?>
<!-- Generator: Adobe Illustrator 16.0.0, SVG Export Plug-In . SVG Version: 6.00 Build 0)  -->
<!DOCTYPE svg PUBLIC "-//W3C//DTD SVG 1.1//EN" "http://www.w3.org/Graphics/SVG/1.1/DTD/svg11.dtd">
<svg version="1.1" id="Layer_1" xmlns="http://www.w3.org/2000/svg" xmlns:xlink="http://www.w3.org/1999/xlink" x="0px" y="0px"
	 width="320px" height="240px" viewBox="0 0 320 240" enable-background="new 0 0 320 240" xml:space="preserve">
<g>
	<g>
		
			<path fill-rule="evenodd" clip-rule="evenodd" fill="none" stroke="#000000" stroke-width="2" stroke-linecap="round" stroke-linejoin="round" stroke-miterlimit="10" d="
			M76.232,128.392c0.647,1.105,1.68,1.396,2.879,1.448c5.674,0.249,10.897-1.145,15.59-4.344c2.18-1.486,4.098-3.295,5.401-5.63
			c2.386-4.272,1.425-9.588-2.774-12.683c-2.223-1.637-4.598-3.07-7.41-3.665c-2.474-0.523-4.902-0.784-7.45-0.625
			c-2.954,0.186-5.79,0.82-8.636,1.499c-0.604,0.144-1.222,0.264-1.796,0.49c-1.021,0.402-1.38,1.167-1.08,2.267
			c1.148,4.203,2.335,8.396,3.468,12.603c0.643,2.388,1.189,4.803,1.824,7.194c0.12,0.452,0.08,0.883,0.104,1.324"/>
		
			<path fill-rule="evenodd" clip-rule="evenodd" fill="none" stroke="#000000" stroke-width="2" stroke-linecap="round" stroke-linejoin="round" stroke-miterlimit="10" d="
			M186.991,86.751c-1.602-0.92-3.064-0.227-4.563,0.352c-4.083,1.576-7.259,4.061-8.639,8.407c-0.721,2.271-0.508,4.464,0.201,6.733
			c0.728,2.33,2.961,2.174,4.358,0.945c1.505-1.323,2.589-2.981,3.594-4.683c1.631-2.764,3.077-5.626,4.196-8.64
			c0.332-0.894,1.387-1.493,1.089-2.635c-0.17-0.652,0.032-1.229,0.303-1.8"/>
		
			<path fill-rule="evenodd" clip-rule="evenodd" fill="none" stroke="#000000" stroke-width="2" stroke-linecap="round" stroke-linejoin="round" stroke-miterlimit="10" d="
			M176.912,130.911c-1.603-0.92-3.064-0.227-4.563,0.353c-4.083,1.576-7.259,4.061-8.639,8.407
			c-0.721,2.271-0.508,4.464,0.201,6.733c0.728,2.329,2.961,2.174,4.358,0.945c1.505-1.323,2.589-2.981,3.594-4.684
			c1.631-2.764,3.077-5.626,4.196-8.64c0.333-0.894,1.387-1.492,1.089-2.635c-0.17-0.651,0.032-1.229,0.304-1.8"/>
		
			<path fill-rule="evenodd" clip-rule="evenodd" fill="none" stroke="#000000" stroke-width="2" stroke-linecap="round" stroke-linejoin="round" stroke-miterlimit="10" d="
			M194.672,125.392c-4.493,0.908-8.248,2.985-10.535,7.094c-1.578,2.834-1.586,5.867-0.371,8.86
			c0.637,1.569,2.251,1.837,3.695,0.713c2.101-1.635,3.303-3.964,4.569-6.229c0.866-1.548,1.662-3.132,2.285-4.798
			c0.094-0.249,0.173-0.578,0.367-0.704c0.781-0.504,0.757-1.306,0.818-2.058c0.079-0.968,0.46-1.951-0.542-2.814
			c-0.295-0.254-0.163-1.146-0.266-1.748c-0.488-2.872-0.946-5.751-1.316-8.64c-0.119-0.93-0.447-1.658-1.105-2.276"/>
		
			<path fill-rule="evenodd" clip-rule="evenodd" fill="none" stroke="#000000" stroke-width="2" stroke-linecap="round" stroke-linejoin="round" stroke-miterlimit="10" d="
			M151.232,94.971c0.761,0.493,1.503,0.998,2.396,1.274c1.743,0.539,2.563,1.762,2.922,3.579c0.794,4.018-2.034,8.967-4.836,10.57
			c-2.718,1.555-5.326,0.052-5.798-3.117c-0.563-3.773,0.66-6.994,2.57-10.077c0.218-0.352,0.543-0.623,0.466-1.088"/>
		
			<path fill-rule="evenodd" clip-rule="evenodd" fill="none" stroke="#000000" stroke-width="2" stroke-linecap="round" stroke-linejoin="round" stroke-miterlimit="10" d="
			M218.191,76.971c0.762,0.493,1.504,0.998,2.396,1.274c1.743,0.539,2.563,1.762,2.923,3.579c0.794,4.018-2.034,8.967-4.837,10.57
			c-2.717,1.555-5.325,0.052-5.798-3.117c-0.563-3.773,0.66-6.993,2.57-10.077c0.218-0.352,0.543-0.623,0.467-1.088"/>
		
			<path fill-rule="evenodd" clip-rule="evenodd" fill="none" stroke="#000000" stroke-width="2" stroke-linecap="round" stroke-linejoin="round" stroke-miterlimit="10" d="
			M135.632,101.631c-0.053-1.404-0.576-1.794-1.917-1.311c-2.368,0.854-3.996,2.569-5.288,4.668
			c-1.304,2.121-2.269,4.394-2.593,6.848c-0.202,1.526,0.209,3.061,1.407,4.185c1.312,1.233,2.931,0.82,4.294,0.322
			c3.427-1.253,6.359-3.26,8.691-6.165c1.126-1.403,2.069-2.869,2.846-4.468"/>
		
			<path fill-rule="evenodd" clip-rule="evenodd" fill="none" stroke="#000000" stroke-width="2" stroke-linecap="round" stroke-linejoin="round" stroke-miterlimit="10" d="
			M209.071,122.512c0.186-1.059-0.648-1.423-1.333-1.773c-0.551-0.282-1.194-0.312-1.673,0.328
			c-1.038,1.388-2.508,2.389-3.474,3.845c-0.239,0.36-0.527,0.697-0.712,1.084c-0.588,1.235-0.284,1.853,1.07,2.4
			c2.044,0.826,4.266,0.846,6.363,1.431c1.034,0.289,2.028,0.627,2.883,1.319c1.155,0.936,1.087,2.674,0.116,3.727
			c-1.327,1.439-3.086,1.98-4.926,2.241c-0.524,0.075-1.021,0.259-1.555,0.287c-2.855,0.147-4.412-1.534-4.2-4.569"/>
		
			<path fill-rule="evenodd" clip-rule="evenodd" fill="none" stroke="#000000" stroke-width="2" stroke-linecap="round" stroke-linejoin="round" stroke-miterlimit="10" d="
			M239.071,87.231c-0.05-2.225-0.781-4.324-1.206-6.479c-0.425-2.16-1.079-4.262-1.74-6.359c-0.132-0.416-0.313-0.828-0.542-1.197
			c-0.512-0.823-0.908-0.864-1.545-0.12c-1.544,1.802-2.406,3.985-3.375,6.111c-0.534,1.171-0.563,2.489-1.583,3.567
			c-0.538,0.568-0.133,2-0.217,3.036c-0.111,1.369,0.354,2.713,0.128,4.081"/>
		
			<path fill-rule="evenodd" clip-rule="evenodd" fill="none" stroke="#000000" stroke-width="2" stroke-linecap="round" stroke-linejoin="round" stroke-miterlimit="10" d="
			M160.952,142.551c-1.007,2.632-2.748,4.761-4.821,6.577c-2.156,1.888-4.532,3.468-7.417,4.112
			c-2.481,0.555-3.566,0.161-4.411-2.061c-0.555-1.458-0.491-3.054,0.007-4.535c0.189-0.563,0.292-1.161,0.492-1.674
			c1.098-2.816,2.688-5.326,5.232-7.097c1.33-0.926,2.766-1.208,4.318-0.603"/>
		
			<path fill-rule="evenodd" clip-rule="evenodd" fill="none" stroke="#000000" stroke-width="2" stroke-linecap="round" stroke-linejoin="round" stroke-miterlimit="10" d="
			M123.512,111.111c-1.006,2.632-2.747,4.761-4.821,6.576c-2.156,1.888-4.532,3.468-7.417,4.113
			c-2.481,0.555-3.566,0.16-4.411-2.061c-0.555-1.458-0.491-3.054,0.007-4.536c0.189-0.563,0.292-1.161,0.492-1.673
			c1.098-2.817,2.688-5.326,5.232-7.097c1.33-0.926,2.766-1.208,4.318-0.603"/>
		
			<path fill-rule="evenodd" clip-rule="evenodd" fill="none" stroke="#000000" stroke-width="2" stroke-linecap="round" stroke-linejoin="round" stroke-miterlimit="10" d="
			M168.151,89.511c-1.015,0.999-1.992,2.029-2.762,3.239c-0.951,1.497-1.621,3.113-2.179,4.794
			c-0.228,0.685-0.484,1.354-0.985,1.985c-0.405,0.511-0.235,1.547-0.179,2.34c0.155,2.163,0.385,4.321,0.585,6.481"/>
		
			<path fill-rule="evenodd" clip-rule="evenodd" fill="none" stroke="#000000" stroke-width="2" stroke-linecap="round" stroke-linejoin="round" stroke-miterlimit="10" d="
			M135.992,143.392c-3.64,1.479-7.263,3.004-10.927,4.422c-1.92,0.742-3.913,1.298-5.873,1.938"/>
		
			<path fill-rule="evenodd" clip-rule="evenodd" fill="none" stroke="#000000" stroke-width="2" stroke-linecap="round" stroke-linejoin="round" stroke-miterlimit="10" d="
			M204.872,80.751c-0.056,1.241,0.559,2.32,0.846,3.478c0.685,2.759,1.55,5.476,2.02,8.284c0.125,0.748,0.564,1.551-0.105,2.278"/>
		
			<path fill-rule="evenodd" clip-rule="evenodd" fill="none" stroke="#000000" stroke-width="2" stroke-linecap="round" stroke-linejoin="round" stroke-miterlimit="10" d="
			M115.832,134.031c-0.299,1.1,0.392,2.019,0.647,2.987c0.92,3.486,1.358,7.06,2.114,10.572c0.147,0.683,0.318,1.36,0.478,2.04"/>
		
			<path fill-rule="evenodd" clip-rule="evenodd" fill="none" stroke="#000000" stroke-width="2" stroke-linecap="round" stroke-linejoin="round" stroke-miterlimit="10" d="
			M158.912,137.631c-0.524,0.654-1.365,0.717-2.049,1.062c-3.674,1.854-6.997,4.266-10.421,6.514c-0.5,0.329-0.94,0.67-1.57,0.585"
			/>
		
			<path fill-rule="evenodd" clip-rule="evenodd" fill="none" stroke="#000000" stroke-width="2" stroke-linecap="round" stroke-linejoin="round" stroke-miterlimit="10" d="
			M121.472,106.191c-0.524,0.654-1.365,0.716-2.049,1.062c-3.674,1.854-6.997,4.265-10.421,6.513c-0.5,0.329-0.94,0.67-1.57,0.585"
			/>
		
			<path fill-rule="evenodd" clip-rule="evenodd" fill="none" stroke="#000000" stroke-width="2" stroke-linecap="round" stroke-linejoin="round" stroke-miterlimit="10" d="
			M139.352,142.131c-1.089,0.353-2.179,0.706-3.237,1.048c0.974,3.929,1.944,7.766,2.859,11.617
			c0.157,0.662,0.744,1.173,0.618,1.915"/>
		
			<path fill-rule="evenodd" clip-rule="evenodd" fill="none" stroke="#000000" stroke-width="2" stroke-linecap="round" stroke-linejoin="round" stroke-miterlimit="10" d="
			M193.951,85.551c1.021,3.383,1.511,6.882,2.265,10.324c0.173,0.785,0.546,1.553,0.376,2.396"/>
		
			<path fill-rule="evenodd" clip-rule="evenodd" fill="none" stroke="#000000" stroke-width="2" stroke-linecap="round" stroke-linejoin="round" stroke-miterlimit="10" d="
			M133.232,130.251c-0.467,0.299-0.305,0.807-0.216,1.134c0.995,3.652,1.873,7.339,3.095,10.927c0.082,0.239,0.16,0.479,0.24,0.72"
			/>
		
			<path fill-rule="evenodd" clip-rule="evenodd" fill="none" stroke="#000000" stroke-width="2" stroke-linecap="round" stroke-linejoin="round" stroke-miterlimit="10" d="
			M177.031,132.831c0.536,0.44,0.614,1.032,0.606,1.681c-0.027,2.287,0.612,4.485,0.892,6.728c0.157,1.259,0.745,2.427,0.662,3.712"
			/>
		
			<path fill-rule="evenodd" clip-rule="evenodd" fill="none" stroke="#000000" stroke-width="2" stroke-linecap="round" stroke-linejoin="round" stroke-miterlimit="10" d="
			M187.111,88.671c0.536,0.44,0.613,1.032,0.605,1.68c-0.026,2.287,0.613,4.486,0.893,6.728c0.157,1.26,0.744,2.427,0.662,3.712"/>
		
			<path fill-rule="evenodd" clip-rule="evenodd" fill="none" stroke="#000000" stroke-width="2" stroke-linecap="round" stroke-linejoin="round" stroke-miterlimit="10" d="
			M195.392,129.831c1.119,0.999,0.911,2.477,1.287,3.73c0.529,1.761,0.822,3.593,1.238,5.389c0.192,0.833,0.382,1.659,0.234,2.521"
			/>
		
			<path fill-rule="evenodd" clip-rule="evenodd" fill="none" stroke="#000000" stroke-width="2" stroke-linecap="round" stroke-linejoin="round" stroke-miterlimit="10" d="
			M159.992,91.312c-0.088,1.531,0.814,2.839,0.967,4.319c0.076,0.724,0.308,1.438,0.329,2.161c0.019,0.6,0.188,1.057,0.624,1.439"/>
		
			<path fill-rule="evenodd" clip-rule="evenodd" fill="none" stroke="#000000" stroke-width="2" stroke-linecap="round" stroke-linejoin="round" stroke-miterlimit="10" d="
			M226.592,76.312c0.773,1.608,1.447,3.256,1.663,5.042c0.06,0.485,0.317,0.773,0.616,1.078"/>
		
			<path fill-rule="evenodd" clip-rule="evenodd" fill="none" stroke="#000000" stroke-width="2" stroke-linecap="round" stroke-linejoin="round" stroke-miterlimit="10" d="
			M199.712,82.671c-3.185,1.279-6.284,2.723-9.118,4.683c-0.197,0.136-0.271,0.354-0.242,0.597"/>
		
			<path fill-rule="evenodd" clip-rule="evenodd" fill="none" stroke="#000000" stroke-width="2" stroke-linecap="round" stroke-linejoin="round" stroke-miterlimit="10" d="
			M193.592,79.792c-0.08,1.404-0.55,2.674-1.32,3.84"/>
	</g>
</g>
</svg>
