<?xml version="1.0" encoding="utf-8"?>
<!-- Generator: Adobe Illustrator 16.0.0, SVG Export Plug-In . SVG Version: 6.00 Build 0)  -->
<!DOCTYPE svg PUBLIC "-//W3C//DTD SVG 1.1//EN" "http://www.w3.org/Graphics/SVG/1.1/DTD/svg11.dtd">
<svg version="1.1" id="Layer_1" xmlns="http://www.w3.org/2000/svg" xmlns:xlink="http://www.w3.org/1999/xlink" x="0px" y="0px"
	 width="320px" height="240px" viewBox="0 0 320 240" enable-background="new 0 0 320 240" xml:space="preserve">
<g>
	
		<path fill-rule="evenodd" clip-rule="evenodd" fill="none" stroke="#000000" stroke-width="2" stroke-linecap="round" stroke-linejoin="round" stroke-miterlimit="10" d="
		M98.811,140.994c-1.399-0.816-2.948-0.513-4.308-0.189c-7.144,1.697-12.26,5.979-14.959,12.811
		c-1.343,3.397-1.072,6.877,1.271,9.937c1.751,2.287,4.273,3.183,6.958,3.714c3.264,0.646,6.422-0.053,9.467-1.104
		c3.581-1.236,6.874-3.085,9.719-5.622c1.285-1.146,2.449-2.428,2.908-4.182c0.04-0.151,0.304-0.244,0.464-0.364"/>
	
		<path fill-rule="evenodd" clip-rule="evenodd" fill="none" stroke="#000000" stroke-width="2" stroke-linecap="round" stroke-linejoin="round" stroke-miterlimit="10" d="
		M64.011,108.834c-1.399-0.817-2.948-0.513-4.308-0.19c-7.144,1.698-12.26,5.979-14.96,12.811c-1.342,3.397-1.072,6.877,1.271,9.937
		c1.751,2.287,4.273,3.184,6.958,3.715c3.264,0.646,6.422-0.054,9.467-1.104c3.581-1.236,6.874-3.085,9.719-5.622
		c1.284-1.145,2.448-2.428,2.908-4.182c0.04-0.151,0.304-0.244,0.464-0.364"/>
	
		<path fill-rule="evenodd" clip-rule="evenodd" fill="none" stroke="#000000" stroke-width="2" stroke-linecap="round" stroke-linejoin="round" stroke-miterlimit="10" d="
		M230.57,75.114c-1.603-0.92-3.064-0.226-4.563,0.353c-4.083,1.576-7.258,4.061-8.638,8.407c-0.722,2.271-0.509,4.464,0.2,6.733
		c0.728,2.33,2.961,2.174,4.359,0.945c1.504-1.323,2.589-2.98,3.593-4.683c1.631-2.765,3.077-5.627,4.197-8.64
		c0.332-0.894,1.386-1.493,1.089-2.635c-0.17-0.652,0.032-1.229,0.303-1.801"/>
	
		<path fill-rule="evenodd" clip-rule="evenodd" fill="none" stroke="#000000" stroke-width="2" stroke-linecap="round" stroke-linejoin="round" stroke-miterlimit="10" d="
		M210.17,121.914c-1.602-0.92-3.064-0.227-4.563,0.353c-4.083,1.576-7.259,4.061-8.639,8.407c-0.722,2.271-0.508,4.464,0.201,6.733
		c0.728,2.329,2.961,2.174,4.358,0.945c1.504-1.323,2.589-2.98,3.594-4.684c1.631-2.764,3.077-5.626,4.196-8.639
		c0.332-0.895,1.387-1.493,1.089-2.635c-0.17-0.652,0.032-1.229,0.303-1.801"/>
	
		<path fill-rule="evenodd" clip-rule="evenodd" fill="none" stroke="#000000" stroke-width="2" stroke-linecap="round" stroke-linejoin="round" stroke-miterlimit="10" d="
		M262.73,65.754c-4.493,0.909-8.248,2.986-10.535,7.094c-1.578,2.834-1.586,5.868-0.371,8.861c0.637,1.569,2.251,1.836,3.695,0.712
		c2.101-1.634,3.302-3.964,4.569-6.228c0.866-1.549,1.662-3.132,2.285-4.798c0.094-0.25,0.173-0.579,0.367-0.705
		c0.781-0.504,0.757-1.306,0.818-2.058c0.079-0.968,0.46-1.951-0.542-2.814c-0.295-0.254-0.163-1.146-0.266-1.749
		c-0.488-2.872-0.946-5.75-1.316-8.64c-0.119-0.93-0.447-1.658-1.105-2.277"/>
	
		<path fill-rule="evenodd" clip-rule="evenodd" fill="none" stroke="#000000" stroke-width="2" stroke-linecap="round" stroke-linejoin="round" stroke-miterlimit="10" d="
		M167.69,132.714c-4.493,0.909-8.248,2.986-10.535,7.095c-1.578,2.833-1.585,5.867-0.371,8.86c0.637,1.569,2.251,1.836,3.696,0.712
		c2.1-1.634,3.302-3.964,4.569-6.228c0.867-1.549,1.662-3.132,2.285-4.798c0.094-0.25,0.174-0.579,0.367-0.704
		c0.781-0.504,0.757-1.306,0.818-2.058c0.079-0.968,0.461-1.951-0.542-2.814c-0.295-0.255-0.163-1.146-0.266-1.749
		c-0.488-2.871-0.946-5.75-1.316-8.64c-0.119-0.93-0.447-1.657-1.105-2.276"/>
	
		<path fill-rule="evenodd" clip-rule="evenodd" fill="none" stroke="#000000" stroke-width="2" stroke-linecap="round" stroke-linejoin="round" stroke-miterlimit="10" d="
		M118.73,145.015c0.762,0.493,1.503,0.997,2.396,1.273c1.742,0.539,2.563,1.762,2.922,3.579c0.794,4.018-2.034,8.966-4.837,10.57
		c-2.717,1.555-5.325,0.051-5.798-3.118c-0.563-3.772,0.66-6.993,2.57-10.076c0.218-0.353,0.543-0.624,0.467-1.089"/>
	
		<path fill-rule="evenodd" clip-rule="evenodd" fill="none" stroke="#000000" stroke-width="2" stroke-linecap="round" stroke-linejoin="round" stroke-miterlimit="10" d="
		M133.851,140.935c0.762,0.493,1.503,0.997,2.396,1.273c1.743,0.539,2.563,1.762,2.922,3.579c0.794,4.018-2.034,8.966-4.836,10.57
		c-2.718,1.555-5.325,0.051-5.798-3.118c-0.563-3.772,0.66-6.993,2.57-10.076c0.218-0.353,0.543-0.624,0.466-1.089"/>
	
		<path fill-rule="evenodd" clip-rule="evenodd" fill="none" stroke="#000000" stroke-width="2" stroke-linecap="round" stroke-linejoin="round" stroke-miterlimit="10" d="
		M83.931,113.094c0.762,0.493,1.503,0.998,2.396,1.274c1.743,0.539,2.563,1.762,2.923,3.579c0.794,4.018-2.034,8.966-4.837,10.571
		c-2.718,1.555-5.325,0.051-5.798-3.118c-0.563-3.772,0.66-6.993,2.57-10.077c0.218-0.352,0.543-0.623,0.466-1.088"/>
	
		<path fill-rule="evenodd" clip-rule="evenodd" fill="none" stroke="#000000" stroke-width="2" stroke-linecap="round" stroke-linejoin="round" stroke-miterlimit="10" d="
		M233.45,114.294c0.762,0.493,1.504,0.998,2.396,1.273c1.743,0.539,2.563,1.762,2.923,3.579c0.794,4.018-2.034,8.966-4.837,10.57
		c-2.718,1.556-5.325,0.052-5.798-3.117c-0.563-3.772,0.659-6.993,2.57-10.077c0.218-0.352,0.543-0.624,0.466-1.088"/>
	
		<path fill-rule="evenodd" clip-rule="evenodd" fill="none" stroke="#000000" stroke-width="2" stroke-linecap="round" stroke-linejoin="round" stroke-miterlimit="10" d="
		M194.57,84.955c0.186-1.059-0.648-1.423-1.334-1.773c-0.55-0.281-1.193-0.311-1.672,0.329c-1.039,1.387-2.509,2.389-3.475,3.845
		c-0.239,0.36-0.526,0.697-0.711,1.084c-0.589,1.235-0.285,1.853,1.069,2.4c2.045,0.826,4.267,0.846,6.363,1.431
		c1.035,0.289,2.028,0.627,2.884,1.319c1.155,0.936,1.087,2.674,0.116,3.727c-1.327,1.44-3.087,1.98-4.927,2.242
		c-0.523,0.074-1.02,0.258-1.554,0.286c-2.855,0.148-4.413-1.534-4.201-4.569"/>
	
		<path fill-rule="evenodd" clip-rule="evenodd" fill="none" stroke="#000000" stroke-width="2" stroke-linecap="round" stroke-linejoin="round" stroke-miterlimit="10" d="
		M105.051,123.114c-0.05-2.225-0.782-4.323-1.206-6.479c-0.425-2.161-1.08-4.262-1.741-6.359c-0.131-0.416-0.312-0.828-0.542-1.197
		c-0.511-0.823-0.908-0.864-1.545-0.12c-1.544,1.802-2.405,3.985-3.375,6.111c-0.534,1.171-0.563,2.489-1.583,3.567
		c-0.538,0.568-0.133,2-0.217,3.036c-0.111,1.368,0.354,2.713,0.129,4.08"/>
	
		<path fill-rule="evenodd" clip-rule="evenodd" fill="none" stroke="#000000" stroke-width="2" stroke-linecap="round" stroke-linejoin="round" stroke-miterlimit="10" d="
		M193.37,140.874c-0.05-2.225-0.781-4.323-1.206-6.479c-0.425-2.16-1.08-4.262-1.741-6.358c-0.131-0.416-0.312-0.828-0.541-1.197
		c-0.512-0.823-0.908-0.864-1.546-0.12c-1.543,1.802-2.405,3.985-3.374,6.11c-0.534,1.172-0.563,2.489-1.583,3.567
		c-0.539,0.568-0.133,2-0.217,3.036c-0.111,1.368,0.354,2.713,0.128,4.081"/>
	
		<path fill-rule="evenodd" clip-rule="evenodd" fill="none" stroke="#000000" stroke-width="2" stroke-linecap="round" stroke-linejoin="round" stroke-miterlimit="10" d="
		M152.09,110.634c-0.05-2.225-0.782-4.323-1.206-6.479c-0.425-2.161-1.08-4.262-1.741-6.359c-0.131-0.416-0.312-0.828-0.542-1.197
		c-0.511-0.823-0.908-0.864-1.545-0.12c-1.544,1.802-2.405,3.985-3.375,6.111c-0.534,1.171-0.562,2.489-1.583,3.567
		c-0.538,0.568-0.133,2-0.217,3.036c-0.111,1.368,0.354,2.713,0.128,4.081"/>
	
		<path fill-rule="evenodd" clip-rule="evenodd" fill="none" stroke="#000000" stroke-width="2" stroke-linecap="round" stroke-linejoin="round" stroke-miterlimit="10" d="
		M248.09,84.955c-0.05-2.225-0.781-4.324-1.205-6.479c-0.426-2.16-1.08-4.262-1.741-6.359c-0.132-0.416-0.313-0.828-0.542-1.197
		c-0.512-0.823-0.908-0.864-1.545-0.12c-1.544,1.801-2.406,3.985-3.375,6.111c-0.534,1.171-0.563,2.489-1.583,3.567
		c-0.538,0.568-0.133,2-0.217,3.036c-0.111,1.368,0.354,2.713,0.128,4.081"/>
	
		<path fill-rule="evenodd" clip-rule="evenodd" fill="none" stroke="#000000" stroke-width="2" stroke-linecap="round" stroke-linejoin="round" stroke-miterlimit="10" d="
		M172.37,98.034c-1.006,2.632-2.747,4.761-4.82,6.577c-2.156,1.888-4.532,3.468-7.417,4.113c-2.48,0.555-3.565,0.161-4.411-2.061
		c-0.555-1.458-0.491-3.054,0.008-4.535c0.189-0.563,0.292-1.161,0.491-1.673c1.098-2.817,2.688-5.326,5.232-7.097
		c1.33-0.926,2.767-1.208,4.318-0.603"/>
	
		<path fill-rule="evenodd" clip-rule="evenodd" fill="none" stroke="#000000" stroke-width="2" stroke-linecap="round" stroke-linejoin="round" stroke-miterlimit="10" d="
		M138.53,107.154c-1.006,2.632-2.747,4.761-4.82,6.576c-2.156,1.888-4.533,3.468-7.417,4.113c-2.481,0.554-3.566,0.16-4.411-2.061
		c-0.555-1.458-0.491-3.054,0.007-4.536c0.189-0.563,0.292-1.161,0.492-1.673c1.098-2.816,2.688-5.326,5.232-7.097
		c1.331-0.926,2.766-1.208,4.318-0.603"/>
	
		<path fill-rule="evenodd" clip-rule="evenodd" fill="none" stroke="#000000" stroke-width="2" stroke-linecap="round" stroke-linejoin="round" stroke-miterlimit="10" d="
		M250.37,108.834c-1.016,0.999-1.992,2.029-2.762,3.239c-0.951,1.497-1.622,3.113-2.18,4.794c-0.227,0.685-0.483,1.354-0.984,1.986
		c-0.405,0.511-0.235,1.547-0.179,2.34c0.154,2.163,0.385,4.321,0.585,6.481"/>
	
		<path fill-rule="evenodd" clip-rule="evenodd" fill="none" stroke="#000000" stroke-width="2" stroke-linecap="round" stroke-linejoin="round" stroke-miterlimit="10" d="
		M181.73,85.794c-1.016,0.999-1.992,2.029-2.762,3.239c-0.951,1.497-1.622,3.113-2.18,4.793c-0.228,0.686-0.483,1.354-0.984,1.986
		c-0.405,0.511-0.235,1.547-0.179,2.34c0.154,2.163,0.385,4.321,0.584,6.481"/>
	
		<path fill-rule="evenodd" clip-rule="evenodd" fill="none" stroke="#000000" stroke-width="2" stroke-linecap="round" stroke-linejoin="round" stroke-miterlimit="10" d="
		M150.771,135.475c-1.016,0.998-1.993,2.028-2.762,3.238c-0.952,1.497-1.622,3.113-2.18,4.794c-0.227,0.686-0.484,1.354-0.984,1.986
		c-0.405,0.511-0.235,1.547-0.179,2.34c0.155,2.163,0.384,4.321,0.584,6.481"/>
	
		<path fill-rule="evenodd" clip-rule="evenodd" fill="none" stroke="#000000" stroke-width="2" stroke-linecap="round" stroke-linejoin="round" stroke-miterlimit="10" d="
		M116.451,103.915c-0.726,2.11-1.084,4.316-1.505,6.491c-0.264,1.364-0.288,2.809-0.563,4.184c-0.346,1.722-0.055,3.557-1.012,5.189
		c-0.234,0.399,0.04,1.096,0.08,1.656"/>
	
		<path fill-rule="evenodd" clip-rule="evenodd" fill="none" stroke="#000000" stroke-width="2" stroke-linecap="round" stroke-linejoin="round" stroke-miterlimit="10" d="
		M174.53,130.314c-0.055,1.24,0.559,2.32,0.846,3.479c0.685,2.759,1.55,5.475,2.021,8.283c0.125,0.748,0.563,1.552-0.106,2.278"/>
	
		<path fill-rule="evenodd" clip-rule="evenodd" fill="none" stroke="#000000" stroke-width="2" stroke-linecap="round" stroke-linejoin="round" stroke-miterlimit="10" d="
		M136.49,102.234c-0.524,0.654-1.365,0.716-2.049,1.062c-3.674,1.854-6.997,4.265-10.42,6.514c-0.5,0.329-0.94,0.67-1.57,0.585"/>
	
		<path fill-rule="evenodd" clip-rule="evenodd" fill="none" stroke="#000000" stroke-width="2" stroke-linecap="round" stroke-linejoin="round" stroke-miterlimit="10" d="
		M170.33,93.114c-0.524,0.654-1.364,0.716-2.049,1.062c-3.675,1.854-6.997,4.265-10.421,6.514c-0.5,0.329-0.94,0.67-1.57,0.585"/>
	
		<path fill-rule="evenodd" clip-rule="evenodd" fill="none" stroke="#000000" stroke-width="2" stroke-linecap="round" stroke-linejoin="round" stroke-miterlimit="10" d="
		M217.13,120.715c1.021,3.382,1.511,6.882,2.265,10.323c0.172,0.784,0.545,1.553,0.376,2.396"/>
	
		<path fill-rule="evenodd" clip-rule="evenodd" fill="none" stroke="#000000" stroke-width="2" stroke-linecap="round" stroke-linejoin="round" stroke-miterlimit="10" d="
		M105.891,107.515c0.32,0.56,0.557,1.192,0.974,1.668c2.398,2.738,3.745,6.081,5.368,9.261c0.271,0.532,0.531,1.035,0.978,1.431"/>
	
		<path fill-rule="evenodd" clip-rule="evenodd" fill="none" stroke="#000000" stroke-width="2" stroke-linecap="round" stroke-linejoin="round" stroke-miterlimit="10" d="
		M263.45,70.194c1.119,0.999,0.911,2.477,1.287,3.73c0.529,1.761,0.821,3.593,1.237,5.389c0.193,0.833,0.382,1.659,0.235,2.521"/>
	
		<path fill-rule="evenodd" clip-rule="evenodd" fill="none" stroke="#000000" stroke-width="2" stroke-linecap="round" stroke-linejoin="round" stroke-miterlimit="10" d="
		M168.41,137.154c1.119,0.999,0.911,2.477,1.288,3.729c0.528,1.762,0.821,3.593,1.237,5.39c0.192,0.833,0.382,1.659,0.234,2.521"/>
	
		<path fill-rule="evenodd" clip-rule="evenodd" fill="none" stroke="#000000" stroke-width="2" stroke-linecap="round" stroke-linejoin="round" stroke-miterlimit="10" d="
		M210.29,123.834c0.536,0.44,0.613,1.032,0.605,1.681c-0.026,2.287,0.613,4.485,0.893,6.728c0.157,1.26,0.744,2.427,0.662,3.712"/>
	
		<path fill-rule="evenodd" clip-rule="evenodd" fill="none" stroke="#000000" stroke-width="2" stroke-linecap="round" stroke-linejoin="round" stroke-miterlimit="10" d="
		M230.69,77.035c0.536,0.44,0.613,1.032,0.605,1.68c-0.027,2.288,0.612,4.486,0.892,6.728c0.157,1.259,0.745,2.427,0.663,3.712"/>
	
		<path fill-rule="evenodd" clip-rule="evenodd" fill="none" stroke="#000000" stroke-width="2" stroke-linecap="round" stroke-linejoin="round" stroke-miterlimit="10" d="
		M142.61,137.274c-0.088,1.53,0.814,2.839,0.968,4.319c0.076,0.725,0.307,1.438,0.329,2.161c0.018,0.6,0.188,1.058,0.623,1.439"/>
	
		<path fill-rule="evenodd" clip-rule="evenodd" fill="none" stroke="#000000" stroke-width="2" stroke-linecap="round" stroke-linejoin="round" stroke-miterlimit="10" d="
		M173.57,87.594c-0.088,1.531,0.813,2.839,0.968,4.319c0.075,0.725,0.308,1.438,0.329,2.162c0.018,0.6,0.188,1.057,0.623,1.439"/>
	
		<path fill-rule="evenodd" clip-rule="evenodd" fill="none" stroke="#000000" stroke-width="2" stroke-linecap="round" stroke-linejoin="round" stroke-miterlimit="10" d="
		M242.21,110.634c-0.088,1.531,0.813,2.839,0.968,4.319c0.075,0.725,0.308,1.438,0.329,2.162c0.018,0.6,0.188,1.057,0.623,1.439"/>
	
		<path fill-rule="evenodd" clip-rule="evenodd" fill="none" stroke="#000000" stroke-width="2" stroke-linecap="round" stroke-linejoin="round" stroke-miterlimit="10" d="
		M139.61,99.714c0.774,1.608,1.448,3.256,1.664,5.042c0.059,0.485,0.316,0.773,0.616,1.078"/>
	
		<path fill-rule="evenodd" clip-rule="evenodd" fill="none" stroke="#000000" stroke-width="2" stroke-linecap="round" stroke-linejoin="round" stroke-miterlimit="10" d="
		M180.891,129.954c0.773,1.608,1.447,3.256,1.663,5.042c0.059,0.485,0.317,0.773,0.616,1.078"/>
	
		<path fill-rule="evenodd" clip-rule="evenodd" fill="none" stroke="#000000" stroke-width="2" stroke-linecap="round" stroke-linejoin="round" stroke-miterlimit="10" d="
		M92.57,112.194c0.774,1.608,1.448,3.256,1.664,5.042c0.059,0.485,0.316,0.773,0.616,1.078"/>
	
		<path fill-rule="evenodd" clip-rule="evenodd" fill="none" stroke="#000000" stroke-width="2" stroke-linecap="round" stroke-linejoin="round" stroke-miterlimit="10" d="
		M235.61,74.035c0.774,1.608,1.447,3.256,1.663,5.042c0.06,0.485,0.317,0.773,0.617,1.078"/>
	
		<path fill-rule="evenodd" clip-rule="evenodd" fill="none" stroke="#000000" stroke-width="2" stroke-linecap="round" stroke-linejoin="round" stroke-miterlimit="10" d="
		M222.891,117.834c-3.185,1.279-6.285,2.722-9.118,4.683c-0.197,0.137-0.271,0.354-0.242,0.597"/>
	
		<path fill-rule="evenodd" clip-rule="evenodd" fill="none" stroke="#000000" stroke-width="2" stroke-linecap="round" stroke-linejoin="round" stroke-miterlimit="10" d="
		M216.771,114.955c-0.08,1.404-0.55,2.673-1.32,3.84"/>
</g>
</svg>
