<?xml version="1.0" encoding="utf-8"?>
<!-- Generator: Adobe Illustrator 16.0.0, SVG Export Plug-In . SVG Version: 6.00 Build 0)  -->
<!DOCTYPE svg PUBLIC "-//W3C//DTD SVG 1.1//EN" "http://www.w3.org/Graphics/SVG/1.1/DTD/svg11.dtd">
<svg version="1.1" id="Layer_1" xmlns="http://www.w3.org/2000/svg" xmlns:xlink="http://www.w3.org/1999/xlink" x="0px" y="0px"
	 width="320px" height="240px" viewBox="0 0 320 240" enable-background="new 0 0 320 240" xml:space="preserve">
<g>
	
		<path fill-rule="evenodd" clip-rule="evenodd" fill="none" stroke="#000000" stroke-width="2" stroke-linecap="round" stroke-linejoin="round" stroke-miterlimit="10" d="
		M204.979,127.657c0.063-0.921,0.126-1.843,0.193-2.831c-0.553-0.836-1.417-0.913-2.352-0.645
		c-4.233,1.214-7.906,3.271-10.187,7.204c-1.766,3.047-1.791,6.358-0.68,9.572c0.711,2.057,2.516,2.367,4.373,0.845
		c2.233-1.829,3.592-4.354,4.892-6.847c0.988-1.896,2.062-3.776,2.71-5.85c0.15-0.479,0.399-1.043,0.983-1.327
		c0.811,0.411,0.886,1.3,1.001,2.042c0.627,4.027,1.559,7.993,2.305,11.996c0.604,3.247,0.508,6.381-1.435,9.242
		c-1.598,2.354-3.912,3.405-6.59,4.13c-2.917,0.79-5.811,0.885-8.639,0.13c-2.505-0.669-4.629-2.171-6.076-4.442"/>
	
		<path fill-rule="evenodd" clip-rule="evenodd" fill="none" stroke="#000000" stroke-width="2" stroke-linecap="round" stroke-linejoin="round" stroke-miterlimit="10" d="
		M185.899,84.577c-1.396-0.543-2.711-0.264-4.088,0.218c-3.911,1.368-7.162,3.553-9.22,7.229c-1.744,3.116-1.792,6.43-0.579,9.702
		c0.818,2.207,2.635,2.379,4.397,0.96c2.048-1.648,3.45-3.854,4.656-6.126c1.484-2.795,3.076-5.556,4-8.62
		c0.153-0.51,0.585-0.841,0.953-1.202"/>
	
		<path fill-rule="evenodd" clip-rule="evenodd" fill="none" stroke="#000000" stroke-width="2" stroke-linecap="round" stroke-linejoin="round" stroke-miterlimit="10" d="
		M135.979,111.097c0.889-0.035,1.614,0.277,2.032,1.084c0.371,0.716,0.961,0.836,1.688,0.845c3.891,0.05,6.864-1.746,8.967-4.832
		c2.71-3.975,2.711-8.263,0.746-12.574c-1.361-2.985-3.679-2.489-5.503-0.833c-1.419,1.288-2.154,3.017-2.767,4.791
		c-0.871,2.517-1.706,5.047-2.146,7.682c-0.086,0.52-0.447,0.75-0.736,1.077"/>
	
		<path fill-rule="evenodd" clip-rule="evenodd" fill="none" stroke="#000000" stroke-width="2" stroke-linecap="round" stroke-linejoin="round" stroke-miterlimit="10" d="
		M220.939,74.737c-1.945-0.023-3.624,0.858-5.269,1.702c-3.165,1.625-5.642,3.977-6.838,7.422c-0.953,2.743-0.906,5.524,0.379,8.14
		c0.769,1.566,1.794,1.959,3.438,0.96c2.054-1.247,3.238-3.307,4.42-5.282c1.395-2.331,2.584-4.789,3.604-7.313
		c0.181-0.448,0.627-0.629,0.749-1.08c1.151,0.533,1.091,1.733,1.273,2.659c0.538,2.736,1.179,5.446,1.851,8.149
		c0.16,0.642,0.106,1.28,0.113,1.922"/>
	
		<path fill-rule="evenodd" clip-rule="evenodd" fill="none" stroke="#000000" stroke-width="2" stroke-linecap="round" stroke-linejoin="round" stroke-miterlimit="10" d="
		M111.979,162.157c0.295,0.179,0.735-0.123,0.961,0.299c0.683,1.278,2.025,1.255,3.12,1.279c7.599,0.171,14.349-2.098,19.903-7.415
		c1.688-1.616,3.073-3.552,3.587-5.869c0.929-4.186,0.035-7.876-3.453-10.672c-2.715-2.178-5.649-3.87-9.111-4.655
		c-2.798-0.635-5.613-0.637-8.404-0.455c-3.178,0.206-6.299,0.948-9.366,1.861c-2.311,0.688-2.664,1.23-2.036,3.486
		c1.915,6.882,3.848,13.758,5.736,20.646c0.13,0.474-0.058,1.034-0.098,1.554"/>
	
		<path fill-rule="evenodd" clip-rule="evenodd" fill="none" stroke="#000000" stroke-width="2" stroke-linecap="round" stroke-linejoin="round" stroke-miterlimit="10" d="
		M172.279,130.417c-0.377,0.702-0.954,1.237-1.499,1.801c-0.963,0.997-1.949,1.975-2.867,3.011c-0.399,0.45-0.711,1.002-0.962,1.554
		c-0.612,1.348-0.328,1.952,1.067,2.517c1.697,0.686,3.512,0.838,5.28,1.201c1.585,0.326,3.203,0.566,4.561,1.558
		c1.367,0.999,1.607,2.618,0.602,3.96c-1.232,1.645-3.033,2.249-4.925,2.623c-1.18,0.234-2.394,0.55-3.593,0.355
		c-2.169-0.354-2.923-1.277-3.234-3.7c-0.031-0.237-0.024-0.457-0.249-0.599"/>
	
		<path fill-rule="evenodd" clip-rule="evenodd" fill="none" stroke="#000000" stroke-width="2" stroke-linecap="round" stroke-linejoin="round" stroke-miterlimit="10" d="
		M107.06,92.617c-0.16,4.6-0.227,9.206-0.531,13.797c-0.106,1.604-0.068,3.207-0.201,4.802c-0.229,2.757-0.515,5.511-0.447,8.28
		c0.017,0.694-0.649,0.929-0.741,1.5"/>
	
		<path fill-rule="evenodd" clip-rule="evenodd" fill="none" stroke="#000000" stroke-width="2" stroke-linecap="round" stroke-linejoin="round" stroke-miterlimit="10" d="
		M132.62,84.817c0.92-0.08,0.811,0.789,0.924,1.21c1.29,4.806,2.201,9.688,2.806,14.629c0.265,2.167,0.629,4.322,0.953,6.481
		c0.019,0.123,0.043,0.273,0.123,0.355c1.255,1.29,0.862,2.621,0.115,3.965"/>
	
		<path fill-rule="evenodd" clip-rule="evenodd" fill="none" stroke="#000000" stroke-width="2" stroke-linecap="round" stroke-linejoin="round" stroke-miterlimit="10" d="
		M164.06,143.137c-2.227,4.971-5.861,8.59-10.687,11.026c-1.305,0.659-2.742,1.03-4.195,1.197c-1.582,0.183-3.292-1.19-3.567-2.988
		c-0.26-1.695-0.207-3.364,0.5-5.063c0.485-1.166,0.79-2.428,1.387-3.573c1.117-2.143,2.517-4.092,4.586-5.36
		c1.268-0.776,2.722-1.568,4.297-0.518"/>
	
		<path fill-rule="evenodd" clip-rule="evenodd" fill="none" stroke="#000000" stroke-width="2" stroke-linecap="round" stroke-linejoin="round" stroke-miterlimit="10" d="
		M134.06,106.417c-2.227,4.97-5.861,8.589-10.687,11.026c-1.306,0.659-2.742,1.03-4.195,1.198c-1.582,0.182-3.292-1.19-3.567-2.988
		c-0.26-1.696-0.207-3.364,0.5-5.064c0.485-1.166,0.79-2.428,1.387-3.573c1.117-2.143,2.517-4.092,4.586-5.36
		c1.268-0.777,2.722-1.568,4.296-0.518"/>
	
		<path fill-rule="evenodd" clip-rule="evenodd" fill="none" stroke="#000000" stroke-width="2" stroke-linecap="round" stroke-linejoin="round" stroke-miterlimit="10" d="
		M106.459,124.897c-0.482,0.072-0.488-0.315-0.533-0.602c-0.28-1.76-1.014-3.286-1.933-4.831c-1.33-2.234-2.216-4.729-3.431-7.039
		c-2.057-3.913-4.218-7.772-6.349-11.646c-0.306-0.556-0.687-1.07-1.314-1.323"/>
	
		<path fill-rule="evenodd" clip-rule="evenodd" fill="none" stroke="#000000" stroke-width="2" stroke-linecap="round" stroke-linejoin="round" stroke-miterlimit="10" d="
		M92.3,97.057c0.04,0.04,0.109,0.076,0.116,0.121c0.442,3.15-0.449,6.233-0.473,9.359c-0.011,1.405-0.197,2.81-0.197,4.2
		c0,2.36-0.377,4.718-0.058,7.082c0.075,0.559,0.127,1.175-0.238,1.67c-0.243,0.329-0.146,0.616-0.135,0.969
		c0.04,1.289,0.677,2.445,0.751,3.719c0.017,0.292,0.269,0.251,0.474,0.24"/>
	
		<path fill-rule="evenodd" clip-rule="evenodd" fill="none" stroke="#000000" stroke-width="2" stroke-linecap="round" stroke-linejoin="round" stroke-miterlimit="10" d="
		M81.859,101.857c0.776,0.265,1.279,0.853,1.545,1.565c0.982,2.628,2.487,5.002,3.601,7.561c1.103,2.532,2.135,5.099,3.103,7.686
		c0.22,0.588,0.59,0.927,0.991,1.308"/>
	
		<path fill-rule="evenodd" clip-rule="evenodd" fill="none" stroke="#000000" stroke-width="2" stroke-linecap="round" stroke-linejoin="round" stroke-miterlimit="10" d="
		M193.939,98.017c-0.389-2.033-0.201-4.078-0.112-6.12c0.014-0.319-0.152-0.678,0.114-0.958c1.441-1.517,1.487-3.645,2.354-5.423
		c0.856-1.756,1.675-3.504,2.924-5.019c0.862-1.046,1.268-1.018,1.911,0.245c0.848,1.662,1.23,3.483,1.688,5.276
		c0.799,3.13,1.531,6.275,1.98,9.479"/>
	
		<path fill-rule="evenodd" clip-rule="evenodd" fill="none" stroke="#000000" stroke-width="2" stroke-linecap="round" stroke-linejoin="round" stroke-miterlimit="10" d="
		M213.62,137.377c-0.39-2.033-0.202-4.078-0.113-6.119c0.014-0.319-0.152-0.678,0.115-0.959c1.44-1.518,1.487-3.645,2.354-5.423
		c0.855-1.756,1.674-3.504,2.923-5.019c0.862-1.045,1.269-1.018,1.912,0.245c0.847,1.662,1.229,3.483,1.688,5.275
		c0.799,3.131,1.531,6.276,1.98,9.48"/>
	
		<path fill-rule="evenodd" clip-rule="evenodd" fill="none" stroke="#000000" stroke-width="2" stroke-linecap="round" stroke-linejoin="round" stroke-miterlimit="10" d="
		M161.66,138.457c-2.28,0.642-4.264,1.884-6.234,3.131c-2.587,1.638-5.139,3.331-7.674,5.048c-0.404,0.274-0.74,0.464-1.213,0.342"
		/>
	
		<path fill-rule="evenodd" clip-rule="evenodd" fill="none" stroke="#000000" stroke-width="2" stroke-linecap="round" stroke-linejoin="round" stroke-miterlimit="10" d="
		M131.66,101.737c-2.279,0.641-4.264,1.883-6.233,3.13c-2.587,1.638-5.139,3.332-7.674,5.049c-0.404,0.273-0.74,0.463-1.213,0.341"
		/>
	
		<path fill-rule="evenodd" clip-rule="evenodd" fill="none" stroke="#000000" stroke-width="2" stroke-linecap="round" stroke-linejoin="round" stroke-miterlimit="10" d="
		M182.779,129.457c0.4,1.64,0.705,3.312,1.222,4.913c0.867,2.686,1.448,5.439,2.126,8.17c0.094,0.377,0.157,0.882-0.018,1.179
		c-0.343,0.582-0.182,1.059,0.03,1.578"/>
	
		<path fill-rule="evenodd" clip-rule="evenodd" fill="none" stroke="#000000" stroke-width="2" stroke-linecap="round" stroke-linejoin="round" stroke-miterlimit="10" d="
		M218.12,60.577c0.02,0.12-0.004,0.286,0.066,0.353c1.313,1.255,1.318,2.948,1.555,4.567c0.434,2.96,0.884,5.919,1.307,8.882
		c0.031,0.215,0.093,0.376,0.255,0.474c0.946,0.57,0.635,1.528,0.547,2.278c-0.085,0.721-0.178,1.438-0.189,2.166"/>
	
		<path fill-rule="evenodd" clip-rule="evenodd" fill="none" stroke="#000000" stroke-width="2" stroke-linecap="round" stroke-linejoin="round" stroke-miterlimit="10" d="
		M186.62,83.137c-0.717,0.998-0.136,2.187-0.478,3.241c-0.023,0.072-0.034,0.179,0.002,0.236c0.882,1.421,0.604,3.015,0.745,4.56
		c0.144,1.572,0.618,3.113,0.783,4.686c0.144,1.363,0.627,2.629,0.867,3.957"/>
	
		<path fill-rule="evenodd" clip-rule="evenodd" fill="none" stroke="#000000" stroke-width="2" stroke-linecap="round" stroke-linejoin="round" stroke-miterlimit="10" d="
		M191.06,83.797c1.27,1.51,1.581,3.401,2.014,5.227c0.149,0.63,0.261,1.219,0.746,1.674"/>
	
		<path fill-rule="evenodd" clip-rule="evenodd" fill="none" stroke="#000000" stroke-width="2" stroke-linecap="round" stroke-linejoin="round" stroke-miterlimit="10" d="
		M210.74,123.157c1.27,1.51,1.58,3.401,2.013,5.227c0.15,0.63,0.262,1.219,0.747,1.674"/>
	
		<path fill-rule="evenodd" clip-rule="evenodd" fill="none" stroke="#000000" stroke-width="2" stroke-linecap="round" stroke-linejoin="round" stroke-miterlimit="10" d="
		M106.819,137.857c-0.651-0.309-1.146,0.063-1.685,0.352c-0.678,0.363-1.209,1.004-2.035,1.088"/>
</g>
</svg>
