<?xml version="1.0" encoding="utf-8"?>
<!-- Generator: Adobe Illustrator 16.0.0, SVG Export Plug-In . SVG Version: 6.00 Build 0)  -->
<!DOCTYPE svg PUBLIC "-//W3C//DTD SVG 1.1//EN" "http://www.w3.org/Graphics/SVG/1.1/DTD/svg11.dtd">
<svg version="1.1" id="Layer_1" xmlns="http://www.w3.org/2000/svg" xmlns:xlink="http://www.w3.org/1999/xlink" x="0px" y="0px"
	 width="320px" height="240px" viewBox="0 0 320 240" enable-background="new 0 0 320 240" xml:space="preserve">
<g>
	
		<path fill-rule="evenodd" clip-rule="evenodd" fill="none" stroke="#000000" stroke-width="2" stroke-linecap="round" stroke-linejoin="round" stroke-miterlimit="10" d="
		M180.58,82.462c-1.311-0.576-2.406-0.244-3.491,0.646c-2.293,1.878-4.123,4.041-4.917,6.972c-0.484,1.79,0.115,3.278,1.817,3.815
		c1.317,0.416,2.706,0.616,4.072,0.861c2.13,0.382,4.312,0.588,6.231,1.7c0.609,0.353,1.249,0.774,1.666,1.323
		c1.633,2.15,1.163,3.296-0.348,4.654c-2.923,2.628-6.394,3.834-10.31,3.591c-2.285-0.141-3.883-1.786-4.444-4.301
		c-0.1-0.445-0.237-0.881-0.357-1.321"/>
	
		<path fill-rule="evenodd" clip-rule="evenodd" fill="none" stroke="#000000" stroke-width="2" stroke-linecap="round" stroke-linejoin="round" stroke-miterlimit="10" d="
		M43.18,118.642c1.017-0.141,1.436,0.4,1.692,1.317c1.776,6.34,3.796,12.621,4.552,19.203c0.042,0.364,0.145,0.723,0.27,1.335
		c5.818-1.377,11.448-3.058,16.286-6.734"/>
	
		<path fill-rule="evenodd" clip-rule="evenodd" fill="none" stroke="#000000" stroke-width="2" stroke-linecap="round" stroke-linejoin="round" stroke-miterlimit="10" d="
		M92.08,117.083c0.069-0.278,0.139-0.556,0.217-0.871c-0.339-0.216-0.667-0.425-1.124-0.716c-4.426,1.016-8.152,3.069-9.811,7.714
		c-0.678,1.897-0.594,3.891,0.236,5.744c0.861,1.92,1.875,2.101,3.166,1.021c1.368-1.144,2.44-2.726,3.379-4.275
		c1.154-1.907,2.037-3.978,3.037-5.978c0.208-0.416,0.416-0.832,0.624-1.248c0.127-0.009,0.253-0.019,0.38-0.028
		c0.306,1.145,0.675,2.278,0.903,3.438c0.559,2.832,1.125,5.667,1.552,8.521c0.392,2.621,0.175,5.129-1.636,7.336
		c-1.318,1.606-3.093,2.27-4.951,2.71c-2.651,0.63-5.311,0.7-7.922-0.427c-1.531-0.661-2.689-1.664-3.591-3.022"/>
	
		<path fill-rule="evenodd" clip-rule="evenodd" fill="none" stroke="#000000" stroke-width="2" stroke-linecap="round" stroke-linejoin="round" stroke-miterlimit="10" d="
		M206.021,98.122c5.244,0.469,9.283-4.618,9.15-9.121c-0.043-1.461-0.218-2.886-0.781-4.186c-1.036-2.392-2.705-3.313-4.977-0.942
		c-0.768,0.802-1.304,1.916-1.68,2.98c-0.677,1.918-1.144,3.911-1.726,5.865c-0.067,0.228-0.308,0.404-0.468,0.604"/>
	
		<path fill-rule="evenodd" clip-rule="evenodd" fill="none" stroke="#000000" stroke-width="2" stroke-linecap="round" stroke-linejoin="round" stroke-miterlimit="10" d="
		M179.62,140.843c5.245,0.469,9.283-4.618,9.15-9.121c-0.043-1.461-0.217-2.887-0.78-4.187c-1.037-2.391-2.706-3.313-4.977-0.941
		c-0.768,0.802-1.305,1.915-1.681,2.98c-0.677,1.918-1.144,3.911-1.725,5.864c-0.068,0.228-0.308,0.404-0.468,0.604"/>
	
		<path fill-rule="evenodd" clip-rule="evenodd" fill="none" stroke="#000000" stroke-width="2" stroke-linecap="round" stroke-linejoin="round" stroke-miterlimit="10" d="
		M221.86,93.802c5.245,0.469,9.283-4.618,9.15-9.121c-0.043-1.461-0.218-2.886-0.78-4.186c-1.037-2.391-2.706-3.313-4.978-0.941
		c-0.767,0.801-1.304,1.915-1.68,2.98c-0.677,1.918-1.144,3.911-1.726,5.864c-0.067,0.228-0.307,0.404-0.467,0.604"/>
	
		<path fill-rule="evenodd" clip-rule="evenodd" fill="none" stroke="#000000" stroke-width="2" stroke-linecap="round" stroke-linejoin="round" stroke-miterlimit="10" d="
		M142.9,103.162c-0.446-1.021-0.807-1.198-1.799-0.837c-1.314,0.479-2.368,1.339-3.233,2.404c-1.821,2.243-3.145,4.717-3.372,7.673
		c-0.21,2.744,1.462,4.886,4.921,3.594c4.325-1.615,7.569-4.454,9.619-8.625c0.11-0.224,0.463-0.328,0.703-0.488"/>
	
		<path fill-rule="evenodd" clip-rule="evenodd" fill="none" stroke="#000000" stroke-width="2" stroke-linecap="round" stroke-linejoin="round" stroke-miterlimit="10" d="
		M170.62,130.282c-0.627-0.471-1.254-0.94-1.994-1.495c-1.489,2.333-4.301,3.404-4.43,6.366c1.133,1.104,2.581,1.052,3.904,1.37
		c1.32,0.316,2.665,0.562,3.954,0.976c2.251,0.725,2.728,3.099,0.714,4.526c-1.81,1.282-3.948,1.665-6.105,1.538
		c-1.46-0.087-2.199-1.184-2.398-2.602c-0.06-0.421,0.161-0.993-0.604-0.96"/>
	
		<path fill-rule="evenodd" clip-rule="evenodd" fill="none" stroke="#000000" stroke-width="2" stroke-linecap="round" stroke-linejoin="round" stroke-miterlimit="10" d="
		M111.1,110.603c-0.626-0.47-1.253-0.94-1.994-1.496c-1.489,2.333-4.301,3.405-4.43,6.366c1.132,1.105,2.582,1.053,3.904,1.37
		c1.321,0.317,2.665,0.562,3.955,0.977c2.25,0.724,2.728,3.099,0.714,4.526c-1.81,1.282-3.949,1.665-6.106,1.537
		c-1.459-0.086-2.199-1.183-2.398-2.601c-0.059-0.421,0.162-0.994-0.604-0.96"/>
	
		<path fill-rule="evenodd" clip-rule="evenodd" fill="none" stroke="#000000" stroke-width="2" stroke-linecap="round" stroke-linejoin="round" stroke-miterlimit="10" d="
		M155.86,133.643c0.6,0.28,1.186,0.597,1.803,0.833c1.643,0.63,2.448,1.817,2.526,3.606c0.142,3.258-1.018,5.947-3.506,8.02
		c-0.646,0.538-1.473,0.899-2.271,1.2c-0.905,0.341-2.203-0.48-2.864-1.783c-1.169-2.306-0.846-4.658,0.015-6.947
		c0.47-1.249,1.177-2.409,1.777-3.609"/>
	
		<path fill-rule="evenodd" clip-rule="evenodd" fill="none" stroke="#000000" stroke-width="2" stroke-linecap="round" stroke-linejoin="round" stroke-miterlimit="10" d="
		M240.341,75.322c0.6,0.28,1.186,0.597,1.803,0.833c1.643,0.63,2.447,1.818,2.525,3.606c0.143,3.258-1.018,5.947-3.506,8.02
		c-0.646,0.538-1.473,0.899-2.271,1.2c-0.904,0.341-2.202-0.48-2.864-1.783c-1.169-2.305-0.846-4.658,0.016-6.947
		c0.47-1.249,1.177-2.409,1.776-3.609"/>
	
		<path fill-rule="evenodd" clip-rule="evenodd" fill="none" stroke="#000000" stroke-width="2" stroke-linecap="round" stroke-linejoin="round" stroke-miterlimit="10" d="
		M73.06,120.202c0.6,0.28,1.186,0.597,1.803,0.833c1.643,0.63,2.448,1.818,2.526,3.606c0.142,3.259-1.018,5.947-3.506,8.021
		c-0.645,0.537-1.473,0.898-2.271,1.199c-0.904,0.342-2.202-0.479-2.864-1.783c-1.17-2.305-0.846-4.658,0.015-6.947
		c0.47-1.249,1.177-2.408,1.777-3.608"/>
	
		<path fill-rule="evenodd" clip-rule="evenodd" fill="none" stroke="#000000" stroke-width="2" stroke-linecap="round" stroke-linejoin="round" stroke-miterlimit="10" d="
		M256.9,106.042c0.04,0.8,0.08,1.6,0.12,2.4"/>
	
		<path fill-rule="evenodd" clip-rule="evenodd" fill="none" stroke="#000000" stroke-width="2" stroke-linecap="round" stroke-linejoin="round" stroke-miterlimit="10" d="
		M257.261,110.002c0.479,1.56,0.985,3.113,1.434,4.682c0.586,2.053,1.168,4.108,1.677,6.18c0.817,3.335-0.496,5.923-3.128,7.834
		c-2.512,1.823-5.422,2.448-8.499,2.037c-0.744-0.099-1.443-0.533-2.164-0.813"/>
	
		<path fill-rule="evenodd" clip-rule="evenodd" fill="none" stroke="#000000" stroke-width="2" stroke-linecap="round" stroke-linejoin="round" stroke-miterlimit="10" d="
		M225.7,106.882c0.28,1.32,0.6,2.633,0.831,3.961c0.318,1.833,0.566,3.679,0.85,5.519c0.357,2.32,0.755,4.635,1.067,6.962
		c0.209,1.559,0.914,3.054,0.612,4.678"/>
	
		<path fill-rule="evenodd" clip-rule="evenodd" fill="none" stroke="#000000" stroke-width="2" stroke-linecap="round" stroke-linejoin="round" stroke-miterlimit="10" d="
		M111.7,145.763c-3.731,0.665-6.812,2.423-8.856,5.655c-1.502,2.375-1.6,5.027-0.722,7.657c0.572,1.714,2.218,2.103,3.555,0.823
		c0.999-0.957,1.934-2.048,2.629-3.236c1.127-1.926,2.021-3.986,3.045-5.975c0.205-0.398,0.549-0.726,0.829-1.085"/>
	
		<path fill-rule="evenodd" clip-rule="evenodd" fill="none" stroke="#000000" stroke-width="2" stroke-linecap="round" stroke-linejoin="round" stroke-miterlimit="10" d="
		M221.381,116.842c-1.363-0.761-2.611-0.13-3.836,0.37c-3.277,1.34-5.974,3.288-7.222,6.824c-0.759,2.152-0.62,4.275,0.047,6.356
		c0.521,1.624,2.478,1.969,3.775,0.577c1.279-1.371,2.438-2.916,3.355-4.55c1.276-2.271,2.271-4.702,3.409-7.053
		c0.171-0.354,0.471-0.645,0.71-0.965"/>
	
		<path fill-rule="evenodd" clip-rule="evenodd" fill="none" stroke="#000000" stroke-width="2" stroke-linecap="round" stroke-linejoin="round" stroke-miterlimit="10" d="
		M83.86,153.803c-1.363-0.761-2.611-0.131-3.836,0.37c-3.277,1.34-5.973,3.287-7.221,6.823c-0.76,2.152-0.621,4.276,0.046,6.356
		c0.52,1.624,2.478,1.969,3.775,0.577c1.279-1.371,2.438-2.916,3.355-4.55c1.276-2.271,2.271-4.702,3.409-7.053
		c0.171-0.354,0.471-0.645,0.71-0.965"/>
	
		<path fill-rule="evenodd" clip-rule="evenodd" fill="none" stroke="#000000" stroke-width="2" stroke-linecap="round" stroke-linejoin="round" stroke-miterlimit="10" d="
		M198.16,89.482c0.26,1.68,0.416,3.385,0.811,5.033c0.381,1.593,1.014,3.125,1.524,4.689c0.075,0.229,0.085,0.478,0.125,0.718"/>
	
		<path fill-rule="evenodd" clip-rule="evenodd" fill="none" stroke="#000000" stroke-width="2" stroke-linecap="round" stroke-linejoin="round" stroke-miterlimit="10" d="
		M144.22,139.042c-2.08,0.841-4.158,1.686-6.24,2.52c-3.195,1.278-6.317,2.795-9.84,3.001"/>
	
		<path fill-rule="evenodd" clip-rule="evenodd" fill="none" stroke="#000000" stroke-width="2" stroke-linecap="round" stroke-linejoin="round" stroke-miterlimit="10" d="
		M190.24,90.442c0.061,0.28,0.12,0.56,0.18,0.84"/>
	
		<path fill-rule="evenodd" clip-rule="evenodd" fill="none" stroke="#000000" stroke-width="2" stroke-linecap="round" stroke-linejoin="round" stroke-miterlimit="10" d="
		M190.42,91.402c0.32,3.16,0.633,6.321,0.972,9.479c0.039,0.369,0.229,0.721,0.349,1.082"/>
	
		<path fill-rule="evenodd" clip-rule="evenodd" fill="none" stroke="#000000" stroke-width="2" stroke-linecap="round" stroke-linejoin="round" stroke-miterlimit="10" d="
		M197.62,89.242c-0.399,1.12-0.794,2.242-1.201,3.359c-0.876,2.402-1.661,4.843-2.687,7.18c-0.407,0.928-1.352,1.621-2.052,2.421"/>
	
		<path fill-rule="evenodd" clip-rule="evenodd" fill="none" stroke="#000000" stroke-width="2" stroke-linecap="round" stroke-linejoin="round" stroke-miterlimit="10" d="
		M249.341,108.922c0.782,1.35,0.578,2.868,0.707,4.321c0.171,1.915,0.179,3.848,0.408,5.754c0.095,0.783,0.588,1.518,0.899,2.273
		c0.135,0.006,0.27,0.012,0.403,0.018c0.354-0.402,0.826-0.75,1.043-1.216c1.326-2.854,2.382-5.81,3.154-8.867
		c0.129-0.508,0.465-0.964,0.704-1.444"/>
	
		<path fill-rule="evenodd" clip-rule="evenodd" fill="none" stroke="#000000" stroke-width="2" stroke-linecap="round" stroke-linejoin="round" stroke-miterlimit="10" d="
		M90.58,158.362c0.48-1.16,0.901-2.349,1.454-3.474c0.877-1.783,1.842-3.522,2.716-5.18c1.236,0.008,1.516,0.74,1.698,1.456
		c0.906,3.554,1.772,7.117,2.652,10.678"/>
	
		<path fill-rule="evenodd" clip-rule="evenodd" fill="none" stroke="#000000" stroke-width="2" stroke-linecap="round" stroke-linejoin="round" stroke-miterlimit="10" d="
		M126.7,131.362c0.76,3.56,1.538,7.116,2.275,10.681c0.739,3.572,1.797,7.048,3.151,10.429c0.161,0.401,0.291,1.104,1.053,0.971"/>
	
		<path fill-rule="evenodd" clip-rule="evenodd" fill="none" stroke="#000000" stroke-width="2" stroke-linecap="round" stroke-linejoin="round" stroke-miterlimit="10" d="
		M179.381,140.962c0.199,1.7,0.409,3.399,0.598,5.101c0.255,2.304,1.091,4.533,0.856,6.901c-0.026,0.27,0.146,0.559,0.226,0.839"/>
	
		<path fill-rule="evenodd" clip-rule="evenodd" fill="none" stroke="#000000" stroke-width="2" stroke-linecap="round" stroke-linejoin="round" stroke-miterlimit="10" d="
		M221.62,93.922c0.2,1.7,0.41,3.399,0.598,5.1c0.255,2.303,1.092,4.533,0.857,6.901c-0.027,0.27,0.146,0.559,0.226,0.838"/>
	
		<path fill-rule="evenodd" clip-rule="evenodd" fill="none" stroke="#000000" stroke-width="2" stroke-linecap="round" stroke-linejoin="round" stroke-miterlimit="10" d="
		M88.3,152.723c0.6,1.84,1.2,3.68,1.8,5.52"/>
	
		<path fill-rule="evenodd" clip-rule="evenodd" fill="none" stroke="#000000" stroke-width="2" stroke-linecap="round" stroke-linejoin="round" stroke-miterlimit="10" d="
		M90.28,160.522c0.02,1.399,0.04,2.8,0.06,4.2"/>
	
		<path fill-rule="evenodd" clip-rule="evenodd" fill="none" stroke="#000000" stroke-width="2" stroke-linecap="round" stroke-linejoin="round" stroke-miterlimit="10" d="
		M205.78,98.242c0.2,1.7,0.409,3.399,0.598,5.1c0.255,2.303,1.092,4.533,0.857,6.901c-0.027,0.27,0.146,0.559,0.226,0.838"/>
	
		<path fill-rule="evenodd" clip-rule="evenodd" fill="none" stroke="#000000" stroke-width="2" stroke-linecap="round" stroke-linejoin="round" stroke-miterlimit="10" d="
		M141.22,127.042c0,0.08-0.016,0.164,0.002,0.24c1.598,6.4,3.194,12.801,4.8,19.199c0.342,1.364,0.717,2.721,1.078,4.081"/>
	
		<path fill-rule="evenodd" clip-rule="evenodd" fill="none" stroke="#000000" stroke-width="2" stroke-linecap="round" stroke-linejoin="round" stroke-miterlimit="10" d="
		M219.341,80.962c0.359,2.28,0.706,4.562,1.093,6.837c0.064,0.376,0.307,0.723,0.467,1.083"/>
	
		<path fill-rule="evenodd" clip-rule="evenodd" fill="none" stroke="#000000" stroke-width="2" stroke-linecap="round" stroke-linejoin="round" stroke-miterlimit="10" d="
		M203.5,85.282c0.36,2.28,0.707,4.563,1.094,6.838c0.064,0.376,0.307,0.722,0.467,1.082"/>
	
		<path fill-rule="evenodd" clip-rule="evenodd" fill="none" stroke="#000000" stroke-width="2" stroke-linecap="round" stroke-linejoin="round" stroke-miterlimit="10" d="
		M177.101,128.002c0.359,2.28,0.706,4.563,1.094,6.838c0.063,0.377,0.306,0.723,0.466,1.082"/>
	
		<path fill-rule="evenodd" clip-rule="evenodd" fill="none" stroke="#000000" stroke-width="2" stroke-linecap="round" stroke-linejoin="round" stroke-miterlimit="10" d="
		M233.5,113.122c0.48,1.84,0.979,3.676,1.436,5.521c0.424,1.714,0.846,3.431,1.185,5.163c0.128,0.654,0.021,1.355,0.021,2.036"/>
	
		<path fill-rule="evenodd" clip-rule="evenodd" fill="none" stroke="#000000" stroke-width="2" stroke-linecap="round" stroke-linejoin="round" stroke-miterlimit="10" d="
		M193.181,123.922c0.479,1.841,0.978,3.676,1.435,5.521c0.424,1.714,0.846,3.431,1.185,5.163c0.128,0.655,0.021,1.356,0.021,2.036"
		/>
	
		<path fill-rule="evenodd" clip-rule="evenodd" fill="none" stroke="#000000" stroke-width="2" stroke-linecap="round" stroke-linejoin="round" stroke-miterlimit="10" d="
		M127.9,105.682c0.48,1.84,0.978,3.676,1.435,5.521c0.424,1.714,0.846,3.431,1.185,5.163c0.128,0.655,0.021,1.356,0.021,2.036"/>
	
		<path fill-rule="evenodd" clip-rule="evenodd" fill="none" stroke="#000000" stroke-width="2" stroke-linecap="round" stroke-linejoin="round" stroke-miterlimit="10" d="
		M97.9,113.842c0.48,1.84,0.978,3.676,1.435,5.521c0.424,1.713,0.846,3.431,1.185,5.163c0.128,0.655,0.021,1.356,0.021,2.036"/>
	
		<path fill-rule="evenodd" clip-rule="evenodd" fill="none" stroke="#000000" stroke-width="2" stroke-linecap="round" stroke-linejoin="round" stroke-miterlimit="10" d="
		M108.82,134.902c0.2-0.02,0.4-0.04,0.599-0.06c1.127,0.48,1.128,1.615,1.286,2.525c0.459,2.663,0.755,5.354,1.115,8.034"/>
	
		<path fill-rule="evenodd" clip-rule="evenodd" fill="none" stroke="#000000" stroke-width="2" stroke-linecap="round" stroke-linejoin="round" stroke-miterlimit="10" d="
		M255.58,71.722c-0.533-0.249-1.066-0.497-1.683-0.784c-2.412,2.097-3.397,5.116-4.437,8.104"/>
	
		<path fill-rule="evenodd" clip-rule="evenodd" fill="none" stroke="#000000" stroke-width="2" stroke-linecap="round" stroke-linejoin="round" stroke-miterlimit="10" d="
		M249.041,81.082c0.18,1.64,0.359,3.28,0.539,4.92"/>
	
		<path fill-rule="evenodd" clip-rule="evenodd" fill="none" stroke="#000000" stroke-width="2" stroke-linecap="round" stroke-linejoin="round" stroke-miterlimit="10" d="
		M222.16,119.242c0.197,3.247,0.541,6.472,1.5,9.601"/>
	
		<path fill-rule="evenodd" clip-rule="evenodd" fill="none" stroke="#000000" stroke-width="2" stroke-linecap="round" stroke-linejoin="round" stroke-miterlimit="10" d="
		M84.64,156.202c0.197,3.247,0.542,6.472,1.5,9.601"/>
	
		<path fill-rule="evenodd" clip-rule="evenodd" fill="none" stroke="#000000" stroke-width="2" stroke-linecap="round" stroke-linejoin="round" stroke-miterlimit="10" d="
		M240.94,112.522c0.48,2.2,0.984,4.395,1.432,6.602c0.322,1.592,0.568,3.198,0.849,4.798"/>
	
		<path fill-rule="evenodd" clip-rule="evenodd" fill="none" stroke="#000000" stroke-width="2" stroke-linecap="round" stroke-linejoin="round" stroke-miterlimit="10" d="
		M259.66,71.722c0.48,2.2,0.985,4.395,1.433,6.602c0.322,1.591,0.567,3.198,0.848,4.798"/>
	
		<path fill-rule="evenodd" clip-rule="evenodd" fill="none" stroke="#000000" stroke-width="2" stroke-linecap="round" stroke-linejoin="round" stroke-miterlimit="10" d="
		M200.381,123.322c0.479,2.2,0.984,4.396,1.432,6.602c0.322,1.592,0.568,3.198,0.848,4.799"/>
	
		<path fill-rule="evenodd" clip-rule="evenodd" fill="none" stroke="#000000" stroke-width="2" stroke-linecap="round" stroke-linejoin="round" stroke-miterlimit="10" d="
		M118.54,109.642c0.48,2.2,0.985,4.395,1.432,6.602c0.322,1.591,0.568,3.198,0.848,4.798"/>
	
		<path fill-rule="evenodd" clip-rule="evenodd" fill="none" stroke="#000000" stroke-width="2" stroke-linecap="round" stroke-linejoin="round" stroke-miterlimit="10" d="
		M112.72,149.962c0.34,1.44,0.674,2.882,1.022,4.319c0.186,0.764,0.397,1.521,0.598,2.281"/>
	
		<path fill-rule="evenodd" clip-rule="evenodd" fill="none" stroke="#000000" stroke-width="2" stroke-linecap="round" stroke-linejoin="round" stroke-miterlimit="10" d="
		M247.36,73.162c0.38,1.64,0.748,3.283,1.148,4.918c0.103,0.415,0.312,0.802,0.472,1.202"/>
	
		<path fill-rule="evenodd" clip-rule="evenodd" fill="none" stroke="#000000" stroke-width="2" stroke-linecap="round" stroke-linejoin="round" stroke-miterlimit="10" d="
		M154.541,115.282c1.413-0.485,2.098-1.865,1.546-3.234c-0.192-0.476-0.546-0.886-0.826-1.326"/>
	
		<path fill-rule="evenodd" clip-rule="evenodd" fill="none" stroke="#000000" stroke-width="2" stroke-linecap="round" stroke-linejoin="round" stroke-miterlimit="10" d="
		M264.461,68.722c-0.08,0.16-0.118,0.401-0.247,0.468c-2.666,1.392-5.481,2.511-7.913,4.332"/>
	
		<path fill-rule="evenodd" clip-rule="evenodd" fill="none" stroke="#000000" stroke-width="2" stroke-linecap="round" stroke-linejoin="round" stroke-miterlimit="10" d="
		M245.74,109.522c-0.08,0.16-0.117,0.401-0.246,0.468c-2.666,1.392-5.481,2.511-7.914,4.332"/>
	
		<path fill-rule="evenodd" clip-rule="evenodd" fill="none" stroke="#000000" stroke-width="2" stroke-linecap="round" stroke-linejoin="round" stroke-miterlimit="10" d="
		M123.34,106.642c-0.08,0.16-0.118,0.401-0.246,0.468c-2.667,1.392-5.481,2.511-7.914,4.332"/>
	
		<path fill-rule="evenodd" clip-rule="evenodd" fill="none" stroke="#000000" stroke-width="2" stroke-linecap="round" stroke-linejoin="round" stroke-miterlimit="10" d="
		M205.181,120.322c-0.08,0.16-0.118,0.401-0.246,0.468c-2.667,1.393-5.481,2.512-7.914,4.332"/>
	
		<path fill-rule="evenodd" clip-rule="evenodd" fill="none" stroke="#000000" stroke-width="2" stroke-linecap="round" stroke-linejoin="round" stroke-miterlimit="10" d="
		M147.101,138.082c-0.88,0.28-1.76,0.561-2.64,0.84"/>
</g>
</svg>
