<?xml version="1.0" encoding="utf-8"?>
<!-- Generator: Adobe Illustrator 16.0.0, SVG Export Plug-In . SVG Version: 6.00 Build 0)  -->
<!DOCTYPE svg PUBLIC "-//W3C//DTD SVG 1.1//EN" "http://www.w3.org/Graphics/SVG/1.1/DTD/svg11.dtd">
<svg version="1.1" id="Layer_1" xmlns="http://www.w3.org/2000/svg" xmlns:xlink="http://www.w3.org/1999/xlink" x="0px" y="0px"
	 width="320px" height="240px" viewBox="0 0 320 240" enable-background="new 0 0 320 240" xml:space="preserve">
<g>
	<g>
		
			<path fill-rule="evenodd" clip-rule="evenodd" fill="none" stroke="#000000" stroke-width="2" stroke-linecap="round" stroke-linejoin="round" stroke-miterlimit="10" d="
			M239.019,110.247c-0.518-0.213-0.876-0.646-1.239-0.998c-2.223,1.935-3.403,4.42-4.25,7.068c-0.263,0.821-0.951,1.449-0.981,2.33
			c-0.039,1.119-0.088,2.247,0.013,3.358c0.098,1.089,0.378,2.162,0.578,3.242"/>
		
			<path fill-rule="evenodd" clip-rule="evenodd" fill="none" stroke="#000000" stroke-width="2" stroke-linecap="round" stroke-linejoin="round" stroke-miterlimit="10" d="
			M230.858,110.967c-0.412,0.707,0.256,1.196,0.361,1.8c0.236,1.361,0.505,2.716,0.704,4.082c0.072,0.495,0.226,0.893,0.614,1.198"
			/>
	</g>
	
		<path fill-rule="evenodd" clip-rule="evenodd" fill="none" stroke="#000000" stroke-width="2" stroke-linecap="round" stroke-linejoin="round" stroke-miterlimit="10" d="
		M222.998,113.907c0.589,0.629,1.39,0.887,2.165,1.125c1.637,0.5,2.387,1.69,2.561,3.257c0.418,3.775-1.711,8.032-4.783,9.483
		c-2.563,1.21-4.009-0.01-4.628-2.181c-0.858-3.006-0.13-5.93,1.412-8.609c0.308-0.535,0.503-1.187,1.054-1.575"/>
	<g>
		
			<path fill-rule="evenodd" clip-rule="evenodd" fill="none" stroke="#000000" stroke-width="2" stroke-linecap="round" stroke-linejoin="round" stroke-miterlimit="10" d="
			M207.458,117.087c0.812,1.113,0.679,2.475,0.94,3.724c0.736,3.509,1.38,7.036,2.06,10.557"/>
		
			<path fill-rule="evenodd" clip-rule="evenodd" fill="none" stroke="#000000" stroke-width="2" stroke-linecap="round" stroke-linejoin="round" stroke-miterlimit="10" d="
			M212.979,117.087c-1.523,0.765-3.049,1.522-4.681,2.04"/>
		
			<path fill-rule="evenodd" clip-rule="evenodd" fill="none" stroke="#000000" stroke-width="2" stroke-linecap="round" stroke-linejoin="round" stroke-miterlimit="10" d="
			M207.938,119.606c-1.226,0.372-2.242,1.058-3.061,2.04"/>
	</g>
	
		<path fill-rule="evenodd" clip-rule="evenodd" fill="none" stroke="#000000" stroke-width="2" stroke-linecap="round" stroke-linejoin="round" stroke-miterlimit="10" d="
		M201.458,120.447c-1.509-0.796-2.882-0.027-4.188,0.51c-2.718,1.117-5.121,2.723-6.604,5.374c-1.406,2.517-1.819,5.162-0.723,7.913
		c0.822,2.062,2.289,2.488,3.941,1.066c1.408-1.211,2.297-2.846,3.271-4.413c1.454-2.339,2.586-4.832,3.666-7.347
		c0.21-0.486,0.553-0.845,0.774-1.34c0.613,0.375,0.69,0.951,0.71,1.596c0.092,2.931,0.572,5.813,1.364,8.625
		c0.153,0.543-0.185,0.896-0.052,1.335"/>
	<g>
		
			<path fill-rule="evenodd" clip-rule="evenodd" fill="none" stroke="#000000" stroke-width="2" stroke-linecap="round" stroke-linejoin="round" stroke-miterlimit="10" d="
			M187.418,137.486c-0.326-0.001-0.525,0.069-0.636-0.473c-0.695-3.433-1.381-6.871-2.476-10.21
			c-0.274-0.837-0.398-1.94-1.339-2.093c-0.931-0.151-1.213,0.979-1.653,1.627c-1.245,1.828-2.021,3.881-2.658,5.988
			c-0.173,0.575-0.377,1.139-0.838,1.561"/>
		
			<path fill-rule="evenodd" clip-rule="evenodd" fill="none" stroke="#000000" stroke-width="2" stroke-linecap="round" stroke-linejoin="round" stroke-miterlimit="10" d="
			M177.698,140.247c0-2,0.269-4.048-0.074-5.987c-0.353-1.992-0.913-4-1.74-5.887c-0.153-0.351-0.449-0.688-0.945-0.606"/>
	</g>
	
		<path fill-rule="evenodd" clip-rule="evenodd" fill="none" stroke="#000000" stroke-width="2" stroke-linecap="round" stroke-linejoin="round" stroke-miterlimit="10" d="
		M169.778,128.247c0.063,1.515,0.755,2.87,1.091,4.317c0.56,2.409,1.199,4.8,1.781,7.204c0.126,0.521-0.367,1.009-0.172,1.559"/>
	<g>
		
			<path fill-rule="evenodd" clip-rule="evenodd" fill="none" stroke="#000000" stroke-width="2" stroke-linecap="round" stroke-linejoin="round" stroke-miterlimit="10" d="
			M163.778,130.287c-3.555,0.454-6.423,2.097-8.646,4.915c-2.073,2.63-2.375,5.531-1.432,8.644c0.632,2.087,2.316,2.393,3.837,0.961
			c2.488-2.343,3.859-5.385,5.291-8.395c0.376-0.79,0.691-1.612,1.294-2.299c0.559-0.638,0.487-2.83,0.02-3.589
			c-0.498-0.806-0.424-1.762-0.576-2.643c-0.403-2.346-0.662-4.716-0.99-7.075c-0.181-1.292-0.778-1.917-1.798-1.92"/>
		
			<path fill-rule="evenodd" clip-rule="evenodd" fill="none" stroke="#000000" stroke-width="2" stroke-linecap="round" stroke-linejoin="round" stroke-miterlimit="10" d="
			M164.378,134.127c0.674,0.797,0.75,1.811,0.948,2.763c0.433,2.081,0.977,4.139,1.4,6.224c0.107,0.528-0.09,0.981,0.052,1.453"/>
	</g>
	<g>
		
			<path fill-rule="evenodd" clip-rule="evenodd" fill="none" stroke="#000000" stroke-width="2" stroke-linecap="round" stroke-linejoin="round" stroke-miterlimit="10" d="
			M149.499,134.007c-0.518-0.214-0.875-0.646-1.239-0.998c-2.223,1.935-3.403,4.42-4.25,7.068c-0.263,0.821-0.951,1.449-0.981,2.33
			c-0.039,1.118-0.087,2.246,0.013,3.357c0.098,1.089,0.378,2.162,0.578,3.242"/>
		
			<path fill-rule="evenodd" clip-rule="evenodd" fill="none" stroke="#000000" stroke-width="2" stroke-linecap="round" stroke-linejoin="round" stroke-miterlimit="10" d="
			M141.338,134.727c-0.412,0.707,0.256,1.196,0.361,1.8c0.236,1.36,0.505,2.717,0.705,4.082c0.072,0.495,0.225,0.893,0.614,1.198"/>
	</g>
	
		<path fill-rule="evenodd" clip-rule="evenodd" fill="none" stroke="#000000" stroke-width="2" stroke-linecap="round" stroke-linejoin="round" stroke-miterlimit="10" d="
		M133.479,137.906c0.588,0.63,1.39,0.888,2.165,1.125c1.637,0.5,2.387,1.69,2.561,3.257c0.418,3.775-1.711,8.032-4.783,9.483
		c-2.563,1.21-4.009-0.01-4.628-2.181c-0.858-3.006-0.129-5.93,1.413-8.609c0.308-0.534,0.503-1.187,1.054-1.575"/>
	
		<path fill-rule="evenodd" clip-rule="evenodd" fill="none" stroke="#000000" stroke-width="2" stroke-linecap="round" stroke-linejoin="round" stroke-miterlimit="10" d="
		M119.798,141.507c0.588,0.629,1.39,0.887,2.165,1.124c1.637,0.501,2.387,1.69,2.561,3.258c0.418,3.775-1.711,8.032-4.784,9.482
		c-2.562,1.21-4.009-0.01-4.628-2.18c-0.858-3.006-0.13-5.93,1.413-8.609c0.308-0.535,0.503-1.188,1.053-1.575"/>
	
		<path fill-rule="evenodd" clip-rule="evenodd" fill="none" stroke="#000000" stroke-width="2" stroke-linecap="round" stroke-linejoin="round" stroke-miterlimit="10" d="
		M102.458,137.847c-2.627-1.148-5.175-0.319-7.539,0.651c-4.235,1.739-7.414,4.823-9.6,8.84c-1.188,2.183-1.715,4.595-1.197,7.063
		c0.689,3.284,2.803,5.354,5.976,6.364c3.266,1.04,6.554,0.782,9.706-0.281c3.751-1.265,7.26-3.065,10.102-5.95
		c0.937-0.951,1.569-2.076,2.153-3.247"/>
	<g>
		
			<path fill-rule="evenodd" clip-rule="evenodd" fill="none" stroke="#000000" stroke-width="2" stroke-linecap="round" stroke-linejoin="round" stroke-miterlimit="10" d="
			M249.458,71.967c-3.555,0.455-6.423,2.097-8.646,4.916c-2.072,2.63-2.375,5.531-1.432,8.644c0.632,2.087,2.315,2.393,3.837,0.96
			c2.488-2.342,3.859-5.384,5.291-8.395c0.376-0.79,0.692-1.612,1.294-2.298c0.559-0.638,0.488-2.83,0.02-3.589
			c-0.497-0.806-0.424-1.762-0.575-2.643c-0.404-2.346-0.663-4.716-0.991-7.075c-0.18-1.292-0.777-1.917-1.798-1.92"/>
		
			<path fill-rule="evenodd" clip-rule="evenodd" fill="none" stroke="#000000" stroke-width="2" stroke-linecap="round" stroke-linejoin="round" stroke-miterlimit="10" d="
			M250.059,75.807c0.674,0.797,0.749,1.811,0.947,2.763c0.433,2.082,0.977,4.139,1.4,6.224c0.107,0.529-0.09,0.982,0.052,1.454"/>
	</g>
	<g>
		
			<path fill-rule="evenodd" clip-rule="evenodd" fill="none" stroke="#000000" stroke-width="2" stroke-linecap="round" stroke-linejoin="round" stroke-miterlimit="10" d="
			M236.858,88.767c-0.327-0.001-0.526,0.069-0.636-0.473c-0.695-3.433-1.381-6.871-2.476-10.21c-0.274-0.837-0.398-1.94-1.339-2.093
			c-0.932-0.151-1.213,0.98-1.654,1.627c-1.245,1.828-2.021,3.881-2.657,5.989c-0.174,0.575-0.377,1.138-0.839,1.56"/>
		
			<path fill-rule="evenodd" clip-rule="evenodd" fill="none" stroke="#000000" stroke-width="2" stroke-linecap="round" stroke-linejoin="round" stroke-miterlimit="10" d="
			M227.139,91.527c0-2,0.269-4.048-0.075-5.987c-0.353-1.992-0.913-4-1.739-5.887c-0.153-0.351-0.45-0.688-0.946-0.606"/>
	</g>
	
		<path fill-rule="evenodd" clip-rule="evenodd" fill="none" stroke="#000000" stroke-width="2" stroke-linecap="round" stroke-linejoin="round" stroke-miterlimit="10" d="
		M220.418,80.127c-1.509-0.796-2.882-0.027-4.188,0.51c-2.718,1.118-5.121,2.723-6.604,5.375c-1.407,2.516-1.82,5.162-0.724,7.914
		c0.822,2.061,2.289,2.487,3.941,1.066c1.408-1.211,2.297-2.846,3.271-4.413c1.454-2.339,2.586-4.832,3.666-7.347
		c0.21-0.486,0.553-0.845,0.774-1.34c0.613,0.376,0.69,0.951,0.71,1.596c0.092,2.931,0.572,5.814,1.364,8.625
		c0.153,0.542-0.185,0.895-0.052,1.335"/>
	
		<path fill-rule="evenodd" clip-rule="evenodd" fill="none" stroke="#000000" stroke-width="2" stroke-linecap="round" stroke-linejoin="round" stroke-miterlimit="10" d="
		M188.858,88.646c-0.939-0.251-1.38-1.453-2.682-1.24c-1.108,1.171-2.463,2.368-3.529,3.782c-1.79,2.373-0.857,3.116,1.291,3.579
		c1.841,0.397,3.677,0.816,5.521,1.19c0.711,0.145,1.262,0.54,1.795,0.973c0.93,0.756,1.025,2.004,0.231,3.107
		c-0.957,1.329-2.444,1.825-3.953,2.144c-0.854,0.181-1.735,0.338-2.636,0.272c-2.108-0.154-2.961-0.992-3.121-3.127
		c-0.012-0.165,0.079-0.359-0.118-0.48"/>
	<g>
		
			<path fill-rule="evenodd" clip-rule="evenodd" fill="none" stroke="#000000" stroke-width="2" stroke-linecap="round" stroke-linejoin="round" stroke-miterlimit="10" d="
			M177.818,91.047c-0.518-0.213-0.875-0.647-1.239-0.998c-2.223,1.934-3.403,4.42-4.25,7.068c-0.263,0.822-0.951,1.449-0.981,2.33
			c-0.039,1.119-0.088,2.247,0.013,3.358c0.099,1.089,0.378,2.162,0.578,3.242"/>
		
			<path fill-rule="evenodd" clip-rule="evenodd" fill="none" stroke="#000000" stroke-width="2" stroke-linecap="round" stroke-linejoin="round" stroke-miterlimit="10" d="
			M169.658,91.767c-0.412,0.707,0.257,1.197,0.361,1.8c0.236,1.361,0.505,2.716,0.705,4.083c0.072,0.495,0.225,0.892,0.613,1.198"/>
	</g>
	<g>
		
			<path fill-rule="evenodd" clip-rule="evenodd" fill="none" stroke="#000000" stroke-width="2" stroke-linecap="round" stroke-linejoin="round" stroke-miterlimit="10" d="
			M168.458,100.646c-1.68,3.527-4.251,6.234-7.556,8.287c-1.343,0.834-2.808,1.381-4.33,1.641c-1.949,0.333-3.516-1.32-3.468-2.847
			c0.044-1.403-0.446-2.926,0.833-4.081c0.026-2.568,1.729-4.241,3.25-5.991c0.879-1.012,2.112-1.507,3.354-1.914
			c0.499-0.163,0.994,0.069,1.436,0.345"/>
		
			<path fill-rule="evenodd" clip-rule="evenodd" fill="none" stroke="#000000" stroke-width="2" stroke-linecap="round" stroke-linejoin="round" stroke-miterlimit="10" d="
			M166.538,96.567c-2.137,0.776-4.101,1.891-5.996,3.125c-1.738,1.133-3.434,2.33-5.172,3.462c-0.383,0.25-0.751,0.665-1.312,0.492"
			/>
	</g>
	<g>
		
			<path fill-rule="evenodd" clip-rule="evenodd" fill="none" stroke="#000000" stroke-width="2" stroke-linecap="round" stroke-linejoin="round" stroke-miterlimit="10" d="
			M150.938,111.807c-0.327-0.001-0.526,0.069-0.636-0.473c-0.695-3.433-1.381-6.872-2.476-10.21
			c-0.274-0.837-0.398-1.941-1.339-2.093c-0.931-0.151-1.212,0.98-1.653,1.627c-1.245,1.828-2.021,3.881-2.658,5.989
			c-0.174,0.575-0.377,1.138-0.838,1.56"/>
		
			<path fill-rule="evenodd" clip-rule="evenodd" fill="none" stroke="#000000" stroke-width="2" stroke-linecap="round" stroke-linejoin="round" stroke-miterlimit="10" d="
			M141.218,114.567c0-2,0.269-4.048-0.075-5.987c-0.353-1.992-0.913-4-1.74-5.887c-0.153-0.35-0.449-0.688-0.945-0.606"/>
	</g>
	<g>
		
			<path fill-rule="evenodd" clip-rule="evenodd" fill="none" stroke="#000000" stroke-width="2" stroke-linecap="round" stroke-linejoin="round" stroke-miterlimit="10" d="
			M138.218,108.807c-1.68,3.527-4.251,6.234-7.556,8.287c-1.343,0.834-2.809,1.381-4.33,1.641c-1.949,0.333-3.516-1.32-3.468-2.848
			c0.044-1.403-0.447-2.926,0.833-4.08c0.027-2.569,1.73-4.241,3.25-5.991c0.879-1.013,2.112-1.507,3.355-1.914
			c0.499-0.163,0.994,0.07,1.435,0.345"/>
		
			<path fill-rule="evenodd" clip-rule="evenodd" fill="none" stroke="#000000" stroke-width="2" stroke-linecap="round" stroke-linejoin="round" stroke-miterlimit="10" d="
			M136.298,104.727c-2.137,0.777-4.101,1.891-5.996,3.126c-1.738,1.132-3.434,2.33-5.172,3.462c-0.383,0.25-0.751,0.664-1.312,0.492
			"/>
	</g>
	<g>
		
			<path fill-rule="evenodd" clip-rule="evenodd" fill="none" stroke="#000000" stroke-width="2" stroke-linecap="round" stroke-linejoin="round" stroke-miterlimit="10" d="
			M117.938,106.767c-1.068,3.894-1.495,7.898-2.019,11.883c-0.138,1.046-0.952,1.983-0.501,3.117"/>
		
			<path fill-rule="evenodd" clip-rule="evenodd" fill="none" stroke="#000000" stroke-width="2" stroke-linecap="round" stroke-linejoin="round" stroke-miterlimit="10" d="
			M108.698,109.407c0.4,0.68,0.699,1.451,1.218,2.024c1.951,2.153,2.901,4.875,4.268,7.355c0.301,0.546,0.549,1.098,0.995,1.541"/>
	</g>
	<g>
		
			<path fill-rule="evenodd" clip-rule="evenodd" fill="none" stroke="#000000" stroke-width="2" stroke-linecap="round" stroke-linejoin="round" stroke-miterlimit="10" d="
			M108.698,123.087c-0.327-0.002-0.526,0.068-0.636-0.473c-0.695-3.433-1.381-6.872-2.476-10.21
			c-0.274-0.837-0.398-1.94-1.339-2.093c-0.931-0.151-1.213,0.98-1.653,1.627c-1.246,1.828-2.021,3.881-2.658,5.989
			c-0.174,0.575-0.377,1.138-0.839,1.561"/>
		
			<path fill-rule="evenodd" clip-rule="evenodd" fill="none" stroke="#000000" stroke-width="2" stroke-linecap="round" stroke-linejoin="round" stroke-miterlimit="10" d="
			M98.979,125.847c0-2,0.269-4.048-0.075-5.987c-0.353-1.992-0.913-4-1.74-5.887c-0.153-0.35-0.45-0.688-0.946-0.606"/>
	</g>
	
		<path fill-rule="evenodd" clip-rule="evenodd" fill="none" stroke="#000000" stroke-width="2" stroke-linecap="round" stroke-linejoin="round" stroke-miterlimit="10" d="
		M89.318,114.387c0.588,0.629,1.39,0.887,2.165,1.124c1.636,0.501,2.387,1.691,2.561,3.258c0.418,3.775-1.711,8.032-4.784,9.482
		c-2.562,1.21-4.008-0.01-4.628-2.18c-0.858-3.006-0.13-5.93,1.413-8.609c0.308-0.535,0.503-1.187,1.053-1.575"/>
	
		<path id="cincon" fill-rule="evenodd" clip-rule="evenodd" fill="none" stroke="#000000" stroke-width="2" stroke-linecap="round" stroke-linejoin="round" stroke-miterlimit="10" d="
		M71.979,110.727c-2.627-1.149-5.175-0.319-7.539,0.651c-4.235,1.74-7.414,4.823-9.6,8.84c-1.188,2.183-1.715,4.595-1.197,7.063
		c0.689,3.284,2.803,5.354,5.976,6.364c3.266,1.04,6.554,0.782,9.706-0.28c3.751-1.266,7.26-3.065,10.102-5.951
		c0.937-0.951,1.569-2.076,2.152-3.247"/>
</g>
</svg>
