<?xml version="1.0" encoding="utf-8"?>
<!-- Generator: Adobe Illustrator 16.0.0, SVG Export Plug-In . SVG Version: 6.00 Build 0)  -->
<!DOCTYPE svg PUBLIC "-//W3C//DTD SVG 1.1//EN" "http://www.w3.org/Graphics/SVG/1.1/DTD/svg11.dtd">
<svg version="1.1" id="Layer_1" xmlns="http://www.w3.org/2000/svg" xmlns:xlink="http://www.w3.org/1999/xlink" x="0px" y="0px"
	 width="320px" height="240px" viewBox="0 0 320 240" enable-background="new 0 0 320 240" xml:space="preserve">
<g>
	
		<path fill-rule="evenodd" clip-rule="evenodd" fill="none" stroke="#000000" stroke-width="2" stroke-linecap="round" stroke-linejoin="round" stroke-miterlimit="10" d="
		M212.492,79.088c-5.341,1.208-9.645,3.721-11.515,9.242c-0.764,2.257-0.515,4.461,0.194,6.731c0.728,2.33,3.056,2.263,4.332,0.92
		c1.289-1.357,2.52-2.832,3.467-4.437c1.361-2.305,2.441-4.776,3.642-7.176"/>
	
		<path fill-rule="evenodd" clip-rule="evenodd" fill="none" stroke="#000000" stroke-width="2" stroke-linecap="round" stroke-linejoin="round" stroke-miterlimit="10" d="
		M175.053,130.448c-5.342,1.209-9.646,3.721-11.515,9.242c-0.765,2.257-0.516,4.461,0.193,6.73c0.728,2.329,3.057,2.263,4.332,0.92
		c1.29-1.356,2.521-2.831,3.468-4.437c1.36-2.306,2.441-4.776,3.641-7.176"/>
	
		<path fill-rule="evenodd" clip-rule="evenodd" fill="none" stroke="#000000" stroke-width="2" stroke-linecap="round" stroke-linejoin="round" stroke-miterlimit="10" d="
		M194.732,125.408c-4.493,0.909-8.248,2.986-10.535,7.094c-1.578,2.834-1.586,5.867-0.371,8.86c0.637,1.569,2.251,1.837,3.695,0.713
		c2.101-1.634,3.344-3.942,4.557-6.234c0.952-1.802,1.774-3.673,2.654-5.513"/>
	
		<path fill-rule="evenodd" clip-rule="evenodd" fill="none" stroke="#000000" stroke-width="2" stroke-linecap="round" stroke-linejoin="round" stroke-miterlimit="10" d="
		M190.412,87.008c-0.083-0.467-0.167-0.933-0.256-1.431c-2.069-0.085-3.618,0.857-4.885,2.17c-2.607,2.704-4.143,5.989-4.687,9.703
		c-0.311,2.122,1.13,4.457,2.992,4.623c1.134,0.101,2.414-0.121,3.458-0.583c4.846-2.145,8.604-5.488,10.817-10.402"/>
	
		<path fill-rule="evenodd" clip-rule="evenodd" fill="none" stroke="#000000" stroke-width="2" stroke-linecap="round" stroke-linejoin="round" stroke-miterlimit="10" d="
		M133.292,102.368c-0.083-0.467-0.167-0.933-0.256-1.431c-2.07-0.084-3.619,0.857-4.884,2.17c-2.608,2.704-4.144,5.989-4.687,9.703
		c-0.311,2.122,1.13,4.458,2.992,4.623c1.133,0.101,2.414-0.121,3.458-0.583c4.846-2.145,8.603-5.488,10.817-10.402"/>
	
		<path fill-rule="evenodd" clip-rule="evenodd" fill="none" stroke="#000000" stroke-width="2" stroke-linecap="round" stroke-linejoin="round" stroke-miterlimit="10" d="
		M205.772,121.568c-1.08,1.16-2.212,2.276-3.222,3.495c-0.629,0.761-1.06,1.679-0.788,2.773c1.589,1.09,3.465,1.09,5.208,1.535
		c1.485,0.38,2.984,0.729,4.43,1.231c0.517,0.18,0.892,0.765,1.332,1.165"/>
	
		<path fill-rule="evenodd" clip-rule="evenodd" fill="none" stroke="#000000" stroke-width="2" stroke-linecap="round" stroke-linejoin="round" stroke-miterlimit="10" d="
		M213.032,133.688c-0.314,1.115-1.113,1.783-2.1,2.28c-2.321,1.168-4.718,1.818-7.32,1.079"/>
	
		<path fill-rule="evenodd" clip-rule="evenodd" fill="none" stroke="#000000" stroke-width="2" stroke-linecap="round" stroke-linejoin="round" stroke-miterlimit="10" d="
		M177.452,103.808c-0.32-1.92-0.547-3.861-0.983-5.754c-0.541-2.343-1.204-4.662-1.927-6.956c-0.233-0.741-0.361-1.716-1.695-2.038
		c-0.674,0.991-1.543,1.979-2.082,3.124c-0.993,2.106-1.792,4.305-2.672,6.465"/>
	
		<path fill-rule="evenodd" clip-rule="evenodd" fill="none" stroke="#000000" stroke-width="2" stroke-linecap="round" stroke-linejoin="round" stroke-miterlimit="10" d="
		M167.313,104.168c0.02,0.76,0.04,1.52,0.06,2.28"/>
	
		<path fill-rule="evenodd" clip-rule="evenodd" fill="none" stroke="#000000" stroke-width="2" stroke-linecap="round" stroke-linejoin="round" stroke-miterlimit="10" d="
		M91.292,101.888c0.56,2.44,1.114,4.881,1.682,7.319c0.633,2.722,1.299,5.436,1.912,8.162c0.474,2.112,0.887,4.239,1.327,6.359"/>
	
		<path fill-rule="evenodd" clip-rule="evenodd" fill="none" stroke="#000000" stroke-width="2" stroke-linecap="round" stroke-linejoin="round" stroke-miterlimit="10" d="
		M161.013,142.568c-1.007,2.632-2.748,4.761-4.821,6.576c-2.156,1.888-4.532,3.468-7.417,4.112
		c-2.481,0.555-3.566,0.161-4.411-2.061c-0.555-1.458-0.491-3.054,0.007-4.535c0.19-0.563,0.292-1.161,0.492-1.674
		c1.098-2.816,2.688-5.325,5.232-7.097c1.331-0.926,2.766-1.208,4.318-0.603"/>
	
		<path fill-rule="evenodd" clip-rule="evenodd" fill="none" stroke="#000000" stroke-width="2" stroke-linecap="round" stroke-linejoin="round" stroke-miterlimit="10" d="
		M121.172,111.608c-1.006,2.632-2.747,4.76-4.821,6.576c-2.156,1.888-4.532,3.468-7.417,4.112c-2.481,0.555-3.566,0.161-4.411-2.061
		c-0.555-1.458-0.491-3.054,0.007-4.535c0.189-0.563,0.292-1.161,0.492-1.673c1.098-2.817,2.688-5.326,5.232-7.097
		c1.33-0.926,2.766-1.208,4.318-0.603"/>
	
		<path fill-rule="evenodd" clip-rule="evenodd" fill="none" stroke="#000000" stroke-width="2" stroke-linecap="round" stroke-linejoin="round" stroke-miterlimit="10" d="
		M219.092,68.528c1.51,5.381,1.989,10.935,2.774,16.438c0.229,1.613,0.673,3.194,0.928,4.805c0.143,0.904,0.098,1.837,0.138,2.757"
		/>
	
		<path fill-rule="evenodd" clip-rule="evenodd" fill="none" stroke="#000000" stroke-width="2" stroke-linecap="round" stroke-linejoin="round" stroke-miterlimit="10" d="
		M139.532,87.968c0.401,0,0.802,0,1.377,0c0.513,1.841,1.102,3.601,1.481,5.404c0.637,3.024,1.17,6.071,1.687,9.118
		c0.208,1.225,0.254,2.478,0.374,3.717"/>
	
		<path fill-rule="evenodd" clip-rule="evenodd" fill="none" stroke="#000000" stroke-width="2" stroke-linecap="round" stroke-linejoin="round" stroke-miterlimit="10" d="
		M136.052,143.408c-2.84,1.16-5.68,2.32-8.52,3.479c-0.399,0.163-0.8,0.32-1.2,0.48"/>
	
		<path fill-rule="evenodd" clip-rule="evenodd" fill="none" stroke="#000000" stroke-width="2" stroke-linecap="round" stroke-linejoin="round" stroke-miterlimit="10" d="
		M151.052,93.968c1.145,1.933,1.662,4.094,2.136,6.246c0.471,2.135,0.741,4.315,1.109,6.474c0.042,0.246,0.155,0.48,0.235,0.721"/>
	
		<path fill-rule="evenodd" clip-rule="evenodd" fill="none" stroke="#000000" stroke-width="2" stroke-linecap="round" stroke-linejoin="round" stroke-miterlimit="10" d="
		M105.333,96.008c-1.8,0.8-3.572,1.673-5.407,2.382c-2.371,0.915-4.794,1.694-7.191,2.542c-0.37,0.131-0.721,0.316-1.082,0.476"/>
	
		<path fill-rule="evenodd" clip-rule="evenodd" fill="none" stroke="#000000" stroke-width="2" stroke-linecap="round" stroke-linejoin="round" stroke-miterlimit="10" d="
		M89.973,101.888c-1.52,0.72-3.04,1.44-4.56,2.16"/>
	
		<path fill-rule="evenodd" clip-rule="evenodd" fill="none" stroke="#000000" stroke-width="2" stroke-linecap="round" stroke-linejoin="round" stroke-miterlimit="10" d="
		M158.612,93.248c0.28,1.16,0.556,2.321,0.841,3.48c0.678,2.761,1.39,5.513,2.019,8.285c0.167,0.733,0.57,1.549-0.1,2.275"/>
	
		<path fill-rule="evenodd" clip-rule="evenodd" fill="none" stroke="#000000" stroke-width="2" stroke-linecap="round" stroke-linejoin="round" stroke-miterlimit="10" d="
		M115.893,134.048c0.2,1,0.396,2.001,0.601,3c0.718,3.521,1.436,7.041,2.162,10.56c0.141,0.684,0.317,1.36,0.477,2.041"/>
	
		<path fill-rule="evenodd" clip-rule="evenodd" fill="none" stroke="#000000" stroke-width="2" stroke-linecap="round" stroke-linejoin="round" stroke-miterlimit="10" d="
		M158.972,137.648c-0.68,0.359-1.382,0.684-2.036,1.086c-3.488,2.146-6.958,4.323-10.451,6.462
		c-0.468,0.286-1.033,0.412-1.553,0.611"/>
	
		<path fill-rule="evenodd" clip-rule="evenodd" fill="none" stroke="#000000" stroke-width="2" stroke-linecap="round" stroke-linejoin="round" stroke-miterlimit="10" d="
		M119.132,106.688c-0.68,0.36-1.382,0.684-2.036,1.086c-3.488,2.147-6.958,4.324-10.451,6.462c-0.468,0.286-1.033,0.412-1.553,0.612
		"/>
	
		<path fill-rule="evenodd" clip-rule="evenodd" fill="none" stroke="#000000" stroke-width="2" stroke-linecap="round" stroke-linejoin="round" stroke-miterlimit="10" d="
		M139.413,142.148c-1.09,0.353-2.179,0.705-3.237,1.047c0.973,3.929,1.919,7.772,2.882,11.611c0.163,0.649,0.395,1.281,0.595,1.922"
		/>
	
		<path fill-rule="evenodd" clip-rule="evenodd" fill="none" stroke="#000000" stroke-width="2" stroke-linecap="round" stroke-linejoin="round" stroke-miterlimit="10" d="
		M133.292,130.269c-0.08,0.38-0.309,0.801-0.217,1.133c1.004,3.65,2.057,7.287,3.099,10.926c0.069,0.243,0.159,0.48,0.239,0.721"/>
	
		<path fill-rule="evenodd" clip-rule="evenodd" fill="none" stroke="#000000" stroke-width="2" stroke-linecap="round" stroke-linejoin="round" stroke-miterlimit="10" d="
		M150.933,94.448c-1.452,0.949-2.168,2.447-2.735,3.97c-0.82,2.203-1.447,4.477-2.198,6.706c-0.198,0.588-0.548,1.124-0.828,1.684"
		/>
	
		<path fill-rule="evenodd" clip-rule="evenodd" fill="none" stroke="#000000" stroke-width="2" stroke-linecap="round" stroke-linejoin="round" stroke-miterlimit="10" d="
		M214.292,81.488c0.2,0.56,0.491,1.105,0.584,1.683c0.359,2.233,0.652,4.478,0.979,6.717c0.105,0.722,0.237,1.44,0.357,2.16"/>
	
		<path fill-rule="evenodd" clip-rule="evenodd" fill="none" stroke="#000000" stroke-width="2" stroke-linecap="round" stroke-linejoin="round" stroke-miterlimit="10" d="
		M176.853,132.848c0.2,0.561,0.491,1.105,0.584,1.683c0.359,2.234,0.651,4.479,0.979,6.718c0.104,0.722,0.237,1.44,0.357,2.16"/>
	
		<path fill-rule="evenodd" clip-rule="evenodd" fill="none" stroke="#000000" stroke-width="2" stroke-linecap="round" stroke-linejoin="round" stroke-miterlimit="10" d="
		M195.452,129.848c0.28,0.521,0.56,1.04,0.84,1.561"/>
	
		<path fill-rule="evenodd" clip-rule="evenodd" fill="none" stroke="#000000" stroke-width="2" stroke-linecap="round" stroke-linejoin="round" stroke-miterlimit="10" d="
		M192.332,112.808c1.378,1.141,1.117,2.834,1.426,4.323c0.38,1.828,0.691,3.671,0.959,5.519c0.131,0.907,0.096,1.838,0.136,2.758"/>
	
		<path fill-rule="evenodd" clip-rule="evenodd" fill="none" stroke="#000000" stroke-width="2" stroke-linecap="round" stroke-linejoin="round" stroke-miterlimit="10" d="
		M164.973,92.888c0.56,1.68,1.106,3.365,1.689,5.037c0.134,0.383,0.391,0.724,0.59,1.083"/>
	
		<path fill-rule="evenodd" clip-rule="evenodd" fill="none" stroke="#000000" stroke-width="2" stroke-linecap="round" stroke-linejoin="round" stroke-miterlimit="10" d="
		M156.692,89.828c0.313,0.079,0.626,0.158,0.946,0.238c-0.093,0.618-0.16,1.06-0.227,1.502"/>
</g>
</svg>
