<?xml version="1.0" encoding="utf-8"?>
<!-- Generator: Adobe Illustrator 16.0.0, SVG Export Plug-In . SVG Version: 6.00 Build 0)  -->
<!DOCTYPE svg PUBLIC "-//W3C//DTD SVG 1.1//EN" "http://www.w3.org/Graphics/SVG/1.1/DTD/svg11.dtd">
<svg version="1.1" id="Layer_1" xmlns="http://www.w3.org/2000/svg" xmlns:xlink="http://www.w3.org/1999/xlink" x="0px" y="0px"
	 width="828.194px" height="284.448px" viewBox="0 0 828.194 284.448" enable-background="new 0 0 828.194 284.448"
	 xml:space="preserve">
<g>
	<g>
		<rect fill="#414042" width="828.194" height="284.448"/>
		<rect x="23" y="23.584" fill="#27AAE1" width="785.866" height="237.278"/>
	</g>
	<g>
		<g>
			<rect x="131.197" y="82.816" fill="#FFFFFF" width="56.499" height="57.629"/>
			<rect x="74.704" y="82.816" width="56.493" height="57.629"/>
			<rect x="187.696" y="82.816" width="56.494" height="57.629"/>
			<g>
				<path fill="#FFFFFF" d="M104.543,97.653h6.537v5.331h-6.537v21.357h-5.238v-21.357h-6.537v-5.331h6.537H104.543z"/>
			</g>
			<g>
				<path d="M154.334,97.653v10.679h7.834V97.653h5.239v26.688h-5.239v-10.679h-7.834v10.679h-5.239V97.653H154.334z"/>
			</g>
			<g>
				<path fill="#FFFFFF" d="M227.939,97.653v10.679v5.331c0,2.947-1.024,5.464-3.073,7.55c-2.05,2.086-4.513,3.129-7.389,3.129
					c-2.887,0-5.353-1.043-7.396-3.129s-3.065-4.603-3.065-7.55v-5.331V97.653h5.239v10.679v4.785v0.546
					c0,1.468,0.511,2.724,1.532,3.767c1.022,1.043,2.252,1.564,3.69,1.564c1.428,0,2.654-0.521,3.682-1.564s1.541-2.298,1.541-3.767
					v-0.546v-4.785V97.653H227.939z"/>
			</g>
			<rect x="244.19" y="82.816" fill="#FFFFFF" width="56.489" height="57.629"/>
			<rect x="300.68" y="82.816" width="56.495" height="57.629"/>
			<g>
				<path d="M276.226,112.239V97.653h5.239v26.688l-15.685-14.602v14.602h-5.239V97.653L276.226,112.239z"/>
			</g>
			<g>
				<path fill="#FFFFFF" d="M336.125,101.577c2.563,2.616,3.844,5.756,3.844,9.42c0,3.675-1.281,6.818-3.844,9.428
					c-2.563,2.61-5.64,3.916-9.229,3.916h-5.239V97.653h5.239C330.485,97.653,333.562,98.961,336.125,101.577z M332.427,116.651
					c1.535-1.562,2.303-3.447,2.303-5.654c0-2.197-0.768-4.081-2.303-5.654c-1.536-1.573-3.38-2.359-5.531-2.359v16.009
					C329.047,118.994,330.891,118.213,332.427,116.651z"/>
			</g>
			<rect x="357.536" y="82.816" fill="#FFFFFF" width="56.499" height="57.629"/>
			<rect x="414.035" y="82.816" width="56.495" height="57.629"/>
			<g>
				<path d="M392.449,97.653v5.331h-10.445v5.348h7.834v5.331h-7.834v5.331h10.445v5.348h-10.445h-5.239v-10.679v-5.331V97.653
					H392.449z"/>
			</g>
			<g>
				<path fill="#FFFFFF" d="M434.696,116.328v-9.337v-9.337h5.239h3.909c2.52,0,4.677,0.916,6.472,2.749
					c1.795,1.832,2.692,4.028,2.692,6.589c0,1.987-0.555,3.772-1.662,5.356c-1.108,1.584-2.522,2.707-4.242,3.369l5.904,8.625
					h-6.391l-6.683-9.768v9.768h-5.239V116.328z M443.845,110.998c1.081,0,2.006-0.392,2.773-1.176s1.151-1.727,1.151-2.831
					c0-1.093-0.384-2.034-1.151-2.823s-1.692-1.184-2.773-1.184h-3.909v4.006v4.007H443.845z"/>
			</g>
		</g>
		<rect x="527.026" y="82.856" width="56.497" height="57.631"/>
		<rect x="470.53" y="82.856" fill="#FFFFFF" width="56.496" height="57.631"/>
		<rect x="583.523" y="82.856" fill="#FFFFFF" width="56.495" height="57.631"/>
		<g>
			<g>
				<path d="M497.854,115.045l12.749-17.351v26.688h-5.239v-10.679l-7.51,10.248l-7.51-10.248v10.679h-5.239V97.695L497.854,115.045
					z"/>
			</g>
		</g>
		<g>
			<g>
				<path fill="#FFFFFF" d="M550.071,120.575l-1.687,3.808h-0.893h-0.211h-3.374h-1.103l11.191-25.446l0.552-1.242l0.568,1.258
					l11.208,25.43h-1.104h-3.374h-0.227h-0.893l-1.67-3.824l-0.081-0.182h-8.824L550.071,120.575z M556.608,115.045l-2.044-4.669
					l-2.061,4.669H556.608z"/>
			</g>
		</g>
		<g>
			<g>
				<path d="M604.183,116.37v-9.337v-9.337h5.239h3.909c2.52,0,4.677,0.916,6.472,2.749c1.795,1.832,2.692,4.028,2.692,6.589
					c0,1.987-0.555,3.772-1.662,5.356c-1.108,1.584-2.522,2.707-4.242,3.369l5.904,8.625h-6.391l-6.683-9.768v9.768h-5.239V116.37z
					 M613.331,111.039c1.081,0,2.006-0.392,2.773-1.176s1.151-1.727,1.151-2.831c0-1.093-0.384-2.034-1.151-2.823
					s-1.692-1.184-2.773-1.184h-3.909v4.006v4.007H613.331z"/>
			</g>
		</g>
		<rect x="640.019" y="82.856" width="56.487" height="57.631"/>
		<rect x="696.506" y="82.856" fill="#FFFFFF" width="56.495" height="57.631"/>
		<g>
			<g>
				<path fill="#FFFFFF" d="M674.309,98.746c1.584,0.701,2.976,1.653,4.177,2.856l-3.698,3.775
					c-1.558-1.567-3.406-2.351-5.548-2.351c-2.162,0-4.009,0.786-5.539,2.359c-1.53,1.573-2.295,3.457-2.295,5.654
					c0,2.207,0.765,4.092,2.295,5.654c1.53,1.562,3.377,2.342,5.539,2.342c2.163,0,4.012-0.784,5.548-2.351l3.698,3.774
					c-1.201,1.214-2.593,2.172-4.177,2.873c-1.585,0.701-3.274,1.051-5.069,1.051c-3.601,0-6.68-1.305-9.237-3.916
					s-3.836-5.753-3.836-9.428c0-3.665,1.278-6.805,3.836-9.42s5.637-3.924,9.237-3.924
					C671.034,97.695,672.724,98.045,674.309,98.746z"/>
			</g>
		</g>
		<g>
			<g>
				<path d="M722.413,97.695v10.679h7.834V97.695h5.239v26.688h-5.239v-10.679h-7.834v10.679h-5.239V97.695H722.413z"/>
			</g>
		</g>
	</g>
	<g>
		<path fill="#FFFFFF" d="M83.214,193.943c-1.126-0.388-2.321-1.001-3.586-1.84c-1.266-0.838-2.402-1.944-3.411-3.317
			c-1.009-1.375-1.514-3.086-1.514-5.135c0-3.09,1.103-5.736,3.307-7.94s4.858-3.306,7.963-3.306c3.09,0,5.736,1.102,7.94,3.306
			s3.307,4.851,3.307,7.94h-7.498c0-1.024-0.368-1.906-1.105-2.643c-0.737-0.738-1.619-1.106-2.644-1.106
			c-1.04,0-1.925,0.368-2.654,1.106c-0.729,0.736-1.094,1.618-1.094,2.643c0,1.335,0.539,2.348,1.618,3.039
			c1.078,0.69,1.897,1.113,2.456,1.269c0.264,0.093,0.982,0.311,2.154,0.651c1.172,0.342,2.406,0.908,3.702,1.7
			s2.464,1.859,3.504,3.202c1.04,1.342,1.561,3.062,1.561,5.157c0,3.104-1.103,5.759-3.307,7.964
			c-2.204,2.204-4.851,3.307-7.94,3.307c-3.104,0-5.759-1.103-7.963-3.307c-2.204-2.205-3.307-4.859-3.307-7.964h7.521
			c0,1.04,0.364,1.925,1.094,2.655c0.729,0.729,1.614,1.094,2.654,1.094c1.024,0,1.906-0.365,2.644-1.094
			c0.737-0.73,1.105-1.615,1.105-2.655c0-1.583-0.633-2.608-1.897-3.073c-1.266-0.466-2.123-0.784-2.573-0.955
			C85.019,194.563,84.339,194.331,83.214,193.943z"/>
		<path fill="#FFFFFF" d="M117.194,172.405h9.384v7.497h-9.384v30.038h-7.521v-30.038h-9.384v-7.497h9.384H117.194z"/>
		<path fill="#FFFFFF" d="M140.195,204.585l-2.422,5.355h-1.281h-0.303h-4.843h-1.583l16.066-35.789l0.791-1.746l0.815,1.77
			l16.09,35.766h-1.583H157.1h-0.326h-1.28l-2.398-5.379l-0.116-0.256h-12.667L140.195,204.585z M149.579,196.808l-2.935-6.566
			l-2.957,6.566H149.579z"/>
		<path fill="#FFFFFF" d="M173.184,172.405l6.474,11.898l6.473-11.898h8.546l-11.27,20.699v16.836h-7.498v-16.836l-11.247-20.699
			H173.184z"/>
		<path fill="#FFFFFF" d="M215.649,172.405v15.018h11.246v-15.018h7.521v37.535h-7.521v-15.02h-11.246v15.02h-7.521v-37.535H215.649
			z"/>
		<path fill="#FFFFFF" d="M237.834,172.405h7.521v37.535h-7.521V172.405z"/>
		<path fill="#FFFFFF" d="M275.356,173.884c2.274,0.985,4.273,2.324,5.996,4.016l-5.309,5.31c-2.235-2.204-4.891-3.307-7.964-3.307
			c-3.104,0-5.755,1.106-7.952,3.318c-2.196,2.212-3.294,4.862-3.294,7.952c0,3.104,1.098,5.755,3.294,7.951
			c2.197,2.197,4.848,3.295,7.952,3.295c2.438,0,4.618-0.703,6.543-2.107s3.283-3.201,4.075-5.391H268.08v-7.498h10.618h4.354h3.423
			c0.248,1.18,0.372,2.43,0.372,3.75c0,5.169-1.84,9.589-5.519,13.26c-3.679,3.672-8.096,5.508-13.249,5.508
			c-5.169,0-9.59-1.836-13.261-5.508c-3.671-3.671-5.507-8.091-5.507-13.26c0-5.154,1.836-9.57,5.507-13.25
			c3.671-3.679,8.092-5.518,13.261-5.518C270.657,172.405,273.083,172.897,275.356,173.884z"/>
		<path fill="#FFFFFF" d="M296.551,172.405v15.018h11.246v-15.018h7.521v37.535h-7.521v-15.02h-11.246v15.02h-7.521v-37.535H296.551
			z"/>
		<path fill="#FFFFFF" d="M339.202,202.046v7.895h-7.894v-7.895H339.202z"/>
		<path fill="#FFFFFF" d="M352.729,202.046v7.895h-7.894v-7.895H352.729z"/>
		<path fill="#FFFFFF" d="M366.255,202.046v7.895h-7.894v-7.895H366.255z"/>
		<path fill="#FFFFFF" d="M391.107,193.943c-1.126-0.388-2.321-1.001-3.586-1.84c-1.266-0.838-2.402-1.944-3.411-3.317
			c-1.009-1.375-1.514-3.086-1.514-5.135c0-3.09,1.103-5.736,3.307-7.94s4.858-3.306,7.963-3.306c3.09,0,5.736,1.102,7.94,3.306
			s3.307,4.851,3.307,7.94h-7.498c0-1.024-0.368-1.906-1.105-2.643c-0.737-0.738-1.618-1.106-2.644-1.106
			c-1.04,0-1.925,0.368-2.654,1.106c-0.729,0.736-1.094,1.618-1.094,2.643c0,1.335,0.539,2.348,1.618,3.039
			c1.078,0.69,1.897,1.113,2.456,1.269c0.264,0.093,0.982,0.311,2.154,0.651c1.172,0.342,2.406,0.908,3.702,1.7
			s2.464,1.859,3.504,3.202c1.04,1.342,1.561,3.062,1.561,5.157c0,3.104-1.103,5.759-3.307,7.964
			c-2.204,2.204-4.851,3.307-7.94,3.307c-3.104,0-5.759-1.103-7.963-3.307c-2.204-2.205-3.307-4.859-3.307-7.964h7.521
			c0,1.04,0.364,1.925,1.094,2.655c0.729,0.729,1.614,1.094,2.654,1.094c1.025,0,1.906-0.365,2.644-1.094
			c0.737-0.73,1.105-1.615,1.105-2.655c0-1.583-0.633-2.608-1.897-3.073c-1.266-0.466-2.123-0.784-2.573-0.955
			C392.912,194.563,392.232,194.331,391.107,193.943z"/>
		<path fill="#FFFFFF" d="M425.088,172.405h9.384v7.497h-9.384v30.038h-7.521v-30.038h-9.384v-7.497h9.384H425.088z"/>
		<path fill="#FFFFFF" d="M448.089,204.585l-2.422,5.355h-1.281h-0.303h-4.843h-1.583l16.066-35.789l0.791-1.746l0.815,1.77
			l16.09,35.766h-1.583h-4.844h-0.326h-1.28l-2.398-5.379l-0.116-0.256h-12.667L448.089,204.585z M457.473,196.808l-2.935-6.566
			l-2.957,6.566H457.473z"/>
		<path fill="#FFFFFF" d="M481.077,172.405l6.474,11.898l6.473-11.898h8.546l-11.27,20.699v16.836h-7.498v-16.836l-11.247-20.699
			H481.077z"/>
		<path fill="#FFFFFF" d="M540.063,189.495c1.498,2.174,2.247,4.611,2.247,7.313c0,3.617-1.289,6.709-3.865,9.279
			c-2.577,2.568-5.674,3.854-9.291,3.854h-13.133v-13.133v-5.635v-7.521v-1.863v-9.383h9.384c2.577,0,4.785,0.919,6.625,2.759
			c1.839,1.839,2.759,4.048,2.759,6.624c0,1.01-0.155,1.987-0.466,2.934C536.652,185.731,538.565,187.323,540.063,189.495z
			 M525.405,183.651c1.258,0,1.886-0.621,1.886-1.863c0-1.257-0.628-1.886-1.886-1.886h-1.862v1.886v1.863H525.405z
			 M525.405,191.173h-1.862v5.635v5.611h5.611c1.552,0,2.88-0.547,3.981-1.642c1.103-1.095,1.653-2.418,1.653-3.97
			c0-1.553-0.551-2.88-1.653-3.982c-1.102-1.102-2.43-1.652-3.981-1.652H525.405z"/>
		<path fill="#FFFFFF" d="M545.146,198.67v-13.133v-13.132h7.521h5.611c3.617,0,6.714,1.287,9.291,3.865
			c2.576,2.576,3.865,5.666,3.865,9.267c0,2.794-0.796,5.306-2.387,7.532c-1.592,2.229-3.621,3.808-6.09,4.739l8.477,12.132h-9.175
			l-9.593-13.738v13.738h-7.521V198.67z M558.279,191.173c1.552,0,2.88-0.552,3.981-1.654c1.103-1.102,1.653-2.429,1.653-3.981
			c0-1.536-0.551-2.86-1.653-3.97c-1.102-1.109-2.43-1.665-3.981-1.665h-5.611v5.635v5.636H558.279z"/>
		<path fill="#FFFFFF" d="M604.89,172.405v15.018v7.498c0,4.145-1.471,7.684-4.412,10.618s-6.477,4.401-10.606,4.401
			c-4.145,0-7.684-1.467-10.618-4.401c-2.934-2.935-4.4-6.474-4.4-10.618v-7.498v-15.018h7.521v15.018v6.73v0.768
			c0,2.064,0.733,3.83,2.2,5.297c1.467,1.468,3.232,2.201,5.297,2.201c2.049,0,3.812-0.733,5.286-2.201
			c1.475-1.467,2.212-3.232,2.212-5.297v-0.768v-6.73v-15.018H604.89z"/>
		<path fill="#FFFFFF" d="M625.307,172.405h9.384v7.497h-9.384v30.038h-7.521v-30.038h-9.384v-7.497h9.384H625.307z"/>
		<path fill="#FFFFFF" d="M648.307,204.585l-2.422,5.355h-1.281h-0.303h-4.843h-1.583l16.066-35.789l0.791-1.746l0.815,1.77
			l16.09,35.766h-1.583h-4.844h-0.326h-1.28l-2.398-5.379l-0.116-0.256h-12.667L648.307,204.585z M657.69,196.808l-2.935-6.566
			l-2.957,6.566H657.69z"/>
		<path fill="#FFFFFF" d="M680.645,172.405v30.014h14.995v7.521h-22.517v-37.535H680.645z"/>
		<path fill="#FFFFFF" d="M719.478,202.046v7.895h-7.894v-7.895H719.478z"/>
		<path fill="#FFFFFF" d="M733.004,202.046v7.895h-7.894v-7.895H733.004z"/>
		<path fill="#FFFFFF" d="M746.53,202.046v7.895h-7.894v-7.895H746.53z"/>
	</g>
</g>
<g>
</g>
<g>
</g>
<g>
</g>
<g>
</g>
<g>
</g>
<g>
</g>
</svg>
