<?xml version="1.0" encoding="utf-8"?>
<!-- Generator: Adobe Illustrator 16.0.0, SVG Export Plug-In . SVG Version: 6.00 Build 0)  -->
<!DOCTYPE svg PUBLIC "-//W3C//DTD SVG 1.1//EN" "http://www.w3.org/Graphics/SVG/1.1/DTD/svg11.dtd">
<svg version="1.1" id="Layer_1" xmlns="http://www.w3.org/2000/svg" xmlns:xlink="http://www.w3.org/1999/xlink" x="0px" y="0px"
	 width="121.139px" height="63.936px" viewBox="0 0 121.139 63.936" enable-background="new 0 0 121.139 63.936"
	 xml:space="preserve">
<g>
	<path d="M60.3,6.912c-2.34-0.191-4.846-0.324-7.515-0.396c-2.67-0.072-5.535-0.108-8.595-0.108c-3.361,0-6.84,0.072-10.44,0.216
		l-8.91,26.712c-2.281,6.865-4.441,12.816-6.48,17.856c-2.041,5.04-3.75,9.288-5.13,12.744c2.279-7.153,4.574-15.419,6.885-24.804
		c2.309-9.383,4.694-20.147,7.155-32.292c-4.86,0.288-9.45,0.612-13.77,0.972C9.18,8.172,4.98,8.64,0.9,9.216L0,1.152
		c1.56-0.095,3.15-0.167,4.77-0.216C6.39,0.889,8.1,0.864,9.9,0.864c2.88,0,5.85,0.061,8.91,0.18c3.06,0.121,6.3,0.3,9.72,0.54
		L28.89,0l6.57,1.584l-0.27,0.648c4.32,0.432,8.474,0.913,12.465,1.44c3.989,0.529,7.875,1.152,11.655,1.872L60.3,6.912z"/>
	<path d="M48.15,45.36c-2.52,2.353-5.281,4.5-8.28,6.444c-3.001,1.944-6.271,3.78-9.81,5.508l-5.04-4.032
		c1.92-6.432,3.9-12.312,5.94-17.64c2.039-5.328,4.14-10.248,6.3-14.76l7.65-0.36c1.379,1.249,2.64,2.509,3.78,3.78
		c1.139,1.272,2.129,2.604,2.97,3.996c-6.48,5.232-12.271,9.36-17.37,12.384l-5.76,11.088c3.119-0.72,6.3-1.607,9.54-2.664
		C41.31,48.049,44.669,46.8,48.15,45.36z M42.57,25.344l-6.39,11.52c1.62-1.44,3.209-3.024,4.77-4.752
		c1.56-1.728,3.089-3.624,4.59-5.688L42.57,25.344z"/>
	<path d="M72.81,45.36c-5.101,5.376-10.291,9.36-15.57,11.952l-1.89-2.952c-0.36,0.241-1.005,0.601-1.935,1.08
		c-0.931,0.479-1.905,0.96-2.925,1.44c-1.021,0.479-1.935,0.912-2.745,1.296c-0.81,0.383-1.246,0.6-1.305,0.648l-3.69-4.752
		c0.72-2.927,1.755-6,3.105-9.216c1.35-3.215,2.894-6.347,4.635-9.396c1.739-3.047,3.584-5.879,5.535-8.496
		c1.949-2.615,3.915-4.788,5.895-6.516c0.3,0,0.9,0.048,1.8,0.144c0.9,0.097,1.814,0.252,2.745,0.468
		c0.93,0.216,1.769,0.48,2.52,0.792c0.75,0.313,1.125,0.709,1.125,1.188c0,1.057-0.105,2.185-0.315,3.384
		c-0.211,1.201-0.465,2.52-0.765,3.96c-0.9-0.432-1.86-0.852-2.88-1.26c-1.021-0.407-2.101-0.828-3.24-1.26
		c-1.021,0.576-2.146,1.44-3.375,2.592c-1.23,1.152-2.461,2.484-3.69,3.996c-1.23,1.512-2.446,3.121-3.645,4.824
		c-1.201,1.705-2.266,3.384-3.195,5.04c-0.931,1.656-1.71,3.229-2.34,4.716c-0.63,1.488-1.005,2.761-1.125,3.816
		c7.74-3.359,13.77-10.104,18.09-20.232l5.22,2.16c-1.5,3.553-2.896,6.613-4.185,9.18c-1.291,2.568-2.536,4.669-3.735,6.3
		C65.069,49.248,69.029,47.617,72.81,45.36z"/>
	<path d="M120.688,43.344c-1.62,2.304-3.6,4.548-5.94,6.732c-2.34,2.185-5.04,4.356-8.1,6.516l-4.23-6.192
		c2.16-3.6,4.199-7.499,6.12-11.7c1.919-4.2,3.659-8.772,5.22-13.716c-1.62,1.44-3.6,3.433-5.94,5.976
		c-2.34,2.545-4.74,5.317-7.2,8.316c-2.461,3-4.846,6.024-7.155,9.072c-2.311,3.049-4.245,5.772-5.805,8.172v-0.144l-0.09,0.216
		l-1.71-6.192c1.74-2.688,3.405-6.084,4.995-10.188c1.589-4.104,3.254-8.987,4.995-14.652c-1.681,1.488-3.661,3.504-5.94,6.048
		c-2.281,2.545-4.621,5.269-7.02,8.172c-2.4,2.905-4.711,5.832-6.93,8.784c-2.22,2.952-4.11,5.605-5.67,7.956l-1.26-5.328
		c2.579-5.855,4.77-11.292,6.57-16.308c1.8-5.016,3.209-9.756,4.23-14.22l5.76,2.448c-1.381,3.888-3.001,7.788-4.86,11.7
		c-1.86,3.913-3.931,7.812-6.21,11.7c1.139-1.728,2.714-3.827,4.725-6.3c2.009-2.472,4.125-4.968,6.345-7.488
		c2.219-2.52,4.365-4.871,6.435-7.056c2.07-2.184,3.794-3.852,5.175-5.004l6.66,2.592c-0.72,2.016-1.755,4.513-3.105,7.488
		c-1.35,2.977-3.015,6.505-4.995,10.584c2.7-3.552,5.594-6.995,8.685-10.332c3.09-3.335,6.465-6.707,10.125-10.116l6.57,2.376
		c-1.561,4.657-3.42,9.241-5.58,13.752c-2.16,4.512-4.621,9.072-7.38,13.68C111.538,49.536,115.708,47.088,120.688,43.344z"/>
</g>
</svg>
