<?xml version="1.0" encoding="utf-8"?>
<!-- Generator: Adobe Illustrator 16.0.0, SVG Export Plug-In . SVG Version: 6.00 Build 0)  -->
<!DOCTYPE svg PUBLIC "-//W3C//DTD SVG 1.1//EN" "http://www.w3.org/Graphics/SVG/1.1/DTD/svg11.dtd">
<svg version="1.1" id="Layer_1" xmlns="http://www.w3.org/2000/svg" xmlns:xlink="http://www.w3.org/1999/xlink" x="0px" y="0px"
	 width="900px" height="900px" viewBox="0 0 900 900" enable-background="new 0 0 900 900" xml:space="preserve">
<g>
	<g>
		<polygon fill="#C53F38" points="449.009,449.965 -0.008,6.051 -0.008,86.768 448.521,449.965 		"/>
		<polygon fill="#5E969A" points="448.107,449.965 -0.008,135.533 -0.008,199.141 447.325,449.965 		"/>
		<polygon fill="#C53F38" points="446.57,449.965 -0.008,240.278 -0.008,294.256 444.981,449.965 		"/>
		<polygon fill="#5E969A" points="443.162,449.965 -0.006,329.916 -0.006,378.837 437.788,449.965 		"/>
		<path fill="#C53F38" d="M427.113,449.96h-1.751L0,475.58v-24.76c-0.018-0.4-0.036-0.81,0.27-0.86h-0.278v-27.65L427.113,449.96z"
			/>
		<polygon fill="#5E969A" points="449.642,449.965 124.939,0 52.836,0 449.292,449.965 		"/>
		<polygon fill="#C53F38" points="450.122,449.965 224.563,0 167.62,0 449.848,449.965 		"/>
		<polygon fill="#5E969A" points="450.528,449.965 308.65,0 260.257,0 450.294,449.965 		"/>
		<polygon fill="#C53F38" points="450.885,449.965 382.743,0 338.855,0 450.674,449.965 		"/>
		<polygon fill="#5E969A" points="451.235,449.965 455.258,0 413.182,0 451.032,449.965 		"/>
		<polygon fill="#C53F38" points="451.563,449.965 523.116,0 480.517,0 451.357,449.965 		"/>
		<polygon fill="#5E969A" points="451.953,449.965 603.901,0 558.024,0 451.732,449.965 		"/>
		<polygon fill="#C53F38" points="452.388,449.965 694.138,0 641.368,0 452.132,449.965 		"/>
		<polygon fill="#5E969A" points="452.931,449.965 806.547,0 740.701,0 452.612,449.965 		"/>
		<polygon fill="#C53F38" points="453.678,449.965 900.002,54.449 900.002,0.571 900.002,0 870.027,0 453.236,449.965 		"/>
		<polygon fill="#5E969A" points="454.811,449.965 900.002,179.877 900.002,113.949 454.111,449.965 		"/>
		<polygon fill="#C53F38" points="456.955,449.965 900.002,281.552 900.002,226.754 455.559,449.965 		"/>
		<polygon fill="#5E969A" points="463.384,449.965 900.002,377.695 900.002,322.714 458.78,449.965 		"/>
		<path fill="#C53F38" d="M899.732,449.96h0.27v26.66l-427.112-26.66h1.75l425.362-27.61v26.76
			C900.028,449.51,900.046,449.92,899.732,449.96z"/>
	</g>
	<g>
		<polygon fill="#C53F38" points="450.99,449.965 900.003,893.879 900.003,813.162 451.479,449.965 		"/>
		<polygon fill="#5E969A" points="451.892,449.965 900.003,764.397 900.003,700.789 452.674,449.965 		"/>
		<polygon fill="#C53F38" points="453.43,449.965 900.003,659.652 900.003,605.673 455.018,449.965 		"/>
		<polygon fill="#5E969A" points="456.837,449.965 900,570.013 900,521.093 462.211,449.965 		"/>
		<polygon fill="#5E969A" points="450.358,449.965 775.057,899.928 847.159,899.928 450.707,449.965 		"/>
		<polygon fill="#C53F38" points="449.877,449.965 675.435,899.928 732.376,899.928 450.151,449.965 		"/>
		<polygon fill="#5E969A" points="449.472,449.965 591.348,899.928 639.741,899.928 449.707,449.965 		"/>
		<polygon fill="#C53F38" points="449.115,449.965 517.255,899.928 561.143,899.928 449.326,449.965 		"/>
		<polygon fill="#5E969A" points="448.765,449.965 444.741,899.928 486.818,899.928 448.968,449.965 		"/>
		<polygon fill="#C53F38" points="448.437,449.965 376.885,899.928 419.482,899.928 448.643,449.965 		"/>
		<polygon fill="#5E969A" points="448.047,449.965 296.101,899.928 341.977,899.928 448.268,449.965 		"/>
		<polygon fill="#C53F38" points="447.611,449.965 205.864,899.928 258.633,899.928 447.866,449.965 		"/>
		<polygon fill="#5E969A" points="447.069,449.965 93.456,899.928 159.302,899.928 447.388,449.965 		"/>
		<polygon fill="#C53F38" points="446.322,449.965 0.003,845.481 0.003,899.357 0.003,899.928 29.978,899.928 446.763,449.965 		"/>
		<polygon fill="#5E969A" points="445.189,449.965 0.003,720.053 0.003,785.981 445.889,449.965 		"/>
		<polygon fill="#C53F38" points="443.045,449.965 0.003,618.378 0.003,673.175 444.441,449.965 		"/>
		<polygon fill="#5E969A" points="436.615,449.965 0.003,523.234 0.003,577.215 441.22,449.965 		"/>
	</g>
</g>
<rect opacity="0.2" fill="#FFFFFF" width="900" height="900"/>
</svg>
