<?xml version="1.0" encoding="utf-8"?>
<!-- Generator: Adobe Illustrator 16.0.0, SVG Export Plug-In . SVG Version: 6.00 Build 0)  -->
<!DOCTYPE svg PUBLIC "-//W3C//DTD SVG 1.1//EN" "http://www.w3.org/Graphics/SVG/1.1/DTD/svg11.dtd">
<svg version="1.1" id="Layer_1" xmlns="http://www.w3.org/2000/svg" xmlns:xlink="http://www.w3.org/1999/xlink" x="0px" y="0px"
	 width="375px" height="75px" viewBox="0 0 375 75" enable-background="new 0 0 375 75" xml:space="preserve">
<g>
	<g>
		<path fill="#093333" d="M22.08,14.34c-0.85,3.75-2.29,10.9-4.33,21.45c-0.89,4.57-1.63,8.23-2.21,10.97
			c-0.54,2.58-0.94,4.37-1.2,5.38c-0.54,2.11-0.82,3.65-0.84,4.64c-0.02,0.98-1.29,1.73-3.8,2.25c-0.76,0.15-1.46,0.22-2.1,0.22
			c-0.16,0-0.31,0-0.46-0.01c-0.78-0.02-1.16-0.18-1.16-0.46c0.02-0.44,0.7-3.84,2.04-10.19c0.65-3.07,1.39-6.73,2.21-10.97
			c2.11-10.88,3.59-18.19,4.43-21.94c0.07-0.3,0.59-0.68,1.55-1.13c0.86-0.42,1.81-0.72,2.84-0.91c0.7-0.12,1.27-0.19,1.73-0.19
			C21.77,13.45,22.21,13.75,22.08,14.34z"/>
	</g>
	<g>
		<path fill="#093333" d="M47.64,34.84c-0.17,2.62-0.6,5.92-1.3,9.88c-0.56,3.1-1.08,5.92-1.57,8.45c-0.32,1.7-0.63,3.27-0.93,4.71
			c-0.78,3.9-1.45,6.83-2,8.81c-0.07,0.31-0.59,0.68-1.55,1.13c-0.87,0.39-1.82,0.69-2.85,0.88c-0.73,0.13-1.34,0.2-1.81,0.2
			c-0.97,0-1.37-0.29-1.21-0.87c1.05-3.8,2.53-10.99,4.43-21.59c1.36-7.59,1.67-12.99,0.95-16.21c-0.52,0.5-0.99,1-1.41,1.52
			c-1.66,2.01-3.34,4.71-5.03,8.08c-1.61,3.24-3.9,8.9-6.85,16.98c-0.26,0.75-1.58,1.37-3.97,1.87c-1.07,0.23-1.89,0.34-2.46,0.34
			c-0.71,0-1.05-0.17-1.03-0.52c0.31-4.17,1.29-9.69,2.96-16.56c1.92-7.97,3.1-13.44,3.55-16.42c0.12-0.84,1.26-1.56,3.44-2.14
			c0.59-0.16,1.32-0.28,2.18-0.35c0.29-0.03,0.54-0.04,0.76-0.04c0.8,0,1.18,0.16,1.14,0.49c-0.4,2.61-0.99,5.68-1.79,9.22
			c0.58-0.73,1.19-1.4,1.83-2.01c2.81-2.69,6.28-4.43,10.4-5.2c0.68-0.13,1.25-0.2,1.7-0.2c0.76,0,1.22,0.18,1.36,0.55
			c0.11,0.27,0.21,0.54,0.29,0.83c0.37,1.12,0.61,2.39,0.73,3.82C47.72,31.81,47.73,33.26,47.64,34.84z"/>
	</g>
	<g>
		<path fill="#093333" d="M73.2,29.53c0,0.08-0.01,0.16-0.02,0.24c-0.12,2.22-0.96,4.2-2.52,5.95c-0.21,0.24-0.47,0.47-0.79,0.66
			c-0.73,0.46-1.73,0.79-3.02,0.98c-0.38,0.07-0.78,0.11-1.21,0.15c-0.19,0.02-0.37,0.02-0.54,0.02c-0.41,0-0.76-0.04-1.05-0.12
			c-0.58-0.19-0.64-0.55-0.17-1.09c1.24-1.41,1.86-3.05,1.86-4.93c0-2.53-0.71-4.43-2.14-5.69c-0.49-0.45-0.96-0.76-1.41-0.95
			c-0.16-0.07-0.3-0.13-0.42-0.18h-0.04l-0.03,0.04c-1.64,1.08-3.07,2.84-4.29,5.27c-1.15,2.37-1.99,4.96-2.53,7.77
			c-0.52,2.72-0.74,5.4-0.67,8.05c0.09,3.36,0.56,5.9,1.41,7.63c0.49,1.03,1.05,1.76,1.68,2.18c0.22-0.19,0.38-0.34,0.5-0.46
			c0.72-0.77,1.41-1.71,2.07-2.81c0.56-0.91,2.03-1.58,4.4-2c0.19-0.04,0.39-0.07,0.59-0.09c0.3-0.04,0.61-0.06,0.94-0.06
			c0.11,0,0.22,0,0.33,0.01c1.05,0.05,1.43,0.31,1.12,0.81c-0.62,1.04-1.3,1.97-2.05,2.81c-1.83,2.09-4.02,3.54-6.56,4.36
			c-1.8,0.59-3.39,0.88-4.76,0.88c-2.07,0-3.66-0.67-4.75-2c-0.27-0.33-0.51-0.69-0.72-1.1c-0.44-0.84-0.8-1.77-1.08-2.78
			c0-0.01,0-0.01,0-0.01c-0.89-3.31-0.92-7.56-0.08-12.75c0.59-3.68,1.56-6.79,2.89-9.35c0.63-1.21,1.34-2.29,2.13-3.24
			c0.51-0.61,1.05-1.17,1.62-1.68c2.58-2.32,5.7-3.78,9.36-4.39c3.42-0.54,5.13-0.81,5.13-0.81s0.82,0.82,2.46,2.46
			c0.87,0.89,1.5,1.89,1.89,2.99C73.09,27.29,73.24,28.37,73.2,29.53z"/>
	</g>
	<g>
		<path fill="#093333" d="M95.03,27.21c-0.07-2.06-0.74-3.37-2.01-3.94c-0.75-0.32-1.61-0.49-2.58-0.49c-1.61,0-3.51,0.45-5.71,1.34
			c-2.6,1.03-4.79,2.32-6.58,3.86c-0.97,0.81-1.81,1.71-2.54,2.68c-0.45,0.6-0.86,1.23-1.22,1.89c-0.98,1.82-1.8,3.63-2.46,5.43
			h-0.01c-0.43,1.16-0.79,2.33-1.08,3.49c-0.41,1.58-0.69,3.15-0.85,4.71c-0.14,1.37-0.18,2.73-0.13,4.09
			c0.05,1.84,0.33,3.34,0.84,4.5c0.43,0.98,1.03,1.72,1.79,2.22c0.5,0.33,1.27,0.5,2.31,0.5c0.57,0,1.22-0.05,1.95-0.15
			c1.92-0.28,3.69-0.98,5.3-2.11c0.92-0.63,1.84-1.44,2.78-2.43c-0.28,1.93-0.48,3.75-0.6,5.49c-0.02,0.23,0.36,0.37,1.13,0.42h0.25
			c0.66,0,1.43-0.08,2.28-0.25c0.87-0.16,1.59-0.36,2.17-0.59c0.35-4.45,1.35-10.04,3.06-17.1c1.45-6.01,2.47-10.58,3.06-13.64
			C95.86,27.13,95.48,27.16,95.03,27.21z M87.96,38.07c-1.26,3.05-3.47,6.7-6.61,10.94c-1.57,2.13-2.35,3.2-2.35,3.2
			s-0.21,0.24-0.64,0.74c-0.14-0.31-0.27-0.6-0.38-0.88c-0.75-2.11-0.87-4.95-0.36-8.51c0.4-2.79,1.29-5.86,2.68-9.21
			c0.51-1.22,1.11-2.45,1.79-3.69c0.44-0.78,0.96-1.46,1.55-2.04c0.56-0.57,1.25-1.16,2.07-1.8c0.02-0.02,0.05-0.04,0.07-0.07
			c0.05-0.02,0.12-0.07,0.21-0.14c0.14-0.09,0.34-0.22,0.6-0.38l0.03-0.04c0.71,0.59,1,1.95,0.88,4.08
			c-0.01,0.29,0.4,0.43,1.24,0.43c0.26,0,0.56-0.02,0.91-0.04C89.27,32.51,88.71,34.98,87.96,38.07z"/>
		<path fill="#F1F2F2" d="M89.65,30.66c-0.38,1.85-0.94,4.32-1.69,7.41c-1.26,3.05-3.47,6.7-6.61,10.94
			c-1.57,2.13-2.35,3.2-2.35,3.2s-0.21,0.24-0.64,0.74c-0.14-0.31-0.27-0.6-0.38-0.88c-0.75-2.11-0.87-4.95-0.36-8.51
			c0.4-2.79,1.29-5.86,2.68-9.21c0.51-1.22,1.11-2.45,1.79-3.69c0.44-0.78,0.96-1.46,1.55-2.04c0.56-0.57,1.25-1.16,2.07-1.8
			c0.02-0.02,0.05-0.04,0.07-0.07c0.05-0.02,0.12-0.07,0.21-0.14c0.14-0.09,0.34-0.22,0.6-0.38l0.03-0.04
			c0.71,0.59,1,1.95,0.88,4.08c-0.01,0.29,0.4,0.43,1.24,0.43C89,30.7,89.3,30.68,89.65,30.66z"/>
	</g>
	<g>
		<path fill="#093333" d="M123.61,34.84c-0.16,2.62-0.6,5.92-1.3,9.88c-0.53,2.94-1.02,5.62-1.49,8.05
			c-0.32,1.68-0.62,3.23-0.91,4.66v0.01c-0.83,4.12-1.53,7.19-2.1,9.25c-0.07,0.31-0.59,0.68-1.55,1.13
			c-0.87,0.39-1.81,0.69-2.85,0.88c-0.73,0.13-1.34,0.2-1.81,0.2c-0.96,0-1.37-0.29-1.21-0.87c1.06-3.8,2.53-10.99,4.43-21.59
			c1.36-7.59,1.68-12.99,0.95-16.21c-0.52,0.5-0.98,1-1.41,1.52c-1.66,2.01-3.34,4.71-5.02,8.08c-1.62,3.24-3.91,8.9-6.86,16.98
			c-0.26,0.75-1.58,1.37-3.97,1.87c-1.07,0.23-1.88,0.34-2.46,0.34c-0.71,0-1.05-0.17-1.02-0.52c0.3-4.17,1.29-9.69,2.95-16.56
			c1.92-7.97,3.11-13.44,3.55-16.42c0.02-0.15,0.08-0.3,0.17-0.45c0.41-0.65,1.5-1.22,3.28-1.69c0.58-0.16,1.31-0.28,2.18-0.35
			c0.28-0.03,0.53-0.04,0.76-0.04c0.79,0,1.17,0.16,1.13,0.49c-0.39,2.61-0.99,5.68-1.79,9.22c0.59-0.73,1.2-1.4,1.83-2.01
			c2.81-2.69,6.28-4.43,10.41-5.2c0.67-0.13,1.24-0.2,1.69-0.2c0.76,0,1.22,0.18,1.36,0.55c0.24,0.6,0.44,1.24,0.6,1.94
			c0.32,1.32,0.49,2.82,0.51,4.51C123.68,33.1,123.66,33.95,123.61,34.84z"/>
	</g>
	<g>
		<path fill="#093333" d="M153.17,5.58c-0.46,0-1.04,0.06-1.75,0.19c-1.06,0.18-2.02,0.48-2.88,0.87c-0.92,0.45-1.42,0.84-1.52,1.16
			c-1.33,4.41-2.59,9.26-3.76,14.56c-0.64-0.22-1.36-0.33-2.15-0.33c-0.3,0-0.62,0.02-0.94,0.05c-2.46,0.26-4.8,1.02-7,2.28
			c-1.79,1.02-3.39,2.51-4.75,4.46c-0.83,1.15-1.58,2.47-2.25,3.95c-0.64,1.4-1.21,2.95-1.72,4.64c-1.8,6.02-2.16,11.09-1.09,15.22
			c0.01,0.02,0.01,0.05,0.02,0.07c0.39,1.47,1,2.71,1.83,3.75c0.77,0.98,1.74,1.77,2.9,2.37c1.26,0.65,2.64,0.98,4.15,0.98
			c1.78,0,3.74-0.46,5.87-1.37c0.4-0.02,0.89-0.08,1.48-0.18c1.03-0.18,1.98-0.48,2.84-0.87c0.43-0.21,0.77-0.4,1.02-0.58
			c0.31-0.22,0.49-0.42,0.53-0.59c0.54-2.81,1.05-5.51,1.55-8.09v-0.03c0.01-0.03,0.01-0.05,0.01-0.07
			c0.95-4.88,1.82-9.36,2.64-13.42c-0.01-0.01,0-0.01,0-0.02c0.65-3.29,1.26-6.32,1.83-9.07c0-0.01,0-0.01,0-0.01
			c1.99-9.6,3.45-15.94,4.38-19.03C154.58,5.88,154.17,5.58,153.17,5.58z M139.11,43.73c-0.96,5.49-1.63,9.23-2,11.22
			c-0.75,0.33-1.31,0.74-1.69,1.23l-0.14,0.18c-0.3-0.15-0.61-0.32-0.91-0.53c-1.71-1.08-2.91-2.88-3.59-5.42
			c-0.84-3.32-1.26-4.99-1.26-4.99s0.62-2.58,1.86-7.73c1.26-5.09,3.07-8.9,5.41-11.43c0.19-0.21,0.41-0.42,0.67-0.63
			c0.05,0.02,0.11,0.07,0.18,0.14c1.19,1.05,1.94,3.12,2.25,6.19c0.02,0.33,0.44,0.5,1.26,0.52C140.64,35.25,139.96,39,139.11,43.73
			z"/>
		<path fill="#F1F2F2" d="M141.15,32.48c-0.51,2.77-1.19,6.52-2.04,11.25c-0.96,5.49-1.63,9.23-2,11.22
			c-0.75,0.33-1.31,0.74-1.69,1.23l-0.14,0.18c-0.3-0.15-0.61-0.32-0.91-0.53c-1.71-1.08-2.91-2.88-3.59-5.42
			c-0.84-3.32-1.26-4.99-1.26-4.99s0.62-2.58,1.86-7.73c1.26-5.09,3.07-8.9,5.41-11.43c0.19-0.21,0.41-0.42,0.67-0.63
			c0.05,0.02,0.11,0.07,0.18,0.14c1.19,1.05,1.94,3.12,2.25,6.19C139.91,32.29,140.33,32.46,141.15,32.48z"/>
	</g>
	<g>
		<path fill="#093333" d="M169.91,24.12c-0.53-0.54-1.24-0.9-2.15-1.1l2.52,1.5C170.16,24.38,170.04,24.25,169.91,24.12z
			 M171.47,32.67c-0.07,0.57-0.08,1.14-0.03,1.73c0.28-1.38,0.43-2.65,0.44-3.84C171.68,31.23,171.55,31.94,171.47,32.67z
			 M173.95,32.98c-0.06,0.52-0.06,1.05,0,1.6c0.25-1.28,0.4-2.49,0.43-3.63C174.17,31.59,174.03,32.27,173.95,32.98z"/>
		<path fill="none" d="M163.2,25.35c0,0.02-0.02,0.03-0.04,0.03 M162.14,26.3c-0.02,0.01-0.03,0.02-0.03,0.02 M169.91,24.12
			c-0.53-0.54-1.24-0.9-2.15-1.1l2.52,1.5C170.16,24.38,170.04,24.25,169.91,24.12z M171.47,32.67c-0.07,0.57-0.08,1.14-0.03,1.73
			c0.28-1.38,0.43-2.65,0.44-3.84C171.68,31.23,171.55,31.94,171.47,32.67z M169.91,24.12c-0.53-0.54-1.24-0.9-2.15-1.1l2.52,1.5
			C170.16,24.38,170.04,24.25,169.91,24.12z M171.47,32.67c-0.07,0.57-0.08,1.14-0.03,1.73c0.28-1.38,0.43-2.65,0.44-3.84
			C171.68,31.23,171.55,31.94,171.47,32.67z M173.95,32.98c-0.06,0.52-0.06,1.05,0,1.6c0.25-1.28,0.4-2.49,0.43-3.63
			C174.17,31.59,174.03,32.27,173.95,32.98z"/>
		<path fill="#093333" d="M171.84,28.97c-0.07-1.11-0.28-2.08-0.64-2.91c-0.23-0.58-0.54-1.09-0.92-1.54l-2.52-1.5h-0.01
			c-0.54-0.12-1.15-0.18-1.83-0.18c-0.87,0-1.85,0.09-2.94,0.29c-3.11,0.57-5.6,1.76-7.45,3.59c-0.29,0.28-0.56,0.59-0.84,0.92v0.01
			c-0.93,1.13-1.79,2.56-2.57,4.27c-0.55,0.96-1.06,2.08-1.51,3.36c-0.85,2.37-1.54,5.29-2.07,8.74c-0.22,1.53-0.39,2.97-0.49,4.33
			c0,0.01,0,0.01,0,0.01c-0.11,1.37-0.16,2.65-0.15,3.85c0,2.06,0.34,3.66,1.04,4.8v0.01c0.59,1.01,1.47,1.66,2.62,1.94
			c0.47,0.11,0.99,0.17,1.56,0.17c1.39,0,3.1-0.34,5.12-1.02c1.71-0.56,3.36-1.5,4.96-2.81c0.24-0.2,0.47-0.4,0.69-0.6
			c0.9-0.82,1.67-1.7,2.3-2.62c0.99-1.46,1.64-3.05,1.93-4.76c0.01-0.05,0.01-0.1,0.01-0.15c-0.01-0.48-0.45-0.73-1.36-0.73
			c-0.36,0-0.79,0.04-1.3,0.12c-0.11,0.02-0.22,0.04-0.34,0.06c-1.06,0.19-2.01,0.48-2.85,0.88c-0.98,0.47-1.5,0.85-1.55,1.16
			c-0.32,1.92-1.21,3.79-2.67,5.62c-0.33,0.4-0.75,0.82-1.26,1.27c-0.45-0.4-0.81-1.14-1.09-2.22c-0.31-1.17-0.4-3.04-0.28-5.62
			c0.14-2.32,0.39-4.42,0.77-6.3c1.05-0.11,2.5-0.17,4.32-0.17c1.19,0.01,2.14,0.02,2.86,0.02c0.72,0,1.21-0.01,1.47-0.02
			c0.79-0.02,1.77-0.24,2.92-0.63c1.31-0.5,2.09-0.97,2.34-1.41c0.02-0.04,0.04-0.07,0.05-0.11c0.57-1.66,1-3.22,1.28-4.67
			c-0.01-0.01,0-0.02,0-0.02c-0.05-0.59-0.04-1.16,0.03-1.73c0.08-0.73,0.21-1.44,0.41-2.11C171.9,30.01,171.88,29.48,171.84,28.97z
			 M163.41,38.43c-2.72,0.07-4.97,0.23-6.75,0.49c0.28-1.34,0.57-2.6,0.88-3.8c0.67-1.76,1.47-3.58,2.39-5.48
			c0.44-0.87,0.95-1.7,1.51-2.5c0.18-0.28,0.42-0.56,0.7-0.84c0.02-0.04,0.06-0.07,0.11-0.11c0.09,0.05,0.21,0.12,0.35,0.21
			c0.93,0.71,1.51,2.15,1.72,4.33C164.58,32.62,164.27,35.19,163.41,38.43z"/>
		<path fill="#F1F2F2" d="M163.41,38.43c-2.72,0.07-4.97,0.23-6.75,0.49c0.28-1.34,0.57-2.6,0.88-3.8c0.67-1.76,1.47-3.58,2.39-5.48
			c0.44-0.87,0.95-1.7,1.51-2.5c0.18-0.28,0.42-0.56,0.7-0.84c0.02-0.04,0.06-0.07,0.11-0.11c0.09,0.05,0.21,0.12,0.35,0.21
			c0.93,0.71,1.51,2.15,1.72,4.33C164.58,32.62,164.27,35.19,163.41,38.43z"/>
	</g>
	<g>
		<path fill="#093333" d="M181.65,56.43c-0.08-0.01-0.16-0.02-0.24-0.03c-0.21,0.15-0.46,0.28-0.73,0.41
			c0.33-0.14,0.67-0.25,1.04-0.31C181.96,56.45,181.93,56.43,181.65,56.43z M183.02,26.09c-0.13,0.01-0.22,0.02-0.29,0.02
			c0.04,0.01,0.13,0.01,0.29,0.01c0.26,0.01,0.5,0.04,0.73,0.08c0.17-0.17,0.27-0.27,0.29-0.29c0.14-0.12,0.22-0.18,0.24-0.18
			c0.01,0,0.01,0,0.01,0c0.09-0.04,0.17-0.09,0.25-0.14C184.04,25.85,183.54,26.02,183.02,26.09z M183.02,26.09
			c-0.13,0.01-0.22,0.02-0.29,0.02c0.04,0.01,0.13,0.01,0.29,0.01c0.26,0.01,0.5,0.04,0.73,0.08c0.17-0.17,0.27-0.27,0.29-0.29
			c0.14-0.12,0.22-0.18,0.24-0.18c0.01,0,0.01,0,0.01,0c0.09-0.04,0.17-0.09,0.25-0.14C184.04,25.85,183.54,26.02,183.02,26.09z
			 M181.65,56.43c-0.08-0.01-0.16-0.02-0.24-0.03c-0.21,0.15-0.46,0.28-0.73,0.41c0.33-0.14,0.67-0.25,1.04-0.31
			C181.96,56.45,181.93,56.43,181.65,56.43z M181.65,56.43c-0.08-0.01-0.16-0.02-0.24-0.03c-0.21,0.15-0.46,0.28-0.73,0.41
			c0.33-0.14,0.67-0.25,1.04-0.31C181.96,56.45,181.93,56.43,181.65,56.43z M183.02,26.09c-0.13,0.01-0.22,0.02-0.29,0.02
			c0.04,0.01,0.13,0.01,0.29,0.01c0.26,0.01,0.5,0.04,0.73,0.08c0.17-0.17,0.27-0.27,0.29-0.29c0.14-0.12,0.22-0.18,0.24-0.18
			c0.01,0,0.01,0,0.01,0c0.09-0.04,0.17-0.09,0.25-0.14C184.04,25.85,183.54,26.02,183.02,26.09z M183.02,26.09
			c-0.13,0.01-0.22,0.02-0.29,0.02c0.04,0.01,0.13,0.01,0.29,0.01c0.26,0.01,0.5,0.04,0.73,0.08c0.17-0.17,0.27-0.27,0.29-0.29
			c0.14-0.12,0.22-0.18,0.24-0.18c0.01,0,0.01,0,0.01,0c0.09-0.04,0.17-0.09,0.25-0.14C184.04,25.85,183.54,26.02,183.02,26.09z
			 M181.65,56.43c-0.08-0.01-0.16-0.02-0.24-0.03c-0.21,0.15-0.46,0.28-0.73,0.41c0.33-0.14,0.67-0.25,1.04-0.31
			C181.96,56.45,181.93,56.43,181.65,56.43z M181.65,56.43c-0.08-0.01-0.16-0.02-0.24-0.03c-0.21,0.15-0.46,0.28-0.73,0.41
			c0.33-0.14,0.67-0.25,1.04-0.31C181.96,56.45,181.93,56.43,181.65,56.43z M183.02,26.09c-0.13,0.01-0.22,0.02-0.29,0.02
			c0.04,0.01,0.13,0.01,0.29,0.01c0.26,0.01,0.5,0.04,0.73,0.08c0.17-0.17,0.27-0.27,0.29-0.29c0.14-0.12,0.22-0.18,0.24-0.18
			c0.01,0,0.01,0,0.01,0c0.09-0.04,0.17-0.09,0.25-0.14C184.04,25.85,183.54,26.02,183.02,26.09z M183.02,26.09
			c-0.13,0.01-0.22,0.02-0.29,0.02c0.04,0.01,0.13,0.01,0.29,0.01c0.26,0.01,0.5,0.04,0.73,0.08c0.17-0.17,0.27-0.27,0.29-0.29
			c0.14-0.12,0.22-0.18,0.24-0.18c0.01,0,0.01,0,0.01,0c0.09-0.04,0.17-0.09,0.25-0.14C184.04,25.85,183.54,26.02,183.02,26.09z
			 M181.65,56.43c-0.08-0.01-0.16-0.02-0.24-0.03c-0.21,0.15-0.46,0.28-0.73,0.41c0.33-0.14,0.67-0.25,1.04-0.31
			C181.96,56.45,181.93,56.43,181.65,56.43z M181.65,56.43c-0.08-0.01-0.16-0.02-0.24-0.03c-0.21,0.15-0.46,0.28-0.73,0.41
			c0.33-0.14,0.67-0.25,1.04-0.31C181.96,56.45,181.93,56.43,181.65,56.43z M183.02,26.09c-0.13,0.01-0.22,0.02-0.29,0.02
			c0.04,0.01,0.13,0.01,0.29,0.01c0.26,0.01,0.5,0.04,0.73,0.08c0.17-0.17,0.27-0.27,0.29-0.29c0.14-0.12,0.22-0.18,0.24-0.18
			c0.01,0,0.01,0,0.01,0c0.09-0.04,0.17-0.09,0.25-0.14C184.04,25.85,183.54,26.02,183.02,26.09z M183.02,26.09
			c-0.13,0.01-0.22,0.02-0.29,0.02c0.04,0.01,0.13,0.01,0.29,0.01c0.26,0.01,0.5,0.04,0.73,0.08c0.17-0.17,0.27-0.27,0.29-0.29
			c0.14-0.12,0.22-0.18,0.24-0.18c0.01,0,0.01,0,0.01,0c0.09-0.04,0.17-0.09,0.25-0.14C184.04,25.85,183.54,26.02,183.02,26.09z
			 M181.65,56.43c-0.08-0.01-0.16-0.02-0.24-0.03c-0.21,0.15-0.46,0.28-0.73,0.41c0.33-0.14,0.67-0.25,1.04-0.31
			C181.96,56.45,181.93,56.43,181.65,56.43z M181.65,56.43c-0.08-0.01-0.16-0.02-0.24-0.03c-0.21,0.15-0.46,0.28-0.73,0.41
			c0.33-0.14,0.67-0.25,1.04-0.31C181.96,56.45,181.93,56.43,181.65,56.43z M183.02,26.09c-0.13,0.01-0.22,0.02-0.29,0.02
			c0.04,0.01,0.13,0.01,0.29,0.01c0.26,0.01,0.5,0.04,0.73,0.08c0.17-0.17,0.27-0.27,0.29-0.29c0.14-0.12,0.22-0.18,0.24-0.18
			c0.01,0,0.01,0,0.01,0c0.09-0.04,0.17-0.09,0.25-0.14C184.04,25.85,183.54,26.02,183.02,26.09z M194.3,33.74
			c0.77-1.26,1.32-2.46,1.68-3.6C195.34,31.22,194.78,32.42,194.3,33.74z M192.05,32.63c0.77-1.23,1.3-2.37,1.59-3.43
			C193.05,30.26,192.52,31.4,192.05,32.63z M183.02,26.09c-0.13,0.01-0.22,0.02-0.29,0.02c0.04,0.01,0.13,0.01,0.29,0.01
			c0.26,0.01,0.5,0.04,0.73,0.08c0.17-0.17,0.27-0.27,0.29-0.29c0.14-0.12,0.22-0.18,0.24-0.18c0.01,0,0.01,0,0.01,0
			c0.09-0.04,0.17-0.09,0.25-0.14C184.04,25.85,183.54,26.02,183.02,26.09z M181.65,56.43c-0.08-0.01-0.16-0.02-0.24-0.03
			c-0.21,0.15-0.46,0.28-0.73,0.41c0.33-0.14,0.67-0.25,1.04-0.31C181.96,56.45,181.93,56.43,181.65,56.43z M173.95,32.98
			c-0.06,0.52-0.06,1.05,0,1.6c0.25-1.28,0.4-2.49,0.43-3.63C174.17,31.59,174.03,32.27,173.95,32.98z M171.47,32.67
			c-0.07,0.57-0.08,1.14-0.03,1.73c0.28-1.38,0.43-2.65,0.44-3.84C171.68,31.23,171.55,31.94,171.47,32.67z M181.65,56.43
			c-0.08-0.01-0.16-0.02-0.24-0.03c-0.21,0.15-0.46,0.28-0.73,0.41c0.33-0.14,0.67-0.25,1.04-0.31
			C181.96,56.45,181.93,56.43,181.65,56.43z M183.02,26.09c-0.13,0.01-0.22,0.02-0.29,0.02c0.04,0.01,0.13,0.01,0.29,0.01
			c0.26,0.01,0.5,0.04,0.73,0.08c0.17-0.17,0.27-0.27,0.29-0.29c0.14-0.12,0.22-0.18,0.24-0.18c0.01,0,0.01,0,0.01,0
			c0.09-0.04,0.17-0.09,0.25-0.14C184.04,25.85,183.54,26.02,183.02,26.09z M183.02,26.09c-0.13,0.01-0.22,0.02-0.29,0.02
			c0.04,0.01,0.13,0.01,0.29,0.01c0.26,0.01,0.5,0.04,0.73,0.08c0.17-0.17,0.27-0.27,0.29-0.29c0.14-0.12,0.22-0.18,0.24-0.18
			c0.01,0,0.01,0,0.01,0c0.09-0.04,0.17-0.09,0.25-0.14C184.04,25.85,183.54,26.02,183.02,26.09z M181.65,56.43
			c-0.08-0.01-0.16-0.02-0.24-0.03c-0.21,0.15-0.46,0.28-0.73,0.41c0.33-0.14,0.67-0.25,1.04-0.31
			C181.96,56.45,181.93,56.43,181.65,56.43z M181.65,56.43c-0.08-0.01-0.16-0.02-0.24-0.03c-0.21,0.15-0.46,0.28-0.73,0.41
			c0.33-0.14,0.67-0.25,1.04-0.31C181.96,56.45,181.93,56.43,181.65,56.43z M183.02,26.09c-0.13,0.01-0.22,0.02-0.29,0.02
			c0.04,0.01,0.13,0.01,0.29,0.01c0.26,0.01,0.5,0.04,0.73,0.08c0.17-0.17,0.27-0.27,0.29-0.29c0.14-0.12,0.22-0.18,0.24-0.18
			c0.01,0,0.01,0,0.01,0c0.09-0.04,0.17-0.09,0.25-0.14C184.04,25.85,183.54,26.02,183.02,26.09z M183.02,26.09
			c-0.13,0.01-0.22,0.02-0.29,0.02c0.04,0.01,0.13,0.01,0.29,0.01c0.26,0.01,0.5,0.04,0.73,0.08c0.17-0.17,0.27-0.27,0.29-0.29
			c0.14-0.12,0.22-0.18,0.24-0.18c0.01,0,0.01,0,0.01,0c0.09-0.04,0.17-0.09,0.25-0.14C184.04,25.85,183.54,26.02,183.02,26.09z
			 M181.65,56.43c-0.08-0.01-0.16-0.02-0.24-0.03c-0.21,0.15-0.46,0.28-0.73,0.41c0.33-0.14,0.67-0.25,1.04-0.31
			C181.96,56.45,181.93,56.43,181.65,56.43z M181.65,56.43c-0.08-0.01-0.16-0.02-0.24-0.03c-0.21,0.15-0.46,0.28-0.73,0.41
			c0.33-0.14,0.67-0.25,1.04-0.31C181.96,56.45,181.93,56.43,181.65,56.43z M183.02,26.09c-0.13,0.01-0.22,0.02-0.29,0.02
			c0.04,0.01,0.13,0.01,0.29,0.01c0.26,0.01,0.5,0.04,0.73,0.08c0.17-0.17,0.27-0.27,0.29-0.29c0.14-0.12,0.22-0.18,0.24-0.18
			c0.01,0,0.01,0,0.01,0c0.09-0.04,0.17-0.09,0.25-0.14C184.04,25.85,183.54,26.02,183.02,26.09z M183.02,26.09
			c-0.13,0.01-0.22,0.02-0.29,0.02c0.04,0.01,0.13,0.01,0.29,0.01c0.26,0.01,0.5,0.04,0.73,0.08c0.17-0.17,0.27-0.27,0.29-0.29
			c0.14-0.12,0.22-0.18,0.24-0.18c0.01,0,0.01,0,0.01,0c0.09-0.04,0.17-0.09,0.25-0.14C184.04,25.85,183.54,26.02,183.02,26.09z
			 M181.65,56.43c-0.08-0.01-0.16-0.02-0.24-0.03c-0.21,0.15-0.46,0.28-0.73,0.41c0.33-0.14,0.67-0.25,1.04-0.31
			C181.96,56.45,181.93,56.43,181.65,56.43z M181.65,56.43c-0.08-0.01-0.16-0.02-0.24-0.03c-0.21,0.15-0.46,0.28-0.73,0.41
			c0.33-0.14,0.67-0.25,1.04-0.31C181.96,56.45,181.93,56.43,181.65,56.43z M183.02,26.09c-0.13,0.01-0.22,0.02-0.29,0.02
			c0.04,0.01,0.13,0.01,0.29,0.01c0.26,0.01,0.5,0.04,0.73,0.08c0.17-0.17,0.27-0.27,0.29-0.29c0.14-0.12,0.22-0.18,0.24-0.18
			c0.01,0,0.01,0,0.01,0c0.09-0.04,0.17-0.09,0.25-0.14C184.04,25.85,183.54,26.02,183.02,26.09z M183.02,26.09
			c-0.13,0.01-0.22,0.02-0.29,0.02c0.04,0.01,0.13,0.01,0.29,0.01c0.26,0.01,0.5,0.04,0.73,0.08c0.17-0.17,0.27-0.27,0.29-0.29
			c0.14-0.12,0.22-0.18,0.24-0.18c0.01,0,0.01,0,0.01,0c0.09-0.04,0.17-0.09,0.25-0.14C184.04,25.85,183.54,26.02,183.02,26.09z
			 M181.65,56.43c-0.08-0.01-0.16-0.02-0.24-0.03c-0.21,0.15-0.46,0.28-0.73,0.41c0.33-0.14,0.67-0.25,1.04-0.31
			C181.96,56.45,181.93,56.43,181.65,56.43z"/>
		<path fill="#27AAE1" d="M181.65,56.43c-0.08-0.01-0.16-0.02-0.24-0.03c-0.21,0.15-0.46,0.28-0.73,0.41
			c0.33-0.14,0.67-0.25,1.04-0.31C181.96,56.45,181.93,56.43,181.65,56.43z M183.02,26.09c-0.13,0.01-0.22,0.02-0.29,0.02
			c0.04,0.01,0.13,0.01,0.29,0.01c0.26,0.01,0.5,0.04,0.73,0.08c0.17-0.17,0.27-0.27,0.29-0.29c0.14-0.12,0.22-0.18,0.24-0.18
			c0.01,0,0.01,0,0.01,0c0.09-0.04,0.17-0.09,0.25-0.14C184.04,25.85,183.54,26.02,183.02,26.09z M183.02,26.09
			c-0.13,0.01-0.22,0.02-0.29,0.02c0.04,0.01,0.13,0.01,0.29,0.01c0.26,0.01,0.5,0.04,0.73,0.08c0.17-0.17,0.27-0.27,0.29-0.29
			c0.14-0.12,0.22-0.18,0.24-0.18c0.01,0,0.01,0,0.01,0c0.09-0.04,0.17-0.09,0.25-0.14C184.04,25.85,183.54,26.02,183.02,26.09z
			 M181.65,56.43c-0.08-0.01-0.16-0.02-0.24-0.03c-0.21,0.15-0.46,0.28-0.73,0.41c0.33-0.14,0.67-0.25,1.04-0.31
			C181.96,56.45,181.93,56.43,181.65,56.43z M181.65,56.43c-0.08-0.01-0.16-0.02-0.24-0.03c-0.21,0.15-0.46,0.28-0.73,0.41
			c0.33-0.14,0.67-0.25,1.04-0.31C181.96,56.45,181.93,56.43,181.65,56.43z M183.02,26.09c-0.13,0.01-0.22,0.02-0.29,0.02
			c0.04,0.01,0.13,0.01,0.29,0.01c0.26,0.01,0.5,0.04,0.73,0.08c0.17-0.17,0.27-0.27,0.29-0.29c0.14-0.12,0.22-0.18,0.24-0.18
			c0.01,0,0.01,0,0.01,0c0.09-0.04,0.17-0.09,0.25-0.14C184.04,25.85,183.54,26.02,183.02,26.09z M183.02,26.09
			c-0.13,0.01-0.22,0.02-0.29,0.02c0.04,0.01,0.13,0.01,0.29,0.01c0.26,0.01,0.5,0.04,0.73,0.08c0.17-0.17,0.27-0.27,0.29-0.29
			c0.14-0.12,0.22-0.18,0.24-0.18c0.01,0,0.01,0,0.01,0c0.09-0.04,0.17-0.09,0.25-0.14C184.04,25.85,183.54,26.02,183.02,26.09z
			 M181.65,56.43c-0.08-0.01-0.16-0.02-0.24-0.03c-0.21,0.15-0.46,0.28-0.73,0.41c0.33-0.14,0.67-0.25,1.04-0.31
			C181.96,56.45,181.93,56.43,181.65,56.43z M181.65,56.43c-0.08-0.01-0.16-0.02-0.24-0.03c-0.21,0.15-0.46,0.28-0.73,0.41
			c0.33-0.14,0.67-0.25,1.04-0.31C181.96,56.45,181.93,56.43,181.65,56.43z M183.02,26.09c-0.13,0.01-0.22,0.02-0.29,0.02
			c0.04,0.01,0.13,0.01,0.29,0.01c0.26,0.01,0.5,0.04,0.73,0.08c0.17-0.17,0.27-0.27,0.29-0.29c0.14-0.12,0.22-0.18,0.24-0.18
			c0.01,0,0.01,0,0.01,0c0.09-0.04,0.17-0.09,0.25-0.14C184.04,25.85,183.54,26.02,183.02,26.09z M183.02,26.09
			c-0.13,0.01-0.22,0.02-0.29,0.02c0.04,0.01,0.13,0.01,0.29,0.01c0.26,0.01,0.5,0.04,0.73,0.08c0.17-0.17,0.27-0.27,0.29-0.29
			c0.14-0.12,0.22-0.18,0.24-0.18c0.01,0,0.01,0,0.01,0c0.09-0.04,0.17-0.09,0.25-0.14C184.04,25.85,183.54,26.02,183.02,26.09z
			 M181.65,56.43c-0.08-0.01-0.16-0.02-0.24-0.03c-0.21,0.15-0.46,0.28-0.73,0.41c0.33-0.14,0.67-0.25,1.04-0.31
			C181.96,56.45,181.93,56.43,181.65,56.43z M181.65,56.43c-0.08-0.01-0.16-0.02-0.24-0.03c-0.21,0.15-0.46,0.28-0.73,0.41
			c0.33-0.14,0.67-0.25,1.04-0.31C181.96,56.45,181.93,56.43,181.65,56.43z M183.02,26.09c-0.13,0.01-0.22,0.02-0.29,0.02
			c0.04,0.01,0.13,0.01,0.29,0.01c0.26,0.01,0.5,0.04,0.73,0.08c0.17-0.17,0.27-0.27,0.29-0.29c0.14-0.12,0.22-0.18,0.24-0.18
			c0.01,0,0.01,0,0.01,0c0.09-0.04,0.17-0.09,0.25-0.14C184.04,25.85,183.54,26.02,183.02,26.09z M183.02,26.09
			c-0.13,0.01-0.22,0.02-0.29,0.02c0.04,0.01,0.13,0.01,0.29,0.01c0.26,0.01,0.5,0.04,0.73,0.08c0.17-0.17,0.27-0.27,0.29-0.29
			c0.14-0.12,0.22-0.18,0.24-0.18c0.01,0,0.01,0,0.01,0c0.09-0.04,0.17-0.09,0.25-0.14C184.04,25.85,183.54,26.02,183.02,26.09z
			 M181.65,56.43c-0.08-0.01-0.16-0.02-0.24-0.03c-0.21,0.15-0.46,0.28-0.73,0.41c0.33-0.14,0.67-0.25,1.04-0.31
			C181.96,56.45,181.93,56.43,181.65,56.43z M181.65,56.43c-0.08-0.01-0.16-0.02-0.24-0.03c-0.21,0.15-0.46,0.28-0.73,0.41
			c0.33-0.14,0.67-0.25,1.04-0.31C181.96,56.45,181.93,56.43,181.65,56.43z M183.02,26.09c-0.13,0.01-0.22,0.02-0.29,0.02
			c0.04,0.01,0.13,0.01,0.29,0.01c0.26,0.01,0.5,0.04,0.73,0.08c0.17-0.17,0.27-0.27,0.29-0.29c0.14-0.12,0.22-0.18,0.24-0.18
			c0.01,0,0.01,0,0.01,0c0.09-0.04,0.17-0.09,0.25-0.14C184.04,25.85,183.54,26.02,183.02,26.09z M183.02,26.09
			c-0.13,0.01-0.22,0.02-0.29,0.02c0.04,0.01,0.13,0.01,0.29,0.01c0.26,0.01,0.5,0.04,0.73,0.08c0.17-0.17,0.27-0.27,0.29-0.29
			c0.14-0.12,0.22-0.18,0.24-0.18c0.01,0,0.01,0,0.01,0c0.09-0.04,0.17-0.09,0.25-0.14C184.04,25.85,183.54,26.02,183.02,26.09z
			 M181.65,56.43c-0.08-0.01-0.16-0.02-0.24-0.03c-0.21,0.15-0.46,0.28-0.73,0.41c0.33-0.14,0.67-0.25,1.04-0.31
			C181.96,56.45,181.93,56.43,181.65,56.43z M181.65,56.43c-0.08-0.01-0.16-0.02-0.24-0.03c-0.21,0.15-0.46,0.28-0.73,0.41
			c0.33-0.14,0.67-0.25,1.04-0.31C181.96,56.45,181.93,56.43,181.65,56.43z M183.02,26.09c-0.13,0.01-0.22,0.02-0.29,0.02
			c0.04,0.01,0.13,0.01,0.29,0.01c0.26,0.01,0.5,0.04,0.73,0.08c0.17-0.17,0.27-0.27,0.29-0.29c0.14-0.12,0.22-0.18,0.24-0.18
			c0.01,0,0.01,0,0.01,0c0.09-0.04,0.17-0.09,0.25-0.14C184.04,25.85,183.54,26.02,183.02,26.09z M183.02,26.09
			c-0.13,0.01-0.22,0.02-0.29,0.02c0.04,0.01,0.13,0.01,0.29,0.01c0.26,0.01,0.5,0.04,0.73,0.08c0.17-0.17,0.27-0.27,0.29-0.29
			c0.14-0.12,0.22-0.18,0.24-0.18c0.01,0,0.01,0,0.01,0c0.09-0.04,0.17-0.09,0.25-0.14C184.04,25.85,183.54,26.02,183.02,26.09z
			 M181.65,56.43c-0.08-0.01-0.16-0.02-0.24-0.03c-0.21,0.15-0.46,0.28-0.73,0.41c0.33-0.14,0.67-0.25,1.04-0.31
			C181.96,56.45,181.93,56.43,181.65,56.43z M181.65,56.43c-0.08-0.01-0.16-0.02-0.24-0.03c-0.21,0.15-0.46,0.28-0.73,0.41
			c0.33-0.14,0.67-0.25,1.04-0.31C181.96,56.45,181.93,56.43,181.65,56.43z M183.02,26.09c-0.13,0.01-0.22,0.02-0.29,0.02
			c0.04,0.01,0.13,0.01,0.29,0.01c0.26,0.01,0.5,0.04,0.73,0.08c0.17-0.17,0.27-0.27,0.29-0.29c0.14-0.12,0.22-0.18,0.24-0.18
			c0.01,0,0.01,0,0.01,0c0.09-0.04,0.17-0.09,0.25-0.14C184.04,25.85,183.54,26.02,183.02,26.09z M183.02,26.09
			c-0.13,0.01-0.22,0.02-0.29,0.02c0.04,0.01,0.13,0.01,0.29,0.01c0.26,0.01,0.5,0.04,0.73,0.08c0.17-0.17,0.27-0.27,0.29-0.29
			c0.14-0.12,0.22-0.18,0.24-0.18c0.01,0,0.01,0,0.01,0c0.09-0.04,0.17-0.09,0.25-0.14C184.04,25.85,183.54,26.02,183.02,26.09z
			 M181.65,56.43c-0.08-0.01-0.16-0.02-0.24-0.03c-0.21,0.15-0.46,0.28-0.73,0.41c0.33-0.14,0.67-0.25,1.04-0.31
			C181.96,56.45,181.93,56.43,181.65,56.43z M181.65,56.43c-0.08-0.01-0.16-0.02-0.24-0.03c-0.21,0.15-0.46,0.28-0.73,0.41
			c0.33-0.14,0.67-0.25,1.04-0.31C181.96,56.45,181.93,56.43,181.65,56.43z M183.02,26.09c-0.13,0.01-0.22,0.02-0.29,0.02
			c0.04,0.01,0.13,0.01,0.29,0.01c0.26,0.01,0.5,0.04,0.73,0.08c0.17-0.17,0.27-0.27,0.29-0.29c0.14-0.12,0.22-0.18,0.24-0.18
			c0.01,0,0.01,0,0.01,0c0.09-0.04,0.17-0.09,0.25-0.14C184.04,25.85,183.54,26.02,183.02,26.09z M194.3,33.74
			c0.77-1.26,1.32-2.46,1.68-3.6C195.34,31.22,194.78,32.42,194.3,33.74z M183.02,26.09c-0.13,0.01-0.22,0.02-0.29,0.02
			c0.04,0.01,0.13,0.01,0.29,0.01c0.26,0.01,0.5,0.04,0.73,0.08c0.17-0.17,0.27-0.27,0.29-0.29c0.14-0.12,0.22-0.18,0.24-0.18
			c0.01,0,0.01,0,0.01,0c0.09-0.04,0.17-0.09,0.25-0.14C184.04,25.85,183.54,26.02,183.02,26.09z M181.65,56.43
			c-0.08-0.01-0.16-0.02-0.24-0.03c-0.21,0.15-0.46,0.28-0.73,0.41c0.33-0.14,0.67-0.25,1.04-0.31
			C181.96,56.45,181.93,56.43,181.65,56.43z M171.47,32.67c-0.07,0.57-0.08,1.14-0.03,1.73c0.28-1.38,0.43-2.65,0.44-3.84
			C171.68,31.23,171.55,31.94,171.47,32.67z M169.91,24.12c-0.53-0.54-1.24-0.9-2.15-1.1l2.52,1.5
			C170.16,24.38,170.04,24.25,169.91,24.12z M181.65,56.43c-0.08-0.01-0.16-0.02-0.24-0.03c-0.21,0.15-0.46,0.28-0.73,0.41
			c0.33-0.14,0.67-0.25,1.04-0.31C181.96,56.45,181.93,56.43,181.65,56.43z M183.02,26.09c-0.13,0.01-0.22,0.02-0.29,0.02
			c0.04,0.01,0.13,0.01,0.29,0.01c0.26,0.01,0.5,0.04,0.73,0.08c0.17-0.17,0.27-0.27,0.29-0.29c0.14-0.12,0.22-0.18,0.24-0.18
			c0.01,0,0.01,0,0.01,0c0.09-0.04,0.17-0.09,0.25-0.14C184.04,25.85,183.54,26.02,183.02,26.09z M183.02,26.09
			c-0.13,0.01-0.22,0.02-0.29,0.02c0.04,0.01,0.13,0.01,0.29,0.01c0.26,0.01,0.5,0.04,0.73,0.08c0.17-0.17,0.27-0.27,0.29-0.29
			c0.14-0.12,0.22-0.18,0.24-0.18c0.01,0,0.01,0,0.01,0c0.09-0.04,0.17-0.09,0.25-0.14C184.04,25.85,183.54,26.02,183.02,26.09z
			 M181.65,56.43c-0.08-0.01-0.16-0.02-0.24-0.03c-0.21,0.15-0.46,0.28-0.73,0.41c0.33-0.14,0.67-0.25,1.04-0.31
			C181.96,56.45,181.93,56.43,181.65,56.43z M181.65,56.43c-0.08-0.01-0.16-0.02-0.24-0.03c-0.21,0.15-0.46,0.28-0.73,0.41
			c0.33-0.14,0.67-0.25,1.04-0.31C181.96,56.45,181.93,56.43,181.65,56.43z M183.02,26.09c-0.13,0.01-0.22,0.02-0.29,0.02
			c0.04,0.01,0.13,0.01,0.29,0.01c0.26,0.01,0.5,0.04,0.73,0.08c0.17-0.17,0.27-0.27,0.29-0.29c0.14-0.12,0.22-0.18,0.24-0.18
			c0.01,0,0.01,0,0.01,0c0.09-0.04,0.17-0.09,0.25-0.14C184.04,25.85,183.54,26.02,183.02,26.09z M183.02,26.09
			c-0.13,0.01-0.22,0.02-0.29,0.02c0.04,0.01,0.13,0.01,0.29,0.01c0.26,0.01,0.5,0.04,0.73,0.08c0.17-0.17,0.27-0.27,0.29-0.29
			c0.14-0.12,0.22-0.18,0.24-0.18c0.01,0,0.01,0,0.01,0c0.09-0.04,0.17-0.09,0.25-0.14C184.04,25.85,183.54,26.02,183.02,26.09z
			 M181.65,56.43c-0.08-0.01-0.16-0.02-0.24-0.03c-0.21,0.15-0.46,0.28-0.73,0.41c0.33-0.14,0.67-0.25,1.04-0.31
			C181.96,56.45,181.93,56.43,181.65,56.43z M181.65,56.43c-0.08-0.01-0.16-0.02-0.24-0.03c-0.21,0.15-0.46,0.28-0.73,0.41
			c0.33-0.14,0.67-0.25,1.04-0.31C181.96,56.45,181.93,56.43,181.65,56.43z M183.02,26.09c-0.13,0.01-0.22,0.02-0.29,0.02
			c0.04,0.01,0.13,0.01,0.29,0.01c0.26,0.01,0.5,0.04,0.73,0.08c0.17-0.17,0.27-0.27,0.29-0.29c0.14-0.12,0.22-0.18,0.24-0.18
			c0.01,0,0.01,0,0.01,0c0.09-0.04,0.17-0.09,0.25-0.14C184.04,25.85,183.54,26.02,183.02,26.09z M183.02,26.09
			c-0.13,0.01-0.22,0.02-0.29,0.02c0.04,0.01,0.13,0.01,0.29,0.01c0.26,0.01,0.5,0.04,0.73,0.08c0.17-0.17,0.27-0.27,0.29-0.29
			c0.14-0.12,0.22-0.18,0.24-0.18c0.01,0,0.01,0,0.01,0c0.09-0.04,0.17-0.09,0.25-0.14C184.04,25.85,183.54,26.02,183.02,26.09z
			 M181.65,56.43c-0.08-0.01-0.16-0.02-0.24-0.03c-0.21,0.15-0.46,0.28-0.73,0.41c0.33-0.14,0.67-0.25,1.04-0.31
			C181.96,56.45,181.93,56.43,181.65,56.43z M181.65,56.43c-0.08-0.01-0.16-0.02-0.24-0.03c-0.21,0.15-0.46,0.28-0.73,0.41
			c0.33-0.14,0.67-0.25,1.04-0.31C181.96,56.45,181.93,56.43,181.65,56.43z M183.02,26.09c-0.13,0.01-0.22,0.02-0.29,0.02
			c0.04,0.01,0.13,0.01,0.29,0.01c0.26,0.01,0.5,0.04,0.73,0.08c0.17-0.17,0.27-0.27,0.29-0.29c0.14-0.12,0.22-0.18,0.24-0.18
			c0.01,0,0.01,0,0.01,0c0.09-0.04,0.17-0.09,0.25-0.14C184.04,25.85,183.54,26.02,183.02,26.09z M183.02,26.09
			c-0.13,0.01-0.22,0.02-0.29,0.02c0.04,0.01,0.13,0.01,0.29,0.01c0.26,0.01,0.5,0.04,0.73,0.08c0.17-0.17,0.27-0.27,0.29-0.29
			c0.14-0.12,0.22-0.18,0.24-0.18c0.01,0,0.01,0,0.01,0c0.09-0.04,0.17-0.09,0.25-0.14C184.04,25.85,183.54,26.02,183.02,26.09z
			 M181.65,56.43c-0.08-0.01-0.16-0.02-0.24-0.03c-0.21,0.15-0.46,0.28-0.73,0.41c0.33-0.14,0.67-0.25,1.04-0.31
			C181.96,56.45,181.93,56.43,181.65,56.43z M181.65,56.43c-0.08-0.01-0.16-0.02-0.24-0.03c-0.21,0.15-0.46,0.28-0.73,0.41
			c0.33-0.14,0.67-0.25,1.04-0.31C181.96,56.45,181.93,56.43,181.65,56.43z M183.02,26.09c-0.13,0.01-0.22,0.02-0.29,0.02
			c0.04,0.01,0.13,0.01,0.29,0.01c0.26,0.01,0.5,0.04,0.73,0.08c0.17-0.17,0.27-0.27,0.29-0.29c0.14-0.12,0.22-0.18,0.24-0.18
			c0.01,0,0.01,0,0.01,0c0.09-0.04,0.17-0.09,0.25-0.14C184.04,25.85,183.54,26.02,183.02,26.09z M183.02,26.09
			c-0.13,0.01-0.22,0.02-0.29,0.02c0.04,0.01,0.13,0.01,0.29,0.01c0.26,0.01,0.5,0.04,0.73,0.08c0.17-0.17,0.27-0.27,0.29-0.29
			c0.14-0.12,0.22-0.18,0.24-0.18c0.01,0,0.01,0,0.01,0c0.09-0.04,0.17-0.09,0.25-0.14C184.04,25.85,183.54,26.02,183.02,26.09z
			 M181.65,56.43c-0.08-0.01-0.16-0.02-0.24-0.03c-0.21,0.15-0.46,0.28-0.73,0.41c0.33-0.14,0.67-0.25,1.04-0.31
			C181.96,56.45,181.93,56.43,181.65,56.43z M181.65,56.43c-0.08-0.01-0.16-0.02-0.24-0.03c-0.21,0.15-0.46,0.28-0.73,0.41
			c0.33-0.14,0.67-0.25,1.04-0.31C181.96,56.45,181.93,56.43,181.65,56.43z M183.02,26.09c-0.13,0.01-0.22,0.02-0.29,0.02
			c0.04,0.01,0.13,0.01,0.29,0.01c0.26,0.01,0.5,0.04,0.73,0.08c0.17-0.17,0.27-0.27,0.29-0.29c0.14-0.12,0.22-0.18,0.24-0.18
			c0.01,0,0.01,0,0.01,0c0.09-0.04,0.17-0.09,0.25-0.14C184.04,25.85,183.54,26.02,183.02,26.09z M183.02,26.09
			c-0.13,0.01-0.22,0.02-0.29,0.02c0.04,0.01,0.13,0.01,0.29,0.01c0.26,0.01,0.5,0.04,0.73,0.08c0.17-0.17,0.27-0.27,0.29-0.29
			c0.14-0.12,0.22-0.18,0.24-0.18c0.01,0,0.01,0,0.01,0c0.09-0.04,0.17-0.09,0.25-0.14C184.04,25.85,183.54,26.02,183.02,26.09z
			 M181.65,56.43c-0.08-0.01-0.16-0.02-0.24-0.03c-0.21,0.15-0.46,0.28-0.73,0.41c0.33-0.14,0.67-0.25,1.04-0.31
			C181.96,56.45,181.93,56.43,181.65,56.43z M181.65,56.43c-0.08-0.01-0.16-0.02-0.24-0.03c-0.21,0.15-0.46,0.28-0.73,0.41
			c0.33-0.14,0.67-0.25,1.04-0.31C181.96,56.45,181.93,56.43,181.65,56.43z M183.02,26.09c-0.13,0.01-0.22,0.02-0.29,0.02
			c0.04,0.01,0.13,0.01,0.29,0.01c0.26,0.01,0.5,0.04,0.73,0.08c0.17-0.17,0.27-0.27,0.29-0.29c0.14-0.12,0.22-0.18,0.24-0.18
			c0.01,0,0.01,0,0.01,0c0.09-0.04,0.17-0.09,0.25-0.14C184.04,25.85,183.54,26.02,183.02,26.09z M183.02,26.09
			c-0.13,0.01-0.22,0.02-0.29,0.02c0.04,0.01,0.13,0.01,0.29,0.01c0.26,0.01,0.5,0.04,0.73,0.08c0.17-0.17,0.27-0.27,0.29-0.29
			c0.14-0.12,0.22-0.18,0.24-0.18c0.01,0,0.01,0,0.01,0c0.09-0.04,0.17-0.09,0.25-0.14C184.04,25.85,183.54,26.02,183.02,26.09z
			 M181.65,56.43c-0.08-0.01-0.16-0.02-0.24-0.03c-0.21,0.15-0.46,0.28-0.73,0.41c0.33-0.14,0.67-0.25,1.04-0.31
			C181.96,56.45,181.93,56.43,181.65,56.43z M181.65,56.43c-0.08-0.01-0.16-0.02-0.24-0.03c-0.21,0.15-0.46,0.28-0.73,0.41
			c0.33-0.14,0.67-0.25,1.04-0.31C181.96,56.45,181.93,56.43,181.65,56.43z M183.02,26.09c-0.13,0.01-0.22,0.02-0.29,0.02
			c0.04,0.01,0.13,0.01,0.29,0.01c0.26,0.01,0.5,0.04,0.73,0.08c0.17-0.17,0.27-0.27,0.29-0.29c0.14-0.12,0.22-0.18,0.24-0.18
			c0.01,0,0.01,0,0.01,0c0.09-0.04,0.17-0.09,0.25-0.14C184.04,25.85,183.54,26.02,183.02,26.09z M183.02,26.09
			c-0.13,0.01-0.22,0.02-0.29,0.02c0.04,0.01,0.13,0.01,0.29,0.01c0.26,0.01,0.5,0.04,0.73,0.08c0.17-0.17,0.27-0.27,0.29-0.29
			c0.14-0.12,0.22-0.18,0.24-0.18c0.01,0,0.01,0,0.01,0c0.09-0.04,0.17-0.09,0.25-0.14C184.04,25.85,183.54,26.02,183.02,26.09z
			 M181.65,56.43c-0.08-0.01-0.16-0.02-0.24-0.03c-0.21,0.15-0.46,0.28-0.73,0.41c0.33-0.14,0.67-0.25,1.04-0.31
			C181.96,56.45,181.93,56.43,181.65,56.43z M183.02,26.09c-0.13,0.01-0.22,0.02-0.29,0.02c0.04,0.01,0.13,0.01,0.29,0.01
			c0.26,0.01,0.5,0.04,0.73,0.08c0.17-0.17,0.27-0.27,0.29-0.29c0.14-0.12,0.22-0.18,0.24-0.18c0.01,0,0.01,0,0.01,0
			c0.09-0.04,0.17-0.09,0.25-0.14C184.04,25.85,183.54,26.02,183.02,26.09z M181.65,56.43c-0.08-0.01-0.16-0.02-0.24-0.03
			c-0.21,0.15-0.46,0.28-0.73,0.41c0.33-0.14,0.67-0.25,1.04-0.31C181.96,56.45,181.93,56.43,181.65,56.43z"/>
		<path fill="#093333" d="M193.92,27c0.04,0.69-0.06,1.42-0.28,2.2c-0.59,1.06-1.12,2.2-1.59,3.43c-0.25,0.41-0.53,0.83-0.84,1.26
			c-0.49,0.67-1.38,1.22-2.69,1.62c-0.51,0.16-1.09,0.3-1.73,0.42c-0.33,0.06-0.72,0.09-1.16,0.09c-0.22,0-0.46,0-0.71-0.02
			c-1.08-0.05-1.45-0.3-1.12-0.77c2.32-3.26,3.1-5.66,2.35-7.21c-0.47-1-1.27-1.6-2.4-1.82c0.17-0.17,0.27-0.27,0.29-0.29
			c0.14-0.12,0.22-0.18,0.24-0.18c0.01,0,0.01,0,0.01,0c0.09-0.04,0.17-0.09,0.25-0.14c-0.5,0.26-1,0.43-1.52,0.5
			c-0.13,0.01-0.22,0.02-0.29,0.02c0.04,0.01,0.13,0.01,0.29,0.01c0.26,0.01,0.5,0.04,0.73,0.08c-0.01,0.01-0.02,0.02-0.02,0.03
			c-1.76,1.68-2.52,3.74-2.29,6.15c0.16,1.66,1.02,3.56,2.57,5.69c1.46,2,2.54,3.49,3.27,4.46c0,0,0,0,0,0.01
			c0.67,0.92,1.02,1.38,1.02,1.38c0.48,0.71,0.88,1.35,1.23,1.99c0,0.02-0.01,0.03,0,0.04c0.85,1.59,1.32,2.96,1.4,4.11
			c0.08,1.28-0.16,2.42-0.71,3.43c0,0.01,0,0.01,0,0.01c-0.44,0.82-1.08,1.56-1.93,2.21c-0.03,0.03-0.07,0.05-0.1,0.08
			c-3.27,2.46-6.65,3.69-10.14,3.69c-0.33,0-0.67-0.01-1-0.03c-3.12-0.21-5.46-1.3-7.03-3.27c-0.11-0.14-0.22-0.28-0.32-0.43
			c-0.64-0.93-0.98-1.9-1.02-2.92c-0.06-1.15,0.29-2.36,1.02-3.61c0.16-0.28,0.41-0.53,0.74-0.76c0.61-0.42,1.5-0.77,2.68-1.05
			c0.31-0.07,0.65-0.14,1.01-0.2c0.47-0.09,0.98-0.14,1.53-0.14h0.33c1.03,0.05,1.41,0.32,1.13,0.81c-0.73,1.25-0.99,2.5-0.78,3.76
			c0.21,1.32,0.89,2.41,2.04,3.27c1.12,0.86,2.13,1.36,3.03,1.49c-0.21,0.15-0.46,0.28-0.73,0.41c0.33-0.14,0.67-0.25,1.04-0.31
			c0.24-0.05,0.21-0.07-0.07-0.07c-0.08-0.01-0.16-0.02-0.24-0.03c0.09-0.06,0.17-0.12,0.24-0.19c2.67-2.34,2.1-6.18-1.72-11.53
			c-0.28-0.39-0.96-1.26-2.04-2.6c-0.89-1.15-1.58-2.08-2.07-2.81c-0.11-0.17-0.22-0.34-0.32-0.51v-0.01
			c-0.88-1.46-1.4-2.85-1.55-4.16c0,0,0,0,0-0.01c0.25-1.28,0.4-2.49,0.43-3.63c0.44-1.42,1.21-2.68,2.29-3.78
			c0.59-0.61,1.28-1.17,2.06-1.68c2.43-1.61,5.15-2.41,8.16-2.41c0.25,0,0.49,0.01,0.74,0.02c1.55,0.07,2.87,0.36,3.97,0.88
			c0.73,0.33,1.29,0.74,1.67,1.23C193.68,25.72,193.89,26.32,193.92,27z"/>
	</g>
	<g>
		<path fill="#093333" d="M194.3,33.74c0.77-1.26,1.32-2.46,1.68-3.6C195.34,31.22,194.78,32.42,194.3,33.74z M192.05,32.63
			c0.77-1.23,1.3-2.37,1.59-3.43C193.05,30.26,192.52,31.4,192.05,32.63z"/>
		<path fill="none" d="M194.3,33.74c0.77-1.26,1.32-2.46,1.68-3.6C195.34,31.22,194.78,32.42,194.3,33.74z M192.05,32.63
			c0.77-1.23,1.3-2.37,1.59-3.43C193.05,30.26,192.52,31.4,192.05,32.63z M194.3,33.74c0.77-1.26,1.32-2.46,1.68-3.6
			C195.34,31.22,194.78,32.42,194.3,33.74z M192.05,32.63c0.77-1.23,1.3-2.37,1.59-3.43C193.05,30.26,192.52,31.4,192.05,32.63z
			 M194.3,33.74c0.77-1.26,1.32-2.46,1.68-3.6C195.34,31.22,194.78,32.42,194.3,33.74z M192.05,32.63c0.77-1.23,1.3-2.37,1.59-3.43
			C193.05,30.26,192.52,31.4,192.05,32.63z M194.3,33.74c0.77-1.26,1.32-2.46,1.68-3.6C195.34,31.22,194.78,32.42,194.3,33.74z
			 M192.05,32.63c0.77-1.23,1.3-2.37,1.59-3.43C193.05,30.26,192.52,31.4,192.05,32.63z M194.3,33.74c0.77-1.26,1.32-2.46,1.68-3.6
			C195.34,31.22,194.78,32.42,194.3,33.74z M192.05,32.63c0.77-1.23,1.3-2.37,1.59-3.43C193.05,30.26,192.52,31.4,192.05,32.63z
			 M194.3,33.74c0.77-1.26,1.32-2.46,1.68-3.6C195.34,31.22,194.78,32.42,194.3,33.74z M192.05,32.63c0.77-1.23,1.3-2.37,1.59-3.43
			C193.05,30.26,192.52,31.4,192.05,32.63z M194.3,33.74c0.77-1.26,1.32-2.46,1.68-3.6C195.34,31.22,194.78,32.42,194.3,33.74z
			 M194.3,33.74c0.77-1.26,1.32-2.46,1.68-3.6C195.34,31.22,194.78,32.42,194.3,33.74z M192.05,32.63c0.77-1.23,1.3-2.37,1.59-3.43
			C193.05,30.26,192.52,31.4,192.05,32.63z M194.3,33.74c0.77-1.26,1.32-2.46,1.68-3.6C195.34,31.22,194.78,32.42,194.3,33.74z
			 M192.05,32.63c0.77-1.23,1.3-2.37,1.59-3.43C193.05,30.26,192.52,31.4,192.05,32.63z M194.3,33.74c0.77-1.26,1.32-2.46,1.68-3.6
			C195.34,31.22,194.78,32.42,194.3,33.74z M192.05,32.63c0.77-1.23,1.3-2.37,1.59-3.43C193.05,30.26,192.52,31.4,192.05,32.63z
			 M194.3,33.74c0.77-1.26,1.32-2.46,1.68-3.6C195.34,31.22,194.78,32.42,194.3,33.74z M192.05,32.63c0.77-1.23,1.3-2.37,1.59-3.43
			C193.05,30.26,192.52,31.4,192.05,32.63z M194.3,33.74c0.77-1.26,1.32-2.46,1.68-3.6C195.34,31.22,194.78,32.42,194.3,33.74z
			 M192.05,32.63c0.77-1.23,1.3-2.37,1.59-3.43C193.05,30.26,192.52,31.4,192.05,32.63z"/>
		<path fill="#093333" d="M218.57,29.53c0,0.1-0.011,0.2-0.021,0.3c-0.13,2.2-0.97,4.16-2.51,5.89c-0.01,0.01-0.021,0.02-0.03,0.03
			c-0.6,0.68-1.6,1.17-3,1.47H213c-0.59,0.13-1.25,0.23-1.99,0.29c-0.189,0.02-0.37,0.02-0.54,0.02c-0.41,0-0.76-0.04-1.04-0.12
			c-0.59-0.19-0.649-0.55-0.18-1.09c1.24-1.41,1.86-3.05,1.86-4.93c0-2.53-0.71-4.43-2.141-5.69c-0.489-0.45-0.96-0.76-1.41-0.95
			c-0.16-0.07-0.3-0.13-0.42-0.18h-0.03l-0.04,0.04c-1.64,1.08-3.07,2.84-4.29,5.27c-1.15,2.37-1.99,4.96-2.53,7.77
			c-0.52,2.72-0.74,5.4-0.67,8.05c0.1,3.36,0.56,5.9,1.41,7.63c0.49,1.03,1.05,1.76,1.69,2.18c0.21-0.19,0.37-0.34,0.49-0.46
			c0.72-0.77,1.42-1.71,2.07-2.81c0.56-0.91,2.03-1.58,4.399-2c0.46-0.1,0.96-0.15,1.5-0.15h0.03c0.11,0,0.22,0,0.33,0.01
			c1.05,0.05,1.43,0.31,1.12,0.81c-0.47,0.78-0.97,1.5-1.5,2.17c-1.94,2.43-4.32,4.1-7.11,5c-1.8,0.59-3.39,0.88-4.76,0.88
			c-2.27,0-3.95-0.8-5.05-2.4c-0.15-0.22-0.29-0.45-0.42-0.7c-0.35-0.67-0.65-1.4-0.89-2.19c-0.72-2.27-1-5.02-0.83-8.26
			c0.06-1.32,0.21-2.73,0.43-4.22c0.04-0.29,0.08-0.58,0.13-0.87c0.07-0.44,0.15-0.88,0.23-1.3c0.37-1.92,0.85-3.67,1.44-5.25
			c0-0.01,0.01-0.02,0.01-0.03c0.77-1.26,1.32-2.46,1.68-3.6c0-0.01,0-0.01,0-0.01c0.84-1.44,1.81-2.68,2.91-3.72V26.4
			c0.12-0.12,0.25-0.24,0.38-0.35c2.57-2.32,5.69-3.78,9.35-4.39c3.42-0.54,5.13-0.81,5.13-0.81s0.82,0.82,2.46,2.46
			c0.771,0.79,1.35,1.65,1.74,2.6C218.41,27.01,218.62,28.21,218.57,29.53z"/>
	</g>
	<g>
		<path fill="none" d="M231.4,25.35c0,0.02-0.011,0.03-0.04,0.03 M230.34,26.3c-0.02,0.01-0.03,0.02-0.03,0.02"/>
		<path fill="#093333" d="M240.05,28.97c-0.08-1.14-0.3-2.14-0.68-2.99c-0.311-0.73-0.73-1.35-1.26-1.86
			c-0.851-0.86-2.181-1.28-3.99-1.28c-0.86,0-1.84,0.09-2.93,0.29c-3.12,0.57-5.601,1.76-7.46,3.59c-0.11,0.11-0.221,0.22-0.32,0.33
			c-0.87,0.93-1.67,2.09-2.42,3.5v0.01c-0.23,0.43-0.45,0.88-0.67,1.36c-0.771,1.36-1.471,3.03-2.051,5.02
			c-0.01,0.01-0.01,0.01-0.01,0.02c-0.359,1.22-0.689,2.56-0.979,4.02c-0.2,0.96-0.38,1.98-0.54,3.04
			c-0.15,1.06-0.28,2.07-0.37,3.04c-0.2,1.87-0.28,3.58-0.26,5.15c0,0.83,0.05,1.58,0.17,2.26c0.399,2.51,1.56,4.01,3.479,4.49
			c0.471,0.11,0.99,0.17,1.57,0.17c1.39,0,3.09-0.34,5.11-1.02c1.71-0.56,3.359-1.5,4.96-2.81c0.84-0.69,1.569-1.42,2.199-2.18
			c1.45-1.74,2.36-3.67,2.721-5.8c0.1-0.58-0.351-0.88-1.34-0.88h-0.171c-0.409,0.02-0.899,0.07-1.479,0.18
			c-1.05,0.19-2,0.48-2.85,0.88c-0.98,0.47-1.5,0.85-1.54,1.16c-0.33,1.92-1.221,3.79-2.671,5.62c-0.329,0.4-0.75,0.82-1.27,1.27
			c-0.45-0.4-0.81-1.14-1.09-2.22c-0.3-1.17-0.4-3.04-0.28-5.62c0.14-2.32,0.4-4.42,0.771-6.3c1.06-0.11,2.5-0.17,4.33-0.17
			c1.18,0.01,2.13,0.02,2.85,0.02s1.21-0.01,1.47-0.02c0.8-0.02,1.771-0.24,2.92-0.63c0.061-0.02,0.12-0.05,0.181-0.07h0.01
			c1.31-0.52,2.05-1,2.2-1.45C239.72,35.11,240.28,31.73,240.05,28.97z M231.61,38.43c-2.721,0.07-4.971,0.23-6.75,0.49
			c0.279-1.34,0.569-2.6,0.88-3.8c0.68-1.76,1.47-3.58,2.39-5.48c0.44-0.87,0.95-1.7,1.51-2.5c0.19-0.28,0.42-0.56,0.7-0.84
			c0.021-0.04,0.061-0.07,0.11-0.11c0.09,0.05,0.21,0.12,0.35,0.21c0.94,0.71,1.51,2.15,1.72,4.33
			C232.78,32.62,232.48,35.19,231.61,38.43z"/>
		<path fill="#F1F2F2" d="M231.61,38.43c-2.721,0.07-4.971,0.23-6.75,0.49c0.279-1.34,0.569-2.6,0.88-3.8
			c0.68-1.76,1.47-3.58,2.39-5.48c0.44-0.87,0.95-1.7,1.51-2.5c0.19-0.28,0.42-0.56,0.7-0.84c0.021-0.04,0.061-0.07,0.11-0.11
			c0.09,0.05,0.21,0.12,0.35,0.21c0.94,0.71,1.51,2.15,1.72,4.33C232.78,32.62,232.48,35.19,231.61,38.43z"/>
	</g>
	<g>
		<path fill="#093333" d="M240.36,44.01c0.029,0.04,0.06,0.08,0.08,0.13c0.02-0.07,0.04-0.15,0.05-0.22
			C240.45,43.95,240.4,43.98,240.36,44.01z"/>
		<path fill="#27AAE1" d="M240.36,44.01c0.029,0.04,0.06,0.08,0.08,0.13c0.02-0.07,0.04-0.15,0.05-0.22
			C240.45,43.95,240.4,43.98,240.36,44.01z M240.36,44.01c0.029,0.04,0.06,0.08,0.08,0.13c0.02-0.07,0.04-0.15,0.05-0.22
			C240.45,43.95,240.4,43.98,240.36,44.01z M240.36,44.01c0.029,0.04,0.06,0.08,0.08,0.13c0.02-0.07,0.04-0.15,0.05-0.22
			C240.45,43.95,240.4,43.98,240.36,44.01z M240.36,44.01c0.029,0.04,0.06,0.08,0.08,0.13c0.02-0.07,0.04-0.15,0.05-0.22
			C240.45,43.95,240.4,43.98,240.36,44.01z"/>
		<path fill="#093333" d="M266.59,34.84c-0.16,2.62-0.6,5.92-1.3,9.88c-0.55,3.09-1.07,5.9-1.56,8.43
			c-0.33,1.71-0.641,3.29-0.94,4.73c-0.78,3.9-1.45,6.83-2,8.81c-0.07,0.31-0.59,0.68-1.55,1.13c-0.86,0.39-1.811,0.69-2.851,0.88
			c-0.729,0.13-1.33,0.2-1.81,0.2c-0.96,0-1.37-0.29-1.21-0.87c1.06-3.8,2.53-10.99,4.43-21.59c1.36-7.59,1.681-12.99,0.95-16.21
			c-0.52,0.5-0.98,1-1.41,1.52c-1.66,2.01-3.34,4.71-5.02,8.08c-1.62,3.24-3.91,8.9-6.86,16.98c-0.26,0.75-1.58,1.37-3.97,1.87
			c-1.061,0.23-1.88,0.34-2.46,0.34c-0.71,0-1.05-0.17-1.021-0.52c0.07-1.04,0.19-2.16,0.351-3.37v-0.01
			c0.42-3.11,1.109-6.77,2.08-10.98c0.02-0.07,0.04-0.15,0.05-0.22c0.149-0.65,0.31-1.31,0.47-1.98c1.92-7.97,3.11-13.44,3.55-16.42
			c0.12-0.84,1.271-1.56,3.45-2.14c0.58-0.16,1.31-0.28,2.18-0.35c0.28-0.03,0.53-0.04,0.761-0.04c0.79,0,1.17,0.16,1.14,0.49
			c-0.4,2.61-1,5.68-1.8,9.22c0.59-0.73,1.2-1.4,1.83-2.01c2.81-2.69,6.279-4.43,10.41-5.2c0.67-0.13,1.239-0.2,1.689-0.2
			c0.771,0,1.22,0.18,1.37,0.55c0.11,0.26,0.2,0.54,0.29,0.82c0.37,1.13,0.61,2.41,0.72,3.85
			C266.67,31.82,266.68,33.27,266.59,34.84z"/>
	</g>
	<g>
		<path fill="#093333" d="M313.66,29.45c-0.01-0.16-0.021-0.32-0.03-0.48c-0.05-0.78-0.17-1.49-0.36-2.14
			c-0.329-1.1-0.85-2-1.569-2.71c-0.271-0.27-0.59-0.5-0.96-0.68c-0.66-0.34-1.471-0.53-2.44-0.58c-0.189-0.01-0.39-0.02-0.59-0.02
			c-0.87,0-1.85,0.09-2.94,0.29c-3.119,0.57-5.6,1.76-7.449,3.59c-0.11,0.11-0.221,0.22-0.32,0.33c-0.88,0.93-1.68,2.09-2.42,3.5
			v0.01c-0.24,0.43-0.46,0.88-0.67,1.36c-0.78,1.36-1.47,3.03-2.07,5.03v0.01c-0.359,1.22-0.689,2.56-0.979,4.02
			c-0.2,0.96-0.38,1.98-0.54,3.04c-0.15,1.05-0.271,2.06-0.37,3.03c-0.19,1.87-0.28,3.59-0.26,5.16c0,0.83,0.06,1.58,0.17,2.26
			c0.399,2.51,1.569,4.01,3.479,4.49c0.47,0.11,0.99,0.17,1.57,0.17c1.39,0,3.09-0.34,5.109-1.02c1.711-0.56,3.37-1.5,4.961-2.81
			c2.77-2.27,4.409-4.93,4.92-7.98c0.1-0.58-0.351-0.88-1.341-0.88c-0.439,0-0.989,0.06-1.649,0.18c-1.05,0.19-2,0.48-2.84,0.88
			c-0.99,0.47-1.5,0.85-1.551,1.16c-0.329,1.92-1.22,3.79-2.67,5.62c-0.33,0.4-0.75,0.82-1.27,1.27c-0.44-0.4-0.811-1.14-1.09-2.22
			c-0.3-1.17-0.4-3.04-0.28-5.62c0.14-2.32,0.4-4.42,0.771-6.3c1.06-0.11,2.5-0.17,4.329-0.17c1.181,0.01,2.131,0.02,2.86,0.02
			c0.72,0,1.21-0.01,1.46-0.02c0.8-0.02,1.771-0.24,2.92-0.63c1.431-0.54,2.23-1.05,2.391-1.52
			C313.22,35.34,313.79,32.12,313.66,29.45z M305.19,38.43c-2.721,0.07-4.971,0.23-6.75,0.49c0.279-1.34,0.579-2.6,0.88-3.8
			c0.68-1.76,1.479-3.58,2.39-5.48c0.45-0.87,0.95-1.7,1.51-2.5c0.19-0.28,0.42-0.56,0.71-0.84c-0.01,0-0.02,0.01-0.029,0.01
			c0.02-0.02,0.06-0.06,0.13-0.12c0.09,0.05,0.21,0.12,0.35,0.21c0.94,0.71,1.51,2.15,1.73,4.33
			C306.36,32.62,306.06,35.19,305.19,38.43z"/>
		<path fill="none" d="M281.36,24.19l0.01-0.01c0,0,0.01-0.02,0.02-0.03"/>
		<path fill="#F1F2F2" d="M369.39,28.29l0.021-0.02l0.01-0.02c1.78-2.84,3.17-5.78,4.13-8.73c1.53-4.7,1.42-8.65-0.31-11.76
			c-2.05-3.64-5.74-5.62-10.4-5.62c-0.939,0-1.939,0.07-2.97,0.23c-4.75,0.68-8.86,2.63-12.17,5.79c-0.69,0.65-1.32,1.34-1.87,2.06
			c-0.83-1.02-2.37-2.19-5.11-2.19c-0.2,0-0.41,0.01-0.64,0.02c-1.1,0.07-2.2,0.25-3.32,0.54l-0.05,0.01l-0.05,0.01
			c-0.36,0.1-1,0.3-2.811,0.92c-0.92,0.3-1.33,0.41-1.46,0.44c-0.88,0.12-1.699,0.27-2.46,0.47c-0.26-1.36-0.729-2.67-1.399-3.94
			l-0.03-0.05l-0.02-0.05c-1.141-2.05-3.28-3.23-5.881-3.23c-1.26,0-2.699,0.27-4.409,0.83c-1.33,0.44-2.471,0.95-3.46,1.58
			c-3.841,2.38-3.461,5.85-2.62,7.52l0.029,0.07l0.04,0.06c0.54,1.01,0.65,1.96,0.351,3.09c-0.2,0.76-0.53,1.43-1.021,2.05
			c-1.14-0.35-2.41-0.53-3.8-0.53c-1.17,0-2.46,0.12-3.83,0.37c-3.45,0.62-6.39,1.9-8.77,3.79c-0.49-0.77-1.07-1.5-1.73-2.18
			l-0.03-0.02l-0.02-0.03l-2.46-2.46l-1.8-1.8l-2.521,0.4l-5.13,0.81c-4.64,0.77-8.63,2.66-11.92,5.61
			c-0.07,0.06-0.14,0.12-0.2,0.19c-0.859-1.06-2.43-2.23-5.13-2.23c-0.78,0-1.65,0.1-2.65,0.29c-1.64,0.31-3.22,0.75-4.71,1.32
			c-0.22-0.73-0.6-1.42-1.13-2c-1.13-1.27-2.739-1.91-4.779-1.91c-0.381,0-0.771,0.02-1.21,0.06c-1.15,0.09-2.171,0.26-3.08,0.51
			c-0.931,0.25-3.061,0.82-4.75,2.23c-0.08-0.08-0.15-0.15-0.23-0.23c-1.82-1.81-4.35-2.72-7.51-2.72c-1.16,0-2.45,0.12-3.83,0.37
			c-3.44,0.62-6.38,1.89-8.76,3.79c-0.5-0.77-1.08-1.5-1.74-2.18l-0.021-0.02l-0.02-0.03l-2.46-2.46l-1.8-1.8l-2.521,0.4l-5.13,0.81
			c-4.25,0.7-7.95,2.35-11.07,4.89c-0.82-0.88-1.85-1.62-3.08-2.18c-1.69-0.78-3.65-1.23-5.83-1.33c-0.34-0.01-0.65-0.02-0.97-0.02
			c-3.99,0-7.66,1.09-10.91,3.24c-0.33,0.21-0.65,0.44-0.96,0.67l-0.35,0.04c-0.37-0.53-0.78-1.02-1.24-1.47
			c-1.82-1.81-4.35-2.72-7.51-2.72c-1.16,0-2.45,0.12-3.83,0.37c-2.14,0.39-4.09,1.02-5.82,1.91c1.27-5.9,2.24-9.98,2.92-12.2
			c0.53-1.77,0.22-3.58-0.83-4.99c-0.8-1.07-2.35-2.35-5.19-2.35c-0.76,0-1.62,0.08-2.62,0.26c-1.48,0.27-2.86,0.69-4.1,1.26
			l-0.05,0.02l-0.05,0.03c-0.92,0.45-3.34,1.63-4.12,4.22c-1.01,3.33-1.98,6.94-2.9,10.77c-3.05,0.37-5.95,1.34-8.65,2.89
			c-1.42,0.81-2.74,1.82-3.95,3.05c-0.73-1.15-2.34-2.79-5.54-2.79c-0.78,0-1.65,0.1-2.65,0.29c-1.65,0.31-3.22,0.75-4.71,1.32
			c-0.22-0.73-0.6-1.42-1.13-2c-1.13-1.27-2.74-1.91-4.78-1.91c-0.38,0-0.77,0.02-1.21,0.06c-1.15,0.09-2.17,0.26-3.08,0.51
			c-1.05,0.28-3.61,0.97-5.35,2.78c-1.02-1.44-2.3-2.22-3.23-2.64c-1.41-0.61-2.95-0.92-4.61-0.92c-2.28,0-4.76,0.56-7.59,1.7
			c-2.32,0.92-4.39,2.04-6.21,3.34c-0.59-1.08-1.33-2.08-2.22-3L74.4,19.8l-0.02-0.03l-2.46-2.46l-1.8-1.8l-2.52,0.4l-5.13,0.81
			c-4.64,0.77-8.64,2.66-11.92,5.61c-0.07,0.06-0.14,0.12-0.2,0.19c-0.86-1.06-2.43-2.23-5.13-2.23c-0.78,0-1.65,0.1-2.65,0.29
			c-1.65,0.31-3.22,0.75-4.72,1.32c-0.22-0.73-0.6-1.42-1.12-2c-1.13-1.27-2.74-1.91-4.79-1.91c-0.37,0-0.76,0.02-1.2,0.06
			c-1.16,0.09-2.18,0.26-3.08,0.51c-0.35,0.09-0.87,0.23-1.47,0.45c0.3-1.42,0.55-2.61,0.77-3.57c0.37-1.74-0.03-3.47-1.09-4.78
			c-0.81-1.01-2.35-2.21-5.09-2.21c-0.76,0-1.62,0.09-2.62,0.27c-1.46,0.27-2.84,0.71-4.09,1.32c-1.12,0.51-3.63,1.71-4.28,4.51
			c-0.86,3.81-2.36,11.24-4.47,22.12c-0.81,4.21-1.55,7.87-2.19,10.87c-2.09,9.92-2.12,10.44-2.15,10.98v0.26
			c0,1.82,1.24,5.27,5.92,5.45c0.23,0.02,0.46,0.02,0.7,0.02c0.95,0,1.98-0.1,3.06-0.32c2.08-0.42,3.63-1.06,4.78-1.8
			c0.01,0.02,0.03,0.04,0.05,0.06c0.77,0.84,2.2,1.83,4.59,1.83c0.95,0,2.06-0.14,3.49-0.45c1.91-0.4,6.31-1.32,7.64-5.07
			c0.2-0.54,0.39-1.06,0.58-1.58c-0.87,4.4-1.61,7.67-2.19,9.77c-0.48,1.76-0.14,3.54,0.92,4.92c0.8,1.05,2.33,2.29,5.11,2.29
			c0.79,0,1.68-0.091,2.73-0.29c1.42-0.261,2.78-0.681,4.02-1.25c1.09-0.511,3.58-1.66,4.29-4.39c0.39-1.41,0.83-3.24,1.32-5.5
			c1.67,0.97,3.67,1.49,5.89,1.49c1.92,0,3.98-0.37,6.31-1.13c2.64-0.85,4.99-2.21,7.05-4.06c0.69,0.96,1.53,1.76,2.51,2.4
			c1.35,0.89,3,1.32,5.05,1.32c0.8,0,1.66-0.07,2.62-0.2c1.03-0.15,2.02-0.38,2.98-0.7c0.03,0.03,0.05,0.06,0.08,0.09
			c1.56,1.84,3.83,1.98,4.58,2.02l0.07,0.01h0.48c1,0,2.06-0.11,3.24-0.34c1.14-0.21,2.12-0.5,2.96-0.83
			c0.82,0.74,2.17,1.48,4.24,1.48c0.95,0,2.06-0.14,3.49-0.45c1.92-0.4,6.31-1.32,7.65-5.07c0.19-0.54,0.39-1.06,0.58-1.58
			c-0.88,4.4-1.61,7.67-2.2,9.77c-0.47,1.76-0.14,3.54,0.92,4.92c0.8,1.05,2.34,2.29,5.11,2.29c0.79,0,1.69-0.091,2.74-0.29
			c1.41-0.261,2.77-0.681,4.01-1.25c1.09-0.511,3.58-1.66,4.29-4.39c0.41-1.47,0.88-3.4,1.4-5.8c0.56,0.41,1.15,0.77,1.78,1.09
			c1.95,1.02,4.12,1.54,6.44,1.54c2.22,0,4.6-0.49,7.07-1.46c0.33-0.04,0.68-0.09,1.07-0.15l0.05-0.01l0.05-0.01
			c1.44-0.26,2.8-0.68,4.04-1.25l0.05-0.03l0.06-0.02c0.31-0.15,0.75-0.37,1.23-0.67c1.56,1.66,3.37,2.34,4.47,2.61
			c0.86,0.21,1.79,0.32,2.77,0.32c1.96,0,4.15-0.42,6.71-1.28c2.19-0.71,4.32-1.9,6.31-3.51c1.71,2.12,4.93,4.71,10.57,5.1
			c0.45,0.03,0.9,0.04,1.34,0.04c4.38,0,8.62-1.45,12.61-4.31c2.03,2.46,5.01,3.79,8.59,3.79c1.92,0,3.98-0.37,6.31-1.13
			c2.58-0.83,4.9-2.15,6.92-3.94c1.699,3.39,4.56,4.54,6.069,4.92c0.86,0.21,1.79,0.32,2.78,0.32c1.95,0,4.14-0.42,6.71-1.28
			c1.79-0.59,3.55-1.49,5.229-2.69c0.23,0.75,0.631,1.45,1.171,2.03c0.77,0.84,2.199,1.83,4.59,1.83c0.95,0,2.06-0.14,3.489-0.45
			c1.921-0.4,6.311-1.32,7.65-5.07c0.19-0.54,0.39-1.06,0.58-1.58c-0.88,4.4-1.61,7.67-2.2,9.77c-0.47,1.76-0.14,3.54,0.92,4.92
			c0.8,1.05,2.34,2.29,5.11,2.29c0.79,0,1.689-0.091,2.74-0.29c1.41-0.261,2.77-0.681,4.01-1.25c1.09-0.511,3.58-1.66,4.29-4.39
			c0.399-1.41,0.84-3.23,1.33-5.49c1.67,0.96,3.649,1.48,5.88,1.48c1.92,0,3.99-0.37,6.31-1.13c2.58-0.83,4.9-2.15,6.92-3.94
			c1.7,3.39,4.561,4.54,6.07,4.92c0.86,0.21,1.8,0.32,2.78,0.32c1.95,0,4.149-0.42,6.71-1.28c2.26-0.74,4.47-1.99,6.54-3.69
			c3.71-3.05,5.95-6.75,6.67-11.01c0.25-1.47-0.07-2.95-0.88-4.14c1.16-0.75,2.189-1.78,2.71-3.27c1.54-4.5,2.189-8.33,1.979-11.71
			c1.91-0.49,3.561-1.3,4.931-2.43c1.439-1.19,2.66-2.52,3.66-3.97c0.119,0.03,0.239,0.06,0.35,0.08
			c-0.94,4.02-2.021,8.78-3.21,14.26c-2.09,9.69-3.69,16.73-4.75,20.94c-0.43,1.72-0.07,3.48,0.99,4.83c0.8,1.03,2.34,2.25,5.1,2.25
			c0.771,0,1.63-0.09,2.64-0.27c1.45-0.26,2.83-0.68,4.08-1.26c1.011-0.46,3.641-1.68,4.32-4.52c0.24-0.95,0.51-2.07,0.82-3.36
			c0.67,1.43,1.56,2.77,2.67,4.02c2.859,3.26,6.51,5.13,10.84,5.53c0.65,0.06,1.32,0.09,1.99,0.09c3.22,0,6.569-0.72,9.97-2.14
			c3.22-1.36,5.54-3.48,6.87-6.31c1.68-3.57,1.55-8.26-0.391-14.34c-0.96-3-2.47-6.53-4.609-10.77
			C366.61,31.03,368.29,30.01,369.39,28.29z M15.54,46.76c-0.54,2.58-0.94,4.37-1.2,5.38c-0.54,2.11-0.82,3.65-0.84,4.64
			c-0.02,0.98-1.29,1.73-3.8,2.25c-0.76,0.15-1.46,0.22-2.1,0.22c-0.16,0-0.31,0-0.46-0.01c-0.78-0.02-1.16-0.18-1.16-0.46
			c0.02-0.44,0.7-3.84,2.04-10.19c0.65-3.07,1.39-6.73,2.21-10.97c2.11-10.88,3.59-18.19,4.43-21.94c0.07-0.3,0.59-0.68,1.55-1.13
			c0.86-0.42,1.81-0.72,2.84-0.91c0.7-0.12,1.27-0.19,1.73-0.19c0.99,0,1.43,0.3,1.3,0.89c-0.85,3.75-2.29,10.9-4.33,21.45
			C16.86,40.36,16.12,44.02,15.54,46.76z M44.77,53.17c-0.32,1.7-0.63,3.27-0.93,4.71c-0.78,3.9-1.45,6.83-2,8.81
			c-0.07,0.31-0.59,0.68-1.55,1.13c-0.87,0.39-1.82,0.69-2.85,0.88c-0.73,0.13-1.34,0.2-1.81,0.2c-0.97,0-1.37-0.29-1.21-0.87
			c1.05-3.8,2.53-10.99,4.43-21.59c1.36-7.59,1.67-12.99,0.95-16.21c-0.52,0.5-0.99,1-1.41,1.52c-1.66,2.01-3.34,4.71-5.03,8.08
			c-1.61,3.24-3.9,8.9-6.85,16.98c-0.26,0.75-1.58,1.37-3.97,1.87c-1.07,0.23-1.89,0.34-2.46,0.34c-0.71,0-1.05-0.17-1.03-0.52
			c0.31-4.17,1.29-9.69,2.96-16.56c1.92-7.97,3.1-13.44,3.55-16.42c0.12-0.84,1.26-1.56,3.44-2.14c0.59-0.16,1.32-0.28,2.18-0.35
			c0.29-0.03,0.54-0.04,0.76-0.04c0.8,0,1.18,0.16,1.14,0.49c-0.4,2.61-0.99,5.68-1.79,9.22c0.58-0.73,1.19-1.4,1.83-2.01
			c2.81-2.69,6.28-4.43,10.4-5.2c0.68-0.13,1.25-0.2,1.7-0.2c0.76,0,1.22,0.18,1.36,0.55c0.11,0.27,0.21,0.54,0.29,0.83
			c0.37,1.12,0.61,2.39,0.73,3.82c0.12,1.32,0.13,2.77,0.04,4.35c-0.17,2.62-0.6,5.92-1.3,9.88C45.78,47.82,45.26,50.64,44.77,53.17
			z M66.85,37.36c-0.38,0.07-0.78,0.11-1.21,0.15c-0.19,0.02-0.37,0.02-0.54,0.02c-0.41,0-0.76-0.04-1.05-0.12
			c-0.58-0.19-0.64-0.55-0.17-1.09c1.24-1.41,1.86-3.05,1.86-4.93c0-2.53-0.71-4.43-2.14-5.69c-0.49-0.45-0.96-0.76-1.41-0.95
			c-0.16-0.07-0.3-0.13-0.42-0.18h-0.04l-0.03,0.04c-1.64,1.08-3.07,2.84-4.29,5.27c-1.15,2.37-1.99,4.96-2.53,7.77
			c-0.52,2.72-0.74,5.4-0.67,8.05c0.09,3.36,0.56,5.9,1.41,7.63c0.49,1.03,1.05,1.76,1.68,2.18c0.22-0.19,0.38-0.34,0.5-0.46
			c0.72-0.77,1.41-1.71,2.07-2.81c0.56-0.91,2.03-1.58,4.4-2c0.19-0.04,0.39-0.07,0.59-0.09c0.3-0.04,0.61-0.06,0.94-0.06
			c0.11,0,0.22,0,0.33,0.01c1.05,0.05,1.43,0.31,1.12,0.81c-0.62,1.04-1.3,1.97-2.05,2.81c-1.83,2.09-4.02,3.54-6.56,4.36
			c-1.8,0.59-3.39,0.88-4.76,0.88c-2.07,0-3.66-0.67-4.75-2c-0.27-0.33-0.51-0.69-0.72-1.1c-0.44-0.84-0.8-1.77-1.08-2.78
			c0-0.01,0-0.01,0-0.01c-0.89-3.31-0.92-7.56-0.08-12.75c0.59-3.68,1.56-6.79,2.89-9.35c0.63-1.21,1.34-2.29,2.13-3.24
			c0.51-0.61,1.05-1.17,1.62-1.68c2.58-2.32,5.7-3.78,9.36-4.39c3.42-0.54,5.13-0.81,5.13-0.81s0.82,0.82,2.46,2.46
			c0.87,0.89,1.5,1.89,1.89,2.99c0.36,0.99,0.51,2.07,0.47,3.23c0,0.08-0.01,0.16-0.02,0.24c-0.12,2.22-0.96,4.2-2.52,5.95
			c-0.21,0.24-0.47,0.47-0.79,0.66C69.14,36.84,68.14,37.17,66.85,37.36z M90.06,57.87c-0.58,0.23-1.3,0.43-2.17,0.59
			c-0.85,0.17-1.62,0.25-2.28,0.25h-0.25c-0.77-0.05-1.15-0.19-1.13-0.42c0.12-1.74,0.32-3.56,0.6-5.49
			c-0.94,0.99-1.86,1.8-2.78,2.43c-1.61,1.13-3.38,1.83-5.3,2.11c-0.73,0.1-1.38,0.15-1.95,0.15c-1.04,0-1.81-0.17-2.31-0.5
			c-0.76-0.5-1.36-1.24-1.79-2.22c-0.51-1.16-0.79-2.66-0.84-4.5c-0.05-1.36-0.01-2.72,0.13-4.09c0.16-1.56,0.44-3.13,0.85-4.71
			c0.29-1.16,0.65-2.33,1.08-3.49h0.01c0.66-1.8,1.48-3.61,2.46-5.43c0.36-0.66,0.77-1.29,1.22-1.89c0.73-0.97,1.57-1.87,2.54-2.68
			c1.79-1.54,3.98-2.83,6.58-3.86c2.2-0.89,4.1-1.34,5.71-1.34c0.97,0,1.83,0.17,2.58,0.49c1.27,0.57,1.94,1.88,2.01,3.94
			c0.45-0.05,0.83-0.08,1.15-0.08c-0.59,3.06-1.61,7.63-3.06,13.64C91.41,47.83,90.41,53.42,90.06,57.87z M122.31,44.72
			c-0.53,2.94-1.02,5.62-1.49,8.05c-0.32,1.68-0.62,3.23-0.91,4.66v0.01c-0.83,4.12-1.53,7.19-2.1,9.25
			c-0.07,0.31-0.59,0.68-1.55,1.13c-0.87,0.39-1.81,0.69-2.85,0.88c-0.73,0.13-1.34,0.2-1.81,0.2c-0.96,0-1.37-0.29-1.21-0.87
			c1.06-3.8,2.53-10.99,4.43-21.59c1.36-7.59,1.68-12.99,0.95-16.21c-0.52,0.5-0.98,1-1.41,1.52c-1.66,2.01-3.34,4.71-5.02,8.08
			c-1.62,3.24-3.91,8.9-6.86,16.98c-0.26,0.75-1.58,1.37-3.97,1.87c-1.07,0.23-1.88,0.34-2.46,0.34c-0.71,0-1.05-0.17-1.02-0.52
			c0.3-4.17,1.29-9.69,2.95-16.56c1.92-7.97,3.11-13.44,3.55-16.42c0.02-0.15,0.08-0.3,0.17-0.45c0.41-0.65,1.5-1.22,3.28-1.69
			c0.58-0.16,1.31-0.28,2.18-0.35c0.28-0.03,0.53-0.04,0.76-0.04c0.79,0,1.17,0.16,1.13,0.49c-0.39,2.61-0.99,5.68-1.79,9.22
			c0.59-0.73,1.2-1.4,1.83-2.01c2.81-2.69,6.28-4.43,10.41-5.2c0.67-0.13,1.24-0.2,1.69-0.2c0.76,0,1.22,0.18,1.36,0.55
			c0.24,0.6,0.44,1.24,0.6,1.94c0.32,1.32,0.49,2.82,0.51,4.51c0.02,0.81,0,1.66-0.05,2.55C123.45,37.46,123.01,40.76,122.31,44.72z
			 M145.56,48.02c0,0.02,0,0.04-0.01,0.07v0.01c0.01,0,0.01,0,0,0.01v0.01c-0.5,2.58-1.01,5.28-1.55,8.09
			c-0.04,0.17-0.22,0.37-0.53,0.59c-0.25,0.18-0.59,0.37-1.02,0.58c-0.86,0.39-1.81,0.69-2.84,0.87c-0.59,0.1-1.08,0.16-1.48,0.18
			c-2.13,0.91-4.09,1.37-5.87,1.37c-1.51,0-2.89-0.33-4.15-0.98c-1.16-0.6-2.13-1.39-2.9-2.37c-0.83-1.04-1.44-2.28-1.83-3.75
			c-0.01-0.02-0.01-0.05-0.02-0.07c-1.07-4.13-0.71-9.2,1.09-15.22c0.51-1.69,1.08-3.24,1.72-4.64c0.67-1.48,1.42-2.8,2.25-3.95
			c1.36-1.95,2.96-3.44,4.75-4.46c2.2-1.26,4.54-2.02,7-2.28c0.32-0.03,0.64-0.05,0.94-0.05c0.79,0,1.51,0.11,2.15,0.33
			c1.17-5.3,2.43-10.15,3.76-14.56c0.1-0.32,0.6-0.71,1.52-1.16c0.86-0.39,1.82-0.69,2.88-0.87c0.71-0.13,1.29-0.19,1.75-0.19
			c1,0,1.41,0.3,1.24,0.89c-0.93,3.09-2.39,9.43-4.38,19.03c0,0,0,0,0,0.01c-0.57,2.75-1.18,5.78-1.83,9.07c0,0.01-0.01,0.01,0,0.02
			C147.38,38.66,146.51,43.14,145.56,48.02z M168.12,47.32c-0.29,1.71-0.94,3.3-1.93,4.76c-0.63,0.92-1.4,1.8-2.3,2.62
			c-0.22,0.2-0.45,0.4-0.69,0.6c-1.6,1.31-3.25,2.25-4.96,2.81c-2.02,0.68-3.73,1.02-5.12,1.02c-0.57,0-1.09-0.06-1.56-0.17
			c-1.15-0.28-2.03-0.93-2.62-1.94v-0.01c-0.7-1.14-1.04-2.74-1.04-4.8c-0.01-1.2,0.04-2.48,0.15-3.85c0,0,0,0,0-0.01
			c0.1-1.36,0.27-2.8,0.49-4.33c0.53-3.45,1.22-6.37,2.07-8.74c0.45-1.28,0.96-2.4,1.51-3.36c0.78-1.71,1.64-3.14,2.57-4.27v-0.01
			c0.28-0.33,0.55-0.64,0.84-0.92c1.85-1.83,4.34-3.02,7.45-3.59c1.09-0.2,2.07-0.29,2.94-0.29c0.68,0,1.29,0.06,1.83,0.18h0.01
			c0.91,0.2,1.62,0.56,2.15,1.1c0.13,0.13,0.25,0.26,0.37,0.4c0.38,0.45,0.69,0.96,0.92,1.54c0.36,0.83,0.57,1.8,0.64,2.91
			c0.04,0.51,0.06,1.04,0.04,1.59c-0.01,1.19-0.16,2.46-0.44,3.84c0,0-0.01,0.01,0,0.02c-0.28,1.45-0.71,3.01-1.28,4.67
			c-0.01,0.04-0.03,0.07-0.05,0.11c-0.25,0.44-1.03,0.91-2.34,1.41c-1.15,0.39-2.13,0.61-2.92,0.63c-0.26,0.01-0.75,0.02-1.47,0.02
			c-0.72,0-1.67-0.01-2.86-0.02c-1.82,0-3.27,0.06-4.32,0.17c-0.38,1.88-0.63,3.98-0.77,6.3c-0.12,2.58-0.03,4.45,0.28,5.62
			c0.28,1.08,0.64,1.82,1.09,2.22c0.51-0.45,0.93-0.87,1.26-1.27c1.46-1.83,2.35-3.7,2.67-5.62c0.05-0.31,0.57-0.69,1.55-1.16
			c0.84-0.4,1.79-0.69,2.85-0.88c0.12-0.02,0.23-0.04,0.34-0.06c0.51-0.08,0.94-0.12,1.3-0.12c0.91,0,1.35,0.25,1.36,0.73
			C168.13,47.22,168.13,47.27,168.12,47.32z M191.21,33.89c-0.49,0.67-1.38,1.22-2.69,1.62c-0.51,0.16-1.09,0.3-1.73,0.42
			c-0.33,0.06-0.72,0.09-1.16,0.09c-0.22,0-0.46,0-0.71-0.02c-1.08-0.05-1.45-0.3-1.12-0.77c2.32-3.26,3.1-5.66,2.35-7.21
			c-0.47-1-1.27-1.6-2.4-1.82c-0.01,0.01-0.02,0.02-0.02,0.03c-1.76,1.68-2.52,3.74-2.29,6.15c0.16,1.66,1.02,3.56,2.57,5.69
			c1.46,2,2.54,3.49,3.27,4.46c0,0,0,0,0,0.01c0.67,0.92,1.02,1.38,1.02,1.38c0.48,0.71,0.88,1.35,1.23,1.99
			c0,0.02-0.01,0.03,0,0.04c0.85,1.59,1.32,2.96,1.4,4.11c0.08,1.28-0.16,2.42-0.71,3.43c0,0.01,0,0.01,0,0.01
			c-0.44,0.82-1.08,1.56-1.93,2.21c-0.03,0.03-0.07,0.05-0.1,0.08c-3.27,2.46-6.65,3.69-10.14,3.69c-0.33,0-0.67-0.01-1-0.03
			c-3.12-0.21-5.46-1.3-7.03-3.27c-0.11-0.14-0.22-0.28-0.32-0.43c-0.64-0.93-0.98-1.9-1.02-2.92c-0.06-1.15,0.29-2.36,1.02-3.61
			c0.16-0.28,0.41-0.53,0.74-0.76c0.61-0.42,1.5-0.77,2.68-1.05c0.31-0.07,0.65-0.14,1.01-0.2c0.47-0.09,0.98-0.14,1.53-0.14h0.33
			c1.03,0.05,1.41,0.32,1.13,0.81c-0.73,1.25-0.99,2.5-0.78,3.76c0.21,1.32,0.89,2.41,2.04,3.27c1.12,0.86,2.13,1.36,3.03,1.49
			c0.09-0.06,0.17-0.12,0.24-0.19c2.67-2.34,2.1-6.18-1.72-11.53c-0.28-0.39-0.96-1.26-2.04-2.6c-0.89-1.15-1.58-2.08-2.07-2.81
			c-0.11-0.17-0.22-0.34-0.32-0.51v-0.01c-0.88-1.46-1.4-2.85-1.55-4.16c0,0,0,0,0-0.01c-0.06-0.55-0.06-1.08,0-1.6
			c0.08-0.71,0.22-1.39,0.43-2.03c0.44-1.42,1.21-2.68,2.29-3.78c0.59-0.61,1.28-1.17,2.06-1.68c2.43-1.61,5.15-2.41,8.16-2.41
			c0.25,0,0.49,0.01,0.74,0.02c1.55,0.07,2.87,0.36,3.97,0.88c0.73,0.33,1.29,0.74,1.67,1.23c0.41,0.51,0.62,1.11,0.65,1.79
			c0.04,0.69-0.06,1.42-0.28,2.2c-0.29,1.06-0.82,2.2-1.59,3.43C191.8,33.04,191.52,33.46,191.21,33.89z M216.01,35.75
			c-0.6,0.68-1.6,1.17-3,1.47H213c-0.59,0.13-1.25,0.23-1.99,0.29c-0.189,0.02-0.37,0.02-0.54,0.02c-0.41,0-0.76-0.04-1.04-0.12
			c-0.59-0.19-0.649-0.55-0.18-1.09c1.24-1.41,1.86-3.05,1.86-4.93c0-2.53-0.71-4.43-2.141-5.69c-0.489-0.45-0.96-0.76-1.41-0.95
			c-0.16-0.07-0.3-0.13-0.42-0.18h-0.03l-0.04,0.04c-1.64,1.08-3.07,2.84-4.29,5.27c-1.15,2.37-1.99,4.96-2.53,7.77
			c-0.52,2.72-0.74,5.4-0.67,8.05c0.1,3.36,0.56,5.9,1.41,7.63c0.49,1.03,1.05,1.76,1.69,2.18c0.21-0.19,0.37-0.34,0.49-0.46
			c0.72-0.77,1.42-1.71,2.07-2.81c0.56-0.91,2.03-1.58,4.399-2c0.46-0.1,0.96-0.15,1.5-0.15h0.03c0.11,0,0.22,0,0.33,0.01
			c1.05,0.05,1.43,0.31,1.12,0.81c-0.47,0.78-0.97,1.5-1.5,2.17c-1.94,2.43-4.32,4.1-7.11,5c-1.8,0.59-3.39,0.88-4.76,0.88
			c-2.27,0-3.95-0.8-5.05-2.4c-0.15-0.22-0.29-0.45-0.42-0.7c-0.35-0.67-0.65-1.4-0.89-2.19c-0.72-2.27-1-5.02-0.83-8.26
			c0.06-1.32,0.21-2.73,0.43-4.22c0.04-0.29,0.08-0.58,0.13-0.87c0.07-0.44,0.15-0.88,0.23-1.3c0.37-1.92,0.85-3.67,1.44-5.25
			c0-0.01,0.01-0.02,0.01-0.03c0.48-1.32,1.04-2.52,1.68-3.6c0-0.01,0-0.01,0-0.01c0.84-1.44,1.81-2.68,2.91-3.72V26.4
			c0.12-0.12,0.25-0.24,0.38-0.35c2.57-2.32,5.69-3.78,9.35-4.39c3.42-0.54,5.13-0.81,5.13-0.81s0.82,0.82,2.46,2.46
			c0.771,0.79,1.35,1.65,1.74,2.6c0.46,1.1,0.67,2.3,0.62,3.62c0,0.1-0.011,0.2-0.021,0.3c-0.13,2.2-0.97,4.16-2.51,5.89
			C216.03,35.73,216.02,35.74,216.01,35.75z M233.6,53.12c-0.63,0.76-1.359,1.49-2.199,2.18c-1.601,1.31-3.25,2.25-4.96,2.81
			c-2.021,0.68-3.721,1.02-5.11,1.02c-0.58,0-1.1-0.06-1.57-0.17c-1.92-0.48-3.08-1.98-3.479-4.49c-0.12-0.68-0.17-1.43-0.17-2.26
			c-0.021-1.57,0.06-3.28,0.26-5.15c0.09-0.97,0.22-1.98,0.37-3.04c0.16-1.06,0.34-2.08,0.54-3.04c0.29-1.46,0.62-2.8,0.979-4.02
			c0-0.01,0-0.01,0.01-0.02c0.58-1.99,1.28-3.66,2.051-5.02c0.22-0.48,0.439-0.93,0.67-1.36v-0.01c0.75-1.41,1.55-2.57,2.42-3.5
			c0.1-0.11,0.21-0.22,0.32-0.33c1.859-1.83,4.34-3.02,7.46-3.59c1.09-0.2,2.069-0.29,2.93-0.29c1.81,0,3.14,0.42,3.99,1.28
			c0.529,0.51,0.949,1.13,1.26,1.86c0.38,0.85,0.6,1.85,0.68,2.99c0.23,2.76-0.33,6.14-1.689,10.12c-0.15,0.45-0.891,0.93-2.2,1.45
			h-0.01c-0.061,0.02-0.12,0.05-0.181,0.07c-1.149,0.39-2.12,0.61-2.92,0.63c-0.26,0.01-0.75,0.02-1.47,0.02s-1.67-0.01-2.85-0.02
			c-1.83,0-3.271,0.06-4.33,0.17c-0.37,1.88-0.631,3.98-0.771,6.3c-0.12,2.58-0.02,4.45,0.28,5.62c0.28,1.08,0.64,1.82,1.09,2.22
			c0.52-0.45,0.94-0.87,1.27-1.27c1.45-1.83,2.341-3.7,2.671-5.62c0.04-0.31,0.56-0.69,1.54-1.16c0.85-0.4,1.8-0.69,2.85-0.88
			c0.58-0.11,1.07-0.16,1.479-0.18h0.171c0.989,0,1.439,0.3,1.34,0.88C235.96,49.45,235.05,51.38,233.6,53.12z M263.73,53.15
			c-0.33,1.71-0.641,3.29-0.94,4.73c-0.78,3.9-1.45,6.83-2,8.81c-0.07,0.31-0.59,0.68-1.55,1.13c-0.86,0.39-1.811,0.69-2.851,0.88
			c-0.729,0.13-1.33,0.2-1.81,0.2c-0.96,0-1.37-0.29-1.21-0.87c1.06-3.8,2.53-10.99,4.43-21.59c1.36-7.59,1.681-12.99,0.95-16.21
			c-0.52,0.5-0.98,1-1.41,1.52c-1.66,2.01-3.34,4.71-5.02,8.08c-1.62,3.24-3.91,8.9-6.86,16.98c-0.26,0.75-1.58,1.37-3.97,1.87
			c-1.061,0.23-1.88,0.34-2.46,0.34c-0.71,0-1.05-0.17-1.021-0.52c0.07-1.04,0.19-2.16,0.351-3.37v-0.01
			c0.42-3.11,1.109-6.77,2.08-10.98c-0.021-0.05-0.051-0.09-0.08-0.13c0.04-0.03,0.09-0.06,0.13-0.09
			c0.149-0.65,0.31-1.31,0.47-1.98c1.92-7.97,3.11-13.44,3.55-16.42c0.12-0.84,1.271-1.56,3.45-2.14c0.58-0.16,1.31-0.28,2.18-0.35
			c0.28-0.03,0.53-0.04,0.761-0.04c0.79,0,1.17,0.16,1.14,0.49c-0.4,2.61-1,5.68-1.8,9.22c0.59-0.73,1.2-1.4,1.83-2.01
			c2.81-2.69,6.279-4.43,10.41-5.2c0.67-0.13,1.239-0.2,1.689-0.2c0.771,0,1.22,0.18,1.37,0.55c0.11,0.26,0.2,0.54,0.29,0.82
			c0.37,1.13,0.61,2.41,0.72,3.85c0.12,1.31,0.13,2.76,0.04,4.33c-0.16,2.62-0.6,5.92-1.3,9.88
			C264.74,47.81,264.22,50.62,263.73,53.15z M289.61,35.73c-0.601,0.69-1.601,1.19-3.021,1.49h-0.01c-0.59,0.13-1.25,0.23-1.99,0.29
			c-0.189,0.02-0.37,0.02-0.53,0.02c-0.42,0-0.77-0.04-1.05-0.12c-0.59-0.19-0.649-0.55-0.18-1.09c1.24-1.41,1.87-3.05,1.87-4.93
			c0-2.53-0.72-4.43-2.15-5.69c-0.49-0.45-0.96-0.76-1.41-0.95c-0.159-0.07-0.3-0.13-0.42-0.18h-0.029l-0.04,0.04
			c-1.641,1.08-3.07,2.84-4.29,5.27c-1.15,2.37-1.99,4.96-2.53,7.77c-0.51,2.72-0.74,5.4-0.67,8.05c0.1,3.36,0.57,5.9,1.41,7.63
			c0.489,1.03,1.05,1.76,1.689,2.18c0.21-0.19,0.37-0.34,0.49-0.46c0.73-0.77,1.42-1.71,2.07-2.81c0.569-0.91,2.029-1.58,4.399-2
			c0.46-0.1,0.96-0.15,1.5-0.15h0.03c0.11,0,0.22,0,0.33,0.01c1.06,0.05,1.43,0.31,1.13,0.81c-0.47,0.78-0.97,1.5-1.51,2.17
			c-1.94,2.43-4.311,4.1-7.11,5c-1.8,0.59-3.39,0.88-4.76,0.88c-2.061,0-3.65-0.66-4.74-1.99c-0.27-0.33-0.52-0.7-0.729-1.11
			c-0.44-0.83-0.801-1.76-1.07-2.77c-0.9-3.31-0.93-7.57-0.09-12.77c0.6-3.66,1.56-6.77,2.89-9.32c0-0.01,0-0.01,0-0.01
			c0.63-1.21,1.34-2.29,2.141-3.25c0.5-0.62,1.039-1.18,1.619-1.69c2.58-2.32,5.69-3.78,9.351-4.39c3.42-0.54,5.13-0.81,5.13-0.81
			s0.82,0.82,2.46,2.46c0.77,0.79,1.35,1.65,1.74,2.6c0.46,1.1,0.67,2.3,0.62,3.62c0,0.11-0.011,0.21-0.021,0.32c0,0,0,0,0,0.01
			c-0.13,2.19-0.979,4.14-2.51,5.86L289.61,35.73z M311.94,39.09c-0.16,0.47-0.96,0.98-2.391,1.52c-1.149,0.39-2.12,0.61-2.92,0.63
			c-0.25,0.01-0.74,0.02-1.46,0.02c-0.729,0-1.68-0.01-2.86-0.02c-1.829,0-3.27,0.06-4.329,0.17c-0.37,1.88-0.631,3.98-0.771,6.3
			c-0.12,2.58-0.02,4.45,0.28,5.62c0.279,1.08,0.649,1.82,1.09,2.22c0.52-0.45,0.939-0.87,1.27-1.27c1.45-1.83,2.341-3.7,2.67-5.62
			c0.051-0.31,0.561-0.69,1.551-1.16c0.84-0.4,1.79-0.69,2.84-0.88c0.66-0.12,1.21-0.18,1.649-0.18c0.99,0,1.44,0.3,1.341,0.88
			c-0.511,3.05-2.15,5.71-4.92,7.98c-1.591,1.31-3.25,2.25-4.961,2.81c-2.02,0.68-3.72,1.02-5.109,1.02
			c-0.58,0-1.101-0.06-1.57-0.17c-1.91-0.48-3.08-1.98-3.479-4.49c-0.11-0.68-0.17-1.43-0.17-2.26c-0.021-1.57,0.069-3.29,0.26-5.16
			c0.1-0.97,0.22-1.98,0.37-3.03c0.16-1.06,0.34-2.08,0.54-3.04c0.29-1.46,0.62-2.8,0.979-4.02v-0.01c0.601-2,1.29-3.67,2.07-5.03
			c0.21-0.48,0.43-0.93,0.67-1.36v-0.01c0.74-1.41,1.54-2.57,2.42-3.5c0.1-0.11,0.21-0.22,0.32-0.33c1.85-1.83,4.33-3.02,7.449-3.59
			c1.091-0.2,2.07-0.29,2.94-0.29c0.2,0,0.4,0.01,0.59,0.02c0.97,0.05,1.78,0.24,2.44,0.58c0.37,0.18,0.689,0.41,0.96,0.68
			c0.72,0.71,1.24,1.61,1.569,2.71c0.19,0.65,0.311,1.36,0.36,2.14c0.01,0.16,0.021,0.32,0.03,0.48
			C313.79,32.12,313.22,35.34,311.94,39.09z M324.74,16.38c-0.34,1.11-0.82,2.16-1.45,3.13c-0.76,1.18-1.73,2.26-2.91,3.24
			c-0.75,0.62-1.68,1.08-2.77,1.38c-0.69,0.2-1.44,0.34-2.261,0.41c-0.1,0.01-0.21,0.01-0.31,0.01h-0.06
			c-0.431,0-0.851-0.06-1.25-0.19c-0.681-0.18-0.721-0.52-0.141-1.02c0.15-0.12,0.29-0.24,0.43-0.38c0.65-0.58,1.221-1.2,1.69-1.87
			c0.771-1.06,1.32-2.22,1.65-3.48c0.63-2.36,0.37-4.61-0.78-6.75c-0.14-0.28,0.13-0.63,0.81-1.05c0.63-0.4,1.42-0.75,2.36-1.06
			c1.18-0.38,2.13-0.58,2.85-0.58c0.761,0,1.261,0.22,1.511,0.65c0.649,1.24,1.02,2.52,1.1,3.84
			C325.29,13.87,325.13,15.11,324.74,16.38z M336.88,35.82c-2.27,10.46-3.939,17.77-4.99,21.94c-0.069,0.33-0.59,0.72-1.55,1.16
			c-0.87,0.4-1.83,0.69-2.88,0.88c-0.71,0.13-1.29,0.19-1.75,0.19c-0.97,0-1.38-0.28-1.24-0.86c1.08-4.29,2.67-11.32,4.78-21.09
			c1.99-9.12,3.62-16.15,4.89-21.09c-1.64,0.46-3.05,0.77-4.22,0.91c-0.14,0.01-0.28,0.02-0.41,0.02c-0.05,0.01-0.09,0.01-0.14,0.01
			c-0.36,0-0.7-0.04-1.03-0.14c-0.66-0.21-0.72-0.56-0.18-1.05c0.46-0.43,1.09-0.79,1.88-1.08c0.86-0.32,1.91-0.55,3.15-0.71
			c0.42-0.07,1.17-0.29,2.25-0.64c1.29-0.44,2.14-0.72,2.569-0.84c0.82-0.21,1.601-0.34,2.351-0.39c0.13,0,0.25-0.01,0.359-0.01
			c1.011,0,1.44,0.29,1.29,0.86C340.61,19.16,338.9,26.47,336.88,35.82z M360.75,27.6c-0.43,0.07-0.91,0.11-1.45,0.11
			c-0.13,0-0.27,0-0.41-0.01c-1.06-0.04-1.43-0.3-1.13-0.77c0.03-0.05,0.04-0.07,0.04-0.07s0.03-0.06,0.101-0.18
			c1.689-2.72,2.89-5.28,3.59-7.7c1.029-3.6,0.75-6.15-0.84-7.62c-0.641-0.61-1.16-0.98-1.591-1.09h-0.069
			c-0.181,0.14-0.38,0.3-0.59,0.49c-2.53,2.25-3.73,5.03-3.591,8.33c0.12,2.84,1.78,7.36,4.99,13.57c2.351,4.52,4,8.29,4.96,11.29
			c1.521,4.78,1.73,8.34,0.63,10.68c-0.79,1.69-2.22,2.97-4.29,3.83c-2.79,1.18-5.47,1.76-8.029,1.76c-0.521,0-1.03-0.02-1.53-0.07
			c-3.021-0.28-5.54-1.57-7.56-3.86c-2.011-2.28-3-4.95-2.95-8.02c0.09-5.37,3.5-10.52,10.229-15.47
			c-2.25-4.45-3.529-8.06-3.83-10.83c-0.449-4.03,0.79-7.43,3.721-10.19c2.56-2.44,5.71-3.93,9.46-4.47
			c0.79-0.12,1.529-0.17,2.229-0.17c2.87,0,4.88,1.02,6.03,3.06c1.03,1.85,1.01,4.44-0.07,7.76c-0.84,2.58-2.05,5.13-3.62,7.63
			C364.6,26.51,363.12,27.18,360.75,27.6z"/>
		<path fill="#093333" d="M292.15,29.53c0,0.11-0.011,0.21-0.021,0.32c0,0,0,0,0,0.01c-0.13,2.19-0.979,4.14-2.51,5.86l-0.01,0.01
			c-0.601,0.69-1.601,1.19-3.021,1.49h-0.01c-0.59,0.13-1.25,0.23-1.99,0.29c-0.189,0.02-0.37,0.02-0.53,0.02
			c-0.42,0-0.77-0.04-1.05-0.12c-0.59-0.19-0.649-0.55-0.18-1.09c1.24-1.41,1.87-3.05,1.87-4.93c0-2.53-0.72-4.43-2.15-5.69
			c-0.49-0.45-0.96-0.76-1.41-0.95c-0.159-0.07-0.3-0.13-0.42-0.18h-0.029l-0.04,0.04c-1.641,1.08-3.07,2.84-4.29,5.27
			c-1.15,2.37-1.99,4.96-2.53,7.77c-0.51,2.72-0.74,5.4-0.67,8.05c0.1,3.36,0.57,5.9,1.41,7.63c0.489,1.03,1.05,1.76,1.689,2.18
			c0.21-0.19,0.37-0.34,0.49-0.46c0.73-0.77,1.42-1.71,2.07-2.81c0.569-0.91,2.029-1.58,4.399-2c0.46-0.1,0.96-0.15,1.5-0.15h0.03
			c0.11,0,0.22,0,0.33,0.01c1.06,0.05,1.43,0.31,1.13,0.81c-0.47,0.78-0.97,1.5-1.51,2.17c-1.94,2.43-4.311,4.1-7.11,5
			c-1.8,0.59-3.39,0.88-4.76,0.88c-2.061,0-3.65-0.66-4.74-1.99c-0.27-0.33-0.52-0.7-0.729-1.11c-0.44-0.83-0.801-1.76-1.07-2.77
			c-0.9-3.31-0.93-7.57-0.09-12.77c0.6-3.66,1.56-6.77,2.89-9.32c0-0.01,0-0.01,0-0.01c0.63-1.21,1.34-2.29,2.141-3.25
			c0.5-0.62,1.039-1.18,1.619-1.69c2.58-2.32,5.69-3.78,9.351-4.39c3.42-0.54,5.13-0.81,5.13-0.81s0.82,0.82,2.46,2.46
			c0.77,0.79,1.35,1.65,1.74,2.6C291.99,27.01,292.2,28.21,292.15,29.53z"/>
	</g>
	<g>
		<path fill="none" d="M297.25,56.57c-0.03,0.02-0.06,0.03-0.11,0.03 M303.9,26.31c-0.011,0-0.011,0.01-0.011,0.01 M304.98,25.35
			c0,0.02-0.011,0.03-0.03,0.03"/>
		<path fill="#F1F2F2" d="M305.19,38.43c-2.721,0.07-4.971,0.23-6.75,0.49c0.279-1.34,0.579-2.6,0.88-3.8
			c0.68-1.76,1.479-3.58,2.39-5.48c0.45-0.87,0.95-1.7,1.51-2.5c0.19-0.28,0.42-0.56,0.71-0.84c-0.01,0-0.02,0.01-0.029,0.01
			c0.02-0.02,0.06-0.06,0.13-0.12c0.09,0.05,0.21,0.12,0.35,0.21c0.94,0.71,1.51,2.15,1.73,4.33
			C306.36,32.62,306.06,35.19,305.19,38.43z"/>
	</g>
	<g>
		<path fill="#093333" d="M324.74,16.38c-0.34,1.11-0.82,2.16-1.45,3.13c-0.76,1.18-1.73,2.26-2.91,3.24
			c-0.75,0.62-1.68,1.08-2.77,1.38c-0.69,0.2-1.44,0.34-2.261,0.41c-0.1,0.01-0.21,0.01-0.31,0.01h-0.06
			c-0.431,0-0.851-0.06-1.25-0.19c-0.681-0.18-0.721-0.52-0.141-1.02c0.15-0.12,0.29-0.24,0.43-0.38c0.65-0.58,1.221-1.2,1.69-1.87
			c0.771-1.06,1.32-2.22,1.65-3.48c0.63-2.36,0.37-4.61-0.78-6.75c-0.14-0.28,0.13-0.63,0.81-1.05c0.63-0.4,1.42-0.75,2.36-1.06
			c1.18-0.38,2.13-0.58,2.85-0.58c0.761,0,1.261,0.22,1.511,0.65c0.649,1.24,1.02,2.52,1.1,3.84
			C325.29,13.87,325.13,15.11,324.74,16.38z"/>
	</g>
	<g>
		<path fill="#093333" d="M342.01,13.89c-1.399,5.27-3.109,12.58-5.13,21.93c-2.27,10.46-3.939,17.77-4.99,21.94
			c-0.069,0.33-0.59,0.72-1.55,1.16c-0.87,0.4-1.83,0.69-2.88,0.88c-0.71,0.13-1.29,0.19-1.75,0.19c-0.97,0-1.38-0.28-1.24-0.86
			c1.08-4.29,2.67-11.32,4.78-21.09c1.99-9.12,3.62-16.15,4.89-21.09c-1.64,0.46-3.05,0.77-4.22,0.91
			c-0.14,0.01-0.28,0.02-0.41,0.02c-0.05,0.01-0.09,0.01-0.14,0.01c-0.36,0-0.7-0.04-1.03-0.14c-0.66-0.21-0.72-0.56-0.18-1.05
			c0.46-0.43,1.09-0.79,1.88-1.08c0.86-0.32,1.91-0.55,3.15-0.71c0.42-0.07,1.17-0.29,2.25-0.64c1.29-0.44,2.14-0.72,2.569-0.84
			c0.82-0.21,1.601-0.34,2.351-0.39c0.13,0,0.25-0.01,0.359-0.01C341.73,13.03,342.16,13.32,342.01,13.89z"/>
	</g>
	<g>
		<path fill="#093333" d="M357.9,26.68c-0.07,0.12-0.101,0.18-0.101,0.18s-0.01,0.02-0.04,0.07c-0.3,0.47,0.07,0.73,1.13,0.77
			c0.141,0.01,0.28,0.01,0.41,0.01c0.54,0,1.021-0.04,1.45-0.11c2.37-0.42,3.85-1.09,4.43-2.01c1.57-2.5,2.78-5.05,3.62-7.63
			c1.08-3.32,1.101-5.91,0.07-7.76c-1.15-2.04-3.16-3.06-6.03-3.06c-0.7,0-1.439,0.05-2.229,0.17c-3.75,0.54-6.9,2.03-9.46,4.47
			c-2.931,2.76-4.17,6.16-3.721,10.19c0.301,2.77,1.58,6.38,3.83,10.83c-6.729,4.95-10.14,10.1-10.229,15.47
			c-0.05,3.07,0.939,5.74,2.95,8.02c2.02,2.29,4.539,3.58,7.56,3.86c0.5,0.05,1.01,0.07,1.53,0.07c2.56,0,5.239-0.58,8.029-1.76
			c2.07-0.86,3.5-2.14,4.29-3.83c1.101-2.34,0.891-5.9-0.63-10.68c-0.96-3-2.609-6.77-4.96-11.29c-3.21-6.21-4.87-10.73-4.99-13.57
			c-0.14-3.3,1.061-6.08,3.591-8.33c0.21-0.19,0.409-0.35,0.59-0.49h0.069c0.431,0.11,0.95,0.48,1.591,1.09
			c1.59,1.47,1.869,4.02,0.84,7.62C360.79,21.4,359.59,23.96,357.9,26.68z M358.43,51.12c0.24,1.8,0.13,3.31-0.31,4.53
			c-0.24,0.64-0.54,1.14-0.92,1.51c-0.01,0.02-0.01,0.03-0.01,0.04h-0.021c-0.189,0-0.46-0.04-0.81-0.11
			c-1.17-0.18-2.37-0.72-3.591-1.61c-2.13-1.57-3.479-3.95-4.039-7.14c-0.7-4.03,0.76-8,4.39-11.92c0.66,1.27,1.17,2.3,1.55,3.1
			C356.78,44.11,358.03,47.98,358.43,51.12z"/>
		<path fill="#27AAE1" d="M357.19,57.2v0.01c0,0,0,0,0.01-0.01H357.19z M357.19,57.2v0.01c0,0,0,0,0.01-0.01H357.19z M357.19,57.2
			v0.01c0,0,0,0,0.01-0.01H357.19z M357.19,57.2v0.01c0,0,0,0,0.01-0.01H357.19z M357.19,57.2v0.01c0,0,0,0,0.01-0.01H357.19z
			 M357.19,57.2v0.01c0,0,0,0,0.01-0.01H357.19z M357.19,57.2v0.01c0,0,0,0,0.01-0.01H357.19z M357.19,57.2v0.01c0,0,0,0,0.01-0.01
			H357.19z M357.19,57.2v0.01c0,0,0,0,0.01-0.01H357.19z M357.19,57.2v0.01c0,0,0,0,0.01-0.01H357.19z M357.19,57.2v0.01
			c0,0,0,0,0.01-0.01H357.19z M357.19,57.2v0.01c0,0,0,0,0.01-0.01H357.19z M357.19,57.2v0.01c0,0,0,0,0.01-0.01H357.19z
			 M357.19,57.2v0.01c0,0,0,0,0.01-0.01H357.19z M357.19,57.2v0.01c0,0,0,0,0.01-0.01H357.19z M357.19,57.2v0.01c0,0,0,0,0.01-0.01
			H357.19z M357.19,57.2v0.01c0,0,0,0,0.01-0.01H357.19z M357.19,57.2v0.01c0,0,0,0,0.01-0.01H357.19z M357.19,57.2v0.01
			c0,0,0,0,0.01-0.01H357.19z M357.19,57.2v0.01c0,0,0,0,0.01-0.01H357.19z M357.19,57.2v0.01c0,0,0,0,0.01-0.01H357.19z
			 M357.19,57.2v0.01c0,0,0,0,0.01-0.01H357.19z M357.19,57.2v0.01c0,0,0,0,0.01-0.01H357.19z M357.19,57.2v0.01c0,0,0,0,0.01-0.01
			H357.19z M357.19,57.2v0.01c0,0,0,0,0.01-0.01H357.19z M357.19,57.2v0.01c0,0,0,0,0.01-0.01H357.19z M357.19,57.2v0.01
			c0,0,0,0,0.01-0.01H357.19z M357.19,57.2v0.01c0,0,0,0,0.01-0.01H357.19z M357.19,57.2v0.01c0,0,0,0,0.01-0.01H357.19z
			 M357.19,57.2v0.01c0,0,0,0,0.01-0.01H357.19z M357.19,57.2v0.01c0,0,0,0,0.01-0.01H357.19z"/>
		<path fill="#F1F2F2" d="M358.12,55.65c-0.24,0.64-0.54,1.14-0.92,1.51c-0.01,0.02-0.01,0.03-0.01,0.04h-0.021
			c-0.189,0-0.46-0.04-0.81-0.11c-1.17-0.18-2.37-0.72-3.591-1.61c-2.13-1.57-3.479-3.95-4.039-7.14c-0.7-4.03,0.76-8,4.39-11.92
			c0.66,1.27,1.17,2.3,1.55,3.1c2.11,4.59,3.36,8.46,3.76,11.6C358.67,52.92,358.56,54.43,358.12,55.65z"/>
	</g>
</g>
</svg>
