<?xml version="1.0" encoding="utf-8"?>
<!-- Generator: Adobe Illustrator 16.0.0, SVG Export Plug-In . SVG Version: 6.00 Build 0)  -->
<!DOCTYPE svg PUBLIC "-//W3C//DTD SVG 1.1//EN" "http://www.w3.org/Graphics/SVG/1.1/DTD/svg11.dtd">
<svg version="1.1" id="Layer_1" xmlns="http://www.w3.org/2000/svg" xmlns:xlink="http://www.w3.org/1999/xlink" x="0px" y="0px"
	 width="141.413px" height="58.392px" viewBox="0 0 141.413 58.392" enable-background="new 0 0 141.413 58.392"
	 xml:space="preserve">
<g>
	<path fill="#14679B" d="M32.56,10.247c0.726,0.141,0.844,0.469,0.352,0.984c-0.329,0.375-0.762,0.68-1.301,0.914
		c-2.016,0.938-3.774,1.266-5.273,0.984c-1.5-0.304-3.059-0.527-4.676-0.668c-4.523,15.117-7.43,28.454-8.719,40.008
		c-0.094,1.008-1.383,1.746-3.867,2.215c-0.961,0.164-1.805,0.234-2.531,0.211c-0.773-0.047-1.148-0.176-1.125-0.387
		c1.359-12.211,4.465-26.285,9.316-42.223c-1.125,0.047-2.18,0.129-3.164,0.246c-0.773,0.094-1.441,0.188-2.004,0.281
		c-0.539,0.094-0.937,0.164-1.195,0.211c-0.047,0.023-0.093,0.035-0.141,0.035c-0.047,0.023-0.082,0.035-0.105,0.035
		c-2.484,0.586-3.809,0.54-3.973-0.141c-0.234-0.844,0.914-1.559,3.445-2.145c3.563-0.82,7.172-1.336,10.828-1.547
		c0.398-0.093,0.761-0.176,1.09-0.246c1.64-0.281,2.625-0.223,2.953,0.176C25.916,9.262,29.278,9.614,32.56,10.247z"/>
	<path fill="#14679B" d="M54.399,20.829c0.422,1.43,0.527,3.493,0.316,6.188c-0.141,1.735-0.41,3.879-0.809,6.434
		c-0.469,3.071-0.973,5.449-1.512,7.137c-1.735,5.555-2.614,9.176-2.637,10.863c-0.023,0.961-1.278,1.7-3.762,2.215
		c-0.984,0.188-1.84,0.27-2.566,0.246c-0.773-0.047-1.16-0.199-1.16-0.457c0.023-2.18,0.585-5.015,1.688-8.508
		c1.313-4.125,2.074-6.926,2.285-8.402c0.796-5.109,1.16-8.707,1.09-10.793c-0.07-1.429-0.199-2.438-0.387-3.023
		c-1.359,1.665-2.871,4.372-4.535,8.121c-1.5,3.328-3.141,7.594-4.922,12.797c-1.781,5.227-2.79,8.109-3.023,8.648
		c-0.329,0.703-1.665,1.313-4.008,1.828c-2.367,0.516-3.516,0.457-3.445-0.176c1.57-13.336,5.039-30.586,10.406-51.75
		c0.07-0.304,0.574-0.68,1.512-1.125c0.867-0.398,1.828-0.691,2.883-0.879c2.203-0.398,3.199-0.176,2.988,0.668
		c-2.368,9.305-4.254,17.204-5.66,23.695c1.172-1.617,2.426-2.883,3.762-3.797c1.805-1.218,3.879-1.992,6.223-2.32
		C52.055,18.016,53.813,18.813,54.399,20.829z"/>
	<path fill="#14679B" d="M79.051,24.45c0.234,2.766-0.329,6.141-1.688,10.125c-0.164,0.469-0.961,0.973-2.391,1.512
		c-1.148,0.399-2.122,0.61-2.918,0.633c-0.516,0.023-1.957,0.023-4.324,0c-1.828,0-3.27,0.059-4.324,0.176
		c-0.375,1.875-0.633,3.973-0.773,6.293c-0.118,2.579-0.023,4.453,0.281,5.625c0.281,1.078,0.645,1.816,1.09,2.215
		c0.515-0.445,0.937-0.867,1.266-1.266c1.453-1.828,2.343-3.703,2.672-5.625c0.047-0.304,0.563-0.691,1.547-1.16
		c0.844-0.398,1.793-0.691,2.848-0.879c2.132-0.375,3.129-0.141,2.988,0.703c-0.516,3.047-2.157,5.708-4.922,7.98
		c-1.594,1.313-3.247,2.25-4.957,2.813c-2.86,0.961-5.086,1.243-6.68,0.844c-2.438-0.609-3.656-2.859-3.656-6.75
		c-0.023-2.391,0.188-5.121,0.633-8.191c0.821-5.32,2.016-9.352,3.586-12.094c1.007-2.227,2.145-3.96,3.41-5.203
		c1.851-1.828,4.336-3.023,7.453-3.586c3.352-0.609,5.66-0.281,6.926,0.984C78.265,20.723,78.91,22.34,79.051,24.45z M62.668,52.047
		c-0.023,0.023-0.059,0.035-0.105,0.035L62.668,52.047z M63.863,34.399c1.781-0.258,4.031-0.422,6.75-0.492
		c0.867-3.234,1.172-5.801,0.914-7.699c-0.211-2.18-0.786-3.621-1.723-4.324c-0.141-0.093-0.258-0.164-0.352-0.211
		c-0.141,0.118-0.176,0.153-0.105,0.105c-0.281,0.281-0.516,0.563-0.703,0.844c-0.563,0.797-1.067,1.629-1.512,2.496
		c-0.914,1.898-1.711,3.727-2.391,5.484C64.438,31.797,64.145,33.063,63.863,34.399z M70.367,20.864
		c0.023,0,0.035-0.012,0.035-0.035C70.402,20.852,70.39,20.864,70.367,20.864z"/>
	<path fill="#14679B" d="M116.886,19.282c0.563,0.633,0.855,1.524,0.879,2.672c0.047,2.368-0.54,6.012-1.758,10.934
		c-2.016,8.18-3,12.188-2.953,12.023c-0.211,1.055-0.469,2.93-0.773,5.625c-0.258,2.414-0.563,4.289-0.914,5.625
		c-0.07,0.329-0.586,0.715-1.547,1.16c-0.867,0.399-1.816,0.691-2.848,0.879c-2.227,0.398-3.234,0.176-3.023-0.668
		c0.328-1.242,0.609-2.965,0.844-5.168c0.258-2.508,0.469-4.23,0.633-5.168c0.304-1.547,1.195-5.226,2.672-11.039
		c1.242-4.875,1.945-8.52,2.109-10.934c0.07-1.102,0.035-1.934-0.105-2.496c-0.094,0.141-0.118,0.176-0.07,0.105
		c-0.656,0.773-1.313,1.781-1.969,3.023c-1.032,1.898-2.098,4.418-3.199,7.559c-0.492,1.336-1.605,4.02-3.34,8.051
		c-0.821,1.852-1.441,3.445-1.863,4.781c-0.305,1.992-0.645,3.739-1.02,5.238c-0.188,0.797-1.489,1.43-3.902,1.898
		c-2.414,0.469-3.598,0.399-3.551-0.211c0.07-1.218,0.234-2.355,0.492-3.41c0.141-0.656,0.328-1.348,0.563-2.074
		c1.289-8.32,2.016-12.844,2.18-13.57c0.75-2.93,1.253-5.121,1.512-6.574c0.422-2.484,0.539-4.266,0.352-5.344
		c-1.665,2.32-3.398,5.637-5.203,9.949c-1.57,3.844-3.023,7.98-4.359,12.41c-1.125,3.727-1.816,6.387-2.074,7.98
		c-0.047,0.305-0.563,0.68-1.547,1.125c-0.867,0.422-1.828,0.727-2.883,0.914c-2.109,0.375-3.129,0.258-3.059-0.352
		c0.375-3.046,1.665-8.648,3.867-16.805c1.898-7.008,2.859-12.656,2.883-16.945c0-0.984,1.253-1.734,3.762-2.25
		c0.984-0.211,1.851-0.293,2.602-0.246c0.773,0.023,1.16,0.176,1.16,0.457c0,0.727-0.023,1.454-0.07,2.18
		c0.492-0.422,0.996-0.773,1.512-1.055c1.851-1.078,3.867-1.758,6.047-2.039c2.883-0.352,4.488,0.492,4.816,2.531
		c0.141,0.821,0.176,1.746,0.105,2.777c2.554-2.531,5.695-3.973,9.422-4.324C115.045,18.345,116.253,18.602,116.886,19.282z"/>
	<path fill="#14679B" d="M141.362,24.45c0.234,2.766-0.329,6.141-1.688,10.125c-0.164,0.469-0.961,0.973-2.391,1.512
		c-1.148,0.399-2.122,0.61-2.918,0.633c-0.516,0.023-1.957,0.023-4.324,0c-1.828,0-3.27,0.059-4.324,0.176
		c-0.375,1.875-0.633,3.973-0.773,6.293c-0.118,2.579-0.023,4.453,0.281,5.625c0.281,1.078,0.645,1.816,1.09,2.215
		c0.515-0.445,0.937-0.867,1.266-1.266c1.453-1.828,2.343-3.703,2.672-5.625c0.047-0.304,0.563-0.691,1.547-1.16
		c0.844-0.398,1.793-0.691,2.848-0.879c2.132-0.375,3.129-0.141,2.988,0.703c-0.516,3.047-2.157,5.708-4.922,7.98
		c-1.594,1.313-3.247,2.25-4.957,2.813c-2.86,0.961-5.086,1.243-6.68,0.844c-2.438-0.609-3.656-2.859-3.656-6.75
		c-0.023-2.391,0.188-5.121,0.633-8.191c0.821-5.32,2.016-9.352,3.586-12.094c1.007-2.227,2.145-3.96,3.41-5.203
		c1.851-1.828,4.336-3.023,7.453-3.586c3.352-0.609,5.66-0.281,6.926,0.984C140.576,20.723,141.221,22.34,141.362,24.45z
		 M124.979,52.047c-0.023,0.023-0.059,0.035-0.105,0.035L124.979,52.047z M126.174,34.399c1.781-0.258,4.031-0.422,6.75-0.492
		c0.867-3.234,1.172-5.801,0.914-7.699c-0.211-2.18-0.786-3.621-1.723-4.324c-0.141-0.093-0.258-0.164-0.352-0.211
		c-0.141,0.118-0.176,0.153-0.105,0.105c-0.281,0.281-0.516,0.563-0.703,0.844c-0.563,0.797-1.067,1.629-1.512,2.496
		c-0.914,1.898-1.711,3.727-2.391,5.484C126.749,31.797,126.456,33.063,126.174,34.399z M132.678,20.864
		c0.023,0,0.035-0.012,0.035-0.035C132.713,20.852,132.701,20.864,132.678,20.864z"/>
</g>
</svg>
