<svg xmlns="http://www.w3.org/2000/svg" viewBox="0 220.952 841.889 153.225">
  <path fill="#9DD8EF" d="M536.82 220.868h305.069v122.458H536.82V220.868z"/>
  <path fill="#334F9E" d="M0 221.021h528.246v153.071H0V221.021z"/>
  <path fill="#84B7CC" d="M5.511 343.478l-5.358 5.389v-5.389"/>
  <path fill="#A2D1E0" d="M38.513 358.785l-15.246 15.309H.153l15.231-15.309"/>
  <path fill="#84B7CC" d="M53.728 343.478l-15.215 15.307H15.399l15.217-15.307m31.026 15.307l-15.229 15.309H23.297l15.216-15.309"/>
  <path fill="#A2D1E0" d="M76.872 343.478l-15.23 15.307H38.528l15.2-15.307m31.027 15.307l-15.23 15.309H46.411l15.229-15.309"/>
  <path fill="#84B7CC" d="M99.986 343.478l-15.229 15.307H61.642l15.23-15.307m31.012 15.307l-15.23 15.309H69.54l15.215-15.309"/>
  <path fill="#A2D1E0" d="M123.115 343.478l-15.229 15.307H84.771l15.186-15.307m31.072 15.307l-15.245 15.309H92.669l15.215-15.309"/>
  <path fill="#84B7CC" d="M146.243 343.478l-15.216 15.307h-23.158l15.229-15.307m31.044 15.307l-15.229 15.309H115.8l15.215-15.309"/>
  <path fill="#A2D1E0" d="M169.373 343.478l-15.231 15.307h-23.113l15.216-15.307m31.011 15.307l-15.23 15.309h-23.113l15.229-15.309"/>
  <path fill="#84B7CC" d="M192.487 343.478l-15.229 15.307h-23.114l15.231-15.307m30.994 15.307l-15.216 15.309H162.04l15.216-15.309"/>
  <path fill="#A2D1E0" d="M215.615 343.478l-15.246 15.307h-23.113l15.229-15.307m31.029 15.307l-15.229 15.309H185.17l15.215-15.309"/>
  <path fill="#84B7CC" d="M238.744 343.478l-15.23 15.307h-23.113l15.216-15.307m31.026 15.307l-15.229 15.309H208.3l15.215-15.309"/>
  <path fill="#A2D1E0" d="M261.873 343.478l-15.23 15.307H223.53l15.216-15.307m31.026 15.307l-15.229 15.309h-23.146l15.231-15.309"/>
  <path fill="#84B7CC" d="M285.018 343.478l-15.246 15.307H246.66l15.215-15.307m31.011 15.307l-15.23 15.309h-23.113l15.216-15.309"/>
  <path fill="#A2D1E0" d="M308.131 343.478l-15.245 15.307h-23.114l15.23-15.307m31.013 15.307l-15.229 15.309H277.67l15.216-15.309"/>
  <path fill="#84B7CC" d="M331.245 343.478l-15.23 15.307h-23.114l15.217-15.307m31.026 15.307l-15.229 15.309H300.8l15.23-15.309"/>
  <path fill="#A2D1E0" d="M354.359 343.478l-15.215 15.307h-23.113l15.216-15.307m31.026 15.307l-15.229 15.309H323.93l15.215-15.309"/>
  <path fill="#84B7CC" d="M377.503 343.478l-15.23 15.307H339.16l15.215-15.307"/>
  <path fill="#A2D1E0" d="M400.615 343.478l-15.229 15.307h-23.113l15.23-15.307"/>
  <path fill="#84B7CC" d="M385.386 358.785l-15.23 15.309h-23.112l15.229-15.309"/>
  <path fill="#A2D1E0" d="M408.515 358.785l-15.229 15.309h-23.113l15.215-15.309"/>
  <path fill="#84B7CC" d="M423.744 343.478l-15.229 15.307h-23.113l15.215-15.307m31.041 15.307l-15.246 15.309H393.3l15.215-15.309"/>
  <path fill="#A2D1E0" d="M446.875 343.478l-15.217 15.307h-23.145l15.229-15.307m31.032 15.307l-15.23 15.309H416.43l15.215-15.309"/>
  <path fill="#84B7CC" d="M470.004 343.478l-15.23 15.307H431.66l15.216-15.307m31.011 15.307l-15.23 15.309h-23.113l15.23-15.309"/>
  <path fill="#A2D1E0" d="M493.116 343.478l-15.229 15.307h-23.113l15.23-15.307M501 358.785l-15.216 15.309h-23.112l15.215-15.309"/>
  <path fill="#84B7CC" d="M516.245 343.478L501 358.785h-23.113l15.229-15.307m31.029 15.307l-15.23 15.309h-23.112l15.215-15.309"/>
  <path fill="#A2D1E0" d="M528.246 343.478v11.174l-4.103 4.133H501.03l15.215-15.307m12.001 15.307v15.309h-19.333l15.23-15.309"/>
  <path fill="#84B7CC" d="M528.246 354.652v4.133h-4.103M0 343.478h.151v30.613H0v-30.613z"/>
  <path fill="#A2D1E0" d="M30.615 343.478l-15.23 15.307H.153v-9.918l5.358-5.389"/>
  <path fill="#84B7CC" d="M15.384 358.785L.153 374.094v-15.309"/>
  <path fill="#F1F2F2" d="M0 290.056h236.035v5.356H0v-5.356z"/>
  <path fill="#D8D8D8" d="M0 295.413h236.035v5.389H0v-5.389z"/>
  <path fill="#606161" d="M78.954 276.403v67.076h-1.653v-65.607l1.484-1.469"/>
  <path fill="#6D6E71" d="M40.472 277.871h36.829v65.607H40.488l-.016-65.607z"/>
  <path fill="#58595B" d="M47.728 264.003h22.96v12.399h-22.96v-12.399z"/>
  <path fill="#414042" d="M45.891 292.475h5.051v51.003h-5.051v-51.003zm10.791 0h5.052v51.003h-5.052v-51.003zm10.18 0h5.052v51.003h-5.052v-51.003z"/>
  <path fill="#939598" d="M78.954 306.388h3.245v7.502h-3.216l-.029-7.502z"/>
  <path fill="#7E7F7F" d="M78.954 313.859h3.245v7.5h-3.216l-.029-7.5z"/>
  <path fill="#ADADAD" d="M153.53 254.697v5.97h-33.37v58.628H82.199v-5.391h32.449v-59.208"/>
  <path fill="#BCBEC0" d="M153.53 249.951v4.745h-38.88v59.208H82.2v-5.479h28.164v-58.474"/>
  <path fill="#A7A9AC" d="M60.111 243.369v20.634h-3.429v-17.419H15.766v31.272H0v-3.107h12.245v-31.38"/>
  <path fill="#939598" d="M63.525 240.156v23.848h-3.414V243.37H12.245v31.38H0v-3.062h8.725v-31.532m188.277 36.323H153.53l1.64-1.53h40.227m-40.229-52.305v52.289l-1.623 1.529v-55.35"/>
  <path fill="#808285" d="M197.002 221.098v55.381l-1.607-1.53v-52.32h-40.227l-1.64-1.515"/>
  <path fill="#A7A9AC" d="M155.168 222.644h40.227v52.289h-40.227v-52.289z"/>
  <path fill="#58595B" d="M161.49 276.479h28.164v7.225H161.49v-7.225z"/>
  <path fill="#414042" d="M170.367 283.703h10.408v3.368h-10.408v-3.368z"/>
  <path fill="#58595B" d="M163.633 230.405H186.9v36.783h-23.267v-36.783z"/>
  <path fill="#BCBEC0" d="M163.633 247.548H186.9v2.48h-23.267v-2.48z"/>
  <path fill="#6D6E71" d="M56.682 257.911h6.843v1.103h-6.843v-1.103zm0-8.51h6.843v1.102h-6.843v-1.102zm-47.957.459h7.041v1.103H8.725v-1.103zm0 8.664h7.041v1.102H8.725v-1.102zm0 8.664h7.041v1.102H8.725v-1.102zm-4.362 4.469h1.103v6.214H4.363v-6.214zm47.835-31.501h1.117v6.429h-1.117v-6.429zm-8.419 0h1.103v6.429h-1.103v-6.429zm-8.419 0h1.071v6.429H35.36v-6.429zm-8.451 0h1.103v6.429h-1.103v-6.429zm-8.433 0h1.103v6.429H18.46l.016-6.429z"/>
  <path fill="#A7A9AC" d="M423.853 317.761c1.729 0 3.138 1.424 3.138 3.152 0 1.73-1.408 3.139-3.138 3.139H275.987c-1.729 0-3.138-1.377-3.138-3.121 0-1.746 1.408-3.139 3.138-3.139h147.866m0-.306H275.987c-1.897 0-3.443 1.563-3.443 3.461 0 1.896 1.531 3.443 3.443 3.443h147.866c1.898 0 3.444-1.531 3.444-3.43 0-1.912-1.531-3.443-3.444-3.443v-.031z"/>
  <circle cx="275.987" cy="320.916" r="3" fill="#6D6E71"/>
  <circle cx="287.36" cy="320.916" r="3" fill="#939598"/>
  <circle cx="298.733" cy="320.916" r="3" fill="#939598"/>
  <circle cx="310.106" cy="320.916" r="3" fill="#939598"/>
  <circle cx="321.48" cy="320.916" r="3" fill="#939598"/>
  <circle cx="332.853" cy="320.916" r="3" fill="#939598"/>
  <circle cx="344.226" cy="320.916" r="3" fill="#939598"/>
  <circle cx="355.615" cy="320.916" r="3" fill="#939598"/>
  <circle cx="366.988" cy="320.916" r="3" fill="#939598"/>
  <circle cx="378.361" cy="320.916" r="3" fill="#939598"/>
  <circle cx="389.734" cy="320.916" r="3" fill="#939598"/>
  <circle cx="401.107" cy="320.916" r="3" fill="#939598"/>
  <circle cx="412.48" cy="320.916" r="3" fill="#939598"/>
  <circle cx="423.853" cy="320.916" r="3" fill="#6D6E71"/>
  <circle cx="423.853" cy="320.916" r="1.563" fill="#414042"/>
  <circle cx="275.987" cy="320.916" r="1.563" fill="#414042"/>
  <circle cx="287.36" cy="320.916" r="1.563" fill="#414042"/>
  <circle cx="298.733" cy="320.916" r="1.563" fill="#414042"/>
  <circle cx="310.106" cy="320.916" r="1.563" fill="#414042"/>
  <circle cx="321.479" cy="320.916" r="1.563" fill="#414042"/>
  <circle cx="332.852" cy="320.916" r="1.563" fill="#414042"/>
  <circle cx="344.225" cy="320.916" r="1.563" fill="#414042"/>
  <circle cx="355.598" cy="320.916" r="1.563" fill="#414042"/>
  <circle cx="366.971" cy="320.916" r="1.563" fill="#414042"/>
  <circle cx="378.344" cy="320.916" r="1.563" fill="#414042"/>
  <circle cx="389.717" cy="320.916" r="1.563" fill="#414042"/>
  <circle cx="401.09" cy="320.916" r="1.563" fill="#414042"/>
  <circle cx="412.463" cy="320.916" r="1.563" fill="#414042"/>
  <path fill="#CED1D3" d="M236.035 283.015h39.95v60.463h-39.95v-60.463z"/>
  <path fill="#58595B" d="M242.617 289.75h26.939v53.728h-26.939V289.75z" opacity=".5"/>
  <path fill="#58595B" d="M242.617 300.802h26.939v3.029h-26.939v-3.029zm0 22.93h26.939v3.063h-26.939v-3.063z"/>
  <path fill="#939598" d="M90.128 308.426h1.684v10.869h-1.684v-10.869zm11.786 0h1.684v10.869h-1.684v-10.869zm8.451-6.952h9.797v1.686h-9.797v-1.686zm0-12.26h9.797v1.685h-9.797v-1.685zm0-14.588h9.797v1.686h-9.797v-1.686zm0-10.332h9.797v1.685h-9.797v-1.685zm14.051-14.265h1.684v10.638h-1.684v-10.638zm15.307 0h1.685v10.638h-1.685v-10.638zm-37.196 40.027h1.685v10.747h-1.685v-10.747zm-15.307 0h1.684v10.747H87.22v-10.747zm45.921 0h1.685v10.747h-1.685v-10.747zm15.307 0h1.685v10.747h-1.685v-10.747zm15.307 0h1.684v10.747h-1.684v-10.747zm15.307 0h1.686v10.747h-1.686v-10.747zm15.307 0h1.684v10.747h-1.684v-10.747zm15.307 0h1.685v10.747h-1.685v-10.747zm15.308 0h1.685v10.747h-1.685v-10.747zm-199.146 0h1.684v10.747h-1.684v-10.747zm-15.307 0h1.685v10.747h-1.685v-10.747z"/>
  <path fill="#414042" d="M191.583 335.824h45.922v22.961h-45.922v-22.961z"/>
  <path fill="#6D6E71" d="M196.941 343.478h4.439v4.438h-4.439v-4.438zm8.021 0h4.438v4.438h-4.438v-4.438zm8.204 0h4.438v4.438h-4.438v-4.438zm7.501 0h4.438v4.438h-4.438v-4.438zm7.5 0h4.438v4.438h-4.438v-4.438zm-31.226 8.725h35.666v1.377h-35.666v-1.377z"/>
  <path fill="#BCBEC0" d="M451.955 268.167v9.093h-50.359v-32.176h-35.91v-9.093h46.381v32.176"/>
  <path fill="#D1D3D4" d="M370.921 239.741h35.939v31.992h38.729v5.511h-44.023v-32.298h-30.675"/>
  <path fill="#808285" d="M341.47 221.021v50.729s11.512-6.827 28.625 0v-50.729H341.47z"/>
  <path fill="#58595B" d="M337.674 221.021l3.796 50.729v-50.729m32.391 0l-3.766 50.729v-50.729m-23.695 0l2.755 44.544 3.521-44.544m5.51 0l2.755 44.544 3.521-44.544m-22.38 51.432s11.112-6.659 27.399 0c.002 0-11.816 4.668-27.399 0z"/>
  <path fill="#808285" d="M355.782 280.458c4.774 0 8.663-3.779 8.663-8.449h-17.357c0 4.685 3.888 8.466 8.679 8.466l.015-.017zm-8.678-8.465s6.796-2.204 17.343 0"/>
  <path fill="#414042" d="M354.359 271.03l1.118 6.628 1.117-6.612s-1.577-.03-2.22 0l-.015-.016z"/>
  <path fill="#58595B" d="M431.017 311.441h10.378v14.74h-10.378v-14.74z"/>
  <path fill="#505251" d="M431.017 318.802h10.378v7.379h-10.378v-7.379z"/>
  <path fill="#808285" d="M427.986 343.478l12.309-18.92h14.541v18.92m26.878 0l-12.339-18.92h-14.541v18.92"/>
  <path fill="#747476" d="M440.293 321.435h28.868v3.123h-28.868v-3.123z"/>
  <path fill="#414042" d="M453.595 343.478l1.225-16.486v16.486m1.27 0l-1.256-16.486v16.486m-16.225-.092l5.863-16.379-2.572 16.379m28.638 0l-5.861-16.379 2.557 16.379"/>
  <path fill="#808285" d="M440.293 321.435l-3.904-10.76h18.323v10.76m14.449 0l3.889-10.76h-18.323v10.76m-18.322-10.759l8.067-71.79h10.362l-.107 71.79"/>
  <path fill="#808285" d="M473.112 310.676l-8.083-71.79h-10.362l.107 71.79"/>
  <path fill="#414042" d="M436.405 310.676s16.181-6.781 36.707 0l-.337-3.016s-16.18-5.971-36.385 0v3.016h.015z"/>
  <path fill="#808285" d="M444.472 238.886s9.397-6.507 20.557 0"/>
  <path fill="#58595B" d="M438.609 311.84l2.908 7.959h2.955v-9.123s-3.063-1.272-5.863 1.164zm32.589 0l-2.908 7.959h-2.953v-9.123c-.002 0 3.06-1.272 5.861 1.164zm-17.19-2.436c-2.604.063-5.587.414-8.694 1.271v9.139h8.694v-10.41zm1.684 0v10.41h8.679v-9.139c-.002.001-3.49-1.164-8.679-1.271zm-6.033-68.024l-5.907 61.61s3.979-3.826 9.644-2.082V241.38s-1.041-1.744-3.737 0zm10.931 0l5.893 61.61s-3.979-3.826-9.643-2.082V241.38s1.04-1.729 3.733 0h.017z"/>
  <path fill="#939598" d="M414.592 268.167h1.684v9.093h-1.684v-9.093zm-12.996-6.995h10.485v1.685H401.61l-.014-1.685zm0-11.939h10.485v1.684H401.61l-.014-1.684zm24.706 18.934h1.684v9.093h-1.684v-9.093zm-42.171-32.176h1.684v9.063h-1.684v-9.063zm11.71 0h1.684v9.063h-1.684v-9.063z"/>
  <path fill="#B0B1B2" d="M470.479 279.754l1.255 9.89 2.525.565-1.653-11.71"/>
  <path fill="#414042" d="M472.606 278.499s5.113 4.517 1.653 11.71l-1.653-11.71z"/>
  <path fill="#D1D3D4" d="M514.777 243.11v3.413h-11.021v41.176h-27.677c.23-1.225.245-2.356.153-3.337h23.344V243.11h15.215-.014z"/>
  <path fill="#BCBEC0" d="M528.094 238.991v7.531h-13.317v-3.413h-15.199v41.252h-23.374c0-.352-.076-.688-.123-.994-.396-2.066-1.225-3.276-1.225-3.276h20.543v-41.114h32.695v.014z"/>
  <path fill="#BCBEC0" d="M514.777 235.409h13.317v14.083h-13.317v-14.083z"/>
  <circle cx="521.528" cy="242.45" r="4.638" fill="#808285"/>
  <path fill="#939598" d="M481.071 280.107h1.685v7.606h-1.685v-7.606zm9.091 0h1.685v7.606h-1.685v-7.606zm18.064-41.116h1.684v7.531h-1.684v-7.531zm-12.827 10.471h8.372v1.685h-8.357l-.015-1.685zm0 8.954h8.372v1.685h-8.357l-.015-1.685zm0 8.266h8.372v1.685h-8.357l-.015-1.685zm0 8.281h8.372v1.685h-8.357l-.015-1.685z"/>
  <path fill="#E2E2E2" d="M275.987 320.916h147.928v6.645H275.987v-6.645z"/>
  <path fill="#414042" d="M404.214 322.201v21.277H400.8v-18.293h-29.909v18.293h-3.429v-21.277"/>
  <path fill="#58595B" d="M366.758 322.201h38.113v4.059h-38.113v-4.059z"/>
  <path fill="#2C4A83" d="M528.246 221.021h8.572v153.071h-8.572V221.021z"/>
  <path fill="#009444" d="M536.82 343.478h305.069v30.613H536.82v-30.613z"/>
  <path fill="#F1F2F2" d="M536.942 304.935h192.211v3.979H536.942v-3.979zm0 28.639h192.211v3.98H536.942v-3.98z"/>
  <path fill="#F1F2F2" d="M543.294 299.547h4.285v43.932h-4.285v-43.932zm14.081 0h4.286v43.932h-4.286v-43.932zm14.084 0h4.285v43.932h-4.285v-43.932zm14.082 0h4.285v43.932h-4.285v-43.932zm14.082 0h4.286v43.932h-4.286v-43.932zm14.082 0h4.286v43.932h-4.286v-43.932zm14.083 0h4.286v43.932h-4.286v-43.932zm14.082 0h4.286v43.932h-4.286v-43.932zm14.083 0h4.286v43.932h-4.286v-43.932zm14.082 0h4.286v43.932h-4.286v-43.932zm14.083 0h4.286v43.932h-4.286v-43.932zm14.082 0h4.286v43.932H698.2v-43.932zm14.083 0h4.286v43.932h-4.286v-43.932zm14.39 0h4.286v74.547h-4.286v-74.547zm-136.097-55.611c2.971-4.898 10.164-2.098 8.939 2.647 2.603-4.286 13.623-1.378 13.011 3.214 5.817-4.024 13.363 7.808.308 8.526.092 5.756-13.271 8.266-14.189 1.117-1.96 6.322-15.216 5.97-14.297.153-3.368 4.133-12.398 2.144-12.858-.767-.459-2.908 2.449-9.49 10.716-9.031-5.663-4.592 4.179-10.761 8.357-5.861l.013.002z"/>
  <path fill="#E6E7E8" d="M615.712 249.997c2.556-4.225 8.725-1.806 7.684 2.296 2.25-3.704 11.726-1.225 11.205 2.756 5.006-3.475 11.479 6.704.261 7.316.092 4.975-11.42 7.133-12.216.995-1.684 5.434-13.072 5.128-12.291.122-2.908 3.566-10.669 1.837-11.067-.658-.397-2.495 2.144-8.174 9.245-7.775-4.896-3.948 3.599-9.261 7.194-5.052h-.015z"/>
  <path fill="#414042" d="M530.084 272.729h4.929v86.056h-4.898l-.031-86.056z"/>
  <path fill="#7C7D7D" d="M40.472 277.871v65.607h-1.47v-67.076"/>
  <path fill="#4F4F4F" d="M78.785 276.403l-1.471 1.469H40.488l-1.47-1.469"/>
  <path fill="#334F9E" d="M78.863 276.311l-.076.092h-2.098"/>
  <path fill="none" d="M30.95 343.174l-.307.305m25.289-.305l-.306.305m25.287-.305l-.308.305m25.29-.305l-.307.305m25.287-.305l-.307.305m25.304-.305l-.308.305m25.289-.305l-.306.305M.153 358.785H0"/>
  <path fill="#F1F2F2" d="M726.673 314.853h4.286v59.238h-4.286v-59.238z"/>
  <path fill="#808285" d="M244.056 343.478v-52.305l-1.424-1.408v53.729"/>
  <path fill="#898B8C" d="M242.617 289.75l1.438 1.424h25.502v-1.424"/>
  <path fill="none" d="M195.395 222.644l1.623-1.53"/>
  <path fill="#BCBEC0" d="M420.945 327.558h1.424v15.92h-1.438l.014-15.92zm2.985-17.189h7.102v17.189h-7.117l.015-17.189z"/>
  <path fill="#B2B1B2" d="M423.93 319.644h7.102v7.914h-7.117l.015-7.914z"/>
  <path fill="#FFF" d="M12.215 355.617c-.215-.076-.459-.199-.704-.367-.261-.184-.459-.398-.688-.674-.198-.275-.307-.611-.307-1.025 0-.611.229-1.146.674-1.576.459-.459.979-.658 1.593-.658.612 0 1.133.215 1.575.658.43.43.658.949.658 1.561h-1.5c0-.213-.061-.381-.214-.533-.153-.154-.307-.217-.521-.217s-.383.094-.535.23c-.152.139-.229.307-.229.52 0 .262.107.461.307.613.229.123.397.199.506.23.062 0 .198.061.429.15.229.047.459.154.734.309.261.152.489.383.688.643.198.275.306.611.306 1.025 0 .611-.229 1.146-.657 1.576-.43.43-.965.658-1.576.658-.612 0-1.148-.215-1.577-.658s-.643-.965-.643-1.576h1.483c0 .197.077.383.215.52.152.154.307.23.521.23.198 0 .382-.076.52-.23.153-.152.215-.305.215-.52 0-.307-.121-.521-.366-.613l-.521-.184c-.046 0-.153-.061-.397-.152l.011.06zm8.557-3.981c.459.199.842.459 1.194.797l-1.072 1.07c-.429-.459-.964-.674-1.561-.674-.612 0-1.148.23-1.577.674s-.658.965-.658 1.576c0 .613.215 1.135.658 1.576.429.43.949.658 1.577.658.611 0 1.132-.229 1.576-.658l1.07 1.072c-.367.307-.765.582-1.225.766-.459.184-.918.307-1.423.307-1.026 0-1.914-.367-2.633-1.072-.721-.764-1.072-1.621-1.072-2.646s.353-1.898 1.072-2.633c.733-.721 1.621-1.072 2.646-1.072.505 0 .979.076 1.439.275l-.011-.016zm1.729 4.915v-5.203h2.587c.704 0 1.315.244 1.837.766.505.504.766 1.117.766 1.836 0 .551-.152 1.072-.459 1.484-.307.414-.734.766-1.225.965l1.684 2.404h-1.837l-1.883-2.727v2.709h-1.47v-2.234zm2.603-1.485c.307 0 .566-.107.767-.338.229-.213.336-.459.336-.766s-.106-.58-.307-.811c-.229-.215-.489-.307-.812-.307h-1.117v2.219h1.133v.003zm9.643-2.633c.719.732 1.07 1.605 1.07 2.633 0 1.025-.353 1.898-1.07 2.633-.767.703-1.623 1.07-2.648 1.07-1.01 0-1.897-.367-2.603-1.07-.766-.766-1.117-1.623-1.117-2.648s.367-1.896 1.103-2.633c.72-.719 1.607-1.07 2.603-1.07 1.041 0 1.914.352 2.647 1.07l.015.015zm-4.224 1.073c-.429.428-.644.947-.644 1.561s.215 1.133.644 1.576c.459.43.964.658 1.576.658s1.148-.229 1.592-.658c.459-.459.658-.963.658-1.576 0-.611-.214-1.146-.643-1.576-.43-.459-.949-.658-1.577-.658-.612 0-1.133.23-1.576.674h-.03v-.001zm7.438-2.161v5.971h2.955v1.469h-4.485v-7.438h1.53v-.002zm5.113 0v5.971h2.969v1.469h-4.438v-7.438h1.47v-.002zm9.858 0h1.867v1.484h-1.867v5.971h-1.5v-5.971h-1.837v-1.469h3.337v-.015zm8.22 1.088c.721.732 1.071 1.605 1.071 2.633 0 1.025-.352 1.898-1.071 2.633-.733.703-1.606 1.07-2.633 1.07-1.025 0-1.896-.367-2.633-1.07-.704-.766-1.071-1.623-1.071-2.648s.367-1.896 1.071-2.633c.766-.719 1.623-1.07 2.648-1.07 1.024 0 1.896.352 2.633 1.07l-.015.015zm-4.209 1.073c-.429.428-.657.947-.657 1.561s.229 1.133.657 1.576c.459.43.965.658 1.576.658.612 0 1.148-.229 1.577-.658.459-.459.658-.963.658-1.576 0-.611-.229-1.146-.674-1.576-.444-.428-.965-.658-1.577-.658-.611 0-1.132.23-1.576.674h.016v-.001zm14.817 1.912v-4.07h1.5v7.438l-4.47-4.07v4.07h-1.485v-7.438l4.439 4.057.016.013zm4.271 2.297l-.459 1.07h-1.639l3.186-7.102.151-.338.153.354 3.215 7.086h-1.607l-.459-1.07-.03-.045h-2.464l-.047.061v-.016zm1.867-1.532l-.611-1.301-.582 1.301h1.193zm4.454 2.602l-.151-.352-3.216-7.088h1.593l1.774 3.92 1.745-3.92h1.623l-3.368 7.44zm4.194-7.44h1.5v7.439h-1.5v-7.439zm7.807.291c.459.199.857.459 1.194.797l-1.072 1.07c-.428-.459-.948-.674-1.561-.674s-1.134.23-1.577.674-.658.965-.658 1.576c0 .613.229 1.135.658 1.576.459.43.965.658 1.577.658.488 0 .918-.152 1.301-.428.383-.277.643-.613.812-1.072h-2.111v-1.484h3.643c.063.244.077.49.077.766 0 1.012-.368 1.883-1.072 2.604-.765.734-1.622 1.102-2.646 1.102-1.026 0-1.898-.367-2.633-1.07-.721-.766-1.072-1.623-1.072-2.648s.353-1.896 1.072-2.633c.733-.719 1.605-1.07 2.633-1.07.521 0 .994.076 1.438.275l-.003-.019zm4.316 6.079l-.489 1.07h-1.592l3.214-7.102.153-.338.152.354 3.185 7.086h-1.577l-.459-1.07-.046-.045h-2.495v.061l-.046-.016zm1.837-1.532l-.566-1.301-.611 1.301h1.177zm5.327-4.838h1.867v1.484h-1.867v5.971h-1.485v-5.971h-1.867v-1.469h3.354l-.002-.015zm7.072 0v1.484h-3v1.5h2.25v1.484h-2.25v1.5h3v1.486h-4.453v-7.455h4.47-.017v.001zm2.602 5.879v1.561h-1.563v-1.561h1.563zm2.664 0v1.561h-1.531v-1.561h1.531zm2.709 0v1.561h-1.577v-1.561h1.577z"/>
</svg>
