<?xml version="1.0" encoding="utf-8"?>
<!-- Generator: Adobe Illustrator 16.0.0, SVG Export Plug-In . SVG Version: 6.00 Build 0)  -->
<!DOCTYPE svg PUBLIC "-//W3C//DTD SVG 1.1//EN" "http://www.w3.org/Graphics/SVG/1.1/DTD/svg11.dtd">
<svg version="1.1" id="Layer_1" xmlns="http://www.w3.org/2000/svg" xmlns:xlink="http://www.w3.org/1999/xlink" x="0px" y="0px"
	 width="100px" height="100px" viewBox="0 0 100 100" enable-background="new 0 0 100 100" xml:space="preserve">
<circle fill="#FFFFFF" cx="50" cy="50" r="50"/>
<circle fill="#E6E7E8" cx="50" cy="50" r="42.276"/>
<g>
	<g>
		<circle fill="#5ACAEA" cx="50" cy="27.687" r="5.057"/>
		<path fill="#5ACAEA" d="M59.848,40.436H40.151c0-4.247,4.413-7.692,9.849-7.692C55.436,32.744,59.848,36.189,59.848,40.436z"/>
	</g>
	<g>
		<circle fill="#5ACAEA" cx="34.349" cy="56.62" r="5.057"/>
		<path fill="#5ACAEA" d="M44.198,69.369H24.5c0-4.245,4.412-7.692,9.849-7.692C39.785,61.677,44.198,65.124,44.198,69.369z"/>
	</g>
	<g>
		<circle fill="#5ACAEA" cx="65.651" cy="56.62" r="5.059"/>
		<path fill="#5ACAEA" d="M75.5,69.369H55.803c0-4.245,4.411-7.692,9.848-7.692C71.088,61.677,75.5,65.124,75.5,69.369z"/>
	</g>
	<line fill="#FFFFFF" stroke="#5ACAEA" stroke-width="0.5" stroke-miterlimit="10" x1="50" y1="41.845" x2="50" y2="44.813"/>
	<polyline fill="none" stroke="#5ACAEA" stroke-width="0.5" stroke-miterlimit="10" points="65.65,49.709 65.65,44.813 
		34.349,44.813 34.349,49.709 	"/>
</g>
</svg>
