<?xml version="1.0" encoding="utf-8"?>
<!-- Generator: Adobe Illustrator 16.0.0, SVG Export Plug-In . SVG Version: 6.00 Build 0)  -->
<!DOCTYPE svg PUBLIC "-//W3C//DTD SVG 1.1//EN" "http://www.w3.org/Graphics/SVG/1.1/DTD/svg11.dtd">
<svg version="1.1" id="Layer_1" xmlns="http://www.w3.org/2000/svg" xmlns:xlink="http://www.w3.org/1999/xlink" x="0px" y="0px"
	 width="539.933px" height="529.934px" viewBox="0 0 539.933 529.934" enable-background="new 0 0 539.933 529.934"
	 xml:space="preserve">
<g>
	<polygon fill="#1F4D78" points="203.545,420.352 216.895,475.819 222.229,497.962 234.437,497.962 234.103,496.336 
		223.963,446.308 218.996,421.806 245.211,357.554 227.616,357.554 	"/>
	<polygon fill="#231F20" points="208.221,512.066 234.437,497.962 222.229,497.962 	"/>
	<polygon fill="#121112" points="208.221,512.066 270.576,501.561 270.909,491.422 234.437,497.962 	"/>
	<polygon fill="#265791" points="218.996,421.806 223.963,446.308 234.103,496.336 234.437,497.962 270.909,491.422 
		270.921,491.282 275.381,357.554 245.211,357.554 	"/>
	<polygon fill="#121112" points="451.099,513.148 451.195,513.761 453.857,529.934 507.861,529.934 506.287,513.148 	"/>
	<polygon fill="#265791" points="421.974,357.547 451.099,513.148 506.287,513.148 489.641,357.547 	"/>
	<polygon fill="#1F4D78" points="453.853,527.89 421.971,357.55 404.402,357.55 439.539,527.89 	"/>
	<polygon fill="#121112" points="421.974,529.934 453.857,529.934 451.195,513.761 	"/>
	<polygon points="385.296,206.461 396.825,206.461 404.4,171.949 392.041,171.949 	"/>
	<polygon fill="#F3E5C2" points="360.158,334.962 368.617,334.962 396.825,206.461 385.285,206.461 	"/>
	<polygon fill="#FFF0CD" points="368.613,334.958 408.307,334.958 453.853,171.944 404.402,171.944 	"/>
	<polygon fill="#121112" points="524.776,167.672 434.982,167.672 439.539,357.55 507.857,357.55 	"/>
	<polygon fill="#0C0C0C" points="434.982,167.672 387.482,167.672 404.402,357.55 439.539,357.55 	"/>
	<polygon fill="#121112" points="462.962,171.949 469.934,206.881 524.768,206.881 520.866,171.949 	"/>
	<polygon fill="#FFF0CD" points="469.934,206.881 495.491,334.962 539.086,334.962 524.768,206.881 	"/>
	<polygon fill="#0C0C0C" points="449.945,171.949 457.898,206.881 469.934,206.881 462.962,171.949 	"/>
	<polygon fill="#F3E5C2" points="457.898,206.881 487.033,334.962 495.491,334.962 469.934,206.881 	"/>
	<rect x="449.535" y="158.442" fill="#F3E5C2" width="31.083" height="9.23"/>
	<rect x="434.982" y="158.442" fill="#E4D6B6" width="14.965" height="9.23"/>
	<polygon fill="#191818" points="392.041,529.934 446.045,529.934 451.39,513.148 396.146,513.148 	"/>
	<polygon fill="#2C61AD" points="396.146,513.148 451.39,513.148 507.861,357.547 439.537,357.547 	"/>
	<polygon fill="#265791" points="380.965,513.148 396.146,513.148 439.537,357.547 421.974,357.547 	"/>
	<polygon fill="#191818" points="360.158,529.934 392.041,529.934 396.146,513.148 379.123,521.086 	"/>
	<polygon fill="#231F20" points="360.158,529.934 379.123,521.086 396.146,513.148 380.953,513.148 	"/>
	<polygon fill="#FFF0CD" points="501.026,77.24 497.794,158.442 449.947,158.442 449.947,77.24 	"/>
	<polygon fill="#F3E5C2" points="449.947,77.24 411.234,77.24 414.467,158.442 449.947,158.442 	"/>
	
		<line fill="none" stroke="#231F20" stroke-width="2" stroke-linecap="round" stroke-miterlimit="10" x1="413.511" y1="140.042" x2="437.393" y2="135.374"/>
	<polygon fill="#121112" points="168.639,167.672 78.845,167.672 83.401,357.55 151.72,357.55 	"/>
	<polygon fill="#0C0C0C" points="78.845,167.672 31.345,167.672 48.265,357.55 83.401,357.55 	"/>
	<rect x="94.025" y="158.442" fill="#F3E5C2" width="31.083" height="9.23"/>
	<rect x="79.473" y="158.442" fill="#E4D6B6" width="14.965" height="9.23"/>
	<polygon fill="#121112" points="0.847,529.934 77.78,529.934 81.422,518.068 27.461,518.068 11.406,525.226 	"/>
	<polygon fill="#24598C" points="27.461,518.068 81.422,518.068 96.269,470.842 96.269,470.831 104.825,443.625 104.825,443.614 
		131.881,357.554 66.703,357.554 	"/>
	<polygon fill="#231F20" points="0.847,529.934 11.406,525.226 27.461,518.068 12.968,518.068 12.958,518.079 	"/>
	<polygon fill="#22537D" points="12.958,518.068 12.958,518.079 12.968,518.068 27.461,518.068 66.703,357.554 48.666,357.554 	"/>
	<polygon fill="#191818" points="102.131,529.934 179.657,529.934 177.782,518.068 122.766,518.068 122.766,518.079 
		110.417,525.169 	"/>
	<polygon fill="#2C61AD" points="84.104,357.554 104.825,443.614 122.766,518.068 177.782,518.068 151.814,357.554 	"/>
	<polygon fill="#0C0C0C" points="102.131,529.934 110.417,525.169 122.766,518.079 122.766,518.068 108.606,518.068 
		108.606,518.079 	"/>
	<polygon fill="#285C99" points="66.703,357.554 96.269,470.831 96.269,470.842 108.606,518.068 122.766,518.068 104.825,443.625 
		104.825,443.614 84.104,357.554 	"/>
	<polygon fill="#FFF0CD" points="63.083,334.949 103.219,334.949 118.197,294.188 150.273,206.888 98.252,206.888 74.278,294.188 	
		"/>
	<polygon fill="#121112" points="98.252,206.888 150.273,206.888 163.117,171.945 107.852,171.945 	"/>
	<polygon fill="#F3E5C2" points="54.441,334.949 63.083,334.949 74.278,294.188 98.252,206.888 87.435,206.888 64.947,294.188 	"/>
	<polygon fill="#0C0C0C" points="87.435,206.888 98.252,206.888 107.852,171.945 96.431,171.945 	"/>
	<line fill="none" x1="524.768" y1="206.881" x2="524.777" y2="206.881"/>
	<polygon fill="#FFF100" points="402.213,13.644 411.231,77.236 462.369,79.392 467.584,90.867 465.074,127.858 475.482,123.192 
		475.482,94.326 486.096,94.326 492,109.012 499.457,116.76 501.029,77.236 505.297,54.232 436.024,15.831 445.701,70.395 
		434.883,15.195 410.314,1.575 424.129,66.44 409.174,1.295 	"/>
	
		<line fill="#FFF100" stroke="#231F20" stroke-width="3" stroke-miterlimit="10" x1="491.914" y1="95.924" x2="441.388" y2="100.651"/>
	<polygon fill="#E4D6B6" points="477.799,97.002 491.088,97.002 477.799,114.667 	"/>
	<path fill="#231F20" d="M442.465,99.708c0,0-0.536,16.144-12.641,16.163c-13.746,0.022-13.735-13.814-13.738-15.22
		C416.078,97.015,433.999,94.321,442.465,99.708z"/>
	<line fill="#FFF100" stroke="#231F20" stroke-miterlimit="10" x1="418.24" y1="101.19" x2="411.889" y2="100.112"/>
	<polygon fill="#FFF0CD" points="143.991,77.24 140.759,158.442 92.912,158.442 92.912,77.24 	"/>
	<polygon fill="#F3E5C2" points="92.912,77.24 54.199,77.24 57.432,158.442 92.912,158.442 	"/>
	
		<line fill="none" stroke="#231F20" stroke-width="2" stroke-linecap="round" stroke-miterlimit="10" x1="56.476" y1="140.042" x2="80.357" y2="135.374"/>
	<polygon fill="#FFF100" points="45.177,13.644 54.196,77.236 105.334,79.392 110.549,90.867 108.038,127.858 118.447,123.192 
		118.447,94.326 129.06,94.326 134.965,109.012 142.421,116.76 143.994,77.236 148.261,54.232 78.989,15.831 88.666,70.395 
		77.847,15.195 53.28,1.575 67.094,66.44 52.138,1.295 	"/>
	
		<line fill="#FFF100" stroke="#231F20" stroke-width="3" stroke-miterlimit="10" x1="134.879" y1="95.924" x2="84.353" y2="100.651"/>
	<polygon fill="#E4D6B6" points="120.763,97.002 134.053,97.002 120.763,114.667 	"/>
	<path fill="#231F20" d="M85.43,99.708c0,0-0.537,16.144-12.642,16.163c-13.745,0.022-13.735-13.814-13.738-15.22
		C59.043,97.015,76.963,94.321,85.43,99.708z"/>
	<line fill="#FFF100" stroke="#231F20" stroke-miterlimit="10" x1="61.205" y1="101.19" x2="54.853" y2="100.112"/>
	<line fill="none" x1="385.285" y1="206.461" x2="385.296" y2="206.461"/>
	<line fill="none" x1="447.079" y1="513.148" x2="451.099" y2="513.148"/>
	<line fill="none" x1="81.422" y1="518.068" x2="108.606" y2="518.068"/>
	<polygon fill="#121112" points="348.041,167.672 258.248,167.672 262.804,357.55 331.123,357.55 	"/>
	<polygon fill="#0C0C0C" points="258.248,167.672 210.748,167.672 227.667,357.55 262.804,357.55 	"/>
	<rect x="273.428" y="158.442" fill="#F3E5C2" width="31.084" height="9.23"/>
	<rect x="258.875" y="158.442" fill="#E4D6B6" width="14.965" height="9.23"/>
	<polygon fill="#FFF0CD" points="323.394,77.24 320.161,158.442 272.314,158.442 272.314,77.24 	"/>
	<polygon fill="#F3E5C2" points="272.314,77.24 233.602,77.24 236.834,158.442 272.314,158.442 	"/>
	
		<line fill="none" stroke="#231F20" stroke-width="2" stroke-linecap="round" stroke-miterlimit="10" x1="235.878" y1="140.042" x2="259.76" y2="135.374"/>
	<polygon fill="#FFF100" points="224.58,13.644 233.599,77.236 284.736,79.392 289.951,90.867 287.441,127.858 297.85,123.192 
		297.85,94.326 308.463,94.326 314.367,109.012 321.824,116.76 323.396,77.236 327.664,54.232 258.392,15.831 268.068,70.395 
		257.25,15.195 232.682,1.575 246.496,66.44 231.541,1.295 	"/>
	
		<line fill="#FFF100" stroke="#231F20" stroke-width="3" stroke-miterlimit="10" x1="314.281" y1="95.924" x2="263.755" y2="100.651"/>
	<polygon fill="#E4D6B6" points="300.166,97.002 313.455,97.002 300.166,114.667 	"/>
	<path fill="#231F20" d="M264.833,99.708c0,0-0.537,16.144-12.642,16.163c-13.746,0.022-13.735-13.814-13.738-15.22
		C238.445,97.015,256.366,94.321,264.833,99.708z"/>
	<line fill="#FFF100" stroke="#231F20" stroke-miterlimit="10" x1="240.608" y1="101.19" x2="234.255" y2="100.112"/>
	<line fill="none" x1="260.824" y1="518.068" x2="288.01" y2="518.068"/>
	<polygon fill="#121112" points="284.766,171.945 284.766,206.878 336.562,206.878 339.719,171.945 	"/>
	<polygon fill="#FFF0CD" points="284.766,206.878 284.766,334.949 324.988,334.949 336.562,206.878 	"/>
	<polygon fill="#0C0C0C" points="275.791,171.945 276.104,206.878 284.766,206.878 284.766,171.945 	"/>
	<polygon fill="#F3E5C2" points="276.104,206.878 277.224,334.949 284.766,334.949 284.766,206.878 	"/>
	<polygon fill="#2C61AD" points="263.506,357.554 270.909,518.068 325.754,518.068 331.217,357.554 	"/>
	<polygon fill="#191818" points="236.774,529.949 325.355,529.917 325.754,518.068 270.909,518.068 	"/>
	<polygon fill="#0C0C0C" points="236.774,529.949 270.909,518.068 258.249,518.068 	"/>
	<polygon fill="#285C99" points="245.254,357.554 258.249,518.068 270.909,518.068 263.506,357.554 	"/>
</g>
</svg>
