<?xml version="1.0" encoding="utf-8"?>
<!-- Generator: Adobe Illustrator 16.0.0, SVG Export Plug-In . SVG Version: 6.00 Build 0)  -->
<!DOCTYPE svg PUBLIC "-//W3C//DTD SVG 1.1//EN" "http://www.w3.org/Graphics/SVG/1.1/DTD/svg11.dtd">
<svg version="1.1" id="Layer_1" xmlns="http://www.w3.org/2000/svg" xmlns:xlink="http://www.w3.org/1999/xlink" x="0px" y="0px"
	 width="539.934px" height="529.934px" viewBox="0 0 539.934 529.934" enable-background="new 0 0 539.934 529.934"
	 xml:space="preserve">
<g>
	<polygon fill="#1F4D78" points="312.318,357.554 294.723,357.554 320.938,421.806 315.971,446.308 305.831,496.336 
		305.497,497.962 317.705,497.962 323.039,475.819 336.389,420.352 	"/>
	<polygon fill="#231F20" points="317.705,497.962 305.497,497.962 331.713,512.066 	"/>
	<polygon fill="#121112" points="305.497,497.962 269.025,491.422 269.358,501.561 331.713,512.066 	"/>
	<polygon fill="#265791" points="294.723,357.554 264.553,357.554 269.013,491.281 269.025,491.422 305.497,497.962 
		305.831,496.336 315.971,446.308 320.938,421.806 	"/>
	<polygon fill="#121112" points="33.647,513.148 32.073,529.934 86.077,529.934 88.739,513.761 88.835,513.148 	"/>
	<polygon fill="#265791" points="50.293,357.547 33.647,513.148 88.835,513.148 117.96,357.547 	"/>
	<polygon fill="#1F4D78" points="100.395,527.89 135.532,357.55 117.963,357.55 86.081,527.89 	"/>
	<polygon fill="#121112" points="88.739,513.761 86.077,529.934 117.96,529.934 	"/>
	<polygon points="147.893,171.949 135.534,171.949 143.109,206.461 154.638,206.461 	"/>
	<polygon fill="#F3E5C2" points="154.649,206.461 143.109,206.461 171.317,334.962 179.776,334.962 	"/>
	<polygon fill="#FFF0CD" points="135.532,171.944 86.081,171.944 131.627,334.958 171.321,334.958 	"/>
	<polygon fill="#121112" points="32.077,357.55 100.395,357.55 104.952,167.672 15.158,167.672 	"/>
	<polygon fill="#0C0C0C" points="100.395,357.55 135.532,357.55 152.452,167.672 104.952,167.672 	"/>
	<polygon fill="#121112" points="19.068,171.949 15.166,206.881 70,206.881 76.971,171.949 	"/>
	<polygon fill="#FFF0CD" points="15.166,206.881 0.847,334.962 44.443,334.962 70,206.881 	"/>
	<polygon fill="#0C0C0C" points="76.971,171.949 70,206.881 82.036,206.881 89.989,171.949 	"/>
	<polygon fill="#F3E5C2" points="70,206.881 44.443,334.962 52.901,334.962 82.036,206.881 	"/>
	<rect x="59.316" y="158.442" fill="#F3E5C2" width="31.083" height="9.23"/>
	<rect x="89.987" y="158.442" fill="#E4D6B6" width="14.965" height="9.23"/>
	<polygon fill="#191818" points="143.788,513.148 88.544,513.148 93.888,529.934 147.893,529.934 	"/>
	<polygon fill="#2C61AD" points="100.397,357.547 32.073,357.547 88.544,513.148 143.788,513.148 	"/>
	<polygon fill="#265791" points="117.96,357.547 100.397,357.547 143.788,513.148 158.969,513.148 	"/>
	<polygon fill="#191818" points="160.811,521.086 143.788,513.148 147.893,529.934 179.776,529.934 	"/>
	<polygon fill="#231F20" points="158.981,513.148 143.788,513.148 160.811,521.086 179.776,529.934 	"/>
	<polygon fill="#FFF0CD" points="89.987,77.24 89.987,158.442 42.139,158.442 38.908,77.24 	"/>
	<polygon fill="#F3E5C2" points="89.987,158.442 125.467,158.442 128.7,77.24 89.987,77.24 	"/>
	
		<line fill="none" stroke="#231F20" stroke-width="2" stroke-linecap="round" stroke-miterlimit="10" x1="102.541" y1="135.374" x2="126.423" y2="140.042"/>
	<polygon fill="#121112" points="388.214,357.55 456.533,357.55 461.089,167.672 371.295,167.672 	"/>
	<polygon fill="#0C0C0C" points="456.533,357.55 491.669,357.55 508.589,167.672 461.089,167.672 	"/>
	<rect x="414.826" y="158.442" fill="#F3E5C2" width="31.083" height="9.23"/>
	<rect x="445.496" y="158.442" fill="#E4D6B6" width="14.965" height="9.23"/>
	<polygon fill="#121112" points="528.528,525.226 512.473,518.068 458.512,518.068 462.154,529.934 539.087,529.934 	"/>
	<polygon fill="#24598C" points="473.231,357.554 408.053,357.554 435.109,443.614 435.109,443.624 443.665,470.83 443.665,470.842 
		458.512,518.068 512.473,518.068 	"/>
	<polygon fill="#231F20" points="526.976,518.078 526.967,518.068 512.473,518.068 528.528,525.226 539.087,529.934 	"/>
	<polygon fill="#22537D" points="491.268,357.554 473.231,357.554 512.473,518.068 526.967,518.068 526.976,518.078 
		526.976,518.068 	"/>
	<polygon fill="#191818" points="429.517,525.169 417.168,518.078 417.168,518.068 362.152,518.068 360.277,529.934 
		437.803,529.934 	"/>
	<polygon fill="#2C61AD" points="388.12,357.554 362.152,518.068 417.168,518.068 435.109,443.614 455.83,357.554 	"/>
	<polygon fill="#0C0C0C" points="431.328,518.078 431.328,518.068 417.168,518.068 417.168,518.078 429.517,525.169 
		437.803,529.934 	"/>
	<polygon fill="#285C99" points="455.83,357.554 435.109,443.614 435.109,443.624 417.168,518.068 431.328,518.068 443.665,470.842 
		443.665,470.83 473.231,357.554 	"/>
	<polygon fill="#FFF0CD" points="465.656,294.188 441.682,206.888 389.661,206.888 421.737,294.188 436.715,334.948 
		476.851,334.948 	"/>
	<polygon fill="#121112" points="432.082,171.945 376.817,171.945 389.661,206.888 441.682,206.888 	"/>
	<polygon fill="#F3E5C2" points="474.987,294.188 452.499,206.888 441.682,206.888 465.656,294.188 476.851,334.948 
		485.493,334.948 	"/>
	<polygon fill="#0C0C0C" points="443.503,171.945 432.082,171.945 441.682,206.888 452.499,206.888 	"/>
	<line fill="none" x1="15.157" y1="206.881" x2="15.166" y2="206.881"/>
	<polygon fill="#FFF100" points="130.76,1.295 115.804,66.44 129.62,1.575 105.051,15.195 94.233,70.395 103.91,15.831 
		34.636,54.232 38.905,77.236 40.476,116.76 47.933,109.012 53.838,94.326 64.452,94.326 64.452,123.192 74.86,127.858 
		72.349,90.867 77.565,79.392 128.703,77.236 137.72,13.644 	"/>
	<line fill="none" stroke="#231F20" stroke-width="3" stroke-miterlimit="10" x1="98.546" y1="100.651" x2="48.02" y2="95.924"/>
	<polygon fill="#E4D6B6" points="62.135,114.667 48.845,97.002 62.135,97.002 	"/>
	<path fill="#231F20" d="M123.847,100.651c-0.003,1.406,0.009,15.242-13.737,15.221c-12.105-0.02-12.642-16.163-12.642-16.163
		C105.935,94.321,123.856,97.015,123.847,100.651z"/>
	<line fill="none" stroke="#231F20" stroke-miterlimit="10" x1="128.045" y1="100.112" x2="121.694" y2="101.19"/>
	<polygon fill="#FFF0CD" points="447.022,77.24 447.022,158.442 399.176,158.442 395.943,77.24 	"/>
	<polygon fill="#F3E5C2" points="447.022,158.442 482.502,158.442 485.735,77.24 447.022,77.24 	"/>
	
		<line fill="none" stroke="#231F20" stroke-width="2" stroke-linecap="round" stroke-miterlimit="10" x1="459.577" y1="135.374" x2="483.458" y2="140.042"/>
	<polygon fill="#FFF100" points="487.796,1.295 472.84,66.44 486.654,1.575 462.087,15.195 451.268,70.395 460.945,15.831 
		391.673,54.232 395.94,77.236 397.513,116.76 404.969,109.012 410.874,94.326 421.487,94.326 421.487,123.192 431.896,127.858 
		429.385,90.867 434.6,79.392 485.738,77.236 494.757,13.644 	"/>
	<line fill="none" stroke="#231F20" stroke-width="3" stroke-miterlimit="10" x1="455.581" y1="100.651" x2="405.055" y2="95.924"/>
	<polygon fill="#E4D6B6" points="419.171,114.667 405.881,97.002 419.171,97.002 	"/>
	<path fill="#231F20" d="M480.885,100.651c-0.004,1.406,0.007,15.242-13.738,15.221c-12.105-0.02-12.643-16.163-12.643-16.163
		C462.971,94.321,480.891,97.015,480.885,100.651z"/>
	<line fill="none" stroke="#231F20" stroke-miterlimit="10" x1="485.081" y1="100.112" x2="478.729" y2="101.19"/>
	<line fill="none" x1="154.638" y1="206.461" x2="154.649" y2="206.461"/>
	<line fill="none" x1="88.835" y1="513.148" x2="92.855" y2="513.148"/>
	<line fill="none" x1="431.328" y1="518.068" x2="458.512" y2="518.068"/>
	<polygon fill="#121112" points="208.811,357.55 277.13,357.55 281.686,167.672 191.893,167.672 	"/>
	<polygon fill="#0C0C0C" points="277.13,357.55 312.267,357.55 329.186,167.672 281.686,167.672 	"/>
	<rect x="235.422" y="158.442" fill="#F3E5C2" width="31.084" height="9.23"/>
	<rect x="266.094" y="158.442" fill="#E4D6B6" width="14.965" height="9.23"/>
	<polygon fill="#FFF0CD" points="267.62,77.24 267.62,158.442 219.773,158.442 216.54,77.24 	"/>
	<polygon fill="#F3E5C2" points="267.62,158.442 303.1,158.442 306.332,77.24 267.62,77.24 	"/>
	
		<line fill="none" stroke="#231F20" stroke-width="2" stroke-linecap="round" stroke-miterlimit="10" x1="280.174" y1="135.374" x2="304.056" y2="140.042"/>
	<polygon fill="#FFF100" points="308.393,1.295 293.438,66.44 307.252,1.575 282.684,15.195 271.866,70.395 281.542,15.831 
		212.27,54.232 216.538,77.236 218.11,116.76 225.567,109.012 231.471,94.326 242.084,94.326 242.084,123.192 252.493,127.858 
		249.983,90.867 255.198,79.392 306.335,77.236 315.354,13.644 	"/>
	<line fill="none" stroke="#231F20" stroke-width="3" stroke-miterlimit="10" x1="276.179" y1="100.651" x2="225.653" y2="95.924"/>
	<polygon fill="#E4D6B6" points="239.768,114.667 226.479,97.002 239.768,97.002 	"/>
	<path fill="#231F20" d="M301.481,100.651c-0.003,1.406,0.008,15.242-13.738,15.221c-12.104-0.02-12.642-16.163-12.642-16.163
		C283.568,94.321,301.489,97.015,301.481,100.651z"/>
	<line fill="none" stroke="#231F20" stroke-miterlimit="10" x1="305.679" y1="100.112" x2="299.326" y2="101.19"/>
	<line fill="none" x1="251.924" y1="518.068" x2="279.11" y2="518.068"/>
	<polygon fill="#121112" points="200.215,171.945 203.372,206.878 255.168,206.878 255.168,171.945 	"/>
	<polygon fill="#FFF0CD" points="203.372,206.878 214.946,334.948 255.168,334.948 255.168,206.878 	"/>
	<polygon fill="#0C0C0C" points="255.168,171.945 255.168,206.878 263.83,206.878 264.143,171.945 	"/>
	<polygon fill="#F3E5C2" points="255.168,206.878 255.168,334.948 262.71,334.948 263.83,206.878 	"/>
	<polygon fill="#2C61AD" points="208.718,357.554 214.18,518.068 269.025,518.068 276.428,357.554 	"/>
	<polygon fill="#191818" points="269.025,518.068 214.18,518.068 214.579,529.917 303.16,529.948 	"/>
	<polygon fill="#0C0C0C" points="281.685,518.068 269.025,518.068 303.16,529.948 	"/>
	<polygon fill="#285C99" points="276.428,357.554 269.025,518.068 281.685,518.068 294.68,357.554 	"/>
</g>
</svg>
