<?xml version="1.0" encoding="utf-8"?>
<!-- Generator: Adobe Illustrator 16.0.0, SVG Export Plug-In . SVG Version: 6.00 Build 0)  -->
<!DOCTYPE svg PUBLIC "-//W3C//DTD SVG 1.1//EN" "http://www.w3.org/Graphics/SVG/1.1/DTD/svg11.dtd">
<svg version="1.1" id="Layer_1" xmlns="http://www.w3.org/2000/svg" xmlns:xlink="http://www.w3.org/1999/xlink" x="0px" y="0px"
	 width="100px" height="100px" viewBox="0 0 100 100" enable-background="new 0 0 100 100" xml:space="preserve">
<circle fill="#FFFFFF" cx="50" cy="50" r="50"/>
<circle fill="#E6E7E8" cx="50" cy="50" r="42.276"/>
<g>
	<circle fill="#5ACAEA" cx="41.026" cy="35.645" r="6.928"/>
	<path fill="#5ACAEA" d="M54.521,53.111H27.534c0-5.816,6.045-10.539,13.491-10.539C48.474,42.573,54.521,47.295,54.521,53.111z"/>
</g>
<path fill="#5ACAEA" d="M71.723,56.281c-0.291-1.348,0.488-2.667,1.762-3.087c-0.579-1.223-1.35-2.324-2.256-3.263
	c-0.851,1.06-2.363,1.316-3.515,0.572c-1.153-0.742-1.543-2.211-0.927-3.422c-1.233-0.453-2.552-0.699-3.906-0.708
	c0.145,1.335-0.735,2.587-2.082,2.878c-1.346,0.292-2.664-0.485-3.082-1.762c-1.231,0.568-2.316,1.334-3.253,2.255
	c1.058,0.836,1.313,2.347,0.557,3.503c-0.743,1.153-2.227,1.544-3.423,0.927c-0.451,1.233-0.699,2.553-0.708,3.905
	c1.333-0.145,2.587,0.735,2.878,2.081c0.291,1.348-0.488,2.665-1.762,3.084c0.568,1.23,1.337,2.328,2.258,3.267
	c0.834-1.06,2.347-1.314,3.499-0.571c1.167,0.739,1.557,2.208,0.94,3.419c1.233,0.453,2.539,0.704,3.894,0.713
	c-0.146-1.334,0.733-2.59,2.081-2.881c1.345-0.29,2.665,0.489,3.083,1.764c1.23-0.566,2.328-1.338,3.265-2.26
	c-1.057-0.832-1.313-2.346-0.569-3.499c0.743-1.152,2.227-1.545,3.438-0.928c0.438-1.232,0.685-2.549,0.707-3.908
	C73.268,58.505,72.014,57.627,71.723,56.281z M63.531,61.889c-2.02,0.438-4.011-0.86-4.446-2.877
	c-0.437-2.02,0.842-4.021,2.861-4.458c2.031-0.438,4.023,0.856,4.46,2.876C66.842,59.448,65.563,61.45,63.531,61.889z"/>
</svg>
