<?xml version="1.0" encoding="utf-8"?>
<!-- Generator: Adobe Illustrator 16.0.0, SVG Export Plug-In . SVG Version: 6.00 Build 0)  -->
<!DOCTYPE svg PUBLIC "-//W3C//DTD SVG 1.1//EN" "http://www.w3.org/Graphics/SVG/1.1/DTD/svg11.dtd">
<svg version="1.1" id="Layer_1" xmlns="http://www.w3.org/2000/svg" xmlns:xlink="http://www.w3.org/1999/xlink" x="0px" y="0px"
	 width="298px" height="396px" viewBox="0 0 298 396" enable-background="new 0 0 298 396" xml:space="preserve">
<g>
	<path fill="#FFFFFF" d="M54.493,17.487h12.928c1.689,0.034,3.282,0.497,4.772,1.393c1.492,0.895,2.792,2.113,3.903,3.654
		c1.11,1.542,1.98,3.349,2.61,5.42c0.629,2.072,0.944,4.285,0.944,6.638c0,2.354-0.314,4.567-0.944,6.638
		c-0.63,2.072-1.492,3.887-2.585,5.445c-1.095,1.559-2.379,2.793-3.854,3.705c-1.476,0.912-3.058,1.401-4.749,1.467H54.493V17.487z
		 M58.123,21.117v27.1c0.762,0,1.517,0,2.262,0c0.746,0,1.5-0.016,2.263-0.05c0.828,0,1.648-0.008,2.461-0.025
		c0.813-0.016,1.616-0.025,2.412-0.025c1.16-0.032,2.254-0.414,3.282-1.144c1.027-0.729,1.931-1.698,2.71-2.909
		c0.778-1.21,1.392-2.627,1.839-4.251c0.448-1.624,0.671-3.364,0.671-5.221c0-1.856-0.224-3.596-0.671-5.221
		c-0.447-1.624-1.061-3.041-1.839-4.251c-0.779-1.21-1.691-2.171-2.735-2.884c-1.044-0.712-2.162-1.085-3.355-1.119H58.123z"/>
	<path fill="#FFFFFF" d="M93.377,48.713c0.463,0,0.977-0.057,1.541-0.174c0.563-0.116,1.127-0.273,1.69-0.472
		c0.563-0.199,1.119-0.415,1.666-0.646s1.053-0.448,1.518-0.646l1.393,3.132c-1.062,0.597-2.138,1.086-3.231,1.467
		c-1.095,0.381-2.188,0.671-3.282,0.87c-0.199,0.033-0.422,0.05-0.671,0.05s-0.456,0-0.621,0c-1.394,0-2.71-0.307-3.953-0.92
		s-2.354-1.458-3.332-2.536c-0.979-1.077-1.765-2.345-2.362-3.804c-0.597-1.458-0.944-3.016-1.044-4.674v-0.945
		c0-1.756,0.273-3.414,0.82-4.972c0.547-1.558,1.276-2.917,2.188-4.078c0.911-1.16,1.98-2.08,3.207-2.759
		c1.227-0.679,2.536-1.02,3.929-1.02c1.425,0,2.743,0.323,3.953,0.97c1.21,0.646,2.263,1.534,3.157,2.66
		c0.896,1.127,1.592,2.454,2.088,3.978c0.497,1.525,0.746,3.182,0.746,4.972v1.939H86.416c0.132,1.094,0.396,2.105,0.795,3.033
		c0.397,0.928,0.902,1.724,1.517,2.387c0.613,0.664,1.318,1.193,2.113,1.591C91.637,48.515,92.482,48.713,93.377,48.713z
		 M99.195,37.625c-0.133-1.061-0.39-2.046-0.771-2.958c-0.382-0.911-0.854-1.698-1.417-2.362c-0.564-0.663-1.202-1.176-1.914-1.542
		c-0.713-0.364-1.467-0.547-2.263-0.547c-0.764,0-1.484,0.191-2.163,0.572c-0.681,0.381-1.303,0.912-1.865,1.591
		c-0.564,0.68-1.044,1.467-1.442,2.362c-0.397,0.895-0.68,1.857-0.846,2.884H99.195z"/>
	<path fill="#FFFFFF" d="M120.625,32.553c-0.764-0.729-1.658-1.293-2.686-1.69c-1.027-0.398-2.071-0.597-3.132-0.597
		c-1.36,0-2.495,0.291-3.406,0.87c-0.911,0.58-1.366,1.351-1.366,2.312c0,0.929,0.472,1.782,1.417,2.562
		c0.944,0.779,2.163,1.301,3.654,1.566c1.126,0.167,2.18,0.49,3.157,0.97c0.979,0.481,1.823,1.069,2.536,1.765
		c0.712,0.696,1.275,1.476,1.69,2.337c0.413,0.862,0.621,1.74,0.621,2.635c0,1.028-0.224,1.973-0.671,2.834
		c-0.446,0.863-1.053,1.6-1.814,2.213c-0.764,0.614-1.658,1.086-2.686,1.417s-2.104,0.498-3.231,0.498
		c-1.492,0-3.025-0.348-4.601-1.044c-1.574-0.696-2.876-1.673-3.902-2.934l2.685-2.088c0.729,0.729,1.6,1.326,2.611,1.79
		c1.011,0.464,2.03,0.696,3.058,0.696c0.696,0,1.343-0.083,1.939-0.249s1.126-0.397,1.591-0.696
		c0.464-0.298,0.828-0.654,1.094-1.069c0.266-0.414,0.398-0.87,0.398-1.367c0-0.431-0.149-0.87-0.448-1.318
		c-0.298-0.447-0.68-0.861-1.144-1.243c-0.465-0.38-1.013-0.729-1.642-1.044c-0.63-0.315-1.26-0.555-1.89-0.721
		c-1.094-0.166-2.122-0.497-3.083-0.995c-0.962-0.497-1.815-1.094-2.562-1.79c-0.746-0.696-1.335-1.45-1.766-2.262
		s-0.646-1.649-0.646-2.511c0-0.994,0.231-1.906,0.696-2.735c0.464-0.828,1.085-1.542,1.865-2.138
		c0.778-0.597,1.689-1.052,2.735-1.367c1.044-0.314,2.146-0.472,3.307-0.472c1.591,0,3.14,0.356,4.648,1.069
		c1.509,0.713,2.792,1.616,3.854,2.71L120.625,32.553z"/>
	<path fill="#FFFFFF" d="M127.238,20.719c0-0.563,0.199-1.044,0.598-1.442c0.397-0.397,0.912-0.597,1.542-0.597
		c0.563,0,1.068,0.199,1.517,0.597s0.671,0.879,0.671,1.442c0,0.564-0.224,1.053-0.671,1.467c-0.447,0.415-0.953,0.621-1.517,0.621
		c-0.63,0-1.145-0.207-1.542-0.621C127.438,21.771,127.238,21.283,127.238,20.719z M127.636,26.935h3.48v24.912h-3.48V26.935z"/>
	<path fill="#FFFFFF" d="M143.746,44.885c0.065,0,0.106-0.008,0.124-0.025c0.017-0.016,0.058-0.025,0.125-0.025h0.099
		c0.166-0.066,0.373-0.099,0.622-0.099s0.473,0,0.671,0c1.425,0,2.76,0.216,4.003,0.646c1.243,0.432,2.32,1.012,3.232,1.741
		c0.911,0.729,1.633,1.591,2.163,2.585c0.529,0.994,0.796,2.056,0.796,3.183c0,1.126-0.267,2.195-0.796,3.207
		c-0.53,1.011-1.252,1.89-2.163,2.635c-0.912,0.746-1.989,1.343-3.232,1.79c-1.243,0.448-2.578,0.671-4.003,0.671
		c-1.359,0-2.652-0.224-3.878-0.671c-1.228-0.447-2.304-1.044-3.232-1.79s-1.666-1.625-2.213-2.635
		c-0.547-1.012-0.819-2.081-0.819-3.207c0-1.393,0.422-2.693,1.268-3.904c0.845-1.209,1.947-2.179,3.307-2.909
		c-0.1-0.265-0.157-0.547-0.174-0.845s-0.024-0.613-0.024-0.945c0-0.43,0.058-0.853,0.174-1.268
		c0.116-0.414,0.256-0.787,0.422-1.119c-2.056-1.657-3.083-3.795-3.083-6.415c0-1.193,0.265-2.328,0.795-3.406
		c0.53-1.077,1.243-2.022,2.138-2.834c0.896-0.812,1.956-1.45,3.183-1.915c1.226-0.464,2.536-0.696,3.928-0.696
		c0.828,0,1.524,0.05,2.088,0.149c0.563,0.1,1.127,0.216,1.691,0.348h9.646l-3.381,3.58h-1.442c0.465,0.664,0.838,1.41,1.119,2.238
		c0.281,0.829,0.423,1.674,0.423,2.536c0,1.26-0.266,2.42-0.796,3.481c-0.529,1.061-1.252,1.989-2.163,2.785
		c-0.911,0.795-1.988,1.417-3.23,1.864c-1.244,0.448-2.563,0.671-3.954,0.671c-0.497,0-0.938-0.033-1.317-0.1
		c-0.382-0.066-0.737-0.132-1.068-0.199c-0.598-0.166-1.062-0.249-1.393-0.249c-0.167,0-0.332,0.033-0.498,0.1
		c-0.166,0.066-0.249,0.183-0.249,0.348c0,0.298,0.092,0.49,0.273,0.572c0.182,0.083,0.373,0.124,0.572,0.124h0.25V44.885z
		 M138.773,52.891c0,0.663,0.174,1.284,0.522,1.864c0.348,0.58,0.829,1.085,1.441,1.517c0.613,0.431,1.317,0.779,2.113,1.044
		c0.795,0.265,1.642,0.398,2.536,0.398c0.928,0,1.807-0.133,2.635-0.398c0.829-0.266,1.549-0.614,2.164-1.044
		c0.613-0.431,1.094-0.937,1.442-1.517c0.348-0.58,0.521-1.202,0.521-1.864c0-0.63-0.174-1.235-0.521-1.815
		c-0.35-0.58-0.829-1.085-1.442-1.517c-0.614-0.431-1.335-0.779-2.164-1.044c-0.829-0.265-1.708-0.398-2.635-0.398
		c-0.895,0-1.74,0.133-2.536,0.398c-0.796,0.266-1.5,0.614-2.113,1.044c-0.613,0.431-1.094,0.937-1.441,1.517
		C138.948,51.656,138.773,52.26,138.773,52.891z M140.663,35.487c0,0.729,0.174,1.417,0.521,2.063
		c0.349,0.646,0.813,1.211,1.394,1.691c0.58,0.481,1.268,0.862,2.063,1.145c0.795,0.282,1.642,0.423,2.536,0.423
		c0.928,0,1.798-0.141,2.611-0.423c0.812-0.281,1.517-0.663,2.113-1.145c0.598-0.479,1.068-1.044,1.417-1.691
		c0.349-0.646,0.522-1.334,0.522-2.063s-0.175-1.425-0.522-2.088c-0.349-0.663-0.819-1.234-1.417-1.715
		c-0.597-0.48-1.302-0.862-2.113-1.144c-0.813-0.281-1.684-0.423-2.611-0.423c-0.895,0-1.74,0.142-2.536,0.423
		c-0.796,0.282-1.483,0.664-2.063,1.144c-0.581,0.481-1.044,1.053-1.394,1.715C140.837,34.062,140.663,34.758,140.663,35.487z"/>
	<path fill="#FFFFFF" d="M166.321,28.725c0.797-0.796,1.648-1.359,2.562-1.691c0.911-0.331,1.964-0.497,3.157-0.497
		c1.192,0,2.304,0.241,3.332,0.721c1.026,0.481,1.931,1.144,2.71,1.989c0.777,0.845,1.398,1.84,1.863,2.983
		c0.465,1.144,0.714,2.362,0.746,3.655l0.101,15.961h-3.58V35.885c0-0.795-0.149-1.549-0.448-2.262
		c-0.298-0.713-0.695-1.326-1.193-1.84c-0.496-0.514-1.067-0.92-1.715-1.218c-0.646-0.298-1.335-0.448-2.063-0.448
		c-0.63,0-1.243,0.142-1.84,0.423c-0.598,0.282-1.137,0.664-1.616,1.144c-0.48,0.481-0.896,1.037-1.243,1.666
		c-0.348,0.63-0.605,1.277-0.771,1.939v16.558h-3.53V29.868c0-0.431-0.167-0.928-0.497-1.492c-0.332-0.563-0.631-0.978-0.896-1.243
		h4.924v1.592H166.321z"/>
	<path fill="#FFFFFF" d="M194.515,48.713c0.464,0,0.979-0.057,1.541-0.174c0.563-0.116,1.127-0.273,1.69-0.472
		c0.563-0.199,1.119-0.415,1.666-0.646s1.052-0.448,1.517-0.646l1.393,3.132c-1.062,0.597-2.139,1.086-3.231,1.467
		c-1.094,0.381-2.188,0.671-3.281,0.87c-0.199,0.033-0.423,0.05-0.672,0.05c-0.248,0-0.456,0-0.621,0
		c-1.393,0-2.71-0.307-3.953-0.92s-2.354-1.458-3.332-2.536c-0.978-1.077-1.765-2.345-2.36-3.804
		c-0.598-1.458-0.945-3.016-1.044-4.674v-0.945c0-1.756,0.272-3.414,0.819-4.972c0.547-1.558,1.275-2.917,2.188-4.078
		c0.911-1.16,1.979-2.08,3.207-2.759c1.227-0.679,2.536-1.02,3.929-1.02c1.425,0,2.742,0.323,3.953,0.97
		c1.209,0.646,2.262,1.534,3.157,2.66c0.895,1.127,1.591,2.454,2.088,3.978c0.498,1.525,0.746,3.182,0.746,4.972v1.939h-16.359
		c0.133,1.094,0.398,2.105,0.796,3.033c0.397,0.928,0.902,1.724,1.518,2.387c0.612,0.664,1.316,1.193,2.112,1.591
		C192.774,48.515,193.619,48.713,194.515,48.713z M200.332,37.625c-0.133-1.061-0.391-2.046-0.771-2.958
		c-0.382-0.911-0.854-1.698-1.417-2.362c-0.563-0.663-1.202-1.176-1.915-1.542c-0.713-0.364-1.467-0.547-2.262-0.547
		c-0.764,0-1.484,0.191-2.163,0.572c-0.68,0.381-1.302,0.912-1.865,1.591c-0.563,0.68-1.044,1.467-1.44,2.362
		c-0.398,0.895-0.681,1.857-0.847,2.884H200.332z"/>
	<path fill="#FFFFFF" d="M225.741,50.951c-0.829,0.332-1.774,0.605-2.836,0.82s-2.12,0.356-3.182,0.423
		c-1.658-0.034-3.216-0.398-4.675-1.094c-1.459-0.696-2.734-1.624-3.828-2.784c-1.095-1.16-1.957-2.519-2.586-4.078
		c-0.63-1.558-0.944-3.215-0.944-4.972c0-1.723,0.314-3.356,0.944-4.898c0.629-1.542,1.491-2.884,2.586-4.028
		c1.094-1.144,2.361-2.046,3.804-2.71c1.441-0.663,2.991-0.994,4.649-0.994c1.259,0,2.361,0.083,3.307,0.249
		c0.944,0.166,1.864,0.481,2.761,0.945v-9.846h3.579v28.592c0,0.729,0.065,1.409,0.198,2.039c0.101,0.564,0.273,1.127,0.522,1.69
		c0.248,0.564,0.604,1.028,1.068,1.392h-5.37v-0.746H225.741z M211.172,39.266c0,1.26,0.215,2.445,0.646,3.555
		c0.431,1.111,1.035,2.088,1.814,2.934c0.778,0.845,1.689,1.525,2.735,2.039c1.044,0.515,2.162,0.788,3.355,0.821
		c0.828-0.033,1.607-0.116,2.337-0.249c0.729-0.132,1.367-0.29,1.914-0.473c0.547-0.182,0.979-0.389,1.293-0.622
		c0.314-0.231,0.474-0.464,0.474-0.696v-14.47c-0.199-0.464-0.863-0.895-1.989-1.293c-1.128-0.398-2.486-0.597-4.077-0.597
		c-1.193,0.033-2.305,0.298-3.332,0.795c-1.027,0.498-1.923,1.161-2.685,1.989c-0.765,0.829-1.368,1.782-1.815,2.859
		C211.396,36.938,211.172,38.073,211.172,39.266z"/>
	<path fill="#FFFFFF" d="M122.291,111.515h-4.624c0.265-0.364,0.464-0.837,0.597-1.417c0.132-0.58,0.249-1.151,0.348-1.716
		c0.1-0.629,0.183-1.309,0.249-2.039v-28.69h3.58v9.796c1.724-0.762,3.763-1.144,6.116-1.144c1.657,0,3.215,0.34,4.674,1.019
		c1.458,0.68,2.727,1.608,3.805,2.785c1.076,1.177,1.931,2.536,2.561,4.078c0.629,1.541,0.945,3.174,0.945,4.897
		c0,1.758-0.315,3.415-0.945,4.973c-0.63,1.559-1.492,2.917-2.586,4.077c-1.094,1.161-2.37,2.088-3.829,2.785
		c-1.459,0.696-3.017,1.061-4.674,1.094c-1.26-0.066-2.404-0.199-3.431-0.397c-1.028-0.199-1.956-0.48-2.785-0.846V111.515
		L122.291,111.515z M122.291,106.344c0,0.266,0.166,0.522,0.498,0.771c0.331,0.249,0.777,0.456,1.342,0.622
		c0.563,0.166,1.226,0.307,1.989,0.422c0.762,0.117,1.573,0.191,2.437,0.224c1.126-0.032,2.204-0.298,3.232-0.795
		c1.026-0.497,1.922-1.16,2.685-1.989c0.762-0.829,1.367-1.807,1.815-2.934c0.446-1.126,0.671-2.32,0.671-3.58
		c0-1.226-0.225-2.395-0.671-3.505c-0.448-1.11-1.054-2.088-1.815-2.934c-0.763-0.846-1.658-1.517-2.685-2.014
		c-1.028-0.497-2.105-0.746-3.232-0.746c-1.591,0-2.976,0.183-4.152,0.547c-1.177,0.365-1.881,0.779-2.112,1.243L122.291,106.344
		L122.291,106.344z"/>
	<path fill="#FFFFFF" d="M144.915,116.338c0.464,0.497,0.87,0.787,1.218,0.87s0.654,0.125,0.919,0.125
		c0.961,0,1.897-0.323,2.81-0.97c0.913-0.647,1.601-1.6,2.064-2.859c0.165-0.397,0.313-0.779,0.447-1.144
		c0.132-0.365,0.28-0.746,0.446-1.144c0.166-0.364,0.308-0.704,0.424-1.02c0.114-0.314,0.256-0.654,0.423-1.019
		c-0.232-0.563-0.465-1.135-0.696-1.716c-0.232-0.58-0.447-1.151-0.646-1.715c-0.598-1.425-1.243-2.983-1.939-4.674
		c-0.696-1.691-1.393-3.397-2.089-5.122c-0.696-1.724-1.384-3.414-2.063-5.072c-0.68-1.657-1.301-3.183-1.864-4.575h3.828
		l7.261,18.298c0.762-1.922,1.531-3.87,2.312-5.843c0.779-1.972,1.566-3.953,2.362-5.942c0.396-1.061,0.82-2.163,1.268-3.307
		c0.448-1.145,0.888-2.213,1.318-3.207h3.828l-9.349,23.072c-0.166,0.365-0.307,0.729-0.423,1.094
		c-0.115,0.365-0.257,0.729-0.423,1.094c-0.166,0.497-0.373,1.019-0.621,1.566c-0.249,0.547-0.456,1.102-0.622,1.666
		c-0.364,0.961-0.845,1.815-1.44,2.561c-0.598,0.746-1.262,1.383-1.989,1.914c-0.729,0.53-1.491,0.928-2.288,1.193
		c-0.796,0.265-1.591,0.398-2.387,0.398c-0.763,0-1.642-0.133-2.636-0.398L144.915,116.338z"/>
</g>
<g>
	<g opacity="0.9">
		<rect x="81.519" y="175.112" fill="#FFFFFF" width="21.813" height="21.778"/>
	</g>
	<rect x="106.646" y="175.112" fill="#FFFFFF" width="21.813" height="21.778"/>
	<g opacity="0.9">
		<rect x="81.519" y="200.206" fill="#FFFFFF" width="21.813" height="21.78"/>
	</g>
	<g opacity="0.4">
		<rect x="106.646" y="200.206" fill="#FFFFFF" width="21.813" height="21.78"/>
	</g>
	<g opacity="0.9">
		<rect x="106.646" y="225.301" fill="#FFFFFF" width="21.813" height="21.779"/>
	</g>
	<g opacity="0.9">
		<rect x="81.519" y="225.301" fill="#FFFFFF" width="21.813" height="21.779"/>
	</g>
	<g opacity="0.6">
		<rect x="131.773" y="175.112" fill="#FFFFFF" width="21.811" height="21.778"/>
	</g>
	<g opacity="0.6">
		<rect x="156.897" y="175.112" fill="#FFFFFF" width="21.813" height="21.778"/>
	</g>
	<g opacity="0.6">
		<rect x="131.773" y="200.206" fill="#FFFFFF" width="21.811" height="21.78"/>
	</g>
	<g opacity="0.2">
		<rect x="156.897" y="200.206" fill="#FFFFFF" width="21.813" height="21.78"/>
	</g>
	<g opacity="0.6">
		<rect x="182.025" y="200.206" fill="#FFFFFF" width="21.813" height="21.78"/>
	</g>
	<g opacity="0.6">
		<rect x="182.025" y="225.301" fill="#FFFFFF" width="21.813" height="21.779"/>
	</g>
	<g opacity="0.6">
		<rect x="182.025" y="175.112" fill="#FFFFFF" width="21.813" height="21.778"/>
	</g>
	<g opacity="0.6">
		<rect x="156.897" y="225.301" fill="#FFFFFF" width="21.813" height="21.779"/>
	</g>
	<g opacity="0.6">
		<rect x="131.773" y="225.301" fill="#FFFFFF" width="21.811" height="21.779"/>
	</g>
	<g opacity="0.6">
		<rect x="131.773" y="250.395" fill="#FFFFFF" width="21.811" height="21.778"/>
	</g>
</g>
<g>
	<g>
		<g>
			<path fill="#F1F2F2" d="M191,293.786c-0.01,0.007-0.151,0.106-0.414,0.325c-0.275,0.23-0.688,0.59-1.197,1.098
				c-1.025,1.01-2.457,2.598-4.104,4.775c-1.647,2.176-3.521,4.931-5.467,8.222c-1.941,3.293-3.969,7.11-6.013,11.36
				c-2.045,4.244-4.052,8.971-6.325,13.9c-2.263,4.936-4.731,10.107-7.522,15.342c-2.8,5.227-5.896,10.541-9.607,15.568
				c-1.862,2.505-3.878,4.945-6.197,7.122c-2.299,2.166-4.938,4.147-8.017,5.164c-3.094,1.021-6.513,0.911-9.504-0.3
				c-3-1.189-5.51-3.457-7.065-6.219c-1.565-2.769-2.173-5.967-2.051-9.039c0.103-3.09,0.93-6.063,2.049-8.814
				c1.143-2.754,2.612-5.3,4.275-7.629c1.696-2.316,3.679-4.328,5.807-6.029c4.262-3.418,8.981-5.648,13.438-7.23
				c4.477-1.57,8.736-2.506,12.533-3.123c3.801-0.61,7.146-0.907,9.902-1.059c5.519-0.295,8.674-0.064,8.674-0.064
				s-3.157-0.206-8.67,0.129c-2.754,0.172-6.095,0.492-9.884,1.132c-3.785,0.646-8.029,1.608-12.477,3.208
				c-4.429,1.607-9.104,3.863-13.298,7.279c-2.094,1.699-4.041,3.707-5.691,5.996c-1.626,2.313-3.066,4.852-4.17,7.572
				c-1.083,2.719-1.872,5.645-1.948,8.651c-0.098,2.993,0.518,6.075,2.039,8.72c1.512,2.639,3.925,4.778,6.787,5.891
				c2.847,1.132,6.111,1.201,9.004,0.225c2.937-0.99,5.465-2.913,7.703-5.053c2.252-2.145,4.224-4.565,6.045-7.057
				c3.634-4.998,6.672-10.302,9.417-15.521c2.738-5.228,5.161-10.399,7.381-15.339c2.23-4.936,4.198-9.667,6.229-13.967
				c2.026-4.295,4.042-8.162,5.982-11.508c1.944-3.346,3.825-6.158,5.493-8.396c1.667-2.239,3.133-3.895,4.208-4.967
				c0.534-0.539,0.977-0.932,1.283-1.192c0.148-0.131,0.292-0.235,0.374-0.303c0.08-0.06,0.12-0.091,0.12-0.091
				c0.33-0.25,0.801-0.186,1.051,0.146c0.251,0.33,0.186,0.802-0.146,1.052C191.021,293.771,191.008,293.781,191,293.786z"/>
		</g>
		<g>
			<path fill="#F1F2F2" d="M255.32,319.379c0,0-0.138,0.202-0.444,0.57c-0.305,0.371-0.776,0.882-1.439,1.472
				c-0.662,0.586-1.506,1.267-2.576,1.896c-1.073,0.613-2.352,1.264-3.936,1.498c-0.783,0.113-1.681,0.086-2.523-0.318
				c-0.846-0.395-1.504-1.191-1.846-2.059c-0.353-0.856-0.483-1.834-0.543-2.717c-0.063-0.947-0.044-1.879,0.042-2.834
				c0.364-3.816,1.615-7.693,3.12-11.41c1.517-3.723,3.313-7.313,5.134-10.594c1.813-3.287,3.614-6.287,5.211-8.826
				c1.604-2.533,2.982-4.615,3.953-6.068c0.979-1.448,1.537-2.275,1.537-2.275c0.075-0.111,0.226-0.141,0.337-0.064
				c0.108,0.074,0.138,0.223,0.067,0.332c0,0-0.537,0.842-1.478,2.312c-0.932,1.476-2.256,3.587-3.789,6.153
				c-1.529,2.566-3.307,5.568-5.059,8.863c-1.753,3.291-3.522,6.858-5.017,10.532c-1.478,3.669-2.687,7.481-3.023,11.136
				c-0.081,0.904-0.122,1.817-0.073,2.668c0.049,0.912,0.154,1.705,0.439,2.444c0.278,0.726,0.758,1.304,1.376,1.606
				c0.62,0.306,1.344,0.367,2.038,0.297c1.398-0.146,2.654-0.708,3.699-1.258c1.044-0.574,1.915-1.157,2.59-1.693
				c0.677-0.531,1.166-1.004,1.485-1.329c0.32-0.325,0.481-0.524,0.481-0.524c0.053-0.063,0.146-0.074,0.212-0.021
				c0.062,0.05,0.073,0.139,0.03,0.201L255.32,319.379z"/>
		</g>
		<g>
			<path fill="#F1F2F2" d="M177.284,307.783c0,0,0.222-0.125,0.637-0.359c0.429-0.234,1.054-0.58,1.865-0.979
				c0.813-0.399,1.809-0.866,2.988-1.324c1.182-0.455,2.539-0.919,4.092-1.23c0.775-0.152,1.603-0.265,2.479-0.271
				c0.872-0.001,1.823,0.103,2.744,0.552c0.455,0.23,0.89,0.571,1.212,1.012c0.159,0.221,0.291,0.457,0.397,0.707
				c0.097,0.266,0.164,0.422,0.237,0.684c0.289,0.98,0.371,2.014,0.174,3.041c-0.198,1.021-0.649,1.984-1.241,2.83
				c-0.601,0.845-1.325,1.582-2.098,2.264c-1.571,1.331-3.376,2.367-5.163,3.335c-1.803,0.963-3.604,1.919-5.527,2.621
				c-0.499,0.151-0.948,0.354-1.607,0.295c-0.081-0.013-0.198-0.052-0.28-0.108c-0.097-0.052-0.233-0.256-0.211-0.404
				c0.035-0.299,0.168-0.383,0.262-0.502c0.204-0.205,0.415-0.353,0.629-0.492c0.856-0.547,1.746-0.947,2.626-1.334
				c3.535-1.491,6.958-2.502,9.896-3.329c2.942-0.815,5.419-1.397,7.154-1.792c1.738-0.381,2.73-0.6,2.73-0.6
				s-0.987,0.24-2.717,0.662c-1.725,0.436-4.186,1.074-7.103,1.957c-2.91,0.893-6.309,1.983-9.768,3.541
				c-0.854,0.397-1.729,0.82-2.518,1.35c-0.192,0.132-0.383,0.275-0.521,0.426c-0.066,0.063-0.115,0.175-0.099,0.129
				c0.018-0.023-0.048-0.109-0.042-0.094c0.021,0.011,0.025,0.013,0.064,0.02c0.337,0.029,0.855-0.141,1.295-0.303
				c1.824-0.713,3.609-1.708,5.368-2.701c1.763-1.006,3.48-2.053,4.94-3.348c1.43-1.297,2.636-2.865,2.917-4.604
				c0.147-0.852,0.048-1.736-0.196-2.508c-0.049-0.179-0.164-0.443-0.225-0.604c-0.077-0.166-0.169-0.321-0.274-0.463
				c-0.216-0.28-0.501-0.496-0.827-0.653c-1.364-0.603-3.048-0.371-4.451-0.076c-1.436,0.323-2.724,0.795-3.844,1.257
				c-1.119,0.465-2.07,0.938-2.847,1.34c-0.776,0.403-1.369,0.75-1.771,0.98c-0.409,0.244-0.627,0.374-0.627,0.374
				c-0.356,0.212-0.816,0.096-1.028-0.261c-0.213-0.355-0.096-0.815,0.26-1.027C177.273,307.789,177.28,307.785,177.284,307.783z"/>
		</g>
		<g>
			<path fill="#F1F2F2" d="M203.335,304.475c0,0-0.275,0.48-0.729,1.373c-0.455,0.885-1.07,2.17-1.809,3.713
				c-0.731,1.545-1.545,3.369-2.353,5.34c-0.396,0.986-0.784,2.016-1.109,3.07c-0.161,0.528-0.309,1.063-0.409,1.598
				c-0.101,0.521-0.176,1.095-0.075,1.484c0.093,0.355,0.439,0.549,0.938,0.608c0.482,0.058,1.021-0.032,1.54-0.157
				c1.044-0.27,2.048-0.717,2.99-1.195c1.893-0.961,3.568-2.061,4.978-3.033c1.409-0.978,2.563-1.823,3.361-2.432
				c0.796-0.611,1.25-0.959,1.25-0.959s-0.431,0.379-1.183,1.043c-0.758,0.657-1.844,1.596-3.204,2.655
				c-1.367,1.048-2.993,2.243-4.885,3.321c-0.954,0.523-1.971,1.027-3.104,1.361c-0.569,0.156-1.167,0.289-1.824,0.24
				c-0.326-0.025-0.674-0.1-1.003-0.289c-0.166-0.099-0.313-0.213-0.449-0.386c-0.081-0.101-0.122-0.171-0.153-0.226
				c-0.063-0.115-0.096-0.196-0.124-0.291c-0.195-0.728-0.089-1.323-0.007-1.92c0.101-0.59,0.245-1.154,0.403-1.709
				c0.317-1.105,0.695-2.162,1.082-3.176c0.769-2.025,1.611-3.857,2.347-5.42c0.732-1.564,1.408-2.835,1.884-3.727
				c0.476-0.887,0.78-1.393,0.78-1.393l0.003-0.006c0.143-0.236,0.45-0.313,0.688-0.17
				C203.393,303.938,203.47,304.238,203.335,304.475z"/>
		</g>
		
			<line fill="none" stroke="#F1F2F2" stroke-width="1.5" stroke-linecap="round" stroke-miterlimit="10" x1="206.631" y1="296.7" x2="203.976" y2="299.256"/>
		<g>
			<path fill="#F1F2F2" d="M213.07,304.754c0,0,0.049,1.438,0.339,3.605c0.14,1.082,0.342,2.34,0.608,3.679
				c0.268,1.338,0.607,2.754,1.014,4.151c0.221,0.692,0.405,1.398,0.659,2.067c0.24,0.675,0.464,1.345,0.737,1.97
				c0.26,0.629,0.502,1.244,0.786,1.801c0.28,0.558,0.506,1.106,0.789,1.572c0.269,0.475,0.514,0.91,0.73,1.297
				c0.232,0.375,0.456,0.69,0.629,0.957c0.354,0.529,0.556,0.832,0.556,0.832l0.01,0.016c0.068,0.104,0.041,0.24-0.063,0.309
				c-0.101,0.067-0.235,0.041-0.306-0.058c0,0-0.212-0.304-0.584-0.832c-0.183-0.267-0.418-0.583-0.664-0.962
				c-0.229-0.387-0.491-0.823-0.773-1.301c-0.302-0.467-0.543-1.019-0.842-1.58c-0.303-0.561-0.563-1.178-0.843-1.812
				c-0.293-0.63-0.536-1.303-0.796-1.981c-0.273-0.676-0.479-1.387-0.719-2.086c-0.446-1.408-0.826-2.838-1.129-4.188
				c-0.305-1.353-0.539-2.624-0.707-3.722c-0.347-2.186-0.433-3.682-0.433-3.682l-0.001-0.008c-0.016-0.275,0.195-0.513,0.472-0.527
				c0.275-0.016,0.513,0.193,0.527,0.471C213.07,304.745,213.07,304.751,213.07,304.754z"/>
		</g>
		<g>
			<path fill="#F1F2F2" d="M230.226,304.656c0,0-0.769,0.432-2.087,1.221c-0.65,0.404-1.441,0.896-2.348,1.458
				c-0.904,0.567-1.943,1.179-3.016,1.942c-1.086,0.744-2.261,1.552-3.504,2.404c-0.617,0.434-1.271,0.85-1.901,1.328
				c-0.621,0.489-1.256,0.99-1.9,1.5c-1.291,1.018-2.625,2.069-3.979,3.139c-1.362,1.063-2.653,2.263-3.965,3.428
				c-2.597,2.359-5.109,4.82-7.182,7.363c-1.033,1.271-1.954,2.563-2.678,3.867c-0.729,1.299-1.222,2.641-1.358,3.909
				c-0.163,1.275,0.203,2.442,0.777,3.289c0.586,0.851,1.319,1.425,1.957,1.824c0.645,0.392,1.181,0.655,1.561,0.806
				c0.375,0.16,0.574,0.245,0.574,0.245l0.013,0.005c0.087,0.037,0.127,0.139,0.09,0.225c-0.035,0.086-0.136,0.127-0.222,0.092
				c0,0-0.206-0.085-0.592-0.244c-0.39-0.148-0.946-0.413-1.62-0.813c-0.666-0.408-1.45-1-2.094-1.912
				c-0.635-0.905-1.048-2.194-0.889-3.557c0.132-1.359,0.635-2.763,1.367-4.105c0.729-1.35,1.651-2.676,2.685-3.977
				c2.069-2.603,4.572-5.109,7.155-7.513c1.307-1.188,2.583-2.403,3.941-3.489c1.354-1.092,2.683-2.168,3.971-3.207
				c0.646-0.521,1.278-1.033,1.898-1.533c0.628-0.49,1.282-0.916,1.896-1.358c1.241-0.873,2.414-1.698,3.497-2.46
				c1.069-0.782,2.111-1.412,3.018-1.995c0.909-0.579,1.702-1.084,2.354-1.499c1.315-0.809,2.076-1.248,2.076-1.248l0.007-0.004
				c0.239-0.139,0.545-0.057,0.685,0.184c0.138,0.238,0.056,0.545-0.184,0.684C230.23,304.652,230.227,304.654,230.226,304.656z"/>
		</g>
		<g>
			<path fill="#F1F2F2" d="M228.576,311.518c0,0,0.871,0.08,2.425,0.08c0.774,0.002,1.717-0.037,2.791-0.138
				c1.071-0.104,2.284-0.265,3.554-0.62c1.261-0.357,2.625-0.859,3.705-1.888c0.511-0.499,0.988-1.128,1.139-1.83
				c0.162-0.699-0.121-1.438-0.744-1.854c-0.608-0.43-1.439-0.562-2.237-0.465c-0.195,0.024-0.413,0.059-0.589,0.112
				c-0.207,0.062-0.427,0.114-0.604,0.198c-0.372,0.143-0.763,0.341-1.135,0.549c-1.5,0.85-2.88,1.986-4.136,3.227
				c-1.243,1.254-2.383,2.623-3.282,4.104c-0.907,1.475-1.589,3.051-2.041,4.638c-0.439,1.577-0.715,3.187-0.48,4.612
				c0.123,0.707,0.418,1.344,0.898,1.758c0.48,0.415,1.117,0.598,1.742,0.639c1.268,0.07,2.463-0.271,3.474-0.604
				c1.017-0.351,1.883-0.729,2.59-1.052c1.413-0.656,2.19-1.1,2.19-1.1c0.092-0.052,0.207-0.02,0.259,0.071
				c0.051,0.088,0.021,0.2-0.063,0.254l-0.008,0.005c0,0-0.764,0.477-2.168,1.199c-0.703,0.357-1.566,0.781-2.613,1.152
				c-1.042,0.361-2.267,0.748-3.697,0.699c-0.705-0.037-1.495-0.229-2.132-0.761c-0.638-0.528-1.007-1.329-1.157-2.131
				c-0.304-1.625,0-3.308,0.474-4.944c0.479-1.642,1.196-3.273,2.148-4.8c0.942-1.528,2.123-2.927,3.407-4.207
				c1.301-1.265,2.714-2.425,4.292-3.308c0.396-0.219,0.793-0.42,1.238-0.586c0.222-0.098,0.428-0.146,0.638-0.207
				c0.24-0.069,0.454-0.1,0.688-0.129c0.906-0.104,1.88,0.037,2.655,0.582c0.797,0.521,1.2,1.582,0.974,2.47
				c-0.205,0.892-0.746,1.569-1.326,2.136c-1.166,1.118-2.621,1.688-3.919,2.074c-2.642,0.742-4.916,0.893-6.494,0.998
				c-1.583,0.093-2.502,0.063-2.502,0.063h-0.011c-0.276-0.009-0.493-0.24-0.483-0.517c0.009-0.274,0.239-0.492,0.517-0.483
				C228.556,311.516,228.567,311.516,228.576,311.518z"/>
		</g>
		<g>
			<path fill="#F1F2F2" d="M277.338,300.834c0,0-0.07-0.027-0.204-0.082c-0.107-0.033-0.27-0.087-0.53-0.127
				c-0.502-0.087-1.299-0.1-2.312,0.031c-2.021,0.293-4.899,1.164-8.039,2.84c-1.564,0.835-3.191,1.902-4.655,3.293
				c-0.725,0.699-1.402,1.484-1.95,2.359c-0.548,0.871-0.928,1.863-0.971,2.867c-0.043,1.006,0.362,1.982,1.048,2.793
				c0.336,0.412,0.751,0.772,1.191,1.108c0.44,0.331,0.967,0.69,1.418,1.129c0.454,0.433,0.88,0.931,1.17,1.55
				c0.29,0.613,0.381,1.387,0.157,2.063c-0.47,1.363-1.603,2.146-2.663,2.755c-1.098,0.599-2.267,1.011-3.465,1.282
				c-0.601,0.134-1.209,0.229-1.833,0.259c-0.625-0.005-1.263,0.069-1.97-0.392c-0.171-0.129-0.332-0.363-0.357-0.611l-0.011-0.092
				l0.005-0.092c0.003-0.037,0.001-0.063,0.016-0.134c0.022-0.129,0.058-0.218,0.09-0.303c0.146-0.335,0.343-0.586,0.543-0.826
				c0.406-0.472,0.854-0.866,1.309-1.243c0.91-0.748,1.861-1.398,2.813-2.011c3.822-2.421,7.637-4.228,10.97-5.595
				c3.346-1.35,6.228-2.219,8.269-2.721s3.23-0.672,3.23-0.672c0.045-0.01,0.087,0.02,0.097,0.064
				c0.008,0.043-0.023,0.086-0.066,0.095c0,0-1.181,0.2-3.198,0.754c-2.016,0.552-4.858,1.491-8.146,2.919
				c-3.284,1.418-7.061,3.258-10.797,5.701c-0.929,0.616-1.855,1.271-2.722,2.002c-0.431,0.365-0.852,0.752-1.201,1.172
				c-0.173,0.209-0.332,0.432-0.415,0.639c-0.021,0.054-0.035,0.103-0.039,0.117c-0.008,0.002-0.009,0.051-0.011,0.086
				c0,0.002-0.004,0.071-0.002,0.02l0.005,0.018c0.009,0.045,0.022,0.073,0.086,0.123c0.29,0.209,0.93,0.242,1.466,0.209
				c0.563-0.033,1.133-0.131,1.694-0.264c1.123-0.271,2.229-0.682,3.229-1.245c0.978-0.56,1.929-1.323,2.22-2.276
				c0.308-0.941-0.3-1.933-1.115-2.66c-0.764-0.719-1.932-1.309-2.722-2.287c-0.821-0.936-1.328-2.219-1.258-3.473
				c0.059-1.256,0.595-2.365,1.219-3.295c0.638-0.935,1.396-1.726,2.181-2.422c1.566-1.406,3.263-2.432,4.843-3.322
				c3.188-1.746,6.113-2.664,8.231-3.004c1.06-0.183,1.926-0.211,2.535-0.132c0.296,0.031,0.55,0.097,0.72,0.149
				c0.138,0.048,0.207,0.072,0.207,0.072c0.227,0.08,0.344,0.328,0.264,0.553c-0.079,0.226-0.327,0.344-0.553,0.264
				C277.351,300.839,277.343,300.836,277.338,300.834z"/>
		</g>
	</g>
	<g>
		<path fill="#F1F2F2" d="M38.44,294.956c1.747,0.757,3.282,1.784,4.605,3.085l-4.077,4.077c-1.717-1.692-3.756-2.539-6.116-2.539
			c-2.385,0-4.42,0.851-6.106,2.548c-1.688,1.699-2.53,3.734-2.53,6.107c0,2.385,0.843,4.42,2.53,6.106
			c1.687,1.687,3.723,2.53,6.106,2.53s4.423-0.848,6.116-2.539l4.077,4.076c-1.323,1.313-2.858,2.347-4.605,3.104
			c-1.747,0.758-3.608,1.137-5.588,1.137c-3.97,0-7.365-1.41-10.185-4.229c-2.82-2.819-4.229-6.214-4.229-10.185
			c0-3.959,1.41-7.351,4.229-10.176c2.818-2.826,6.214-4.238,10.185-4.238C34.831,293.82,36.694,294.199,38.44,294.956z"/>
		<path fill="#F1F2F2" d="M62.402,293.82v5.759H50.886v5.776h8.638v5.758h-8.638v5.759h11.517v5.776H50.886H45.11v-11.535v-5.758
			V293.82H62.402z"/>
		<path fill="#F1F2F2" d="M65.001,313.993v-10.087V293.82h5.775h4.311c2.778,0,5.157,0.99,7.136,2.969
			c1.979,1.979,2.969,4.352,2.969,7.117c0,2.777-0.989,5.154-2.969,7.127c-1.979,1.974-4.356,2.96-7.136,2.96h-4.311v8.655h-5.775
			V313.993z M75.087,308.234c1.191,0,2.212-0.424,3.058-1.271c0.848-0.847,1.271-1.866,1.271-3.06c0-1.18-0.423-2.195-1.271-3.049
			c-0.846-0.853-1.866-1.277-3.058-1.277h-4.311v4.326v4.328h4.311V308.234z"/>
		<path fill="#F1F2F2" d="M87.379,293.82h5.775v28.828h-5.775V293.82z"/>
		<path fill="#F1F2F2" d="M101.975,293.82v23.052h11.518v5.776H96.199V293.82H101.975z"/>
		<path fill="#F1F2F2" d="M121.867,293.82v23.052h11.517v5.776H116.09V293.82H121.867z"/>
		<path fill="#F1F2F2" d="M160.571,298.059c2.826,2.826,4.238,6.219,4.238,10.176c0,3.972-1.412,7.365-4.238,10.186
			c-2.824,2.818-6.217,4.229-10.176,4.229c-3.969,0-7.364-1.41-10.184-4.229c-2.82-2.818-4.229-6.214-4.229-10.186
			c0-3.957,1.41-7.35,4.229-10.176c2.818-2.824,6.214-4.238,10.184-4.238C154.354,293.82,157.746,295.232,160.571,298.059z
			 M144.289,302.127c-1.688,1.699-2.53,3.734-2.53,6.107c0,2.385,0.843,4.42,2.53,6.106c1.687,1.687,3.723,2.53,6.105,2.53
			c2.373,0,4.408-0.844,6.107-2.53c1.699-1.688,2.549-3.723,2.549-6.106c0-2.373-0.85-4.408-2.549-6.107
			c-1.699-1.697-3.734-2.548-6.107-2.548C148.012,299.579,145.976,300.43,144.289,302.127z"/>
	</g>
</g>
</svg>
