<?xml version="1.0" encoding="utf-8"?>
<!-- Generator: Adobe Illustrator 16.0.0, SVG Export Plug-In . SVG Version: 6.00 Build 0)  -->
<!DOCTYPE svg PUBLIC "-//W3C//DTD SVG 1.1//EN" "http://www.w3.org/Graphics/SVG/1.1/DTD/svg11.dtd">
<svg version="1.1" id="Layer_1" xmlns="http://www.w3.org/2000/svg" xmlns:xlink="http://www.w3.org/1999/xlink" x="0px" y="0px"
	 width="100px" height="100px" viewBox="0 0 100 100" enable-background="new 0 0 100 100" xml:space="preserve">
<circle fill="#FFFFFF" cx="50" cy="50" r="50"/>
<circle fill="#D33C00" cx="50" cy="50" r="46"/>
<g>
	<g>
		<path fill="#FFFFFF" d="M17.295,53.895c-1.029,5.529,0.781,6.079,3.434,7.453l2.957-12.602
			C20.698,48.797,18.326,48.364,17.295,53.895z"/>
		<path fill="#FFFFFF" d="M25.681,49.018l-3.046,12.976c3.47,0.614,6.857-1.575,7.671-5.046
			C31.121,53.476,29.062,50.008,25.681,49.018z"/>
		<path fill="#FFFFFF" d="M20.729,61.348l-0.943,4.022l1.951,0.458l0.899-3.834c-0.119-0.022-0.24-0.04-0.358-0.066
			C21.724,61.796,21.209,61.597,20.729,61.348z"/>
		<path fill="#FFFFFF" d="M73.4,23.285c-4.125,0.133-8.249,0.27-12.374,0.403c-4.733,0.153-4.748,7.515,0,7.359
			c2.057-0.066,4.112-0.134,6.167-0.201c-1.199,2.135-2.5,4.245-3.94,6.223c-0.387-0.418-0.887-0.769-1.521-1.003
			c-5.24-1.926-10.627-3.794-15.889-5.915c0.323-1.618-0.6-3.253-2.206-3.763c-1.397-0.443-2.854,0.107-3.656,1.244
			c-2.01-0.928-3.988-1.904-5.907-2.97c-4.152-2.308-7.863,4.049-3.714,6.354c2.342,1.302,4.762,2.492,7.23,3.605l-4.892,15.42
			c-0.813,0.972-1.313,2.219-1.323,3.754c-0.012,1.864,1.033,3.934,2.612,5.186V81.44c0,1.81,1.467,3.276,3.277,3.276
			c1.808,0,3.273-1.467,3.273-3.276V59.646c9.176-1.658,17.249-5.701,23.987-12.442c0.451-0.451,0.803-0.922,1.078-1.402
			c4.594-4.843,8.062-11.209,10.974-16.979C77.778,26.442,76.342,23.188,73.4,23.285z M40.512,47.081l3.14-9.905
			c3.121,1.242,6.274,2.411,9.418,3.551C49.401,43.756,45.162,46.006,40.512,47.081z"/>
	</g>
</g>
</svg>
