<?xml version="1.0" encoding="utf-8"?>
<!-- Generator: Adobe Illustrator 16.0.0, SVG Export Plug-In . SVG Version: 6.00 Build 0)  -->
<!DOCTYPE svg PUBLIC "-//W3C//DTD SVG 1.1//EN" "http://www.w3.org/Graphics/SVG/1.1/DTD/svg11.dtd">
<svg version="1.1" id="Layer_1" xmlns="http://www.w3.org/2000/svg" xmlns:xlink="http://www.w3.org/1999/xlink" x="0px" y="0px"
	 width="100px" height="100px" viewBox="0 0 100 100" enable-background="new 0 0 100 100" xml:space="preserve">
<circle fill="#FFFFFF" cx="50" cy="50" r="50"/>
<circle fill="#004213" cx="50" cy="50" r="46"/>
<g>
	<path fill="#FFFFFF" d="M53.43,44.239l2.012-2.012c-0.043-0.041-0.086-0.072-0.129-0.107h-0.004l0,0l-1.984,1.988
		C53.355,44.151,53.391,44.198,53.43,44.239z M45.027,51.32l-0.113,0.117l-0.121-0.117l0.117-0.119L45.027,51.32z M45.574,51.859
		l-0.117,0.113l0.121,0.117l0.109-0.113l0.645,0.643l7.941-7.942c0.07,0.014,0.141,0.023,0.215,0.025l1.414-1.416
		c0-0.072-0.012-0.146-0.023-0.217l-1.609,1.607c-0.297-0.047-0.59-0.186-0.824-0.418c-0.004-0.006-0.008-0.014-0.016-0.02
		l-7.742,7.737L45.574,51.859z M50.875,39.675c-1.18,1.182-0.238,2.633-2.09,3.705c-1.855,1.068-4.613,0.496-6.598,2.48
		c-2.816,2.813-2.898,7.29-0.188,10.007c2.715,2.708,7.191,2.626,10.012-0.188c1.98-1.984,0.664-5.021,2.184-6.893
		c0.633-0.953,2.77-0.953,3.996-1.798c1.746-1.742,1.984-4.424,0.707-6.426l4.742-4.738c0.762,0.174,1.586-0.029,2.18-0.623
		l2.488-2.488c0.918-0.918,0.918-2.402,0-3.32c-0.918-0.914-2.402-0.914-3.324,0L62.5,31.882c-0.598,0.594-0.797,1.422-0.625,2.184
		l-4.781,4.779C55.125,37.714,52.566,37.987,50.875,39.675z M53.41,42.208c0.242-0.246,0.563-0.373,0.887-0.396l-1.281,1.283
		C53.039,42.767,53.164,42.45,53.41,42.208z M63.801,32.31c-0.16-0.197-0.152-0.48,0.027-0.662c0.199-0.195,0.512-0.195,0.707,0
		c0.191,0.195,0.191,0.51,0,0.703c-0.168,0.168-0.418,0.186-0.605,0.068l-9.398,9.393c0.277,0.025,0.547,0.129,0.777,0.309l0,0
		c0,0,0,0,0.004,0l9.113-9.117c0.02-0.059,0.043-0.113,0.086-0.162c0.145-0.139,0.371-0.139,0.516,0
		c0.141,0.143,0.141,0.371,0,0.512c-0.145,0.143-0.371,0.143-0.516,0c-0.031-0.033-0.059-0.076-0.074-0.119l-8.996,8.994
		c0.008,0.006,0.02,0.01,0.023,0.018c0.234,0.234,0.375,0.527,0.422,0.828l9.176-9.18c0.02-0.055,0.047-0.105,0.086-0.148
		c0.148-0.146,0.387-0.146,0.531,0c0.148,0.146,0.148,0.387,0,0.531c-0.145,0.146-0.383,0.146-0.531,0
		c-0.039-0.039-0.07-0.092-0.086-0.145l-9.156,9.156c0.004,0.369-0.133,0.736-0.406,1.012c-0.277,0.273-0.645,0.41-1.012,0.404
		l-8.035,8.034l-0.117-0.119l-0.113,0.119l0.117,0.117l0.113-0.113l0.711,0.711l-1.031,1.027l-3.156-3.16l1.027-1.027l0.906,0.906
		l8.102-8.099c-0.008,0.076-0.008,0.154,0,0.232l-7.98,7.981l0.543,0.549l7.75-7.755c-0.18-0.234-0.285-0.502-0.313-0.775
		l1.52-1.521c-0.078-0.004-0.152-0.004-0.23,0L63.801,32.31z M57.605,55.211c-0.086-1.971-0.199-3.939-0.332-5.902
		c-0.367,0.121-0.707,0.262-0.793,0.389l-0.063,0.084c-0.523,0.643-0.602,1.586-0.691,2.676c-0.125,1.508-0.266,3.213-1.66,4.609
		c-1.672,1.669-3.871,2.587-6.191,2.587c-0.578,0-1.145-0.059-1.695-0.168c-2.227,6.569-4.387,13.163-6.668,19.71
		c-1.5,4.289,5.297,6.125,6.781,1.871c2.172-6.242,4.227-12.52,6.344-18.782c2.91,0.613,5.938,1.449,7.488,4.192
		c1.387,2.473-0.156,6.164-1.082,8.488c-1.949,4.859,5.898,6.941,7.82,2.157c1.957-4.888,2.516-9.868,0.266-14.736
		C65.391,58.646,61.5,56.449,57.605,55.211z M64.621,37.757c-0.234-0.133-0.508-0.211-0.789-0.258
		c-0.328-0.014-0.59-0.049-0.957,0.031c-0.141,0.031-0.266,0.121-0.336,0.26l-0.012,0.018c-0.168,0.336-0.223,0.561-0.367,0.822
		c-0.098,0.227-0.203,0.426-0.285,0.584c-0.188,0.33-0.203,0.969-0.223,1.191c-0.02,0.227-0.086,0.496-0.188,0.787
		c-0.082,0.301-0.195,0.623-0.316,0.957c-0.219,0.68-0.496,1.434-0.488,2.213c0,0.047,0.016,0.094,0.043,0.139
		c0.074,0.113,0.234,0.143,0.344,0.068l0.008-0.006c0.598-0.398,1.164-0.666,1.789-0.99c0.301-0.172,0.609-0.346,0.934-0.561
		c0.309-0.227,0.621-0.49,0.934-0.832c0.309-0.344,0.695-0.74,0.98-1.299c0.277-0.555,0.309-1.275,0.07-1.854
		C65.52,38.446,65.117,38.007,64.621,37.757z M44.078,42.261c0.379-0.086,0.75-0.156,1.109-0.223
		c0.879-0.162,1.711-0.316,2.324-0.67c0.668-0.389,0.738-0.736,0.883-1.436c0.133-0.664,0.305-1.49,1.07-2.258
		c1.23-1.229,5.441-0.799,7.18-0.799c0.023,0,0.047,0.004,0.074,0.004c-0.137-0.912-0.277-1.822-0.438-2.732
		c-0.348-5.035-11.344-3.951-11.984-3.131c-3.469-2.33-7.098-4.406-10.829-6.293c-3.385-1.713-6.371,3.374-2.975,5.09
		c4.518,2.287,8.881,4.844,12.991,7.805C43.723,39.163,43.914,40.71,44.078,42.261z M48,16.518c3.238,0,5.863,2.625,5.863,5.863
		c0,3.235-2.625,5.862-5.863,5.862c-3.234,0-5.859-2.627-5.859-5.862C42.141,19.143,44.766,16.518,48,16.518z"/>
</g>
</svg>
