<?xml version="1.0" encoding="utf-8"?>
<!-- Generator: Adobe Illustrator 16.0.0, SVG Export Plug-In . SVG Version: 6.00 Build 0)  -->
<!DOCTYPE svg PUBLIC "-//W3C//DTD SVG 1.1//EN" "http://www.w3.org/Graphics/SVG/1.1/DTD/svg11.dtd">
<svg version="1.1" id="Layer_1" xmlns="http://www.w3.org/2000/svg" xmlns:xlink="http://www.w3.org/1999/xlink" x="0px" y="0px"
	 width="100px" height="100px" viewBox="0 0 100 100" enable-background="new 0 0 100 100" xml:space="preserve">
<circle fill="#FFFFFF" cx="50" cy="50" r="50"/>
<g>
	<path fill="#FAD55C" d="M50,8c23.197,0,42,18.802,42,42S73.197,92,50,92C26.802,92,8,73.198,8,50S26.802,8,50,8z"/>
	<polygon fill="#F8F8F8" points="29.755,24.012 61.813,24.012 70.244,32.462 70.244,75.987 29.755,75.987 	"/>
	<polygon fill="#AF0000" points="29.755,24.012 61.813,24.012 70.244,32.462 70.244,36.514 29.755,36.514 	"/>
	<polygon fill="#EBECEC" points="61.813,24.012 61.813,32.462 70.244,32.462 	"/>
	<path fill="#F8F8F8" d="M32.642,34.02v-7.333h2.379c0.902,0,1.493,0.033,1.755,0.115c0.428,0.115,0.771,0.344,1.051,0.722
		c0.279,0.361,0.426,0.853,0.426,1.427c0,0.443-0.082,0.82-0.246,1.132c-0.163,0.312-0.377,0.541-0.623,0.722
		s-0.508,0.295-0.771,0.344c-0.36,0.066-0.869,0.099-1.541,0.099h-0.969v2.772H32.642z M34.135,27.917V30h0.804
		c0.591,0,0.968-0.033,1.165-0.115s0.344-0.197,0.459-0.361s0.164-0.361,0.164-0.574c0-0.262-0.082-0.492-0.229-0.656
		c-0.164-0.181-0.36-0.279-0.591-0.328c-0.18-0.033-0.525-0.049-1.066-0.049H34.135z M39.483,26.67h2.708
		c0.606,0,1.065,0.049,1.394,0.147c0.428,0.131,0.805,0.345,1.1,0.673c0.313,0.328,0.541,0.722,0.705,1.198
		c0.164,0.476,0.246,1.05,0.246,1.739c0,0.607-0.082,1.116-0.229,1.559c-0.182,0.542-0.443,0.968-0.788,1.296
		c-0.263,0.246-0.606,0.443-1.034,0.59c-0.328,0.099-0.754,0.164-1.313,0.164h-2.789V26.67z M40.977,27.917v4.856h1.099
		c0.41,0,0.706-0.017,0.886-0.065c0.246-0.066,0.443-0.165,0.591-0.312c0.164-0.147,0.296-0.377,0.394-0.706
		c0.099-0.328,0.148-0.771,0.148-1.345s-0.05-1.001-0.148-1.313c-0.098-0.312-0.246-0.542-0.41-0.706
		c-0.18-0.164-0.41-0.279-0.689-0.344c-0.213-0.049-0.606-0.066-1.213-0.066H40.977z M46.883,34.02v-7.333h5.037v1.247h-3.56v1.723
		h3.068v1.247H48.36v3.117H46.883z"/>
	<path fill="#AF0000" d="M63.043,61.402c0.902,0.017,2.279,0.017,2.969,0.623l0.574,0.607c0.328-0.41,0.395-1.182-0.098-1.674
		c-1.689-1.706-7.893-0.722-10.09-0.492c-0.246,0.017-0.541-0.246-0.723-0.377c-0.803-0.509-2.133-1.706-2.756-2.428l-1.279-1.608
		c-0.969-1.329-1.789-2.92-2.412-4.495c-0.197-0.476-0.148-0.41-0.033-0.919c0.066-0.312,0.131-0.64,0.181-0.968
		c0.245-1.329,0.409-2.806,0.345-4.2c-0.279-0.049-0.213,0.099-0.279,0.328l-0.869,2.822c-0.033,0.081-0.049,0.147-0.082,0.229
		c-0.017,0.033-0.033,0.082-0.033,0.115l-0.065,0.098c-0.147-0.312-0.312-1.164-0.394-1.559c-0.345-1.591-0.574-3.625-0.476-5.25
		c0.065-1.099,0.459-2.854,1.361-1.328c0.246,0.394,0.442,0.82,0.64,1.279l0.508,1.411c0.148-0.574,0.164-1.148,0.05-1.739
		c-0.181-0.854-0.409-0.951-0.623-1.296c-0.132-0.065-0.181-0.164-0.328-0.263c-0.114-0.082-0.229-0.131-0.36-0.213
		c-0.738-0.23-0.87-0.313-1.674-0.115c-0.099,0.049-0.197,0.099-0.295,0.147l-0.197,0.147c-0.049,0.05,0,0.017-0.082,0.05
		c-0.049,0.099-0.148,0.147-0.313,0.442c-0.311,0.559-0.36,1.215-0.377,1.854c-0.082,2.739,0.656,6.349,1.493,8.925
		c0.082,0.246-0.017,0.345-0.099,0.574c-0.344,0.854-0.754,1.739-1.115,2.576c-0.837,1.952-2.92,6.021-3.971,7.907
		c-0.705,1.264-1.346,2.608-2.066,3.855c-0.378,0.64-0.788,1.247-1.198,1.805c-0.312,0.427-1.657,2.101-2.034,2.429
		c-0.263,0.213-0.476,0.492-0.738,0.722c-0.148,0.131-0.23,0.246-0.395,0.377c-0.131,0.115-0.245,0.229-0.393,0.345
		c-0.164,0.131-0.624,0.623-0.887,0.443c-0.508-0.525,2.018-3.773,2.625-4.364l2.084-2.149c-0.869,0.295-1.936,0.951-2.592,1.411
		c-1.034,0.738-3.348,3.101-3.462,4.462c-0.115,1.411,2.083,2.199,3.806,1.066c0.164-0.098,0.459-0.328,0.559-0.442
		c0.918-0.984,1.395-1.657,2.165-2.789c0.952-1.411,1.805-2.806,2.675-4.282c0.131-0.229,0.328-0.263,0.574-0.377
		c3.576-1.756,8.498-2.855,12.55-3.331c0.328-0.032,0.426,0.099,0.689,0.246c0.229,0.132,0.41,0.229,0.639,0.361
		c1.197,0.64,2.838,1.361,4.168,1.755c1.869,0.542,5.43,1.23,5.611-1.246l-0.197,0.164c-0.887,0.688-3.232,0.147-4.135-0.115
		c-0.738-0.213-3.266-1.033-3.807-1.395C59.926,61.451,61.566,61.386,63.043,61.402z M51.197,61.402
		c-2.166,0.492-4.742,1.182-6.759,2.067c-0.361,0.164-0.869,0.442-1.182,0.541c0.066-0.181,0.23-0.442,0.346-0.623
		c0.688-1.148,3.117-5.726,3.576-6.76c0.197-0.442,0.377-0.853,0.574-1.313c0.18-0.442,0.328-0.919,0.525-1.361
		c0.164,0.229,0.393,0.787,0.541,1.05c0.607,1.148,1.182,1.854,1.968,2.789c0.246,0.295,0.525,0.574,0.771,0.837l1.674,1.477
		c0.262,0.213,0.672,0.459,0.902,0.673L51.197,61.402z"/>
</g>
</svg>
