<svg xmlns="http://www.w3.org/2000/svg" viewBox="0 0 320 240">
  <g fill="none" stroke="#000" stroke-width="2" stroke-miterlimit="10" clip-rule="evenodd" stroke-linecap="round" stroke-linejoin="round">
    <path d="M204.98 127.66l.2-2.83c-.56-.84-1.42-.92-2.36-.65-4.23 1.2-7.9 3.27-10.2 7.2-1.75 3.05-1.78 6.36-.67 9.58.7 2.05 2.52 2.36 4.38.84 2.23-1.83 3.6-4.35 4.9-6.85.98-1.9 2.05-3.77 2.7-5.85.15-.47.4-1.04.98-1.32.9.4.9 1.3 1 2.04.7 4.03 1.6 8 2.4 12 .6 3.24.5 6.38-1.4 9.24-1.6 2.35-3.9 3.4-6.6 4.13-2.9.7-5.8.8-8.6.1-2.5-.7-4.6-2.2-6-4.5m.4-66.3c-1.4-.6-2.7-.3-4.1.2-3.9 1.4-7.1 3.6-9.2 7.2-1.7 3.1-1.8 6.4-.6 9.7.8 2.2 2.7 2.4 4.4.9 2.1-1.7 3.5-3.9 4.7-6.2 1.5-2.8 3.1-5.6 4-8.7.2-.5.6-.9 1-1.2M136 111.1c.9-.05 1.6.26 2.03 1.07.4.72 1 .84 1.7.85 3.9.06 6.88-1.74 9-4.83 2.7-4 2.7-8.3.73-12.6-1.35-3-3.67-2.5-5.5-.9-1.4 1.3-2.14 3-2.76 4.8-.87 2.5-1.7 5-2.14 7.7-.1.5-.45.7-.74 1.1m82.65-33.6c-1.95 0-3.63.8-5.27 1.7-3.17 1.6-5.64 4-6.84 7.4-.95 2.7-.9 5.5.38 8.1.8 1.5 1.8 1.9 3.47.9 2.1-1.3 3.3-3.3 4.4-5.3 1.4-2.4 2.6-4.8 3.6-7.3.2-.5.7-.7.8-1.1 1.2.5 1.1 1.7 1.3 2.6.6 2.7 1.2 5.4 1.9 8.1.2.6.1 1.2.1 1.9M112 162.1c.3.18.72-.13.95.3.68 1.27 2.02 1.25 3.12 1.28 7.6.17 14.35-2.1 19.9-7.42 1.7-1.62 3.08-3.55 3.6-5.87.92-4.2.02-7.9-3.46-10.7-2.7-2.2-5.6-3.9-9.1-4.7-2.8-.7-5.6-.7-8.4-.5-3.2.2-6.3.9-9.3 1.8-2.3.7-2.6 1.2-2 3.5 1.9 6.8 3.9 13.7 5.8 20.6.2.5 0 1-.1 1.5m59.5-31.8c-.4.7-1 1.2-1.5 1.8-1 1-1.9 1.9-2.9 3-.4.4-.7 1-.9 1.5-.6 1.3-.3 1.9 1.1 2.5 1.7.7 3.5.8 5.3 1.2 1.6.3 3.2.6 4.6 1.5 1.4 1 1.6 2.6.6 4-1.2 1.6-3 2.2-4.9 2.6-1.1.2-2.4.6-3.6.4-2.1-.4-2.9-1.3-3.2-3.7 0-.3 0-.5-.2-.6m-59.4-52.1c-.2 4.6-.2 9.2-.5 13.8-.1 1.6 0 3.2-.2 4.8-.2 2.8-.5 5.5-.4 8.3.1.7-.6.9-.7 1.5"/>
    <path d="M132.62 84.82c.92-.08.8.8.92 1.2 1.3 4.8 2.2 9.7 2.8 14.64.28 2.16.64 4.32.96 6.48.02.12.05.27.13.35 1.25 1.2.86 2.6.1 3.9m26.53 31.7c-2.23 4.9-5.86 8.6-10.7 11-1.3.6-2.73 1-4.18 1.2-1.58.2-3.3-1.2-3.57-3-.2-1.7-.2-3.4.5-5.1.5-1.2.8-2.4 1.4-3.6 1.1-2.2 2.5-4.1 4.6-5.4 1.3-.8 2.8-1.6 4.3-.6m-22.3-31.4c-2.2 4.9-5.8 8.6-10.7 11-1.3.7-2.7 1-4.1 1.2-1.6.2-3.3-1.2-3.6-3-.2-1.7-.2-3.4.5-5.1.5-1.2.8-2.5 1.4-3.6 1.1-2.2 2.5-4.1 4.6-5.4 1.3-.8 2.7-1.6 4.3-.5m-19.9 23.7c-.4 0-.5-.3-.5-.6-.2-1.8-1-3.3-1.9-4.9-1.3-2.2-2.2-4.7-3.4-7-2-3.9-4.2-7.7-6.3-11.6-.3-.6-.6-1.1-1.3-1.3m-.6-2.4c.1 0 .1 0 .1.1.5 3.1-.4 6.2-.5 9.3 0 1.4-.2 2.8-.2 4.2 0 2.4-.3 4.7 0 7.1.1.6.1 1.2-.2 1.7-.2.3-.1.6-.1.9 0 1.3.7 2.43.8 3.7 0 .3.3.3.5.25m-11-22.4c.8.25 1.3.84 1.6 1.55 1 2.6 2.5 5 3.6 7.6 1.1 2.5 2.2 5.1 3.1 7.7.3.5.6.9 1 1.3m102.8-22c-.4-2.1-.2-4.1-.1-6.1 0-.4-.1-.7.1-1 1.5-1.5 1.5-3.7 2.4-5.4.9-1.8 1.7-3.5 3-5 .9-1.1 1.3-1.1 1.9.2.9 1.6 1.3 3.5 1.7 5.3.8 3.1 1.6 6.3 2 9.5M214 137c-.4-2.06-.2-4.1-.1-6.1 0-.3-.1-.7.1-1 1.5-1.55 1.5-3.7 2.4-5.45.9-1.7 1.7-3.5 2.9-5 .9-1 1.3-1 1.9.3.9 1.7 1.3 3.5 1.7 5.3.8 3.2 1.6 6.3 2 9.5"/>
    <path d="M161.66 138.46c-2.28.64-4.26 1.88-6.23 3.13-2.6 1.6-5.14 3.3-7.68 5-.4.2-.74.4-1.2.3m-14.9-45.3c-2.27.6-4.25 1.9-6.22 3.1-2.6 1.6-5.14 3.3-7.68 5-.4.2-.74.4-1.2.3m66.23 19.2c.4 1.6.7 3.3 1.22 4.9.87 2.7 1.45 5.4 2.13 8.2.1.4.15.9-.02 1.2-.3.6-.1 1 .1 1.6m32-84.8c0 .1 0 .2.1.3 1.3 1.2 1.3 2.9 1.6 4.5.5 2.9.9 5.9 1.3 8.8.1.2.1.4.3.4 1 .6.6 1.5.6 2.3-.1.7-.2 1.4-.2 2.2m-35.2 4c-.7 1-.1 2.2-.4 3.2v.2c.9 1.4.6 3 .8 4.53.1 1.6.6 3.14.8 4.7.2 1.37.7 2.64.9 3.97m2.6-16.04c1.3 1.5 1.6 3.4 2 5.2.2.63.3 1.22.8 1.7m16.8 32.5c1.3 1.5 1.6 3.4 2 5.22.2.62.3 1.2.8 1.7M107 137.6c-.62-.3-1.12.07-1.7.36-.63.4-1.2 1-2 1.1"/>
  </g>
</svg>
