<svg xmlns="http://www.w3.org/2000/svg" viewBox="0 0 320 240">
  <g fill="none" stroke="#000" stroke-width="2" stroke-miterlimit="10" clip-rule="evenodd" stroke-linecap="round" stroke-linejoin="round">
    <path d="M76.23 128.4c.65 1.1 1.68 1.4 2.88 1.44 5.7.25 10.9-1.15 15.6-4.34 2.2-1.5 4.1-3.3 5.4-5.63 2.4-4.28 1.5-9.6-2.7-12.7-2.2-1.62-4.6-3.06-7.4-3.65-2.5-.52-4.9-.8-7.4-.63-2.9.1-5.8.8-8.6 1.5-.6.1-1.2.2-1.8.4-1 .4-1.3 1.1-1 2.2 1.2 4.2 2.4 8.4 3.5 12.6.7 2.4 1.2 4.8 1.9 7.2.1.4.1.9.1 1.3M187 86.7c-1.6-.9-3.07-.2-4.57.38-4.08 1.58-7.26 4.06-8.64 8.4-.8 2.28-.6 4.47.2 6.74.7 2.33 2.9 2.18 4.3.95 1.5-1.4 2.6-3 3.6-4.7 1.6-2.8 3-5.7 4.2-8.7.3-.9 1.3-1.5 1.1-2.65-.2-.65 0-1.23.3-1.8m-10.6 45.5c-1.6-.9-3.1-.23-4.6.35-4.1 1.6-7.3 4.08-8.7 8.4-.7 2.3-.5 4.5.2 6.75.7 2.32 3 2.17 4.4.94 1.5-1.3 2.6-3 3.6-4.7 1.6-2.76 3-5.62 4.2-8.63.3-.9 1.3-1.5 1-2.66-.2-.7 0-1.26.3-1.8m17.2-4.2c-4.5.9-8.3 2.97-10.5 7.1-1.6 2.8-1.6 5.84-.4 8.84.6 1.6 2.2 1.9 3.7.7 2.1-1.6 3.3-3.9 4.5-6.2.8-1.5 1.6-3.1 2.2-4.8.1-.2.2-.5.4-.7.8-.5.74-1.3.8-2 .1-.9.5-1.9-.5-2.8-.3-.2-.2-1.1-.3-1.7-.5-2.8-.9-5.7-1.3-8.6-.1-.9-.47-1.6-1.1-2.3M151 95c.8.5 1.5 1 2.4 1.3 1.76.6 2.6 1.8 2.94 3.6.8 4.1-2.04 9-4.85 10.6-2.7 1.6-5.3.1-5.8-3.1-.6-3.7.6-7 2.5-10 .2-.3.5-.6.42-1.1m69.5-19.3c.7.5 1.5 1 2.4 1.3 1.7.56 2.5 1.8 2.9 3.6.8 4.03-2.06 8.98-4.87 10.58-2.7 1.55-5.3.05-5.8-3.12-.5-3.73.7-7 2.6-10.03.2-.34.53-.6.45-1.1m-80.3 23.55c-.05-1.4-.57-1.8-1.9-1.3-2.4.84-4 2.56-5.3 4.66-1.3 2.1-2.27 4.38-2.6 6.84-.2 1.5.2 3.04 1.4 4.16 1.3 1.2 2.94.8 4.3.3 3.43-1.3 6.36-3.3 8.7-6.2 1.1-1.4 2.07-2.9 2.84-4.5m66 16.8c.2-1.1-.65-1.4-1.3-1.8-.58-.3-1.2-.3-1.7.3-1 1.4-2.5 2.4-3.48 3.8-.27.4-.56.7-.74 1.1-.6 1.23-.3 1.85 1.1 2.4 2 .82 4.2.84 6.3 1.43 1 .3 2 .6 2.9 1.3 1.1.9 1.1 2.7.1 3.7-1.3 1.46-3.1 2-4.9 2.26-.6.1-1.1.26-1.6.3-2.9.14-4.4-1.54-4.2-4.58M239 87.18c-.06-2.2-.8-4.3-1.2-6.48-.44-2.16-1.1-4.26-1.75-6.36-.13-.45-.3-.87-.54-1.2-.5-.86-.9-.9-1.5-.15-1.5 1.8-2.4 4-3.4 6.1-.5 1.2-.5 2.5-1.6 3.6-.5.6-.1 2-.2 3-.1 1.4.4 2.7.2 4.1m-68 52.6c-1 2.62-2.7 4.8-4.8 6.6-2.12 1.9-4.5 3.5-7.4 4.1-2.44.6-3.52.2-4.4-2.08-.52-1.46-.5-3.06 0-4.54.2-.56.3-1.16.5-1.67 1.1-2.8 2.7-5.32 5.26-7.1 1.3-.9 2.7-1.2 4.3-.6m-30.9-26.1c-1 2.66-2.8 4.8-4.8 6.6-2.2 1.9-4.6 3.47-7.5 4.1-2.5.58-3.6.18-4.4-2.04-.6-1.5-.5-3.1 0-4.6.2-.6.3-1.2.5-1.7 1.1-2.9 2.7-5.4 5.2-7.1 1.3-1 2.7-1.2 4.3-.6M168 89.4c-1 1-2 2.05-2.76 3.26-.97 1.5-1.64 3.1-2.2 4.8-.23.7-.48 1.35-.98 2-.4.5-.26 1.53-.2 2.32.15 2.14.4 4.3.6 6.46m-26.6 35c-3.65 1.5-7.27 3-10.94 4.4-1.9.76-3.9 1.3-5.87 1.95m85.63-69c-.03 1.2.58 2.3.87 3.5.7 2.7 1.55 5.5 2 8.3.14.8.58 1.6-.1 2.3m-91.7 39.3c-.3 1.1.4 2 .65 3 .9 3.4 1.35 7 2.1 10.5l.5 2"/>
    <path d="M158.9 137.63c-.5.66-1.35.72-2.04 1.06-3.67 1.8-7 4.2-10.42 6.5-.5.3-.94.6-1.57.6m-23.4-39.6c-.52.6-1.36.7-2.05 1-3.67 1.8-7 4.2-10.42 6.5-.5.3-.94.6-1.57.6m31.92 27.8l-3.23 1c.97 3.9 1.94 7.7 2.85 11.6.16.6.75 1.1.62 1.9m54.3-71.2c1 3.4 1.5 6.9 2.2 10.3.1.8.5 1.5.3 2.4M133 130c-.44.3-.3.8-.2 1.15 1 3.62 1.9 7.3 3.1 10.9.1.23.2.5.26.7m40.84-10c.55.43.63 1.02.6 1.7 0 2.3.63 4.5.9 6.7.17 1.3.75 2.46.67 3.7m7.9-56.25c.53.44.6 1.03.6 1.68-.03 2.3.6 4.5.9 6.75.15 1.26.73 2.43.65 3.7m6.13 29.05c1.1 1 .9 2.5 1.27 3.75.53 1.76.82 3.6 1.24 5.4.2.82.4 1.65.23 2.5M160 91.3c-.1 1.54.8 2.85.96 4.33.07.73.3 1.44.33 2.16 0 .6.1 1 .6 1.4m64.7-22.9c.7 1.6 1.4 3.2 1.6 5 0 .5.3.8.6 1.1"/>
    <path d="M199.7 82.67c-3.17 1.28-6.27 2.72-9.1 4.68-.2.14-.28.36-.25.6m3.25-8.15c-.1 1.4-.56 2.67-1.33 3.83"/>
  </g>
</svg>
