<svg xmlns="http://www.w3.org/2000/svg" viewBox="0 0 320 240">
  <g fill="none" stroke="#000" stroke-width="2" stroke-miterlimit="10" clip-rule="evenodd" stroke-linecap="round" stroke-linejoin="round">
    <path d="M175.22 130.5c-5.35 1.2-9.65 3.72-11.52 9.24-.77 2.26-.52 4.46.2 6.73.72 2.33 3.05 2.26 4.32.92 1.3-1.4 2.53-2.9 3.47-4.5 1.3-2.3 2.4-4.8 3.6-7.2m19.3-10.3c-4.5.9-8.3 3-10.6 7.1-1.6 2.8-1.6 5.8-.4 8.8.6 1.6 2.2 1.8 3.7.7 2.1-1.7 3.3-4 4.5-6.3.9-1.8 1.7-3.7 2.6-5.6m-43-33l-.3-1.5c-2.1-.1-3.6.9-4.9 2.2-2.6 2.7-4.2 6-4.7 9.7-.3 2.1 1.1 4.4 3 4.6 1.1.1 2.4-.1 3.4-.6 4.8-2.2 8.6-5.5 10.8-10.4m46.6 20.1c-1.1 1.1-2.3 2.3-3.3 3.5-.6.7-1.1 1.7-.8 2.8 1.6 1 3.5 1 5.2 1.5 1.4.4 2.9.7 4.4 1.2.5.2.9.8 1.3 1.2m.3 1.9c-.3 1.1-1.1 1.8-2.1 2.3-2.3 1.2-4.7 1.8-7.3 1.1m-118.3-27l.9 5c.52 2.84 1 5.73 1.6 8.6.14.8.5 1.6.93 2.3.95 1.5 2.2 2 3.92 1.1 2.12-1.1 4.23-2.2 6.2-3.6 2.27-1.5 4.35-3.4 6.5-5.1m34.55-11.3c-1 2.7-2.75 4.8-4.83 6.6-2.1 1.9-4.5 3.5-7.4 4.1-2.5.6-3.5.2-4.4-2-.5-1.48-.5-3.08 0-4.56.2-.6.3-1.2.5-1.7 1.1-2.8 2.7-5.3 5.3-7.1 1.4-.9 2.8-1.2 4.3-.6m94.2-18.2c-1 2.6-2.7 4.72-4.8 6.53-2.1 1.9-4.5 3.5-7.4 4.13-2.5.6-3.6.2-4.4-2-.5-1.44-.5-3.04 0-4.5.2-.6.3-1.2.5-1.7 1.1-2.8 2.7-5.34 5.3-7.1 1.3-.9 2.8-1.2 4.3-.6M161 142.5c-1 2.64-2.72 4.77-4.8 6.6-2.15 1.9-4.5 3.5-7.4 4.1-2.5.6-3.6.2-4.4-2-.6-1.45-.5-3.05 0-4.5.2-.58.3-1.18.5-1.7 1.1-2.8 2.7-5.3 5.2-7.1 1.34-.9 2.77-1.2 4.33-.6m-52.7-34.42c.1.7-.5.8-.9.93-2.4.9-4.9 1.7-7.3 2.6-2.5.9-5 1.9-7.45 2.8-.45.2-.8.5-1.2.7-.54.3-1.07.5-1.6.8m52.7 33.1l-8.53 3.5-1.2.5m36-46.7c.23 2 .5 4 .8 6 0 .4.3.7.43 1m41.4-27.5c-.5 2.2-1.1 4.3-1.52 6.5-.24 1.4-.3 2.8-.5 4.2-.22 1.7-.53 3.3-.8 4.9m-.14.1V98"/>
    <path d="M170.18 93.42c-.24.46-.6.9-.7 1.38-.85 3.63-2.1 7.1-3.65 10.5-.52 1.12-1.32 2.14-2.5 2.76M98.3 97.98c-4.85 1.84-9.7 3.6-14.5 5.57-1.06.44-2.03.8-3.15.8M189 84.9c.3 1.16.57 2.32.86 3.48.67 2.76 1.4 5.5 2 8.28.18.74.58 1.55-.1 2.28M115.8 134.1l.6 3 2.18 10.56c.14.68.3 1.36.47 2.04m106.08-71.28c-.68.36-1.38.68-2.03 1.08-3.5 2.15-6.96 4.33-10.45 6.47-.47.28-1.04.4-1.56.6m-73.6 15.37c-.7.36-1.4.68-2.1 1.08l-10.5 6.47-1.6.6m35.4 27.3c-.7.3-1.4.7-2.1 1.1-3.5 2.1-7 4.3-10.5 6.4-.5.3-1.1.4-1.6.6M139 142l-3.22 1 2.87 11.6c.2.7.4 1.3.6 1.9m56.3-70.44c2.07 2.56 3.3 5.6 4.8 8.5.3.5.65.96.97 1.44M178 89.85c.76 3.4 1.5 6.85 2.28 10.3l.23.95m-47.4 29.1c0 .4-.3.8-.2 1.1 1 3.6 2.1 7.3 3.1 10.9l.3.7m34.2-49.6c.2.4.6.9.6 1.4.1 2.6.8 5.1 1.7 7.5m22.6 27.33l.8 1.57m-19.2 1.6c.2.6.5 1.1.6 1.7.4 2.25.7 4.5 1 6.74.1.75.3 1.47.4 2.2m13.4-30.6c1.4 1.1 1.1 2.8 1.5 4.3.4 1.8.7 3.64 1 5.5.2.9.1 1.83.2 2.75m-77.2-21.9c-.44 1.9-.74 3.9-1.44 5.7s-1.8 3.5-2.72 5.3m-6.4-7.1c1.2.3 1.7 1.3 2.3 2.1 1.1 1.4 2.1 2.9 3.2 4.3m.6 1.7c-1.1 1.9-2.2 3.8-3.4 5.6-.43.7-.53 1.4-.32 2.14m4.2-8.1l6.38 5.75m-36.4-17.2l.95 3.24.6 2.2"/>
    <path d="M183.85 87.06c-3.18 1.28-6.28 2.72-9.1 4.7-.15.1-.18.38-.26.58m12.6-10.86l.9.24-.3 1.5"/>
  </g>
</svg>
