<svg xmlns="http://www.w3.org/2000/svg" viewBox="0 0 320 240">
  <g fill="none" stroke="#000" stroke-width="2" stroke-miterlimit="10" clip-rule="evenodd" stroke-linecap="round" stroke-linejoin="round">
    <path d="M135.95 116.36c.34-2.12-.95-3.4-3-2.87-5.54 1.4-10.36 4-13.43 9.1-2.34 3.8-2.55 8-1.06 12.2 1.1 3 3.3 3.1 5.6 1.3 1.9-1.5 3.22-3.4 4.42-5.4 2.44-4.1 4.7-8.3 6.26-12.8.22-.7.73-1.1 1.1-1.6 0 0-1.5 13.1 1.83 15.1m-43.47-3.2c2.08-.3 4.18-.5 6.23-1 6.2-1.6 11.14-4.9 14.37-10.5 1.13-2 1.37-4.1.76-6.4-.42-1.58-1.47-2.5-2.77-3.27-3.2-1.8-6.6-1.83-10-1-4 .93-7.9 2.17-11.1 4.95-.3.2-.6.43-1 .35m92-12c1.9 1.07 4.1 1.5 5.84 2.8 1.4 1.1 1.82 2.7 1.9 4.3.22 5-1.55 9.2-5.38 12.5-1.15 1-2.5 1.5-3.87 1.9-.9.3-1.8-.1-2.5-.7-1.65-1.4-2.46-3.15-2.7-5.4-.4-4.73 1.17-8.9 3.8-12.7.23-.3.2-.6.23-.94m42.5-14.4c0 .44-.07.8-.46 1.22-1.7 1.9-3.7 3.52-5.14 5.62-1.96 2.8-1.95 4.25 1.76 5 2.53.5 5.05 1.04 7.57 1.56 1.02.2 2.03.57 2.86 1.1 2.4 1.66 2.48 4.1.4 6-2.2 2-4.9 2.5-7.7 2.74-1 .05-2.1.15-3.1-.1-1.8-.5-2.5-1.96-2.87-3.6-.14-.6-.2-1.2-.3-1.8m-3.5 8.15c-.7.2-.67-.4-.7-.7-.67-3.5-1.4-7-2.35-10.44-.7-2.3-1-4.7-2.27-6.87-.3-.46-.57-.9-.97-1.2-.8.1-1.2.7-1.6 1.2-2.5 3.4-4 7.25-5.23 11.2-.2.66-.55 1.1-1 1.55m-52.9 5c.8.9.7 2.14.9 3.23l2.1 10.3c.3 1.24.9 2.52.58 3.9"/>
    <path d="M90.47 113.6c1.15.9 1.03 2.3 1.28 3.5.7 3.37 1.38 6.77 2 10.17.87 4.75 1.98 9.46 3.13 14.16.23.93.4 2.22 1.75 2.53m70.5-42c-1.1 1.28-2.36 2.4-3.32 3.83-1.6 2.4-2.7 5.1-3.5 7.9-.2.8-.5 1.5-1.2 2m-2.6-11.4c-.5 1.4.5 2.6.7 3.9.3 1.7.7 3.4 1 5.2.1.7.2 1.5.8 2 .35.3.24.6.24 1 0 2.1-.03 4.2.26 6.3.13 1.1.4 2.2.6 3.32m36.2-9.98c-.24-2.7-.3-5.4-.1-8.07.02-.46 0-.87-.36-1.2-.5-.55-.46-1.3-.6-1.94-.43-2.1-1.13-4.1-2.02-6-.2-.48-.44-.6-.8-.7m-41.4 10.2l-5.16 2.4c-2.5 1.2-4.93 2.6-7.2 4.2"/>
  </g>
</svg>
