<?xml version="1.0" encoding="utf-8"?>
<!-- Generator: Adobe Illustrator 16.0.0, SVG Export Plug-In . SVG Version: 6.00 Build 0)  -->
<!DOCTYPE svg PUBLIC "-//W3C//DTD SVG 1.1//EN" "http://www.w3.org/Graphics/SVG/1.1/DTD/svg11.dtd">
<svg version="1.1" id="Layer_1" xmlns="http://www.w3.org/2000/svg" xmlns:xlink="http://www.w3.org/1999/xlink" x="0px" y="0px"
	 width="428.788px" height="125.757px" viewBox="0 0 428.788 125.757" enable-background="new 0 0 428.788 125.757"
	 xml:space="preserve">
<g>
	<g>
		<path fill="#13679B" d="M197.627,117.293c-3.049,0-5.919-0.615-8.532-1.827c-4.668-2.193-6.547-5.565-7.306-8.009
			c-0.252-0.784-0.418-1.642-0.495-2.597c-1.072,0.364-2.188,0.651-3.345,0.862c-1.37,0.257-2.554,0.385-3.588,0.385
			c-3.474,0-5.374-1.53-6.356-2.813c-1.285-1.678-1.693-3.854-1.122-5.968c1.241-4.467,2.947-12.598,5.088-24.237
			c-1.377,3.48-2.923,7.568-4.633,12.247c-1.489,4.199-6.1,5.65-9.958,6.445c-1.874,0.408-3.364,0.605-4.624,0.605
			c-2.39,0-4.303-0.754-5.685-2.242c-0.553-0.596-0.984-1.288-1.278-2.034c-1.423,1.063-3.44,2.018-6.27,2.732
			c-2.019,0.515-3.692,0.766-5.103,0.766c-0.733,0-1.41-0.07-2.032-0.198c-1.238,2.592-3.894,3.823-4.995,4.333
			c-1.67,0.768-3.483,1.331-5.404,1.68c-1.37,0.245-2.518,0.363-3.526,0.363c-3.474,0-5.381-1.508-6.368-2.772
			c-1.284-1.645-1.721-3.787-1.198-5.877c0.028-0.107,0.058-0.224,0.088-0.349c-2.183,1.208-4.624,1.682-5.917,1.933
			c-1.878,0.365-3.323,0.535-4.548,0.535c-2.462,0-4.415-0.761-5.805-2.263c-0.241-0.261-0.459-0.54-0.653-0.834
			c-1.281,1.357-2.903,2.112-3.759,2.5c-1.676,0.805-3.525,1.391-5.495,1.741c-1.477,0.262-2.7,0.39-3.739,0.39
			c-2.524,0-4.514-0.796-5.914-2.367c-0.963-1.081-1.531-2.45-1.632-3.883c-2.33,1.923-5.016,3.463-8.013,4.591
			c-3.104,1.152-6.16,1.731-9.111,1.731c-0.932,0-1.867-0.058-2.781-0.172c-1.741-0.225-4.93-1.056-7.344-4.091
			c-2.121,2.253-4.688,4.076-7.667,5.445c-3.37,1.49-6.81,2.227-10.303,2.227c-0.369,0-0.738-0.008-1.109-0.024
			c-7.826-0.394-13.222-4.566-15.231-11.751c-0.822-2.919-1.173-7.537-1.1-14.52c0-0.085,0.003-0.17,0.008-0.255
			c0.47-8.846,1.443-16.99,2.893-24.204c2.257-11.214,6.204-20.004,11.73-26.128c3.871-4.283,8.736-7.158,14.464-8.549
			c2.207-0.536,4.277-0.808,6.152-0.808c6.489,0,9.974,3.134,11.755,5.763c2.93,4.348,3.784,10.09,2.622,17.568
			c-0.019,0.116-0.039,0.234-0.06,0.355c0.552-0.238,1.13-0.453,1.733-0.643c1.105-0.739,2.388-1.353,3.83-1.834
			c2.529-0.878,4.726-1.316,6.646-1.316c1.837,0,3.481,0.402,4.888,1.195c1.936,1.058,4.076,2.668,5.912,5.092
			c1-2.435,3.579-4.874,9.464-6.084c1.477-0.317,2.919-0.482,4.238-0.482c0.295,0,0.583,0.008,0.864,0.024
			c1.777,0.067,3.153,0.496,4.208,1.125c2.15-0.84,4.409-1.415,6.755-1.717c0.867-0.106,1.667-0.157,2.419-0.157
			c4.22,0,7.073,1.604,8.828,3.789c2.728-1.222,5.694-1.987,8.879-2.288c0.674-0.062,1.314-0.093,1.915-0.093
			c3.468,0,6.183,1.027,8.069,3.052c0.031,0.034,0.063,0.068,0.093,0.103c0.242,0.272,0.469,0.556,0.679,0.851
			c0.662-0.522,1.338-0.917,1.902-1.208c-0.21-0.165-0.417-0.347-0.619-0.548c-0.692-0.692-1.587-1.411-2.656-2.134
			c-1.895-1.262-3.019-3.321-3.011-5.524c0.006-1.73,0.688-4.223,3.899-6.275c1.117-0.711,2.33-1.293,3.613-1.738
			c1.767-0.631,3.613-1.051,5.432-1.229c0.041-0.004,0.082-0.007,0.123-0.011c0.484-0.037,0.93-0.054,1.339-0.054
			c1.932,0,3.516,0.387,4.845,1.185c0.091,0.055,0.181,0.112,0.27,0.171c1.712,1.156,3.209,2.371,4.451,3.612
			c1.701,1.701,2.408,4.072,1.892,6.341c-0.627,2.758-2.729,4.378-4.638,5.355c0.41,0.319,0.745,0.654,1.015,0.973
			c0.077,0.091,0.152,0.185,0.224,0.279c2.084-1.475,4.523-2.131,5.668-2.439c1.138-0.318,2.498-0.544,4.1-0.674
			c0.531-0.047,1.05-0.073,1.54-0.073c2.556,0,4.557,0.788,5.947,2.34c0.867,0.969,1.412,2.173,1.582,3.444
			c2.334-0.979,4.82-1.717,7.45-2.21c1.289-0.251,2.436-0.377,3.465-0.377c5.237,0,7.033,3.469,7.459,4.533
			c0.552,1.374,0.988,2.855,1.308,4.456c0.173-0.191,0.348-0.383,0.524-0.574c4.973-5.685,10.804-9.355,17.333-10.907
			c1.98-0.496,3.8-0.745,5.492-0.745c0.49,0,0.969,0.022,1.437,0.065c0.35-0.154,0.712-0.274,1.085-0.359l2.781-0.634
			c0.931-0.222,2.015-0.385,3.169-0.475c0.404-0.029,0.754-0.042,1.071-0.042c2.359,0,4.247,0.736,5.609,2.188
			c1.159,1.236,1.784,2.902,1.731,4.598c-0.007,0.242-0.027,0.482-0.061,0.723c-0.009,0.122-0.021,0.243-0.036,0.363
			c-0.472,4.074-1.732,9.2-3.85,15.654c-0.428,2.842-1.253,7.558-2.517,14.376c-0.935,7.45-1.819,13.06-2.704,17.146
			c-1.643,7.333-3.072,12.314-4.382,15.271c-2.057,4.625-4.429,8.122-7.256,10.697c-5.292,4.84-11.41,7.34-18.176,7.424
			C197.677,117.293,197.652,117.293,197.627,117.293z M210.343,55.644c-0.417,0.787-0.811,1.595-1.18,2.425
			c-0.044,0.1-0.092,0.199-0.142,0.296c-2.208,4.309-3.253,8.178-3.105,11.499c0.006,0.139,0.007,0.278,0.004,0.417
			c-0.029,1.173,0.042,2.087,0.155,2.791c0.761-1.028,1.482-2.164,2.164-3.406C209.006,64.236,209.706,59.574,210.343,55.644z
			 M33.29,69.432c1.127-1.403,2.706-2.302,4.096-2.962c1.723-0.792,3.535-1.355,5.456-1.704c0.549-0.098,1.061-0.175,1.542-0.232
			c0.064-0.328,0.132-0.659,0.201-0.993c0.537-2.641,1.161-5.196,1.867-7.65c-0.653,0.109-1.368,0.204-2.153,0.286
			c-0.066,0.007-0.132,0.013-0.199,0.018c-0.489,0.035-0.932,0.051-1.327,0.051c-1.006,0-4.069,0-6.176-2.487
			c-0.908-1.072-1.43-2.399-1.509-3.779c-0.855,5.249-1.451,10.921-1.775,16.928C33.302,67.835,33.295,68.674,33.29,69.432z
			 M373.336,106.106c-3.475,0-5.375-1.53-6.357-2.814c-1.284-1.679-1.692-3.854-1.119-5.97c1.24-4.465,2.946-12.597,5.087-24.234
			c-1.377,3.481-2.924,7.57-4.634,12.251c-1.49,4.197-6.1,5.646-9.956,6.441c-1.873,0.408-3.364,0.605-4.624,0.605
			c-2.389,0-4.301-0.754-5.683-2.241c-1.227-1.319-1.854-3.114-1.722-4.924c0.022-0.297,0.046-0.597,0.072-0.9
			c-0.178,0.187-0.357,0.371-0.539,0.552c-2.714,2.714-6.026,4.819-9.844,6.256c-3.104,1.152-6.161,1.731-9.111,1.731
			c-0.931,0-1.866-0.058-2.78-0.172c-2.366-0.305-7.406-1.73-9.54-8.288c-0.153,0.16-0.307,0.318-0.463,0.473
			c-2.714,2.714-6.026,4.819-9.844,6.256c-3.104,1.152-6.161,1.731-9.111,1.731c-0.931,0-1.866-0.058-2.78-0.172
			c-1.5-0.194-4.075-0.837-6.304-2.954c-2.59,2.068-5.612,3.795-9.04,5.162c-4.693,1.868-9.075,2.814-13.028,2.814
			c-2.208,0-4.33-0.292-6.307-0.87c-7.515-2.188-10.727-7.057-12.097-10.754c-1.166-3.145-1.417-6.157-0.745-8.954
			c0.673-2.936,2.56-5.588,5.595-7.825c1.809-1.296,3.827-2.194,6.047-2.696c-1.721-1.304-2.986-2.69-3.867-4.207
			c-3.837-6.692-3.991-15.179-0.477-25.253c3.36-9.667,8.709-16.723,15.896-20.965c5.09-2.953,10.373-4.617,15.742-4.97
			c0.584-0.037,1.134-0.055,1.661-0.055c4.745,0,8.361,1.441,10.748,4.282c3.48,4.053,4.577,10.006,3.307,18.136
			c0.454-0.185,0.924-0.354,1.41-0.508c1.105-0.738,2.388-1.353,3.831-1.834c2.528-0.878,4.725-1.316,6.646-1.316
			c1.836,0,3.48,0.402,4.888,1.195c2.683,1.467,5.76,3.996,7.871,8.278c1.317-1.813,2.729-3.242,4.247-4.305
			c1.247-0.847,2.662-1.515,4.255-2.019c1.105-0.738,2.388-1.353,3.831-1.834c2.528-0.878,4.725-1.316,6.646-1.316
			c1.836,0,3.48,0.402,4.888,1.195c2.507,1.371,5.357,3.668,7.443,7.457c1.013-5.314,7.072-6.943,9.097-7.488
			c1.138-0.318,2.499-0.544,4.101-0.674c0.53-0.047,1.049-0.073,1.539-0.073c2.555,0,4.555,0.787,5.944,2.338
			c0.868,0.969,1.414,2.174,1.584,3.446c2.334-0.979,4.82-1.717,7.45-2.21c1.288-0.251,2.436-0.377,3.464-0.377
			c3.795,0,5.783,1.822,6.753,3.229c1.558-7.167,2.539-13.198,2.926-17.993c0.42-4.426,3.862-7.238,10.238-8.441
			c1.404-0.274,2.764-0.417,4.004-0.417c0.308,0,0.606,0.009,0.897,0.025c1.112,0.036,3.805,0.176,5.73,2.368
			c1.143,1.302,1.701,3.035,1.53,4.756c-0.636,7.398-2.38,16.911-5.176,28.194l-1.705,6.967c-0.759,2.999-1.343,5.321-1.765,7.009
			c-2.834,11.638-3.096,12.274-3.349,12.889c-0.031,0.075-0.063,0.15-0.098,0.224c-0.709,1.543-1.817,2.698-3.133,3.575
			c0.024,0.055,0.048,0.109,0.07,0.165c0.129,0.283,0.722,1.519,3.394,6.747c0.03,0.06,0.061,0.121,0.089,0.182
			c0.751,1.601,0.829,3.4,0.218,5.066c-0.987,2.697-3.386,4.055-5.104,4.841c-1.211,0.563-2.526,1.031-3.881,1.38
			c-2.009,0.543-3.729,0.815-5.193,0.815c-1.78,0-3.166-0.405-4.233-0.975c-0.401,1.718-0.773,3.194-1.117,4.437
			c-0.879,3.357-4.053,4.829-5.423,5.464c-1.675,0.769-3.486,1.331-5.404,1.68C375.555,105.979,374.371,106.106,373.336,106.106z
			 M265,77.968c0.325,1.592,0.735,2.088,0.782,2.141c0.348,0.387,0.872,0.884,1.394,1.071c0.26-0.188,0.502-0.385,0.705-0.575
			c0.03-0.028,0.061-0.057,0.091-0.084c0.807-0.728,1.45-1.566,1.969-2.563c1.068-2.072,1.211-3.11,1.228-3.405
			c-0.073-0.058-0.351-0.32-0.91-0.644c-0.154-0.087-0.877-0.458-2.989-1.237C267.34,74.125,266.919,76.044,265,77.968z
			 M276.732,56.222c0.349,0.121,0.78,0.266,1.316,0.44c1.586,0.517,2.754,0.914,3.512,1.189c0.348,0.127,0.687,0.257,1.017,0.39
			c0.218-0.84,0.445-1.669,0.683-2.487c-0.521,0.118-1.023,0.216-1.499,0.301c-0.928,0.186-1.91,0.281-2.923,0.281
			c-0.349,0-0.706-0.011-1.07-0.034C277.405,56.29,277.06,56.263,276.732,56.222z M271.501,53.586
			c0.137,0.121,0.323,0.271,0.573,0.446c-0.411-0.44-0.723-0.9-0.959-1.335c-0.055-0.101-0.106-0.203-0.155-0.306
			C271.219,53.192,271.449,53.518,271.501,53.586z M275.566,31.543c-0.201,0.302-0.401,0.616-0.6,0.941
			c-3.692,6.029-5.204,11.544-4.617,16.847c0.056-1.119,0.402-2.237,1.036-3.26c2.214-3.664,3.607-8.262,4.106-13.606
			C275.522,32.14,275.547,31.833,275.566,31.543z"/>
	</g>
	<path fill="#FFFFFF" d="M410.578,15.913c0.215,0,0.423,0.006,0.624,0.02c1.074,0.033,1.595,0.212,1.563,0.537
		c-0.619,7.194-2.295,16.309-5.029,27.344c-0.326,1.335-0.896,3.662-1.709,6.982c-0.749,2.962-1.335,5.29-1.758,6.982
		c-1.823,7.487-2.849,11.507-3.076,12.061c-0.554,1.205-2.604,2.132-6.152,2.783c-0.731,0.136-1.441,0.204-2.127,0.204
		c-0.139,0-0.275-0.003-0.412-0.008c-1.367-0.032-1.904-0.407-1.611-1.123c-0.003,0.006-0.004,0.009-0.006,0.009
		c-0.035,0,1.009-4.007,3.131-12.021c0.488-1.92,1.595-6.364,3.32-13.33c2.767-11.198,4.427-20.231,4.98-27.1
		c0.13-1.367,1.92-2.376,5.371-3.027C408.753,16.017,409.717,15.913,410.578,15.913 M46.113,16.026c3.112,0,5.375,1.043,6.787,3.128
		c2.018,2.995,2.571,7.422,1.66,13.281c-0.261,1.595-0.781,3.988-1.563,7.178c-0.749,3.125-1.237,5.501-1.465,7.129
		c-0.195,1.172-1.807,2.165-4.834,2.979c-0.781,0.195-1.791,0.358-3.027,0.488c-0.332,0.024-0.631,0.036-0.899,0.036
		c-1.206,0-1.769-0.24-1.688-0.719c0.032-0.195,0.846-3.792,2.441-10.791c1.009-4.395,1.334-8.04,0.977-10.938
		c-0.456-3.548-1.546-5.908-3.271-7.08c-0.13,0.13-0.228,0.212-0.293,0.244c-4.916,4.558-8.48,11.979-10.693,22.266
		c-1.498,7.097-2.474,14.925-2.93,23.486c-0.065,5.794-0.033,9.261,0.098,10.4c0.586,4.362,2.229,7.162,4.932,8.398
		c0.618-0.716,1.204-1.563,1.758-2.539c1.302-2.344,2.539-5.501,3.711-9.473c0.13-0.456,0.846-0.993,2.148-1.611
		c1.204-0.553,2.522-0.96,3.955-1.221c1.002-0.177,1.826-0.266,2.47-0.266c1.364,0,1.924,0.398,1.681,1.194
		c-1.595,5.404-3.288,9.277-5.078,11.621c-1.758,2.279-4.053,4.069-6.885,5.371c-2.533,1.119-5.132,1.679-7.798,1.679
		c-0.281,0-0.563-0.006-0.845-0.019c-5.176-0.26-8.415-2.718-9.717-7.373c-0.651-2.311-0.944-6.592-0.879-12.842
		c0.456-8.594,1.383-16.374,2.783-23.34c2.051-10.188,5.485-17.952,10.303-23.291c3.06-3.385,6.868-5.631,11.426-6.738
		C43.129,16.239,44.708,16.026,46.113,16.026 M283.465,17.16c2.903,0,4.955,0.714,6.154,2.142c2.376,2.767,2.994,7.455,1.855,14.063
		c-0.977,5.762-2.539,10.433-4.688,14.014c-0.781,1.27-2.832,2.197-6.152,2.783c-0.558,0.116-1.157,0.175-1.797,0.175
		c-0.258,0-0.521-0.01-0.791-0.028c-1.465-0.032-1.986-0.391-1.563-1.074c2.734-4.524,4.395-9.928,4.98-16.211
		c0.293-3.06,0.162-5.518-0.391-7.373c-0.326-1.204-0.766-2.148-1.318-2.832c-0.195-0.228-0.456-0.472-0.781-0.732
		c-0.456-0.293-0.717-0.456-0.781-0.488c-0.276-0.092-0.521-0.16-0.732-0.203c0.026-0.017,0.141-0.063,0.342-0.139
		c-0.033,0-0.033-0.008,0.003-0.025c0.038-0.009,0.076-0.018,0.115-0.027c-0.002,0.003-0.001,0.004,0.004,0.004
		c0.017,0,0.073-0.016,0.171-0.049c-0.059,0.016-0.117,0.031-0.175,0.045c0.004-0.006,0.03-0.021,0.077-0.045
		c-0.095,0.032-0.159,0.056-0.192,0.072c-0.262,0.058-0.523,0.1-0.784,0.123c0.059,0,0.088,0,0.088,0s-0.014,0-0.039,0h0.146
		c0.076,0.01,0.157,0.023,0.244,0.041c-0.008,0.005-0.008,0.008,0,0.008c-0.456,0.261-0.798,0.472-1.025,0.635
		c-2.409,1.628-4.606,4.069-6.592,7.324c-4.525,7.39-6.315,14.502-5.371,21.338c0.488,3.451,1.448,5.859,2.881,7.227
		c1.334,1.237,3.271,2.36,5.811,3.369c0.618,0.261,1.627,0.619,3.027,1.074c1.497,0.488,2.604,0.863,3.32,1.123
		c2.669,0.977,4.639,2.116,5.908,3.418c0.448,0.456,0.826,0.946,1.135,1.469c-0.636,3.92-0.861,7.315-0.676,10.185
		c-0.489,0.916-1.081,1.816-1.777,2.702c-2.702,3.451-6.462,6.136-11.279,8.057c-4,1.592-7.604,2.387-10.808,2.387
		c-1.646,0-3.187-0.209-4.622-0.629c-4.135-1.204-6.852-3.564-8.154-7.08c-0.748-2.018-0.928-3.841-0.537-5.469
		c0.358-1.563,1.465-3.027,3.32-4.395c1.866-1.337,4.193-2.006,6.981-2.006c0.13,0,0.26,0.001,0.392,0.004
		c1.106,0.033,1.725,0.277,1.855,0.732c0.098,0.326-0.326,0.83-1.27,1.514c-1.074,0.781-1.367,2.344-0.879,4.688
		c0.423,2.181,1.155,3.857,2.197,5.029c1.432,1.595,2.994,2.588,4.688,2.979c0.716,0.195,1.188,0.293,1.416,0.293
		c0.228,0.017,0.402,0.024,0.524,0.024s0.191-0.008,0.208-0.024c0.103,0,0.202-0.003,0.298-0.01
		c-0.046,0.018-0.097,0.037-0.151,0.059c0.032,0,0.195-0.032,0.488-0.098c-0.082,0.014-0.167,0.024-0.255,0.032
		c0.184-0.079,0.271-0.119,0.26-0.119c-0.001,0-0.005,0.001-0.011,0.002c0.197-0.095,0.395-0.197,0.592-0.307
		c0.098-0.065,0.325-0.211,0.684-0.439c0.748-0.488,1.399-0.993,1.953-1.514c1.334-1.204,2.425-2.62,3.271-4.248
		c1.627-3.157,2.213-5.68,1.758-7.568c-0.424-1.758-1.677-3.239-3.76-4.443c-0.977-0.553-2.816-1.302-5.518-2.246
		c-6.543-2.311-10.515-4.671-11.914-7.08c-2.93-5.11-2.93-11.865,0-20.264c2.896-8.333,7.324-14.258,13.281-17.773
		c4.264-2.474,8.626-3.857,13.086-4.15C282.637,17.174,283.06,17.16,283.465,17.16 M149.873,21.608c0.806,0,1.392,0.11,1.758,0.33
		c1.399,0.944,2.588,1.904,3.564,2.881c0.879,0.879-0.163,1.839-3.125,2.881c-1.367,0.488-2.718,0.798-4.053,0.928
		c-0.41,0.037-0.774,0.056-1.093,0.056c-0.797,0-1.311-0.116-1.543-0.349c-0.977-0.977-2.165-1.937-3.564-2.881
		c-0.651-0.423-0.391-1.009,0.781-1.758c0.716-0.456,1.497-0.83,2.344-1.123c1.367-0.488,2.718-0.797,4.053-0.928
		C149.312,21.621,149.604,21.608,149.873,21.608 M229.34,34.853c0.923,0,1.37,0.204,1.344,0.61c0,0.065-0.018,0.146-0.049,0.244
		c0,0.098,0,0.179,0,0.244c-0.017,0-0.025,0-0.025,0s0.009,0,0.025,0c-0.424,3.744-1.678,8.757-3.76,15.039
		c-0.391,2.702-1.254,7.65-2.588,14.844c-0.912,7.292-1.791,12.891-2.637,16.797c-1.531,6.836-2.865,11.54-4.004,14.111
		c-1.693,3.809-3.631,6.706-5.811,8.691c-4.2,3.841-8.936,5.794-14.209,5.859c-2.181,0-4.183-0.423-6.006-1.27
		c-2.148-1.009-3.516-2.458-4.102-4.346c-0.618-1.921-0.163-5.648,1.367-11.182c0.358-1.237,2.344-2.279,5.957-3.125
		c1.19-0.282,2.131-0.423,2.822-0.423c1.141,0,1.601,0.385,1.377,1.156c-1.465,5.306-1.904,8.724-1.318,10.254
		c0.651,1.66,1.872,2.881,3.662,3.662c0.488,0.228,0.944,0.407,1.367,0.537c0.293-0.326,0.504-0.554,0.635-0.684
		c0.944-1.074,1.774-2.263,2.49-3.564c1.399-2.474,2.604-5.534,3.613-9.18c0.846-3.092,1.643-6.51,2.393-10.254
		c-3.451,2.116-6.739,3.353-9.864,3.711c-0.606,0.073-1.193,0.109-1.761,0.109c-2.998,0-5.454-1.013-7.37-3.039
		c-2.344-2.474-3.401-5.973-3.174-10.498c0.195-9.928,4.102-18.994,11.719-27.197c4.167-4.785,8.918-7.813,14.258-9.082
		c1.552-0.388,2.92-0.582,4.104-0.582c0.903,0,1.699,0.113,2.39,0.338c0.977-0.521,1.465-0.781,1.465-0.781s0.928-0.211,2.783-0.635
		c0.684-0.163,1.447-0.276,2.295-0.342C228.954,34.861,229.157,34.853,229.34,34.853 M205.781,81.948
		c0.195-0.163,0.342-0.276,0.439-0.342c1.27-0.977,1.904-1.465,1.904-1.465s0.651-0.813,1.954-2.441
		c1.432-1.758,2.75-3.809,3.955-6.152c1.822-12.988,3.287-21.81,4.395-26.465c-0.134,0.007-0.263,0.01-0.386,0.01
		c-1.04,0-1.677-0.248-1.909-0.743c-0.555-1.27-1.107-2.148-1.66-2.637c-0.164-0.13-0.326-0.244-0.488-0.342
		c-4.363,3.874-7.797,8.626-10.303,14.258c-2.702,5.273-3.955,10.107-3.76,14.502c-0.065,2.604,0.244,4.785,0.928,6.543
		C201.989,79.669,203.633,81.427,205.781,81.948 M111.388,34.916c2.97,0,4.649,1.208,5.038,3.624
		c0.195,1.14,0.244,2.425,0.146,3.857c3.548-3.516,7.91-5.518,13.086-6.006c0.48-0.044,0.931-0.066,1.352-0.066
		c1.744,0,2.97,0.38,3.678,1.141c0.781,0.879,1.188,2.116,1.221,3.711c0.065,3.288-0.749,8.35-2.441,15.186
		c-2.745,11.137-4.113,16.706-4.104,16.706c0,0,0.001-0.002,0.002-0.007c-0.293,1.465-0.651,4.069-1.074,7.813
		c-0.358,3.353-0.781,5.957-1.27,7.813c-0.098,0.456-0.814,0.993-2.148,1.611c-1.205,0.554-2.523,0.96-3.955,1.221
		c-0.992,0.177-1.81,0.266-2.453,0.266c-1.363,0-1.945-0.398-1.746-1.194c0.456-1.725,0.846-4.118,1.172-7.178
		c0.358-3.483,0.651-5.875,0.879-7.178c0.423-2.148,1.66-7.259,3.711-15.332c1.725-6.771,2.702-11.833,2.93-15.186
		c0.098-1.53,0.049-2.686-0.146-3.467c-0.044,0.066-0.077,0.115-0.099,0.147c-0.911,1.074-1.823,2.474-2.733,4.198
		c-1.433,2.637-2.914,6.136-4.443,10.498c-0.684,1.855-2.23,5.583-4.639,11.182c-1.14,2.572-2.002,4.785-2.588,6.641
		c-0.423,2.767-0.896,5.192-1.416,7.275c-0.261,1.107-2.067,1.986-5.42,2.637c-1.458,0.283-2.593,0.425-3.404,0.425
		c-1.056,0-1.564-0.239-1.527-0.718c0.098-1.692,0.325-3.271,0.684-4.736c0.195-0.911,0.456-1.872,0.781-2.881
		c1.79-11.556,2.799-17.838,3.027-18.848c1.042-4.069,1.741-7.112,2.1-9.131c0.586-3.45,0.749-5.924,0.488-7.422
		c-2.312,3.223-4.72,7.829-7.227,13.818c-2.181,5.339-4.199,11.084-6.055,17.236c-1.563,5.176-2.523,8.871-2.881,11.084
		c-0.065,0.423-0.781,0.944-2.148,1.563c-1.205,0.586-2.539,1.009-4.004,1.27c-1.116,0.199-2.013,0.298-2.689,0.298
		c-1.1,0-1.619-0.262-1.559-0.786c0.521-4.231,2.312-12.012,5.371-23.34c2.637-9.733,3.971-17.578,4.004-23.535
		c0-1.367,1.741-2.409,5.225-3.125c1.119-0.24,2.128-0.359,3.029-0.359c0.2,0,0.395,0.006,0.584,0.018
		c1.074,0.033,1.611,0.244,1.611,0.635c0,1.009-0.033,2.019-0.098,3.027c0.684-0.586,1.383-1.074,2.1-1.465
		c2.571-1.497,5.371-2.441,8.398-2.832C110.325,34.952,110.875,34.916,111.388,34.916 M341.146,35.92
		c0.795,0,1.441,0.141,1.94,0.422c4.524,2.474,6.966,7.031,7.324,13.672c0.26,4.916-0.586,10.271-2.539,16.064
		c-2.051,6.25-4.802,11.101-8.252,14.551c-2.116,2.116-4.688,3.744-7.715,4.883c-2.419,0.897-4.751,1.347-6.997,1.347
		c-0.687,0-1.365-0.042-2.036-0.126c-3.027-0.391-4.752-2.799-5.176-7.227c-0.391-3.874,0.033-8.789,1.27-14.746
		c1.14-5.599,2.653-10.677,4.541-15.234c1.953-4.752,4.068-7.926,6.348-9.521c0.911-0.618,2.083-1.106,3.516-1.465
		c0.748-0.651,1.758-1.188,3.027-1.611C338.333,36.256,339.917,35.92,341.146,35.92 M329.756,81.85
		c0.618-0.618,1.172-1.221,1.66-1.807c1.725-2.278,3.223-4.866,4.492-7.764c2.864-6.608,4.166-12.891,3.906-18.848
		c-0.195-4.785-1.335-8.463-3.418-11.035c-0.586,1.009-1.156,2.116-1.709,3.32c-1.465,3.19-2.751,6.787-3.857,10.791
		c-2.67,9.538-3.5,16.813-2.49,21.826C328.666,79.897,329.137,81.069,329.756,81.85 M309.408,35.92c0.795,0,1.441,0.141,1.94,0.422
		c4.524,2.474,6.966,7.031,7.324,13.672c0.26,4.916-0.586,10.271-2.539,16.064c-2.051,6.25-4.802,11.101-8.252,14.551
		c-2.116,2.116-4.688,3.744-7.715,4.883c-2.419,0.897-4.751,1.347-6.997,1.347c-0.688,0-1.365-0.042-2.036-0.126
		c-3.027-0.391-4.752-2.799-5.176-7.227c-0.031-0.308-0.057-0.623-0.078-0.944c0.77-1.439,1.284-2.915,1.543-4.427
		c0.368-2.233,0.079-4.153-0.867-5.757c0.188-1.16,0.412-2.366,0.672-3.618c1.14-5.599,2.653-10.677,4.541-15.234
		c1.953-4.752,4.068-7.926,6.348-9.521c0.911-0.618,2.083-1.106,3.516-1.465c0.748-0.651,1.758-1.188,3.027-1.611
		C306.595,36.256,308.178,35.92,309.408,35.92 M298.018,81.85c0.618-0.618,1.172-1.221,1.66-1.807
		c1.725-2.278,3.223-4.866,4.492-7.764c2.864-6.608,4.166-12.891,3.906-18.848c-0.195-4.785-1.335-8.463-3.418-11.035
		c-0.586,1.009-1.156,2.116-1.709,3.32c-1.465,3.19-2.751,6.787-3.857,10.791c-2.67,9.538-3.5,16.813-2.49,21.826
		C296.927,79.897,297.399,81.069,298.018,81.85 M72.64,35.92c0.795,0,1.442,0.141,1.94,0.422c4.524,2.474,6.966,7.031,7.324,13.672
		c0.26,4.916-0.586,10.271-2.539,16.064c-2.051,6.25-4.802,11.101-8.252,14.551c-2.116,2.116-4.688,3.744-7.715,4.883
		c-2.418,0.897-4.751,1.347-6.998,1.347c-0.687,0-1.365-0.042-2.036-0.126c-3.027-0.391-4.752-2.799-5.176-7.227
		c-0.391-3.874,0.033-8.789,1.27-14.746c1.14-5.599,2.653-10.677,4.541-15.234c1.953-4.752,4.069-7.926,6.348-9.521
		c0.911-0.618,2.083-1.106,3.516-1.465c0.749-0.651,1.758-1.188,3.027-1.611C69.828,36.256,71.411,35.92,72.64,35.92 M61.25,81.85
		c0.618-0.618,1.172-1.221,1.66-1.807c1.725-2.278,3.223-4.866,4.492-7.764c2.864-6.608,4.167-12.891,3.906-18.848
		c-0.195-4.785-1.335-8.463-3.418-11.035c-0.586,1.009-1.156,2.116-1.709,3.32c-1.465,3.19-2.751,6.787-3.857,10.791
		c-2.669,9.538-3.5,16.813-2.49,21.826C60.159,79.897,60.631,81.069,61.25,81.85 M230.635,35.952h0.005 M230.635,35.952h0.005
		 M368.213,36.338c1.105,0,1.633,0.229,1.582,0.688c-0.554,3.613-1.384,7.878-2.49,12.793c0.813-1.009,1.66-1.937,2.539-2.783
		c3.906-3.743,8.724-6.152,14.453-7.227c0.939-0.183,1.726-0.274,2.359-0.274c1.056,0,1.685,0.254,1.889,0.763
		c1.27,3.158,1.758,7.324,1.465,12.5c-0.229,3.646-0.83,8.22-1.807,13.721c-2.702,15.072-4.785,25.244-6.25,30.518
		c-0.098,0.423-0.814,0.944-2.148,1.563c-1.205,0.553-2.523,0.96-3.955,1.221c-1.022,0.192-1.86,0.288-2.514,0.288
		c-1.343,0-1.905-0.405-1.686-1.215c1.465-5.273,3.516-15.267,6.152-29.98c1.888-10.547,2.327-18.05,1.318-22.51
		c-0.717,0.684-1.367,1.384-1.953,2.1c-2.312,2.8-4.639,6.543-6.982,11.23c-2.246,4.492-5.42,12.354-9.521,23.584
		c-0.358,1.042-2.197,1.904-5.518,2.588c-1.476,0.321-2.614,0.482-3.414,0.482c-0.982,0-1.455-0.242-1.42-0.727
		c0.424-5.794,1.791-13.46,4.102-22.998c2.669-11.067,4.313-18.668,4.932-22.803c0.162-1.172,1.758-2.165,4.785-2.979
		c0.813-0.228,1.822-0.391,3.027-0.488C367.555,36.356,367.907,36.338,368.213,36.338 M169.238,36.338
		c1.105,0,1.633,0.229,1.582,0.688c-0.554,3.613-1.384,7.878-2.49,12.793c0.813-1.009,1.66-1.937,2.539-2.783
		c3.906-3.743,8.724-6.152,14.453-7.227c0.939-0.183,1.726-0.274,2.359-0.274c1.056,0,1.685,0.254,1.889,0.763
		c1.27,3.158,1.758,7.324,1.465,12.5c-0.228,3.646-0.83,8.22-1.807,13.721c-2.702,15.072-4.785,25.244-6.25,30.518
		c-0.098,0.423-0.814,0.944-2.148,1.563c-1.205,0.553-2.523,0.96-3.955,1.221c-1.022,0.192-1.86,0.288-2.513,0.288
		c-1.343,0-1.905-0.405-1.686-1.215c1.465-5.273,3.516-15.267,6.152-29.98c1.888-10.547,2.327-18.05,1.318-22.51
		c-0.716,0.684-1.367,1.384-1.953,2.1c-2.312,2.8-4.639,6.543-6.982,11.23c-2.246,4.492-5.42,12.354-9.521,23.584
		c-0.358,1.042-2.197,1.904-5.518,2.588c-1.476,0.321-2.614,0.482-3.415,0.482c-0.982,0-1.455-0.242-1.419-0.727
		c0.423-5.794,1.791-13.46,4.102-22.998c2.669-11.067,4.313-18.668,4.932-22.803c0.163-1.172,1.758-2.165,4.785-2.979
		c0.813-0.228,1.823-0.391,3.027-0.488C168.58,36.356,168.931,36.338,169.238,36.338 M151.503,36.662
		c1.324,0,1.92,0.398,1.788,1.194c-1.335,7.324-3.06,14.974-5.176,22.949c-1.042,3.809-2.116,7.585-3.223,11.328
		c-1.563,5.208-2.214,8.464-1.953,9.766c0.228,1.205-1.4,2.246-4.883,3.125c-1.527,0.389-2.739,0.583-3.635,0.583
		c-1.128,0-1.756-0.308-1.883-0.925c-0.293-1.432,0.407-4.997,2.1-10.693c1.237-4.167,2.311-7.942,3.223-11.328
		c2.148-8.138,3.874-15.788,5.176-22.949c0.065-0.423,0.765-0.944,2.1-1.563c1.204-0.553,2.539-0.96,4.004-1.221
		C150.091,36.751,150.878,36.662,151.503,36.662 M125.166,42.397c-0.022,0.033-0.033,0.049-0.033,0.049
		S125.144,42.43,125.166,42.397C125.166,42.397,125.166,42.397,125.166,42.397 M129.365,73.061h0.005 M396.122,77.563
		c1.024,0,1.656,0.257,1.896,0.771c0.13,0.358,1.334,2.767,3.613,7.227c0.26,0.554-0.391,1.188-1.953,1.904
		c-0.912,0.423-1.872,0.765-2.881,1.025c-1.542,0.417-2.773,0.625-3.695,0.625c-1.023,0-1.663-0.257-1.92-0.771
		c-2.246-4.459-3.45-6.868-3.613-7.227c-0.423-0.977,1.188-1.953,4.834-2.93C393.959,77.771,395.2,77.563,396.122,77.563
		 M268.764,87.235c-0.084,0.041-0.167,0.079-0.251,0.117c-0.026,0.002-0.053,0.004-0.08,0.006
		C268.62,87.286,268.73,87.245,268.764,87.235 M268.515,87.351c-0.013,0.005-0.025,0.011-0.038,0.017
		c0.012-0.005,0.024-0.011,0.036-0.016C268.514,87.352,268.514,87.352,268.515,87.351 M410.578,3.913
		c-1.64,0-3.328,0.173-5.16,0.529c-12.183,2.315-14.658,9.561-15.049,13.676c-0.005,0.057-0.011,0.114-0.015,0.17
		c-0.219,2.71-0.643,5.857-1.268,9.42c-0.77-0.113-1.579-0.174-2.43-0.174c-1.408,0-2.917,0.16-4.611,0.488
		c-1.131,0.213-2.239,0.465-3.324,0.756c-0.031-0.036-0.063-0.071-0.094-0.106c-1.772-1.977-5.018-4.334-10.414-4.334
		c-0.652,0-1.329,0.031-2.064,0.096c-1.943,0.16-3.64,0.444-5.182,0.871c-3.307,0.894-5.832,2.12-7.756,3.52
		c-1.442-1.237-2.919-2.215-4.323-2.986c-2.295-1.272-4.899-1.917-7.742-1.917c-0.001,0-0.001,0-0.001,0
		c-2.584,0-5.404,0.54-8.617,1.648c-1.62,0.546-3.109,1.229-4.453,2.042c-1.833,0.645-3.494,1.47-4.958,2.463
		c-0.048,0.033-0.096,0.065-0.144,0.099c-0.01,0.007-0.019,0.014-0.028,0.02c-1.889-1.909-3.908-3.318-5.795-4.355
		c-2.295-1.272-4.899-1.917-7.742-1.917c-0.001,0-0.001,0-0.001,0c-1.72,0-3.544,0.239-5.52,0.726
		c-0.459-5.262-2.17-9.655-5.123-13.116c-2.473-2.919-7.126-6.371-15.298-6.371c-0.658,0-1.341,0.022-2.03,0.066
		c-6.324,0.416-12.488,2.349-18.346,5.747c-0.026,0.015-0.052,0.03-0.078,0.045c-8.444,4.984-14.675,13.115-18.517,24.168
		c-3.96,11.353-3.815,21.198,0.431,29.272c-0.008,0.005-0.016,0.011-0.022,0.017c-4.208,3.1-6.86,6.908-7.887,11.32
		c-0.935,3.955-0.608,8.118,0.97,12.375c2.613,7.052,8.313,12.177,16.051,14.431c2.512,0.734,5.2,1.108,7.978,1.108
		c4.717,0,9.845-1.089,15.244-3.237c2.485-0.991,4.795-2.151,6.921-3.474c1.776,0.876,3.627,1.407,5.418,1.638
		c1.205,0.151,2.391,0.225,3.571,0.225c3.665,0,7.424-0.706,11.172-2.096c0.017-0.006,0.034-0.013,0.052-0.019
		c2.383-0.897,4.609-2.014,6.661-3.341c2.966,3.146,6.742,4.774,10.282,5.231c1.205,0.151,2.391,0.225,3.571,0.225
		c3.665,0,7.424-0.706,11.172-2.096c0.018-0.006,0.034-0.013,0.052-0.02c1.922-0.723,3.741-1.589,5.45-2.594
		c0.024,0.027,0.049,0.054,0.073,0.08c1.763,1.896,4.941,4.156,10.078,4.156c1.683,0,3.557-0.236,5.894-0.741
		c0.572-0.118,1.306-0.271,2.141-0.485c-0.556,3.483,0.307,6.981,2.447,9.779c1.477,1.93,4.886,5.168,11.122,5.168
		c1.401,0,2.938-0.16,4.693-0.487c2.4-0.439,4.682-1.151,6.781-2.115c1.714-0.794,6.554-3.039,8.436-8.389
		c1.972-0.015,4.081-0.341,6.619-1.023c1.672-0.436,3.299-1.017,4.838-1.729c1.579-0.724,6.26-2.894,8.211-8.219
		c1.166-3.18,1.017-6.618-0.42-9.679c-0.057-0.123-0.116-0.244-0.178-0.365c-0.614-1.201-1.114-2.184-1.522-2.988
		c0.484-0.686,0.922-1.438,1.301-2.262c0.067-0.147,0.133-0.297,0.194-0.447c0.414-1.006,0.688-1.67,3.631-13.757
		c0.42-1.681,1-3.984,1.739-6.909c0.008-0.028,0.015-0.057,0.021-0.086l1.711-6.99c2.897-11.691,4.642-21.23,5.324-29.12
		c0.299-3.332-0.793-6.677-3.004-9.195c-2.415-2.749-5.757-4.229-9.936-4.401C411.383,3.923,410.981,3.913,410.578,3.913
		L410.578,3.913z M46.113,4.026C46.113,4.026,46.113,4.026,46.113,4.026c-2.353,0-4.898,0.329-7.567,0.977
		c-6.921,1.681-12.808,5.164-17.498,10.353c-6.265,6.942-10.692,16.687-13.164,28.97c-1.508,7.503-2.518,15.937-3.002,25.072
		c-0.009,0.17-0.015,0.34-0.017,0.511c-0.08,7.674,0.33,12.676,1.328,16.22c2.673,9.56,10.401,15.589,20.665,16.105
		c0.024,0.001,0.049,0.002,0.074,0.003c0.459,0.021,0.917,0.03,1.374,0.03c4.335,0,8.59-0.909,12.648-2.703
		c0.054-0.024,0.107-0.048,0.161-0.073c1.887-0.867,3.645-1.886,5.264-3.048c2.082,1.21,4.31,1.915,6.45,2.191
		c1.205,0.151,2.392,0.225,3.571,0.225c3.666,0,7.425-0.706,11.173-2.097c0.017-0.006,0.034-0.013,0.051-0.019
		c1.286-0.484,2.525-1.032,3.716-1.642c1.88,1.814,4.972,3.685,9.73,3.685c1.395,0,2.962-0.158,4.79-0.483
		c2.489-0.442,4.843-1.189,6.999-2.219c0.292-0.134,0.576-0.271,0.853-0.413c1.738,0.915,3.977,1.582,6.81,1.582
		c1.58,0,3.341-0.195,5.531-0.614c0.367,0.722,0.806,1.413,1.314,2.064c1.481,1.897,4.893,5.08,11.098,5.08
		c1.366,0,2.859-0.148,4.566-0.454c2.448-0.445,4.744-1.16,6.854-2.13c2.167-1.004,3.956-2.209,5.359-3.61
		c1.714-0.074,3.573-0.376,5.774-0.937c1.183-0.298,2.258-0.623,3.247-0.982c1.879,1.439,4.633,2.714,8.492,2.714
		c1.682,0,3.557-0.236,5.893-0.741c0.572-0.118,1.306-0.27,2.141-0.485c-0.555,3.484,0.308,6.983,2.449,9.781
		c1.477,1.93,4.885,5.167,11.121,5.167c0.864,0,1.779-0.061,2.765-0.184c1.525,3.109,4.31,6.575,9.392,8.963
		c0.017,0.008,0.034,0.016,0.051,0.023c3.41,1.583,7.13,2.385,11.058,2.385c0.05,0,0.099,0,0.149-0.001
		c8.167-0.101,15.829-3.214,22.159-9.003c3.437-3.131,6.28-7.281,8.677-12.672c1.498-3.383,3.005-8.578,4.749-16.363
		c0.006-0.028,0.013-0.056,0.019-0.084c0.915-4.229,1.822-9.954,2.771-17.495c1.187-6.407,1.989-10.979,2.441-13.904
		c2.111-6.499,3.398-11.782,3.925-16.11c0.036-0.257,0.065-0.517,0.085-0.779c0.039-0.334,0.063-0.669,0.075-1.004
		c0.116-3.295-1.095-6.537-3.352-8.942c-1.747-1.863-4.897-4.083-9.984-4.083c-0.474,0-0.974,0.019-1.484,0.056
		c-1.488,0.115-2.861,0.322-4.129,0.62l-2.742,0.625c-0.199,0.045-0.397,0.096-0.594,0.151c-0.196-0.005-0.395-0.008-0.594-0.008
		c-2.171,0-4.444,0.302-6.948,0.924c-5.198,1.246-9.999,3.594-14.346,7.008c-2.256-2.614-5.838-4.694-10.822-4.694
		c-1.411,0-2.921,0.16-4.62,0.489c-1.128,0.213-2.233,0.464-3.316,0.755c-0.03-0.035-0.06-0.068-0.09-0.103
		c-1.772-1.979-5.018-4.338-10.417-4.338c-0.568,0-1.154,0.024-1.782,0.072c-0.243-2.992-1.551-5.852-3.776-8.077
		c-1.512-1.512-3.308-2.973-5.337-4.343c-0.176-0.119-0.355-0.233-0.538-0.342c-2.256-1.354-4.925-2.04-7.933-2.04
		c-0.574,0-1.18,0.024-1.801,0.072c-0.082,0.006-0.163,0.013-0.244,0.021c-2.292,0.224-4.604,0.747-6.875,1.554
		c-1.701,0.594-3.314,1.373-4.797,2.316c-5.436,3.475-6.549,8.065-6.675,10.8c-0.304,0.018-0.612,0.042-0.922,0.07
		c-2.45,0.231-4.793,0.688-7.023,1.368c-2.775-1.861-6.242-2.894-10.147-2.894c-0.993,0-2.038,0.065-3.104,0.196
		c-0.028,0.003-0.056,0.007-0.083,0.01c-1.979,0.255-3.91,0.672-5.78,1.246c-1.25-0.392-2.628-0.635-4.131-0.697
		c-0.378-0.02-0.764-0.03-1.149-0.03c-1.726,0-3.574,0.207-5.493,0.615c-3.648,0.755-6.403,1.945-8.484,3.348
		c-0.936-0.683-1.871-1.265-2.775-1.762c-2.296-1.275-4.903-1.921-7.749-1.921c0,0,0,0-0.001,0c-1.792,0-3.696,0.259-5.766,0.788
		c-0.367-4.728-1.71-8.83-4.021-12.259C59.167,7.009,53.228,4.026,46.113,4.026L46.113,4.026z"/>
</g>
</svg>
