<?xml version="1.0" encoding="utf-8"?>
<!-- Generator: Adobe Illustrator 24.0.1, SVG Export Plug-In . SVG Version: 6.00 Build 0)  -->
<svg version="1.1" xmlns="http://www.w3.org/2000/svg" xmlns:xlink="http://www.w3.org/1999/xlink" x="0px" y="0px"
	 viewBox="0 0 466 502" style="enable-background:new 0 0 466 502;" xml:space="preserve">
<style type="text/css">
	.st0{display:none;}
	.st1{opacity:0.2;fill:#495C91;}
	.st2{fill:#F2F2F2;stroke:#000000;stroke-miterlimit:10;}
	.st3{fill:#CCCCCC;stroke:#000000;stroke-miterlimit:10;}
	.st4{fill:#999999;stroke:#000000;stroke-miterlimit:10;}
	.st5{fill:#FFFFFF;stroke:#000000;stroke-miterlimit:10;}
	.st6{fill:#CD2030;stroke:#000000;stroke-linecap:round;stroke-linejoin:round;stroke-miterlimit:10;}
	.st7{fill:none;stroke:#000000;stroke-miterlimit:10;}
	.st8{fill:#666666;stroke:#000000;stroke-linecap:round;stroke-linejoin:round;stroke-miterlimit:10;}
	.st9{fill:#666666;stroke:#000000;stroke-miterlimit:10;}
	.st10{fill:#253673;stroke:#000000;stroke-miterlimit:10;}
	.st11{fill:#495C91;stroke:#000000;stroke-miterlimit:10;}
	.st12{fill:#333333;stroke:#000000;stroke-miterlimit:10;}
	.st13{fill:#808080;stroke:#000000;stroke-linecap:round;stroke-linejoin:round;stroke-miterlimit:10;}
	.st14{fill:#E6E6E6;stroke:#000000;stroke-linecap:round;stroke-linejoin:round;stroke-miterlimit:10;}
	.st15{fill:#B3B3B3;stroke:#000000;stroke-miterlimit:10;}
</style>
<g id="Layer_1" class="st0">
	
		<image style="display:inline;overflow:visible;" width="522" height="768" xlink:href="A426903C.jpg"  transform="matrix(0.9999 0 0 0.9999 62.3183 -141.952)">
	</image>
</g>
<g id="Layer_2">
	<rect x="0.5" y="108.3" class="st1" width="334.4" height="326.9"/>
	<rect x="69.6" class="st2" width="219.7" height="502"/>
	<rect x="179.8" y="144.2" class="st3" width="257.4" height="357.8"/>
	<g>
		<rect x="202.4" y="167.6" class="st4" width="83.8" height="24.5"/>
		<rect x="293" y="167.6" class="st4" width="83.8" height="24.5"/>
		<rect x="202.4" y="201.3" class="st4" width="83.8" height="24.5"/>
		<rect x="293" y="201.3" class="st4" width="83.8" height="24.5"/>
		<rect x="202.4" y="235" class="st4" width="83.8" height="24.5"/>
		<rect x="293" y="235" class="st4" width="83.8" height="24.5"/>
		<rect x="202.4" y="268.7" class="st4" width="83.8" height="24.5"/>
		<rect x="293" y="268.7" class="st4" width="83.8" height="24.5"/>
		<rect x="202.4" y="302.3" class="st4" width="83.8" height="24.5"/>
		<rect x="293" y="302.3" class="st4" width="83.8" height="24.5"/>
		<rect x="202.4" y="336" class="st4" width="83.8" height="24.5"/>
		<rect x="293" y="336" class="st4" width="83.8" height="24.5"/>
		<rect x="202.4" y="369.7" class="st4" width="83.8" height="24.5"/>
		<rect x="293" y="369.7" class="st4" width="83.8" height="24.5"/>
		<rect x="202.4" y="403.4" class="st4" width="83.8" height="24.5"/>
		<rect x="293" y="403.4" class="st4" width="83.8" height="24.5"/>
		<rect x="202.4" y="437.1" class="st4" width="83.8" height="24.5"/>
		<rect x="293" y="437.1" class="st4" width="83.8" height="64.9"/>
	</g>
	<path class="st5" d="M214.5,350.3l-11.8,8.1c-0.1-2.9-2.5-6-5.1-8.1l14.4-13.6L214.5,350.3z"/>
	<path class="st5" d="M142.3,488l-37.9,0c-6.7,0-12-5.8-11.3-12.5l11.6-109l0-0.3l31.9-2.3c-0.1,0.2-0.1,0.4-0.1,0.4L152.7,476
		C153.6,482.4,148.7,488,142.3,488z"/>
	<path class="st6" d="M136.5,363.9l-31.9,2.3L98.8,322c-1-7.6,1.8-15.2,7.5-20.4l5.2-4.6c0,0,11.6-8.7,20.8,2.7
		C148.6,319.9,137.7,359.6,136.5,363.9z"/>
	<path class="st7" d="M123.2,313.3l13.6,23.4l-22.6,12.8c0,0-7.2-11.1-9.8-16.6c-1.6-3.4-6.8-12.1-4.5-19.6"/>
	<path class="st8" d="M138.1,488l0.2,5.7c0,0,27.9-8.3,23.4,8.3c-19.6,0-38.5,0-38.5,0v-14L138.1,488z"/>
	<path class="st8" d="M125.3,488l0.2,5.7c0,0,27.9-8.3,23.4,8.3c-19.6,0-38.5,0-38.5,0v-14L125.3,488z"/>
	<path class="st7" d="M120.9,488l3.9,0c3.1,0,5.6-2.5,5.6-5.6l0.3-100.5"/>
	<path class="st9" d="M133.7,260.4h-15.9l1.7,2.8c0.8,1.3,0.3,2.9-1.1,3.5c-1.4,0.6-2.6,2.2-2.2,5.8c-8.3-13.6-16.5-2.6-12,7
		c-2-3-3.8-7.7-3.8-14.6c0-15.1,21.9-21.1,36.2-13.6C135.2,258.2,133.7,260.4,133.7,260.4z"/>
	<path class="st5" d="M134.5,287.6c-6.8,0.8-9.8-1.5-9.8-1.5v10.1c0,1.9-1.3,3.5-3.1,4c-2.6,0.6-6.9,0.9-13.5-0.5l1.5-15.1
		c0,0-2.7-1.3-5.2-5.1c-4.5-9.6,3.7-20.6,12-7c-0.4-3.6,0.8-5.2,2.2-5.8c1.3-0.6,1.8-2.2,1.1-3.5l-1.7-2.8h15.9
		C133.7,260.4,137.5,274,134.5,287.6z"/>
	<path class="st5" d="M200.3,363.1c0,0.1-0.1,0.2-0.3,0.3c-1.9,1.5-3.9,3-5.8,4.5c-0.6,0.4-1.1,0.9-1.8,1.2
		c-1.6,0.7-3.4,0.4-4.9-0.5c-1.5-0.8-3.5-3.6-4.7-4.8l-43.9-2.6c-4.2-0.2-8-2.5-10.3-6l-6.5-10.2l14.7-8.3l3.5,6.6
		c2.1,3.9,5.9,6.5,10.3,6.9l32.2,3.1c2.5-0.8,4.1-2,6.7-1.4c0.1,0,0.2,0.1,0.4,0.1l-0.6,0.5c-0.6,0.6-0.7,1.5-0.1,2.1
		c0.6,0.6,1.5,0.7,2.1,0.1l1.1-0.9c0.2,0.2,0.3,0.4,0.5,0.6c2.4,2.7,4.9,5.5,7.3,8.2c0.1,0.1,0.2,0.2,0.2,0.3L200.3,363.1
		C200.3,363,200.3,363.1,200.3,363.1z"/>
	<path class="st5" d="M183.1,366L183.1,366c-0.6-0.6-0.5-1.6,0.1-2.1l1.7-1.5c0.6-0.6,1.6-0.5,2.1,0.1l0,0c0.6,0.6,0.5,1.6-0.1,2.1
		l-1.7,1.5C184.6,366.7,183.6,366.6,183.1,366z"/>
	<path class="st5" d="M202.7,358.4c0,1.6-0.6,3.2-2.4,4.6c0-0.1-0.1-0.2-0.2-0.3c-2.4-2.7-4.8-5.5-7.3-8.2c-0.2-0.2-0.3-0.4-0.5-0.6
		l-1.1,0.9c-0.6,0.6-1.6,0.5-2.1-0.1c-0.6-0.6-0.5-1.6,0.1-2.1l0.6-0.5l3.7-3.3c0.6-0.5,1.5-0.5,2.1,0.1c0.6,0.4,1.3,0.9,2,1.5
		C200.2,352.4,202.6,355.5,202.7,358.4z"/>
	<path class="st5" d="M185,367.9L185,367.9c-0.6-0.6-0.5-1.6,0.1-2.1l1.7-1.5c0.6-0.6,1.6-0.5,2.1,0.1l0,0c0.6,0.6,0.5,1.6-0.1,2.1
		l-1.7,1.5C186.5,368.6,185.5,368.5,185,367.9z"/>
	<path class="st5" d="M187.2,370.1L187.2,370.1c-0.6-0.6-0.5-1.6,0.1-2.1l1.7-1.5c0.6-0.6,1.6-0.5,2.1,0.1l0,0
		c0.6,0.6,0.5,1.6-0.1,2.1l-1.7,1.5C188.7,370.8,187.8,370.8,187.2,370.1z"/>
	<path class="st7" d="M200.2,363.1c0,0,0.1-0.1,0.1-0.1v0"/>
	<line class="st7" x1="192.6" y1="354" x2="194.9" y2="351.8"/>
	<polygon class="st10" points="252.6,365.3 216.8,368.6 216.8,363.1 250.7,359.3 	"/>
	<path class="st11" d="M286.2,471.8l-31,9.1L247,462v24.2h-30.2c0,0,0-87.4,0-117.5l35.8-3.4L286.2,471.8z"/>
	<path class="st5" d="M250.7,359.3l-34,3.8c-14.3-53.6,6.8-64.2,6.8-64.2l15.9-5.3C254.5,307.2,250.7,359.3,250.7,359.3z"/>
	<path class="st12" d="M243.2,276.8c2.2-12.6-9.9-14.1-12.9-5.1c-1.5-10.6-17.4-9.8-17.4-9.8c-8.3-17.4,27.9-18.1,33.2-0.8
		C247.9,266.8,245.6,272.7,243.2,276.8z"/>
	<path class="st5" d="M243.2,276.8c-1.9,3.3-3.8,5.5-3.8,5.5v11.3c-6.8,13.6-15.9,5.3-15.9,5.3v-11.3c0,0-4.5,1.5-12.1,0.8
		c-2.3-8.3-0.8-18.9,1.5-26.4c0,0,15.9-0.8,17.4,9.8C233.4,262.7,245.5,264.2,243.2,276.8z"/>
	<rect x="225.1" y="355.6" class="st13" width="49.8" height="32.5"/>
	<path class="st5" d="M245.3,302.7l11.6,33.7c1.4,4.2,2,8.6,1.7,13L256,382h-12.1v-28.6c0-5-1.2-10-3.4-14.5l-11.7-23.4"/>
	<path class="st5" d="M244.3,381.9c-1.1,1.7-1.7,3.8-1.7,5.8c0,1,0.2,2.1,0.9,2.9c0.7,0.8,2,1.1,2.8,0.5c0.1,0.6,0.8,1,1.5,1
		c0.7,0,1.2-0.4,1.8-0.8c0.6,1.2,2.5,1.3,3.2,0.2c0.4,0.9,1.6,1.1,2.5,0.7c0.9-0.4,1.4-1.3,1.6-2.3c0.6-2.8-0.5-6.7-1.6-8.1"/>
	<path class="st7" d="M247,462c0,0-20.4-57.4-20.4-74"/>
	<path class="st8" d="M240.9,486.1V502h-42.3c0,0-9.8-21.1,27.2-9.8c0-5.3-0.1-6-0.1-6H240.9z"/>
	<path class="st8" d="M277.9,474.1l7.5,21.9l-19,6h-28.6c0,0-6.8-19.6,29.4-13.6l-3.8-10.6L277.9,474.1z"/>
	<line class="st14" x1="18.6" y1="501.6" x2="465.5" y2="501.6"/>
	<rect x="179.8" y="101.9" class="st15" width="77" height="27.2"/>
	<rect x="179.8" y="65.7" class="st15" width="77" height="27.2"/>
	<rect x="179.8" y="29.4" class="st15" width="77" height="27.2"/>
	<rect x="97.5" y="101.9" class="st15" width="51.7" height="27.2"/>
	<rect x="97.5" y="65.7" class="st15" width="51.7" height="27.2"/>
	<rect x="97.5" y="29.4" class="st15" width="51.7" height="27.2"/>
</g>
</svg>
