<svg xmlns="http://www.w3.org/2000/svg" viewBox="0 0 276.16 326.12"><defs><style>.cls-1{fill:#fff;}.cls-1,.cls-10,.cls-15,.cls-2,.cls-3,.cls-4,.cls-5,.cls-6,.cls-7,.cls-8{stroke:#000;}.cls-1,.cls-10,.cls-11,.cls-2,.cls-3,.cls-4,.cls-5,.cls-6,.cls-7,.cls-8,.cls-9{stroke-miterlimit:10;}.cls-1,.cls-15,.cls-2,.cls-3,.cls-4,.cls-5,.cls-6,.cls-7,.cls-8{stroke-width:0.74px;}.cls-11,.cls-15,.cls-2,.cls-9{fill:none;}.cls-4{fill:#e6e6e6;}.cls-5{fill:#b3b3b3;}.cls-6{fill:#0f1018;}.cls-12,.cls-13,.cls-14,.cls-7{fill:#253673;}.cls-10,.cls-8{fill:#cd2030;}.cls-11,.cls-9{stroke:#fff;}.cls-9{stroke-width:1.48px;}.cls-10{stroke-width:0.79px;}.cls-11{stroke-width:1.58px;}.cls-12{opacity:0.5;}.cls-13{opacity:0.2;}.cls-15{stroke-linecap:round;stroke-linejoin:round;}</style></defs><title>workflow1</title><g id="Layer_2" data-name="Layer 2"><g id="Layer_1-2" data-name="Layer 1"><path class="cls-1" d="M243.3,75.18A74.82,74.82,0,1,1,168.49.37,74.81,74.81,0,0,1,243.3,75.18Z"/><circle class="cls-2" cx="119.33" cy="108.1" r="6.54"/><path class="cls-1" d="M88.31,160.43S92,161.8,95,155.89,107.51,130,107.51,130s-3-6.65-1.48-8.86,5.17-3.69,5.17-3.69,4.43-6.65,5.91-9.6,5.91-1.48,3.69,2.21a27.3,27.3,0,0,0-3,6.65s8.12,3,6.65,5.91-6.65,11.07-6.65,11.07-11.82,28.81-14,34-6.65,8.12-15.51,6.64Z"/><path class="cls-3" d="M67,309.46l-.15,16.29H96.43s2.22-11.81-20.68-5.17V308.4"/><path class="cls-4" d="M39.56,195.77S27.75,304.34,30,308s57.62,3.43,58.72-2.59c2.95-16.24-16.62-109.67-16.62-109.67"/><line class="cls-2" x1="59.33" y1="310.38" x2="59.33" y2="212.02"/><path class="cls-5" d="M50.22,196.19H39.56L36.4,225.84s10-5.59,13.82-29.65"/><path class="cls-1" d="M45.3,214.14a36.45,36.45,0,0,1-6,9.29c-2.69-1.94-16.68-12.3-16.68-17.32,0-3.94,1.25-13.68,1.53-15.83H37.42c-.17,1.81-.81,8.93-.81,12.14C36.61,206.58,43.44,212.59,45.3,214.14Z"/><path class="cls-2" d="M24.16,189.86s0,.15-.05.42"/><path class="cls-2" d="M37.45,189.86l0,.42"/><path class="cls-3" d="M42.67,310.2l-.15,15.55H72.06s2.22-11.81-20.68-5.17V310.24"/><path class="cls-6" d="M51.7,114.8c-15.67,12.5-6.81,20.73-6.81,20.73l-1.26.94s-3-4.32-6.18-1.58c-4.43,3.8,3.94,10.7,3.94,10.7-4-.93-9.43-3.14-11.7-8.32-2.16-4.92,6.92-31.5,6.92-31.5S52.49,107.36,51.7,114.8Z"/><path class="cls-1" d="M61.92,145.33l.54,7.61c0,9.6-16.25,2.95-16.25,2.95v-9.6a25.85,25.85,0,0,1-4.82-.7s-8.37-6.9-3.94-10.7c3.2-2.74,6.18,1.58,6.18,1.58l1.26-.94S36,127.3,51.7,114.8c5.69,2.69,14.56,13.92,18.36,24C65.78,144.07,61.92,145.33,61.92,145.33Z"/><polygon class="cls-4" points="275.79 116.11 275.79 266.4 138.42 266.4 138.42 104.3 150.23 116.11 275.79 116.11"/><line class="cls-2" y1="325.75" x2="240.64" y2="325.75"/><path class="cls-2" d="M207.77,83.57l3.15-.86,1.53-2.58V73c-2.29-1.43-2-6.4-2.39-7.64s-2.2-1.72-2.2-1.72l-8.5-8.41s-27.13-2.19-37,0-16.72,10.13-19.88,10.13c-7.36,0-17.48,4.11-18.44,5.83s-.66,12.23-.66,12.23l6,1"/><path class="cls-7" d="M178.1,55.9l-.24,8.94,16.92-1.05s1.91-2.77,1.81-4.49-3.44-2.52-3.44-2.52a120,120,0,0,0-24.46-.48c-9,.77-14.42,4.72-20.16,10.55l24.75-2L174.8,56"/><circle class="cls-7" cx="138.31" cy="82.9" r="6.78"/><circle class="cls-7" cx="199.36" cy="82.9" r="6.78"/><line class="cls-2" x1="147.2" y1="84.33" x2="190.48" y2="84.33"/><path class="cls-2" d="M125.08,73.68a11.75,11.75,0,0,1,4.06-.72c1.86-2.34,5.3-3.48,5.25-3.53a4.24,4.24,0,0,0-2.15-1"/><circle class="cls-8" cx="95.13" cy="73.68" r="11.19"/><polyline class="cls-9" points="96.94 79.01 91.61 73.68 96.94 68.36"/><circle class="cls-10" cx="243.39" cy="74.59" r="12"/><polyline class="cls-11" points="241.45 68.88 247.16 74.59 241.45 80.3"/><line class="cls-2" x1="114.9" y1="89.68" x2="223.14" y2="89.68"/><circle class="cls-1" cx="158.15" cy="137.2" r="7.66"/><rect class="cls-12" x="175.88" y="134.55" width="50.22" height="5.3"/><circle class="cls-1" cx="158.15" cy="159.27" r="7.66"/><rect class="cls-12" x="175.88" y="156.61" width="77.76" height="5.3"/><circle class="cls-1" cx="158.15" cy="181.33" r="7.66"/><rect class="cls-13" x="175.88" y="176.48" width="77.76" height="9.69"/><circle class="cls-1" cx="158.15" cy="203.39" r="7.66"/><rect class="cls-12" x="175.88" y="200.74" width="64.76" height="5.3"/><circle class="cls-1" cx="158.15" cy="225.45" r="7.66"/><circle class="cls-1" cx="158.15" cy="247.51" r="7.66"/><rect class="cls-12" x="175.88" y="244.86" width="35.04" height="5.3"/><rect class="cls-14" x="175.88" y="176.48" width="42.2" height="9.69"/><rect class="cls-13" x="175.88" y="220.61" width="77.76" height="9.69"/><rect class="cls-14" x="175.88" y="220.61" width="70.09" height="9.69"/><path class="cls-15" d="M111.2,117.49c1.85-.85,3.75.15,1.27,2.69s2.4,4.64,0,7.12"/><path class="cls-15" d="M117.85,116.75c-1.53,3.22-1.11,2.48-1.9,4a1.41,1.41,0,0,0,2.53,1.26,21.85,21.85,0,0,0,1.94-4.14"/><path class="cls-15" d="M120.42,118c-1.52,3.21-1.1,2.48-1.89,4s1.47,2.84,2.53,1.26a25.2,25.2,0,0,0,1.94-3.78"/><path class="cls-15" d="M123,119.45c-1.37,2.71-1.24,2.84-1.94,4.12s1.32,2.4,2.26,1.07a9.52,9.52,0,0,0,1.33-3"/><path class="cls-8" d="M88.31,157.79v23.63l-11.08-1.48-5.17,16.25H39.56v-5.91H20.36l5.91-29.54,19.94-4.43s16.25,6.65,16.25-2.95Z"/><path class="cls-2" d="M77.23,179.52c1.48-4.43,4.06-10.71-1.11-19.57"/><line class="cls-2" x1="39.56" y1="189.86" x2="39.56" y2="170.66"/></g></g></svg>