<svg xmlns="http://www.w3.org/2000/svg" xmlns:xlink="http://www.w3.org/1999/xlink" viewBox="0 0 344.72 261.35"><defs><style>.cls-1,.cls-2{fill:none;}.cls-12,.cls-13,.cls-14,.cls-2,.cls-3,.cls-4,.cls-5,.cls-6,.cls-7{stroke:#000;stroke-width:0.66px;}.cls-13,.cls-14,.cls-2,.cls-3,.cls-4,.cls-5,.cls-6,.cls-7{stroke-linecap:round;stroke-linejoin:round;}.cls-3{fill:#ccc;}.cls-4,.cls-8{fill:#cd2030;}.cls-5{fill:#e6e6e6;}.cls-6{fill:#fff;}.cls-12,.cls-7,.cls-9{fill:#333;}.cls-10{clip-path:url(#clip-path);}.cls-11{fill:#253673;}.cls-12{stroke-miterlimit:10;}.cls-13{fill:#b3b3b3;}.cls-14{fill:#999;}</style><clipPath id="clip-path"><polygon class="cls-1" points="267.22 0.33 267.22 101.15 256.68 111.27 188.87 111.27 188.87 0.33 267.22 0.33"/></clipPath></defs><title>workflow2</title><g id="Layer_2" data-name="Layer 2"><g id="Layer_1-2" data-name="Layer 1"><line class="cls-2" x1="0.33" y1="261.01" x2="331.43" y2="261.01"/><rect class="cls-3" x="105.72" y="202.49" width="72.6" height="8.23" rx="4.11"/><polygon class="cls-3" points="113.47 210.71 113.47 261.01 116.64 261.01 121.38 210.71 113.47 210.71"/><polygon class="cls-3" points="123.59 210.71 123.59 261.01 126.76 261.01 131.5 210.71 123.59 210.71"/><polygon class="cls-3" points="172 210.71 172 261.01 168.84 261.01 163.77 210.71 172 210.71"/><polygon class="cls-3" points="161.33 210.71 161.33 261.01 158.17 261.01 153.11 210.71 161.33 210.71"/><path class="cls-4" d="M206.65,168.32H118.77c-1.5-18.82-1.47-40.44-1.39-50.92a8.29,8.29,0,0,1,5.39-7.7L142,102.52l24.43,4.2a15.47,15.47,0,0,1,11.84,9.75L186.87,139l-13,5.55-3,1.3-4.08-11.57-8,28h37.65C200.41,162.31,203.8,164.56,206.65,168.32Z"/><path class="cls-5" d="M184.34,241.71V193s-42.08,9.5-55.36,9.5c-5.81,0-8.74-15.75-10.21-34.17h87.88c14,18.5,14.7,73.39,14.7,73.39Z"/><path class="cls-6" d="M211.54,144.27l-7.91,13.29H188.25c-3.47,0-8.23-3-9.93-6-.79-1.43-2.11-3.49-3.57-5.69l-.87-1.3,13-5.55a8.15,8.15,0,0,0,7.63,5.26Z"/><path class="cls-6" d="M126.69,148.87c5.31,6.62,13.08,13.44,18.21,13.44,11,0,44-4.75,44-4.75h14.76l3.35-5.62s-13.36-7.93-20.75-2.07l-40.49-.64-2.89-6.31"/><polygon class="cls-7" points="203.63 157.56 222.51 126.67 267.22 126.67 245.92 162.31 172.1 162.31 172.1 159.8 188.87 157.56 203.63 157.56"/><path class="cls-2" d="M117.35,126.67a74.35,74.35,0,0,0,4.35,24l21.15-7.79-9.13-19.52"/><path class="cls-6" d="M136.12,104.72V97.18s-13-11.43-11.28-22.86S157,65.86,157,65.86s6.51,20.13,1.43,33c-4.71.19-7.84,0-7.84,0l0,5.11S147.32,110.9,136.12,104.72Z"/><path class="cls-7" d="M127.57,86.4S120.22,74.15,123,61.5c19.38-11.18,36.92-5.64,36.92-5.64l-1.4,15.79-16-1.93,3.65,4.64s-5.51,2.74-5.92,7.17l-2.3-.42C134.77,71.41,127.38,74.79,127.57,86.4Z"/><circle class="cls-6" cx="75.72" cy="76.26" r="23.62"/><polygon class="cls-8" points="69.22 65.34 85.76 76.26 69.22 87.18 69.22 65.34"/><polygon class="cls-5" points="267.22 0.33 267.22 121.81 256.68 111.27 188.87 111.27 188.87 0.33 267.22 0.33"/><polygon class="cls-5" points="176.81 194.64 169.35 244.56 198.68 244.56 198.68 241.72 184.34 241.72 184.34 193 176.81 194.64"/><path class="cls-9" d="M198.68,241.72V261h34.16c6.12,0,8.23-19.61-21.72-10.54,0-6.54-.21-8.75-.21-8.75Z"/><path class="cls-9" d="M182.52,244.56V261h29.12c5.22,0,7-16.72-18.51-9,0-5.57-.18-7.46-.18-7.46Z"/><g class="cls-10"><path class="cls-6" d="M336.54,85.22l5.28-1.44,2.57-4.33v-12c-3.85-2.4-3.37-10.73-4-12.81s-3.68-2.88-3.68-2.88l-14.25-14.1s-45.49-3.68-62,0-28,17-33.31,17c-12.34,0-29.31,6.89-30.91,9.77s-1.12,20.5-1.12,20.5l10.09,1.6"/><path class="cls-11" d="M286.81,38.84l-.4,15,28.35-1.76s3.2-4.65,3-7.53S312,40.32,312,40.32a200.86,200.86,0,0,0-41-.8c-15.05,1.28-24.18,7.9-33.79,17.67l41.48-3.36,2.55-14.9"/><circle class="cls-11" cx="220.11" cy="84.1" r="11.37"/><circle class="cls-11" cx="322.45" cy="84.1" r="11.37"/><line class="cls-6" x1="235.01" y1="86.5" x2="307.55" y2="86.5"/><path class="cls-6" d="M197.93,68.64s1.69-.88,6.81-1.2c3.12-3.92,8.89-5.84,8.81-5.92a7.22,7.22,0,0,0-3.61-1.69"/><line class="cls-12" x1="203.81" y1="95.47" x2="280.51" y2="95.47"/></g><rect class="cls-3" x="68.55" y="162.31" width="219.55" height="6.01" rx="3.01"/><polygon class="cls-13" points="79.62 168.32 47.67 261.01 53.36 261.01 94.17 168.32 79.62 168.32"/><polygon class="cls-14" points="114.42 168.32 82.47 261.01 88.16 261.01 128.97 168.32 114.42 168.32"/><polygon class="cls-13" points="276.08 168.32 315.94 261.01 310.56 261.01 263.74 168.32 276.08 168.32"/><polygon class="cls-14" points="240.65 168.32 280.51 261.01 275.13 261.01 228.31 168.32 240.65 168.32"/><polygon class="cls-2" points="267.22 0.33 267.22 121.81 256.68 111.27 188.87 111.27 188.87 0.33 267.22 0.33"/><polygon class="cls-6" points="227.96 42.52 227.96 58.79 221.62 52.45 162.17 52.45 162.17 42.52 227.96 42.52"/><polygon class="cls-6" points="227.96 13.79 227.96 30.06 221.62 23.73 162.17 23.73 162.17 13.79 227.96 13.79"/><polygon class="cls-4" points="138.02 38.2 138.02 21.93 144.36 28.26 203.81 28.26 203.81 38.2 138.02 38.2"/></g></g></svg>