<svg xmlns="http://www.w3.org/2000/svg" viewBox="0 0 340.73 250.86"><defs><style>.cls-1{fill:#1a1a1a;}.cls-1,.cls-11,.cls-12,.cls-14,.cls-15,.cls-16,.cls-2,.cls-3,.cls-4,.cls-5,.cls-6,.cls-7,.cls-8,.cls-9{stroke:#000;}.cls-1,.cls-10,.cls-13,.cls-2,.cls-3,.cls-4,.cls-5,.cls-6,.cls-8,.cls-9{stroke-linecap:round;stroke-linejoin:round;}.cls-1,.cls-10,.cls-11,.cls-12,.cls-13,.cls-14,.cls-15,.cls-16,.cls-2,.cls-3,.cls-4,.cls-5,.cls-6,.cls-7,.cls-8,.cls-9{stroke-width:0.68px;}.cls-16,.cls-2{fill:#333;}.cls-3{fill:#e6e6e6;}.cls-10,.cls-4{fill:gray;}.cls-5{fill:#4d4d4d;}.cls-6{fill:#ccc;}.cls-7{fill:#495c91;}.cls-11,.cls-12,.cls-14,.cls-15,.cls-16,.cls-17,.cls-7{stroke-miterlimit:10;}.cls-8{fill:#dd4e5f;}.cls-9{fill:#cd2030;}.cls-10,.cls-13{stroke:#333;}.cls-11{fill:#fff;}.cls-12,.cls-17{fill:none;}.cls-13,.cls-14{fill:#666;}.cls-15{fill:#253673;}.cls-17{stroke:#fff;stroke-width:3.4px;}</style></defs><title>workflow4</title><g id="Layer_2" data-name="Layer 2"><g id="Layer_1-2" data-name="Layer 1"><rect class="cls-1" x="45.79" y="174.29" width="194.1" height="49.77" transform="translate(285.89 398.2) rotate(179.94)"/><path class="cls-2" d="M257.7,223.94c0,14.53,10.21,26.3,22.78,26.29a20.07,20.07,0,0,0,7.82-1.61c8.7-3.69,14.91-13.37,14.9-24.73s-6.24-21-15-24.69a20,20,0,0,0-7.82-1.59C267.86,197.62,257.68,209.42,257.7,223.94Z"/><path class="cls-1" d="M288.3,248.62a20.07,20.07,0,0,1-7.82,1.61l15.64,0c12.56,0,22.74-11.81,22.72-26.33s-10.21-26.3-22.78-26.29l-15.64,0a20,20,0,0,1,7.82,1.59c8.72,3.68,14.95,13.34,15,24.69S297,244.93,288.3,248.62Z"/><path class="cls-2" d="M117.63,224.09c0,14.52,10.21,26.29,22.78,26.28a20.06,20.06,0,0,0,7.82-1.6c8.7-3.7,14.91-13.37,14.9-24.73s-6.24-21-14.95-24.7a19.88,19.88,0,0,0-7.83-1.58C127.79,197.77,117.61,209.56,117.63,224.09Z"/><path class="cls-1" d="M148.23,248.77a20.06,20.06,0,0,1-7.82,1.6h15.64c12.56,0,22.74-11.81,22.73-26.34S168.56,197.73,156,197.74l-15.65,0a19.88,19.88,0,0,1,7.83,1.58c8.71,3.68,14.94,13.35,14.95,24.7S156.93,245.07,148.23,248.77Z"/><polygon class="cls-3" points="323.05 168.77 251.6 168.84 198.44 159.84 263.14 159.77 323.05 168.77"/><path class="cls-4" d="M190.15,224c0,14.53,10.22,26.3,22.78,26.29a20.21,20.21,0,0,0,7.82-1.6c8.71-3.7,14.92-13.38,14.91-24.73s-6.25-21-15-24.7a20.05,20.05,0,0,0-7.82-1.59C200.31,197.69,190.14,209.49,190.15,224Z"/><path class="cls-5" d="M220.75,248.7a20.21,20.21,0,0,1-7.82,1.6l15.64,0c12.57,0,22.74-11.81,22.73-26.33s-10.22-26.3-22.78-26.28H212.88a20.05,20.05,0,0,1,7.82,1.59c8.71,3.68,14.94,13.34,15,24.7S229.46,245,220.75,248.7Z"/><path class="cls-4" d="M50.08,224.16c0,14.52,10.22,26.29,22.78,26.28a20,20,0,0,0,7.82-1.6c8.71-3.7,14.92-13.37,14.91-24.73s-6.25-21-15-24.7a19.87,19.87,0,0,0-7.82-1.58C60.24,197.84,50.07,209.63,50.08,224.16Z"/><path class="cls-5" d="M80.68,248.84a20,20,0,0,1-7.82,1.6H88.5c12.57,0,22.74-11.81,22.73-26.34S101,197.8,88.45,197.81l-15.64,0a19.87,19.87,0,0,1,7.82,1.58c8.71,3.68,15,13.35,15,24.7S89.39,245.14,80.68,248.84Z"/><path class="cls-6" d="M49.31,160l-7.87,1.43a6,6,0,0,0-4.9,5.91l.36,51.52a5,5,0,0,0,5,5h4.2c.15-16.92,12-30.59,26.71-30.6a23.41,23.41,0,0,1,9.2,1.86c10.15,4.29,17.44,15.49,17.58,28.68l86.57-.09c.16-16.91,12-30.58,26.72-30.6a23.59,23.59,0,0,1,9.2,1.86c10.15,4.3,17.44,15.49,17.57,28.69l23.39,0L251.6,168.85l-53.16-9Z"/><path class="cls-3" d="M323.39,168.77l-71.79.08L263,223.58l74.11-.08a3.24,3.24,0,0,0,3.16-4l-10.77-45.89A6.3,6.3,0,0,0,323.39,168.77Z"/><path class="cls-6" d="M198.44,159.84l-21.92-53.13-89,.09a7.41,7.41,0,0,0-5.67,2.68L49.36,160Z"/><path class="cls-3" d="M176.52,106.71l57.52-.06a6.81,6.81,0,0,1,6.17,3.93l22.93,49.19-64.7.07Z"/><polyline class="cls-7" points="194.35 160.02 173.68 110.98 110.4 111.05 110.45 159.93"/><path class="cls-7" d="M103.8,159.93l0-48.88-14.77,0a7.36,7.36,0,0,0-5.65,2.64L53.93,160Z"/><path class="cls-7" d="M182.92,111l20.42,48.86,55-.06-21-44.93a6.81,6.81,0,0,0-6.17-3.92Z"/><path class="cls-3" d="M204,224c0,5.69,4,10.3,8.92,10.3a7.77,7.77,0,0,0,3.07-.63c3.41-1.45,5.84-5.24,5.84-9.69s-2.45-8.24-5.86-9.68a7.94,7.94,0,0,0-3.07-.62C208,213.68,204,218.31,204,224Z"/><path class="cls-3" d="M63.92,224.14c0,5.7,4,10.31,8.93,10.3a7.89,7.89,0,0,0,3.06-.62,10.35,10.35,0,0,0,5.84-9.69c0-4.45-2.45-8.24-5.86-9.68a7.59,7.59,0,0,0-3.07-.62C67.9,213.83,63.91,218.45,63.92,224.14Z"/><line class="cls-6" x1="323.14" y1="250.18" x2="0.34" y2="250.52"/><polygon class="cls-8" points="312.8 178.21 314.95 186.64 325.73 186.63 323.74 178.2 312.8 178.21"/><polygon class="cls-9" points="260.37 178.26 262.14 186.69 273.26 186.68 271.31 178.25 260.37 178.26"/><polygon class="cls-10" points="275.57 178.25 277.52 186.68 284.92 218.67 318.84 218.63 310.69 186.64 308.54 178.21 275.57 178.25"/><path class="cls-11" d="M239.6,112.91,229,120.24c-.07-2.64-2.26-5.38-4.57-7.33l13-12.25Z"/><path class="cls-11" d="M174.5,237.05l-34.13,0a10.21,10.21,0,0,1-10.16-11.29l10.44-98.21,0-.3,28.71-2.06c-.07.22-.1.34-.1.34l14.67,100.71A9.48,9.48,0,0,1,174.5,237.05Z"/><path class="cls-9" d="M169.32,125.16l-28.71,2.06-5.27-39.74a20.92,20.92,0,0,1,6.79-18.35L146.81,65s10.49-7.82,18.71,2.39C180.18,85.55,170.41,121.33,169.32,125.16Z"/><path class="cls-12" d="M157.3,79.58l12.24,21.08-20.4,11.57s-6.49-10-8.84-15c-1.46-3.07-6.12-10.88-4.08-17.68"/><path class="cls-13" d="M170.76,237l.14,5.1s25.17-7.48,21.09,7.48H157.3V237Z"/><path class="cls-13" d="M159.2,237l.14,5.1s25.17-7.48,21.09,7.48H145.74V237Z"/><path class="cls-12" d="M155.26,237h3.55a5,5,0,0,0,5.06-5l.23-90.52"/><path class="cls-14" d="M166.82,32H152.54l1.57,2.51a2.19,2.19,0,0,1-1,3.16c-1.22.56-2.31,1.94-2,5.21-7.48-12.24-14.83-2.32-10.82,6.32-1.82-2.75-3.46-7-3.46-13.12,0-13.6,19.72-19,32.64-12.24C168.18,29.93,166.82,32,166.82,32Z"/><path class="cls-11" d="M167.5,56.45c-6.12.68-8.84-1.36-8.84-1.36v9.12a3.66,3.66,0,0,1-2.77,3.58c-2.3.55-6.18.85-12.19-.45l1.36-13.61a13.29,13.29,0,0,1-4.7-4.56c-4-8.64,3.34-18.56,10.82-6.32-.33-3.27.76-4.65,2-5.21a2.19,2.19,0,0,0,1-3.16L152.54,32h14.28S170.22,44.21,167.5,56.45Z"/><path class="cls-11" d="M226.8,124.47a.58.58,0,0,1-.23.31l-5.24,4.07a7.32,7.32,0,0,1-1.6,1,5.15,5.15,0,0,1-4.45-.41c-1.36-.73-3.16-3.22-4.25-4.33l-39.56-2.36a11.75,11.75,0,0,1-9.24-5.43l-5.89-9.21,13.2-7.49,3.15,6a11.78,11.78,0,0,0,9.3,6.22l29,2.8c2.26-.69,3.72-1.77,6-1.24l.34.1-.52.46a1.36,1.36,0,1,0,1.8,2l.95-.84.46.51q3.28,3.7,6.56,7.43a.62.62,0,0,1,.17.29h0A.1.1,0,0,1,226.8,124.47Z"/><rect class="cls-11" x="211.71" y="123.11" width="2.72" height="4.76" rx="1.36" transform="translate(165.59 -117.19) rotate(48.43)"/><path class="cls-11" d="M229,120.24a4.9,4.9,0,0,1-2.17,4.13.62.62,0,0,0-.17-.29q-3.28-3.72-6.56-7.43l-.46-.51-.95.84a1.36,1.36,0,1,1-1.8-2l.52-.46,3.37-3a1.36,1.36,0,0,1,1.86,0,18.43,18.43,0,0,1,1.79,1.36C226.7,114.86,228.89,117.6,229,120.24Z"/><rect class="cls-11" x="213.41" y="124.81" width="2.72" height="4.76" rx="1.36" transform="translate(167.44 -117.89) rotate(48.43)"/><rect class="cls-11" x="215.46" y="126.85" width="2.72" height="4.76" rx="1.36" transform="translate(169.65 -118.73) rotate(48.43)"/><path class="cls-12" d="M226.68,124.47l.11-.09h0"/><line class="cls-12" x1="219.88" y1="116.31" x2="221.92" y2="114.27"/><polygon class="cls-15" points="273.94 126.44 241.64 129.46 241.64 124.47 272.25 121.07 273.94 126.44"/><path class="cls-3" d="M304.22,222.41l-27.89,8.17-7.48-17v21.77H241.64V129.46l32.3-3Z"/><path class="cls-11" d="M272.25,121.07l-30.61,3.4c-12.92-48.29,6.12-57.81,6.12-57.81l14.29-4.77C275.65,74.14,272.25,121.07,272.25,121.07Z"/><path class="cls-16" d="M265.49,46.74c2-11.37-8.88-12.73-11.61-4.57-1.36-9.52-15.64-8.84-15.64-8.84-7.48-15.65,25.17-16.33,29.93-.68C269.7,37.67,267.63,43,265.49,46.74Z"/><path class="cls-11" d="M265.49,46.74a32.66,32.66,0,0,1-3.44,4.95v10.2c-6.13,12.25-14.29,4.77-14.29,4.77V56.45s-4.08,1.36-10.88.68c-2-7.48-.68-17,1.36-23.8,0,0,14.28-.68,15.64,8.84C256.61,34,267.49,35.37,265.49,46.74Z"/><rect class="cls-10" x="249.12" y="117.67" width="44.89" height="29.25"/><path class="cls-11" d="M267.32,70l10.45,30.38a29.32,29.32,0,0,1,1.5,11.72L277,141.47H266.13V115.71a29.21,29.21,0,0,0-3.08-13l-10.53-21"/><path class="cls-11" d="M266.47,141.43a9.41,9.41,0,0,0-1.49,5.26,4,4,0,0,0,.82,2.63,1.92,1.92,0,0,0,2.51.41,1.26,1.26,0,0,0,1.33.91,3,3,0,0,0,1.59-.68,1.78,1.78,0,0,0,2.91.16,1.74,1.74,0,0,0,2.24.68,2.88,2.88,0,0,0,1.42-2.05,10.44,10.44,0,0,0-1.47-7.28"/><path class="cls-12" d="M268.85,213.57s-18.37-51.69-18.37-66.65"/><path class="cls-13" d="M263.41,235.34v14.28H225.32s-8.84-19,24.48-8.84c0-4.76-.09-5.44-.09-5.44Z"/><path class="cls-13" d="M296.73,224.45l6.81,19.73-17.1,5.44H260.69s-6.13-17.68,26.52-12.24l-3.4-9.53Z"/><circle class="cls-7" cx="72.96" cy="21.09" r="20.75"/><polyline class="cls-17" points="63.02 19.79 70.37 27.14 83.33 14.17"/></g></g></svg>