<svg xmlns="http://www.w3.org/2000/svg" viewBox="0 0 320.96 241.73"><defs><style>.cls-1{fill:#fff;}.cls-1,.cls-10,.cls-11,.cls-13,.cls-14,.cls-6,.cls-7,.cls-8,.cls-9{stroke:#000;}.cls-1,.cls-10,.cls-11,.cls-12,.cls-13,.cls-14,.cls-6,.cls-7,.cls-8,.cls-9{stroke-linecap:round;stroke-linejoin:round;stroke-width:0.64px;}.cls-10,.cls-2,.cls-4{fill:#e6e6e6;}.cls-3,.cls-5{fill:#253673;}.cls-4,.cls-5{opacity:0.5;}.cls-6{fill:#cd2030;}.cls-7{fill:#ccc;}.cls-8{fill:#1a1a1a;}.cls-11{fill:#4d4d4d;}.cls-12{fill:#666;stroke:#333;}.cls-13{fill:#333;}.cls-14{fill:none;}</style></defs><title>workflow3</title><g id="Layer_2" data-name="Layer 2"><g id="Layer_1-2" data-name="Layer 1"><rect class="cls-1" x="80.19" y="0.32" width="104.47" height="99.03"/><circle class="cls-2" cx="91.1" cy="23.44" r="5.28"/><circle class="cls-2" cx="104.87" cy="23.44" r="5.28"/><circle class="cls-2" cx="118.65" cy="23.44" r="5.28"/><circle class="cls-2" cx="132.43" cy="23.44" r="5.28"/><circle class="cls-2" cx="146.2" cy="23.44" r="5.28"/><circle class="cls-2" cx="159.98" cy="23.44" r="5.28"/><circle class="cls-3" cx="173.75" cy="23.44" r="5.28"/><circle class="cls-4" cx="91.1" cy="36.52" r="5.28"/><circle class="cls-4" cx="104.87" cy="36.52" r="5.28"/><circle class="cls-4" cx="118.65" cy="36.52" r="5.28"/><circle class="cls-4" cx="132.43" cy="36.52" r="5.28"/><circle class="cls-4" cx="146.2" cy="36.52" r="5.28"/><circle class="cls-4" cx="159.98" cy="36.52" r="5.28"/><circle class="cls-5" cx="173.75" cy="36.52" r="5.28"/><circle class="cls-4" cx="91.1" cy="49.61" r="5.28"/><circle class="cls-4" cx="104.87" cy="49.61" r="5.28"/><circle class="cls-6" cx="118.65" cy="49.61" r="5.28"/><circle class="cls-4" cx="132.43" cy="49.61" r="5.28"/><circle class="cls-4" cx="146.2" cy="49.61" r="5.28"/><circle class="cls-4" cx="159.98" cy="49.61" r="5.28"/><circle class="cls-5" cx="173.75" cy="49.61" r="5.28"/><circle class="cls-4" cx="91.1" cy="62.69" r="5.28"/><circle class="cls-4" cx="104.87" cy="62.69" r="5.28"/><circle class="cls-4" cx="118.65" cy="62.69" r="5.28"/><circle class="cls-4" cx="132.43" cy="62.69" r="5.28"/><circle class="cls-4" cx="146.2" cy="62.69" r="5.28"/><circle class="cls-4" cx="159.98" cy="62.69" r="5.28"/><circle class="cls-5" cx="173.75" cy="62.69" r="5.28"/><circle class="cls-4" cx="91.1" cy="75.78" r="5.28"/><circle class="cls-4" cx="104.87" cy="75.78" r="5.28"/><circle class="cls-4" cx="118.65" cy="75.78" r="5.28"/><circle class="cls-4" cx="132.43" cy="75.78" r="5.28"/><circle class="cls-4" cx="146.2" cy="75.78" r="5.28"/><circle class="cls-4" cx="159.98" cy="75.78" r="5.28"/><circle class="cls-5" cx="173.75" cy="75.78" r="5.28"/><circle class="cls-4" cx="91.1" cy="88.87" r="5.28"/><circle class="cls-4" cx="104.87" cy="88.87" r="5.28"/><circle class="cls-4" cx="118.65" cy="88.87" r="5.28"/><circle class="cls-4" cx="132.43" cy="88.87" r="5.28"/><circle class="cls-4" cx="146.2" cy="88.87" r="5.28"/><circle class="cls-4" cx="159.98" cy="88.87" r="5.28"/><circle class="cls-5" cx="173.75" cy="88.87" r="5.28"/><rect class="cls-7" x="80.22" y="0.32" width="104.47" height="12.05"/><rect class="cls-8" x="94.95" y="169.75" width="182.82" height="46.88"/><path class="cls-8" d="M78.21,216.63c0,13.68-9.59,24.78-21.43,24.78a18.84,18.84,0,0,1-7.36-1.5c-8.21-3.48-14.07-12.59-14.07-23.28s5.86-19.8,14.07-23.28a18.84,18.84,0,0,1,7.36-1.5C68.62,191.85,78.21,203,78.21,216.63Z"/><path class="cls-9" d="M49.42,239.91a18.84,18.84,0,0,0,7.36,1.5H42.05c-11.83,0-21.43-11.1-21.43-24.78s9.6-24.78,21.43-24.78H56.78a18.84,18.84,0,0,0-7.36,1.5c-8.21,3.48-14.07,12.58-14.07,23.28S41.21,236.43,49.42,239.91Z"/><path class="cls-8" d="M210.14,216.63c0,13.68-9.6,24.78-21.43,24.78a18.92,18.92,0,0,1-7.37-1.5c-8.2-3.48-14.06-12.59-14.06-23.28s5.86-19.8,14.06-23.28a18.92,18.92,0,0,1,7.37-1.5C200.54,191.85,210.14,203,210.14,216.63Z"/><path class="cls-9" d="M181.34,239.91a18.92,18.92,0,0,0,7.37,1.5H174c-11.84,0-21.43-11.1-21.43-24.78s9.59-24.78,21.43-24.78h14.73a18.92,18.92,0,0,0-7.37,1.5c-8.2,3.48-14.06,12.58-14.06,23.28S173.14,236.43,181.34,239.91Z"/><polygon class="cls-10" points="16.6 164.73 83.9 164.73 133.96 156.19 73.02 156.19 16.6 164.73"/><path class="cls-11" d="M141.83,216.63c0,13.68-9.59,24.78-21.43,24.78a18.84,18.84,0,0,1-7.36-1.5C104.83,236.43,99,227.32,99,216.63s5.86-19.8,14.07-23.28a18.84,18.84,0,0,1,7.36-1.5C132.24,191.85,141.83,203,141.83,216.63Z"/><path class="cls-8" d="M113,239.91a18.84,18.84,0,0,0,7.36,1.5H105.67c-11.83,0-21.43-11.1-21.43-24.78s9.6-24.78,21.43-24.78H120.4a18.84,18.84,0,0,0-7.36,1.5C104.83,196.83,99,205.93,99,216.63S104.83,236.43,113,239.91Z"/><path class="cls-11" d="M273.76,216.63c0,13.68-9.6,24.78-21.43,24.78a18.92,18.92,0,0,1-7.37-1.5c-8.2-3.48-14.06-12.59-14.06-23.28s5.86-19.8,14.06-23.28a18.92,18.92,0,0,1,7.37-1.5C264.16,191.85,273.76,203,273.76,216.63Z"/><path class="cls-8" d="M245,239.91a18.92,18.92,0,0,0,7.37,1.5H237.6c-11.84,0-21.43-11.1-21.43-24.78s9.59-24.78,21.43-24.78h14.73a18.92,18.92,0,0,0-7.37,1.5c-8.2,3.48-14.06,12.58-14.06,23.28S236.76,236.43,245,239.91Z"/><path class="cls-7" d="M274.43,156.19l7.4,1.34a5.62,5.62,0,0,1,4.63,5.56l-.28,48.53a4.7,4.7,0,0,1-4.7,4.67h-4c-.16-15.93-11.37-28.79-25.19-28.79a22.19,22.19,0,0,0-8.66,1.76c-9.56,4.06-16.41,14.6-16.53,27H145.6c-.16-15.93-11.38-28.79-25.2-28.79a22.19,22.19,0,0,0-8.66,1.76c-9.55,4.06-16.41,14.6-16.52,27h-22L83.9,164.73,134,156.19Z"/><path class="cls-10" d="M16.28,164.73H83.9L73.19,216.29H3.38a3.05,3.05,0,0,1-3-3.75l10.11-43.23A5.92,5.92,0,0,1,16.28,164.73Z"/><path class="cls-7" d="M134,156.19l20.6-50.06h83.79a7,7,0,0,1,5.35,2.51l30.68,47.55Z"/><path class="cls-10" d="M154.56,106.13H100.38a6.41,6.41,0,0,0-5.81,3.71L73,156.19H134Z"/><polyline class="cls-12" points="137.81 156.36 157.24 110.15 216.84 110.15 216.84 156.19"/><path class="cls-3" d="M223.1,156.19v-46H237a6.93,6.93,0,0,1,5.32,2.49l27.74,43.55Z"/><path class="cls-3" d="M148.53,110.15l-19.18,46H77.49l19.76-42.34a6.39,6.39,0,0,1,5.81-3.7Z"/><path class="cls-13" d="M196.55,117.25c2.47-10.32-3.15-13.13-8.51-3.08,1.34-6-7.37-8-2.68-12.06-4.4,2.52-13.53.9-16.84-1,0-.13.07.42.1.3a16.26,16.26,0,0,1-3.35-9.37s22.77-5.36,30.81,5.35C201,104,198.91,112,196.55,117.25Z"/><path class="cls-1" d="M154.56,138v11.63l-14.74,2,4-10Z"/><path class="cls-6" d="M186,167.74l.81-11.38H154.56V138c7.27-2.44,11.5-3.77,13.39-3.77h10.71s4,8,14.74-1.34v.67c8.7.67,10,3.35,13.39,8.7s3.35,25.45,3.35,25.45Z"/><path class="cls-1" d="M196.55,117.25a34.62,34.62,0,0,1-3.15,5.62v10c-10.72,9.37-14.74,1.34-14.74,1.34v-7.37s-1.33.67-9.37.67c-2-7.83-2.1-21.38-.77-26.42,3.31,1.87,12.44,3.49,16.84,1-4.69,4,4,6,2.68,12.06C193.4,104.12,199,106.93,196.55,117.25Z"/><path class="cls-1" d="M204.17,167.74l-.84,13.1a5.64,5.64,0,0,1-1.54,3.64,6.71,6.71,0,0,1-7.28,1.54L164.6,173.77h-8.94a4.45,4.45,0,0,1-4.45-4.45v-2.06a4.88,4.88,0,0,1,4.88-4.88h3.82v-1.46a9.91,9.91,0,0,1,1.24-4.79l.44-.65a2,2,0,0,1,2.75-.71s-.15,6.15.21,7.33a6.43,6.43,0,0,0,1.79,2.91,8.74,8.74,0,0,0,2.28,1.75l21.43,5.67v-4.69Z"/><line class="cls-14" x1="167.33" y1="156.36" x2="167.28" y2="151.67"/><path class="cls-10" d="M128.8,216.63c0,5.36-3.76,9.71-8.4,9.71a7.38,7.38,0,0,1-2.88-.59,10.29,10.29,0,0,1,0-18.24,7.38,7.38,0,0,1,2.88-.59C125,206.92,128.8,211.27,128.8,216.63Z"/><path class="cls-10" d="M260.73,216.63c0,5.36-3.76,9.71-8.4,9.71a7.43,7.43,0,0,1-2.89-.59,10.3,10.3,0,0,1,0-18.24,7.43,7.43,0,0,1,2.89-.59C257,206.92,260.73,211.27,260.73,216.63Z"/><line class="cls-7" x1="16.6" y1="241.41" x2="320.64" y2="241.41"/><polygon class="cls-1" points="117.72 61.93 117.72 82.69 111.7 76.66 24.64 76.66 24.64 61.93 117.72 61.93"/><polygon class="cls-1" points="10.57 40.5 10.57 61.26 16.64 55.23 104.33 55.23 104.33 40.5 10.57 40.5"/><polygon class="cls-6" points="26.27 173.61 24.25 181.55 14.1 181.55 15.96 173.61 26.27 173.61"/><polygon class="cls-6" points="75.65 173.61 73.99 181.55 63.52 181.55 65.35 173.61 75.65 173.61"/><polygon class="cls-12" points="61.33 173.61 59.5 181.55 52.57 211.69 20.62 211.69 28.27 181.55 30.28 173.61 61.33 173.61"/></g></g></svg>