<?xml version="1.0" encoding="utf-8"?>
<!-- Generator: Adobe Illustrator 16.0.0, SVG Export Plug-In . SVG Version: 6.00 Build 0)  -->
<!DOCTYPE svg PUBLIC "-//W3C//DTD SVG 1.1//EN" "http://www.w3.org/Graphics/SVG/1.1/DTD/svg11.dtd">
<svg version="1.1" id="Layer_1" xmlns="http://www.w3.org/2000/svg" xmlns:xlink="http://www.w3.org/1999/xlink" x="0px" y="0px"
	 width="241.193px" height="69.408px" viewBox="0 0 241.193 69.408" enable-background="new 0 0 241.193 69.408"
	 xml:space="preserve">
<g>
	<path d="M43.02,11.304c-3.301-1.775-7.351-3.24-12.15-4.392C26.069,5.76,20.489,4.896,14.13,4.32
		c-4.86,8.208-7.29,17.112-7.29,26.712c0,4.32,0.54,8.557,1.62,12.708c1.08,4.152,2.549,7.956,4.41,11.412
		c1.859,3.456,4.05,6.432,6.57,8.928c2.52,2.496,5.22,4.272,8.1,5.328c-3.78-0.913-7.351-2.628-10.71-5.148
		c-3.361-2.52-6.286-5.544-8.775-9.072c-2.49-3.528-4.455-7.427-5.895-11.7C0.72,39.217,0,34.848,0,30.384
		c0-4.176,0.569-8.327,1.71-12.456c1.139-4.127,2.849-8.352,5.13-12.672L15.48,0c11.88,0.576,23.31,2.16,34.29,4.752L43.02,11.304z"
		/>
	<path d="M16.56,51.768c0.419-7.535,2.399-13.752,5.94-18.648c3.54-4.896,8.849-8.808,15.93-11.736l7.38,3.6
		c0,3.744-0.36,7.128-1.08,10.152c-0.72,3.024-1.935,5.772-3.645,8.244c-1.71,2.473-3.991,4.752-6.84,6.84
		c-2.85,2.088-6.376,4.093-10.575,6.012L16.56,51.768z M39.15,31.464c0-3.024-0.63-5.328-1.89-6.912
		c-4.5,2.592-7.906,5.821-10.215,9.684c-2.311,3.864-3.465,8.053-3.465,12.564c0,1.008,0.059,1.992,0.18,2.952
		c0.12,0.96,0.3,1.92,0.54,2.88c2.279-0.96,4.334-2.196,6.165-3.708c1.83-1.512,3.389-3.192,4.68-5.04
		c1.29-1.847,2.279-3.827,2.97-5.94C38.804,35.833,39.15,33.672,39.15,31.464z"/>
	<path d="M76.41,42.984c-1.62,2.304-3.6,4.548-5.94,6.732c-2.34,2.185-5.04,4.356-8.1,6.516l-4.23-6.192
		c2.16-3.6,4.199-7.499,6.12-11.7c1.919-4.2,3.659-8.772,5.22-13.716c-1.08,0.961-2.326,2.172-3.735,3.636
		c-1.41,1.465-2.911,3.096-4.5,4.896c-1.59,1.8-3.21,3.708-4.86,5.724c-1.651,2.016-3.271,4.044-4.86,6.084
		c-1.59,2.041-3.091,4.021-4.5,5.94c-1.411,1.92-2.625,3.672-3.645,5.256l-1.26-5.328c2.579-5.855,4.77-11.292,6.57-16.308
		c1.8-5.016,3.209-9.756,4.23-14.22l5.76,2.448c-1.381,3.888-3.001,7.788-4.86,11.7c-1.86,3.913-3.931,7.812-6.21,11.7
		c2.759-4.128,6.03-8.304,9.81-12.528c3.78-4.223,8.1-8.591,12.96-13.104l6.57,2.376c-3.24,9.169-7.591,18.313-13.05,27.432
		C67.379,49.176,71.55,46.728,76.41,42.984z"/>
	<path d="M99.628,16.488c-1.8-0.479-4.68-1.127-8.64-1.944c-3.42,8.256-6.045,14.749-7.875,19.476
		c-1.831,4.729-2.745,7.956-2.745,9.684c0,6.672,1.29,12.863,3.87,18.576c-1.141-1.872-2.115-3.6-2.925-5.184
		c-0.81-1.584-1.5-3.179-2.07-4.788c-0.571-1.607-1.021-3.312-1.35-5.112c-0.33-1.8-0.585-3.852-0.765-6.156
		c0.299-2.495,1.064-6.023,2.295-10.584c1.229-4.56,2.894-10.271,4.995-17.136l-4.95-0.72l5.4-0.504L88.738,0l6.93,3.168
		c-0.421,1.057-0.931,2.293-1.53,3.708c-0.601,1.417-1.291,3.06-2.07,4.932c0.779-0.047,1.515-0.072,2.205-0.072
		c0.689,0,1.364,0,2.025,0c0.9,0,1.724,0.012,2.475,0.036c0.75,0.025,1.424,0.061,2.025,0.108L99.628,16.488z"/>
	<path d="M115.288,45c-5.101,5.376-10.291,9.36-15.57,11.952L97.828,54c-0.36,0.241-1.005,0.601-1.935,1.08
		c-0.931,0.479-1.905,0.96-2.925,1.44c-1.021,0.479-1.935,0.912-2.745,1.296c-0.81,0.383-1.246,0.6-1.305,0.648l-3.69-4.752
		c0.72-2.927,1.755-6,3.105-9.216c1.35-3.215,2.894-6.347,4.635-9.396c1.739-3.047,3.584-5.879,5.535-8.496
		c1.949-2.615,3.915-4.788,5.895-6.516c0.3,0,0.9,0.048,1.8,0.144c0.9,0.097,1.814,0.252,2.745,0.468
		c0.93,0.216,1.769,0.48,2.52,0.792c0.75,0.313,1.125,0.709,1.125,1.188c0,1.057-0.105,2.185-0.315,3.384
		c-0.211,1.201-0.465,2.52-0.765,3.96c-0.9-0.432-1.86-0.852-2.88-1.26c-1.021-0.407-2.101-0.828-3.24-1.26
		c-1.021,0.576-2.146,1.44-3.375,2.592c-1.23,1.152-2.461,2.484-3.69,3.996c-1.23,1.512-2.446,3.121-3.645,4.824
		c-1.201,1.705-2.266,3.384-3.195,5.04c-0.931,1.656-1.71,3.229-2.34,4.716c-0.63,1.488-1.005,2.761-1.125,3.816
		c7.74-3.359,13.77-10.104,18.09-20.232l5.22,2.16c-1.5,3.553-2.896,6.613-4.185,9.18c-1.291,2.568-2.536,4.669-3.735,6.3
		C107.547,48.888,111.507,47.257,115.288,45z"/>
	<path d="M134.997,46.296c-2.7,2.448-5.341,4.68-7.92,6.696c-2.581,2.016-5.22,3.816-7.92,5.4l-8.64-4.68
		c0.839-2.352,1.994-5.124,3.465-8.316c1.47-3.191,3.044-6.408,4.725-9.648c1.679-3.24,3.344-6.264,4.995-9.072
		c1.649-2.808,3.074-5.004,4.275-6.588l8.1,1.8l-1.08,8.136l-8.55-2.52c-0.601,0.768-1.381,2.148-2.34,4.14
		c-0.96,1.993-1.95,4.212-2.97,6.66c-1.021,2.448-2.011,4.944-2.97,7.488c-0.96,2.545-1.741,4.777-2.34,6.696
		c3.78-0.624,7.245-1.451,10.395-2.484C129.372,48.973,132.296,47.736,134.997,46.296z"/>
	<path d="M160.827,16.488c-1.8-0.479-4.68-1.127-8.64-1.944c-3.42,8.256-6.045,14.749-7.875,19.476
		c-1.831,4.729-2.745,7.956-2.745,9.684c0,6.672,1.29,12.863,3.87,18.576c-1.141-1.872-2.115-3.6-2.925-5.184
		c-0.81-1.584-1.5-3.179-2.07-4.788c-0.571-1.607-1.021-3.312-1.35-5.112c-0.33-1.8-0.585-3.852-0.765-6.156
		c0.299-2.495,1.064-6.023,2.295-10.584c1.229-4.56,2.894-10.271,4.995-17.136l-4.95-0.72l5.4-0.504L149.937,0l6.93,3.168
		c-0.421,1.057-0.931,2.293-1.53,3.708c-0.601,1.417-1.291,3.06-2.07,4.932c0.779-0.047,1.515-0.072,2.205-0.072
		c0.689,0,1.364,0,2.025,0c0.9,0,1.724,0.012,2.475,0.036c0.75,0.025,1.424,0.061,2.025,0.108L160.827,16.488z"/>
	<path d="M222.564,0c-2.04,3.841-4.05,8.089-6.03,12.744c-1.98,4.656-3.825,9.444-5.535,14.364c-1.71,4.92-3.24,9.828-4.59,14.724
		s-2.416,9.457-3.195,13.68c0.9-11.855,1.379-17.831,1.44-17.928c0.9-6.959,2.459-12.816,4.68-17.568
		c-2.04,3.985-4.38,7.681-7.02,11.088c-2.641,3.409-5.701,6.66-9.18,9.756c-3.48,3.096-7.425,6.073-11.835,8.928
		c-4.41,2.856-9.405,5.724-14.985,8.604l-3.51-2.88c3.78-9.312,6.93-18.348,9.45-27.108c2.52-8.759,4.469-17.436,5.85-26.028
		L189.985,0c-3.721,11.376-7.366,21.672-10.935,30.888c-3.571,9.216-7.186,17.544-10.845,24.984
		c8.939-4.608,17.939-12.551,27-23.832c9.12-11.423,14.4-21.312,15.84-29.664L222.564,0z"/>
	<path d="M241.193,42.12c-5.341,5.76-8.221,8.809-8.64,9.144c-3.721,3.456-7.47,5.688-11.25,6.696
		c-1.44-0.192-2.655-0.457-3.645-0.792c-0.99-0.336-1.876-0.924-2.655-1.764c-0.78-0.839-1.545-2.004-2.295-3.492
		c-0.751-1.487-1.606-3.528-2.565-6.12c3.42,3.265,6.449,5.184,9.09,5.76c5.4-7.344,8.1-14.063,8.1-20.16
		c0-0.767-0.031-1.536-0.09-2.304c-0.061-0.768-0.18-1.512-0.36-2.232c-1.381,1.537-2.625,2.844-3.735,3.924
		c-1.111,1.08-2.355,2.16-3.735,3.24c-1.381,1.08-3.076,2.268-5.085,3.564c-2.011,1.296-4.635,2.905-7.875,4.824
		c2.52-2.063,4.62-3.852,6.3-5.364c1.679-1.512,3.225-3.036,4.635-4.572c1.409-1.536,2.774-3.204,4.095-5.004
		c1.319-1.8,2.88-4.043,4.68-6.732l2.16-8.208c2.759-1.152,5.13-1.728,7.11-1.728c1.26,0,2.97,0.241,5.13,0.72
		c-1.021,1.201-2.011,2.412-2.97,3.636c-0.96,1.224-1.89,2.401-2.79,3.528c-0.9,1.128-1.741,2.137-2.52,3.024
		c-0.781,0.889-1.471,1.597-2.07,2.124c0.54,1.44,0.959,2.941,1.26,4.5c0.299,1.561,0.45,3.181,0.45,4.86
		c0,7.344-1.98,13.345-5.94,18c2.28-0.576,4.709-1.739,7.29-3.492C235.853,45.949,238.494,44.089,241.193,42.12z"/>
</g>
</svg>
