<?xml version="1.0" encoding="utf-8"?>
<!-- Generator: Adobe Illustrator 16.0.0, SVG Export Plug-In . SVG Version: 6.00 Build 0)  -->
<!DOCTYPE svg PUBLIC "-//W3C//DTD SVG 1.1//EN" "http://www.w3.org/Graphics/SVG/1.1/DTD/svg11.dtd">
<svg version="1.1" id="Layer_1" xmlns="http://www.w3.org/2000/svg" xmlns:xlink="http://www.w3.org/1999/xlink" x="0px" y="0px"
	 width="934.574px" height="194.99px" viewBox="0 0 934.574 194.99" enable-background="new 0 0 934.574 194.99"
	 xml:space="preserve">
<g>
	<g>
		<path fill="#093333" d="M58.917,39.245c-4.25,0-16.56,3.21-16.7,3.81c-2.06,9.16-21.16,104.22-21.22,105.3
			c0,0.069,0.17,0.1,0.46,0.1c2.83,0,17.87-2.81,17.92-4.99c0.06-2.41,18.9-94.51,20.96-103.67
			C60.427,39.405,59.876,39.245,58.917,39.245z M120.207,67.875c-0.36-0.89-1.47-1.34-3.32-1.34c-1.12,0-2.5,0.16-4.15,0.49
			c-10.08,1.89-18.56,6.12-25.43,12.71c-1.54,1.49-3.03,3.12-4.46,4.89c1.94-8.64,3.4-16.14,4.38-22.5
			c0.01-0.11-0.21-0.17-0.61-0.17c-3.14,0-17.52,3.32-17.77,5.15c-1.09,7.27-15.15,70.38-15.89,80.57
			c-0.02,0.25,0.42,0.36,1.19,0.36c3.96,0,16.49-2.95,17.01-4.49c7.22-19.75,12.8-33.58,16.75-41.479
			c4.13-8.25,8.22-14.83,12.29-19.76c0.03-0.04,0.06-0.06,0.1-0.06c1.14,0,4.22,18.01,1.01,35.97
			c-4.64,25.88-8.24,43.46-10.82,52.73c-0.11,0.39,0.43,0.55,1.38,0.55c4.22,0,16.6-3.2,16.74-3.81c2.58-9.28,6.24-27.171,11-53.681
			c1.71-9.68,2.77-17.72,3.17-24.14C123.296,80.765,122.437,73.435,120.207,67.875z M162.887,96.135c0.7,0.21,1.55,0.31,2.57,0.31
			c0.41,0,0.84-0.02,1.3-0.05c6.13-0.52,10.22-1.98,12.28-4.38c3.95-4.41,6.01-9.45,6.19-15.12c0.22-5.95-1.69-11.02-5.76-15.2
			c-3.02-3.01-7.27-4.52-12.75-4.52c-1.8,0-3.73,0.16-5.8,0.48c-8.93,1.49-16.55,5.07-22.85,10.74
			c-8.24,7.33-13.65,18.95-16.23,34.87c-2.69,16.61-1.75,29.261,2.83,37.961c2.62,5.05,7.07,7.569,13.36,7.569
			c3.36,0,7.24-0.72,11.64-2.149c8.7-2.811,15.72-8.65,21.04-17.53c0.15-0.23-0.39-0.33-1.36-0.33c-4.04,0-15.57,1.8-16.68,3.6
			c-1.13,1.9-5.26,3.71-8,3.71c-1.14,0-2.04-0.31-2.39-1.05c-2.06-4.24-3.21-10.45-3.43-18.64c-0.18-6.47,0.37-13.021,1.63-19.67
			c1.31-6.87,3.38-13.19,6.18-18.98c2.72-5.43,12.05-10.36,14.59-10.36c0.24,0,0.42,0.05,0.53,0.14c3.49,3.09,5.24,7.73,5.24,13.92
			c0,4.58-1.52,8.58-4.56,12.02C161.316,94.795,161.457,95.685,162.887,96.135z M241.376,71.035c-0.78,0-1.72,0.06-2.81,0.19
			c-0.18-5.03-1.81-8.24-4.9-9.62c-1.84-0.8-3.94-1.19-6.32-1.19c-3.92,0-8.57,1.08-13.95,3.26c-11.91,4.75-20.33,11.62-25.25,20.61
			c-7.9,14.66-11.6,29.09-11.08,43.29c0.23,8.3,2.38,13.77,6.44,16.4c1.22,0.819,3.1,1.229,5.65,1.229c1.38,0,2.96-0.12,4.74-0.37
			c4.7-0.68,9.02-2.399,12.97-5.149c2.24-1.551,4.5-3.521,6.79-5.931c-0.69,4.7-1.18,9.17-1.46,13.4c-0.01,0.05,0.11,0.07,0.33,0.07
			c2.48,0,17.81-2.79,17.96-5.051c0.69-10.42,3.61-26.25,8.76-47.5c3.09-7.61,4.78-15.08,5.07-22.41
			C244.316,71.445,243.336,71.035,241.376,71.035z M221.296,97.775c-3.09,7.44-8.47,16.34-16.15,26.71
			c-3.46,4.71-7.17,7.569-8.06,7.569c-0.09,0-0.15-0.029-0.18-0.1c-1.84-5.15,2.29-35.1,5.67-43.29c1.26-2.98,6.72-12.57,8.16-14
			c0.13-0.13,0.33-0.19,0.59-0.19c2.5,0,10.49,5.18,13.86,5.18c0.08,0,0.16,0,0.23-0.01
			C224.507,84.175,223.126,90.215,221.296,97.775z M305.816,67.875c-0.36-0.89-1.47-1.34-3.32-1.34c-1.12,0-2.5,0.16-4.15,0.49
			c-10.08,1.89-18.56,6.12-25.43,12.71c-1.54,1.49-3.03,3.12-4.46,4.89c1.94-8.64,3.4-16.14,4.38-22.5
			c0.01-0.11-0.21-0.17-0.61-0.17c-3.14,0-17.52,3.32-17.78,5.15c-1.08,7.27-15.14,70.38-15.89,80.57
			c-0.06,0.851,0.77,1.28,2.5,1.28c1.41,0,3.41-0.29,6.01-0.85c5.84-1.21,9.07-2.721,9.7-4.561c7.22-19.75,12.8-33.58,16.75-41.479
			c4.12-8.25,8.22-14.83,12.28-19.76c1.04-1.25,2.18-2.49,3.44-3.69c1.77,7.85,1,21.05-2.32,39.6
			c-4.64,25.88-8.24,43.46-10.82,52.73c-0.11,0.39,0.43,0.55,1.38,0.55c4.22,0,16.6-3.2,16.74-3.81c2.58-9.28,6.24-27.171,11-53.681
			c1.71-9.68,2.77-17.72,3.17-24.14C308.907,80.765,308.046,73.435,305.816,67.875z M382.267,19.995c-4.2,0-16.49,3.17-16.67,3.82
			c-3.26,10.77-6.33,22.62-9.19,35.56c-1.57-0.53-3.33-0.8-5.26-0.8c-0.74,0-1.51,0.04-2.3,0.12c-6.01,0.63-11.71,2.49-17.09,5.58
			c-9.45,5.38-16.55,16.01-21.3,31.87c-4.41,14.71-5.3,27.11-2.67,37.18c1.84,7.05,5.7,12.09,11.6,15.12
			c1.48,0.77,3.9,1.08,6.81,1.08c10.28,0,26.58-3.84,28.23-4.601c2.35-1.149,3.61-2.09,3.78-2.84
			c12.77-67.22,21.24-107.73,25.43-121.53C383.747,20.165,383.217,19.995,382.267,19.995z M346.267,111.595
			c-2.35,13.4-3.98,22.54-4.89,27.4c-1.62,0.71-5.01,2.24-6.31,2.24c-0.17,0-0.3-0.03-0.39-0.09c-4.18-2.631-7.1-7.04-8.76-13.23
			c-2.06-8.13-1.58-18.49,1.46-31.09c2.31-9.3,12.39-16.72,17.62-16.72c1.76,0,2.98,0.83,3.16,2.72c0.06,0.8,1.09,1.23,3.09,1.29
			C349.987,90.875,348.327,100.035,346.267,111.595z M426.237,75.525c-0.35-5.15-1.92-9.11-4.73-11.85
			c-2.08-2.09-5.33-3.13-9.74-3.13c-2.12,0-4.52,0.24-7.18,0.72c-7.61,1.37-13.68,4.29-18.21,8.76c-3.09,3.04-5.87,7.27-8.33,12.71
			c-3.83,6.7-6.75,16.55-8.76,29.55c-1.09,7.5-1.6,14.17-1.54,20.01c0,9.51,2.97,15,8.93,16.49c1.14,0.29,2.42,0.43,3.82,0.43
			c3.4,0,7.56-0.83,12.5-2.489c4.18-1.37,8.21-3.66,12.11-6.87c6.75-5.551,10.76-12.051,12.02-19.5c0.06-0.37-0.48-0.521-1.42-0.521
			c-4.25,0-16.52,3.18-16.61,3.79c-0.81,4.69-2.98,9.271-6.53,13.74c-0.23,0.28-0.76,0.43-1.4,0.43c-1.57,0-3.87-0.88-4.36-2.75
			c-0.74-2.859-0.97-7.439-0.68-13.74c0.34-5.67,0.97-10.79,1.89-15.369c2.57-0.29,6.09-0.44,10.56-0.44c0.04,0,0.08,0.01,0.12,0.01
			c5.9,0,23.02-4.109,23.41-5.24C425.437,90.525,426.807,82.285,426.237,75.525z M405.617,98.625c-6.64,0.18-12.14,0.58-16.49,1.21
			c0.69-3.27,1.4-6.36,2.15-9.28c1.66-4.29,3.61-8.76,5.84-13.4c1.09-2.12,2.32-4.15,3.69-6.1c0.46-0.68,1.03-1.37,1.72-2.06
			c-0.05,0.04-0.08,0.05-0.08,0.05c0-0.02,0.11-0.12,0.34-0.31c0.23,0.12,0.51,0.29,0.86,0.52c2.29,1.72,3.69,5.24,4.2,10.56
			C408.487,84.455,407.737,90.725,405.617,98.625z M462.117,92.565c0.27,0,0.48-0.01,0.62-0.03c5.55-1.04,9.16-2.7,10.819-4.99
			c4.641-6.52,6.851-12.13,6.62-16.83c-0.12-3.26-2.01-5.73-5.67-7.39c-2.689-1.26-5.93-1.97-9.71-2.14c-0.6-0.03-1.2-0.04-1.8-0.04
			c-7.35,0-14,1.96-19.93,5.88c-6.98,4.58-10.88,10.68-11.68,18.29c-0.57,4.7,0.95,9.82,4.55,15.38c1.21,1.77,2.9,4.06,5.07,6.87
			c2.63,3.26,4.3,5.38,4.98,6.35c8.66,12.12,0.56,25.24-3.03,25.24c-0.28,0-0.53-0.08-0.75-0.24c-2.8-2.12-4.46-4.78-4.98-7.99
			c-0.51-3.09,0.12-6.16,1.89-9.189c0.59-1.03-4.12-1.7-6.38-1.7c-0.4,0-0.72,0.02-0.92,0.07c-5.9,1.029-9.5,2.659-10.82,4.89
			c-3.61,6.19-3.35,11.86,0.77,17.01c3.84,4.811,9.56,7.471,17.18,7.99c0.82,0.05,1.64,0.08,2.46,0.08
			c8.51,0,16.77-3.01,24.77-9.021c4.81-3.6,7.04-8.27,6.7-14c-0.29-3.949-2.439-8.96-6.45-15.029c-0.33-0.4-3.82-5.15-10.47-14.26
			c-3.78-5.21-5.87-9.84-6.27-13.91c-0.49-5.01,7.15-11.29,10.31-11.29c0.57,0,0.99,0.2,1.2,0.64c1.83,3.78-0.09,9.65-5.76,17.61
			C454.727,91.825,460.046,92.565,462.117,92.565z M521.756,96.405c0.05,0,0.11-0.01,0.16-0.01c6.13-0.52,10.22-1.98,12.28-4.38
			c3.95-4.41,6.01-9.45,6.189-15.12c0.221-5.95-1.689-11.02-5.76-15.2c-3.02-3.01-7.27-4.52-12.75-4.52c-1.8,0-3.729,0.16-5.8,0.48
			c-8.93,1.49-16.55,5.07-22.85,10.74c-8.24,7.33-13.65,18.95-16.23,34.87c-2.69,16.61-1.75,29.261,2.83,37.961
			c2.62,5.05,7.07,7.569,13.36,7.569c3.359,0,7.239-0.72,11.64-2.149c8.7-2.811,15.72-8.65,21.04-17.53
			c0.63-1.021-4.11-1.69-6.38-1.69c-0.4,0-0.72,0.021-0.92,0.061c-5.78,1.029-9.36,2.67-10.74,4.899c-1.13,1.9-5.26,3.71-8,3.71
			c-1.14,0-2.04-0.31-2.39-1.05c-2.061-4.24-3.21-10.45-3.44-18.64c-0.17-6.47,0.38-13.021,1.64-19.67
			c1.311-6.87,3.37-13.19,6.181-18.98c2.72-5.43,12.06-10.36,14.59-10.36c0.24,0,0.42,0.05,0.53,0.14
			c3.489,3.09,5.239,7.73,5.239,13.92c0,4.58-1.52,8.58-4.55,12.02C516.506,94.755,520.077,96.405,521.756,96.405z M592.867,75.525
			c-0.35-5.15-1.92-9.11-4.73-11.85c-2.09-2.09-5.33-3.13-9.739-3.13c-2.13,0-4.521,0.24-7.181,0.72
			c-7.609,1.38-13.68,4.3-18.21,8.76c-3.09,3.04-5.87,7.27-8.33,12.71c-3.83,6.7-6.75,16.55-8.76,29.55
			c-1.09,7.5-1.6,14.17-1.55,20.01c0,9.51,2.979,15.01,8.939,16.49c1.141,0.29,2.41,0.43,3.82,0.43c3.391,0,7.561-0.83,12.5-2.489
			c4.18-1.37,8.21-3.66,12.11-6.87c6.75-5.551,10.76-12.051,12.02-19.49c0.24-1.43-0.85-2.15-3.279-2.15
			c-1.08,0-2.421,0.15-4.021,0.431c-2.58,0.46-10.62,4.229-10.74,4.979c-0.699,4.13-9.149,11.88-11.63,11.88
			c-0.34,0-0.569-0.14-0.649-0.46c-0.74-2.859-0.971-7.439-0.69-13.74c0.35-5.67,0.98-10.79,1.89-15.369
			c2.58-0.29,19.87-0.381,21.131-0.44c1.949-0.05,12.569-4.09,12.97-5.23C592.056,90.525,593.437,82.285,592.867,75.525z
			 M572.247,98.625c-6.64,0.18-12.14,0.58-16.49,1.21c0.69-3.27,1.4-6.36,2.15-9.28c1.66-4.29,3.6-8.76,5.84-13.4
			c1.08-2.12,2.32-4.15,3.69-6.1c0.46-0.68,1.029-1.37,1.72-2.06c-0.05,0.04-0.08,0.05-0.08,0.05c0-0.02,0.11-0.12,0.34-0.31
			c0.23,0.12,0.51,0.29,0.851,0.52c2.3,1.72,3.699,5.24,4.21,10.56C575.107,84.455,574.367,90.725,572.247,98.625z M648.037,66.985
			c-0.12,0-0.25,0.01-0.37,0.04c-10.08,1.89-18.56,6.12-25.43,12.71c-1.54,1.49-3.03,3.12-4.47,4.89
			c1.949-8.64,3.409-16.14,4.39-22.5c0.01-0.11-0.21-0.17-0.61-0.17c-3.14,0-17.52,3.32-17.77,5.15
			c-1.09,7.28-15.15,70.38-15.891,80.57c-0.069,0.851,0.771,1.28,2.49,1.28c1.41,0,3.41-0.29,6.01-0.85
			c5.841-1.2,9.07-2.721,9.7-4.561c7.22-19.75,12.8-33.58,16.75-41.479c4.13-8.25,8.22-14.83,12.29-19.76
			c0.03-0.04,0.061-0.06,0.101-0.06c1.14,0,4.229,18.01,1.01,35.97c-4.641,25.88-8.24,43.46-10.82,52.73
			c-0.11,0.39,0.43,0.55,1.38,0.55c4.221,0,16.601-3.2,16.74-3.81c2.58-9.28,6.24-27.171,11-53.681c1.71-9.68,2.77-17.72,3.17-24.14
			C658.216,81.025,652.417,66.985,648.037,66.985z M701.596,94.225c4.49,0,11.08-0.71,12.37-2.21c3.95-4.41,6.011-9.45,6.19-15.12
			c0.22-5.95-1.69-11.02-5.76-15.2c-3.021-3.01-7.271-4.52-12.75-4.52c-1.801,0-3.74,0.16-5.801,0.48
			c-8.939,1.49-16.55,5.07-22.85,10.74c-8.24,7.33-13.66,18.95-16.229,34.87c-2.69,16.61-1.75,29.261,2.829,37.961
			c2.62,5.05,7.07,7.569,13.36,7.569c3.36,0,7.24-0.72,11.64-2.149c8.7-2.811,15.721-8.65,21.04-17.53
			c0.631-1.021-4.109-1.69-6.38-1.69c-0.399,0-0.72,0.021-0.92,0.061c-5.78,1.04-9.359,2.67-10.74,4.899
			c-1.13,1.9-5.26,3.71-8.01,3.71c-1.13,0-2.03-0.31-2.38-1.05c-2.06-4.24-3.21-10.45-3.439-18.64
			c-0.171-6.47,0.38-13.021,1.64-19.67c1.31-6.87,3.37-13.19,6.18-18.98c1.08-2.16,4.061-3.08,7.41-3.08
			c5.89,0,12.95,2.84,12.95,6.78c0,4.58-1.521,8.58-4.561,12.02C696.957,93.965,698.897,94.225,701.596,94.225z M772.636,75.525
			c-0.35-5.15-1.92-9.11-4.729-11.85c-2.08-2.09-5.33-3.13-9.74-3.13c-2.13,0-4.52,0.24-7.18,0.72c-7.62,1.37-13.69,4.29-18.21,8.76
			c-3.09,3.04-5.87,7.27-8.33,12.71c-3.84,6.7-6.76,16.55-8.76,29.55c-1.091,7.5-1.601,14.17-1.551,20.01c0,9.51,2.98,15,8.94,16.49
			c1.14,0.29,2.41,0.43,3.82,0.43c3.39,0,7.56-0.83,12.5-2.489c4.17-1.37,8.21-3.66,12.1-6.87c6.76-5.551,10.771-12.051,12.03-19.5
			c0.06-0.37-0.49-0.521-1.431-0.521c-4.25,0-16.51,3.18-16.609,3.79c-0.8,4.69-2.98,9.271-6.521,13.74
			c-0.239,0.28-0.76,0.43-1.399,0.43c-1.58,0-3.87-0.88-4.36-2.75c-0.74-2.859-0.97-7.439-0.689-13.74
			c0.35-5.67,0.979-10.79,1.89-15.369c2.58-0.29,6.1-0.44,10.57-0.44c0.25,0.01,0.5,0.01,0.76,0.01c5.79,0,14.25-0.62,16.93-1.55
			c3.5-1.32,5.44-2.55,5.84-3.69C771.827,90.525,773.207,82.285,772.636,75.525z M752.017,98.625
			c-6.641,0.18-12.141,0.58-16.49,1.21c0.689-3.27,5.76-18.04,7.99-22.68c0.46-0.9,2.38-1.52,4.47-1.52c2.83,0,5.97,1.12,6.26,4.18
			C754.876,84.455,754.136,90.725,752.017,98.625z M818.596,26.305c-0.59-1.06-1.81-1.59-3.67-1.59c-1.76,0-4.09,0.48-6.979,1.42
			c-2.29,0.75-4.2,1.61-5.75,2.58c-1.66,1.03-2.32,1.89-1.98,2.58c2.811,5.21,3.44,10.7,1.891,16.49c-1.431,5.44-4.49,10.1-9.19,14
			c-1.43,1.2-1.31,2.03,0.351,2.49c0.979,0.31,1.989,0.47,3.039,0.47c0.301,0,0.601-0.02,0.91-0.04c5.21-0.46,9.301-1.92,12.28-4.38
			c5.271-4.35,8.82-9.54,10.65-15.55C822.157,38.245,821.636,32.095,818.596,26.305z"/>
	</g>
	<path fill="none" d="M818.596,26.305c-0.59-1.06-1.81-1.59-3.67-1.59c-1.76,0-4.09,0.48-6.979,1.42c-2.29,0.75-4.2,1.61-5.75,2.58
		c-1.66,1.03-2.32,1.89-1.98,2.58c2.811,5.21,3.44,10.7,1.891,16.49c-1.431,5.44-4.49,10.1-9.19,14c-1.43,1.2-1.31,2.03,0.351,2.49
		c0.979,0.31,1.989,0.47,3.039,0.47c0.301,0,0.601-0.02,0.91-0.04c5.21-0.46,9.301-1.92,12.28-4.38
		c5.271-4.35,8.82-9.54,10.65-15.55C822.157,38.245,821.636,32.095,818.596,26.305z M405.106,66.675c0,0.06-0.03,0.09-0.09,0.09
		 M818.596,26.305c-0.59-1.06-1.81-1.59-3.67-1.59c-1.76,0-4.09,0.48-6.979,1.42c-2.29,0.75-4.2,1.61-5.75,2.58
		c-1.66,1.03-2.32,1.89-1.98,2.58c2.811,5.21,3.44,10.7,1.891,16.49c-1.431,5.44-4.49,10.1-9.19,14c-1.43,1.2-1.31,2.03,0.351,2.49
		c0.979,0.31,1.989,0.47,3.039,0.47c0.301,0,0.601-0.02,0.91-0.04c5.21-0.46,9.301-1.92,12.28-4.38
		c5.271-4.35,8.82-9.54,10.65-15.55C822.157,38.245,821.636,32.095,818.596,26.305z M818.596,26.305c-0.59-1.06-1.81-1.59-3.67-1.59
		c-1.76,0-4.09,0.48-6.979,1.42c-2.29,0.75-4.2,1.61-5.75,2.58c-1.66,1.03-2.32,1.89-1.98,2.58c2.811,5.21,3.44,10.7,1.891,16.49
		c-1.431,5.44-4.49,10.1-9.19,14c-1.43,1.2-1.31,2.03,0.351,2.49c0.979,0.31,1.989,0.47,3.039,0.47c0.301,0,0.601-0.02,0.91-0.04
		c5.21-0.46,9.301-1.92,12.28-4.38c5.271-4.35,8.82-9.54,10.65-15.55C822.157,38.245,821.636,32.095,818.596,26.305z"/>
	<path fill="#FFFFFF" d="M917.027,24.755c-4.82-1.59-10.311-2.4-16.311-2.4c-2.12,0-4.35,0.1-6.63,0.3h-0.1
		c-2.05,0.19-4.99,0.55-9,1.1c-2.04,0.25-3.58,0.43-4.75,0.54c-2.76-2.05-6.7-3.71-12.25-3.71c-0.57,0-1.16,0.02-1.771,0.06h-0.109
		c-2.84,0.18-5.771,0.66-8.74,1.42l-0.15,0.04l-0.149,0.04c-0.931,0.26-2.57,0.76-7.07,2.31c-1.81,0.58-2.72,0.83-3.08,0.93
		c-4.01,0.55-7.56,1.4-10.689,2.57c-0.771-3.11-1.921-6.15-3.46-9.08l-0.091-0.17l-0.09-0.17c-3.47-6.24-9.91-9.82-17.66-9.82
		c-3.489,0-7.399,0.73-11.939,2.21c-3.53,1.15-6.57,2.53-9.24,4.2c-10.22,6.35-11.229,16.54-7.84,23.32l0.11,0.22l0.109,0.21
		c0.88,1.62,1.021,2.92,0.53,4.77l-0.01,0.03l-0.011,0.03c-0.359,1.37-1.159,3.46-3.93,5.76l-0.08,0.06
		c-1.16,0.98-2.18,2.05-3.05,3.19c-0.14-0.14-0.271-0.28-0.41-0.42c-5.18-5.15-12.25-7.76-21-7.76c-3.12,0-6.399,0.32-10.04,0.99
		c-7.57,1.36-14.229,3.94-19.89,7.68c-0.74-0.91-1.53-1.8-2.37-2.67l-0.16-0.16c-4.2-4.2-11.79-9.21-24.06-9.21
		c-2.62,0-5.41,0.23-8.29,0.69l-0.07,0.01l-0.07,0.01c-11.93,1.99-22.319,6.9-30.89,14.6c-0.17,0.15-0.34,0.3-0.51,0.45
		c-4.96-4.89-10.19-5.94-13.78-5.94c-1.13,0-2.27,0.1-3.38,0.32c-3.09,0.58-6.08,1.34-8.96,2.27c-0.48-0.77-1.03-1.5-1.65-2.19
		c-1.81-2.03-5.85-5.43-12.5-5.43c-4.52,0-11.89,1.85-14.05,2.42c-2.82,0.74-5.24,1.51-7.18,2.28c-0.641,0.25-1.24,0.52-1.82,0.79
		c-5.09-4.58-11.84-6.91-20.1-6.91c-3.11,0-6.4,0.32-10.04,0.98c-7.57,1.37-14.23,3.95-19.891,7.69
		c-0.739-0.91-1.529-1.81-2.37-2.67l-0.079-0.08l-0.07-0.08c-4.21-4.2-11.79-9.21-24.07-9.21c-2.62,0-5.41,0.23-8.29,0.68
		l-0.069,0.02l-0.07,0.01c-9.78,1.63-18.53,5.22-26.08,10.71c-1.811-1.47-3.88-2.75-6.19-3.8c-4.56-2.12-9.83-3.33-15.649-3.59
		c-0.87-0.04-1.71-0.06-2.53-0.06c-5.25,0-10.29,0.72-15.09,2.14c-4.8,1.43-9.36,3.56-13.64,6.39c-0.04,0.02-0.09,0.05-0.13,0.08
		c-0.44-0.5-0.89-0.98-1.37-1.45c-5.18-5.15-12.24-7.76-21-7.76c-3.11,0-6.4,0.32-10.04,0.98c-2.9,0.53-5.66,1.23-8.29,2.11
		c2.33-10.51,4.17-18.01,5.51-22.44l0.01-0.04l0.01-0.04c1.46-4.91,0.51-10.29-2.55-14.38c-1.87-2.51-6.2-6.73-14.15-6.73
		c-3.21,0-7.79,0.71-13.59,2.11c-1.51,0.37-3.73,0.93-5.76,1.57c-2.52,0.79-10.16,3.17-12.65,11.57c-2.27,7.46-4.45,15.5-6.53,24
		c-6.97,1.15-13.65,3.54-19.92,7.14c-2.63,1.49-5.11,3.25-7.46,5.25c-2.82-2.68-7.21-5.1-13.86-5.1c-2.15,0-4.49,0.25-7.15,0.77
		c-3.09,0.58-6.08,1.34-8.96,2.28c-0.49-0.77-1.04-1.51-1.66-2.2c-1.81-2.03-5.85-5.43-12.5-5.43c-4.52,0-11.89,1.85-14.04,2.42
		c-2.83,0.74-5.24,1.51-7.19,2.28c-1.26,0.5-2.39,1.05-3.42,1.63c-2.71-2.88-5.59-4.49-7.41-5.29l-0.06-0.03l-0.06-0.03
		c-3.85-1.67-8.13-2.52-12.7-2.52c-6.04,0-12.57,1.44-19.94,4.42c-4.58,1.83-8.79,3.95-12.62,6.34c-1.14-1.62-2.42-3.17-3.85-4.63
		l-0.07-0.08l-0.08-0.08c-4.21-4.2-11.79-9.21-24.07-9.21c-2.62,0-5.41,0.23-8.29,0.68l-0.07,0.01l-0.07,0.01
		c-10.94,1.83-20.59,6.11-28.72,12.74c-2.81-2.24-6.89-4.08-12.68-4.08c-2.15,0-4.49,0.25-7.15,0.77c-3.09,0.58-6.08,1.34-8.96,2.28
		c-0.49-0.77-1.04-1.51-1.66-2.2c-1.81-2.03-5.85-5.43-12.49-5.43c-3.42,0-8.45,1.05-11.64,1.82c0.42-2.01,0.75-3.53,0.96-4.47
		l0.02-0.06l0.01-0.07c1.05-4.85-0.13-9.83-3.24-13.68c-1.88-2.33-6.18-6.25-13.81-6.25h-0.01c-3.22,0-7.82,0.72-13.65,2.13
		c-2.11,0.51-4.15,1.06-5.73,1.55c-2.67,0.83-10.79,3.36-12.91,12.54l-0.01,0.04l-0.01,0.04c-1.12,4.98-6.64,32.21-11.43,56.04
		c-10.04,49.9-10.07,50.45-10.15,51.93l-0.03,0.421v0.43c0,9.02,7.23,16.09,16.46,16.09c4.65,0,12.78-1.89,13.69-2.11
		c3-0.71,5.55-1.47,7.58-2.26c2.41,2.03,6.09,3.95,11.42,3.95c4.65,0,11.13-1.5,13.7-2.15c2.59-0.649,5.97-1.5,9.19-3.109
		c-0.72,3.13-1.37,5.76-1.97,7.89l-0.01,0.05l-0.01,0.061c-1.34,4.939-0.33,10.1,2.78,14.16c1.87,2.449,6.19,6.56,14.04,6.56
		c3.21,0,7.8-0.71,13.65-2.12c2.12-0.51,4.16-1.06,5.74-1.55c2.63-0.811,10.52-3.26,12.82-12.04c0.69-2.48,1.44-5.49,2.25-9.021
		c3.58,1.33,7.51,2.03,11.7,2.03c5.1,0,10.53-0.96,16.59-2.939c5.71-1.841,10.92-4.58,15.6-8.19c1.36,1.39,2.87,2.62,4.53,3.7
		c3.92,2.59,8.64,3.84,14.41,3.84c2.12,0,4.38-0.17,6.9-0.51l0.08-0.01l0.08-0.011c1.95-0.29,3.86-0.689,5.73-1.21
		c2.17,1.811,5.66,3.761,10.58,3.761c4.54,0,13.16-2.021,13.52-2.101c0.82-0.189,1.6-0.39,2.34-0.59c2.57,2.24,6.63,4.42,12.67,4.42
		c2.6,0,5.56-0.38,9.31-1.2c2.63-0.54,7.52-1.56,12.09-4.14c-0.65,2.76-1.24,5.11-1.78,7.05l-0.01,0.05l-0.01,0.061
		c-1.34,4.939-0.33,10.1,2.78,14.16c1.87,2.449,6.2,6.56,14.04,6.56c3.21,0,7.8-0.71,13.65-2.12c2.12-0.51,4.16-1.06,5.74-1.55
		c2.63-0.82,10.52-3.26,12.82-12.04c0.7-2.521,1.46-5.57,2.28-9.16c0.03,0.021,0.07,0.03,0.1,0.05c3.76,1.94,8.26,2.851,14.13,2.851
		c11.89,0,30.46-4.011,34.91-6.061l0.17-0.08l0.17-0.08c0.22-0.109,0.47-0.229,0.74-0.369c3.88,3.239,7.97,4.72,10.61,5.38
		c2.4,0.6,4.99,0.899,7.7,0.899c5.18,0,10.92-1.08,17.55-3.3c4.76-1.58,9.38-3.939,13.77-7.06c5.04,5.06,13.24,10.229,26.05,11.1
		c1.18,0.08,2.37,0.12,3.54,0.12c10.52,0,20.69-3.15,30.3-9.37c5.54,5.22,12.99,8.09,21.48,8.09c5.1,0,10.529-0.96,16.59-2.939
		c5.359-1.73,10.279-4.24,14.729-7.54c4.8,6.6,11.261,9.08,14.92,10c2.4,0.6,4.99,0.899,7.7,0.899c5.18,0,10.92-1.08,17.55-3.31
		c3.46-1.141,6.841-2.7,10.11-4.66c0.48,0.71,1.01,1.39,1.6,2.02c2.41,2.601,6.79,5.69,13.99,5.69c2.601,0,5.561-0.38,9.32-1.2
		c2.63-0.54,7.51-1.56,12.08-4.14c-0.65,2.76-1.24,5.11-1.78,7.05l-0.01,0.05l-0.01,0.061c-1.341,4.939-0.33,10.1,2.779,14.16
		c1.87,2.449,6.19,6.56,14.04,6.56c3.2,0,7.8-0.71,13.65-2.12c2.12-0.51,4.16-1.06,5.74-1.55c2.63-0.82,10.51-3.26,12.81-12.021
		c0.69-2.5,1.44-5.5,2.26-9.04c3.57,1.33,7.511,2.03,11.7,2.03c5.1,0,10.521-0.96,16.59-2.939c5.36-1.73,10.28-4.24,14.73-7.54
		c4.8,6.6,11.26,9.08,14.92,10c2.399,0.6,4.99,0.899,7.7,0.899c5.17,0,10.899-1.08,17.529-3.3c6.04-1.99,11.851-5.26,17.25-9.71
		c9.78-8.03,15.71-17.85,17.63-29.18c0.54-3.28,0.091-6.57-1.25-9.5c2.29-1.98,4.36-4.57,5.561-7.99l0.02-0.05l0.021-0.061
		c3.28-9.62,4.96-18.12,5.1-25.8c2.44,0.74,4.98,1.11,7.55,1.11c0.74,0,1.5-0.03,2.25-0.09h0.03l0.03-0.01
		c8.47-0.74,15.56-3.43,21.07-7.98c3.89-3.22,7.17-6.8,9.819-10.72c0.61,0.33,1.24,0.63,1.9,0.9c-2.12,9.07-4.48,19.58-7.07,31.43
		c-5.09,23.61-8.979,40.78-11.569,51.05c-1.33,5.35-0.2,10.819,3.1,15.04c2.479,3.18,7.18,6.96,15.46,6.96h0.63
		c-0.2,0.58-0.38,1.13-0.56,1.649c-1.78,5.5-0.92,11.221,2.359,15.73c2.011,2.76,6.721,7.399,15.7,7.399
		c2.15,0,4.561-0.26,7.37-0.779c5.22-0.96,19.14-3.53,23.12-15.771c3.189-9.78,10.46-28.33,21.62-55.18
		c4.25-0.46,8.779-1.83,13.75-4.16l0.069-0.03l0.07-0.029c3.1-1.49,5.6-3.2,7.64-5.25l0.301-0.301l0.29-0.31
		c4.18-4.65,5.67-10.61,4.09-16.36c-1.46-5.32-5.32-9.48-10.7-11.6c5.11-13.54,9.12-25.7,11.97-36.32
		C931.477,36.875,926.306,27.775,917.027,24.755z M39.376,143.465c-0.05,2.181-15.09,4.99-17.92,4.99c-0.29,0-0.46-0.03-0.46-0.1
		c0.06-1.08,19.16-96.14,21.22-105.3c0.14-0.6,12.45-3.81,16.7-3.81c0.96,0,1.51,0.16,1.42,0.55
		C58.277,48.955,39.437,141.055,39.376,143.465z M119.606,114.005c-4.76,26.51-8.42,44.4-11,53.681
		c-0.14,0.609-12.52,3.81-16.74,3.81c-0.95,0-1.49-0.16-1.38-0.55c2.58-9.271,6.18-26.851,10.82-52.73
		c3.21-17.96,0.13-35.97-1.01-35.97c-0.04,0-0.07,0.02-0.1,0.06c-4.07,4.93-8.16,11.51-12.29,19.76
		c-3.95,7.899-9.53,21.729-16.75,41.479c-0.52,1.54-13.05,4.49-17.01,4.49c-0.77,0-1.21-0.11-1.19-0.36
		c0.74-10.189,14.8-73.3,15.89-80.57c0.25-1.83,14.63-5.15,17.77-5.15c0.4,0,0.62,0.06,0.61,0.17c-0.98,6.36-2.44,13.86-4.38,22.5
		c1.43-1.77,2.92-3.4,4.46-4.89c6.87-6.59,15.35-10.82,25.43-12.71c1.65-0.33,3.03-0.49,4.15-0.49c1.85,0,2.96,0.45,3.32,1.34
		c2.23,5.56,3.09,12.89,2.57,21.99C122.376,96.285,121.316,104.325,119.606,114.005z M161.777,67.535
		c-0.11-0.09-0.29-0.14-0.53-0.14c-2.54,0-11.87,4.93-14.59,10.36c-2.8,5.79-4.87,12.11-6.18,18.98
		c-1.26,6.649-1.81,13.2-1.63,19.67c0.22,8.189,1.37,14.399,3.43,18.64c0.35,0.74,1.25,1.05,2.39,1.05c2.74,0,6.87-1.81,8-3.71
		c1.11-1.8,12.64-3.6,16.68-3.6c0.97,0,1.51,0.1,1.36,0.33c-5.32,8.88-12.34,14.72-21.04,17.53c-4.4,1.43-8.28,2.149-11.64,2.149
		c-6.29,0-10.74-2.52-13.36-7.569c-4.58-8.7-5.52-21.351-2.83-37.961c2.58-15.919,7.99-27.54,16.23-34.87
		c6.3-5.67,13.92-9.25,22.85-10.74c2.07-0.32,4-0.48,5.8-0.48c5.48,0,9.73,1.51,12.75,4.52c4.07,4.18,5.98,9.25,5.76,15.2
		c-0.18,5.67-2.24,10.71-6.19,15.12c-2.06,2.4-6.15,3.86-12.28,4.38c-0.46,0.03-0.89,0.05-1.3,0.05c-1.02,0-1.87-0.1-2.57-0.31
		c-1.43-0.45-1.57-1.34-0.43-2.66c3.04-3.44,4.56-7.44,4.56-12.02C167.017,75.265,165.267,70.625,161.777,67.535z M212.527,147.226
		c-0.22,0-0.34-0.021-0.33-0.07c0.28-4.23,0.77-8.7,1.46-13.4c-2.29,2.41-4.55,4.38-6.79,5.931c-3.95,2.75-8.27,4.47-12.97,5.149
		c-1.78,0.25-3.36,0.37-4.74,0.37c-2.55,0-4.43-0.41-5.65-1.229c-4.06-2.631-6.21-8.101-6.44-16.4
		c-0.52-14.2,3.18-28.63,11.08-43.29c4.92-8.99,13.34-15.86,25.25-20.61c5.38-2.18,10.03-3.26,13.95-3.26
		c2.38,0,4.48,0.39,6.32,1.19c3.09,1.38,4.72,4.59,4.9,9.62c1.09-0.13,2.03-0.19,2.81-0.19c1.96,0,2.94,0.41,2.94,1.23
		c-0.29,7.33-1.98,14.8-5.07,22.41c-5.15,21.25-8.07,37.08-8.76,47.5C230.336,144.436,215.007,147.226,212.527,147.226z
		 M305.217,114.005c-4.76,26.51-8.42,44.4-11,53.681c-0.14,0.609-12.52,3.81-16.74,3.81c-0.95,0-1.49-0.16-1.38-0.55
		c2.58-9.271,6.18-26.851,10.82-52.73c3.32-18.55,4.09-31.75,2.32-39.6c-1.26,1.2-2.4,2.44-3.44,3.69
		c-4.06,4.93-8.16,11.51-12.28,19.76c-3.95,7.899-9.53,21.729-16.75,41.479c-0.63,1.84-3.86,3.351-9.7,4.561
		c-2.6,0.56-4.6,0.85-6.01,0.85c-1.73,0-2.56-0.43-2.5-1.28c0.75-10.189,14.81-73.3,15.89-80.57c0.26-1.83,14.64-5.15,17.78-5.15
		c0.4,0,0.62,0.06,0.61,0.17c-0.98,6.36-2.44,13.86-4.38,22.5c1.43-1.77,2.92-3.4,4.46-4.89c6.87-6.59,15.35-10.82,25.43-12.71
		c1.65-0.33,3.03-0.49,4.15-0.49c1.85,0,2.96,0.45,3.32,1.34c2.23,5.56,3.09,12.89,2.57,21.99
		C307.987,96.285,306.927,104.325,305.217,114.005z M358.207,142.085c-0.17,0.75-1.43,1.69-3.78,2.84
		c-1.65,0.761-17.95,4.601-28.23,4.601c-2.91,0-5.33-0.311-6.81-1.08c-5.9-3.03-9.76-8.07-11.6-15.12
		c-2.63-10.07-1.74-22.47,2.67-37.18c4.75-15.86,11.85-26.49,21.3-31.87c5.38-3.09,11.08-4.95,17.09-5.58
		c0.79-0.08,1.56-0.12,2.3-0.12c1.93,0,3.69,0.27,5.26,0.8c2.86-12.94,5.93-24.79,9.19-35.56c0.18-0.65,12.47-3.82,16.67-3.82
		c0.95,0,1.48,0.17,1.37,0.56C379.447,34.355,370.977,74.865,358.207,142.085z M405.106,139.855c-3.9,3.21-7.93,5.5-12.11,6.87
		c-4.94,1.659-9.1,2.489-12.5,2.489c-1.4,0-2.68-0.14-3.82-0.43c-5.96-1.49-8.93-6.98-8.93-16.49c-0.06-5.84,0.45-12.51,1.54-20.01
		c2.01-13,4.93-22.85,8.76-29.55c2.46-5.44,5.24-9.67,8.33-12.71c4.53-4.47,10.6-7.39,18.21-8.76c2.66-0.48,5.06-0.72,7.18-0.72
		c4.41,0,7.66,1.04,9.74,3.13c2.81,2.74,4.38,6.7,4.73,11.85c0.57,6.76-0.8,15-4.13,24.74c-0.39,1.131-17.51,5.24-23.41,5.24
		c-0.04,0-0.08-0.01-0.12-0.01c-4.47,0-7.99,0.15-10.56,0.44c-0.92,4.579-1.55,9.699-1.89,15.369
		c-0.29,6.301-0.06,10.881,0.68,13.74c0.49,1.87,2.79,2.75,4.36,2.75c0.64,0,1.17-0.149,1.4-0.43c3.55-4.47,5.72-9.05,6.53-13.74
		c0.09-0.61,12.36-3.79,16.61-3.79c0.94,0,1.48,0.15,1.42,0.521C415.867,127.805,411.856,134.305,405.106,139.855z M461.197,73.205
		c-0.21-0.44-0.63-0.64-1.2-0.64c-3.16,0-10.8,6.28-10.31,11.29c0.4,4.07,2.49,8.7,6.27,13.91c6.65,9.11,10.14,13.86,10.47,14.26
		c4.01,6.069,6.16,11.08,6.45,15.029c0.34,5.73-1.89,10.4-6.7,14c-8,6.011-16.26,9.021-24.77,9.021c-0.82,0-1.64-0.03-2.46-0.08
		c-7.62-0.52-13.34-3.18-17.18-7.99c-4.12-5.149-4.38-10.819-0.77-17.01c1.32-2.23,4.92-3.86,10.82-4.89
		c0.2-0.051,0.52-0.07,0.92-0.07c2.26,0,6.97,0.67,6.38,1.7c-1.77,3.029-2.4,6.1-1.89,9.189c0.52,3.21,2.18,5.87,4.98,7.99
		c0.22,0.16,0.47,0.24,0.75,0.24c3.59,0,11.69-13.12,3.03-25.24c-0.68-0.97-2.35-3.09-4.98-6.35c-2.17-2.811-3.86-5.101-5.07-6.87
		c-3.6-5.56-5.12-10.68-4.55-15.38c0.8-7.61,4.7-13.71,11.68-18.29c5.93-3.92,12.58-5.88,19.93-5.88c0.6,0,1.2,0.01,1.8,0.04
		c3.78,0.17,7.021,0.88,9.71,2.14c3.66,1.66,5.55,4.13,5.67,7.39c0.23,4.7-1.979,10.31-6.62,16.83
		c-1.659,2.29-5.27,3.95-10.819,4.99c-0.14,0.02-0.35,0.03-0.62,0.03c-2.07,0-7.39-0.74-6.68-1.75
		C461.106,82.855,463.027,76.985,461.197,73.205z M521.917,96.395c-0.05,0-0.11,0.01-0.16,0.01c-1.68,0-5.25-1.65-4.13-2.93
		c3.03-3.44,4.55-7.44,4.55-12.02c0-6.19-1.75-10.83-5.239-13.92c-0.11-0.09-0.29-0.14-0.53-0.14c-2.53,0-11.87,4.93-14.59,10.36
		c-2.811,5.79-4.87,12.11-6.181,18.98c-1.26,6.649-1.81,13.2-1.64,19.67c0.23,8.189,1.38,14.399,3.44,18.64
		c0.35,0.74,1.25,1.05,2.39,1.05c2.74,0,6.87-1.81,8-3.71c1.38-2.229,4.96-3.87,10.74-4.899c0.2-0.04,0.52-0.061,0.92-0.061
		c2.27,0,7.01,0.67,6.38,1.69c-5.32,8.88-12.34,14.72-21.04,17.53c-4.4,1.43-8.28,2.149-11.64,2.149c-6.29,0-10.74-2.52-13.36-7.569
		c-4.58-8.7-5.521-21.351-2.83-37.961c2.58-15.919,7.99-27.54,16.23-34.87c6.3-5.67,13.92-9.25,22.85-10.74
		c2.07-0.32,4-0.48,5.8-0.48c5.48,0,9.73,1.51,12.75,4.52c4.07,4.18,5.98,9.25,5.76,15.2c-0.18,5.67-2.239,10.71-6.189,15.12
		C532.136,94.415,528.046,95.875,521.917,96.395z M583.756,120.365c-1.26,7.439-5.27,13.939-12.02,19.49
		c-3.9,3.21-7.931,5.5-12.11,6.87c-4.939,1.659-9.109,2.489-12.5,2.489c-1.41,0-2.68-0.14-3.82-0.43
		c-5.96-1.48-8.939-6.98-8.939-16.49c-0.05-5.84,0.46-12.51,1.55-20.01c2.01-13,4.93-22.85,8.76-29.55
		c2.46-5.44,5.24-9.67,8.33-12.71c4.53-4.46,10.601-7.38,18.21-8.76c2.66-0.48,5.051-0.72,7.181-0.72c4.409,0,7.649,1.04,9.739,3.13
		c2.811,2.74,4.381,6.7,4.73,11.85c0.57,6.76-0.811,15-4.13,24.74c-0.4,1.141-11.021,5.181-12.97,5.23
		c-1.261,0.06-18.551,0.15-21.131,0.44c-0.909,4.579-1.54,9.699-1.89,15.369c-0.28,6.301-0.05,10.881,0.69,13.74
		c0.08,0.32,0.31,0.46,0.649,0.46c2.48,0,10.931-7.75,11.63-11.88c0.12-0.75,8.16-4.52,10.74-4.979c1.6-0.28,2.94-0.431,4.021-0.431
		C582.907,118.215,583.997,118.936,583.756,120.365z M654.537,114.005c-4.76,26.51-8.42,44.4-11,53.681
		c-0.14,0.609-12.52,3.81-16.74,3.81c-0.95,0-1.49-0.16-1.38-0.55c2.58-9.271,6.18-26.851,10.82-52.73
		c3.22-17.96,0.13-35.97-1.01-35.97c-0.04,0-0.07,0.02-0.101,0.06c-4.07,4.93-8.16,11.51-12.29,19.76
		c-3.95,7.899-9.53,21.729-16.75,41.479c-0.63,1.84-3.859,3.36-9.7,4.561c-2.6,0.56-4.6,0.85-6.01,0.85c-1.72,0-2.56-0.43-2.49-1.28
		c0.74-10.189,14.801-73.29,15.891-80.57c0.25-1.83,14.63-5.15,17.77-5.15c0.4,0,0.62,0.06,0.61,0.17
		c-0.98,6.36-2.44,13.86-4.39,22.5c1.439-1.77,2.93-3.4,4.47-4.89c6.87-6.59,15.35-10.82,25.43-12.71c0.12-0.03,0.25-0.04,0.37-0.04
		c4.38,0,10.18,14.04,9.67,22.88C657.306,96.285,656.247,104.325,654.537,114.005z M701.596,94.225c-2.699,0-4.64-0.26-4.21-0.75
		c3.04-3.44,4.561-7.44,4.561-12.02c0-3.94-7.061-6.78-12.95-6.78c-3.35,0-6.33,0.92-7.41,3.08c-2.81,5.79-4.87,12.11-6.18,18.98
		c-1.26,6.649-1.811,13.2-1.64,19.67c0.229,8.189,1.38,14.399,3.439,18.64c0.35,0.74,1.25,1.05,2.38,1.05
		c2.75,0,6.88-1.81,8.01-3.71c1.381-2.229,4.96-3.859,10.74-4.899c0.2-0.04,0.521-0.061,0.92-0.061c2.271,0,7.011,0.67,6.38,1.69
		c-5.319,8.88-12.34,14.72-21.04,17.53c-4.399,1.43-8.279,2.149-11.64,2.149c-6.29,0-10.74-2.52-13.36-7.569
		c-4.579-8.7-5.52-21.351-2.829-37.961c2.569-15.919,7.989-27.54,16.229-34.87c6.3-5.67,13.91-9.25,22.85-10.74
		c2.061-0.32,4-0.48,5.801-0.48c5.479,0,9.729,1.51,12.75,4.52c4.069,4.18,5.979,9.25,5.76,15.2c-0.18,5.67-2.24,10.71-6.19,15.12
		C712.676,93.515,706.086,94.225,701.596,94.225z M768.506,100.265c-0.399,1.141-2.34,2.37-5.84,3.69
		c-2.68,0.93-11.14,1.55-16.93,1.55c-0.26,0-0.51,0-0.76-0.01c-4.471,0-7.99,0.15-10.57,0.44c-0.91,4.579-1.54,9.699-1.89,15.369
		c-0.28,6.301-0.051,10.881,0.689,13.74c0.49,1.87,2.78,2.75,4.36,2.75c0.64,0,1.16-0.149,1.399-0.43
		c3.54-4.47,5.721-9.05,6.521-13.74c0.1-0.61,12.359-3.79,16.609-3.79c0.94,0,1.49,0.15,1.431,0.521
		c-1.26,7.449-5.271,13.949-12.03,19.5c-3.89,3.21-7.93,5.5-12.1,6.87c-4.94,1.659-9.11,2.489-12.5,2.489
		c-1.41,0-2.681-0.14-3.82-0.43c-5.96-1.49-8.94-6.98-8.94-16.49c-0.05-5.84,0.46-12.51,1.551-20.01c2-13,4.92-22.85,8.76-29.55
		c2.46-5.44,5.24-9.67,8.33-12.71c4.52-4.47,10.59-7.39,18.21-8.76c2.66-0.48,5.05-0.72,7.18-0.72c4.41,0,7.66,1.04,9.74,3.13
		c2.81,2.74,4.38,6.7,4.729,11.85C773.207,82.285,771.827,90.525,768.506,100.265z M820.147,44.775
		c-1.83,6.01-5.38,11.2-10.65,15.55c-2.979,2.46-7.07,3.92-12.28,4.38c-0.31,0.02-0.609,0.04-0.91,0.04
		c-1.05,0-2.06-0.16-3.039-0.47c-1.66-0.46-1.78-1.29-0.351-2.49c4.7-3.9,7.76-8.56,9.19-14c1.55-5.79,0.92-11.28-1.891-16.49
		c-0.34-0.69,0.32-1.55,1.98-2.58c1.55-0.97,3.46-1.83,5.75-2.58c2.89-0.94,5.22-1.42,6.979-1.42c1.86,0,3.08,0.53,3.67,1.59
		C821.636,32.095,822.157,38.245,820.147,44.775z M913.596,41.855c-3.949,14.72-10.189,32.41-18.72,53.08
		c6.01,0,11.33,0.72,15.97,2.15c1.66,0.51,1.98,1.351,0.95,2.49c-0.75,0.74-1.84,1.46-3.27,2.15c-3.99,1.859-7.34,2.8-10.07,2.8
		c-1.03,0-1.96-0.13-2.81-0.4c-1.261-0.399-2.66-0.74-4.21-1.03c-14.03,33.44-22.931,55.94-26.71,67.511
		c-0.69,2.12-4.301,3.779-10.82,4.979c-1.82,0.34-3.3,0.51-4.45,0.51c-2.37,0-3.32-0.71-2.86-2.14
		c3.5-10.65,12.86-34.21,28.091-70.69c-2.23,0.29-4.92,0.721-8.07,1.29c-1.19,0.24-2.45,0.36-3.76,0.36
		c-0.261,0-0.53-0.01-0.79-0.02c-2.471-0.11-3.38-0.801-2.75-2.061c1.14-2.17,4.72-3.81,10.729-4.89c2.92-0.58,5.38-1.01,7.391-1.29
		c7.899-19.36,13.77-36.08,17.609-50.16c-0.24-0.06-0.76-0.09-1.55-0.09c-3.17,0-10.76,0.46-22.76,1.38
		c-0.37,0.02-0.74,0.04-1.09,0.04c-0.29,0-0.57-0.01-0.851-0.03c-2.939,11.78-6.33,26.6-10.189,44.48
		c-5.551,25.541-9.62,43.4-12.19,53.59c-0.17,0.81-1.439,1.75-3.78,2.84c-2.119,0.97-4.47,1.69-7.05,2.15
		c-1.72,0.31-3.149,0.46-4.26,0.46c-2.38,0-3.39-0.7-3.04-2.101c2.64-10.479,6.53-27.649,11.69-51.53
		c4.859-22.27,8.84-39.45,11.93-51.54c-4.01,1.15-7.44,1.89-10.3,2.24c-0.46,0.05-0.91,0.08-1.351,0.08c-0.88,0-1.72-0.11-2.52-0.34
		c-1.601-0.52-1.75-1.38-0.431-2.58c2.351-2.17,6.44-3.63,12.28-4.38c1.03-0.17,2.87-0.69,5.5-1.54c3.15-1.09,5.24-1.78,6.271-2.07
		c2-0.51,3.92-0.83,5.76-0.94c0.3-0.02,0.6-0.03,0.87-0.03c2.47,0,3.52,0.7,3.16,2.09c-0.32,1.22-0.65,2.49-0.99,3.8
		c2.35-1.05,5.21-1.71,8.57-2c1.89-0.11,4.659-0.4,8.329-0.85c3.78-0.52,6.58-0.86,8.421-1.03c1.829-0.16,3.569-0.24,5.239-0.24
		c4.33,0,8.11,0.54,11.33,1.61C913.306,40.365,913.827,40.995,913.596,41.855z"/>
	<path fill="#FFFFFF" d="M752.017,98.625c-6.641,0.18-12.141,0.58-16.49,1.21c0.689-3.27,5.76-18.04,7.99-22.68
		c0.46-0.9,2.38-1.52,4.47-1.52c2.83,0,5.97,1.12,6.26,4.18C754.876,84.455,754.136,90.725,752.017,98.625z"/>
	<path fill="#FFFFFF" d="M572.247,98.625c-6.64,0.18-12.14,0.58-16.49,1.21c0.69-3.27,1.4-6.36,2.15-9.28
		c1.66-4.29,3.6-8.76,5.84-13.4c1.08-2.12,2.32-4.15,3.69-6.1c0.46-0.68,1.029-1.37,1.72-2.06c-0.05,0.04-0.08,0.05-0.08,0.05
		c0-0.02,0.11-0.12,0.34-0.31c0.23,0.12,0.51,0.29,0.851,0.52c2.3,1.72,3.699,5.24,4.21,10.56
		C575.107,84.455,574.367,90.725,572.247,98.625z"/>
	<path fill="#FFFFFF" d="M405.617,98.625c-6.64,0.18-12.14,0.58-16.49,1.21c0.69-3.27,1.4-6.36,2.15-9.28
		c1.66-4.29,3.61-8.76,5.84-13.4c1.09-2.12,2.32-4.15,3.69-6.1c0.46-0.68,1.03-1.37,1.72-2.06c-0.05,0.04-0.08,0.05-0.08,0.05
		c0-0.02,0.11-0.12,0.34-0.31c0.23,0.12,0.51,0.29,0.86,0.52c2.29,1.72,3.69,5.24,4.2,10.56
		C408.487,84.455,407.737,90.725,405.617,98.625z"/>
	<path fill="#FFFFFF" d="M351.247,84.115c-1.26,6.76-2.92,15.92-4.98,27.479c-2.35,13.4-3.98,22.54-4.89,27.4
		c-1.62,0.71-5.01,2.24-6.31,2.24c-0.17,0-0.3-0.03-0.39-0.09c-4.18-2.631-7.1-7.04-8.76-13.23c-2.06-8.13-1.58-18.49,1.46-31.09
		c2.31-9.3,12.39-16.72,17.62-16.72c1.76,0,2.98,0.83,3.16,2.72C348.217,83.625,349.247,84.055,351.247,84.115z"/>
	<path fill="#FFFFFF" d="M225.417,79.645c-0.91,4.53-2.29,10.57-4.12,18.13c-3.09,7.44-8.47,16.34-16.15,26.71
		c-3.46,4.71-7.17,7.569-8.06,7.569c-0.09,0-0.15-0.029-0.18-0.1c-1.84-5.15,2.29-35.1,5.67-43.29c1.26-2.98,6.72-12.57,8.16-14
		c0.13-0.13,0.33-0.19,0.59-0.19c2.5,0,10.49,5.18,13.86,5.18C225.267,79.655,225.347,79.655,225.417,79.645z"/>
	<path fill="#093334" d="M913.596,41.855c-3.949,14.72-10.189,32.41-18.72,53.08c6.01,0,11.33,0.72,15.97,2.15
		c1.66,0.51,1.98,1.351,0.95,2.49c-0.75,0.74-1.84,1.46-3.27,2.15c-3.99,1.859-7.34,2.8-10.07,2.8c-1.03,0-1.96-0.13-2.81-0.4
		c-1.261-0.399-2.66-0.74-4.21-1.03c-14.03,33.44-22.931,55.94-26.71,67.511c-0.69,2.12-4.301,3.779-10.82,4.979
		c-1.82,0.34-3.3,0.51-4.45,0.51c-2.37,0-3.32-0.71-2.86-2.14c3.5-10.65,12.86-34.21,28.091-70.69c-2.23,0.29-4.92,0.721-8.07,1.29
		c-1.19,0.24-2.45,0.36-3.76,0.36c-0.261,0-0.53-0.01-0.79-0.02c-2.471-0.11-3.38-0.801-2.75-2.061c1.14-2.17,4.72-3.81,10.729-4.89
		c2.92-0.58,5.38-1.01,7.391-1.29c7.899-19.36,13.77-36.08,17.609-50.16c-0.24-0.06-0.76-0.09-1.55-0.09
		c-3.17,0-10.76,0.46-22.76,1.38c-0.37,0.02-0.74,0.04-1.09,0.04c-0.29,0-0.57-0.01-0.851-0.03c-2.939,11.78-6.33,26.6-10.189,44.48
		c-5.551,25.541-9.62,43.4-12.19,53.59c-0.17,0.81-1.439,1.75-3.78,2.84c-2.119,0.97-4.47,1.69-7.05,2.15
		c-1.72,0.31-3.149,0.46-4.26,0.46c-2.38,0-3.39-0.7-3.04-2.101c2.64-10.479,6.53-27.649,11.69-51.53
		c4.859-22.27,8.84-39.45,11.93-51.54c-4.01,1.15-7.44,1.89-10.3,2.24c-0.46,0.05-0.91,0.08-1.351,0.08c-0.88,0-1.72-0.11-2.52-0.34
		c-1.601-0.52-1.75-1.38-0.431-2.58c2.351-2.17,6.44-3.63,12.28-4.38c1.03-0.17,2.87-0.69,5.5-1.54c3.15-1.09,5.24-1.78,6.271-2.07
		c2-0.51,3.92-0.83,5.76-0.94c0.3-0.02,0.6-0.03,0.87-0.03c2.47,0,3.52,0.7,3.16,2.09c-0.32,1.22-0.65,2.49-0.99,3.8
		c2.35-1.05,5.21-1.71,8.57-2c1.89-0.11,4.659-0.4,8.329-0.85c3.78-0.52,6.58-0.86,8.421-1.03c1.829-0.16,3.569-0.24,5.239-0.24
		c4.33,0,8.11,0.54,11.33,1.61C913.306,40.365,913.827,40.995,913.596,41.855z"/>
</g>
</svg>
